<svg width="301" height="401" viewBox="0 0 301 401" fill="none" xmlns="http://www.w3.org/2000/svg">
<mask id="mask0_815_11912" style="mask-type:alpha" maskUnits="userSpaceOnUse" x="0" y="0" width="301" height="401">
<rect x="0.695312" y="0.311523" width="300" height="400" rx="2" fill="#C4C4C4"/>
</mask>
<g mask="url(#mask0_815_11912)">
<rect x="-111.305" y="-50.6885" width="524" height="524" fill="#D84E00"/>
<mask id="mask1_815_11912" style="mask-type:alpha" maskUnits="userSpaceOnUse" x="-50" y="0" width="401" height="401">
<rect x="-49.3047" y="0.311523" width="400" height="400" fill="#D84E00"/>
</mask>
<g mask="url(#mask1_815_11912)">
<path d="M148.728 -127.688C157.615 -100.046 174.578 -59.5718 210.72 -25.3321C241.078 3.63826 257.915 2.60924 296.09 36.5747C329.637 66.4407 363.762 96.8917 369.091 143.66C373.301 179.971 360.623 230.081 320.482 252.984C290.231 270.161 242.042 273.266 218.64 246.672C207.084 233.231 199.918 210.828 206.963 190.567C208.725 185.357 215.759 167.998 231.745 162.029C243.661 157.769 255.547 161.054 274.677 167.009C283.664 169.691 291.198 172.653 295.832 175.011C298.759 168.649 303.458 154.755 300.333 137.607C294.366 105.345 265.111 90.8944 261.055 89.1213C235.562 77.3124 211.735 84.6716 206.213 86.6599C206.245 78.5338 205.126 68.0769 201.107 57.0168C188.755 24.7049 160.078 10.8395 151.966 7.29317C145.864 9.27693 116.221 19.4928 102.46 49.8588C96.6056 62.5828 95.6856 75.0554 95.6557 82.6011C88.9889 80.5172 68.4034 75.422 46.306 85.697C43.3993 86.8351 10.8337 102.252 6.63754 135.886C4.54289 151.832 10.0052 164.935 13.1734 171.054C17.5414 167.315 32.676 156.405 53.5689 157.15C74.7532 157.606 98.2109 170.269 105.1 189.478C115.433 218.582 85.3929 255.786 54.3002 265.7C10.7111 279.87 -42.8319 242.591 -58.3356 200.097C-82.4514 133.736 -11.9287 60.5713 -3.18559 51.3526C38.1943 8.72335 68.9406 13.0275 105.395 -31.6719C132.808 -65.1233 143.692 -101.897 148.728 -127.688Z" fill="#75A9C9"/>
<path d="M147.928 533.244C156.815 505.603 173.778 465.128 209.92 430.889C240.278 401.918 257.115 402.947 295.29 368.982C328.837 339.116 362.962 308.665 368.291 261.897C372.501 225.585 359.823 175.476 319.682 152.572C289.431 135.396 241.243 132.291 217.84 158.885C206.284 172.326 199.118 194.729 206.163 214.99C207.925 220.2 214.959 237.558 230.945 243.528C242.861 247.788 254.747 244.502 273.878 238.548C282.864 235.865 290.398 232.904 295.032 230.546C297.959 236.908 302.658 250.802 299.533 267.95C293.566 300.212 264.311 314.662 260.255 316.435C234.763 328.244 210.936 320.885 205.413 318.897C205.446 327.023 204.326 337.48 200.307 348.54C187.955 380.852 159.278 394.717 151.166 398.263C145.064 396.28 115.421 386.064 101.661 355.698C95.8058 342.974 94.8858 330.501 94.8559 322.956C88.1891 325.039 67.6036 330.135 45.5062 319.86C42.5995 318.722 10.0339 303.304 5.83773 269.671C3.74308 253.725 9.20535 240.622 12.3736 234.503C16.7416 238.241 31.8762 249.151 52.7691 248.407C73.9534 247.951 97.4111 235.287 104.3 216.078C114.633 186.975 84.5931 149.771 53.5003 139.857C9.9113 125.687 -43.6317 162.965 -59.1354 205.46C-83.2512 271.82 -12.7285 344.985 -3.9854 354.204C37.3945 396.833 68.1408 392.529 104.595 437.229C132.008 470.68 142.892 507.453 147.928 533.244Z" fill="#75A9C9"/>
</g>
<ellipse cx="150.696" cy="200.312" rx="68.3998" ry="47" transform="rotate(-180 150.696 200.312)" fill="#ECE1CF"/>
<ellipse cx="150.698" cy="200.312" rx="15.4767" ry="47" transform="rotate(-180 150.698 200.312)" fill="black"/>
</g>
</svg>
