<svg width="301" height="401" viewBox="0 0 301 401" fill="none" xmlns="http://www.w3.org/2000/svg">
<mask id="mask0_638_9616" style="mask-type:alpha" maskUnits="userSpaceOnUse" x="0" y="0" width="301" height="401">
<rect x="0.605347" y="0.230225" width="300" height="400" fill="#C4C4C4"/>
</mask>
<g mask="url(#mask0_638_9616)">
<circle cx="150.105" cy="199.73" r="719.235" fill="#517D56" stroke="#003E33" stroke-width="14.53"/>
<circle cx="150.108" cy="199.73" r="599.362" fill="#ECE1CF" stroke="#003E33" stroke-width="14.53"/>
<path fill-rule="evenodd" clip-rule="evenodd" d="M154.082 -285.484L294.077 -147.069H495.567V54.5762L637.02 194.433L495.567 334.29V535.932H295.032L153.824 675.546L12.6162 535.932H-187.434V334.271L-328.871 194.43L-187.434 54.5894V-147.069H14.087L154.082 -285.484Z" fill="#517D56"/>
<path d="M294.077 -147.069L288.969 -141.902L291.092 -139.804H294.077V-147.069ZM154.082 -285.484L159.19 -290.65L154.082 -295.7L148.974 -290.65L154.082 -285.484ZM495.567 -147.069H502.832V-154.334H495.567V-147.069ZM495.567 54.5762H488.302V57.6096L490.459 59.7424L495.567 54.5762ZM637.02 194.433L642.128 199.599L647.353 194.433L642.128 189.267L637.02 194.433ZM495.567 334.29L490.459 329.124L488.302 331.257V334.29H495.567ZM495.567 535.932V543.197H502.832V535.932H495.567ZM295.032 535.932V528.667H292.047L289.924 530.766L295.032 535.932ZM153.824 675.546L148.716 680.712L153.824 685.763L158.932 680.712L153.824 675.546ZM12.6162 535.932L17.7241 530.766L15.6013 528.667H12.6162V535.932ZM-187.434 535.932H-194.699V543.197H-187.434V535.932ZM-187.434 334.271H-180.169V331.237L-182.326 329.105L-187.434 334.271ZM-328.871 194.43L-333.979 189.264L-339.204 194.43L-333.979 199.596L-328.871 194.43ZM-187.434 54.5894L-182.326 59.7556L-180.169 57.6228V54.5894H-187.434ZM-187.434 -147.069V-154.334H-194.699V-147.069H-187.434ZM14.087 -147.069V-139.804H17.0721L19.1948 -141.902L14.087 -147.069ZM299.185 -152.235L159.19 -290.65L148.974 -280.317L288.969 -141.902L299.185 -152.235ZM495.567 -154.334H294.077V-139.804H495.567V-154.334ZM502.832 54.5762V-147.069H488.302V54.5762H502.832ZM642.128 189.267L500.675 49.41L490.459 59.7424L631.912 199.599L642.128 189.267ZM500.675 339.456L642.128 199.599L631.912 189.267L490.459 329.124L500.675 339.456ZM502.832 535.932V334.29H488.302V535.932H502.832ZM295.032 543.197H495.567V528.667H295.032V543.197ZM289.924 530.766L148.716 670.38L158.932 680.712L300.14 541.098L289.924 530.766ZM158.932 670.38L17.7241 530.766L7.50829 541.098L148.716 680.712L158.932 670.38ZM-187.434 543.197H12.6162V528.667H-187.434V543.197ZM-194.699 334.271V535.932H-180.169V334.271H-194.699ZM-333.979 199.596L-192.542 339.437L-182.326 329.105L-323.763 189.264L-333.979 199.596ZM-192.542 49.4232L-333.979 189.264L-323.763 199.596L-182.326 59.7556L-192.542 49.4232ZM-194.699 -147.069V54.5894H-180.169V-147.069H-194.699ZM14.087 -154.334H-187.434V-139.804H14.087V-154.334ZM148.974 -290.65L8.97906 -152.235L19.1948 -141.902L159.19 -280.317L148.974 -290.65Z" fill="#003E33"/>
<path d="M328.556 39.9762L446.577 39.3125L301.222 186.048L181.732 188.194L328.556 39.9762Z" fill="#EFB854"/>
<path d="M313.735 25.316L313.172 -92.5942L167.817 54.141L166.912 173.533L313.735 25.316Z" fill="#EFB854"/>
<path d="M-7.19656 372.009L-6.63345 489.919L138.722 343.184L139.627 223.791L-7.19656 372.009Z" fill="#EFB854"/>
<path d="M-22.0247 357.331L-140.046 357.995L5.30865 211.259L124.799 209.114L-22.0247 357.331Z" fill="#EFB854"/>
<path d="M328.464 356.825L446.486 357.375L301.272 210.781L181.782 208.75L328.464 356.825Z" fill="#EFB854"/>
<path d="M313.652 371.5L312.974 489.409L167.76 342.816L166.97 223.425L313.652 371.5Z" fill="#EFB854"/>
<path d="M-6.73748 24.3916L-6.06043 -93.5181L139.154 53.0755L139.944 172.466L-6.73748 24.3916Z" fill="#EFB854"/>
<path d="M-21.5969 39.0732L-139.619 38.5234L5.59563 185.117L125.085 187.148L-21.5969 39.0732Z" fill="#EFB854"/>
<ellipse cx="149.813" cy="193.19" rx="68.7236" ry="47.2225" fill="#ECE1CF"/>
<ellipse cx="152.577" cy="193.19" rx="15.55" ry="47.2225" fill="#003E33"/>
<path d="M152.475 16.262C161.119 16.262 168.127 9.2602 168.127 0.623047C168.127 -8.01411 161.119 -15.0159 152.475 -15.0159C143.831 -15.0159 136.824 -8.01411 136.824 0.623047C136.824 9.2602 143.831 16.262 152.475 16.262Z" fill="#EFB854"/>
<path d="M152.475 413.205C161.119 413.205 168.127 406.204 168.127 397.566C168.127 388.929 161.119 381.927 152.475 381.927C143.831 381.927 136.824 388.929 136.824 397.566C136.824 406.204 143.831 413.205 152.475 413.205Z" fill="#EFB854"/>
</g>
</svg>
