<svg width="1440" height="900" viewBox="0 0 1440 900" fill="none" xmlns="http://www.w3.org/2000/svg">
<g clip-path="url(#clip0_117_726)">
<rect width="1440" height="900" fill="#101010"/>
<path d="M1302.19 947.501L1200.99 933.43L1208.44 879.821L1047.62 857.461L1058.41 779.803L1208.37 593.819L1348.66 613.323L1321.91 805.713L1360.48 811.077L1348.22 899.256L1309.65 893.892L1302.19 947.501ZM1220.7 791.642L1235.33 686.429L1157.57 782.865L1220.7 791.642Z" fill="#EFB854"/>
<path d="M258.129 847.622L69.0232 773.645L108.209 673.476L-192.3 555.919L-135.536 410.813L240.272 120.658L502.398 223.2L361.769 582.687L433.854 610.887L369.399 775.652L297.314 747.453L258.129 847.622ZM172.664 508.711L249.571 312.116L54.7072 462.567L172.664 508.711Z" fill="#D84E00"/>
<ellipse rx="249.599" ry="171.597" transform="matrix(-0.969943 -0.243332 -0.243332 0.969943 1005.85 140.174)" fill="#75A9C9"/>
<ellipse rx="56.4762" ry="171.597" transform="matrix(-0.969943 -0.243332 -0.243332 0.969943 1005.85 140.178)" fill="#101010"/>
</g>
<defs>
<clipPath id="clip0_117_726">
<rect width="1440" height="900" fill="white"/>
</clipPath>
</defs>
</svg>
