<svg width="1290" height="26" viewBox="0 0 1290 26" fill="none" xmlns="http://www.w3.org/2000/svg">
<path d="M5.57378e-07 13.2487C0.327265 12.7869 1.19997 11.7214 2.76357 11.1175C3.92717 10.6558 4.94533 10.6558 5.52713 10.7268C5.45441 10.4427 5.19987 9.48366 5.67258 8.45361C6.4362 6.85526 8.2907 6.57111 8.43615 6.57111C8.25433 6.1804 7.74526 4.75965 8.2907 3.09025C8.98159 0.994633 10.8724 0.142172 11.1633 9.77627e-05C11.7451 2.73506 13.0178 4.08479 13.7815 4.68861C14.5451 5.32795 15.3814 5.68315 17.0905 6.42905C20.3995 7.88533 20.9085 7.56564 21.8903 8.45361C23.3448 9.7323 23.9994 12.0055 23.5266 13.9591C22.8358 16.8361 19.8904 18.1503 18.7268 18.6476C17.2359 19.3224 16.7996 19.0738 15.7087 19.5711C14.2542 20.2815 12.5815 21.8798 11.5997 26C11.0906 25.6448 9.70884 24.6148 9.01795 22.7322C8.50887 21.347 8.61795 20.1749 8.72704 19.5355C8.58159 19.5711 7.34526 19.7131 6.54528 18.8607C5.7453 18.0438 5.70894 16.5875 6.54528 15.5219C5.78167 15.5574 4.47261 15.5219 2.98174 14.9891C1.49087 14.4563 0.545441 13.7104 5.57378e-07 13.2487Z" fill="#ECE1CF"/>
<circle cx="33.8951" cy="12.9994" r="3.71427" transform="rotate(90 33.8951 12.9994)" fill="#ECE1CF"/>
<path d="M1289.61 13.2487C1289.28 12.7869 1288.41 11.7214 1286.85 11.1175C1285.68 10.6558 1284.66 10.6558 1284.08 10.7268C1284.15 10.4427 1284.41 9.48366 1283.94 8.45361C1283.17 6.85526 1281.32 6.57111 1281.17 6.57111C1281.36 6.1804 1281.86 4.75965 1281.32 3.09025C1280.63 0.994633 1278.74 0.142172 1278.45 9.77627e-05C1277.86 2.73506 1276.59 4.08479 1275.83 4.68861C1275.06 5.32795 1274.23 5.68315 1272.52 6.42905C1269.21 7.88533 1268.7 7.56564 1267.72 8.45361C1266.26 9.7323 1265.61 12.0055 1266.08 13.9591C1266.77 16.8361 1269.72 18.1503 1270.88 18.6476C1272.37 19.3224 1272.81 19.0738 1273.9 19.5711C1275.36 20.2815 1277.03 21.8798 1278.01 26C1278.52 25.6448 1279.9 24.6148 1280.59 22.7322C1281.1 21.347 1280.99 20.1749 1280.88 19.5355C1281.03 19.5711 1282.26 19.7131 1283.06 18.8607C1283.86 18.0438 1283.9 16.5875 1283.06 15.5219C1283.83 15.5574 1285.14 15.5219 1286.63 14.9891C1288.12 14.4563 1289.06 13.7104 1289.61 13.2487Z" fill="#ECE1CF"/>
<circle r="3.71427" transform="matrix(4.37114e-08 1 1 -4.37114e-08 1255.71 12.9994)" fill="#ECE1CF"/>
<line x1="58" y1="12.5" x2="899" y2="12.5" stroke="#ECE1CF"/>
<line x1="859" y1="12.4883" x2="1232" y2="12.4882" stroke="#ECE1CF"/>
</svg>
