<svg width="73" height="27" viewBox="0 0 73 27" fill="none" xmlns="http://www.w3.org/2000/svg">
<path d="M13.0547 0C5.84472 0 0 5.94786 0 13.2851C0 20.6224 5.84472 26.5702 13.0547 26.5702C20.2648 26.5702 26.1095 20.6224 26.1095 13.2851C26.1095 5.94786 20.2648 0 13.0547 0ZM18.0754 14.9887C18.0754 14.9887 19.2299 16.1483 19.5141 16.6867C19.5223 16.6977 19.5264 16.7088 19.5291 16.7143C19.6447 16.9122 19.6719 17.0658 19.6147 17.1807C19.5196 17.3717 19.1932 17.4658 19.0817 17.4741H17.0419C16.9004 17.4741 16.604 17.4367 16.245 17.1849C15.9689 16.9883 15.697 16.6659 15.4318 16.3518C15.0361 15.884 14.6934 15.4799 14.348 15.4799C14.3041 15.4799 14.2605 15.4869 14.2188 15.5007C13.9577 15.5865 13.6232 15.9657 13.6232 16.9759C13.6232 17.2914 13.3784 17.4727 13.2057 17.4727H12.2715C11.9532 17.4727 10.2956 17.3592 8.82691 15.783C7.02916 13.8525 5.41092 9.98044 5.39732 9.94446C5.29533 9.69398 5.50611 9.55975 5.73593 9.55975H7.79613C8.07082 9.55975 8.16057 9.72996 8.22313 9.88081C8.29656 10.0566 8.56581 10.7554 9.00777 11.5414C9.72442 12.8229 10.1637 13.3432 10.5159 13.3432C10.5819 13.3424 10.6468 13.3254 10.7049 13.2934C11.1645 13.0333 11.0788 11.3657 11.0585 11.0197C11.0585 10.9547 11.0571 10.2738 10.8218 9.94723C10.6532 9.71059 10.3663 9.62064 10.1922 9.58743C10.2627 9.48849 10.3555 9.40828 10.4628 9.35355C10.7783 9.19302 11.3467 9.1695 11.9111 9.1695H12.2252C12.8372 9.1778 12.9949 9.21793 13.2166 9.27467C13.6653 9.384 13.6748 9.67876 13.6354 10.6876C13.6232 10.9741 13.6109 11.2979 13.6109 11.6798C13.6109 11.7629 13.6068 11.8514 13.6068 11.9455C13.5932 12.4589 13.5769 13.0416 13.9332 13.281C13.9797 13.3106 14.0334 13.3264 14.0882 13.3266C14.212 13.3266 14.5846 13.3266 15.5936 11.565C15.9048 10.9979 16.1752 10.4087 16.4027 9.80192C16.4231 9.76594 16.483 9.65524 16.5537 9.61234C16.6059 9.58526 16.6637 9.57149 16.7223 9.5722H19.1442C19.408 9.5722 19.5889 9.61234 19.6229 9.71613C19.6827 9.88081 19.612 10.3831 18.5065 11.9068L18.0128 12.5697C17.0106 13.9065 17.0106 13.9743 18.0754 14.9887V14.9887Z" fill="#ECE1CF"/>
<path d="M59.4607 0C52.0874 0 46.1094 5.97807 46.1094 13.3514C46.1094 20.7246 52.0874 26.7027 59.4607 26.7027C66.834 26.7027 72.8121 20.7246 72.8121 13.3514C72.8121 5.97807 66.834 0 59.4607 0ZM66.0185 9.14679L63.8266 19.4718C63.6653 20.2039 63.2291 20.382 62.6205 20.037L59.2827 17.5782L57.6739 19.1291C57.5181 19.3294 57.2767 19.4574 57.0063 19.4574C57.0041 19.4574 57.003 19.4574 57.0007 19.4574L57.2377 16.0595L63.4239 10.4719C63.6909 10.2349 63.3638 10.1003 63.0088 10.3373L55.3663 15.1504L52.073 14.1224C51.3609 13.8965 51.3409 13.4103 52.2232 13.061L65.0917 8.10093C65.6902 7.88286 66.2109 8.24335 66.0174 9.1479L66.0185 9.14679Z" fill="#ECE1CF"/>
</svg>
