<svg width="172" height="167" viewBox="0 0 172 167" fill="none" xmlns="http://www.w3.org/2000/svg">
<path d="M16.2549 0.866211C22.9387 5.41614 33.5918 11.3987 47.3829 12.708C59.0031 13.854 62.5192 10.7291 76.7091 11.6282C89.1821 12.4222 101.882 13.2454 111.062 22.6151C118.205 29.8774 124.008 43.0821 119.128 55.0304C115.436 64.0163 105.4 72.9952 95.7127 71.1745C90.8761 70.2073 85.4669 66.5133 83.5414 60.8438C83.0353 59.3945 81.6045 54.3654 84.0877 50.3003C85.9711 47.3119 89.1406 45.9884 94.3561 44.0047C96.7863 43.0477 98.9457 42.4021 100.366 42.123C99.9182 40.2196 98.5686 36.3546 94.946 33.1207C88.1112 27.0516 79.2201 28.9095 78.0269 29.2177C70.4135 31.0089 66.4487 36.7296 65.5783 38.1176C64.1934 36.3246 62.1567 34.2172 59.3807 32.4764C51.1371 27.4954 42.4731 29.3825 40.0866 29.999C39.0881 31.4859 34.3373 38.8361 36.521 47.8843C37.4166 51.691 39.3513 54.5929 40.6373 56.2578C38.8183 56.9471 33.4311 59.3703 30.3451 65.4345C29.9026 66.1853 25.4017 75.1827 30.2427 83.3031C32.5148 87.1712 35.9571 89.1129 37.7002 89.9136C38.0177 88.3392 39.4679 83.334 44.1773 79.9009C48.9012 76.3543 56.2148 75.1014 61.016 78.1405C68.2673 82.7633 68.0523 96.1182 62.9318 103.652C55.7997 114.272 37.672 115.29 26.9929 108.612C10.337 98.1674 13.2701 69.9332 13.6084 66.4003C15.381 49.8999 22.861 45.5535 23.1989 29.4457C23.4806 17.3684 19.5683 7.40606 16.2549 0.866211Z" fill="#75A9C9"/>
<circle r="3.02838" transform="matrix(-0.99877 -0.0495868 -0.0495797 0.99877 12.8926 28.9737)" fill="#2D517F"/>
<circle r="3.02838" transform="matrix(-0.99877 -0.0495832 -0.0495832 0.99877 58.9629 120.841)" fill="#D84E00"/>
<circle r="3.02838" transform="matrix(-0.99877 -0.0495868 -0.0495796 0.99877 47.8145 5.39072)" fill="#2D517F"/>
<circle r="3.02838" transform="matrix(-0.99877 -0.0495868 -0.0495796 0.99877 125.346 65.0645)" fill="#D84E00"/>
<path d="M16.4172 141.513C16.5602 140.662 17.1452 138.65 19.0132 136.759C20.396 135.35 21.7816 134.726 22.7222 134.477C22.4529 134.074 21.499 132.929 21.5006 131.18C21.5797 128.433 24.0415 126.888 24.2603 126.789C23.7796 126.306 22.1664 124.672 21.9211 121.984C21.6326 118.616 23.7016 116.198 24.0737 115.856C26.6109 119.348 29.2124 120.45 30.6991 120.829C32.1859 121.209 33.5819 121.193 36.4796 121.2C42.0964 121.206 42.5966 120.369 44.5715 121.054C47.4319 121.952 49.7475 124.756 50.3351 127.815C51.1473 132.345 47.8087 136.035 46.426 137.444C44.7366 139.342 43.9895 139.241 42.7124 140.691C41.1287 142.628 39.7042 145.893 40.9374 152.333C39.979 152.152 37.4281 151.552 35.1958 149.322C33.5827 147.687 33.0485 145.917 32.8016 144.978C32.6155 145.15 30.9306 146.083 29.3129 145.413C27.6952 144.742 26.7057 142.739 27.1851 140.687C26.1239 141.252 24.2679 142.001 21.7929 142.153C19.2449 142.339 17.4411 141.839 16.4172 141.513Z" fill="#D75014"/>
<path d="M154.086 27.8235C154.343 28.6476 154.73 30.7072 153.917 33.2375C153.32 35.1196 152.366 36.3021 151.639 36.9488C152.061 37.187 153.429 37.7773 154.218 39.339C155.388 41.825 153.89 44.3159 153.739 44.5026C154.386 44.7165 156.563 45.4463 157.996 47.7334C159.774 50.6078 159.021 53.6997 158.843 54.1733C155.003 52.2037 152.184 52.3953 150.686 52.7279C149.188 53.0605 147.95 53.7058 145.361 55.0084C140.347 57.5393 140.279 58.5122 138.208 58.7933C135.25 59.2839 131.917 57.8273 130.012 55.3642C127.241 51.6884 128.553 46.889 129.15 45.0068C129.801 42.5509 130.513 42.3035 130.997 40.4335C131.535 37.9897 131.332 34.4335 127.323 29.2447C128.26 28.9729 130.807 28.3564 133.806 29.338C135.983 30.0677 137.259 31.4062 137.903 32.1317C137.992 31.8949 139.074 30.301 140.82 30.1688C142.566 30.0365 144.354 31.3764 144.853 33.4239C145.544 32.4403 146.862 30.9344 149.001 29.6804C151.191 28.3642 153.026 27.9951 154.086 27.8235Z" fill="#D75014"/>
</svg>
