<svg width="172" height="167" viewBox="0 0 172 167" fill="none" xmlns="http://www.w3.org/2000/svg">
<path d="M155.618 0.866211C148.934 5.41614 138.281 11.3987 124.49 12.7081C112.87 13.854 109.354 10.7291 95.1639 11.6282C82.691 12.4222 69.9911 13.2454 60.8112 22.6151C53.6681 29.8774 47.8649 43.0821 52.7447 55.0304C56.4366 64.0163 66.4727 72.9952 76.1604 71.1745C80.9969 70.2074 86.4062 66.5133 88.3316 60.8438C88.8377 59.3945 90.2686 54.3654 87.7854 50.3003C85.9019 47.3119 82.7324 45.9884 77.517 44.0047C75.0868 43.0477 72.9273 42.4021 71.5071 42.123C71.9549 40.2196 73.3045 36.3546 76.927 33.1207C83.7619 27.0516 92.6529 28.9095 93.8461 29.2177C101.46 31.0089 105.424 36.7296 106.295 38.1176C107.68 36.3246 109.716 34.2172 112.492 32.4764C120.736 27.4955 129.4 29.3825 131.786 29.999C132.785 31.4859 137.536 38.8361 135.352 47.8843C134.456 51.691 132.522 54.5929 131.236 56.2578C133.055 56.9471 138.442 59.3703 141.528 65.4345C141.97 66.1853 146.471 75.1827 141.63 83.3031C139.358 87.1712 135.916 89.1129 134.173 89.9136C133.855 88.3392 132.405 83.334 127.696 79.9009C122.972 76.3543 115.658 75.1014 110.857 78.1405C103.606 82.7633 103.821 96.1182 108.941 103.652C116.073 114.273 134.201 115.29 144.88 108.612C161.536 98.1674 158.603 69.9332 158.265 66.4003C156.492 49.8999 149.012 45.5535 148.674 29.4457C148.392 17.3684 152.305 7.40606 155.618 0.866211Z" fill="#75A9C9"/>
<circle r="3.02838" transform="matrix(0.99877 -0.0495868 0.0495796 0.99877 158.979 28.9737)" fill="#2D517F"/>
<circle r="3.02838" transform="matrix(0.99877 -0.0495843 0.0495822 0.99877 112.907 120.841)" fill="#D84E00"/>
<circle r="3.02838" transform="matrix(0.99877 -0.049586 0.0495805 0.99877 124.056 5.39072)" fill="#2D517F"/>
<circle r="3.02838" transform="matrix(0.99877 -0.049586 0.0495805 0.99877 46.5244 65.0646)" fill="#D84E00"/>
<path d="M155.453 141.513C155.31 140.662 154.725 138.65 152.857 136.759C151.474 135.35 150.089 134.726 149.148 134.477C149.417 134.074 150.371 132.929 150.369 131.18C150.29 128.433 147.829 126.888 147.61 126.789C148.091 126.306 149.704 124.672 149.949 121.984C150.237 118.616 148.169 116.198 147.796 115.856C145.259 119.348 142.658 120.45 141.171 120.829C139.684 121.209 138.288 121.193 135.39 121.2C129.774 121.206 129.274 120.369 127.299 121.054C124.438 121.952 122.123 124.756 121.535 127.815C120.723 132.345 124.061 136.035 125.444 137.444C127.133 139.342 127.881 139.241 129.158 140.691C130.741 142.628 132.166 145.893 130.933 152.333C131.891 152.152 134.442 151.552 136.674 149.322C138.287 147.687 138.822 145.917 139.069 144.978C139.255 145.15 140.939 146.083 142.557 145.413C144.175 144.742 145.164 142.739 144.685 140.687C145.746 141.252 147.602 142.001 150.077 142.153C152.625 142.339 154.429 141.839 155.453 141.513Z" fill="#D75014"/>
<path d="M17.7837 27.8234C17.5267 28.6476 17.1399 30.7071 17.9527 33.2374C18.5498 35.1196 19.5042 36.3021 20.2312 36.9488C19.8087 37.187 18.4407 37.7772 17.652 39.339C16.4823 41.825 17.9806 44.3158 18.1313 44.5026C17.4843 44.7165 15.3068 45.4462 13.874 47.7334C12.0957 50.6078 12.8494 53.6997 13.0268 54.1733C16.8676 52.2037 19.6863 52.3953 21.1844 52.7279C22.6824 53.0605 23.9205 53.7058 26.5089 55.0084C31.5232 57.5393 31.5913 58.5122 33.6625 58.7933C36.6202 59.2839 39.9528 57.8273 41.8583 55.3641C44.6293 51.6884 43.3169 46.889 42.7198 45.0068C42.0695 42.5509 41.3574 42.3034 40.8726 40.4334C40.3346 37.9897 40.5381 34.4335 44.5469 29.2447C43.6103 28.9729 41.0633 28.3563 38.0644 29.3379C35.887 30.0677 34.6107 31.4062 33.9667 32.1316C33.8781 31.8948 32.7964 30.301 31.0502 30.1687C29.304 30.0364 27.5166 31.3764 27.0175 33.4238C26.326 32.4402 25.0081 30.9344 22.8688 29.6804C20.6793 28.3641 18.8444 27.9951 17.7837 27.8234Z" fill="#D75014"/>
</svg>
