<svg width="300" height="401" viewBox="0 0 300 401" fill="none" xmlns="http://www.w3.org/2000/svg">
<mask id="mask0_815_11808" style="mask-type:alpha" maskUnits="userSpaceOnUse" x="0" y="0" width="300" height="401">
<rect y="0.988281" width="300" height="400" rx="2" fill="#C4C4C4"/>
</mask>
<g mask="url(#mask0_815_11808)">
<ellipse cx="145.785" cy="442.488" rx="570.785" ry="570.5" fill="#C5A4DD"/>
<ellipse cx="145.781" cy="442.489" rx="470.898" ry="470.662" fill="#ECE1CF"/>
<path d="M145.788 918.854C409.006 918.854 622.391 705.58 622.391 442.487C622.391 179.394 409.006 -33.8808 145.788 -33.8808C-117.429 -33.8808 -330.814 179.394 -330.814 442.487C-330.814 705.58 -117.429 918.854 145.788 918.854Z" stroke="#0A4C81" stroke-width="11.41"/>
<path d="M145.788 918.854C409.006 918.854 622.391 705.58 622.391 442.487C622.391 179.394 409.006 -33.8808 145.788 -33.8808C-117.429 -33.8808 -330.814 179.394 -330.814 442.487C-330.814 705.58 -117.429 918.854 145.788 918.854Z" stroke="#0A4C81" stroke-width="11.41"/>
<path d="M145.788 918.854C409.006 918.854 622.391 705.58 622.391 442.487C622.391 179.394 409.006 -33.8808 145.788 -33.8808C-117.429 -33.8808 -330.814 179.394 -330.814 442.487C-330.814 705.58 -117.429 918.854 145.788 918.854Z" stroke="#0A4C81" stroke-width="11.41"/>
<path d="M145.793 1008.71C458.661 1008.71 712.295 755.203 712.295 442.485C712.295 129.768 458.661 -123.736 145.793 -123.736C-167.075 -123.736 -420.709 129.768 -420.709 442.485C-420.709 755.203 -167.075 1008.71 145.793 1008.71Z" stroke="#0A4C81" stroke-width="9.6985"/>
<path d="M145.793 1008.71C458.661 1008.71 712.295 755.203 712.295 442.485C712.295 129.768 458.661 -123.736 145.793 -123.736C-167.075 -123.736 -420.709 129.768 -420.709 442.485C-420.709 755.203 -167.075 1008.71 145.793 1008.71Z" stroke="#0A4C81" stroke-width="9.6985"/>
<path d="M145.793 1008.71C458.661 1008.71 712.295 755.203 712.295 442.485C712.295 129.768 458.661 -123.736 145.793 -123.736C-167.075 -123.736 -420.709 129.768 -420.709 442.485C-420.709 755.203 -167.075 1008.71 145.793 1008.71Z" stroke="#0A4C81" stroke-width="9.6985"/>
<path d="M514.521 445.908C514.521 645.665 352.504 807.605 152.64 807.605C-47.2235 807.605 -209.24 645.665 -209.24 445.908C-209.24 246.151 -47.2235 84.2109 152.64 84.2109C352.504 84.2109 514.521 246.151 514.521 445.908Z" fill="#EFB852" stroke="#0A4C81" stroke-width="11.41"/>
<path d="M58.5767 94.9768L-22.8769 130.685L13.939 138.92L78.7568 130.684L130.815 144.676L160.583 177.047L177.203 151.938L217.379 137.494L272.175 138.92L318.694 142.058L334.392 135.213L262.471 103.549L145.508 83.0818L58.5767 94.9768Z" fill="#C5A4DD"/>
<path d="M126.961 266.774L155.5 229.977L200.592 266.774H126.961Z" fill="#0A4C81" stroke="black" stroke-width="0.5705"/>
<path d="M85.6759 277.036L42.1048 260.568L22.8976 315.493L85.6759 277.036Z" fill="#0A4C81" stroke="black" stroke-width="0.5705"/>
<path d="M212.582 273.612L256.153 257.144L275.36 312.069L212.582 273.612Z" fill="#0A4C81" stroke="black" stroke-width="0.5705"/>
<path d="M298.77 332.819L344.742 340.33L333.903 397.496L298.77 332.819Z" fill="#0A4C81" stroke="black" stroke-width="0.5705"/>
<path d="M-15.2531 377.811L-31.5487 334.194L23.4826 315.224L-15.2531 377.811Z" fill="#0A4C81" stroke="black" stroke-width="0.5705"/>
<path d="M514.521 445.908C514.521 645.665 352.504 807.605 152.64 807.605C-47.2235 807.605 -209.24 645.665 -209.24 445.908C-209.24 246.151 -47.2235 84.2109 152.64 84.2109C352.504 84.2109 514.521 246.151 514.521 445.908Z" stroke="#0A4C81" stroke-width="11.41"/>
<path d="M45.7166 264.847C43.3131 275.25 41.6534 284.52 39.2953 293.48C36.3553 305.075 28.2535 313.418 19.0408 319.207C7.46767 326.344 -5.10919 332.636 -18.0651 336.135C-31.9603 339.816 -46.0867 335.483 -59.3046 329.392C-78.0348 320.958 -89.2116 306.265 -96.3423 286.783C-107.197 257.74 -103.038 230.929 -88.0482 205.728C-81.8442 195.281 -72.2023 186.591 -63.0086 178.333C-50.6009 167.179 -36.9058 157.06 -28.873 142.205C-23.587 132.282 -17.9173 130.639 -6.68054 131.132C11.5014 131.911 30.146 129.238 47.9729 125.438C79.869 118.566 109.261 123.748 135.044 143.918C147.897 153.935 155.011 168.822 160.42 184.682C167.985 206.75 163.583 226.439 152.303 244.741C147.008 253.43 138.613 260.346 130.819 267.097C127.528 269.86 122.188 270.252 117.72 271.563C101.235 276.19 84.7171 281.368 67.613 273.954C62.5919 271.861 57.5493 269.427 52.5282 267.334C50.4325 266.406 48.3583 265.819 45.7166 264.847ZM25.5606 156.823C26.2757 161.727 27.103 164.088 27.0457 166.423C26.9836 173.011 26.0369 179.572 26.4444 186.068C27.0665 195.983 28.1034 206.016 35.2009 216.309C37.7522 210.426 39.2424 206.034 41.4312 201.951C46.7721 191.82 51.6552 180.887 63.3451 176.694C70.9818 173.929 79.3933 171.607 87.5402 171.562C102.196 171.342 116.99 174.409 125.973 187.698C139.394 207.84 135.397 226.412 115.942 241.058C106.159 248.589 96.0262 247.289 83.2207 243.442C87.5481 240.972 90.0301 238.316 92.4763 238.336C99.7601 238.606 103.468 233.834 107.666 229.312C112.893 223.85 113.518 212.161 109.057 207.092C94.4635 190.984 67.9438 194.788 57.0595 210.739C44.3155 229.523 51.4104 251.681 70.2597 260.933C86.5222 269.005 103.431 265.729 117.713 258.463C140.146 246.899 152.966 228.248 150.344 200.527C148.142 178.41 137.141 162.199 118.566 151.905C96.968 139.973 65.5416 146.754 48.0912 165.213C46.8227 166.646 44.9106 167.56 43.2821 168.666C42.7386 166.497 41.2342 164.169 41.6515 162.16C42.486 158.142 44.074 154.225 45.662 150.308C46.8446 147.508 48.8021 145.152 50.9361 141.278C46.1963 141.504 43.2041 141.441 40.3859 141.987C23.5748 145.738 7.11898 144.328 -9.24371 137.907C-19.1333 133.99 -19.3741 134.481 -21.668 144.467C-25.7716 161.33 -33.9235 175.368 -48.5247 185.118C-51.5193 187.181 -53.6747 190.714 -56.2878 193.445C-56.0375 194.187 -55.7323 194.721 -55.482 195.464C-50.5133 195.638 -45.3253 194.979 -40.576 195.987C-35.6192 197.054 -30.8938 199.846 -26.2112 201.955C-26.3543 202.922 -26.4974 203.889 -26.5856 204.648C-29.1749 205.594 -31.7975 207.091 -34.5609 207.429C-64.7927 210.517 -77.7488 223.756 -86.5162 250.717C-90.8343 264.161 -85.2579 277.269 -80.8713 289.817C-74.9612 307.162 -61.5073 317.014 -44.4985 321.827C-29.2802 326.245 -15.516 322.639 -1.39898 315.998C14.8377 308.502 25.9555 298.438 29.6896 280.015C33.3688 261.801 17.2377 243.915 1.12287 240.363C-14.9919 236.811 -36.4264 253.472 -38.6512 269.97C-40.2918 281.708 -31.7637 292.07 -19.9356 291.162C-13.5245 290.514 -7.43751 286.862 -1.26474 284.579C1.06227 283.782 3.46557 283.119 5.79258 282.322C5.3419 284.881 5.58979 287.75 4.28796 289.732C-4.76046 304.636 -30.5435 313.685 -44.8176 304.833C-52.0965 300.31 -59.7329 293.336 -62.8584 285.734C-67.2475 275.313 -67.2663 263.105 -60.5713 252.909C-55.1231 244.487 -50.066 234.163 -41.8594 229.656C-30.1886 222.995 -16.5865 217.888 -1.83791 222.397C3.21658 223.939 8.65497 224.023 14.2674 224.715C12.4247 212.663 -7.71679 196.889 -19.0774 190.092C-21.1183 188.955 -22.656 187.176 -24.5109 185.756C-22.7942 183.89 -21.4256 180.807 -19.3609 180.16C-10.7848 177.213 -10.2554 172.661 -13.3475 164.51C-15.1332 159.862 -12.7346 153.712 -12.1384 148.059C-7.53213 150.034 -3.00217 151.876 1.60408 153.851C1.8115 153.91 2.09522 154.102 2.2478 154.369C7.1685 167.852 15.3393 166.021 25.5606 156.823Z" fill="#0A4C81"/>
<path d="M256.529 262.671C246.298 265.738 237.419 268.89 228.464 271.282C216.931 274.474 205.666 271.574 196.07 266.444C184.134 259.932 172.434 252.13 162.974 242.616C152.891 232.376 149.657 217.964 148.402 203.471C146.452 183.03 153.684 166.047 167.081 150.204C186.944 126.39 212.305 116.717 241.633 117.245C253.786 117.456 266.116 121.521 277.847 125.412C293.689 130.657 309.268 137.534 326.158 137.148C337.401 136.821 341.637 140.929 346.776 150.929C355.108 167.101 366.668 181.964 378.803 195.558C400.578 219.846 410.638 247.932 405.883 280.309C403.545 296.431 394.132 309.984 383.029 322.538C367.599 340.039 348.307 345.972 326.812 345.247C316.637 344.954 306.467 341.093 296.739 337.671C292.707 336.183 289.72 331.741 286.368 328.511C274.179 316.492 261.495 304.716 259.464 286.193C258.795 280.797 258.412 275.213 257.743 269.817C257.512 267.537 256.994 265.445 256.529 262.671ZM340.423 191.65C336.515 194.7 334.873 196.589 332.816 197.696C327.06 200.905 320.889 203.334 315.445 206.907C307.136 212.359 298.931 218.231 293.503 229.492C299.879 228.792 304.435 227.91 309.067 227.788C320.518 227.405 332.439 226.228 341.875 234.299C348.061 239.56 354.247 245.712 358.323 252.763C365.775 265.378 370.439 279.741 363.341 294.125C352.486 315.756 334.365 321.488 311.998 311.853C300.606 307.091 296.715 297.65 293.714 284.626C298.004 287.159 301.543 287.998 302.737 290.132C306.111 296.59 312.095 297.444 318.105 298.849C325.441 300.68 335.91 295.431 338.105 289.047C344.873 268.397 328.429 247.257 309.173 245.71C286.534 243.952 270.793 261.091 272.091 282.039C273.134 300.158 284.358 313.215 297.749 322.014C318.914 335.761 341.474 337.651 364.267 321.64C382.397 308.77 391.035 291.188 390.777 269.961C390.446 245.297 368.983 221.372 344.295 215.368C342.421 214.976 340.679 213.769 338.911 212.903C340.526 211.357 341.805 208.897 343.758 208.264C347.663 206.998 351.854 206.436 356.044 205.874C359.064 205.514 362.082 206.045 366.506 205.979C363.961 201.976 362.533 199.346 360.662 197.17C349.073 184.434 342.145 169.448 339.618 152.061C338.123 141.534 337.576 141.568 327.761 144.524C311.073 149.316 294.835 149.194 279.127 141.348C275.85 139.77 271.712 139.649 268.044 138.734C267.523 139.319 267.21 139.848 266.689 140.434C268.999 144.834 272.142 149.012 273.619 153.634C275.148 158.466 275.062 163.952 275.55 169.062C274.639 169.417 273.727 169.772 273.024 170.072C270.919 168.293 268.318 166.757 266.656 164.525C248.993 139.808 231.069 135.119 203.293 140.866C189.471 143.777 180.841 155.113 172.11 165.139C159.964 178.864 158.068 195.426 162.312 212.577C166.013 227.979 175.966 238.142 188.732 247.108C203.291 257.491 217.546 262.157 235.407 256.271C253.059 250.441 260.611 227.574 255.714 211.823C250.816 196.073 225.717 185.718 210.277 191.961C199.263 196.352 194.483 208.89 201.132 218.709C204.872 223.954 211.061 227.43 216.104 231.658C217.95 233.283 219.717 235.041 221.562 236.666C219.115 237.543 216.745 239.18 214.377 239.032C196.941 238.56 176.302 220.659 176.924 203.88C177.248 195.32 179.525 185.234 184.583 178.755C191.465 169.78 202.065 163.716 214.244 164.477C224.262 165.034 235.74 164.31 243.722 169.202C255.294 176.034 266.471 185.313 269.86 200.352C271.024 205.504 273.646 210.267 275.825 215.483C285.386 207.911 289.116 182.609 289.394 169.378C289.371 167.043 290.155 164.827 290.471 162.513C292.942 163.079 296.3 162.74 297.885 164.212C304.695 170.197 308.914 168.401 314.466 161.678C317.62 157.825 324.153 156.861 329.361 154.578C329.927 159.555 330.571 164.401 331.137 169.378C331.189 169.587 331.162 169.929 331.006 170.194C321.726 181.146 327.365 187.333 340.423 191.65Z" fill="#0A4C81"/>
<path d="M152.636 625.046C251.931 625.046 332.431 544.591 332.431 445.338C332.431 346.086 251.931 265.631 152.636 265.631C53.3413 265.631 -27.1581 346.086 -27.1581 445.338C-27.1581 544.591 53.3413 625.046 152.636 625.046Z" fill="#C5A4DD" stroke="#0A4C81" stroke-width="11.41"/>
<path d="M152.636 625.046C251.931 625.046 332.431 544.591 332.431 445.338C332.431 346.086 251.931 265.631 152.636 265.631C53.3413 265.631 -27.1581 346.086 -27.1581 445.338C-27.1581 544.591 53.3413 625.046 152.636 625.046Z" fill="#C5A4DD" stroke="#0A4C81" stroke-width="11.41"/>
<path d="M154.063 524.066C197.88 524.066 233.363 488.414 233.363 444.481C233.363 400.549 197.88 364.897 154.063 364.897C110.247 364.897 74.7638 400.549 74.7638 444.481C74.7638 488.414 110.247 524.066 154.063 524.066Z" fill="#EFB852" stroke="#0A4C81" stroke-width="11.41"/>
</g>
</svg>
