<svg width="300" height="401" viewBox="0 0 300 401" fill="none" xmlns="http://www.w3.org/2000/svg">
<mask id="mask0_655_9899" style="mask-type:alpha" maskUnits="userSpaceOnUse" x="0" y="0" width="300" height="401">
<rect y="0.186035" width="300" height="400" fill="#C4C4C4"/>
</mask>
<g mask="url(#mask0_655_9899)">
<rect y="0.186035" width="300" height="400" fill="#2D517F"/>
<rect y="483.396" width="530.241" height="300" transform="rotate(-90 0 483.396)" fill="#EFB852"/>
<path d="M-2.71084 480.686V483.396H0H54.2169H56.9277V480.686L56.9277 -49.5554V-52.2662H54.2169H0H-2.71084V-49.5554L-2.71084 480.686Z" fill="#79A0C1" stroke="#2D517F" stroke-width="5.42169"/>
<rect x="243.072" y="486.107" width="535.663" height="59.6386" transform="rotate(-90 243.072 486.107)" fill="#79A0C1" stroke="#2D517F" stroke-width="5.42169"/>
<path d="M27.4955 339.485C26.764 338.967 25.0759 337.584 24.1193 335.107C23.3878 333.264 23.3878 331.651 23.5003 330.729C23.0502 330.844 21.5309 331.248 19.8991 330.499C17.3669 329.289 16.9168 326.351 16.9168 326.121C16.2978 326.409 14.047 327.215 11.4024 326.351C8.08247 325.257 6.73199 322.261 6.50691 321.8C10.8397 320.879 12.9779 318.862 13.9345 317.653C14.9474 316.443 15.5101 315.118 16.6917 312.41C18.9988 307.168 18.4923 306.362 19.8991 304.806C21.9248 302.502 25.526 301.465 28.6209 302.214C33.1787 303.309 35.2607 307.975 36.0485 309.818C37.1176 312.18 36.7237 312.871 37.5115 314.599C38.6369 316.904 41.169 319.554 47.6963 321.109C47.1336 321.915 45.5018 324.104 42.5195 325.199C40.325 326.005 38.4681 325.833 37.4552 325.66C37.5115 325.89 37.7366 327.849 36.3861 329.116C35.0919 330.384 32.7848 330.441 31.0967 329.116C31.153 330.326 31.0967 332.4 30.2527 334.762C29.4087 337.123 28.227 338.621 27.4955 339.485Z" fill="#E4572E"/>
<path d="M27.4955 201.208C26.764 200.689 25.0759 199.307 24.1193 196.829C23.3878 194.986 23.3878 193.373 23.5003 192.451C23.0502 192.567 21.5309 192.97 19.8991 192.221C17.3669 191.011 16.9168 188.073 16.9168 187.843C16.2978 188.131 14.047 188.937 11.4024 188.073C8.08247 186.979 6.73199 183.983 6.50691 183.522C10.8397 182.601 12.9779 180.584 13.9345 179.375C14.9474 178.165 15.5101 176.84 16.6917 174.133C18.9988 168.89 18.4923 168.084 19.8991 166.529C21.9248 164.224 25.526 163.187 28.6209 163.936C33.1787 165.031 35.2607 169.697 36.0485 171.54C37.1176 173.902 36.7237 174.593 37.5115 176.322C38.6369 178.626 41.169 181.276 47.6963 182.831C47.1336 183.638 45.5018 185.827 42.5195 186.921C40.325 187.728 38.4681 187.555 37.4552 187.382C37.5115 187.612 37.7366 189.571 36.3861 190.838C35.0919 192.106 32.7848 192.163 31.0967 190.838C31.153 192.048 31.0967 194.122 30.2527 196.484C29.4087 198.846 28.227 200.343 27.4955 201.208Z" fill="#E4572E"/>
<path d="M26.7076 90.1431C27.4392 90.6615 29.1272 92.0441 30.0838 94.5211C30.8153 96.3645 30.8153 97.9775 30.7028 98.8992C31.1529 98.784 32.6722 98.3808 34.304 99.1296C36.8362 100.339 37.2863 103.277 37.2863 103.508C37.9053 103.22 40.1561 102.413 42.8007 103.277C46.1207 104.372 47.4711 107.367 47.6962 107.828C43.3635 108.75 41.2252 110.766 40.2686 111.976C39.2558 113.186 38.6931 114.51 37.5114 117.218C35.2043 122.46 35.7108 123.267 34.304 124.822C32.2783 127.126 28.6771 128.163 25.5823 127.414C21.0244 126.32 18.9424 121.654 18.1547 119.81C17.0855 117.448 17.4794 116.757 16.6916 115.029C15.5662 112.725 13.0341 110.075 6.50684 108.519C7.06953 107.713 8.70136 105.524 11.6836 104.429C13.8782 103.623 15.7351 103.796 16.7479 103.969C16.6916 103.738 16.4665 101.78 17.817 100.512C19.1112 99.2448 21.4183 99.1872 23.1064 100.512C23.0501 99.3025 23.1064 97.2286 23.9504 94.8668C24.7945 92.5049 25.9761 91.0072 26.7076 90.1431Z" fill="#E4572E"/>
<path d="M26.7076 237.248C27.4392 237.766 29.1272 239.149 30.0838 241.626C30.8153 243.469 30.8153 245.082 30.7028 246.004C31.1529 245.888 32.6722 245.485 34.304 246.234C36.8362 247.444 37.2863 250.382 37.2863 250.612C37.9053 250.324 40.1561 249.518 42.8007 250.382C46.1207 251.476 47.4711 254.472 47.6962 254.933C43.3635 255.854 41.2252 257.871 40.2686 259.08C39.2558 260.29 38.6931 261.615 37.5114 264.322C35.2043 269.565 35.7108 270.371 34.304 271.926C32.2783 274.231 28.6771 275.268 25.5823 274.519C21.0244 273.424 18.9424 268.758 18.1547 266.915C17.0855 264.553 17.4794 263.862 16.6916 262.133C15.5662 259.829 13.0341 257.179 6.50684 255.624C7.06953 254.817 8.70136 252.628 11.6836 251.534C13.8782 250.727 15.7351 250.9 16.7479 251.073C16.6916 250.843 16.4665 248.884 17.817 247.617C19.1112 246.349 21.4183 246.292 23.1064 247.617C23.0501 246.407 23.1064 244.333 23.9504 241.971C24.7945 239.609 25.9761 238.112 26.7076 237.248Z" fill="#E4572E"/>
<path d="M26.7076 365.965C27.4392 366.483 29.1272 367.866 30.0838 370.343C30.8153 372.186 30.8153 373.799 30.7028 374.721C31.1529 374.606 32.6722 374.203 34.304 374.951C36.8362 376.161 37.2863 379.099 37.2863 379.329C37.9053 379.041 40.1561 378.235 42.8007 379.099C46.1207 380.194 47.4711 383.189 47.6962 383.65C43.3635 384.572 41.2252 386.588 40.2686 387.798C39.2558 389.007 38.6931 390.332 37.5114 393.04C35.2043 398.282 35.7108 399.088 34.304 400.644C32.2783 402.948 28.6771 403.985 25.5823 403.236C21.0244 402.142 18.9424 397.475 18.1547 395.632C17.0855 393.27 17.4794 392.579 16.6916 390.851C15.5662 388.546 13.0341 385.897 6.50684 384.341C7.06953 383.535 8.70136 381.346 11.6836 380.251C13.8782 379.445 15.7351 379.618 16.7479 379.79C16.6916 379.56 16.4665 377.601 17.817 376.334C19.1112 375.067 21.4183 375.009 23.1064 376.334C23.0501 375.124 23.1064 373.05 23.9504 370.689C24.7945 368.327 25.9761 366.829 26.7076 365.965Z" fill="#E4572E"/>
<circle cx="27.1012" cy="287.999" r="5.8842" transform="rotate(-180 27.1012 287.999)" fill="#EFB854"/>
<circle cx="27.1012" cy="218.86" r="5.8842" transform="rotate(-180 27.1012 218.86)" fill="#EFB854"/>
<circle cx="27.1012" cy="145.308" r="5.8842" transform="rotate(-180 27.1012 145.308)" fill="#EFB854"/>
<circle cx="27.1012" cy="352.725" r="5.8842" transform="rotate(-180 27.1012 352.725)" fill="#EFB854"/>
<path d="M273.278 339.485C272.546 338.967 270.858 337.584 269.902 335.107C269.17 333.264 269.17 331.651 269.283 330.729C268.832 330.844 267.313 331.248 265.681 330.499C263.149 329.289 262.699 326.351 262.699 326.121C262.08 326.409 259.829 327.215 257.185 326.351C253.865 325.257 252.514 322.261 252.289 321.8C256.622 320.879 258.76 318.862 259.717 317.653C260.73 316.443 261.292 315.118 262.474 312.41C264.781 307.168 264.275 306.362 265.681 304.806C267.707 302.502 271.308 301.465 274.403 302.214C278.961 303.309 281.043 307.975 281.831 309.818C282.9 312.18 282.506 312.871 283.294 314.599C284.419 316.904 286.951 319.554 293.479 321.109C292.916 321.915 291.284 324.104 288.302 325.199C286.107 326.005 284.25 325.833 283.237 325.66C283.294 325.89 283.519 327.849 282.168 329.116C280.874 330.384 278.567 330.441 276.879 329.116C276.935 330.326 276.879 332.4 276.035 334.762C275.191 337.123 274.009 338.621 273.278 339.485Z" fill="#E4572E"/>
<path d="M273.278 201.208C272.546 200.689 270.858 199.307 269.902 196.829C269.17 194.986 269.17 193.373 269.283 192.451C268.832 192.567 267.313 192.97 265.681 192.221C263.149 191.011 262.699 188.073 262.699 187.843C262.08 188.131 259.829 188.937 257.185 188.073C253.865 186.979 252.514 183.983 252.289 183.522C256.622 182.601 258.76 180.584 259.717 179.375C260.73 178.165 261.292 176.84 262.474 174.133C264.781 168.89 264.275 168.084 265.681 166.529C267.707 164.224 271.308 163.187 274.403 163.936C278.961 165.031 281.043 169.697 281.831 171.54C282.9 173.902 282.506 174.593 283.294 176.322C284.419 178.626 286.951 181.276 293.479 182.831C292.916 183.638 291.284 185.827 288.302 186.921C286.107 187.728 284.25 187.555 283.237 187.382C283.294 187.612 283.519 189.571 282.168 190.838C280.874 192.106 278.567 192.163 276.879 190.838C276.935 192.048 276.879 194.122 276.035 196.484C275.191 198.846 274.009 200.343 273.278 201.208Z" fill="#E4572E"/>
<path d="M272.49 90.1431C273.221 90.6615 274.909 92.0441 275.866 94.5211C276.598 96.3645 276.598 97.9775 276.485 98.8992C276.935 98.784 278.454 98.3808 280.086 99.1296C282.618 100.339 283.069 103.277 283.069 103.508C283.688 103.22 285.938 102.413 288.583 103.277C291.903 104.372 293.253 107.367 293.478 107.828C289.146 108.75 287.007 110.766 286.051 111.976C285.038 113.186 284.475 114.51 283.294 117.218C280.987 122.46 281.493 123.267 280.086 124.822C278.061 127.126 274.459 128.163 271.364 127.414C266.807 126.32 264.725 121.654 263.937 119.81C262.868 117.448 263.262 116.757 262.474 115.029C261.348 112.725 258.816 110.075 252.289 108.519C252.852 107.713 254.484 105.524 257.466 104.429C259.66 103.623 261.517 103.796 262.53 103.969C262.474 103.738 262.249 101.78 263.599 100.512C264.893 99.2448 267.201 99.1872 268.889 100.512C268.832 99.3025 268.889 97.2286 269.733 94.8668C270.577 92.5049 271.758 91.0072 272.49 90.1431Z" fill="#E4572E"/>
<path d="M272.49 237.248C273.221 237.766 274.909 239.149 275.866 241.626C276.598 243.469 276.598 245.082 276.485 246.004C276.935 245.888 278.454 245.485 280.086 246.234C282.618 247.444 283.069 250.382 283.069 250.612C283.688 250.324 285.938 249.518 288.583 250.382C291.903 251.476 293.253 254.472 293.478 254.933C289.146 255.854 287.007 257.871 286.051 259.08C285.038 260.29 284.475 261.615 283.294 264.322C280.987 269.565 281.493 270.371 280.086 271.926C278.061 274.231 274.459 275.268 271.364 274.519C266.807 273.424 264.725 268.758 263.937 266.915C262.868 264.553 263.262 263.862 262.474 262.133C261.348 259.829 258.816 257.179 252.289 255.624C252.852 254.817 254.484 252.628 257.466 251.534C259.66 250.727 261.517 250.9 262.53 251.073C262.474 250.843 262.249 248.884 263.599 247.617C264.893 246.349 267.201 246.292 268.889 247.617C268.832 246.407 268.889 244.333 269.733 241.971C270.577 239.609 271.758 238.112 272.49 237.248Z" fill="#E4572E"/>
<path d="M272.49 365.965C273.221 366.483 274.909 367.866 275.866 370.343C276.598 372.186 276.598 373.799 276.485 374.721C276.935 374.606 278.454 374.203 280.086 374.951C282.618 376.161 283.069 379.099 283.069 379.329C283.688 379.041 285.938 378.235 288.583 379.099C291.903 380.194 293.253 383.189 293.478 383.65C289.146 384.572 287.007 386.588 286.051 387.798C285.038 389.007 284.475 390.332 283.294 393.04C280.987 398.282 281.493 399.088 280.086 400.644C278.061 402.948 274.459 403.985 271.364 403.236C266.807 402.142 264.725 397.475 263.937 395.632C262.868 393.27 263.262 392.579 262.474 390.851C261.348 388.546 258.816 385.897 252.289 384.341C252.852 383.535 254.484 381.346 257.466 380.251C259.66 379.445 261.517 379.618 262.53 379.79C262.474 379.56 262.249 377.601 263.599 376.334C264.893 375.067 267.201 375.009 268.889 376.334C268.832 375.124 268.889 373.05 269.733 370.689C270.577 368.327 271.758 366.829 272.49 365.965Z" fill="#E4572E"/>
<circle cx="272.883" cy="287.999" r="5.8842" transform="rotate(-180 272.883 287.999)" fill="#EFB854"/>
<circle cx="272.883" cy="218.86" r="5.8842" transform="rotate(-180 272.883 218.86)" fill="#EFB854"/>
<circle cx="272.883" cy="145.308" r="5.8842" transform="rotate(-180 272.883 145.308)" fill="#EFB854"/>
<circle cx="272.883" cy="352.725" r="5.8842" transform="rotate(-180 272.883 352.725)" fill="#EFB854"/>
<path d="M27.4955 60.8994C26.764 60.381 25.0759 58.9984 24.1193 56.5213C23.3878 54.6779 23.3878 53.065 23.5003 52.1433C23.0502 52.2585 21.5309 52.6617 19.8991 51.9128C17.3669 50.7031 16.9168 47.7652 16.9168 47.5348C16.2978 47.8228 14.047 48.6293 11.4024 47.7652C8.08247 46.6707 6.73199 43.6751 6.50691 43.2143C10.8397 42.2926 12.9779 40.2764 13.9345 39.0667C14.9474 37.8569 15.5101 36.532 16.6917 33.8245C18.9988 28.5823 18.4923 27.7759 19.8991 26.2205C21.9248 23.9162 25.526 22.8793 28.6209 23.6282C33.1787 24.7227 35.2607 29.3888 36.0485 31.2322C37.1176 33.594 36.7237 34.2853 37.5115 36.0135C38.6369 38.3178 41.169 40.9677 47.6963 42.523C47.1336 43.3295 45.5018 45.5185 42.5195 46.6131C40.325 47.4195 38.4681 47.2467 37.4552 47.0739C37.5115 47.3043 37.7366 49.263 36.3861 50.5303C35.0919 51.7976 32.7848 51.8552 31.0967 50.5303C31.153 51.74 31.0967 53.8138 30.2527 56.1757C29.4087 58.5376 28.227 60.0353 27.4955 60.8994Z" fill="#E4572E"/>
<circle cx="27.1012" cy="9.41268" r="5.8842" transform="rotate(-180 27.1012 9.41268)" fill="#EFB854"/>
<circle cx="27.1012" cy="74.1392" r="5.8842" transform="rotate(-180 27.1012 74.1392)" fill="#EFB854"/>
<path d="M273.278 60.8994C272.546 60.381 270.858 58.9984 269.902 56.5213C269.17 54.6779 269.17 53.065 269.283 52.1433C268.832 52.2585 267.313 52.6617 265.681 51.9128C263.149 50.7031 262.699 47.7652 262.699 47.5348C262.08 47.8228 259.829 48.6293 257.185 47.7652C253.865 46.6707 252.514 43.6751 252.289 43.2143C256.622 42.2926 258.76 40.2764 259.717 39.0667C260.73 37.8569 261.292 36.532 262.474 33.8245C264.781 28.5823 264.275 27.7759 265.681 26.2205C267.707 23.9162 271.308 22.8793 274.403 23.6282C278.961 24.7227 281.043 29.3888 281.831 31.2322C282.9 33.594 282.506 34.2853 283.294 36.0135C284.419 38.3178 286.951 40.9677 293.479 42.523C292.916 43.3295 291.284 45.5185 288.302 46.6131C286.107 47.4195 284.25 47.2467 283.237 47.0739C283.294 47.3043 283.519 49.263 282.168 50.5303C280.874 51.7976 278.567 51.8552 276.879 50.5303C276.935 51.74 276.879 53.8138 276.035 56.1757C275.191 58.5376 274.009 60.0353 273.278 60.8994Z" fill="#E4572E"/>
<circle cx="272.883" cy="9.41268" r="5.8842" transform="rotate(-180 272.883 9.41268)" fill="#EFB854"/>
<circle cx="272.883" cy="74.1392" r="5.8842" transform="rotate(-180 272.883 74.1392)" fill="#EFB854"/>
<path d="M55.0703 344.926L149.682 272.648L244.294 344.834L149.682 417.111L55.0703 344.926Z" fill="#2D517F"/>
<path d="M55.2842 200.231L149.896 127.953L244.508 200.139L149.896 272.417L55.2842 200.231Z" fill="#2D517F"/>
<path d="M55.4961 55.5389L150.108 -16.7385L244.72 55.4472L150.108 127.725L55.4961 55.5389Z" fill="#2D517F"/>
</g>
</svg>
