<svg width="160" height="160" viewBox="0 0 160 160" fill="none" xmlns="http://www.w3.org/2000/svg">
<circle cx="80" cy="80" r="80" fill="#C4C4C4"/>
<path d="M84.2615 63C85.4175 63 86.4919 63.596 87.1038 64.5768L89.3686 68.2068H92.8958C95.5684 68.2068 97.7349 70.3733 97.7349 73.0459V91.6578C97.7349 94.3304 95.5684 96.497 92.8958 96.497H66.8391C64.1665 96.497 62 94.3304 62 91.6578V73.0459C62 70.3733 64.1665 68.2068 66.8391 68.2068H70.6635L72.7221 64.6662C73.3219 63.6347 74.425 63 75.6183 63H84.2615ZM84.2615 65.2334H75.6183C75.2774 65.2334 74.9585 65.3889 74.7484 65.6498L74.6529 65.7888L72.2714 69.8848C72.0714 70.2287 71.7037 70.4402 71.306 70.4402H66.8391C65.4 70.4402 64.2334 71.6068 64.2334 73.0459V91.6578C64.2334 93.0969 65.4 94.2635 66.8391 94.2635H92.8958C94.3349 94.2635 95.5015 93.0969 95.5015 91.6578V73.0459C95.5015 71.6068 94.3349 70.4402 92.8958 70.4402H88.7491C88.3637 70.4402 88.0056 70.2416 87.8016 69.9146L85.2089 65.759C85.005 65.4321 84.6468 65.2334 84.2615 65.2334ZM79.8675 73.4196C84.3903 73.4196 88.0567 77.0861 88.0567 81.6089C88.0567 86.1317 84.3903 89.7981 79.8675 89.7981C75.3447 89.7981 71.6782 86.1317 71.6782 81.6089C71.6782 77.0861 75.3447 73.4196 79.8675 73.4196ZM79.8675 75.6531C76.5782 75.6531 73.9116 78.3196 73.9116 81.6089C73.9116 84.8982 76.5782 87.5647 79.8675 87.5647C83.1568 87.5647 85.8233 84.8982 85.8233 81.6089C85.8233 78.3196 83.1568 75.6531 79.8675 75.6531Z" fill="#101010"/>
</svg>
