<svg width="1343" height="1345" viewBox="0 0 1343 1345" fill="none" xmlns="http://www.w3.org/2000/svg">
<path d="M806.718 424.286C793.339 426.171 761.177 433.012 731.242 459.567C708.702 479.192 697.551 500.79 692.685 513.91C687.454 509.255 669.899 493.351 642.871 492.097C600.602 490.788 574.262 527.015 572.669 530.1C566.372 521.964 541.81 495.604 500.423 488.889C448.402 480.591 409.609 511.365 403.409 515.979C455.052 558.277 469.744 600.057 474.189 622.869C479.387 646.07 477.761 667.702 474.865 712.125C469.513 798.269 457.155 805.566 465.238 836.118C476.431 880.978 517.483 919.76 564.101 931.13C632.698 947.986 692.836 899.902 716.129 880.665C746.774 856.432 746.28 844.452 768.777 826.758C799.777 803.685 852.003 785.71 950.157 810.012C948.198 795.322 941.483 754.729 909.117 719.454C885.308 693.483 859.25 682.959 844.493 678.27C846.839 675.574 863.395 650.904 854.074 624.597C845.507 598.68 815.013 581.958 783.249 588.028C792.367 572.218 805.951 544.061 810.979 506.6C816.006 469.139 810.539 440.914 806.718 424.286Z" fill="#DC6F3A"/>
<path d="M426.57 790.543C394.366 710.486 408.512 642.442 413.117 621.534C430.447 633.14 488.232 673.19 520.015 752.435C528.479 772.75 552.336 840.664 533.468 921.444C516.559 910.649 458.774 870.599 426.57 790.543Z" fill="#2D517F"/>
<path d="M683.118 840.48C767.842 824.113 831.946 850.96 851.596 859.463C836.901 874.265 786.578 923.364 702.731 939.473C681.176 943.913 609.961 954.398 534.253 920.491C548.071 905.947 598.393 856.847 683.118 840.48Z" fill="#517D56"/>
</svg>
