<svg width="1591" height="1592" viewBox="0 0 1591 1592" fill="none" xmlns="http://www.w3.org/2000/svg">
<path d="M660.592 547.615C673.972 549.5 706.134 556.341 736.068 582.896C758.608 602.521 769.76 624.119 774.626 637.239C779.857 632.584 797.412 616.68 824.44 615.426C866.709 614.117 893.049 650.344 894.642 653.429C900.939 645.293 925.501 618.933 966.887 612.218C1018.91 603.921 1057.7 634.694 1063.9 639.308C1012.26 681.606 997.567 723.387 993.122 746.198C987.924 769.4 989.549 791.031 992.446 835.454C997.798 921.598 1010.16 928.895 1002.07 959.447C990.879 1004.31 949.827 1043.09 903.21 1054.46C834.613 1071.32 774.475 1023.23 751.181 1003.99C720.536 979.761 721.031 967.781 698.534 950.087C667.534 927.014 615.308 909.039 517.154 933.341C519.112 918.651 525.828 878.058 558.194 842.783C582.002 816.812 608.061 806.288 622.818 801.599C620.471 798.903 603.916 774.233 613.237 747.926C621.804 722.009 652.297 705.287 684.061 711.357C674.944 695.547 661.359 667.39 656.332 629.929C651.304 592.468 656.771 564.243 660.592 547.615Z" fill="#DC6F3A"/>
<path d="M1040.74 913.872C1072.94 833.815 1058.8 765.771 1054.19 744.863C1036.86 756.469 979.079 796.519 947.295 875.764C938.832 896.079 914.975 963.993 933.842 1044.77C950.752 1033.98 1008.54 993.928 1040.74 913.872Z" fill="#2D517F"/>
<path d="M784.193 963.81C699.468 947.443 635.364 974.289 615.715 982.792C630.41 997.594 680.732 1046.69 764.58 1062.8C786.135 1067.24 857.349 1077.73 933.058 1043.82C919.24 1029.28 868.917 980.176 784.193 963.81Z" fill="#517D56"/>
</svg>
