<svg width="632" height="553" viewBox="0 0 632 553" fill="none" xmlns="http://www.w3.org/2000/svg">
<path d="M418.77 385.217L419.271 296.064L308.428 405.865L306.807 496.127L418.77 385.217Z" fill="#003E33"/>
<path d="M429.846 396.413L518.915 396.838L408.072 506.638L317.883 507.322L429.846 396.413Z" fill="#517D56"/>
<path d="M178.453 385.112L178.037 295.959L288.773 405.653L290.307 495.915L178.453 385.112Z" fill="#003E33"/>
<path d="M167.369 396.3L78.3004 396.811L189.036 506.505L279.223 507.102L167.369 396.3Z" fill="#517D56"/>
<path d="M355.223 311.941L298.789 254.864L242.356 311.941L298.789 369.019L355.223 311.941Z" fill="#EFB852"/>
<rect width="38.7625" height="38.7625" transform="matrix(-0.703083 -0.711108 -0.703083 0.711108 325.992 311.895)" fill="#101010"/>
<circle cx="242.193" cy="171.374" r="14.3847" transform="rotate(26.965 242.193 171.374)" fill="#EFB852"/>
<circle cx="291.513" cy="203.124" r="4.77548" transform="rotate(26.965 291.513 203.124)" stroke="#ECE1CF"/>
<circle cx="623.177" cy="205.434" r="4.77548" transform="rotate(26.965 623.177 205.434)" stroke="#ECE1CF"/>
<circle cx="559.799" cy="254.862" r="51.4788" transform="rotate(26.965 559.799 254.862)" fill="#EFB852"/>
<circle cx="482.898" cy="349.675" r="14.3847" transform="rotate(26.965 482.898 349.675)" fill="#517D56"/>
<circle cx="365.108" cy="126.014" r="6.19094" transform="rotate(26.965 365.108 126.014)" fill="#003E33"/>
<path d="M568.371 312.223C543.314 308.821 528.034 295.355 523.377 291.152C528.844 288.421 547.42 279.509 572.21 282.9C578.61 283.689 599.365 287.457 617.204 303.971C612.004 306.713 593.428 315.625 568.371 312.223Z" fill="#517D56"/>
<path d="M541.555 275.449C535.178 285.885 526.244 290.035 523.477 291.281C523.33 288.328 522.994 278.369 529.314 268.049C530.908 265.367 536.611 256.908 547.392 252.217C547.596 255.053 547.932 265.013 541.555 275.449Z" fill="#517D56"/>
<circle r="29.2961" transform="matrix(-0.959697 0.281036 0.281036 0.959697 46.8588 303.682)" fill="#EFB852"/>
<path d="M36.0354 334.863C50.4074 335.594 60.3685 329.668 63.4154 327.807C60.6443 325.705 51.1915 318.768 36.9703 318.059C33.3075 317.828 21.3034 317.753 9.5904 325.115C12.2107 327.195 21.6635 334.132 36.0354 334.863Z" fill="#003E33"/>
<path d="M54.8987 317.113C57.3686 323.621 61.9291 326.881 63.3458 327.868C63.7382 326.232 64.9731 320.697 62.5227 314.261C61.9132 312.594 59.6127 307.263 54.0756 303.506C53.6636 305.071 52.4288 310.606 54.8987 317.113Z" fill="#003E33"/>
</svg>
