<svg width="805" height="802" viewBox="0 0 805 802" fill="none" xmlns="http://www.w3.org/2000/svg">
<path d="M191.632 624.926C197.799 624.926 202.798 619.943 202.798 613.796C202.798 607.649 197.799 602.666 191.632 602.666C185.466 602.666 180.467 607.649 180.467 613.796C180.467 619.943 185.466 624.926 191.632 624.926Z" fill="#2D517F"/>
<path d="M611.898 202.024C618.064 202.024 623.063 197.041 623.063 190.894C623.063 184.747 618.064 179.763 611.898 179.763C605.731 179.763 600.732 184.747 600.732 190.894C600.732 197.041 605.731 202.024 611.898 202.024Z" fill="#2D517F"/>
<path d="M394.367 801.038C400.533 801.038 405.532 796.054 405.532 789.907C405.532 783.76 400.533 778.777 394.367 778.777C388.2 778.777 383.201 783.76 383.201 789.907C383.201 796.054 388.2 801.038 394.367 801.038Z" fill="#2D517F"/>
<path d="M396.234 22.659C402.4 22.659 407.399 17.6757 407.399 11.5285C407.399 5.38133 402.4 0.398071 396.234 0.398071C390.067 0.398071 385.068 5.38133 385.068 11.5285C385.068 17.6757 390.067 22.659 396.234 22.659Z" fill="#2D517F"/>
<path d="M792.843 416.106C799.01 416.106 804.009 411.123 804.009 404.976C804.009 398.829 799.01 393.845 792.843 393.845C786.677 393.845 781.678 398.829 781.678 404.976C781.678 411.123 786.677 416.106 792.843 416.106Z" fill="#2D517F"/>
<path d="M11.7339 416.106C17.9004 416.106 22.8993 411.123 22.8993 404.976C22.8993 398.829 17.9004 393.845 11.7339 393.845C5.56732 393.845 0.568359 398.829 0.568359 404.976C0.568359 411.123 5.56732 416.106 11.7339 416.106Z" fill="#2D517F"/>
<path d="M611.898 624.926C618.064 624.926 623.063 619.943 623.063 613.796C623.063 607.649 618.064 602.666 611.898 602.666C605.731 602.666 600.732 607.649 600.732 613.796C600.732 619.943 605.731 624.926 611.898 624.926Z" fill="#2D517F"/>
<path d="M191.632 202.024C197.799 202.024 202.798 197.041 202.798 190.894C202.798 184.747 197.799 179.763 191.632 179.763C185.466 179.763 180.467 184.747 180.467 190.894C180.467 197.041 185.466 202.024 191.632 202.024Z" fill="#2D517F"/>
<mask id="path-9-inside-1_780_11560" fill="white">
<path fill-rule="evenodd" clip-rule="evenodd" d="M224.661 565.243C226.162 568.172 228.667 572.507 232.391 577.327C228.228 581.481 223.215 587.912 220.098 596.62L220.066 596.718C218.439 601.672 211.576 622.579 224.402 640.348C235.325 655.804 253.248 657.827 256.846 658.233L256.878 658.236C276.051 660.622 289.746 650.286 292.485 647.901C291.702 652.671 290.92 660.224 292.485 668.97C293.267 673.342 295.615 685.666 304.223 694.411C309.249 699.517 313.629 700.688 321.404 702.767C325.737 703.926 331.124 705.367 338.265 707.927C346.873 711.108 359.394 715.878 369.176 723.033C376.61 728.599 388.74 740.525 395.783 766.761C408.696 728.201 423.956 717.07 435.694 714.288C439.066 713.602 442.299 713.484 445.617 713.363C451.923 713.132 458.536 712.89 466.997 708.722C477.655 703.495 483.826 695.461 488.103 689.892C488.379 689.533 488.647 689.184 488.908 688.846C500.256 673.74 503.777 658.236 505.342 648.298C507.298 650.683 523.732 666.584 545.253 663.404C569.121 659.826 584.772 634.385 583.598 610.93C582.566 595.717 574.378 584.484 568.14 578.032C572.17 572.931 574.847 568.314 576.421 565.243C579.137 569.251 586.899 578.47 599.705 583.28L599.801 583.313C604.637 584.979 625.046 592.01 642.391 578.871C657.48 567.682 659.454 549.322 659.851 545.636L659.854 545.603C662.183 525.962 652.093 511.933 649.765 509.127C654.421 509.929 661.794 510.731 670.332 509.127C674.6 508.326 686.63 505.921 695.168 497.103C700.152 491.955 701.295 487.468 703.325 479.503C704.456 475.064 705.862 469.546 708.362 462.231C711.466 453.412 716.123 440.586 723.108 430.565C728.541 422.95 740.183 410.524 765.795 403.309C728.153 390.082 717.287 374.45 714.571 362.425C713.902 358.97 713.786 355.659 713.668 352.26C713.443 345.8 713.206 339.026 709.138 330.359C704.035 319.44 696.192 313.119 690.756 308.738C690.405 308.455 690.064 308.18 689.735 307.912C674.989 296.289 659.854 292.681 650.153 291.078C652.481 289.074 668.003 272.239 664.899 250.193C661.406 225.743 636.57 209.71 613.675 210.913C591.167 212.516 577.585 230.954 575.645 233.76C573.488 230.225 571.145 226.889 568.642 223.766C574.796 217.227 582.519 206.221 583.52 191.475C584.694 168.021 569.043 142.579 545.175 139.001C523.654 135.821 507.22 151.722 505.264 154.107C503.699 144.169 500.177 128.666 488.83 113.56C488.57 113.223 488.302 112.875 488.027 112.516L488.025 112.513C483.748 106.945 477.577 98.911 466.918 93.6832C458.457 89.5155 451.845 89.2735 445.538 89.0427C442.221 88.9214 438.988 88.8031 435.616 88.1179C423.877 85.3352 408.617 74.2043 395.705 35.6442C388.662 61.881 376.532 73.8068 369.098 79.3722C359.316 86.5277 346.795 91.298 338.187 94.4782C331.046 97.0387 325.659 98.4794 321.326 99.6381C313.55 101.717 309.171 102.889 304.145 107.994C295.537 116.74 293.189 129.063 292.407 133.436C290.842 142.182 291.624 149.735 292.407 154.505C289.668 152.12 275.973 141.784 256.8 144.169L256.768 144.173C253.169 144.579 235.246 146.601 224.324 162.058C211.498 179.827 218.361 200.734 219.987 205.688L220.02 205.786C223.011 214.143 227.749 220.403 231.806 224.566C229.54 227.457 227.411 230.525 225.437 233.76C223.497 230.954 209.915 212.516 187.407 210.913C164.512 209.71 139.676 225.743 136.183 250.193C133.079 272.239 148.601 289.074 150.929 291.078C141.228 292.681 126.093 296.289 111.347 307.912C111.022 308.176 110.686 308.447 110.34 308.726L110.326 308.738C104.89 313.119 97.0474 319.44 91.9441 330.359C87.8756 339.026 87.6394 345.8 87.4141 352.26C87.2956 355.659 87.1802 358.97 86.5113 362.425C83.7948 374.45 72.9291 390.082 35.2871 403.309C60.8992 410.524 72.541 422.95 77.9739 430.565C84.959 440.586 89.6157 453.412 92.7201 462.231C95.2197 469.546 96.6261 475.064 97.7572 479.503C99.787 487.468 100.93 491.955 105.914 497.103C114.452 505.921 126.482 508.326 130.75 509.127C139.288 510.731 146.661 509.929 151.317 509.127C148.989 511.933 138.899 525.962 141.228 545.603L141.231 545.636C141.628 549.322 143.602 567.682 158.691 578.871C176.036 592.01 196.445 584.979 201.282 583.313L201.377 583.28C214.183 578.47 221.945 569.251 224.661 565.243Z"/>
</mask>
<path fill-rule="evenodd" clip-rule="evenodd" d="M224.661 565.243C226.162 568.172 228.667 572.507 232.391 577.327C228.228 581.481 223.215 587.912 220.098 596.62L220.066 596.718C218.439 601.672 211.576 622.579 224.402 640.348C235.325 655.804 253.248 657.827 256.846 658.233L256.878 658.236C276.051 660.622 289.746 650.286 292.485 647.901C291.702 652.671 290.92 660.224 292.485 668.97C293.267 673.342 295.615 685.666 304.223 694.411C309.249 699.517 313.629 700.688 321.404 702.767C325.737 703.926 331.124 705.367 338.265 707.927C346.873 711.108 359.394 715.878 369.176 723.033C376.61 728.599 388.74 740.525 395.783 766.761C408.696 728.201 423.956 717.07 435.694 714.288C439.066 713.602 442.299 713.484 445.617 713.363C451.923 713.132 458.536 712.89 466.997 708.722C477.655 703.495 483.826 695.461 488.103 689.892C488.379 689.533 488.647 689.184 488.908 688.846C500.256 673.74 503.777 658.236 505.342 648.298C507.298 650.683 523.732 666.584 545.253 663.404C569.121 659.826 584.772 634.385 583.598 610.93C582.566 595.717 574.378 584.484 568.14 578.032C572.17 572.931 574.847 568.314 576.421 565.243C579.137 569.251 586.899 578.47 599.705 583.28L599.801 583.313C604.637 584.979 625.046 592.01 642.391 578.871C657.48 567.682 659.454 549.322 659.851 545.636L659.854 545.603C662.183 525.962 652.093 511.933 649.765 509.127C654.421 509.929 661.794 510.731 670.332 509.127C674.6 508.326 686.63 505.921 695.168 497.103C700.152 491.955 701.295 487.468 703.325 479.503C704.456 475.064 705.862 469.546 708.362 462.231C711.466 453.412 716.123 440.586 723.108 430.565C728.541 422.95 740.183 410.524 765.795 403.309C728.153 390.082 717.287 374.45 714.571 362.425C713.902 358.97 713.786 355.659 713.668 352.26C713.443 345.8 713.206 339.026 709.138 330.359C704.035 319.44 696.192 313.119 690.756 308.738C690.405 308.455 690.064 308.18 689.735 307.912C674.989 296.289 659.854 292.681 650.153 291.078C652.481 289.074 668.003 272.239 664.899 250.193C661.406 225.743 636.57 209.71 613.675 210.913C591.167 212.516 577.585 230.954 575.645 233.76C573.488 230.225 571.145 226.889 568.642 223.766C574.796 217.227 582.519 206.221 583.52 191.475C584.694 168.021 569.043 142.579 545.175 139.001C523.654 135.821 507.22 151.722 505.264 154.107C503.699 144.169 500.177 128.666 488.83 113.56C488.57 113.223 488.302 112.875 488.027 112.516L488.025 112.513C483.748 106.945 477.577 98.911 466.918 93.6832C458.457 89.5155 451.845 89.2735 445.538 89.0427C442.221 88.9214 438.988 88.8031 435.616 88.1179C423.877 85.3352 408.617 74.2043 395.705 35.6442C388.662 61.881 376.532 73.8068 369.098 79.3722C359.316 86.5277 346.795 91.298 338.187 94.4782C331.046 97.0387 325.659 98.4794 321.326 99.6381C313.55 101.717 309.171 102.889 304.145 107.994C295.537 116.74 293.189 129.063 292.407 133.436C290.842 142.182 291.624 149.735 292.407 154.505C289.668 152.12 275.973 141.784 256.8 144.169L256.768 144.173C253.169 144.579 235.246 146.601 224.324 162.058C211.498 179.827 218.361 200.734 219.987 205.688L220.02 205.786C223.011 214.143 227.749 220.403 231.806 224.566C229.54 227.457 227.411 230.525 225.437 233.76C223.497 230.954 209.915 212.516 187.407 210.913C164.512 209.71 139.676 225.743 136.183 250.193C133.079 272.239 148.601 289.074 150.929 291.078C141.228 292.681 126.093 296.289 111.347 307.912C111.022 308.176 110.686 308.447 110.34 308.726L110.326 308.738C104.89 313.119 97.0474 319.44 91.9441 330.359C87.8756 339.026 87.6394 345.8 87.4141 352.26C87.2956 355.659 87.1802 358.97 86.5113 362.425C83.7948 374.45 72.9291 390.082 35.2871 403.309C60.8992 410.524 72.541 422.95 77.9739 430.565C84.959 440.586 89.6157 453.412 92.7201 462.231C95.2197 469.546 96.6261 475.064 97.7572 479.503C99.787 487.468 100.93 491.955 105.914 497.103C114.452 505.921 126.482 508.326 130.75 509.127C139.288 510.731 146.661 509.929 151.317 509.127C148.989 511.933 138.899 525.962 141.228 545.603L141.231 545.636C141.628 549.322 143.602 567.682 158.691 578.871C176.036 592.01 196.445 584.979 201.282 583.313L201.377 583.28C214.183 578.47 221.945 569.251 224.661 565.243Z" fill="#D84E00"/>
<path d="M232.391 577.327L239.821 584.774L246.382 578.228L240.715 570.895L232.391 577.327ZM224.661 565.243L234.023 560.445L225.919 544.635L215.952 559.341L224.661 565.243ZM220.098 596.62L210.193 593.075L210.146 593.205L210.103 593.336L220.098 596.62ZM220.066 596.718L210.071 593.434L210.07 593.436L220.066 596.718ZM224.402 640.348L232.993 634.276L232.963 634.233L232.932 634.191L224.402 640.348ZM256.846 658.233L255.666 668.686L255.666 668.686L256.846 658.233ZM256.878 658.236L258.177 647.797L258.117 647.789L258.058 647.783L256.878 658.236ZM292.485 647.901L302.866 649.604L307.592 620.795L285.576 639.967L292.485 647.901ZM292.485 668.97L282.129 670.823L282.129 670.823L292.485 668.97ZM304.223 694.411L296.726 701.791L296.726 701.791L304.223 694.411ZM321.404 702.767L324.122 692.605L324.122 692.605L321.404 702.767ZM338.265 707.927L341.911 698.059L341.863 698.042L341.816 698.025L338.265 707.927ZM369.176 723.033L375.481 714.612L375.434 714.577L375.387 714.543L369.176 723.033ZM395.783 766.761L385.623 769.489L394.674 803.205L405.759 770.102L395.783 766.761ZM435.694 714.288L433.599 703.978L433.433 704.012L433.267 704.051L435.694 714.288ZM445.617 713.363L446.001 723.876L446.001 723.876L445.617 713.363ZM466.997 708.722L462.364 699.277L462.356 699.281L462.348 699.285L466.997 708.722ZM488.103 689.892L496.446 696.3L496.446 696.3L488.103 689.892ZM488.908 688.846L497.23 695.282L497.275 695.223L497.32 695.164L488.908 688.846ZM505.342 648.298L513.476 641.627L498.599 623.489L494.95 646.662L505.342 648.298ZM545.253 663.404L546.791 673.811L546.802 673.81L546.812 673.808L545.253 663.404ZM583.598 610.93L594.105 610.405L594.101 610.311L594.094 610.218L583.598 610.93ZM568.14 578.032L559.886 571.51L554.183 578.729L560.577 585.343L568.14 578.032ZM576.421 565.243L585.13 559.341L575.163 544.635L567.059 560.445L576.421 565.243ZM599.705 583.28L596.006 593.129L596.144 593.18L596.283 593.228L599.705 583.28ZM599.801 583.313L603.227 573.367L603.222 573.365L599.801 583.313ZM642.391 578.871L636.125 570.421L636.082 570.453L636.04 570.485L642.391 578.871ZM659.851 545.636L649.392 544.505L649.391 544.511L659.851 545.636ZM659.854 545.603L649.407 544.364L649.401 544.418L649.395 544.471L659.854 545.603ZM649.765 509.127L651.549 498.76L623.481 493.928L641.669 515.845L649.765 509.127ZM670.332 509.127L672.273 519.467L672.274 519.467L670.332 509.127ZM695.168 497.103L702.726 504.42L702.726 504.42L695.168 497.103ZM703.325 479.503L693.131 476.905L693.131 476.905L703.325 479.503ZM708.362 462.231L698.439 458.737L698.423 458.783L698.407 458.829L708.362 462.231ZM723.108 430.565L714.544 424.456L714.511 424.503L714.478 424.55L723.108 430.565ZM765.795 403.309L768.647 413.435L800.671 404.414L769.283 393.384L765.795 403.309ZM714.571 362.425L704.243 364.425L704.274 364.584L704.309 364.743L714.571 362.425ZM713.668 352.26L703.154 352.627L703.154 352.627L713.668 352.26ZM709.138 330.359L699.608 334.813L699.611 334.821L699.615 334.829L709.138 330.359ZM690.756 308.738L697.358 300.547L697.358 300.547L690.756 308.738ZM689.735 307.912L696.364 299.744L696.306 299.697L696.247 299.651L689.735 307.912ZM650.153 291.078L643.29 283.105L626.232 297.787L648.437 301.457L650.153 291.078ZM664.899 250.193L675.316 248.727L675.315 248.716L675.313 248.706L664.899 250.193ZM613.675 210.913L613.123 200.407L613.025 200.412L612.927 200.419L613.675 210.913ZM575.645 233.76L566.664 239.239L575.093 253.054L584.297 239.743L575.645 233.76ZM568.642 223.766L560.982 216.556L554.717 223.211L560.433 230.344L568.642 223.766ZM583.52 191.475L594.016 192.187L594.023 192.094L594.027 192.001L583.52 191.475ZM545.175 139.001L546.734 128.598L546.723 128.596L546.713 128.594L545.175 139.001ZM505.264 154.107L494.872 155.744L498.521 178.916L513.398 160.779L505.264 154.107ZM488.83 113.56L497.241 107.241L497.197 107.182L497.152 107.124L488.83 113.56ZM488.027 112.516L479.642 118.869L479.663 118.897L479.684 118.925L488.027 112.516ZM488.025 112.513L496.41 106.161L496.389 106.133L496.368 106.105L488.025 112.513ZM466.918 93.6832L462.27 103.12L462.278 103.124L462.286 103.128L466.918 93.6832ZM445.538 89.0427L445.154 99.5557L445.154 99.5557L445.538 89.0427ZM435.616 88.1179L433.189 98.3542L433.355 98.3934L433.521 98.4272L435.616 88.1179ZM395.705 35.6442L405.681 32.3037L394.596 -0.79949L385.545 32.9167L395.705 35.6442ZM369.098 79.3722L375.309 87.863L375.356 87.8287L375.402 87.7938L369.098 79.3722ZM338.187 94.4782L341.738 104.381L341.785 104.364L341.832 104.346L338.187 94.4782ZM321.326 99.6381L324.044 109.801L324.044 109.801L321.326 99.6381ZM304.145 107.994L296.648 100.615L296.648 100.615L304.145 107.994ZM292.407 133.436L282.051 131.583L282.051 131.583L292.407 133.436ZM292.407 154.505L285.498 162.438L307.514 181.611L302.788 152.802L292.407 154.505ZM256.8 144.169L257.978 154.623L258.038 154.616L258.099 154.609L256.8 144.169ZM256.768 144.173L255.59 133.719L255.588 133.719L256.768 144.173ZM224.324 162.058L232.854 168.215L232.885 168.172L232.915 168.129L224.324 162.058ZM219.987 205.688L209.992 208.969L209.992 208.97L219.987 205.688ZM220.02 205.786L210.025 209.068L210.068 209.2L210.115 209.331L220.02 205.786ZM231.806 224.566L240.087 231.054L245.761 223.812L239.34 217.223L231.806 224.566ZM225.437 233.76L216.785 239.743L225.989 253.054L234.418 239.239L225.437 233.76ZM187.407 210.913L188.155 200.419L188.057 200.412L187.959 200.407L187.407 210.913ZM136.183 250.193L125.769 248.706L125.767 248.716L125.766 248.727L136.183 250.193ZM150.929 291.078L152.645 301.457L174.85 297.787L157.792 283.105L150.929 291.078ZM111.347 307.912L104.835 299.651L104.776 299.697L104.718 299.744L111.347 307.912ZM110.34 308.726L103.738 300.535L103.735 300.538L110.34 308.726ZM110.326 308.738L116.927 316.928L116.93 316.926L110.326 308.738ZM91.9441 330.359L101.467 334.829L101.471 334.821L101.475 334.813L91.9441 330.359ZM87.4141 352.26L76.9005 351.894L76.9005 351.894L87.4141 352.26ZM86.5113 362.425L96.7727 364.743L96.8085 364.584L96.8394 364.425L86.5113 362.425ZM35.2871 403.309L31.7995 393.384L0.410782 404.414L32.4347 413.435L35.2871 403.309ZM77.9739 430.565L86.604 424.55L86.5713 424.503L86.538 424.456L77.9739 430.565ZM92.7201 462.231L102.675 458.829L102.659 458.783L102.643 458.737L92.7201 462.231ZM97.7572 479.503L87.563 482.101L87.563 482.101L97.7572 479.503ZM105.914 497.103L113.472 489.785L113.472 489.785L105.914 497.103ZM130.75 509.127L128.808 519.467L128.809 519.467L130.75 509.127ZM151.317 509.127L159.413 515.845L177.601 493.928L149.533 498.76L151.317 509.127ZM141.228 545.603L151.688 544.478L151.681 544.421L151.675 544.364L141.228 545.603ZM141.231 545.636L130.772 546.76L130.772 546.761L141.231 545.636ZM158.691 578.871L165.043 570.485L165 570.453L164.957 570.421L158.691 578.871ZM201.282 583.313L197.86 573.365L197.855 573.367L201.282 583.313ZM201.377 583.28L204.799 593.228L204.938 593.18L205.076 593.129L201.377 583.28ZM240.715 570.895C237.455 566.676 235.285 562.908 234.023 560.445L215.299 570.042C217.039 573.436 219.878 578.339 224.067 583.759L240.715 570.895ZM230.002 600.165C232.47 593.269 236.469 588.118 239.821 584.774L224.961 569.88C219.986 574.843 213.959 582.554 210.193 593.075L230.002 600.165ZM230.06 600.001L230.092 599.903L210.103 593.336L210.071 593.434L230.06 600.001ZM232.932 634.191C223.509 621.136 228.363 605.171 230.061 599.999L210.07 593.436C208.515 598.173 199.643 624.021 215.872 646.505L232.932 634.191ZM258.025 647.779C254.59 647.391 241.036 645.658 232.993 634.276L215.811 646.419C229.613 665.95 251.905 668.262 255.666 668.686L258.025 647.779ZM258.058 647.783L258.025 647.779L255.666 668.686L255.699 668.69L258.058 647.783ZM285.576 639.967C283.797 641.517 273.023 649.644 258.177 647.797L255.58 668.676C279.079 671.599 295.695 659.055 299.394 655.834L285.576 639.967ZM302.84 667.116C301.564 659.982 302.189 653.73 302.866 649.604L282.104 646.198C281.215 651.612 280.276 660.466 282.129 670.823L302.84 667.116ZM311.721 687.032C305.596 680.809 303.62 671.472 302.84 667.116L282.129 670.823C282.915 675.212 285.634 690.522 296.726 701.791L311.721 687.032ZM324.122 692.605C316.282 690.508 314.529 689.885 311.721 687.032L296.726 701.791C303.968 709.149 310.975 710.868 318.686 712.93L324.122 692.605ZM341.816 698.025C334.244 695.31 328.507 693.777 324.122 692.605L318.686 712.93C322.967 714.075 328.004 715.424 334.714 717.83L341.816 698.025ZM375.387 714.543C364.257 706.401 350.398 701.195 341.911 698.059L334.619 717.795C343.348 721.02 354.531 725.355 362.965 731.524L375.387 714.543ZM405.944 764.034C398.241 735.34 384.647 721.473 375.481 714.612L362.872 731.455C368.574 735.724 379.239 745.709 385.623 769.489L405.944 764.034ZM433.267 704.051C416.37 708.057 399.223 723.358 385.808 763.421L405.759 770.102C418.168 733.044 431.541 726.084 438.121 724.524L433.267 704.051ZM445.232 702.85C442.026 702.967 437.948 703.095 433.599 703.978L437.789 724.597C440.185 724.11 442.572 724.001 446.001 723.876L445.232 702.85ZM462.348 699.285C456.007 702.409 451.309 702.627 445.232 702.85L446.001 723.876C452.536 723.637 461.064 723.372 471.645 718.159L462.348 699.285ZM479.76 683.484C475.507 689.022 470.615 695.23 462.364 699.277L471.629 718.167C484.696 711.759 492.146 701.899 496.446 696.3L479.76 683.484ZM480.587 682.41C480.313 682.764 480.034 683.128 479.76 683.485L496.446 696.3C496.724 695.938 496.982 695.603 497.23 695.282L480.587 682.41ZM494.95 646.662C493.507 655.828 490.365 669.39 480.497 682.528L497.32 695.164C510.146 678.089 514.047 660.644 515.734 649.935L494.95 646.662ZM543.715 652.997C535.94 654.146 528.798 651.894 523.033 648.722C520.179 647.151 517.809 645.431 516.074 643.999C514.235 642.48 513.389 641.52 513.476 641.627L497.208 654.97C499.066 657.235 504.715 662.657 512.889 667.155C521.21 671.734 533.045 675.842 546.791 673.811L543.715 652.997ZM573.092 611.456C574.074 631.086 560.784 650.439 543.693 653L546.812 673.808C577.458 669.214 595.471 637.683 594.105 610.405L573.092 611.456ZM560.577 585.343C565.931 590.882 572.305 599.893 573.103 611.643L594.094 610.218C592.826 591.541 582.825 578.086 575.704 570.72L560.577 585.343ZM567.059 560.445C565.735 563.028 563.414 567.045 559.886 571.51L576.395 584.553C580.926 578.818 583.959 573.599 585.783 570.042L567.059 560.445ZM603.404 573.432C593.308 569.64 587.101 562.25 585.13 559.341L567.712 571.145C571.174 576.252 580.49 587.301 596.006 593.129L603.404 573.432ZM603.222 573.365L603.126 573.332L596.283 593.228L596.379 593.261L603.222 573.365ZM636.04 570.485C623.528 579.962 608.282 575.108 603.227 573.367L596.374 593.26C600.993 594.851 626.563 604.057 648.743 587.257L636.04 570.485ZM649.391 544.511C649.001 548.141 647.256 562.167 636.125 570.421L648.658 587.321C667.704 573.197 669.908 550.503 670.31 546.761L649.391 544.511ZM649.395 544.471L649.392 544.505L670.31 546.767L670.313 546.734L649.395 544.471ZM641.669 515.845C643.158 517.639 651.248 528.838 649.407 544.364L670.301 546.841C673.117 523.086 661.028 506.227 657.86 502.409L641.669 515.845ZM668.39 498.788C661.54 500.075 655.533 499.446 651.549 498.76L647.98 519.495C653.31 520.412 662.049 521.387 672.273 519.467L668.39 498.788ZM687.61 489.785C681.584 496.009 672.588 498 668.39 498.788L672.274 519.467C676.613 518.652 691.677 515.833 702.726 504.42L687.61 489.785ZM693.131 476.905C691.074 484.974 690.435 486.867 687.61 489.785L702.726 504.42C709.868 497.043 711.516 489.962 713.519 482.101L693.131 476.905ZM698.407 458.829C695.765 466.561 694.274 472.417 693.131 476.905L713.519 482.101C714.637 477.712 715.96 472.531 718.317 465.632L698.407 458.829ZM714.478 424.55C706.561 435.907 701.498 450.047 698.439 458.737L718.285 465.724C721.435 456.778 725.685 445.265 731.738 436.581L714.478 424.55ZM762.942 393.183C734.774 401.118 721.209 415.113 714.544 424.456L731.672 436.675C735.873 430.786 745.592 419.93 768.647 413.435L762.942 393.183ZM704.309 364.743C708.158 381.781 722.981 399.415 762.307 413.234L769.283 393.384C733.325 380.749 726.416 367.118 724.832 360.107L704.309 364.743ZM703.154 352.627C703.269 355.918 703.393 360.037 704.243 364.425L724.899 360.425C724.411 357.904 724.304 355.4 724.182 351.894L703.154 352.627ZM699.615 334.829C702.718 341.44 702.936 346.374 703.154 352.627L724.182 351.894C723.949 345.227 723.695 336.613 718.661 325.889L699.615 334.829ZM684.155 316.928C689.528 321.259 695.62 326.282 699.608 334.813L718.668 325.904C712.449 312.598 702.856 304.978 697.358 300.547L684.155 316.928ZM683.105 316.081C683.451 316.361 683.806 316.648 684.155 316.929L697.358 300.547C697.004 300.262 696.678 299.998 696.364 299.744L683.105 316.081ZM648.437 301.457C657.311 302.923 670.457 306.112 683.222 316.174L696.247 299.651C679.52 286.465 662.398 282.439 651.868 280.699L648.437 301.457ZM654.482 251.66C655.634 259.844 653.367 267.315 650.247 273.265C648.7 276.215 647.009 278.658 645.607 280.44C644.119 282.332 643.18 283.199 643.29 283.105L657.015 299.051C659.238 297.138 664.514 291.362 668.88 283.037C673.327 274.557 677.268 262.588 675.316 248.727L654.482 251.66ZM614.227 221.418C632.848 220.44 651.917 233.703 654.485 251.681L675.313 248.706C670.896 217.783 640.293 198.98 613.123 200.407L614.227 221.418ZM584.297 239.743C586.025 237.246 597.118 222.639 614.422 221.406L612.927 200.419C585.216 202.393 569.146 224.662 566.992 227.776L584.297 239.743ZM560.433 230.344C562.654 233.116 564.74 236.084 566.664 239.239L584.625 228.281C582.237 224.366 579.637 220.663 576.852 217.187L560.433 230.344ZM573.024 190.763C572.252 202.146 566.247 210.961 560.982 216.556L576.303 230.976C583.345 223.493 592.787 210.296 594.016 192.187L573.024 190.763ZM543.615 149.405C560.706 151.967 573.996 171.32 573.013 190.949L594.027 192.001C595.392 164.722 577.38 133.191 546.734 128.598L543.615 149.405ZM513.398 160.779C513.311 160.885 514.156 159.925 515.996 158.407C517.731 156.975 520.101 155.254 522.955 153.684C528.72 150.511 535.862 148.259 543.637 149.408L546.713 128.594C532.967 126.563 521.131 130.672 512.811 135.251C504.637 139.749 498.988 145.171 497.13 147.436L513.398 160.779ZM480.419 119.878C490.287 133.015 493.428 146.577 494.872 155.744L515.656 152.471C513.969 141.761 510.068 124.316 497.241 107.241L480.419 119.878ZM479.684 118.925C479.957 119.28 480.236 119.643 480.509 119.996L497.152 107.124C496.904 106.803 496.648 106.47 496.37 106.107L479.684 118.925ZM479.639 118.866L479.642 118.869L496.412 106.164L496.41 106.161L479.639 118.866ZM462.286 103.128C470.537 107.175 475.428 113.384 479.682 118.921L496.368 106.105C492.067 100.506 484.617 90.6468 471.551 84.2381L462.286 103.128ZM445.154 99.5557C451.231 99.7781 455.929 99.9969 462.27 103.12L471.567 84.246C460.986 79.034 452.458 78.7689 445.923 78.5298L445.154 99.5557ZM433.521 98.4272C437.87 99.3108 441.948 99.4384 445.154 99.5557L445.923 78.5298C442.494 78.4043 440.107 78.2953 437.711 77.8085L433.521 98.4272ZM385.73 38.9846C399.145 79.0473 416.292 94.3485 433.189 98.3542L438.042 77.8815C431.463 76.3218 418.09 69.3614 405.681 32.3037L385.73 38.9846ZM375.402 87.7938C384.568 80.9322 398.163 67.0654 405.865 38.3716L385.545 32.9167C379.161 56.6966 368.496 66.6814 362.794 70.9506L375.402 87.7938ZM341.832 104.346C350.32 101.211 364.179 96.0044 375.309 87.863L362.887 70.8814C354.453 77.0509 343.27 81.3854 334.541 84.6101L341.832 104.346ZM324.044 109.801C328.429 108.628 334.166 107.096 341.738 104.381L334.636 84.5756C327.926 86.9815 322.889 88.3305 318.608 89.4752L324.044 109.801ZM311.643 115.374C314.451 112.521 316.204 111.898 324.044 109.801L318.608 89.4752C310.897 91.5373 303.89 93.2566 296.648 100.615L311.643 115.374ZM302.762 135.289C303.542 130.933 305.518 121.596 311.643 115.374L296.648 100.615C285.556 111.883 282.837 127.193 282.051 131.583L302.762 135.289ZM302.788 152.802C302.111 148.675 301.485 142.424 302.762 135.289L282.051 131.583C280.198 141.939 281.137 150.794 282.025 156.208L302.788 152.802ZM258.099 154.609C272.945 152.762 283.719 160.889 285.498 162.438L299.315 146.571C295.617 143.351 279.001 130.806 255.501 133.73L258.099 154.609ZM257.945 154.627L257.978 154.623L255.622 133.715L255.59 133.719L257.945 154.627ZM232.915 168.129C240.958 156.747 254.512 155.014 257.947 154.626L255.588 133.719C251.826 134.144 229.534 136.456 215.732 155.987L232.915 168.129ZM229.983 202.407C228.285 197.235 223.431 181.269 232.854 168.215L215.794 155.901C199.565 178.384 208.437 204.232 209.992 208.969L229.983 202.407ZM230.015 202.504L229.982 202.406L209.992 208.97L210.025 209.068L230.015 202.504ZM239.34 217.223C236.069 213.868 232.292 208.856 229.924 202.241L210.115 209.331C213.73 219.43 219.429 226.939 224.272 231.908L239.34 217.223ZM234.418 239.239C236.179 236.352 238.075 233.621 240.087 231.054L223.525 218.077C221.006 221.293 218.642 224.698 216.457 228.281L234.418 239.239ZM186.66 221.406C203.964 222.639 215.057 237.246 216.785 239.743L234.09 227.776C231.936 224.662 215.866 202.393 188.155 200.419L186.66 221.406ZM146.597 251.681C149.165 233.703 168.234 220.44 186.855 221.418L187.959 200.407C160.789 198.98 130.186 217.783 125.769 248.706L146.597 251.681ZM157.792 283.105C157.902 283.199 156.963 282.332 155.475 280.44C154.073 278.658 152.382 276.215 150.836 273.265C147.715 267.315 145.448 259.844 146.6 251.66L125.766 248.727C123.814 262.588 127.755 274.557 132.202 283.037C136.568 291.362 141.844 297.138 144.067 299.051L157.792 283.105ZM117.86 316.174C130.625 306.112 143.771 302.923 152.645 301.457L149.214 280.699C138.684 282.439 121.562 286.465 104.835 299.651L117.86 316.174ZM116.941 316.917C117.285 316.64 117.635 316.358 117.977 316.081L104.718 299.744C104.409 299.995 104.086 300.255 103.738 300.535L116.941 316.917ZM116.93 316.926L116.944 316.915L103.735 300.538L103.721 300.549L116.93 316.926ZM101.475 334.813C105.462 326.282 111.554 321.259 116.927 316.928L103.724 300.547C98.2261 304.978 88.633 312.598 82.4137 325.904L101.475 334.813ZM97.9277 352.627C98.1458 346.374 98.364 341.44 101.467 334.829L82.4211 325.889C77.3872 336.613 77.133 345.227 76.9005 351.894L97.9277 352.627ZM96.8394 364.425C97.6891 360.037 97.813 355.918 97.9277 352.627L76.9005 351.894C76.7783 355.4 76.6712 357.904 76.1831 360.425L96.8394 364.425ZM38.7747 413.234C78.1009 399.415 92.9237 381.781 96.7727 364.743L76.2498 360.107C74.666 367.118 67.7572 380.749 31.7995 393.384L38.7747 413.234ZM86.538 424.456C79.8732 415.113 66.3079 401.118 38.1396 393.183L32.4347 413.435C55.4904 419.93 65.2088 430.786 69.4097 436.675L86.538 424.456ZM102.643 458.737C99.5839 450.047 94.5208 435.907 86.604 424.55L69.3437 436.581C75.3971 445.265 79.6474 456.778 82.7971 465.724L102.643 458.737ZM107.951 476.905C106.808 472.417 105.317 466.561 102.675 458.829L82.7653 465.632C85.1224 472.53 86.4445 477.712 87.563 482.101L107.951 476.905ZM113.472 489.785C110.647 486.867 110.008 484.974 107.951 476.905L87.563 482.101C89.5663 489.962 91.2139 497.043 98.3562 504.42L113.472 489.785ZM132.692 498.788C128.494 498 119.498 496.009 113.472 489.785L98.3562 504.42C109.405 515.833 124.469 518.652 128.808 519.467L132.692 498.788ZM149.533 498.76C145.549 499.446 139.542 500.075 132.692 498.788L128.809 519.467C139.033 521.387 147.772 520.412 153.102 519.495L149.533 498.76ZM151.675 544.364C149.834 528.838 157.924 517.639 159.413 515.845L143.222 502.409C140.054 506.227 127.965 523.086 130.781 546.841L151.675 544.364ZM151.691 544.512L151.688 544.478L130.768 546.727L130.772 546.76L151.691 544.512ZM164.957 570.421C153.826 562.167 152.081 548.141 151.691 544.511L130.772 546.761C131.174 550.503 133.378 573.197 152.424 587.321L164.957 570.421ZM197.855 573.367C192.801 575.108 177.554 579.962 165.043 570.485L152.339 587.257C174.519 604.057 200.089 594.851 204.708 593.26L197.855 573.367ZM197.956 573.332L197.86 573.365L204.703 593.261L204.799 593.228L197.956 573.332ZM215.952 559.341C213.981 562.25 207.774 569.64 197.678 573.432L205.076 593.129C220.592 587.301 229.908 576.252 233.37 571.145L215.952 559.341Z" fill="#2D517F" mask="url(#path-9-inside-1_780_11560)"/>
<path d="M159.975 404.222C171.214 400.555 187.659 393.574 201.501 378.786C213.214 366.363 212.741 359.501 226.464 343.885C238.532 330.161 250.836 316.2 269.884 313.952C284.672 312.178 305.14 317.265 314.605 333.592C321.703 345.896 323.123 365.535 312.357 375.118C306.915 379.851 297.805 382.808 289.523 379.969C287.394 379.259 280.295 376.42 277.811 369.913C276.036 365.062 277.337 360.211 279.704 352.403C280.768 348.735 281.951 345.659 282.898 343.766C280.295 342.583 274.616 340.69 267.636 341.992C254.504 344.476 248.706 356.425 247.997 358.082C243.264 368.493 246.34 378.194 247.168 380.442C243.856 380.442 239.597 380.915 235.101 382.572C221.969 387.659 216.408 399.372 214.988 402.684C215.817 405.169 220.076 417.236 232.498 422.797C237.704 425.163 242.791 425.518 245.867 425.518C245.039 428.239 243.028 436.639 247.287 445.631C247.76 446.814 254.149 460.064 267.873 461.721C274.38 462.549 279.704 460.301 282.188 458.999C280.65 457.225 276.154 451.073 276.391 442.554C276.509 433.918 281.596 424.335 289.405 421.495C301.236 417.236 316.498 429.422 320.638 442.081C326.554 459.828 311.529 481.715 294.256 488.103C267.281 498.041 237.231 469.411 233.445 465.861C215.935 449.061 217.591 436.521 199.253 421.732C185.529 410.611 170.504 406.234 159.975 404.222Z" fill="#75A9C9"/>
<path d="M643.123 402.265C631.884 398.598 615.439 391.617 601.596 376.829C589.884 364.406 590.357 357.544 576.633 341.928C564.566 328.204 552.262 314.243 533.214 311.995C518.425 310.221 497.958 315.308 488.493 331.635C481.394 343.939 479.975 363.578 490.741 373.161C496.183 377.894 505.293 380.851 513.574 378.012C515.704 377.302 522.803 374.463 525.287 367.956C527.062 363.105 525.76 358.254 523.394 350.446C522.329 346.778 521.146 343.702 520.2 341.809C522.803 340.626 528.481 338.733 535.462 340.035C548.594 342.519 554.391 354.468 555.101 356.125C559.833 366.536 556.757 376.237 555.929 378.485C559.242 378.485 563.501 378.958 567.997 380.615C581.129 385.702 586.69 397.415 588.109 400.727C587.281 403.212 583.022 415.279 570.6 420.84C565.394 423.206 560.307 423.561 557.231 423.561C558.059 426.282 560.07 434.682 555.811 443.673C555.338 444.857 548.949 458.107 535.225 459.764C528.718 460.592 523.394 458.344 520.91 457.042C522.448 455.268 526.943 449.116 526.707 440.597C526.588 431.961 521.501 422.378 513.693 419.538C501.862 415.279 486.6 427.465 482.459 440.124C476.544 457.871 491.569 479.758 508.842 486.146C535.817 496.084 565.867 467.454 569.653 463.904C587.163 447.104 585.506 434.564 603.844 419.775C617.568 408.654 632.594 404.277 643.123 402.265Z" fill="#75A9C9"/>
<path d="M399.381 156.621C403.048 167.86 410.029 184.305 424.817 198.147C437.24 209.86 444.102 209.387 459.719 223.11C473.442 235.178 487.403 247.482 489.651 266.53C491.425 281.319 486.338 301.786 470.011 311.251C457.707 318.349 438.068 319.769 428.485 309.003C423.753 303.561 420.795 294.451 423.634 286.169C424.344 284.04 427.184 276.941 433.691 274.457C438.541 272.682 443.392 273.983 451.2 276.35C454.868 277.414 457.944 278.598 459.837 279.544C461.02 276.941 462.913 271.262 461.611 264.282C459.127 251.15 447.178 245.353 445.521 244.643C435.11 239.91 425.409 242.986 423.161 243.815C423.161 240.502 422.688 236.243 421.031 231.747C415.944 218.615 404.232 213.054 400.919 211.634C398.434 212.463 386.367 216.722 380.806 229.144C378.44 234.35 378.085 239.437 378.085 242.513C375.364 241.685 366.964 239.674 357.973 243.933C356.79 244.406 343.539 250.795 341.883 264.519C341.054 271.026 343.302 276.35 344.604 278.834C346.378 277.296 352.53 272.8 361.049 273.037C369.685 273.155 379.268 278.243 382.108 286.051C386.367 297.882 374.181 313.144 361.522 317.285C343.776 323.2 321.888 308.175 315.5 290.902C305.562 263.927 334.192 233.877 337.742 230.091C354.542 212.581 367.082 214.237 381.871 195.899C392.992 182.176 397.37 167.15 399.381 156.621Z" fill="#75A9C9"/>
<path d="M398.326 642.019C401.994 630.78 408.974 614.335 423.763 600.492C436.185 588.78 443.047 589.253 458.664 575.529C472.388 563.462 486.348 551.158 488.596 532.11C490.371 517.321 485.283 496.854 468.957 487.389C456.653 480.29 437.013 478.871 427.43 489.637C422.698 495.079 419.74 504.189 422.58 512.47C423.289 514.6 426.129 521.699 432.636 524.183C437.487 525.958 442.337 524.656 450.146 522.29C453.813 521.225 456.889 520.042 458.782 519.096C459.965 521.699 461.858 527.377 460.557 534.358C458.072 547.49 446.123 553.287 444.467 553.997C434.056 558.729 424.354 555.653 422.106 554.825C422.106 558.138 421.633 562.397 419.977 566.893C414.889 580.025 403.177 585.586 399.864 587.005C397.38 586.177 385.312 581.918 379.752 569.496C377.385 564.29 377.031 559.203 377.031 556.127C374.309 556.955 365.909 558.966 356.918 554.707C355.735 554.234 342.484 547.845 340.828 534.121C340 527.614 342.248 522.29 343.549 519.806C345.324 521.344 351.476 525.839 359.994 525.603C368.631 525.484 378.214 520.397 381.053 512.589C385.312 500.758 373.126 485.496 360.467 481.355C342.721 475.44 320.834 490.465 314.445 507.738C304.507 534.713 333.138 564.763 336.687 568.549C353.487 586.059 366.028 584.402 380.816 602.74C391.937 616.464 396.315 631.49 398.326 642.019Z" fill="#75A9C9"/>
</svg>
