<svg width="1074" height="1074" viewBox="0 0 1074 1074" fill="none" xmlns="http://www.w3.org/2000/svg">
<circle cx="537.31" cy="536.644" r="531.26" fill="#75A9C9" stroke="#2D517F" stroke-width="10.52"/>
<circle cx="539.408" cy="536.645" r="428.69" fill="#ECE1CF" stroke="#2D517F" stroke-width="10.52"/>
<path d="M495.95 58.1061C496.881 56.7147 499.517 53.4683 504.324 51.7678C507.891 50.3765 510.837 50.3765 512.698 50.5311C512.543 49.6036 511.768 46.8209 513.164 43.7291C515.49 38.9368 521.073 38.1639 521.538 38.1639C520.917 36.9272 519.522 32.7532 521.072 27.8063C523.088 21.4681 528.826 18.9947 529.757 18.5309C531.463 26.7242 535.34 30.7435 537.666 32.5986C539.992 34.4537 542.473 35.5358 547.591 37.8547C557.515 42.1832 559.066 41.2557 562.013 43.8837C566.355 47.7485 568.371 54.5505 566.975 60.4249C564.959 69.082 556.12 72.9467 552.553 74.4927C548.056 76.5023 546.815 75.7294 543.559 77.2753C539.216 79.4395 534.099 84.2319 531.152 96.4445C529.602 95.3624 525.415 92.2706 523.399 86.7053C521.848 82.5314 522.158 78.9758 522.468 77.1207C522.003 77.2753 518.281 77.5845 515.955 75.111C513.629 72.6376 513.474 68.309 515.955 65.0626C513.629 65.2172 509.752 65.0626 505.255 63.5167C500.447 61.8162 497.501 59.4974 495.95 58.1061Z" fill="#D75014"/>
<path d="M774.489 117.316C776.04 116.698 780.072 115.616 784.879 116.698C788.601 117.471 791.082 119.171 792.323 120.408C792.633 119.635 793.564 116.853 796.51 114.997C801.162 112.369 806.125 114.843 806.59 114.997C806.745 113.761 807.986 109.278 812.173 106.186C817.445 102.166 823.493 103.249 824.579 103.403C821.322 111.133 822.253 116.698 823.183 119.481C823.958 122.418 825.509 124.582 828.456 129.374C834.194 138.495 836.054 138.65 836.985 142.515C838.381 148.08 836.209 154.882 831.712 158.901C825.199 164.776 815.584 163.075 811.863 162.302C807.055 161.375 806.435 160.138 802.868 159.52C798.061 158.747 791.237 159.983 781.778 168.486C781.158 166.785 779.452 161.838 780.847 156.119C781.933 151.79 784.259 149.162 785.5 147.771C785.034 147.616 781.778 145.916 781.313 142.36C780.692 138.959 783.018 135.403 786.895 134.167C784.879 132.93 781.778 130.611 778.986 126.901C776.195 122.882 775.11 119.481 774.489 117.316Z" fill="#D75014"/>
<path d="M973.294 327.556C975 328.02 978.877 329.257 982.133 333.122C984.615 335.904 985.7 338.687 986.166 340.387C986.941 339.924 989.267 338.223 992.679 338.378C997.951 338.841 1000.74 343.788 1000.9 344.097C1001.83 343.17 1005.24 340.233 1010.51 340.078C1017.18 339.769 1021.52 344.252 1022.3 344.87C1015.16 349.354 1012.84 354.3 1011.91 357.083C1010.98 359.866 1010.82 362.648 1010.51 368.214C1009.89 379.035 1011.29 380.117 1009.89 383.827C1007.88 389.238 1002.14 393.412 996.09 394.185C987.251 395.267 980.428 388.465 977.791 385.682C974.38 382.281 974.535 380.735 972.053 378.262C968.487 375.016 962.284 371.924 949.567 373.47C950.033 371.615 951.428 366.668 956.081 362.803C959.492 359.866 962.904 358.938 964.765 358.629C964.455 358.32 962.749 354.919 964.3 351.827C965.695 348.735 969.727 347.035 973.604 348.271C972.674 346.107 971.433 342.397 971.278 337.759C971.433 332.967 972.519 329.566 973.294 327.556Z" fill="#D75014"/>
<path d="M232.802 165.545C232.802 163.844 233.267 159.67 236.058 155.651C238.229 152.559 240.711 150.859 242.261 150.086C241.641 149.467 239.315 147.612 238.85 144.211C238.074 138.955 242.261 135.09 242.572 134.936C241.486 134.317 237.764 131.535 236.369 126.588C234.508 120.25 237.919 114.994 238.385 114.066C244.432 119.94 249.86 121.177 252.807 121.332C255.753 121.641 258.389 121.177 263.972 120.095C274.672 118.24 275.448 116.539 279.325 117.158C285.062 117.931 290.49 122.414 292.661 128.134C295.763 136.482 290.645 144.675 288.629 147.767C285.993 151.941 284.597 152.095 282.581 155.032C280.1 159.206 278.704 166.008 283.046 177.912C281.186 177.912 276.068 177.603 271.106 174.047C267.539 171.419 265.833 168.327 265.058 166.627C264.747 166.936 261.956 169.409 258.544 168.636C255.133 168.018 252.652 164.462 252.962 160.289C251.101 161.68 247.844 163.69 243.192 164.926C238.54 166.008 234.973 165.699 232.802 165.545Z" fill="#D75014"/>
<path d="M79.1245 392.331C78.1941 390.94 76.3332 387.23 76.4882 382.283C76.6433 378.573 77.7288 375.79 78.6593 374.244C77.7288 374.09 74.7824 373.626 72.6113 371.152C69.0446 367.133 70.4403 361.722 70.5953 361.413C69.3547 361.413 64.7024 361.258 60.8255 357.703C55.8631 353.374 55.708 347.191 55.708 346.109C63.9271 347.654 69.1996 345.799 71.6809 344.408C74.3172 343.017 76.3332 341.162 80.3651 337.297C88.274 329.877 87.9639 328.176 91.5306 326.476C96.8032 324.002 103.782 324.775 108.589 328.485C115.723 333.741 115.878 343.481 115.878 347.191C116.033 352.138 114.792 353.065 114.947 356.621C115.257 361.413 117.583 367.906 127.818 375.481C126.268 376.408 121.771 379.036 115.723 378.727C111.225 378.573 108.124 376.872 106.573 375.79C106.573 376.254 105.487 379.809 102.076 381.046C98.8192 382.283 94.7872 380.737 92.9263 377.181C92.1509 379.346 90.4451 382.901 87.3436 386.302C84.242 389.549 80.9854 391.249 79.1245 392.331Z" fill="#D75014"/>
<path d="M85.0188 699.193C83.468 698.575 79.7462 696.874 76.7998 692.7C74.6287 689.608 73.8533 686.671 73.6982 684.971C72.9228 685.435 70.2865 686.826 67.0299 686.207C61.7573 685.125 59.5863 680.024 59.5863 679.56C58.6558 680.333 54.7789 682.961 49.5063 682.497C42.838 682.034 38.9611 677.241 38.3408 676.468C45.9396 672.758 48.886 668.12 50.1266 665.492C51.3672 662.864 51.8325 660.082 52.7629 654.671C54.6238 644.004 53.2281 642.768 55.0891 639.212C57.7254 634.111 63.9284 630.555 69.9764 630.4C78.8157 630.246 84.8637 637.821 87.1899 640.913C90.2914 644.777 89.8262 646.169 92.1523 648.951C95.2538 652.661 101.147 656.372 113.863 656.217C113.243 657.917 111.227 662.71 106.264 666.111C102.542 668.584 99.1307 669.203 97.1148 669.357C97.2698 669.821 98.6655 673.222 96.8046 676.159C94.9437 679.096 90.7566 680.333 87.0348 678.633C87.6551 680.797 88.5856 684.662 88.1203 689.299C87.5 694.092 85.9493 697.338 85.0188 699.193Z" fill="#D75014"/>
<path d="M1011.43 634.882C1012.52 636.274 1014.69 639.675 1015.15 644.622C1015.46 648.332 1014.53 651.269 1013.76 652.815C1014.69 652.815 1017.63 652.97 1020.12 655.288C1023.99 658.844 1023.22 664.409 1023.06 664.873C1024.3 664.718 1028.8 664.564 1033.14 667.501C1038.57 671.366 1039.35 677.55 1039.5 678.477C1031.13 677.704 1026.16 680.178 1023.68 681.723C1021.2 683.269 1019.34 685.434 1015.77 689.608C1008.64 697.801 1009.11 699.501 1005.69 701.511C1000.73 704.603 993.598 704.448 988.48 701.357C980.882 696.873 979.641 687.289 979.331 683.424C978.711 678.632 979.796 677.55 979.331 673.994C978.555 669.202 975.454 663.018 964.599 656.525C965.994 655.443 970.181 652.351 976.229 652.042C980.727 651.887 983.983 653.124 985.689 654.052C985.689 653.588 986.464 649.878 989.566 648.486C992.667 646.941 996.854 648.177 999.181 651.424C999.801 649.259 1001.04 645.549 1003.83 641.684C1006.62 638.129 1009.73 636.119 1011.43 634.882Z" fill="#D75014"/>
<path d="M257.148 927.059C255.443 927.523 251.411 928.141 246.758 926.441C243.192 925.204 240.865 923.194 239.78 921.803C239.315 922.576 238.074 925.204 234.972 926.595C230.01 928.605 225.358 925.668 225.048 925.359C224.737 926.595 223.032 930.769 218.534 933.397C212.797 936.798 206.904 934.943 205.973 934.634C210.005 927.368 209.85 921.803 209.385 918.866C208.92 915.929 207.679 913.455 205.353 908.354C200.701 898.615 198.995 898.305 198.53 894.286C197.754 888.566 200.856 882.073 205.818 878.672C213.107 873.571 222.256 876.354 225.978 877.59C230.63 878.982 231.096 880.373 234.662 881.455C239.315 882.692 246.293 882.383 256.683 875.117C257.148 876.972 258.234 881.919 256.063 887.639C254.512 891.813 251.876 894.131 250.325 895.368C250.79 895.523 253.737 897.687 253.892 901.243C254.047 904.644 251.255 908.045 247.223 908.818C249.084 910.209 251.876 912.837 254.202 917.011C256.063 921.339 256.838 924.895 257.148 927.059Z" fill="#D75014"/>
<path d="M567.003 1016.41C566.073 1015.02 563.436 1011.93 558.629 1010.08C555.062 1008.68 552.116 1008.68 550.255 1008.99C550.41 1008.07 551.185 1005.28 549.79 1002.19C547.464 997.399 541.881 996.627 541.416 996.627C541.881 995.39 543.432 991.216 541.726 986.269C539.555 980.085 533.972 977.457 533.041 977.148C531.336 985.341 527.614 989.361 525.288 991.216C522.962 993.071 520.48 994.153 515.363 996.472C505.438 1000.96 503.887 999.873 500.941 1002.66C496.599 1006.52 494.738 1013.32 496.133 1019.2C498.304 1027.85 507.144 1031.72 510.71 1033.11C515.208 1035.12 516.448 1034.35 519.86 1035.89C524.202 1038.06 529.32 1042.69 532.266 1055.06C533.817 1053.98 537.849 1050.89 540.02 1045.17C541.571 1040.99 541.105 1037.44 540.795 1035.58C541.261 1035.74 544.982 1036.05 547.309 1033.57C549.635 1031.1 549.79 1026.77 547.309 1023.53C549.635 1023.68 553.512 1023.53 558.009 1021.82C562.661 1020.12 565.452 1017.81 567.003 1016.41Z" fill="#D75014"/>
<path d="M857.444 897.533C855.738 897.069 851.706 896.141 846.899 897.687C843.332 898.77 840.851 900.625 839.61 901.861C839.3 901.088 838.059 898.306 834.958 896.76C830.15 894.441 825.343 897.224 824.878 897.533C824.568 896.296 823.172 891.967 818.675 889.03C813.092 885.475 807.044 886.866 806.114 887.175C809.835 894.596 809.37 900.161 808.75 903.098C808.13 906.035 806.889 908.354 804.253 913.301C799.135 922.886 797.429 923.04 796.809 926.905C795.723 932.625 798.515 939.118 803.167 942.828C810.146 948.239 819.605 945.92 823.172 944.838C827.979 943.601 828.445 942.21 832.011 941.437C836.819 940.354 843.642 940.973 853.722 948.857C854.187 947.002 855.583 942.055 853.722 936.335C852.326 932.161 849.845 929.533 848.449 928.296C848.915 928.142 852.016 926.132 852.326 922.731C852.636 919.33 850 915.774 846.123 914.847C847.984 913.456 850.931 910.982 853.567 906.963C856.203 903.098 856.979 899.542 857.444 897.533Z" fill="#D75014"/>
<path d="M428.513 69.3908C428.047 70.9367 426.497 74.8014 422.465 78.0478C419.518 80.3667 416.572 81.2942 414.866 81.6034C415.331 82.3764 416.882 84.8498 416.572 88.2508C415.796 93.5069 410.834 95.9803 410.369 96.1349C411.299 97.0625 413.935 100.618 413.935 105.874C413.935 112.522 409.283 116.695 408.508 117.314C404.321 110.048 399.513 107.265 396.722 106.338C393.93 105.256 391.294 104.947 385.711 104.328C374.856 103.092 373.771 104.483 370.204 102.937C364.931 100.618 360.899 94.7436 360.589 88.7146C359.969 79.9029 367.257 73.4101 370.049 70.9367C373.771 67.6903 375.166 67.9994 377.803 65.526C381.369 62.125 384.626 56.096 383.695 43.4196C385.401 44.0379 390.364 45.5838 394.086 50.3761C396.722 53.9317 397.497 57.3327 397.807 59.1878C398.118 58.8786 401.529 57.4873 404.631 59.1878C407.732 60.7337 409.128 64.9076 407.732 68.7724C409.903 67.9995 413.625 66.9173 418.433 67.0719C423.24 67.3811 426.497 68.6178 428.513 69.3908Z" fill="#D75014"/>
<path d="M185.644 209.605C186.109 211.151 187.04 215.17 185.644 220.117C184.559 223.673 182.698 226.146 181.457 227.383C182.232 227.692 185.024 228.929 186.575 231.866C188.901 236.658 186.264 241.451 185.954 241.915C187.195 242.224 191.537 243.615 194.483 247.944C198.205 253.354 196.81 259.383 196.499 260.465C188.901 256.755 183.318 257.374 180.527 258.147C177.58 258.765 175.254 260.156 170.292 262.784C160.677 267.886 160.522 269.741 156.645 270.514C150.907 271.596 144.394 268.968 140.517 264.33C134.934 257.374 137.26 248.098 138.191 244.388C139.276 239.596 140.672 238.977 141.602 235.576C142.533 230.784 141.913 223.982 133.849 214.088C135.554 213.47 140.672 212.079 146.41 213.934C150.597 215.325 153.233 217.644 154.474 219.035C154.629 218.571 156.645 215.48 160.057 215.17C163.468 214.707 167.035 217.335 167.965 221.354C169.361 219.499 171.842 216.407 175.719 213.934C180.061 210.996 183.628 210.069 185.644 209.605Z" fill="#D75014"/>
<path d="M60.9767 473.336C62.3724 474.418 65.4739 477.046 67.0247 481.838C68.2653 485.394 68.1102 488.485 67.8001 490.186C68.7305 490.031 71.5219 489.413 74.6234 490.959C79.2757 493.432 79.896 498.998 79.896 499.461C81.1366 498.998 85.4788 497.606 90.2861 499.461C96.4892 501.78 98.8153 507.5 99.1255 508.428C90.9064 509.819 86.5643 513.375 84.7034 515.693C82.6874 517.858 81.4468 520.331 79.1206 525.433C74.3133 535.172 75.2437 536.718 72.4523 539.5C68.4204 543.674 61.597 545.375 55.7041 543.674C47.1749 541.201 43.6081 532.235 42.2125 528.679C40.3515 524.196 41.1269 522.805 39.8863 519.558C37.8703 515.075 33.3731 509.974 21.1221 506.418C22.2076 504.872 25.4642 501.007 31.202 499.152C35.3891 497.761 38.9559 498.225 40.8168 498.688C40.6617 498.225 40.5066 494.514 43.1429 492.196C45.6241 489.877 50.1214 490.031 53.2229 492.659C53.2229 490.341 53.533 486.476 55.2389 482.147C57.2549 477.664 59.581 474.881 60.9767 473.336Z" fill="#D75014"/>
<path d="M1021.36 551.406C1019.97 550.478 1016.55 548.159 1014.54 543.522C1012.99 540.121 1012.83 537.029 1012.83 535.328C1012.06 535.638 1009.11 536.565 1006.01 535.328C1001.05 533.319 999.961 527.908 999.805 527.444C998.72 528.063 994.533 529.763 989.415 528.526C983.057 526.826 980.111 521.415 979.646 520.488C987.709 518.323 991.586 514.149 993.292 511.831C994.998 509.512 995.929 506.884 997.945 501.628C1001.67 491.425 1000.74 490.033 1003.22 486.942C1006.78 482.304 1013.45 479.985 1019.5 481.067C1028.18 482.613 1032.68 491.115 1034.39 494.516C1036.71 498.845 1035.94 500.236 1037.64 503.328C1039.97 507.502 1045.09 512.294 1057.65 514.459C1056.72 516.005 1053.77 520.333 1048.34 522.807C1044.31 524.507 1040.75 524.507 1038.88 524.198C1039.04 524.662 1039.66 528.217 1037.18 530.845C1034.85 533.319 1030.51 533.782 1027.1 531.464C1027.41 533.782 1027.41 537.647 1026.17 542.13C1024.77 546.768 1022.6 549.705 1021.36 551.406Z" fill="#D75014"/>
<path d="M114.322 764.738C116.027 764.738 120.059 765.202 124.246 768.139C127.348 770.303 129.054 772.777 129.829 774.322C130.449 773.704 132.465 771.385 135.722 770.922C140.995 770.149 144.716 774.323 145.027 774.786C145.647 773.704 148.438 770.149 153.556 768.757C159.914 767.057 165.187 770.303 166.117 770.767C160.224 776.796 158.983 782.207 158.673 784.989C158.363 787.926 158.828 790.554 159.759 796.12C161.62 806.786 163.171 807.559 162.55 811.424C161.775 817.144 157.123 822.555 151.385 824.564C143.011 827.656 134.792 822.4 131.69 820.236C127.503 817.608 127.503 816.062 124.401 814.207C120.214 811.733 113.391 810.188 101.45 814.516C101.45 812.661 101.76 807.559 105.327 802.613C107.963 799.057 111.065 797.356 112.926 796.583C112.616 796.274 110.134 793.492 111.065 790.091C111.84 786.69 115.407 784.216 119.439 784.525C118.043 782.67 116.027 779.424 114.942 774.786C113.856 770.458 114.011 766.902 114.322 764.738Z" fill="#D75014"/>
<path d="M914.208 839.407C913.588 837.862 912.347 833.842 913.588 829.05C914.363 825.34 916.069 822.866 917.31 821.475C916.534 821.166 913.588 820.238 911.882 817.301C909.246 812.663 911.572 807.717 911.882 807.253C910.641 807.098 906.144 806.016 902.888 801.842C898.856 796.586 899.786 790.557 899.941 789.475C907.695 792.567 913.278 791.639 916.069 790.712C919.015 789.939 921.187 788.393 925.994 785.456C935.143 779.581 935.143 777.881 939.02 776.953C944.603 775.407 951.426 777.571 955.458 782.055C961.506 788.547 959.8 798.132 959.18 801.842C958.405 806.634 957.009 807.407 956.389 810.808C955.769 815.601 956.854 822.403 965.538 831.678C963.833 832.296 958.87 833.997 953.132 832.605C948.79 831.523 946.154 829.359 944.603 827.968C944.448 828.432 942.742 831.678 939.33 832.296C935.919 832.915 932.197 830.596 930.956 826.731C929.716 828.741 927.545 831.833 923.668 834.77C919.636 837.862 916.224 838.944 914.208 839.407Z" fill="#D75014"/>
<path d="M652.435 1004.36C652.9 1002.65 654.451 998.945 658.172 995.698C660.964 993.225 663.91 992.297 665.616 991.988C665.151 991.215 663.445 988.742 663.91 985.341C664.53 980.085 669.493 977.457 669.958 977.302C669.028 976.374 666.236 972.819 666.236 967.563C666.236 960.915 670.734 956.741 671.354 955.968C675.696 963.234 680.503 965.708 683.295 966.79C686.086 967.872 688.877 968.026 694.305 968.49C705.16 969.418 706.246 968.026 709.968 969.572C715.395 971.737 719.427 977.611 719.893 983.64C720.668 992.452 713.535 998.945 710.743 1001.57C707.176 1004.97 705.626 1004.66 702.989 1007.14C699.578 1010.54 696.321 1016.72 697.562 1029.24C695.701 1028.78 690.893 1027.08 687.017 1022.44C684.225 1019.04 683.45 1015.64 683.14 1013.63C682.829 1013.94 679.418 1015.49 676.316 1013.79C673.215 1012.24 671.819 1008.22 673.06 1004.36C670.889 1005.13 667.167 1006.37 662.359 1006.21C657.862 1006.37 654.451 1005.13 652.435 1004.36Z" fill="#D75014"/>
<path d="M339.497 974.673C340.893 973.745 344.46 971.581 349.422 971.426C353.144 971.272 356.09 972.354 357.641 973.127C357.641 972.199 357.951 969.262 360.277 966.789C363.999 963.079 369.582 964.006 370.047 964.161C369.892 962.924 369.892 958.286 373.149 954.112C377.181 948.856 383.384 948.393 384.314 948.238C383.229 956.586 385.555 961.687 387.105 964.006C388.656 966.634 390.672 968.335 394.704 972.199C402.613 979.62 404.319 979.156 406.335 982.711C409.126 987.813 408.816 994.769 405.56 999.871C400.752 1007.29 391.137 1008.06 387.261 1008.37C382.298 1008.84 381.368 1007.6 377.801 1008.06C372.994 1008.68 366.635 1011.47 359.812 1022.13C358.727 1020.59 355.78 1016.41 355.78 1010.38C355.78 1005.9 357.176 1002.81 358.106 1001.11C357.641 1001.11 354.074 1000.18 352.523 997.088C351.128 993.997 352.368 989.823 355.78 987.658C353.609 987.04 349.887 985.649 346.165 982.557C342.444 979.62 340.583 976.528 339.497 974.673Z" fill="#D75014"/>
<path d="M709.355 87.4783C707.96 88.5605 704.548 90.8793 699.585 91.3431C695.864 91.6523 692.917 90.8793 691.366 90.1064C691.366 91.0339 691.211 93.9711 689.04 96.4446C685.474 100.464 679.891 99.691 679.426 99.5364C679.581 100.773 679.891 105.256 676.944 109.585C673.222 114.995 667.019 115.923 666.089 116.078C666.709 107.73 664.228 102.783 662.522 100.464C660.816 97.9905 658.8 96.29 654.458 92.7344C646.084 85.7778 644.378 86.2416 642.362 82.8406C639.261 77.8937 639.261 70.9372 642.362 65.6811C646.859 57.9516 656.319 56.7148 660.196 56.2511C665.003 55.6327 666.089 56.7148 669.656 56.0965C674.463 55.3235 680.666 52.0771 686.869 41.1012C688.11 42.4925 691.211 46.6665 691.522 52.6955C691.832 57.1786 690.436 60.425 689.661 62.1255C690.126 62.1255 693.848 62.7439 695.398 65.8357C696.949 68.9275 695.864 73.1014 692.607 75.4203C694.778 76.0386 698.655 77.1208 702.377 79.9034C706.099 82.8406 708.115 85.7778 709.355 87.4783Z" fill="#D75014"/>
<path d="M935.14 263.093C933.434 263.248 929.247 263.248 924.905 260.62C921.648 258.765 919.632 256.446 918.701 254.9C918.236 255.673 916.375 257.992 913.119 258.919C908.001 260.156 903.814 256.446 903.504 255.982C902.884 257.219 900.558 260.929 895.595 262.939C889.392 265.257 883.809 262.475 882.879 262.166C888.151 255.673 888.927 250.107 888.927 247.17C888.927 244.233 888.151 241.605 886.756 236.194C883.964 225.682 882.103 225.218 882.414 221.199C882.569 215.479 886.756 209.605 892.183 206.977C900.247 203.112 908.777 207.595 912.188 209.296C916.53 211.46 916.841 213.006 920.097 214.552C924.439 216.561 931.418 217.489 942.893 211.924C943.048 213.779 943.204 218.88 940.102 224.136C937.776 228.001 934.829 229.856 933.124 230.784C933.434 231.093 936.225 233.721 935.605 237.122C935.14 240.523 931.883 243.305 927.851 243.46C929.402 245.161 931.728 248.252 933.279 252.736C935.14 257.373 935.14 261.083 935.14 263.093Z" fill="#D75014"/>
<path d="M460.772 75.5751C466.938 75.5751 471.937 70.5918 471.937 64.4446C471.937 58.2974 466.938 53.3141 460.772 53.3141C454.605 53.3141 449.606 58.2974 449.606 64.4446C449.606 70.5918 454.605 75.5751 460.772 75.5751Z" fill="#2D517F"/>
<path d="M601.42 72.0185C607.587 72.0185 612.586 67.0352 612.586 60.888C612.586 54.7407 607.587 49.7574 601.42 49.7574C595.254 49.7574 590.255 54.7407 590.255 60.888C590.255 67.0352 595.254 72.0185 601.42 72.0185Z" fill="#2D517F"/>
<path d="M327.397 119.94C333.563 119.94 338.562 114.957 338.562 108.81C338.562 102.663 333.563 97.6793 327.397 97.6793C321.23 97.6793 316.231 102.663 316.231 108.81C316.231 114.957 321.23 119.94 327.397 119.94Z" fill="#2D517F"/>
<path d="M210.163 201.259C216.329 201.259 221.328 196.275 221.328 190.128C221.328 183.981 216.329 178.998 210.163 178.998C203.996 178.998 198.997 183.981 198.997 190.128C198.997 196.275 203.996 201.259 210.163 201.259Z" fill="#2D517F"/>
<path d="M126.256 306.38C132.423 306.38 137.422 301.397 137.422 295.249C137.422 289.102 132.423 284.119 126.256 284.119C120.09 284.119 115.091 289.102 115.091 295.249C115.091 301.397 120.09 306.38 126.256 306.38Z" fill="#2D517F"/>
<path d="M859.623 194.3C865.79 194.3 870.789 189.316 870.789 183.169C870.789 177.022 865.79 172.039 859.623 172.039C853.457 172.039 848.458 177.022 848.458 183.169C848.458 189.316 853.457 194.3 859.623 194.3Z" fill="#2D517F"/>
<path d="M952.053 307.769C958.22 307.769 963.219 302.785 963.219 296.638C963.219 290.491 958.22 285.507 952.053 285.507C945.887 285.507 940.888 290.491 940.888 296.638C940.888 302.785 945.887 307.769 952.053 307.769Z" fill="#2D517F"/>
<path d="M1006.33 446.745C1012.5 446.745 1017.5 441.762 1017.5 435.615C1017.5 429.467 1012.5 424.484 1006.33 424.484C1000.17 424.484 995.169 429.467 995.169 435.615C995.169 441.762 1000.17 446.745 1006.33 446.745Z" fill="#2D517F"/>
<path d="M63.6079 598.245C69.7744 598.245 74.7734 593.262 74.7734 587.114C74.7734 580.967 69.7744 575.984 63.6079 575.984C57.4413 575.984 52.4424 580.967 52.4424 587.114C52.4424 593.262 57.4413 598.245 63.6079 598.245Z" fill="#2D517F"/>
<path d="M101.295 739.542C107.462 739.542 112.461 734.559 112.461 728.411C112.461 722.264 107.462 717.281 101.295 717.281C95.1288 717.281 90.1299 722.264 90.1299 728.411C90.1299 734.559 95.1288 739.542 101.295 739.542Z" fill="#2D517F"/>
<path d="M294.991 957.978C301.157 957.978 306.156 952.994 306.156 946.847C306.156 940.7 301.157 935.716 294.991 935.716C288.824 935.716 283.825 940.7 283.825 946.847C283.825 952.994 288.824 957.978 294.991 957.978Z" fill="#2D517F"/>
<path d="M450.538 1016.41C456.704 1016.41 461.703 1011.43 461.703 1005.28C461.703 999.133 456.704 994.15 450.538 994.15C444.371 994.15 439.372 999.133 439.372 1005.28C439.372 1011.43 444.371 1016.41 450.538 1016.41Z" fill="#2D517F"/>
<path d="M608.233 1019.66C614.399 1019.66 619.398 1014.68 619.398 1008.53C619.398 1002.38 614.399 997.398 608.233 997.398C602.066 997.398 597.067 1002.38 597.067 1008.53C597.067 1014.68 602.066 1019.66 608.233 1019.66Z" fill="#2D517F"/>
<path d="M759.749 970.964C765.915 970.964 770.914 965.981 770.914 959.833C770.914 953.686 765.915 948.703 759.749 948.703C753.582 948.703 748.583 953.686 748.583 959.833C748.583 965.981 753.582 970.964 759.749 970.964Z" fill="#2D517F"/>
<path d="M885.514 876.663C891.681 876.663 896.68 871.68 896.68 865.532C896.68 859.385 891.681 854.402 885.514 854.402C879.348 854.402 874.349 859.385 874.349 865.532C874.349 871.68 879.348 876.663 885.514 876.663Z" fill="#2D517F"/>
<path d="M178.991 861.669C185.157 861.669 190.156 856.686 190.156 850.538C190.156 844.391 185.157 839.408 178.991 839.408C172.824 839.408 167.825 844.391 167.825 850.538C167.825 856.686 172.824 861.669 178.991 861.669Z" fill="#2D517F"/>
<path d="M974.373 754.229C980.54 754.229 985.539 749.246 985.539 743.099C985.539 736.952 980.54 731.968 974.373 731.968C968.207 731.968 963.208 736.952 963.208 743.099C963.208 749.246 968.207 754.229 974.373 754.229Z" fill="#2D517F"/>
<path d="M1014.08 603.194C1020.25 603.194 1025.25 598.211 1025.25 592.064C1025.25 585.917 1020.25 580.933 1014.08 580.933C1007.92 580.933 1002.92 585.917 1002.92 592.064C1002.92 598.211 1007.92 603.194 1014.08 603.194Z" fill="#2D517F"/>
<path d="M72.6001 443.964C78.7666 443.964 83.7656 438.981 83.7656 432.833C83.7656 426.686 78.7666 421.703 72.6001 421.703C66.4335 421.703 61.4346 426.686 61.4346 432.833C61.4346 438.981 66.4335 443.964 72.6001 443.964Z" fill="#2D517F"/>
<path d="M740.686 114.995C746.853 114.995 751.852 110.012 751.852 103.865C751.852 97.7173 746.853 92.734 740.686 92.734C734.519 92.734 729.521 97.7173 729.521 103.865C729.521 110.012 734.519 114.995 740.686 114.995Z" fill="#2D517F"/>
</svg>
