<svg width="2001" height="2001" viewBox="0 0 2001 2001" fill="none" xmlns="http://www.w3.org/2000/svg">
<circle cx="1000.18" cy="1000.73" r="990" fill="#517D56" stroke="#003E33" stroke-width="20"/>
<circle cx="1000.18" cy="1000.73" r="825" fill="#ECE1CF" stroke="#003E33" stroke-width="20"/>
<path d="M1893.72 1202.03C1905.49 1202.03 1915.03 1192.49 1915.03 1180.73C1915.03 1168.96 1905.49 1159.42 1893.72 1159.42C1881.95 1159.42 1872.4 1168.96 1872.4 1180.73C1872.4 1192.49 1881.95 1202.03 1893.72 1202.03Z" fill="#EFB854"/>
<path d="M1894.31 775.375L1939.01 933.965L1904.67 936.036L1870.33 938.107L1894.31 775.375Z" fill="#EFB854"/>
<path d="M1915.14 1092.99L1870.25 938.165L1905.08 935.288L1939.42 933.217L1915.14 1092.99Z" fill="#EFB854"/>
<path d="M1203.75 125.038C1215.52 125.038 1225.06 115.5 1225.06 103.735C1225.06 91.9694 1215.52 82.4316 1203.75 82.4316C1191.98 82.4316 1182.43 91.9694 1182.43 103.735C1182.43 115.5 1191.98 125.038 1203.75 125.038Z" fill="#EFB854"/>
<path d="M717.419 146.93C729.189 146.93 738.731 137.393 738.731 125.627C738.731 113.862 729.189 104.324 717.419 104.324C705.649 104.324 696.107 113.862 696.107 125.627C696.107 137.393 705.649 146.93 717.419 146.93Z" fill="#EFB854"/>
<path d="M808.586 93.3789L968.721 53.4355L969.905 87.7573L971.089 122.079L808.586 93.3789Z" fill="#EFB854"/>
<path d="M1127.97 82.1356L971.089 122.079L969.905 87.7573L968.721 53.4355L1127.97 82.1356Z" fill="#EFB854"/>
<path d="M1616.96 341.917C1628.73 341.917 1638.27 332.379 1638.27 320.614C1638.27 308.848 1628.73 299.311 1616.96 299.311C1605.19 299.311 1595.65 308.848 1595.65 320.614C1595.65 332.379 1605.19 341.917 1616.96 341.917Z" fill="#EFB854"/>
<path d="M1246.37 1893.2C1258.14 1893.2 1267.68 1883.66 1267.68 1871.9C1267.68 1860.13 1258.14 1850.59 1246.37 1850.59C1234.6 1850.59 1225.06 1860.13 1225.06 1871.9C1225.06 1883.66 1234.6 1893.2 1246.37 1893.2Z" fill="#EFB854"/>
<path d="M1867.08 728.329C1878.85 728.329 1888.39 718.791 1888.39 707.026C1888.39 695.26 1878.85 685.723 1867.08 685.723C1855.31 685.723 1845.76 695.26 1845.76 707.026C1845.76 718.791 1855.31 728.329 1867.08 728.329Z" fill="#EFB854"/>
<path d="M1672.31 1631.94C1684.08 1631.94 1693.62 1622.4 1693.62 1610.63C1693.62 1598.87 1684.08 1589.33 1672.31 1589.33C1660.54 1589.33 1651 1598.87 1651 1610.63C1651 1622.4 1660.54 1631.94 1672.31 1631.94Z" fill="#EFB854"/>
<path d="M115.658 789.278C127.428 789.278 136.969 779.74 136.969 767.975C136.969 756.21 127.428 746.672 115.658 746.672C103.887 746.672 94.3457 756.21 94.3457 767.975C94.3457 779.74 103.887 789.278 115.658 789.278Z" fill="#EFB854"/>
<path d="M327.296 398.132C339.066 398.132 348.608 388.594 348.608 376.829C348.608 365.063 339.066 355.525 327.296 355.525C315.526 355.525 305.984 365.063 305.984 376.829C305.984 388.594 315.526 398.132 327.296 398.132Z" fill="#EFB854"/>
<path d="M345.351 1650.28C357.121 1650.28 366.663 1640.74 366.663 1628.98C366.663 1617.21 357.121 1607.67 345.351 1607.67C333.581 1607.67 324.039 1617.21 324.039 1628.98C324.039 1640.74 333.581 1650.28 345.351 1650.28Z" fill="#EFB854"/>
<path d="M747.908 1891.42C759.678 1891.42 769.219 1881.88 769.219 1870.12C769.219 1858.35 759.678 1848.81 747.908 1848.81C736.137 1848.81 726.596 1858.35 726.596 1870.12C726.596 1881.88 736.137 1891.42 747.908 1891.42Z" fill="#EFB854"/>
<path d="M116.837 1244.34C128.607 1244.34 138.149 1234.8 138.149 1223.04C138.149 1211.27 128.607 1201.73 116.837 1201.73C105.067 1201.73 95.5254 1211.27 95.5254 1223.04C95.5254 1234.8 105.067 1244.34 116.837 1244.34Z" fill="#EFB854"/>
<path d="M93.7518 1152.91L59.416 991.658H93.7518H128.088L93.7518 1152.91Z" fill="#EFB854"/>
<path d="M93.7518 833.365L128.088 991.659H93.7518H59.416L93.7518 833.365Z" fill="#EFB854"/>
<path d="M126.607 703.181L173.079 544.887L203.271 561.16L233.463 577.433L126.607 703.181Z" fill="#EFB854"/>
<path d="M278.752 422.098L233.761 577.729L203.569 561.456L173.377 545.182L278.752 422.098Z" fill="#EFB854"/>
<path d="M374.064 319.133L490.984 202.854L509.631 231.554L528.279 260.254L374.064 319.133Z" fill="#EFB854"/>
<path d="M642.535 145.453L528.28 260.253L509.632 231.553L490.984 202.853L642.535 145.453Z" fill="#EFB854"/>
<path d="M1154.02 1900.3L992.406 1933.44L992.702 1899.11L992.998 1864.79L1154.02 1900.3Z" fill="#EFB854"/>
<path d="M834.34 1898.23L992.995 1864.79L992.699 1899.11L992.403 1933.44L834.34 1898.23Z" fill="#EFB854"/>
<path d="M1610.15 1682.24L1490.57 1795.86L1472.51 1766.57L1454.46 1737.27L1610.15 1682.24Z" fill="#EFB854"/>
<path d="M1337.54 1849.41L1454.46 1737.27L1472.51 1766.57L1490.57 1795.86L1337.54 1849.41Z" fill="#EFB854"/>
<path d="M1876.55 1274.52L1831.55 1433.11L1801.07 1417.13L1770.58 1401.15L1876.55 1274.52Z" fill="#EFB854"/>
<path d="M1727.36 1557.08L1770.88 1401.15L1801.36 1417.13L1831.85 1433.11L1727.36 1557.08Z" fill="#EFB854"/>
<path d="M667.986 1851.18L512.291 1797.04L530.051 1767.75L547.811 1738.46L667.986 1851.18Z" fill="#EFB854"/>
<path d="M394.484 1685.79L547.811 1738.16L530.051 1767.45L512.292 1796.74L394.484 1685.79Z" fill="#EFB854"/>
<path d="M286.741 1574.53L178.109 1450.56L208.005 1433.7L237.901 1416.83L286.741 1574.53Z" fill="#EFB854"/>
<path d="M130.75 1295.23L237.901 1416.83L208.005 1433.7L178.11 1450.56L130.75 1295.23Z" fill="#EFB854"/>
<path d="M1281 117.049L1439.65 161.726L1423.67 192.202L1407.69 222.677L1281 117.049Z" fill="#EFB854"/>
<path d="M1563.68 265.873L1407.69 222.675L1423.67 192.2L1439.66 161.725L1563.68 265.873Z" fill="#EFB854"/>
<path d="M1846.36 638.379L1730.32 521.212L1759.33 502.572L1788.34 483.932L1846.36 638.379Z" fill="#EFB854"/>
<path d="M1673.49 369.43L1788.05 483.934L1759.04 502.574L1730.03 521.214L1673.49 369.43Z" fill="#EFB854"/>
</svg>
