<svg width="1487" height="1486" viewBox="0 0 1487 1486" fill="none" xmlns="http://www.w3.org/2000/svg">
<path fill-rule="evenodd" clip-rule="evenodd" d="M743.291 76.8105L935.99 267.334H1213.36V544.888L1408.06 737.396L1213.36 929.904V1207.46H937.314L742.945 1399.63L548.577 1207.46H273.231V929.906L78.5234 737.397L273.231 544.887V267.334H550.593L743.291 76.8105Z" fill="#517D56"/>
<path d="M935.99 267.334L928.959 274.445L931.881 277.334H935.99V267.334ZM743.291 76.8105L750.322 69.6995L743.291 62.748L736.26 69.6995L743.291 76.8105ZM1213.36 267.334H1223.36V257.334H1213.36V267.334ZM1213.36 544.888H1203.36V549.064L1206.32 551.999L1213.36 544.888ZM1408.06 737.396L1415.09 744.507L1422.28 737.396L1415.09 730.285L1408.06 737.396ZM1213.36 929.904L1206.32 922.793L1203.36 925.729V929.904H1213.36ZM1213.36 1207.46V1217.46H1223.36V1207.46H1213.36ZM937.314 1207.46V1197.46H933.206L930.284 1200.35L937.314 1207.46ZM742.945 1399.63L735.915 1406.75L742.945 1413.7L749.976 1406.75L742.945 1399.63ZM548.577 1207.46L555.607 1200.35L552.685 1197.46H548.577V1207.46ZM273.231 1207.46H263.231V1217.46H273.231V1207.46ZM273.231 929.906H283.231V925.731L280.262 922.795L273.231 929.906ZM78.5234 737.397L71.4926 730.285L64.3004 737.397L71.4926 744.508L78.5234 737.397ZM273.231 544.887L280.262 551.998L283.231 549.062V544.887H273.231ZM273.231 267.334V257.334H263.231V267.334H273.231ZM550.593 267.334V277.334H554.702L557.624 274.445L550.593 267.334ZM943.02 260.223L750.322 69.6995L736.26 83.9216L928.959 274.445L943.02 260.223ZM1213.36 257.334H935.99V277.334H1213.36V257.334ZM1223.36 544.888V267.334H1203.36V544.888H1223.36ZM1415.09 730.285L1220.39 537.777L1206.32 551.999L1401.03 744.507L1415.09 730.285ZM1220.39 937.015L1415.09 744.507L1401.03 730.285L1206.32 922.793L1220.39 937.015ZM1223.36 1207.46V929.904H1203.36V1207.46H1223.36ZM937.314 1217.46H1213.36V1197.46H937.314V1217.46ZM930.284 1200.35L735.915 1392.52L749.976 1406.75L944.345 1214.57L930.284 1200.35ZM749.976 1392.52L555.607 1200.35L541.546 1214.57L735.915 1406.75L749.976 1392.52ZM273.231 1217.46H548.577V1197.46H273.231V1217.46ZM263.231 929.906V1207.46H283.231V929.906H263.231ZM71.4926 744.508L266.2 937.017L280.262 922.795L85.5543 730.285L71.4926 744.508ZM266.2 537.776L71.4926 730.285L85.5543 744.508L280.262 551.998L266.2 537.776ZM263.231 267.334V544.887H283.231V267.334H263.231ZM550.593 257.334H273.231V277.334H550.593V257.334ZM736.26 69.6995L543.562 260.223L557.624 274.445L750.322 83.9216L736.26 69.6995Z" fill="#003E33"/>
<path d="M983.48 524.79L1145.93 523.876L945.856 725.852L781.383 728.805L983.48 524.79Z" fill="#EFB854"/>
<path d="M963.091 504.61L962.316 342.311L762.24 544.287L760.994 708.626L963.091 504.61Z" fill="#EFB854"/>
<path d="M521.319 981.81L522.094 1144.11L722.17 942.133L723.416 777.794L521.319 981.81Z" fill="#EFB854"/>
<path d="M500.899 961.607L338.447 962.52L538.523 760.545L702.996 757.591L500.899 961.607Z" fill="#EFB854"/>
<path d="M983.378 960.918L1145.83 961.675L945.948 759.894L781.476 757.099L983.378 960.918Z" fill="#EFB854"/>
<path d="M962.985 981.121L962.053 1143.42L762.171 941.639L761.083 777.302L962.985 981.121Z" fill="#EFB854"/>
<path d="M521.931 503.338L522.863 341.04L722.745 542.82L723.833 707.157L521.931 503.338Z" fill="#EFB854"/>
<path d="M501.478 523.545L339.024 522.788L538.907 724.569L703.379 727.364L501.478 523.545Z" fill="#EFB854"/>
<rect width="150.416" height="150.416" transform="matrix(0.711108 0.703083 -0.711108 0.703083 298.938 625.15)" fill="#ECE1CF" stroke="#003E33" stroke-width="20"/>
<rect width="150.526" height="150.527" transform="matrix(0.711108 0.703083 -0.711108 0.703083 742.559 1075.95)" fill="#ECE1CF" stroke="#003E33" stroke-width="20"/>
<rect width="150.416" height="150.416" transform="matrix(0.711108 0.703083 -0.711108 0.703083 1183.42 633.92)" fill="#ECE1CF" stroke="#003E33" stroke-width="20"/>
<rect width="150.416" height="150.416" transform="matrix(0.711108 0.703083 -0.711108 0.703083 743.479 190.227)" fill="#ECE1CF" stroke="#003E33" stroke-width="20"/>
<path d="M1154.11 403.252L1177.57 426.448L1119.69 426.868L1095.65 403.676L1154.11 403.252Z" fill="#EFB854"/>
<path d="M1154.1 397.412L1177.41 373.877L1119.53 374.297L1095.63 397.836L1154.1 397.412Z" fill="#EFB854"/>
<path d="M1021.8 402.83L998.484 426.366L1056.36 425.946L1080.26 402.406L1021.8 402.83Z" fill="#EFB854"/>
<path d="M1021.78 396.981L998.321 373.785L1056.2 373.365L1080.25 396.557L1021.78 396.981Z" fill="#EFB854"/>
<path d="M1091.17 466.168L1114.38 489.605L1114.8 431.78L1091.59 407.759L1091.17 466.168Z" fill="#EFB854"/>
<path d="M1085.32 466.156L1061.76 489.446L1062.18 431.621L1085.74 407.747L1085.32 466.156Z" fill="#EFB854"/>
<path d="M1090.93 333.877L1114.48 310.587L1114.06 368.412L1090.5 392.286L1090.93 333.877Z" fill="#EFB854"/>
<path d="M1085.07 333.858L1061.85 310.421L1061.43 368.245L1084.65 392.267L1085.07 333.858Z" fill="#EFB854"/>
<path d="M1184.29 304.092L1184.49 367.502L1121.08 367.303L1120.88 303.892L1184.29 304.092Z" fill="#EFB854"/>
<path d="M1184.21 432.258L1184.41 494.894L1121.77 494.697L1121.57 432.061L1184.21 432.258Z" fill="#EFB854"/>
<path d="M1056.67 304.172L1056.86 367.35L993.687 367.151L993.488 303.973L1056.67 304.172Z" fill="#EFB854"/>
<path d="M1056.31 431.973L1056.51 495.16L993.32 494.961L993.121 431.774L1056.31 431.973Z" fill="#EFB854"/>
<rect width="30.6228" height="30.6228" transform="matrix(0.00314504 0.999995 -0.999995 -0.00314504 1041.34 319.426)" fill="#517D56"/>
<rect width="30.6452" height="30.6453" transform="matrix(0.00314504 0.999995 -0.999995 -0.00314504 1039.98 448.191)" fill="#517D56"/>
<rect width="30.6228" height="30.6228" transform="matrix(0.00314504 0.999995 -0.999995 -0.00314504 1167.08 447.697)" fill="#517D56"/>
<rect width="30.6228" height="30.6228" transform="matrix(0.00314504 0.999995 -0.999995 -0.00314504 1167.95 320.49)" fill="#517D56"/>
<path d="M460.797 395.029L484.257 418.225L426.376 418.645L402.332 395.453L460.797 395.029Z" fill="#EFB854"/>
<path d="M460.782 389.189L484.094 365.654L426.214 366.074L402.317 389.613L460.782 389.189Z" fill="#EFB854"/>
<path d="M328.47 394.621L305.157 418.157L363.038 417.737L386.935 394.197L328.47 394.621Z" fill="#EFB854"/>
<path d="M328.454 388.772L304.995 365.576L362.876 365.156L386.92 388.348L328.454 388.772Z" fill="#EFB854"/>
<path d="M397.837 457.959L421.056 481.396L421.476 423.571L398.261 399.55L397.837 457.959Z" fill="#EFB854"/>
<path d="M391.992 457.947L368.434 481.237L368.854 423.412L392.415 399.538L391.992 457.947Z" fill="#EFB854"/>
<path d="M397.612 325.655L421.169 302.365L420.75 360.189L397.188 384.063L397.612 325.655Z" fill="#EFB854"/>
<path d="M391.758 325.635L368.54 302.198L368.12 360.023L391.335 384.044L391.758 325.635Z" fill="#EFB854"/>
<path d="M490.961 295.883L491.16 359.293L427.75 359.094L427.551 295.683L490.961 295.883Z" fill="#EFB854"/>
<path d="M490.883 424.049L491.08 486.685L428.443 486.488L428.246 423.852L490.883 424.049Z" fill="#EFB854"/>
<path d="M363.34 295.963L363.539 359.141L300.361 358.942L300.162 295.764L363.34 295.963Z" fill="#EFB854"/>
<path d="M362.982 423.764L363.181 486.951L299.994 486.752L299.795 423.565L362.982 423.764Z" fill="#EFB854"/>
<rect width="30.6228" height="30.6228" transform="matrix(0.00314504 0.999995 -0.999995 -0.00314504 348.014 311.217)" fill="#517D56"/>
<rect width="30.6452" height="30.6453" transform="matrix(0.00314504 0.999995 -0.999995 -0.00314504 346.652 439.982)" fill="#517D56"/>
<rect width="30.6228" height="30.6228" transform="matrix(0.00314504 0.999995 -0.999995 -0.00314504 473.758 439.488)" fill="#517D56"/>
<rect width="30.6228" height="30.6228" transform="matrix(0.00314504 0.999995 -0.999995 -0.00314504 474.619 312.281)" fill="#517D56"/>
<path d="M462.483 1090.35L485.943 1113.54L428.062 1113.96L404.018 1090.77L462.483 1090.35Z" fill="#EFB854"/>
<path d="M462.467 1084.51L485.78 1060.97L427.899 1061.39L404.002 1084.93L462.467 1084.51Z" fill="#EFB854"/>
<path d="M330.156 1089.94L306.843 1113.47L364.724 1113.05L388.621 1089.51L330.156 1089.94Z" fill="#EFB854"/>
<path d="M330.14 1084.09L306.68 1060.89L364.561 1060.47L388.605 1083.66L330.14 1084.09Z" fill="#EFB854"/>
<path d="M399.523 1153.28L422.742 1176.71L423.161 1118.89L399.947 1094.87L399.523 1153.28Z" fill="#EFB854"/>
<path d="M393.677 1153.26L370.12 1176.55L370.539 1118.73L394.101 1094.85L393.677 1153.26Z" fill="#EFB854"/>
<path d="M399.297 1020.97L422.855 997.681L422.435 1055.51L398.874 1079.38L399.297 1020.97Z" fill="#EFB854"/>
<path d="M393.444 1020.95L370.225 997.514L369.806 1055.34L393.02 1079.36L393.444 1020.95Z" fill="#EFB854"/>
<path d="M492.646 991.199L492.846 1054.61L429.436 1054.41L429.236 991L492.646 991.199Z" fill="#EFB854"/>
<path d="M492.568 1119.37L492.765 1182L430.129 1181.8L429.932 1119.17L492.568 1119.37Z" fill="#EFB854"/>
<path d="M365.025 991.279L365.224 1054.46L302.046 1054.26L301.848 991.081L365.025 991.279Z" fill="#EFB854"/>
<path d="M364.668 1119.08L364.867 1182.27L301.679 1182.07L301.48 1118.88L364.668 1119.08Z" fill="#EFB854"/>
<rect width="30.6228" height="30.6228" transform="matrix(0.00314504 0.999995 -0.999995 -0.00314504 349.699 1006.53)" fill="#517D56"/>
<rect width="30.6452" height="30.6453" transform="matrix(0.00314504 0.999995 -0.999995 -0.00314504 348.338 1135.3)" fill="#517D56"/>
<rect width="30.6228" height="30.6228" transform="matrix(0.00314504 0.999995 -0.999995 -0.00314504 475.443 1134.8)" fill="#517D56"/>
<rect width="30.6228" height="30.6228" transform="matrix(0.00314504 0.999995 -0.999995 -0.00314504 476.305 1007.6)" fill="#517D56"/>
<path d="M1151.09 1087.49L1174.55 1110.69L1116.67 1111.11L1092.63 1087.91L1151.09 1087.49Z" fill="#EFB854"/>
<path d="M1151.07 1081.65L1174.39 1058.11L1116.51 1058.53L1092.61 1082.07L1151.07 1081.65Z" fill="#EFB854"/>
<path d="M1018.76 1087.08L995.45 1110.62L1053.33 1110.2L1077.23 1086.66L1018.76 1087.08Z" fill="#EFB854"/>
<path d="M1018.75 1081.23L995.288 1058.04L1053.17 1057.62L1077.21 1080.81L1018.75 1081.23Z" fill="#EFB854"/>
<path d="M1088.13 1150.42L1111.35 1173.86L1111.77 1116.03L1088.55 1092.01L1088.13 1150.42Z" fill="#EFB854"/>
<path d="M1082.28 1150.41L1058.73 1173.7L1059.15 1115.87L1082.71 1092L1082.28 1150.41Z" fill="#EFB854"/>
<path d="M1087.9 1018.12L1111.46 994.826L1111.04 1052.65L1087.48 1076.52L1087.9 1018.12Z" fill="#EFB854"/>
<path d="M1082.05 1018.1L1058.83 994.659L1058.41 1052.48L1081.63 1076.5L1082.05 1018.1Z" fill="#EFB854"/>
<path d="M1181.25 988.344L1181.45 1051.75L1118.04 1051.55L1117.84 988.144L1181.25 988.344Z" fill="#EFB854"/>
<path d="M1181.18 1116.51L1181.37 1179.15L1118.74 1178.95L1118.54 1116.31L1181.18 1116.51Z" fill="#EFB854"/>
<path d="M1053.63 988.424L1053.83 1051.6L990.654 1051.4L990.455 988.225L1053.63 988.424Z" fill="#EFB854"/>
<path d="M1053.28 1116.22L1053.47 1179.41L990.287 1179.21L990.088 1116.03L1053.28 1116.22Z" fill="#EFB854"/>
<rect width="30.6228" height="30.6228" transform="matrix(0.00314504 0.999995 -0.999995 -0.00314504 1038.31 1003.68)" fill="#517D56"/>
<rect width="30.6452" height="30.6453" transform="matrix(0.00314504 0.999995 -0.999995 -0.00314504 1036.95 1132.44)" fill="#517D56"/>
<rect width="30.6228" height="30.6228" transform="matrix(0.00314504 0.999995 -0.999995 -0.00314504 1164.05 1131.95)" fill="#517D56"/>
<rect width="30.6228" height="30.6228" transform="matrix(0.00314504 0.999995 -0.999995 -0.00314504 1164.91 1004.74)" fill="#517D56"/>
<path d="M297.371 752.432C309.269 752.432 318.915 742.794 318.915 730.905C318.915 719.017 309.269 709.379 297.371 709.379C285.473 709.379 275.828 719.017 275.828 730.905C275.828 742.794 285.473 752.432 297.371 752.432Z" fill="#EFB854"/>
<path d="M743.293 1203.31C755.191 1203.31 764.837 1193.67 764.837 1181.79C764.837 1169.9 755.191 1160.26 743.293 1160.26C731.395 1160.26 721.75 1169.9 721.75 1181.79C721.75 1193.67 731.395 1203.31 743.293 1203.31Z" fill="#EFB854"/>
<path d="M1183.42 761.201C1195.31 761.201 1204.96 751.564 1204.96 739.675C1204.96 727.786 1195.31 718.148 1183.42 718.148C1171.52 718.148 1161.87 727.786 1161.87 739.675C1161.87 751.564 1171.52 761.201 1183.42 761.201Z" fill="#EFB854"/>
<path d="M738.727 317.508C750.625 317.508 760.27 307.87 760.27 295.981C760.27 284.093 750.625 274.455 738.727 274.455C726.829 274.455 717.184 284.093 717.184 295.981C717.184 307.87 726.829 317.508 738.727 317.508Z" fill="#EFB854"/>
<path d="M741.094 492.152C752.992 492.152 762.637 482.515 762.637 470.626C762.637 458.737 752.992 449.1 741.094 449.1C729.196 449.1 719.551 458.737 719.551 470.626C719.551 482.515 729.196 492.152 741.094 492.152Z" fill="#EFB854"/>
<path d="M298.938 603.027C310.836 603.027 320.481 593.39 320.481 581.501C320.481 569.612 310.836 559.975 298.938 559.975C287.04 559.975 277.395 569.612 277.395 581.501C277.395 593.39 287.04 603.027 298.938 603.027Z" fill="#EFB854"/>
<path d="M300.162 903.109C312.06 903.109 321.706 893.472 321.706 881.583C321.706 869.694 312.06 860.057 300.162 860.057C288.264 860.057 278.619 869.694 278.619 881.583C278.619 893.472 288.264 903.109 300.162 903.109Z" fill="#EFB854"/>
<path d="M466.524 756.766C478.422 756.766 488.067 747.128 488.067 735.239C488.067 723.351 478.422 713.713 466.524 713.713C454.626 713.713 444.98 723.351 444.98 735.239C444.98 747.128 454.626 756.766 466.524 756.766Z" fill="#EFB854"/>
<path d="M1014.66 756.766C1026.56 756.766 1036.21 747.128 1036.21 735.239C1036.21 723.351 1026.56 713.713 1014.66 713.713C1002.77 713.713 993.121 723.351 993.121 735.239C993.121 747.128 1002.77 756.766 1014.66 756.766Z" fill="#EFB854"/>
<path d="M1184.41 610.533C1196.3 610.533 1205.95 600.896 1205.95 589.007C1205.95 577.118 1196.3 567.48 1184.41 567.48C1172.51 567.48 1162.86 577.118 1162.86 589.007C1162.86 600.896 1172.51 610.533 1184.41 610.533Z" fill="#EFB854"/>
<path d="M1184.41 911.869C1196.3 911.869 1205.95 902.232 1205.95 890.343C1205.95 878.454 1196.3 868.816 1184.41 868.816C1172.51 868.816 1162.86 878.454 1162.86 890.343C1162.86 902.232 1172.51 911.869 1184.41 911.869Z" fill="#EFB854"/>
<path d="M741.094 1038.53C752.992 1038.53 762.637 1028.89 762.637 1017C762.637 1005.11 752.992 995.477 741.094 995.477C729.196 995.477 719.551 1005.11 719.551 1017C719.551 1028.89 729.196 1038.53 741.094 1038.53Z" fill="#EFB854"/>
<path d="M584.172 1198.15C596.07 1198.15 605.716 1188.51 605.716 1176.63C605.716 1164.74 596.07 1155.1 584.172 1155.1C572.274 1155.1 562.629 1164.74 562.629 1176.63C562.629 1188.51 572.274 1198.15 584.172 1198.15Z" fill="#EFB854"/>
<path d="M892.36 1202.94C904.258 1202.94 913.903 1193.31 913.903 1181.42C913.903 1169.53 904.258 1159.89 892.36 1159.89C880.462 1159.89 870.816 1169.53 870.816 1181.42C870.816 1193.31 880.462 1202.94 892.36 1202.94Z" fill="#EFB854"/>
<path d="M590.28 317.508C602.178 317.508 611.823 307.87 611.823 295.981C611.823 284.093 602.178 274.455 590.28 274.455C578.382 274.455 568.736 284.093 568.736 295.981C568.736 307.87 578.382 317.508 590.28 317.508Z" fill="#EFB854"/>
<path d="M896.678 317.508C908.576 317.508 918.221 307.87 918.221 295.981C918.221 284.093 908.576 274.455 896.678 274.455C884.78 274.455 875.135 284.093 875.135 295.981C875.135 307.87 884.78 317.508 896.678 317.508Z" fill="#EFB854"/>
<path d="M228.637 249.418C240.535 249.418 250.18 239.78 250.18 227.892C250.18 216.003 240.535 206.365 228.637 206.365C216.739 206.365 207.094 216.003 207.094 227.892C207.094 239.78 216.739 249.418 228.637 249.418Z" fill="#EFB854"/>
<path d="M1258.32 249.418C1270.22 249.418 1279.86 239.78 1279.86 227.892C1279.86 216.003 1270.22 206.365 1258.32 206.365C1246.42 206.365 1236.78 216.003 1236.78 227.892C1236.78 239.78 1246.42 249.418 1258.32 249.418Z" fill="#EFB854"/>
<path d="M1254.77 1264.03C1266.67 1264.03 1276.32 1254.4 1276.32 1242.51C1276.32 1230.62 1266.67 1220.98 1254.77 1220.98C1242.88 1220.98 1233.23 1230.62 1233.23 1242.51C1233.23 1254.4 1242.88 1264.03 1254.77 1264.03Z" fill="#EFB854"/>
<path d="M230.344 1282.7C242.242 1282.7 251.887 1273.06 251.887 1261.17C251.887 1249.28 242.242 1239.64 230.344 1239.64C218.446 1239.64 208.801 1249.28 208.801 1261.17C208.801 1273.06 218.446 1282.7 230.344 1282.7Z" fill="#EFB854"/>
<path d="M22.0941 756.766C33.9921 756.766 43.6374 747.128 43.6374 735.239C43.6374 723.351 33.9921 713.713 22.0941 713.713C10.196 713.713 0.550781 723.351 0.550781 735.239C0.550781 747.128 10.196 756.766 22.0941 756.766Z" fill="#EFB854"/>
<path d="M1465.02 758.922C1476.91 758.922 1486.56 749.284 1486.56 737.396C1486.56 725.507 1476.91 715.869 1465.02 715.869C1453.12 715.869 1443.47 725.507 1443.47 737.396C1443.47 749.284 1453.12 758.922 1465.02 758.922Z" fill="#EFB854"/>
<path d="M743.479 43.2716C755.377 43.2716 765.022 33.6339 765.022 21.7451C765.022 9.85641 755.377 0.21875 743.479 0.21875C731.581 0.21875 721.936 9.85641 721.936 21.7451C721.936 33.6339 731.581 43.2716 743.479 43.2716Z" fill="#EFB854"/>
<path d="M743.479 1485.22C755.377 1485.22 765.022 1475.59 765.022 1463.7C765.022 1451.81 755.377 1442.17 743.479 1442.17C731.581 1442.17 721.936 1451.81 721.936 1463.7C721.936 1475.59 731.581 1485.22 743.479 1485.22Z" fill="#EFB854"/>
</svg>
