<svg width="464" height="26" viewBox="0 0 464 26" fill="none" xmlns="http://www.w3.org/2000/svg">
<path d="M463.609 13.2487C463.282 12.7869 462.409 11.7214 460.846 11.1175C459.682 10.6558 458.664 10.6558 458.082 10.7268C458.155 10.4427 458.41 9.48366 457.937 8.45361C457.173 6.85526 455.319 6.57111 455.173 6.57111C455.355 6.1804 455.864 4.75965 455.319 3.09025C454.628 0.994633 452.737 0.142172 452.446 9.77627e-05C451.864 2.73506 450.592 4.08479 449.828 4.68861C449.064 5.32795 448.228 5.68315 446.519 6.42905C443.21 7.88533 442.701 7.56564 441.719 8.45361C440.265 9.7323 439.61 12.0055 440.083 13.9591C440.774 16.8361 443.719 18.1503 444.883 18.6476C446.373 19.3224 446.81 19.0738 447.901 19.5711C449.355 20.2815 451.028 21.8798 452.01 26C452.519 25.6448 453.901 24.6148 454.591 22.7322C455.101 21.347 454.991 20.1749 454.882 19.5355C455.028 19.5711 456.264 19.7131 457.064 18.8607C457.864 18.0438 457.9 16.5875 457.064 15.5219C457.828 15.5574 459.137 15.5219 460.628 14.9891C462.119 14.4563 463.064 13.7104 463.609 13.2487Z" fill="#ECE1CF"/>
<circle r="3.71427" transform="matrix(4.37114e-08 1 1 -4.37114e-08 429.714 12.9994)" fill="#ECE1CF"/>
<line x1="-4.37114e-08" y1="12.5" x2="406" y2="12.5" stroke="#ECE1CF"/>
</svg>
