<svg width="1440" height="1025" viewBox="0 0 1440 1025" fill="none" xmlns="http://www.w3.org/2000/svg">
<g clip-path="url(#clip0_254_725)">
<rect width="1440" height="1025" fill="#101010"/>
<path d="M902.946 532.878C900.648 526.725 895.37 522.75 889.5 522.75C883.63 522.75 878.352 526.725 876.054 532.878C875.982 533.07 875.982 533.288 876.054 533.48C878.351 539.633 883.629 543.609 889.5 543.609C895.371 543.609 900.649 539.633 902.946 533.48C903.018 533.288 903.018 533.07 902.946 532.878ZM889.5 542.07C884.269 542.07 879.557 538.591 877.414 533.179C879.557 527.768 884.269 524.29 889.5 524.29C894.731 524.29 899.443 527.768 901.586 533.179C899.443 538.591 894.731 542.07 889.5 542.07Z" fill="black"/>
<path d="M889.501 527.283C886.647 527.283 884.324 529.928 884.324 533.179C884.324 536.431 886.647 539.076 889.501 539.076C892.356 539.076 894.678 536.431 894.678 533.179C894.678 529.928 892.356 527.283 889.501 527.283ZM889.501 537.536C887.392 537.536 885.676 535.582 885.676 533.18C885.676 530.777 887.392 528.823 889.501 528.823C891.611 528.823 893.327 530.777 893.327 533.18C893.327 535.582 891.611 537.536 889.501 537.536Z" fill="black"/>
<path d="M889.499 530.049C887.983 530.049 886.75 531.453 886.75 533.18C886.75 533.605 887.053 533.949 887.426 533.949C887.799 533.949 888.102 533.605 888.102 533.18C888.102 532.302 888.728 531.589 889.499 531.589C889.872 531.589 890.175 531.244 890.175 530.819C890.175 530.394 889.872 530.049 889.499 530.049Z" fill="black"/>
<path d="M344.037 477.133C311.192 421.834 264.49 399.422 250.022 392.689C249.055 408.205 246.628 460.552 279.182 515.236C287.384 529.441 316.814 574.302 373.197 599.68C374.454 584.78 376.881 532.432 344.037 477.133Z" fill="#517D56"/>
<path d="M383.802 318.019C388.273 287.973 377.858 265.835 374.569 259.053C369.586 264.446 353.082 282.89 348.688 312.624C347.454 320.272 344.847 345.478 357.921 371.59C362.827 366.51 379.331 348.066 383.802 318.019Z" fill="#517D56"/>
<path d="M1155.79 523.23C1167.69 546.664 1186.13 557.063 1191.85 560.199C1192.66 553.898 1195.06 532.619 1183.26 509.443C1180.3 503.429 1169.51 484.343 1147.21 472.474C1146.29 478.516 1143.89 499.795 1155.79 523.23Z" fill="#517D56"/>
<path d="M177.013 618.062C171.088 628.579 158.484 655.114 161.078 690.77C162.769 717.417 172.041 737.054 178.709 747.628C172.567 748.813 151.752 752.638 136.191 771.135C112.318 800.419 123.726 838.774 125.051 841.579C115.859 841.631 83.8215 844.751 56.5915 870.473C22.4655 902.883 23.2439 947.114 23.1529 954.019C81.1999 940.333 118.822 952.588 137.422 961.816C156.707 970.722 171.174 983.617 201.124 1009.79C259.345 1060.34 257.815 1073.07 283.882 1083.92C321.79 1100.33 371.594 1092.25 404.966 1065.35C454.163 1025.82 452.688 957.046 451.681 930.075C451.12 895.175 442.351 889.023 442.008 863.455C442.463 828.933 458.057 782.116 528.581 725.659C517.095 719.075 484.645 701.806 442.046 705.624C410.693 708.421 389.079 721.199 377.742 729.125C377.102 725.996 368.584 700.858 344.858 693.192C321.816 685.202 293.398 697.763 280.463 723.597C274.194 708.546 261.588 683.622 237.735 659.72C213.882 635.818 190.886 624.376 177.013 618.062Z" fill="#E594A9"/>
<path d="M230.919 1086.66C156.631 1066.06 116.026 1019.08 103.689 1004.47C121.332 998.468 181.118 979.205 254.602 999.667C273.611 1004.69 334.752 1024.63 381.832 1081.86C364.993 1088 305.207 1107.27 230.919 1086.66Z" fill="#517D56"/>
<path d="M397.172 917.766C437.424 840.211 499.027 806.187 518.126 795.929C520.644 816.899 528.001 887.711 488.095 964.408C478.073 984.313 441.642 1047.44 367.14 1086.25C364.277 1066.13 356.92 995.321 397.172 917.766Z" fill="#517D56"/>
<path d="M1452.4 500.541C1458.95 512.878 1472.75 543.936 1468.72 585.101C1465.98 615.873 1454.69 638.316 1446.67 650.352C1453.74 651.901 1477.7 656.931 1495.16 678.779C1521.92 713.344 1507.61 757.375 1505.99 760.581C1516.62 760.908 1553.59 765.45 1584.33 795.994C1622.86 834.474 1620.67 885.611 1620.58 893.599C1553.84 876.08 1509.97 889.158 1488.18 899.29C1465.62 909.029 1448.51 923.523 1413.11 952.919C1344.29 1009.7 1345.69 1024.47 1315.23 1036.26C1270.9 1054.13 1213.54 1043.34 1175.72 1011.24C1119.97 964.095 1123.68 884.591 1125.63 853.425C1127.29 813.075 1137.61 806.215 1138.76 776.652C1139.23 736.71 1122.56 682.106 1042.64 614.752C1056.11 607.472 1094.15 588.442 1143.31 594.1C1179.49 598.247 1204.12 613.656 1217 623.154C1217.83 619.554 1228.41 590.726 1256.08 582.55C1282.96 573.981 1315.47 589.336 1329.68 619.594C1337.37 602.368 1352.67 573.907 1380.96 546.956C1409.24 520.005 1436.17 507.441 1452.4 500.541Z" fill="#EFB852"/>
<path d="M1376.83 1040.94C1463.36 1019.27 1511.69 966.118 1526.39 949.571C1506.15 942.121 1437.57 918.1 1351.98 939.627C1329.84 944.881 1258.54 966.16 1202.42 1030.99C1221.72 1038.58 1290.31 1062.6 1376.83 1040.94Z" fill="#517D56"/>
<path d="M1182.15 872.196C1145.76 790.764 1085.01 752.42 1066.15 740.829C1062.34 762.048 1050.62 833.772 1086.72 914.308C1095.74 935.189 1129.11 1001.7 1202.72 1045.67C1206.83 1025.35 1218.55 953.628 1182.15 872.196Z" fill="#517D56"/>
</g>
<defs>
<clipPath id="clip0_254_725">
<rect width="1440" height="1025" fill="white"/>
</clipPath>
</defs>
</svg>
