<svg width="456" height="26" viewBox="0 0 456 26" fill="none" xmlns="http://www.w3.org/2000/svg">
<path d="M455.609 13.2487C455.282 12.7869 454.409 11.7214 452.846 11.1175C451.682 10.6558 450.664 10.6558 450.082 10.7268C450.155 10.4427 450.41 9.48366 449.937 8.45361C449.173 6.85526 447.319 6.57111 447.173 6.57111C447.355 6.1804 447.864 4.75965 447.319 3.09025C446.628 0.994633 444.737 0.142172 444.446 9.77627e-05C443.864 2.73506 442.592 4.08479 441.828 4.68861C441.064 5.32795 440.228 5.68315 438.519 6.42905C435.21 7.88533 434.701 7.56564 433.719 8.45361C432.265 9.7323 431.61 12.0055 432.083 13.9591C432.774 16.8361 435.719 18.1503 436.883 18.6476C438.373 19.3224 438.81 19.0738 439.901 19.5711C441.355 20.2815 443.028 21.8798 444.01 26C444.519 25.6448 445.901 24.6148 446.591 22.7322C447.101 21.347 446.991 20.1749 446.882 19.5355C447.028 19.5711 448.264 19.7131 449.064 18.8607C449.864 18.0438 449.9 16.5875 449.064 15.5219C449.828 15.5574 451.137 15.5219 452.628 14.9891C454.119 14.4563 455.064 13.7104 455.609 13.2487Z" fill="#ECE1CF"/>
<circle r="3.71427" transform="matrix(4.37114e-08 1 1 -4.37114e-08 421.714 13.0004)" fill="#ECE1CF"/>
<line y1="12.5" x2="398" y2="12.5" stroke="#ECE1CF"/>
</svg>
