<svg width="576" height="27" viewBox="0 0 576 27" fill="none" xmlns="http://www.w3.org/2000/svg">
<path d="M5.57378e-07 13.5534C0.327265 13.0916 1.19997 12.026 2.76357 11.4222C3.92717 10.9605 4.94533 10.9605 5.52713 11.0315C5.45441 10.7474 5.19987 9.78835 5.67258 8.7583C6.4362 7.15995 8.2907 6.8758 8.43615 6.8758C8.25433 6.48509 7.74526 5.06433 8.2907 3.39494C8.98159 1.29932 10.8724 0.44686 11.1633 0.304784C11.7451 3.03975 13.0178 4.38947 13.7815 4.9933C14.5451 5.63264 15.3814 5.98784 17.0905 6.73374C20.3995 8.19001 20.9085 7.87033 21.8903 8.7583C23.3448 10.037 23.9994 12.3102 23.5266 14.2637C22.8358 17.1408 19.8904 18.455 18.7268 18.9523C17.2359 19.6271 16.7996 19.3785 15.7087 19.8758C14.2542 20.5861 12.5815 22.1845 11.5997 26.3047C11.0906 25.9495 9.70884 24.9194 9.01795 23.0369C8.50887 21.6517 8.61795 20.4796 8.72704 19.8402C8.58159 19.8757 7.34526 20.0178 6.54528 19.1654C5.7453 18.3484 5.70894 16.8922 6.54528 15.8266C5.78167 15.8621 4.47261 15.8266 2.98174 15.2938C1.49087 14.761 0.545441 14.0151 5.57378e-07 13.5534Z" fill="#ECE1CF"/>
<circle cx="33.8951" cy="13.3041" r="3.71427" transform="rotate(90 33.8951 13.3041)" fill="#ECE1CF"/>
<line x1="57" y1="12.8047" x2="576" y2="12.8047" stroke="#ECE1CF"/>
</svg>
