<svg width="145" height="146" viewBox="0 0 145 146" fill="none" xmlns="http://www.w3.org/2000/svg">
<path d="M107.987 73.7212C106.925 75.0579 104.121 78.1233 99.3109 79.6837C95.7296 80.8822 92.6627 80.7139 90.922 80.4037C91.0941 81.2716 91.7022 84.2025 90.1081 87.227C87.5437 91.9153 81.9107 92.4646 81.4726 92.4406C81.9556 93.6475 83.2542 98.0112 81.3353 102.95C78.9078 109.148 73.0713 111.403 72.1716 111.783C70.8712 103.448 67.2607 99.1724 65.0604 97.2274C62.866 95.1754 60.4055 93.9672 55.3808 91.4379C45.6543 86.5044 44.068 87.3832 41.2575 84.5461C37.0876 80.4541 35.4919 73.4986 37.2387 67.6923C39.7954 59.1404 48.8845 55.6687 52.4717 54.3632C57.074 52.5768 58.3473 53.3978 61.7154 52.0803C66.2141 50.181 71.5167 45.643 75.1551 33.3945C76.6298 34.5486 80.6217 37.8797 82.3916 43.6643C83.696 47.9211 83.1737 51.4337 82.7394 53.3414C83.1834 53.2585 86.9309 53.0349 89.1997 55.7349C91.4743 58.3278 91.3431 62.7204 88.6478 65.7919C90.9538 65.8111 94.891 66.1345 99.2937 67.9858C103.696 69.8371 106.421 72.2401 107.987 73.7212Z" fill="#EFB852"/>
<path d="M43.6755 91.9266C50.334 100.561 58.6521 103.378 61.2246 104.215C61.0701 101.584 60.4078 92.7248 53.8108 84.1877C52.1399 81.9648 46.2696 75.0169 36.2618 71.8991C36.3548 74.4323 37.0171 83.2918 43.6755 91.9266Z" fill="#2D517F"/>
<path d="M54.9414 61.8559C62.5454 54.041 64.1547 45.4077 64.6191 42.7425C62.0365 43.2683 53.3603 45.1795 45.8444 52.9197C43.8807 54.8888 37.8348 61.6844 36.1667 72.0331C38.6612 71.582 47.3374 69.6709 54.9414 61.8559Z" fill="#2D517F"/>
</svg>
