<svg width="772" height="768" viewBox="0 0 772 768" fill="none" xmlns="http://www.w3.org/2000/svg">
<path d="M368.085 192.555C361.238 198.698 345.655 214.771 338.812 241.141C333.52 260.788 335.414 277.228 337.643 286.491C332.919 285.845 316.961 283.518 301.208 293.066C276.819 308.368 275.679 338.841 275.95 341.19C269.303 338.981 245.415 333.403 219.474 345.314C186.921 360.367 176.673 392.483 174.919 397.445C220.162 401.753 244.323 419.793 255.493 431.001C267.236 442.142 274.527 454.986 289.749 481.195C319.416 531.917 315.201 540.731 331.365 554.933C354.716 576.041 392.639 582.383 423.303 571.117C468.474 554.611 484.217 504.609 490.083 484.896C498.208 459.568 493.382 452.984 499.383 434.445C508.148 409.639 530.846 379.658 595.549 356.143C588.867 348.584 569.666 328.188 537.984 320.532C514.67 314.888 495.947 318.829 485.826 321.779C486.129 319.365 486.125 299.138 470.873 287.806C456.194 276.407 432.612 278.528 416.961 294.014C416.115 281.618 413.107 260.547 401.732 237.465C390.357 214.382 376.555 200.504 368.085 192.555Z" fill="#EFB852"/>
<path d="M292.209 543.848C243.624 510.819 225.796 466.99 220.464 453.424C234.664 453.407 282.525 454.115 330.565 486.845C343.059 495.115 382.318 524.448 402.311 577.269C388.656 577.584 340.794 576.877 292.209 543.848Z" fill="#2D517F"/>
<path d="M475.721 453.836C517.399 412.43 563.821 403.277 578.155 400.625C575.466 414.569 565.656 461.42 524.376 502.346C513.877 513.036 477.604 545.99 421.943 555.556C424.233 542.092 434.044 495.241 475.721 453.836Z" fill="#517D56"/>
</svg>
