<svg width="147" height="147" viewBox="0 0 147 147" fill="none" xmlns="http://www.w3.org/2000/svg">
<path d="M37.4658 72.2122C38.4387 73.6152 41.0383 76.8566 45.7362 78.7265C49.232 80.1554 52.3034 80.1869 54.0606 79.9906C53.8324 80.8455 53.0349 83.7306 54.429 86.8524C56.683 91.6976 62.2684 92.6121 62.7072 92.6166C62.1466 93.7896 60.567 98.0596 62.1607 103.112C64.1799 109.455 69.8574 112.085 70.7305 112.523C72.5703 104.291 76.4512 100.259 78.7734 98.4608C81.0966 96.5558 83.6305 95.5102 88.8091 93.3131C98.8359 89.0225 100.362 90.0027 103.351 87.3544C107.778 83.5422 109.823 76.7052 108.457 70.7976C106.462 62.0974 97.6181 58.0419 94.1234 56.5058C89.647 54.4239 88.323 55.1604 85.0477 53.6266C80.682 51.4387 75.6857 46.5654 72.8516 34.1061C71.305 35.1618 67.1049 38.2263 64.9625 43.8836C63.384 48.0465 63.6767 51.5857 63.986 53.5177C63.5484 53.406 59.8233 52.9391 57.3837 55.4858C54.9452 57.9254 54.7905 62.3173 57.2804 65.5575C54.978 65.4267 51.028 65.4933 46.5142 67.0544C42.0004 68.6154 39.1254 70.8362 37.4658 72.2122Z" fill="#D84E00"/>
<path d="M100.459 94.562C93.2531 102.745 84.7693 105.015 82.1478 105.683C82.4731 103.068 83.7102 94.2703 90.8485 86.1803C92.6604 84.0707 98.9702 77.5193 109.16 75.059C108.902 77.5808 107.665 86.3785 100.459 94.562Z" fill="#2D517F"/>
<path d="M91.1711 63.8222C84.0915 55.5292 83.0471 46.8095 82.7571 44.1197C85.3 44.8124 93.8335 47.2838 100.83 55.4965C102.662 57.5891 108.253 64.7637 109.244 75.199C106.784 74.5866 98.2508 72.1152 91.1711 63.8222Z" fill="#2D517F"/>
</svg>
