<svg width="431" height="27" viewBox="0 0 431 27" fill="none" xmlns="http://www.w3.org/2000/svg">
<path d="M5.57378e-07 13.2614C0.327265 12.7996 1.19997 11.7341 2.76357 11.1302C3.92717 10.6685 4.94533 10.6685 5.52713 10.7395C5.45441 10.4554 5.19987 9.49636 5.67258 8.46631C6.4362 6.86795 8.2907 6.5838 8.43615 6.5838C8.25433 6.19309 7.74526 4.77234 8.2907 3.10295C8.98159 1.00733 10.8724 0.154868 11.1633 0.0127931C11.7451 2.74775 13.0178 4.09748 13.7815 4.7013C14.5451 5.34065 15.3814 5.69584 17.0905 6.44174C20.3995 7.89802 20.9085 7.57833 21.8903 8.46631C23.3448 9.74499 23.9994 12.0182 23.5266 13.9718C22.8358 16.8488 19.8904 18.163 18.7268 18.6603C17.2359 19.3351 16.7996 19.0865 15.7087 19.5838C14.2542 20.2941 12.5815 21.8925 11.5997 26.0127C11.0906 25.6575 9.70884 24.6275 9.01795 22.7449C8.50887 21.3597 8.61795 20.1876 8.72704 19.5482C8.58159 19.5838 7.34526 19.7258 6.54528 18.8734C5.7453 18.0565 5.70894 16.6002 6.54528 15.5346C5.78167 15.5701 4.47261 15.5346 2.98174 15.0018C1.49087 14.469 0.545441 13.7231 5.57378e-07 13.2614Z" fill="#ECE1CF"/>
<circle cx="33.8951" cy="13.0131" r="3.71427" transform="rotate(90 33.8951 13.0131)" fill="#ECE1CF"/>
<line x1="58" y1="12.5" x2="431" y2="12.5" stroke="#ECE1CF"/>
</svg>
