<svg width="39" height="26" viewBox="0 0 39 26" fill="none" xmlns="http://www.w3.org/2000/svg">
<path d="M38.2187 13.2487C37.8915 12.7869 37.0188 11.7214 35.4552 11.1175C34.2916 10.6558 33.2734 10.6558 32.6916 10.7268C32.7643 10.4427 33.0189 9.48366 32.5462 8.45361C31.7826 6.85526 29.9281 6.57111 29.7826 6.57111C29.9644 6.1804 30.4735 4.75965 29.9281 3.09025C29.2372 0.994633 27.3463 0.142172 27.0554 9.77627e-05C26.4736 2.73506 25.2009 4.08479 24.4373 4.68861C23.6737 5.32795 22.8373 5.68315 21.1283 6.42905C17.8193 7.88533 17.3102 7.56564 16.3284 8.45361C14.8739 9.7323 14.2194 12.0055 14.6921 13.9591C15.383 16.8361 18.3284 18.1503 19.492 18.6476C20.9828 19.3224 21.4192 19.0738 22.5101 19.5711C23.9646 20.2815 25.6373 21.8798 26.6191 26C27.1281 25.6448 28.5099 24.6148 29.2008 22.7322C29.7099 21.347 29.6008 20.1749 29.4917 19.5355C29.6372 19.5711 30.8735 19.7131 31.6735 18.8607C32.4734 18.0438 32.5098 16.5875 31.6735 15.5219C32.4371 15.5574 33.7461 15.5219 35.237 14.9891C36.7279 14.4563 37.6733 13.7104 38.2187 13.2487Z" fill="#ECE1CF"/>
<circle r="3.71427" transform="matrix(4.37114e-08 1 1 -4.37114e-08 4.32365 13.0004)" fill="#ECE1CF"/>
</svg>
