<svg width="430" height="26" viewBox="0 0 430 26" fill="none" xmlns="http://www.w3.org/2000/svg">
<path d="M429.609 13.2487C429.282 12.7869 428.409 11.7214 426.846 11.1175C425.682 10.6558 424.664 10.6558 424.082 10.7268C424.155 10.4427 424.41 9.48366 423.937 8.45361C423.173 6.85526 421.319 6.57111 421.173 6.57111C421.355 6.1804 421.864 4.75965 421.319 3.09025C420.628 0.994633 418.737 0.142172 418.446 9.77627e-05C417.864 2.73506 416.592 4.08479 415.828 4.68861C415.064 5.32795 414.228 5.68315 412.519 6.42905C409.21 7.88533 408.701 7.56564 407.719 8.45361C406.265 9.7323 405.61 12.0055 406.083 13.9591C406.774 16.8361 409.719 18.1503 410.883 18.6476C412.373 19.3224 412.81 19.0738 413.901 19.5711C415.355 20.2815 417.028 21.8798 418.01 26C418.519 25.6448 419.901 24.6148 420.591 22.7322C421.101 21.347 420.991 20.1749 420.882 19.5355C421.028 19.5711 422.264 19.7131 423.064 18.8607C423.864 18.0438 423.9 16.5875 423.064 15.5219C423.828 15.5574 425.137 15.5219 426.628 14.9891C428.119 14.4563 429.064 13.7104 429.609 13.2487Z" fill="#ECE1CF"/>
<circle r="3.71427" transform="matrix(4.37114e-08 1 1 -4.37114e-08 395.714 13.0004)" fill="#ECE1CF"/>
<line y1="12.5" x2="372" y2="12.5" stroke="#ECE1CF"/>
</svg>
