<svg width="431" height="27" viewBox="0 0 431 27" fill="none" xmlns="http://www.w3.org/2000/svg">
<path d="M430.609 13.2614C430.282 12.7996 429.409 11.7341 427.846 11.1302C426.682 10.6685 425.664 10.6685 425.082 10.7395C425.155 10.4554 425.41 9.49636 424.937 8.46631C424.173 6.86795 422.319 6.5838 422.173 6.5838C422.355 6.19309 422.864 4.77234 422.319 3.10295C421.628 1.00733 419.737 0.154868 419.446 0.0127931C418.864 2.74775 417.592 4.09748 416.828 4.7013C416.064 5.34065 415.228 5.69584 413.519 6.44174C410.21 7.89802 409.701 7.57833 408.719 8.46631C407.265 9.74499 406.61 12.0182 407.083 13.9718C407.774 16.8488 410.719 18.163 411.883 18.6603C413.373 19.3351 413.81 19.0865 414.901 19.5838C416.355 20.2941 418.028 21.8925 419.01 26.0127C419.519 25.6575 420.901 24.6275 421.591 22.7449C422.101 21.3597 421.991 20.1876 421.882 19.5482C422.028 19.5838 423.264 19.7258 424.064 18.8734C424.864 18.0565 424.9 16.6002 424.064 15.5346C424.828 15.5701 426.137 15.5346 427.628 15.0018C429.119 14.469 430.064 13.7231 430.609 13.2614Z" fill="#ECE1CF"/>
<circle r="3.71427" transform="matrix(4.37114e-08 1 1 -4.37114e-08 396.714 13.0131)" fill="#ECE1CF"/>
<line x1="-4.37114e-08" y1="12.5" x2="373" y2="12.5" stroke="#ECE1CF"/>
</svg>
