<svg width="772" height="768" viewBox="0 0 772 768" fill="none" xmlns="http://www.w3.org/2000/svg">
<path d="M403.832 192.404C410.679 198.547 426.262 214.62 433.105 240.99C438.397 260.637 436.503 277.077 434.274 286.34C438.998 285.694 454.956 283.367 470.709 292.915C495.098 308.218 496.238 338.69 495.967 341.039C502.614 338.83 526.502 333.252 552.443 345.163C584.996 360.216 595.244 392.332 596.998 397.294C551.754 401.602 527.594 419.643 516.424 430.85C504.681 441.991 497.39 454.835 482.168 481.044C452.501 531.766 456.716 540.58 440.552 554.782C417.201 575.89 379.278 582.232 348.614 570.966C303.443 554.46 287.7 504.458 281.834 484.745C273.709 459.417 278.535 452.833 272.534 434.294C263.769 409.488 241.071 379.507 176.368 355.992C183.05 348.433 202.251 328.037 233.933 320.381C257.247 314.737 275.97 318.678 286.091 321.629C285.788 319.214 285.792 298.987 301.044 287.655C315.723 276.257 339.305 278.377 354.956 293.863C355.802 281.467 358.81 260.396 370.185 237.314C381.56 214.232 395.362 200.353 403.832 192.404Z" fill="#EFB852"/>
<path d="M479.708 543.697C528.293 510.668 546.121 466.839 551.453 453.273C537.253 453.257 489.392 453.964 441.352 486.694C428.858 494.964 389.599 524.297 369.606 577.118C383.261 577.433 431.123 576.726 479.708 543.697Z" fill="#2D517F"/>
<path d="M296.196 453.685C254.518 412.28 208.096 403.126 193.762 400.475C196.451 414.418 206.261 461.269 247.541 502.195C258.04 512.885 294.313 545.839 349.974 555.406C347.684 541.941 337.873 495.09 296.196 453.685Z" fill="#517D56"/>
</svg>
