<svg width="38" height="26" viewBox="0 0 38 26" fill="none" xmlns="http://www.w3.org/2000/svg">
<path d="M5.57378e-07 13.2487C0.327265 12.7869 1.19997 11.7214 2.76357 11.1175C3.92717 10.6558 4.94533 10.6558 5.52713 10.7268C5.45441 10.4427 5.19987 9.48366 5.67258 8.45361C6.4362 6.85526 8.2907 6.57111 8.43615 6.57111C8.25433 6.1804 7.74526 4.75965 8.2907 3.09025C8.98159 0.994633 10.8724 0.142172 11.1633 9.77627e-05C11.7451 2.73506 13.0178 4.08479 13.7815 4.68861C14.5451 5.32795 15.3814 5.68315 17.0905 6.42905C20.3995 7.88533 20.9085 7.56564 21.8903 8.45361C23.3448 9.7323 23.9994 12.0055 23.5266 13.9591C22.8358 16.8361 19.8904 18.1503 18.7268 18.6476C17.2359 19.3224 16.7996 19.0738 15.7087 19.5711C14.2542 20.2815 12.5815 21.8798 11.5997 26C11.0906 25.6448 9.70884 24.6148 9.01795 22.7322C8.50887 21.347 8.61795 20.1749 8.72704 19.5355C8.58159 19.5711 7.34526 19.7131 6.54528 18.8607C5.7453 18.0438 5.70894 16.5875 6.54528 15.5219C5.78167 15.5574 4.47261 15.5219 2.98174 14.9891C1.49087 14.4563 0.545441 13.7104 5.57378e-07 13.2487Z" fill="#ECE1CF"/>
<circle cx="33.8951" cy="13.0004" r="3.71427" transform="rotate(90 33.8951 13.0004)" fill="#ECE1CF"/>
</svg>
