<svg width="577" height="27" viewBox="0 0 577 27" fill="none" xmlns="http://www.w3.org/2000/svg">
<path d="M576.609 13.5534C576.282 13.0916 575.409 12.026 573.846 11.4222C572.682 10.9605 571.664 10.9605 571.082 11.0315C571.155 10.7474 571.41 9.78835 570.937 8.7583C570.173 7.15994 568.319 6.8758 568.173 6.8758C568.355 6.48509 568.864 5.06433 568.319 3.39494C567.628 1.29932 565.737 0.44686 565.446 0.304785C564.864 3.03975 563.592 4.38947 562.828 4.9933C562.064 5.63264 561.228 5.98784 559.519 6.73373C556.21 8.19001 555.701 7.87033 554.719 8.7583C553.265 10.037 552.61 12.3102 553.083 14.2637C553.774 17.1408 556.719 18.455 557.883 18.9523C559.373 19.6271 559.81 19.3785 560.901 19.8758C562.355 20.5861 564.028 22.1845 565.01 26.3047C565.519 25.9495 566.901 24.9194 567.591 23.0369C568.101 21.6517 567.991 20.4796 567.882 19.8402C568.028 19.8757 569.264 20.0178 570.064 19.1654C570.864 18.3484 570.9 16.8922 570.064 15.8266C570.828 15.8621 572.137 15.8266 573.628 15.2938C575.119 14.761 576.064 14.0151 576.609 13.5534Z" fill="#ECE1CF"/>
<circle r="3.71427" transform="matrix(4.37114e-08 1 1 -4.37114e-08 542.714 13.3041)" fill="#ECE1CF"/>
<line x1="4.37114e-08" y1="12.8047" x2="519" y2="12.8047" stroke="#ECE1CF"/>
</svg>
