<svg width="152" height="21" viewBox="0 0 152 21" fill="none" xmlns="http://www.w3.org/2000/svg">
<path d="M20.6181 0.0107422L14.4489 10.1171L20.6181 20.2235H15.0983L10.5526 12.7679H4.93536V20.2235H0V0.0107422H4.93536V7.46625H10.5526L15.0983 0.0107422H20.6181Z" fill="#ECE1CF"/>
<path d="M63.8464 0.0107422H68.8791V20.2235H63.8464V12.7348H53.1964V20.2235H48.2286V0.0107422H53.1964V7.46625H63.8464V0.0107422Z" fill="#ECE1CF"/>
<path d="M47.3333 10.1171C47.3333 15.6987 40.7668 20.2235 32.6666 20.2235C24.5665 20.2235 18 15.6987 18 10.1171C18 4.53551 24.5665 0.0107422 32.6666 0.0107422C40.7668 0.0107422 47.3333 4.53551 47.3333 10.1171Z" fill="#ECE1CF"/>
<path d="M35.9948 10.1171C35.9948 15.6987 34.5024 20.2235 32.6614 20.2235C30.8205 20.2235 29.3281 15.6987 29.3281 10.1171C29.3281 4.53551 30.8205 0.0107422 32.6614 0.0107422C34.5024 0.0107422 35.9948 4.53551 35.9948 10.1171Z" fill="#101010"/>
<path d="M103.392 0.0107422L97.2223 10.1171L103.392 20.2235H97.8717L93.326 12.7679H87.7088V20.2235H82.7734V0.0107422H87.7088V7.46625H93.326L97.8717 0.0107422H103.392Z" fill="#ECE1CF"/>
<path d="M146.62 0.0107422H151.653V20.2235H146.62V12.7348H135.97V20.2235H131.002V0.0107422H135.97V7.46625H146.62V0.0107422Z" fill="#ECE1CF"/>
<path d="M130.107 10.1171C130.107 15.6987 123.54 20.2235 115.44 20.2235C107.34 20.2235 100.773 15.6987 100.773 10.1171C100.773 4.53551 107.34 0.0107422 115.44 0.0107422C123.54 0.0107422 130.107 4.53551 130.107 10.1171Z" fill="#ECE1CF"/>
<path d="M118.776 10.1171C118.776 15.6987 117.284 20.2235 115.443 20.2235C113.602 20.2235 112.109 15.6987 112.109 10.1171C112.109 4.53551 113.602 0.0107422 115.443 0.0107422C117.284 0.0107422 118.776 4.53551 118.776 10.1171Z" fill="#101010"/>
</svg>
