<svg width="50" height="50" viewBox="0 0 50 50" fill="none" xmlns="http://www.w3.org/2000/svg">
<path d="M29.7852 25C29.7852 27.6428 27.6428 29.7852 25 29.7852C22.3572 29.7852 20.2148 27.6428 20.2148 25C20.2148 22.3572 22.3572 20.2148 25 20.2148C27.6428 20.2148 29.7852 22.3572 29.7852 25Z" fill="black"/>
<path d="M36.19 16.5336C35.96 15.9103 35.593 15.3461 35.1162 14.883C34.6531 14.4061 34.0892 14.0392 33.4655 13.8091C32.9597 13.6127 32.1998 13.3788 30.8002 13.3151C29.2862 13.2461 28.8322 13.2312 24.9992 13.2312C21.1658 13.2312 20.7119 13.2457 19.1982 13.3147C17.7986 13.3788 17.0383 13.6127 16.5329 13.8091C15.9092 14.0392 15.345 14.4061 14.8822 14.883C14.4054 15.3461 14.0384 15.9099 13.808 16.5336C13.6116 17.0394 13.3777 17.7997 13.314 19.1993C13.245 20.713 13.2301 21.1669 13.2301 25.0003C13.2301 28.8333 13.245 29.2873 13.314 30.8013C13.3777 32.2009 13.6116 32.9608 13.808 33.4666C14.0384 34.0903 14.405 34.6542 14.8819 35.1173C15.345 35.5941 15.9088 35.9611 16.5325 36.1911C17.0383 36.3879 17.7986 36.6218 19.1982 36.6855C20.7119 36.7545 21.1654 36.769 24.9988 36.769C28.8326 36.769 29.2865 36.7545 30.7998 36.6855C32.1994 36.6218 32.9597 36.3879 33.4655 36.1911C34.7175 35.7082 35.7071 34.7186 36.19 33.4666C36.3865 32.9608 36.6203 32.2009 36.6844 30.8013C36.7534 29.2873 36.7679 28.8333 36.7679 25.0003C36.7679 21.1669 36.7534 20.713 36.6844 19.1993C36.6207 17.7997 36.3868 17.0394 36.19 16.5336ZM24.9992 32.3714C20.9278 32.3714 17.6273 29.0714 17.6273 24.9999C17.6273 20.9285 20.9278 17.6284 24.9992 17.6284C29.0703 17.6284 32.3707 20.9285 32.3707 24.9999C32.3707 29.0714 29.0703 32.3714 24.9992 32.3714ZM32.6622 19.0597C31.7108 19.0597 30.9395 18.2883 30.9395 17.337C30.9395 16.3856 31.7108 15.6142 32.6622 15.6142C33.6136 15.6142 34.3849 16.3856 34.3849 17.337C34.3845 18.2883 33.6136 19.0597 32.6622 19.0597Z" fill="black"/>
<path d="M25 0C11.195 0 0 11.195 0 25C0 38.805 11.195 50 25 50C38.805 50 50 38.805 50 25C50 11.195 38.805 0 25 0ZM39.2689 30.9185C39.1994 32.4467 38.9565 33.49 38.6017 34.4032C37.8559 36.3316 36.3316 37.8559 34.4032 38.6017C33.4904 38.9565 32.4467 39.1991 30.9189 39.2689C29.388 39.3387 28.899 39.3555 25.0004 39.3555C21.1014 39.3555 20.6127 39.3387 19.0815 39.2689C17.5537 39.1991 16.51 38.9565 15.5972 38.6017C14.6389 38.2412 13.7714 37.6762 13.0543 36.9457C12.3241 36.2289 11.7592 35.3611 11.3987 34.4032C11.0439 33.4904 10.8009 32.4467 10.7315 30.9189C10.6609 29.3877 10.6445 28.8986 10.6445 25C10.6445 21.1014 10.6609 20.6123 10.7311 19.0815C10.8006 17.5533 11.0432 16.51 11.3979 15.5968C11.7584 14.6389 12.3238 13.7711 13.0543 13.0543C13.7711 12.3238 14.6389 11.7588 15.5968 11.3983C16.51 11.0435 17.5533 10.8009 19.0815 10.7311C20.6123 10.6613 21.1014 10.6445 25 10.6445C28.8986 10.6445 29.3877 10.6613 30.9185 10.7315C32.4467 10.8009 33.49 11.0435 34.4032 11.3979C35.3611 11.7584 36.2289 12.3238 36.9461 13.0543C37.6762 13.7714 38.2416 14.6389 38.6017 15.5968C38.9568 16.51 39.1994 17.5533 39.2693 19.0815C39.3391 20.6123 39.3555 21.1014 39.3555 25C39.3555 28.8986 39.3391 29.3877 39.2689 30.9185Z" fill="black"/>
</svg>
