<svg width="152" height="21" viewBox="0 0 152 21" fill="none" xmlns="http://www.w3.org/2000/svg">
<path d="M20.6181 0.732422L14.4489 10.8388L20.6181 20.9451H15.0983L10.5526 13.4896H4.93536V20.9451H0V0.732422H4.93536V8.18793H10.5526L15.0983 0.732422H20.6181Z" fill="#ECE1CF"/>
<path d="M63.8464 0.732422H68.8791V20.9451H63.8464V13.4565H53.1964V20.9451H48.2286V0.732422H53.1964V8.18793H63.8464V0.732422Z" fill="#ECE1CF"/>
<path d="M47.3333 10.8388C47.3333 16.4204 40.7668 20.9451 32.6666 20.9451C24.5665 20.9451 18 16.4204 18 10.8388C18 5.25719 24.5665 0.732422 32.6666 0.732422C40.7668 0.732422 47.3333 5.25719 47.3333 10.8388Z" fill="#ECE1CF"/>
<path d="M103.392 0.732422L97.2223 10.8388L103.392 20.9451H97.8717L93.326 13.4896H87.7088V20.9451H82.7734V0.732422H87.7088V8.18793H93.326L97.8717 0.732422H103.392Z" fill="#ECE1CF"/>
<path d="M146.62 0.732422H151.653V20.9451H146.62V13.4565H135.97V20.9451H131.002V0.732422H135.97V8.18793H146.62V0.732422Z" fill="#ECE1CF"/>
<path d="M130.107 10.8388C130.107 16.4204 123.54 20.9451 115.44 20.9451C107.34 20.9451 100.773 16.4204 100.773 10.8388C100.773 5.25719 107.34 0.732422 115.44 0.732422C123.54 0.732422 130.107 5.25719 130.107 10.8388Z" fill="#ECE1CF"/>
<path d="M71.5625 8.38086H80.094V13.243H71.5625V8.38086Z" fill="#ECE1CF"/>
</svg>
