<svg width="779" height="368" viewBox="0 0 779 368" fill="none" xmlns="http://www.w3.org/2000/svg">
<rect width="749" height="293" rx="55.4682" transform="matrix(-1 0 0 1 779 0)" fill="#ECE1CF"/>
<path d="M43.6367 343.746C39.9741 344.939 36.8032 341.686 39.0307 339.021L42.6147 334.733C63.5233 309.716 76.3595 281.048 79.8799 251.505C80.1583 249.169 83.5389 247.915 85.7535 249.327L140.214 284.053C142.399 285.446 142.526 288.125 140.489 289.813L135.185 294.207C109.345 315.613 78.3495 332.437 44.3346 343.518L43.6367 343.746Z" fill="#ECE1CF"/>
<path d="M112.92 61H109.41V46.15L103.26 61H101.76L95.64 46.15V61H92.13V40.99H97.08L102.51 54.16L107.97 40.99H112.92V61ZM117.089 46.51H120.239V51.76H125.369C126.909 51.76 128.089 52.2 128.909 53.08C129.749 53.96 130.169 55.06 130.169 56.38C130.169 57.68 129.739 58.78 128.879 59.68C128.039 60.56 126.869 61 125.369 61H117.089V46.51ZM124.979 54.52H120.239V58.24H124.979C125.599 58.24 126.079 58.07 126.419 57.73C126.779 57.39 126.959 56.94 126.959 56.38C126.959 55.82 126.779 55.37 126.419 55.03C126.079 54.69 125.599 54.52 124.979 54.52ZM135.509 61H132.359V46.51H135.509V61ZM156.174 61H147.294V46.51H155.964C157.304 46.51 158.354 46.86 159.114 47.56C159.874 48.26 160.254 49.15 160.254 50.23C160.254 51.07 160.024 51.78 159.564 52.36C159.104 52.94 158.524 53.33 157.824 53.53C158.604 53.71 159.254 54.14 159.774 54.82C160.294 55.48 160.554 56.23 160.554 57.07C160.554 58.23 160.164 59.18 159.384 59.92C158.624 60.64 157.554 61 156.174 61ZM155.514 58.24C156.074 58.24 156.514 58.1 156.834 57.82C157.154 57.52 157.314 57.12 157.314 56.62C157.314 56.16 157.154 55.77 156.834 55.45C156.514 55.13 156.074 54.97 155.514 54.97H150.444V58.24H155.514ZM155.424 52.21C155.924 52.21 156.314 52.08 156.594 51.82C156.894 51.54 157.044 51.19 157.044 50.77C157.044 50.31 156.894 49.95 156.594 49.69C156.314 49.41 155.924 49.27 155.424 49.27H150.444V52.21H155.424ZM171.152 61.36C168.952 61.36 167.132 60.66 165.692 59.26C164.272 57.84 163.562 56 163.562 53.74C163.562 51.62 164.252 49.83 165.632 48.37C167.032 46.89 168.792 46.15 170.912 46.15C173.052 46.15 174.772 46.89 176.072 48.37C177.392 49.85 178.052 51.74 178.052 54.04V54.79H166.862C166.982 55.93 167.452 56.88 168.272 57.64C169.092 58.4 170.162 58.78 171.482 58.78C172.222 58.78 172.962 58.64 173.702 58.36C174.462 58.08 175.092 57.69 175.592 57.19L177.032 59.26C175.572 60.66 173.612 61.36 171.152 61.36ZM174.992 52.57C174.952 51.57 174.582 50.68 173.882 49.9C173.202 49.12 172.212 48.73 170.912 48.73C169.672 48.73 168.702 49.12 168.002 49.9C167.302 50.66 166.912 51.55 166.832 52.57H174.992ZM188.961 61.36C187.041 61.36 185.491 60.57 184.311 58.99V66.52H181.161V46.51H184.311V48.49C185.471 46.93 187.021 46.15 188.961 46.15C190.861 46.15 192.401 46.83 193.581 48.19C194.781 49.55 195.381 51.4 195.381 53.74C195.381 56.08 194.781 57.94 193.581 59.32C192.401 60.68 190.861 61.36 188.961 61.36ZM188.031 58.57C189.271 58.57 190.261 58.12 191.001 57.22C191.741 56.32 192.111 55.16 192.111 53.74C192.111 52.32 191.741 51.17 191.001 50.29C190.261 49.39 189.271 48.94 188.031 48.94C187.311 48.94 186.601 49.13 185.901 49.51C185.201 49.89 184.671 50.35 184.311 50.89V56.62C184.671 57.16 185.201 57.62 185.901 58C186.601 58.38 187.311 58.57 188.031 58.57ZM201.535 61H198.505V46.51H201.655V56.26L208.315 46.51H211.465V61H208.315V50.98L201.535 61ZM231.786 61H228.636V50.92L224.316 61H223.056L218.706 50.92V61H215.556V46.51H219.666L223.686 55.87L227.646 46.51H231.786V61ZM239.758 59.86C239.758 60.86 239.498 61.81 238.978 62.71C238.478 63.63 237.798 64.39 236.938 64.99L235.528 63.82C236.028 63.52 236.488 63.1 236.908 62.56C237.328 62.02 237.588 61.5 237.688 61C237.508 61.06 237.338 61.09 237.178 61.09C236.658 61.09 236.228 60.92 235.888 60.58C235.548 60.22 235.378 59.76 235.378 59.2C235.378 58.64 235.578 58.16 235.978 57.76C236.378 57.34 236.858 57.13 237.418 57.13C238.058 57.13 238.608 57.38 239.068 57.88C239.528 58.36 239.758 59.02 239.758 59.86ZM250.407 46.51H253.557V50.41C253.557 51.49 253.827 52.25 254.367 52.69C254.927 53.13 255.807 53.35 257.007 53.35C258.307 53.35 259.367 53.17 260.187 52.81V46.51H263.337V61H260.187V55.36C259.147 55.88 257.757 56.14 256.017 56.14C254.037 56.14 252.607 55.76 251.727 55C250.847 54.24 250.407 53.09 250.407 51.55V46.51ZM273.201 61H270.051V49.27H265.911V46.51H277.371V49.27H273.201V61ZM286.49 61.36C284.25 61.36 282.45 60.63 281.09 59.17C279.73 57.69 279.05 55.88 279.05 53.74C279.05 51.6 279.73 49.8 281.09 48.34C282.45 46.88 284.25 46.15 286.49 46.15C288.75 46.15 290.56 46.88 291.92 48.34C293.28 49.8 293.96 51.6 293.96 53.74C293.96 55.9 293.28 57.71 291.92 59.17C290.56 60.63 288.75 61.36 286.49 61.36ZM286.49 58.57C287.79 58.57 288.81 58.11 289.55 57.19C290.31 56.25 290.69 55.1 290.69 53.74C290.69 52.4 290.31 51.27 289.55 50.35C288.81 49.41 287.79 48.94 286.49 48.94C285.21 48.94 284.19 49.41 283.43 50.35C282.69 51.27 282.32 52.4 282.32 53.74C282.32 55.1 282.69 56.25 283.43 57.19C284.19 58.11 285.21 58.57 286.49 58.57ZM304.343 46.51H307.493V50.41C307.493 51.49 307.763 52.25 308.303 52.69C308.863 53.13 309.743 53.35 310.943 53.35C312.243 53.35 313.303 53.17 314.123 52.81V46.51H317.273V61H314.123V55.36C313.083 55.88 311.693 56.14 309.953 56.14C307.973 56.14 306.543 55.76 305.663 55C304.783 54.24 304.343 53.09 304.343 51.55V46.51ZM327.137 61H323.987V49.27H319.847V46.51H331.307V49.27H327.137V61ZM340.576 61.36C338.376 61.36 336.556 60.66 335.116 59.26C333.696 57.84 332.986 56 332.986 53.74C332.986 51.62 333.676 49.83 335.056 48.37C336.456 46.89 338.216 46.15 340.336 46.15C342.476 46.15 344.196 46.89 345.496 48.37C346.816 49.85 347.476 51.74 347.476 54.04V54.79H336.286C336.406 55.93 336.876 56.88 337.696 57.64C338.516 58.4 339.586 58.78 340.906 58.78C341.646 58.78 342.386 58.64 343.126 58.36C343.886 58.08 344.516 57.69 345.016 57.19L346.456 59.26C344.996 60.66 343.036 61.36 340.576 61.36ZM344.416 52.57C344.376 51.57 344.006 50.68 343.306 49.9C342.626 49.12 341.636 48.73 340.336 48.73C339.096 48.73 338.126 49.12 337.426 49.9C336.726 50.66 336.336 51.55 336.256 52.57H344.416ZM353.735 61H350.585V46.51H353.735V52.21H360.395V46.51H363.545V61H360.395V54.97H353.735V61ZM370.666 61H367.636V46.51H370.786V56.26L377.446 46.51H380.596V61H377.446V50.98L370.666 61ZM391.376 61.36C389.176 61.36 387.356 60.66 385.916 59.26C384.496 57.84 383.786 56 383.786 53.74C383.786 51.62 384.476 49.83 385.856 48.37C387.256 46.89 389.016 46.15 391.136 46.15C393.276 46.15 394.996 46.89 396.296 48.37C397.616 49.85 398.276 51.74 398.276 54.04V54.79H387.086C387.206 55.93 387.676 56.88 388.496 57.64C389.316 58.4 390.386 58.78 391.706 58.78C392.446 58.78 393.186 58.64 393.926 58.36C394.686 58.08 395.316 57.69 395.816 57.19L397.256 59.26C395.796 60.66 393.836 61.36 391.376 61.36ZM395.216 52.57C395.176 51.57 394.806 50.68 394.106 49.9C393.426 49.12 392.436 48.73 391.136 48.73C389.896 48.73 388.926 49.12 388.226 49.9C387.526 50.66 387.136 51.55 387.056 52.57H395.216ZM415.691 61.36C413.491 61.36 411.691 60.65 410.291 59.23C408.891 57.79 408.191 55.96 408.191 53.74C408.191 51.54 408.891 49.73 410.291 48.31C411.691 46.87 413.491 46.15 415.691 46.15C418.111 46.15 419.961 47.01 421.241 48.73L419.171 50.65C418.371 49.51 417.261 48.94 415.841 48.94C414.521 48.94 413.461 49.39 412.661 50.29C411.861 51.17 411.461 52.32 411.461 53.74C411.461 55.16 411.861 56.32 412.661 57.22C413.461 58.12 414.521 58.57 415.841 58.57C417.221 58.57 418.331 58 419.171 56.86L421.241 58.78C419.961 60.5 418.111 61.36 415.691 61.36ZM437.563 61H433.603L429.163 55.03L427.153 57.1V61H424.003V46.51H427.153V53.5L433.543 46.51H437.443L431.413 53.08L437.563 61ZM451.794 61H448.644V59.44C447.524 60.72 445.964 61.36 443.964 61.36C442.644 61.36 441.474 60.94 440.454 60.1C439.434 59.24 438.924 58.06 438.924 56.56C438.924 55.02 439.424 53.85 440.424 53.05C441.444 52.25 442.624 51.85 443.964 51.85C446.024 51.85 447.584 52.47 448.644 53.71V51.55C448.644 50.71 448.334 50.05 447.714 49.57C447.094 49.09 446.274 48.85 445.254 48.85C443.634 48.85 442.204 49.46 440.964 50.68L439.674 48.49C441.314 46.93 443.344 46.15 445.764 46.15C447.544 46.15 448.994 46.57 450.114 47.41C451.234 48.25 451.794 49.58 451.794 51.4V61ZM445.194 59.2C446.774 59.2 447.924 58.7 448.644 57.7V55.51C447.924 54.51 446.774 54.01 445.194 54.01C444.294 54.01 443.554 54.25 442.974 54.73C442.394 55.21 442.104 55.84 442.104 56.62C442.104 57.4 442.394 58.03 442.974 58.51C443.554 58.97 444.294 59.2 445.194 59.2ZM461.098 61.36C458.258 61.36 456.038 60.58 454.438 59.02L455.908 57.01C457.228 58.19 458.958 58.78 461.098 58.78C462.198 58.78 463.058 58.61 463.678 58.27C464.318 57.91 464.638 57.43 464.638 56.83C464.638 55.57 463.368 54.94 460.828 54.94H457.738V52.42H460.828C461.928 52.42 462.788 52.26 463.408 51.94C464.048 51.62 464.368 51.15 464.368 50.53C464.368 50.01 464.038 49.58 463.378 49.24C462.718 48.9 461.888 48.73 460.888 48.73C458.948 48.73 457.398 49.31 456.238 50.47L454.678 48.55C456.218 46.97 458.238 46.18 460.738 46.18C462.878 46.16 464.558 46.51 465.778 47.23C467.018 47.93 467.638 48.89 467.638 50.11C467.638 51.03 467.248 51.81 466.468 52.45C465.708 53.07 464.818 53.45 463.798 53.59C464.818 53.67 465.758 54.01 466.618 54.61C467.498 55.21 467.938 56.03 467.938 57.07C467.938 58.33 467.318 59.36 466.078 60.16C464.858 60.96 463.198 61.36 461.098 61.36ZM477.652 61.36C475.412 61.36 473.612 60.63 472.252 59.17C470.892 57.69 470.212 55.88 470.212 53.74C470.212 51.6 470.892 49.8 472.252 48.34C473.612 46.88 475.412 46.15 477.652 46.15C479.912 46.15 481.722 46.88 483.082 48.34C484.442 49.8 485.122 51.6 485.122 53.74C485.122 55.9 484.442 57.71 483.082 59.17C481.722 60.63 479.912 61.36 477.652 61.36ZM477.652 58.57C478.952 58.57 479.972 58.11 480.712 57.19C481.472 56.25 481.852 55.1 481.852 53.74C481.852 52.4 481.472 51.27 480.712 50.35C479.972 49.41 478.952 48.94 477.652 48.94C476.372 48.94 475.352 49.41 474.592 50.35C473.852 51.27 473.482 52.4 473.482 53.74C473.482 55.1 473.852 56.25 474.592 57.19C475.352 58.11 476.372 58.57 477.652 58.57ZM501.87 61H497.91L493.47 55.03L491.46 57.1V61H488.31V46.51H491.46V53.5L497.85 46.51H501.75L495.72 53.08L501.87 61ZM528.036 61H524.886V50.92L520.566 61H519.306L514.956 50.92V61H511.806V46.51H515.916L519.936 55.87L523.896 46.51H528.036V61ZM538.648 61.36C536.408 61.36 534.608 60.63 533.248 59.17C531.888 57.69 531.208 55.88 531.208 53.74C531.208 51.6 531.888 49.8 533.248 48.34C534.608 46.88 536.408 46.15 538.648 46.15C540.908 46.15 542.718 46.88 544.078 48.34C545.438 49.8 546.118 51.6 546.118 53.74C546.118 55.9 545.438 57.71 544.078 59.17C542.718 60.63 540.908 61.36 538.648 61.36ZM538.648 58.57C539.948 58.57 540.968 58.11 541.708 57.19C542.468 56.25 542.848 55.1 542.848 53.74C542.848 52.4 542.468 51.27 541.708 50.35C540.968 49.41 539.948 48.94 538.648 48.94C537.368 48.94 536.348 49.41 535.588 50.35C534.848 51.27 534.478 52.4 534.478 53.74C534.478 55.1 534.848 56.25 535.588 57.19C536.348 58.11 537.368 58.57 538.648 58.57ZM550.351 61H546.391L552.541 53.08L546.511 46.51H550.411L555.601 52.18V46.51H558.751V52.18L563.941 46.51H567.841L561.811 53.08L567.961 61H564.001L559.561 55.03L558.751 55.87V61H555.601V55.87L554.791 55.03L550.351 61ZM576.738 61.36C574.538 61.36 572.718 60.66 571.278 59.26C569.858 57.84 569.148 56 569.148 53.74C569.148 51.62 569.838 49.83 571.218 48.37C572.618 46.89 574.378 46.15 576.498 46.15C578.638 46.15 580.358 46.89 581.658 48.37C582.978 49.85 583.638 51.74 583.638 54.04V54.79H572.448C572.568 55.93 573.038 56.88 573.858 57.64C574.678 58.4 575.748 58.78 577.068 58.78C577.808 58.78 578.548 58.64 579.288 58.36C580.048 58.08 580.678 57.69 581.178 57.19L582.618 59.26C581.158 60.66 579.198 61.36 576.738 61.36ZM580.578 52.57C580.538 51.57 580.168 50.68 579.468 49.9C578.788 49.12 577.798 48.73 576.498 48.73C575.258 48.73 574.288 49.12 573.588 49.9C572.888 50.66 572.498 51.55 572.418 52.57H580.578ZM592.537 61H589.387V49.27H585.247V46.51H596.707V49.27H592.537V61ZM619.951 61H616.801V49.27H610.141V61H606.991V46.51H619.951V61ZM630.582 61.36C628.342 61.36 626.542 60.63 625.182 59.17C623.822 57.69 623.142 55.88 623.142 53.74C623.142 51.6 623.822 49.8 625.182 48.34C626.542 46.88 628.342 46.15 630.582 46.15C632.842 46.15 634.652 46.88 636.012 48.34C637.372 49.8 638.052 51.6 638.052 53.74C638.052 55.9 637.372 57.71 636.012 59.17C634.652 60.63 632.842 61.36 630.582 61.36ZM630.582 58.57C631.882 58.57 632.902 58.11 633.642 57.19C634.402 56.25 634.782 55.1 634.782 53.74C634.782 52.4 634.402 51.27 633.642 50.35C632.902 49.41 631.882 48.94 630.582 48.94C629.302 48.94 628.282 49.41 627.522 50.35C626.782 51.27 626.412 52.4 626.412 53.74C626.412 55.1 626.782 56.25 627.522 57.19C628.282 58.11 629.302 58.57 630.582 58.57ZM657.469 61H654.319V50.92L649.999 61H648.739L644.389 50.92V61H641.239V46.51H645.349L649.369 55.87L653.329 46.51H657.469V61ZM668.082 61.36C665.842 61.36 664.042 60.63 662.682 59.17C661.322 57.69 660.642 55.88 660.642 53.74C660.642 51.6 661.322 49.8 662.682 48.34C664.042 46.88 665.842 46.15 668.082 46.15C670.342 46.15 672.152 46.88 673.512 48.34C674.872 49.8 675.552 51.6 675.552 53.74C675.552 55.9 674.872 57.71 673.512 59.17C672.152 60.63 670.342 61.36 668.082 61.36ZM668.082 58.57C669.382 58.57 670.402 58.11 671.142 57.19C671.902 56.25 672.282 55.1 672.282 53.74C672.282 52.4 671.902 51.27 671.142 50.35C670.402 49.41 669.382 48.94 668.082 48.94C666.802 48.94 665.782 49.41 665.022 50.35C664.282 51.27 663.912 52.4 663.912 53.74C663.912 55.1 664.282 56.25 665.022 57.19C665.782 58.11 666.802 58.57 668.082 58.57ZM678.229 46.51H681.379V50.41C681.379 51.49 681.649 52.25 682.189 52.69C682.749 53.13 683.629 53.35 684.829 53.35C686.129 53.35 687.189 53.17 688.009 52.81V46.51H691.159V61H688.009V55.36C686.969 55.88 685.579 56.14 683.839 56.14C681.859 56.14 680.429 55.76 679.549 55C678.669 54.24 678.229 53.09 678.229 51.55V46.51ZM695.233 46.51H698.383V51.76H703.513C705.053 51.76 706.233 52.2 707.053 53.08C707.893 53.96 708.313 55.06 708.313 56.38C708.313 57.68 707.883 58.78 707.023 59.68C706.183 60.56 705.013 61 703.513 61H695.233V46.51ZM703.123 54.52H698.383V58.24H703.123C703.743 58.24 704.223 58.07 704.563 57.73C704.923 57.39 705.103 56.94 705.103 56.38C705.103 55.82 704.923 55.37 704.563 55.03C704.223 54.69 703.743 54.52 703.123 54.52ZM100.92 99H92.04V84.51H100.71C102.05 84.51 103.1 84.86 103.86 85.56C104.62 86.26 105 87.15 105 88.23C105 89.07 104.77 89.78 104.31 90.36C103.85 90.94 103.27 91.33 102.57 91.53C103.35 91.71 104 92.14 104.52 92.82C105.04 93.48 105.3 94.23 105.3 95.07C105.3 96.23 104.91 97.18 104.13 97.92C103.37 98.64 102.3 99 100.92 99ZM100.26 96.24C100.82 96.24 101.26 96.1 101.58 95.82C101.9 95.52 102.06 95.12 102.06 94.62C102.06 94.16 101.9 93.77 101.58 93.45C101.26 93.13 100.82 92.97 100.26 92.97H95.19V96.24H100.26ZM100.17 90.21C100.67 90.21 101.06 90.08 101.34 89.82C101.64 89.54 101.79 89.19 101.79 88.77C101.79 88.31 101.64 87.95 101.34 87.69C101.06 87.41 100.67 87.27 100.17 87.27H95.19V90.21H100.17ZM123.513 99.36C121.313 99.36 119.513 98.65 118.113 97.23C116.713 95.79 116.013 93.96 116.013 91.74C116.013 89.54 116.713 87.73 118.113 86.31C119.513 84.87 121.313 84.15 123.513 84.15C125.933 84.15 127.783 85.01 129.063 86.73L126.993 88.65C126.193 87.51 125.083 86.94 123.663 86.94C122.343 86.94 121.283 87.39 120.483 88.29C119.683 89.17 119.283 90.32 119.283 91.74C119.283 93.16 119.683 94.32 120.483 95.22C121.283 96.12 122.343 96.57 123.663 96.57C125.043 96.57 126.153 96 126.993 94.86L129.063 96.78C127.783 98.5 125.933 99.36 123.513 99.36ZM143.825 99H140.675V97.44C139.555 98.72 137.995 99.36 135.995 99.36C134.675 99.36 133.505 98.94 132.485 98.1C131.465 97.24 130.955 96.06 130.955 94.56C130.955 93.02 131.455 91.85 132.455 91.05C133.475 90.25 134.655 89.85 135.995 89.85C138.055 89.85 139.615 90.47 140.675 91.71V89.55C140.675 88.71 140.365 88.05 139.745 87.57C139.125 87.09 138.305 86.85 137.285 86.85C135.665 86.85 134.235 87.46 132.995 88.68L131.705 86.49C133.345 84.93 135.375 84.15 137.795 84.15C139.575 84.15 141.025 84.57 142.145 85.41C143.265 86.25 143.825 87.58 143.825 89.4V99ZM137.225 97.2C138.805 97.2 139.955 96.7 140.675 95.7V93.51C139.955 92.51 138.805 92.01 137.225 92.01C136.325 92.01 135.585 92.25 135.005 92.73C134.425 93.21 134.135 93.84 134.135 94.62C134.135 95.4 134.425 96.03 135.005 96.51C135.585 96.97 136.325 97.2 137.225 97.2ZM164.139 99H160.989V88.92L156.669 99H155.409L151.059 88.92V99H147.909V84.51H152.019L156.039 93.87L159.999 84.51H164.139V99ZM174.752 99.36C172.512 99.36 170.712 98.63 169.352 97.17C167.992 95.69 167.312 93.88 167.312 91.74C167.312 89.6 167.992 87.8 169.352 86.34C170.712 84.88 172.512 84.15 174.752 84.15C177.012 84.15 178.822 84.88 180.182 86.34C181.542 87.8 182.222 89.6 182.222 91.74C182.222 93.9 181.542 95.71 180.182 97.17C178.822 98.63 177.012 99.36 174.752 99.36ZM174.752 96.57C176.052 96.57 177.072 96.11 177.812 95.19C178.572 94.25 178.952 93.1 178.952 91.74C178.952 90.4 178.572 89.27 177.812 88.35C177.072 87.41 176.052 86.94 174.752 86.94C173.472 86.94 172.452 87.41 171.692 88.35C170.952 89.27 170.582 90.4 170.582 91.74C170.582 93.1 170.952 94.25 171.692 95.19C172.452 96.11 173.472 96.57 174.752 96.57ZM192.009 99.36C189.809 99.36 188.009 98.65 186.609 97.23C185.209 95.79 184.509 93.96 184.509 91.74C184.509 89.54 185.209 87.73 186.609 86.31C188.009 84.87 189.809 84.15 192.009 84.15C194.429 84.15 196.279 85.01 197.559 86.73L195.489 88.65C194.689 87.51 193.579 86.94 192.159 86.94C190.839 86.94 189.779 87.39 188.979 88.29C188.179 89.17 187.779 90.32 187.779 91.74C187.779 93.16 188.179 94.32 188.979 95.22C189.779 96.12 190.839 96.57 192.159 96.57C193.539 96.57 194.649 96 195.489 94.86L197.559 96.78C196.279 98.5 194.429 99.36 192.009 99.36ZM206.111 99H202.961V87.27H198.821V84.51H210.281V87.27H206.111V99ZM219.4 99.36C217.16 99.36 215.36 98.63 214 97.17C212.64 95.69 211.96 93.88 211.96 91.74C211.96 89.6 212.64 87.8 214 86.34C215.36 84.88 217.16 84.15 219.4 84.15C221.66 84.15 223.47 84.88 224.83 86.34C226.19 87.8 226.87 89.6 226.87 91.74C226.87 93.9 226.19 95.71 224.83 97.17C223.47 98.63 221.66 99.36 219.4 99.36ZM219.4 96.57C220.7 96.57 221.72 96.11 222.46 95.19C223.22 94.25 223.6 93.1 223.6 91.74C223.6 90.4 223.22 89.27 222.46 88.35C221.72 87.41 220.7 86.94 219.4 86.94C218.12 86.94 217.1 87.41 216.34 88.35C215.6 89.27 215.23 90.4 215.23 91.74C215.23 93.1 215.6 94.25 216.34 95.19C217.1 96.11 218.12 96.57 219.4 96.57ZM233.148 99H229.548L233.118 93.6C232.118 93.38 231.298 92.88 230.658 92.1C230.038 91.32 229.728 90.33 229.728 89.13C229.728 87.83 230.148 86.74 230.988 85.86C231.848 84.96 233.028 84.51 234.528 84.51H242.808V99H239.658V93.75H236.328L233.148 99ZM234.918 90.99H239.658V87.27H234.918C234.318 87.27 233.838 87.45 233.478 87.81C233.118 88.15 232.938 88.59 232.938 89.13C232.938 89.69 233.108 90.14 233.448 90.48C233.808 90.82 234.298 90.99 234.918 90.99ZM252.664 99H249.514V87.27H245.374V84.51H256.834V87.27H252.664V99ZM266.103 99.36C263.903 99.36 262.083 98.66 260.643 97.26C259.223 95.84 258.513 94 258.513 91.74C258.513 89.62 259.203 87.83 260.583 86.37C261.983 84.89 263.743 84.15 265.863 84.15C268.003 84.15 269.723 84.89 271.023 86.37C272.343 87.85 273.003 89.74 273.003 92.04V92.79H261.813C261.933 93.93 262.403 94.88 263.223 95.64C264.043 96.4 265.113 96.78 266.433 96.78C267.173 96.78 267.913 96.64 268.653 96.36C269.413 96.08 270.043 95.69 270.543 95.19L271.983 97.26C270.523 98.66 268.563 99.36 266.103 99.36ZM269.943 90.57C269.903 89.57 269.533 88.68 268.833 87.9C268.153 87.12 267.163 86.73 265.863 86.73C264.623 86.73 263.653 87.12 262.953 87.9C262.253 88.66 261.863 89.55 261.783 90.57H269.943ZM274.612 99.36V96.78C275.232 96.78 275.722 96.38 276.082 95.58C276.462 94.78 276.772 93.44 277.012 91.56L277.882 84.51H289.072V99H285.922V87.27H280.672L280.162 91.92C279.882 94.52 279.292 96.41 278.392 97.59C277.492 98.77 276.232 99.36 274.612 99.36ZM293.163 84.51H296.313V89.76H301.443C302.983 89.76 304.163 90.2 304.983 91.08C305.823 91.96 306.243 93.06 306.243 94.38C306.243 95.68 305.813 96.78 304.953 97.68C304.113 98.56 302.943 99 301.443 99H293.163V84.51ZM301.053 92.52H296.313V96.24H301.053C301.673 96.24 302.153 96.07 302.493 95.73C302.853 95.39 303.033 94.94 303.033 94.38C303.033 93.82 302.853 93.37 302.493 93.03C302.153 92.69 301.673 92.52 301.053 92.52ZM312.514 99H309.364V84.51H312.514V90.21H319.174V84.51H322.324V99H319.174V92.97H312.514V99ZM332.955 99.36C330.715 99.36 328.915 98.63 327.555 97.17C326.195 95.69 325.515 93.88 325.515 91.74C325.515 89.6 326.195 87.8 327.555 86.34C328.915 84.88 330.715 84.15 332.955 84.15C335.215 84.15 337.025 84.88 338.385 86.34C339.745 87.8 340.425 89.6 340.425 91.74C340.425 93.9 339.745 95.71 338.385 97.17C337.025 98.63 335.215 99.36 332.955 99.36ZM332.955 96.57C334.255 96.57 335.275 96.11 336.015 95.19C336.775 94.25 337.155 93.1 337.155 91.74C337.155 90.4 336.775 89.27 336.015 88.35C335.275 87.41 334.255 86.94 332.955 86.94C331.675 86.94 330.655 87.41 329.895 88.35C329.155 89.27 328.785 90.4 328.785 91.74C328.785 93.1 329.155 94.25 329.895 95.19C330.655 96.11 331.675 96.57 332.955 96.57ZM359.842 99H356.692V88.92L352.372 99H351.112L346.762 88.92V99H343.612V84.51H347.722L351.742 93.87L355.702 84.51H359.842V99ZM374.65 99H371.62V84.51H374.77V94.26L381.43 84.51H384.58V99H381.43V88.98L374.65 99ZM395.271 99.36C393.071 99.36 391.271 98.65 389.871 97.23C388.471 95.79 387.771 93.96 387.771 91.74C387.771 89.54 388.471 87.73 389.871 86.31C391.271 84.87 393.071 84.15 395.271 84.15C397.691 84.15 399.541 85.01 400.821 86.73L398.751 88.65C397.951 87.51 396.841 86.94 395.421 86.94C394.101 86.94 393.041 87.39 392.241 88.29C391.441 89.17 391.041 90.32 391.041 91.74C391.041 93.16 391.441 94.32 392.241 95.22C393.041 96.12 394.101 96.57 395.421 96.57C396.801 96.57 397.911 96 398.751 94.86L400.821 96.78C399.541 98.5 397.691 99.36 395.271 99.36ZM410.183 99.36C407.983 99.36 406.183 98.65 404.783 97.23C403.383 95.79 402.683 93.96 402.683 91.74C402.683 89.54 403.383 87.73 404.783 86.31C406.183 84.87 407.983 84.15 410.183 84.15C412.603 84.15 414.453 85.01 415.733 86.73L413.663 88.65C412.863 87.51 411.753 86.94 410.333 86.94C409.013 86.94 407.953 87.39 407.153 88.29C406.353 89.17 405.953 90.32 405.953 91.74C405.953 93.16 406.353 94.32 407.153 95.22C407.953 96.12 409.013 96.57 410.333 96.57C411.713 96.57 412.823 96 413.663 94.86L415.733 96.78C414.453 98.5 412.603 99.36 410.183 99.36ZM416.995 99.36V96.78C417.615 96.78 418.105 96.38 418.465 95.58C418.845 94.78 419.155 93.44 419.395 91.56L420.265 84.51H431.455V99H428.305V87.27H423.055L422.545 91.92C422.265 94.52 421.675 96.41 420.775 97.59C419.875 98.77 418.615 99.36 416.995 99.36ZM442.236 99.36C440.036 99.36 438.216 98.66 436.776 97.26C435.356 95.84 434.646 94 434.646 91.74C434.646 89.62 435.336 87.83 436.716 86.37C438.116 84.89 439.876 84.15 441.996 84.15C444.136 84.15 445.856 84.89 447.156 86.37C448.476 87.85 449.136 89.74 449.136 92.04V92.79H437.946C438.066 93.93 438.536 94.88 439.356 95.64C440.176 96.4 441.246 96.78 442.566 96.78C443.306 96.78 444.046 96.64 444.786 96.36C445.546 96.08 446.176 95.69 446.676 95.19L448.116 97.26C446.656 98.66 444.696 99.36 442.236 99.36ZM446.076 90.57C446.036 89.57 445.666 88.68 444.966 87.9C444.286 87.12 443.296 86.73 441.996 86.73C440.756 86.73 439.786 87.12 439.086 87.9C438.386 88.66 437.996 89.55 437.916 90.57H446.076ZM450.745 102.69V96.39C451.425 96.23 451.935 95.84 452.275 95.22C452.635 94.58 452.925 93.36 453.145 91.56L454.015 84.51H465.205V96.24H466.795V102.69H463.645V99H453.895V102.69H450.745ZM456.805 87.27L456.295 91.92C456.095 93.84 455.455 95.28 454.375 96.24H462.055V87.27H456.805ZM475.924 99.36C473.684 99.36 471.884 98.63 470.524 97.17C469.164 95.69 468.484 93.88 468.484 91.74C468.484 89.6 469.164 87.8 470.524 86.34C471.884 84.88 473.684 84.15 475.924 84.15C478.184 84.15 479.994 84.88 481.354 86.34C482.714 87.8 483.394 89.6 483.394 91.74C483.394 93.9 482.714 95.71 481.354 97.17C479.994 98.63 478.184 99.36 475.924 99.36ZM475.924 96.57C477.224 96.57 478.244 96.11 478.984 95.19C479.744 94.25 480.124 93.1 480.124 91.74C480.124 90.4 479.744 89.27 478.984 88.35C478.244 87.41 477.224 86.94 475.924 86.94C474.644 86.94 473.624 87.41 472.864 88.35C472.124 89.27 471.754 90.4 471.754 91.74C471.754 93.1 472.124 94.25 472.864 95.19C473.624 96.11 474.644 96.57 475.924 96.57ZM495.461 99H486.581V84.51H495.251C496.591 84.51 497.641 84.86 498.401 85.56C499.161 86.26 499.541 87.15 499.541 88.23C499.541 89.07 499.311 89.78 498.851 90.36C498.391 90.94 497.811 91.33 497.111 91.53C497.891 91.71 498.541 92.14 499.061 92.82C499.581 93.48 499.841 94.23 499.841 95.07C499.841 96.23 499.451 97.18 498.671 97.92C497.911 98.64 496.841 99 495.461 99ZM494.801 96.24C495.361 96.24 495.801 96.1 496.121 95.82C496.441 95.52 496.601 95.12 496.601 94.62C496.601 94.16 496.441 93.77 496.121 93.45C495.801 93.13 495.361 92.97 494.801 92.97H489.731V96.24H494.801ZM494.711 90.21C495.211 90.21 495.601 90.08 495.881 89.82C496.181 89.54 496.331 89.19 496.331 88.77C496.331 88.31 496.181 87.95 495.881 87.69C495.601 87.41 495.211 87.27 494.711 87.27H489.731V90.21H494.711ZM515.749 99H512.599V97.44C511.479 98.72 509.919 99.36 507.919 99.36C506.599 99.36 505.429 98.94 504.409 98.1C503.389 97.24 502.879 96.06 502.879 94.56C502.879 93.02 503.379 91.85 504.379 91.05C505.399 90.25 506.579 89.85 507.919 89.85C509.979 89.85 511.539 90.47 512.599 91.71V89.55C512.599 88.71 512.289 88.05 511.669 87.57C511.049 87.09 510.229 86.85 509.209 86.85C507.589 86.85 506.159 87.46 504.919 88.68L503.629 86.49C505.269 84.93 507.299 84.15 509.719 84.15C511.499 84.15 512.949 84.57 514.069 85.41C515.189 86.25 515.749 87.58 515.749 89.4V99ZM509.149 97.2C510.729 97.2 511.879 96.7 512.599 95.7V93.51C511.879 92.51 510.729 92.01 509.149 92.01C508.249 92.01 507.509 92.25 506.929 92.73C506.349 93.21 506.059 93.84 506.059 94.62C506.059 95.4 506.349 96.03 506.929 96.51C507.509 96.97 508.249 97.2 509.149 97.2ZM522.983 99H519.833V84.51H522.983V90.21H529.643V84.51H532.793V99H529.643V92.97H522.983V99ZM539.914 99H536.884V84.51H540.034V94.26L546.694 84.51H549.844V99H546.694V88.98L539.914 99ZM556.965 99H553.935V84.51H557.085V94.26L563.745 84.51H566.895V99H563.745V88.98L556.965 99ZM585.29 99.36C583.09 99.36 581.29 98.65 579.89 97.23C578.49 95.79 577.79 93.96 577.79 91.74C577.79 89.54 578.49 87.73 579.89 86.31C581.29 84.87 583.09 84.15 585.29 84.15C587.71 84.15 589.56 85.01 590.84 86.73L588.77 88.65C587.97 87.51 586.86 86.94 585.44 86.94C584.12 86.94 583.06 87.39 582.26 88.29C581.46 89.17 581.06 90.32 581.06 91.74C581.06 93.16 581.46 94.32 582.26 95.22C583.06 96.12 584.12 96.57 585.44 96.57C586.82 96.57 587.93 96 588.77 94.86L590.84 96.78C589.56 98.5 587.71 99.36 585.29 99.36ZM602.483 99H593.603V84.51H602.273C603.613 84.51 604.663 84.86 605.423 85.56C606.183 86.26 606.562 87.15 606.562 88.23C606.562 89.07 606.333 89.78 605.873 90.36C605.413 90.94 604.833 91.33 604.133 91.53C604.913 91.71 605.563 92.14 606.083 92.82C606.603 93.48 606.863 94.23 606.863 95.07C606.863 96.23 606.473 97.18 605.693 97.92C604.933 98.64 603.863 99 602.483 99ZM601.823 96.24C602.383 96.24 602.823 96.1 603.143 95.82C603.463 95.52 603.623 95.12 603.623 94.62C603.623 94.16 603.463 93.77 603.143 93.45C602.823 93.13 602.383 92.97 601.823 92.97H596.753V96.24H601.823ZM601.733 90.21C602.233 90.21 602.623 90.08 602.903 89.82C603.203 89.54 603.353 89.19 603.353 88.77C603.353 88.31 603.203 87.95 602.903 87.69C602.623 87.41 602.233 87.27 601.733 87.27H596.753V90.21H601.733ZM617.31 99.36C615.07 99.36 613.27 98.63 611.91 97.17C610.55 95.69 609.87 93.88 609.87 91.74C609.87 89.6 610.55 87.8 611.91 86.34C613.27 84.88 615.07 84.15 617.31 84.15C619.57 84.15 621.38 84.88 622.74 86.34C624.1 87.8 624.78 89.6 624.78 91.74C624.78 93.9 624.1 95.71 622.74 97.17C621.38 98.63 619.57 99.36 617.31 99.36ZM617.31 96.57C618.61 96.57 619.63 96.11 620.37 95.19C621.13 94.25 621.51 93.1 621.51 91.74C621.51 90.4 621.13 89.27 620.37 88.35C619.63 87.41 618.61 86.94 617.31 86.94C616.03 86.94 615.01 87.41 614.25 88.35C613.51 89.27 613.14 90.4 613.14 91.74C613.14 93.1 613.51 94.25 614.25 95.19C615.01 96.11 616.03 96.57 617.31 96.57ZM634.658 99.36C632.458 99.36 630.638 98.66 629.198 97.26C627.778 95.84 627.068 94 627.068 91.74C627.068 89.62 627.758 87.83 629.138 86.37C630.538 84.89 632.298 84.15 634.418 84.15C636.558 84.15 638.278 84.89 639.578 86.37C640.898 87.85 641.558 89.74 641.558 92.04V92.79H630.368C630.488 93.93 630.958 94.88 631.778 95.64C632.598 96.4 633.668 96.78 634.988 96.78C635.728 96.78 636.468 96.64 637.208 96.36C637.968 96.08 638.598 95.69 639.098 95.19L640.538 97.26C639.078 98.66 637.118 99.36 634.658 99.36ZM638.498 90.57C638.458 89.57 638.088 88.68 637.388 87.9C636.708 87.12 635.718 86.73 634.418 86.73C633.178 86.73 632.208 87.12 631.508 87.9C630.808 88.66 630.418 89.55 630.338 90.57H638.498ZM647.697 99H644.667V84.51H647.817V94.26L654.477 84.51H657.627V99H654.477V88.98L647.697 99ZM656.397 80.34C655.097 82.1 653.347 82.98 651.147 82.98C648.967 82.98 647.207 82.1 645.867 80.34L647.307 79.14C648.267 80.46 649.547 81.12 651.147 81.12C652.747 81.12 654.017 80.46 654.957 79.14L656.397 80.34ZM95.07 137H92.04V122.51H95.19V132.26L101.85 122.51H105V137H101.85V126.98L95.07 137ZM107.591 140.69V134.39C108.271 134.23 108.781 133.84 109.121 133.22C109.481 132.58 109.771 131.36 109.991 129.56L110.861 122.51H122.051V134.24H123.641V140.69H120.491V137H110.741V140.69H107.591ZM113.651 125.27L113.141 129.92C112.941 131.84 112.301 133.28 111.221 134.24H118.901V125.27H113.651ZM132.919 137.36C130.719 137.36 128.899 136.66 127.459 135.26C126.039 133.84 125.329 132 125.329 129.74C125.329 127.62 126.019 125.83 127.399 124.37C128.799 122.89 130.559 122.15 132.679 122.15C134.819 122.15 136.539 122.89 137.839 124.37C139.159 125.85 139.819 127.74 139.819 130.04V130.79H128.629C128.749 131.93 129.219 132.88 130.039 133.64C130.859 134.4 131.929 134.78 133.249 134.78C133.989 134.78 134.729 134.64 135.469 134.36C136.229 134.08 136.859 133.69 137.359 133.19L138.799 135.26C137.339 136.66 135.379 137.36 132.919 137.36ZM136.759 128.57C136.719 127.57 136.349 126.68 135.649 125.9C134.969 125.12 133.979 124.73 132.679 124.73C131.439 124.73 130.469 125.12 129.769 125.9C129.069 126.66 128.679 127.55 128.599 128.57H136.759ZM146.079 137H142.929V122.51H146.079V128.21H152.739V122.51H155.889V137H152.739V130.97H146.079V137ZM165.769 137H162.619V125.27H158.479V122.51H169.939V125.27H165.769V137ZM175.549 137H172.519V122.51H175.669V132.26L182.329 122.51H185.479V137H182.329V126.98L175.549 137ZM189.059 122.51H192.209V126.41C192.209 127.49 192.479 128.25 193.019 128.69C193.579 129.13 194.459 129.35 195.659 129.35C196.959 129.35 198.019 129.17 198.839 128.81V122.51H201.989V137H198.839V131.36C197.799 131.88 196.409 132.14 194.669 132.14C192.689 132.14 191.259 131.76 190.379 131C189.499 130.24 189.059 129.09 189.059 127.55V122.51ZM209.213 137H206.063V122.51H209.213V128.21H215.873V122.51H219.023V137H215.873V130.97H209.213V137ZM229.654 137.36C227.414 137.36 225.614 136.63 224.254 135.17C222.894 133.69 222.214 131.88 222.214 129.74C222.214 127.6 222.894 125.8 224.254 124.34C225.614 122.88 227.414 122.15 229.654 122.15C231.914 122.15 233.724 122.88 235.084 124.34C236.444 125.8 237.124 127.6 237.124 129.74C237.124 131.9 236.444 133.71 235.084 135.17C233.724 136.63 231.914 137.36 229.654 137.36ZM229.654 134.57C230.954 134.57 231.974 134.11 232.714 133.19C233.474 132.25 233.854 131.1 233.854 129.74C233.854 128.4 233.474 127.27 232.714 126.35C231.974 125.41 230.954 124.94 229.654 124.94C228.374 124.94 227.354 125.41 226.594 126.35C225.854 127.27 225.484 128.4 225.484 129.74C225.484 131.1 225.854 132.25 226.594 133.19C227.354 134.11 228.374 134.57 229.654 134.57ZM246.911 137.36C244.711 137.36 242.911 136.65 241.511 135.23C240.111 133.79 239.411 131.96 239.411 129.74C239.411 127.54 240.111 125.73 241.511 124.31C242.911 122.87 244.711 122.15 246.911 122.15C249.331 122.15 251.181 123.01 252.461 124.73L250.391 126.65C249.591 125.51 248.481 124.94 247.061 124.94C245.741 124.94 244.681 125.39 243.881 126.29C243.081 127.17 242.681 128.32 242.681 129.74C242.681 131.16 243.081 132.32 243.881 133.22C244.681 134.12 245.741 134.57 247.061 134.57C248.441 134.57 249.551 134 250.391 132.86L252.461 134.78C251.181 136.5 249.331 137.36 246.911 137.36ZM261.014 137H257.864V125.27H253.724V122.51H265.184V125.27H261.014V137ZM270.793 137H267.763V122.51H270.913V132.26L277.573 122.51H280.723V137H277.573V126.98L270.793 137ZM288.713 135.86C288.713 136.86 288.453 137.81 287.933 138.71C287.433 139.63 286.753 140.39 285.893 140.99L284.483 139.82C284.983 139.52 285.443 139.1 285.863 138.56C286.283 138.02 286.543 137.5 286.643 137C286.463 137.06 286.293 137.09 286.133 137.09C285.613 137.09 285.183 136.92 284.843 136.58C284.503 136.22 284.333 135.76 284.333 135.2C284.333 134.64 284.533 134.16 284.933 133.76C285.333 133.34 285.813 133.13 286.373 133.13C287.013 133.13 287.563 133.38 288.023 133.88C288.483 134.36 288.713 135.02 288.713 135.86ZM312.832 137H309.682V125.27H303.022V137H299.872V122.51H312.832V137ZM323.463 137.36C321.223 137.36 319.423 136.63 318.063 135.17C316.703 133.69 316.023 131.88 316.023 129.74C316.023 127.6 316.703 125.8 318.063 124.34C319.423 122.88 321.223 122.15 323.463 122.15C325.723 122.15 327.533 122.88 328.893 124.34C330.253 125.8 330.933 127.6 330.933 129.74C330.933 131.9 330.253 133.71 328.893 135.17C327.533 136.63 325.723 137.36 323.463 137.36ZM323.463 134.57C324.763 134.57 325.783 134.11 326.523 133.19C327.283 132.25 327.663 131.1 327.663 129.74C327.663 128.4 327.283 127.27 326.523 126.35C325.783 125.41 324.763 124.94 323.463 124.94C322.183 124.94 321.163 125.41 320.403 126.35C319.663 127.27 319.293 128.4 319.293 129.74C319.293 131.1 319.663 132.25 320.403 133.19C321.163 134.11 322.183 134.57 323.463 134.57ZM339.34 137.36C336.5 137.36 334.28 136.58 332.68 135.02L334.15 133.01C335.47 134.19 337.2 134.78 339.34 134.78C340.44 134.78 341.3 134.61 341.92 134.27C342.56 133.91 342.88 133.43 342.88 132.83C342.88 131.57 341.61 130.94 339.07 130.94H335.98V128.42H339.07C340.17 128.42 341.03 128.26 341.65 127.94C342.29 127.62 342.61 127.15 342.61 126.53C342.61 126.01 342.28 125.58 341.62 125.24C340.96 124.9 340.13 124.73 339.13 124.73C337.19 124.73 335.64 125.31 334.48 126.47L332.92 124.55C334.46 122.97 336.48 122.18 338.98 122.18C341.12 122.16 342.8 122.51 344.02 123.23C345.26 123.93 345.88 124.89 345.88 126.11C345.88 127.03 345.49 127.81 344.71 128.45C343.95 129.07 343.06 129.45 342.04 129.59C343.06 129.67 344 130.01 344.86 130.61C345.74 131.21 346.18 132.03 346.18 133.07C346.18 134.33 345.56 135.36 344.32 136.16C343.1 136.96 341.44 137.36 339.34 137.36ZM352.504 137H349.354V122.51H352.504V128.21H359.164V122.51H362.314V137H359.164V130.97H352.504V137ZM378.405 137H375.255V135.44C374.135 136.72 372.575 137.36 370.575 137.36C369.255 137.36 368.085 136.94 367.065 136.1C366.045 135.24 365.535 134.06 365.535 132.56C365.535 131.02 366.035 129.85 367.035 129.05C368.055 128.25 369.235 127.85 370.575 127.85C372.635 127.85 374.195 128.47 375.255 129.71V127.55C375.255 126.71 374.945 126.05 374.325 125.57C373.705 125.09 372.885 124.85 371.865 124.85C370.245 124.85 368.815 125.46 367.575 126.68L366.285 124.49C367.925 122.93 369.955 122.15 372.375 122.15C374.155 122.15 375.605 122.57 376.725 123.41C377.845 124.25 378.405 125.58 378.405 127.4V137ZM371.805 135.2C373.385 135.2 374.535 134.7 375.255 133.7V131.51C374.535 130.51 373.385 130.01 371.805 130.01C370.905 130.01 370.165 130.25 369.585 130.73C369.005 131.21 368.715 131.84 368.715 132.62C368.715 133.4 369.005 134.03 369.585 134.51C370.165 134.97 370.905 135.2 371.805 135.2ZM396.049 137H392.089L387.649 131.03L385.639 133.1V137H382.489V122.51H385.639V129.5L392.029 122.51H395.929L389.899 129.08L396.049 137ZM404.674 137.36C402.434 137.36 400.634 136.63 399.274 135.17C397.914 133.69 397.234 131.88 397.234 129.74C397.234 127.6 397.914 125.8 399.274 124.34C400.634 122.88 402.434 122.15 404.674 122.15C406.934 122.15 408.744 122.88 410.104 124.34C411.464 125.8 412.144 127.6 412.144 129.74C412.144 131.9 411.464 133.71 410.104 135.17C408.744 136.63 406.934 137.36 404.674 137.36ZM404.674 134.57C405.974 134.57 406.994 134.11 407.734 133.19C408.494 132.25 408.874 131.1 408.874 129.74C408.874 128.4 408.494 127.27 407.734 126.35C406.994 125.41 405.974 124.94 404.674 124.94C403.394 124.94 402.374 125.41 401.614 126.35C400.874 127.27 400.504 128.4 400.504 129.74C400.504 131.1 400.874 132.25 401.614 133.19C402.374 134.11 403.394 134.57 404.674 134.57ZM431.561 137H428.411V126.92L424.091 137H422.831L418.481 126.92V137H415.331V122.51H419.441L423.461 131.87L427.421 122.51H431.561V137ZM438.664 137H435.634V122.51H438.784V132.26L445.444 122.51H448.594V137H445.444V126.98L438.664 137ZM461.565 137H452.685V122.51H461.355C462.695 122.51 463.745 122.86 464.505 123.56C465.265 124.26 465.645 125.15 465.645 126.23C465.645 127.07 465.415 127.78 464.955 128.36C464.495 128.94 463.915 129.33 463.215 129.53C463.995 129.71 464.645 130.14 465.165 130.82C465.685 131.48 465.945 132.23 465.945 133.07C465.945 134.23 465.555 135.18 464.775 135.92C464.015 136.64 462.945 137 461.565 137ZM460.905 134.24C461.465 134.24 461.905 134.1 462.225 133.82C462.545 133.52 462.705 133.12 462.705 132.62C462.705 132.16 462.545 131.77 462.225 131.45C461.905 131.13 461.465 130.97 460.905 130.97H455.835V134.24H460.905ZM460.815 128.21C461.315 128.21 461.705 128.08 461.985 127.82C462.285 127.54 462.435 127.19 462.435 126.77C462.435 126.31 462.285 125.95 461.985 125.69C461.705 125.41 461.315 125.27 460.815 125.27H455.835V128.21H460.815ZM477.048 122.51H480.198V126.41C480.198 127.49 480.468 128.25 481.008 128.69C481.568 129.13 482.448 129.35 483.648 129.35C484.948 129.35 486.008 129.17 486.828 128.81V122.51H489.978V137H486.828V131.36C485.788 131.88 484.398 132.14 482.658 132.14C480.678 132.14 479.248 131.76 478.368 131C477.488 130.24 477.048 129.09 477.048 127.55V122.51ZM497.082 137H494.052V122.51H497.202V132.26L503.862 122.51H507.012V137H503.862V126.98L497.082 137ZM516.893 137H513.743V125.27H509.603V122.51H521.063V125.27H516.893V137ZM535.642 137H532.492V135.44C531.372 136.72 529.812 137.36 527.812 137.36C526.492 137.36 525.322 136.94 524.302 136.1C523.282 135.24 522.772 134.06 522.772 132.56C522.772 131.02 523.272 129.85 524.272 129.05C525.292 128.25 526.472 127.85 527.812 127.85C529.872 127.85 531.432 128.47 532.492 129.71V127.55C532.492 126.71 532.182 126.05 531.562 125.57C530.942 125.09 530.122 124.85 529.102 124.85C527.482 124.85 526.052 125.46 524.812 126.68L523.522 124.49C525.162 122.93 527.192 122.15 529.612 122.15C531.392 122.15 532.842 122.57 533.962 123.41C535.082 124.25 535.642 125.58 535.642 127.4V137ZM529.042 135.2C530.622 135.2 531.772 134.7 532.492 133.7V131.51C531.772 130.51 530.622 130.01 529.042 130.01C528.142 130.01 527.402 130.25 526.822 130.73C526.242 131.21 525.952 131.84 525.952 132.62C525.952 133.4 526.242 134.03 526.822 134.51C527.402 134.97 528.142 135.2 529.042 135.2ZM545.516 137H542.366V125.27H538.226V122.51H549.686V125.27H545.516V137ZM558.955 137.36C556.755 137.36 554.935 136.66 553.495 135.26C552.075 133.84 551.365 132 551.365 129.74C551.365 127.62 552.055 125.83 553.435 124.37C554.835 122.89 556.595 122.15 558.715 122.15C560.855 122.15 562.575 122.89 563.875 124.37C565.195 125.85 565.855 127.74 565.855 130.04V130.79H554.665C554.785 131.93 555.255 132.88 556.075 133.64C556.895 134.4 557.965 134.78 559.285 134.78C560.025 134.78 560.765 134.64 561.505 134.36C562.265 134.08 562.895 133.69 563.395 133.19L564.835 135.26C563.375 136.66 561.415 137.36 558.955 137.36ZM562.795 128.57C562.755 127.57 562.385 126.68 561.685 125.9C561.005 125.12 560.015 124.73 558.715 124.73C557.475 124.73 556.505 125.12 555.805 125.9C555.105 126.66 554.715 127.55 554.635 128.57H562.795ZM567.464 137.36V134.78C568.084 134.78 568.574 134.38 568.934 133.58C569.314 132.78 569.624 131.44 569.864 129.56L570.734 122.51H581.924V137H578.774V125.27H573.524L573.014 129.92C572.734 132.52 572.144 134.41 571.244 135.59C570.344 136.77 569.084 137.36 567.464 137.36ZM589.105 137H585.505L589.075 131.6C588.075 131.38 587.255 130.88 586.615 130.1C585.995 129.32 585.685 128.33 585.685 127.13C585.685 125.83 586.105 124.74 586.945 123.86C587.805 122.96 588.985 122.51 590.485 122.51H598.765V137H595.615V131.75H592.285L589.105 137ZM590.875 128.99H595.615V125.27H590.875C590.275 125.27 589.795 125.45 589.435 125.81C589.075 126.15 588.895 126.59 588.895 127.13C588.895 127.69 589.065 128.14 589.405 128.48C589.765 128.82 590.255 128.99 590.875 128.99ZM98.64 175.36C96.44 175.36 94.64 174.65 93.24 173.23C91.84 171.79 91.14 169.96 91.14 167.74C91.14 165.54 91.84 163.73 93.24 162.31C94.64 160.87 96.44 160.15 98.64 160.15C101.06 160.15 102.91 161.01 104.19 162.73L102.12 164.65C101.32 163.51 100.21 162.94 98.79 162.94C97.47 162.94 96.41 163.39 95.61 164.29C94.81 165.17 94.41 166.32 94.41 167.74C94.41 169.16 94.81 170.32 95.61 171.22C96.41 172.12 97.47 172.57 98.79 172.57C100.17 172.57 101.28 172 102.12 170.86L104.19 172.78C102.91 174.5 101.06 175.36 98.64 175.36ZM118.887 175.36C116.467 175.36 114.617 174.5 113.337 172.78L115.287 170.95C116.187 172.17 117.337 172.78 118.737 172.78C119.857 172.78 120.787 172.46 121.527 171.82C122.287 171.16 122.777 170.24 122.997 169.06H116.457V166.33H122.967C122.747 165.21 122.257 164.33 121.497 163.69C120.757 163.05 119.837 162.73 118.737 162.73C117.297 162.73 116.147 163.34 115.287 164.56L113.337 162.73C114.617 161.01 116.467 160.15 118.887 160.15C121.087 160.15 122.887 160.87 124.287 162.31C125.687 163.73 126.387 165.54 126.387 167.74C126.387 169.96 125.687 171.79 124.287 173.23C122.887 174.65 121.087 175.36 118.887 175.36ZM128.069 175.36V172.78C128.689 172.78 129.179 172.38 129.539 171.58C129.919 170.78 130.229 169.44 130.469 167.56L131.339 160.51H142.529V175H139.379V163.27H134.129L133.619 167.92C133.339 170.52 132.749 172.41 131.849 173.59C130.949 174.77 129.689 175.36 128.069 175.36ZM153.31 175.36C151.11 175.36 149.29 174.66 147.85 173.26C146.43 171.84 145.72 170 145.72 167.74C145.72 165.62 146.41 163.83 147.79 162.37C149.19 160.89 150.95 160.15 153.07 160.15C155.21 160.15 156.93 160.89 158.23 162.37C159.55 163.85 160.21 165.74 160.21 168.04V168.79H149.02C149.14 169.93 149.61 170.88 150.43 171.64C151.25 172.4 152.32 172.78 153.64 172.78C154.38 172.78 155.12 172.64 155.86 172.36C156.62 172.08 157.25 171.69 157.75 171.19L159.19 173.26C157.73 174.66 155.77 175.36 153.31 175.36ZM157.15 166.57C157.11 165.57 156.74 164.68 156.04 163.9C155.36 163.12 154.37 162.73 153.07 162.73C151.83 162.73 150.86 163.12 150.16 163.9C149.46 164.66 149.07 165.55 148.99 166.57H157.15ZM179.549 175H176.399V164.92L172.079 175H170.819L166.469 164.92V175H163.319V160.51H167.429L171.449 169.87L175.409 160.51H179.549V175ZM190.312 175.36C188.112 175.36 186.292 174.66 184.852 173.26C183.432 171.84 182.722 170 182.722 167.74C182.722 165.62 183.412 163.83 184.792 162.37C186.192 160.89 187.952 160.15 190.072 160.15C192.212 160.15 193.932 160.89 195.232 162.37C196.552 163.85 197.212 165.74 197.212 168.04V168.79H186.022C186.142 169.93 186.612 170.88 187.432 171.64C188.252 172.4 189.322 172.78 190.642 172.78C191.382 172.78 192.122 172.64 192.862 172.36C193.622 172.08 194.252 171.69 194.752 171.19L196.192 173.26C194.732 174.66 192.772 175.36 190.312 175.36ZM194.152 166.57C194.112 165.57 193.742 164.68 193.042 163.9C192.362 163.12 191.372 162.73 190.072 162.73C188.832 162.73 187.862 163.12 187.162 163.9C186.462 164.66 186.072 165.55 185.992 166.57H194.152ZM203.471 175H200.321V160.51H203.471V166.21H210.131V160.51H213.281V175H210.131V168.97H203.471V175ZM223.162 175H220.012V163.27H215.872V160.51H227.332V163.27H223.162V175ZM241.911 175H238.761V173.44C237.641 174.72 236.081 175.36 234.081 175.36C232.761 175.36 231.591 174.94 230.571 174.1C229.551 173.24 229.041 172.06 229.041 170.56C229.041 169.02 229.541 167.85 230.541 167.05C231.561 166.25 232.741 165.85 234.081 165.85C236.141 165.85 237.701 166.47 238.761 167.71V165.55C238.761 164.71 238.451 164.05 237.831 163.57C237.211 163.09 236.391 162.85 235.371 162.85C233.751 162.85 232.321 163.46 231.081 164.68L229.791 162.49C231.431 160.93 233.461 160.15 235.881 160.15C237.661 160.15 239.111 160.57 240.231 161.41C241.351 162.25 241.911 163.58 241.911 165.4V175ZM235.311 173.2C236.891 173.2 238.041 172.7 238.761 171.7V169.51C238.041 168.51 236.891 168.01 235.311 168.01C234.411 168.01 233.671 168.25 233.091 168.73C232.511 169.21 232.221 169.84 232.221 170.62C232.221 171.4 232.511 172.03 233.091 172.51C233.671 172.97 234.411 173.2 235.311 173.2ZM262.225 175H259.075V164.92L254.755 175H253.495L249.145 164.92V175H245.995V160.51H250.105L254.125 169.87L258.085 160.51H262.225V175ZM269.328 175H266.298V160.51H269.448V170.26L276.108 160.51H279.258V175H276.108V164.98L269.328 175ZM304.614 175H300.654L296.214 169.03L294.204 171.1V175H291.054V160.51H294.204V167.5L300.594 160.51H304.494L298.464 167.08L304.614 175ZM306.215 180.67L306.695 177.85C307.055 178.01 307.455 178.09 307.895 178.09C308.915 178.09 309.605 177.67 309.965 176.83L310.685 175.18L304.745 160.51H308.105L312.335 171.37L316.565 160.51H319.955L312.965 177.61C312.105 179.75 310.445 180.84 307.985 180.88C307.325 180.88 306.735 180.81 306.215 180.67ZM320.433 175.36V172.78C321.053 172.78 321.543 172.38 321.903 171.58C322.283 170.78 322.593 169.44 322.833 167.56L323.703 160.51H334.893V175H331.743V163.27H326.493L325.983 167.92C325.703 170.52 325.113 172.41 324.213 173.59C323.313 174.77 322.053 175.36 320.433 175.36ZM338.983 160.51H342.133V165.76H347.263C348.803 165.76 349.983 166.2 350.803 167.08C351.643 167.96 352.063 169.06 352.063 170.38C352.063 171.68 351.633 172.78 350.773 173.68C349.933 174.56 348.763 175 347.263 175H338.983V160.51ZM346.873 168.52H342.133V172.24H346.873C347.493 172.24 347.973 172.07 348.313 171.73C348.673 171.39 348.853 170.94 348.853 170.38C348.853 169.82 348.673 169.37 348.313 169.03C347.973 168.69 347.493 168.52 346.873 168.52ZM359.627 175H356.477V163.27H352.337V160.51H363.797V163.27H359.627V175ZM365.746 180.67L366.226 177.85C366.586 178.01 366.986 178.09 367.426 178.09C368.446 178.09 369.136 177.67 369.496 176.83L370.216 175.18L364.276 160.51H367.636L371.866 171.37L376.096 160.51H379.486L372.496 177.61C371.636 179.75 369.976 180.84 367.516 180.88C366.856 180.88 366.266 180.81 365.746 180.67ZM389.264 175.36C387.344 175.36 385.794 174.57 384.614 172.99V180.52H381.464V160.51H384.614V162.49C385.774 160.93 387.324 160.15 389.264 160.15C391.164 160.15 392.704 160.83 393.884 162.19C395.084 163.55 395.684 165.4 395.684 167.74C395.684 170.08 395.084 171.94 393.884 173.32C392.704 174.68 391.164 175.36 389.264 175.36ZM388.334 172.57C389.574 172.57 390.564 172.12 391.304 171.22C392.044 170.32 392.414 169.16 392.414 167.74C392.414 166.32 392.044 165.17 391.304 164.29C390.564 163.39 389.574 162.94 388.334 162.94C387.614 162.94 386.904 163.13 386.204 163.51C385.504 163.89 384.974 164.35 384.614 164.89V170.62C384.974 171.16 385.504 171.62 386.204 172C386.904 172.38 387.614 172.57 388.334 172.57ZM398.808 160.51H401.958V165.76H407.088C408.628 165.76 409.808 166.2 410.628 167.08C411.468 167.96 411.888 169.06 411.888 170.38C411.888 171.68 411.458 172.78 410.598 173.68C409.758 174.56 408.588 175 407.088 175H398.808V160.51ZM406.698 168.52H401.958V172.24H406.698C407.318 172.24 407.798 172.07 408.138 171.73C408.498 171.39 408.678 170.94 408.678 170.38C408.678 169.82 408.498 169.37 408.138 169.03C407.798 168.69 407.318 168.52 406.698 168.52ZM417.228 175H414.078V160.51H417.228V175ZM436.813 175.36C434.893 175.36 433.343 174.57 432.163 172.99V180.52H429.013V160.51H432.163V162.49C433.323 160.93 434.873 160.15 436.813 160.15C438.713 160.15 440.253 160.83 441.433 162.19C442.633 163.55 443.233 165.4 443.233 167.74C443.233 170.08 442.633 171.94 441.433 173.32C440.253 174.68 438.713 175.36 436.813 175.36ZM435.883 172.57C437.123 172.57 438.113 172.12 438.853 171.22C439.593 170.32 439.963 169.16 439.963 167.74C439.963 166.32 439.593 165.17 438.853 164.29C438.113 163.39 437.123 162.94 435.883 162.94C435.163 162.94 434.453 163.13 433.753 163.51C433.053 163.89 432.523 164.35 432.163 164.89V170.62C432.523 171.16 433.053 171.62 433.753 172C434.453 172.38 435.163 172.57 435.883 172.57ZM458.356 175H455.206V173.44C454.086 174.72 452.526 175.36 450.526 175.36C449.206 175.36 448.036 174.94 447.016 174.1C445.996 173.24 445.486 172.06 445.486 170.56C445.486 169.02 445.986 167.85 446.986 167.05C448.006 166.25 449.186 165.85 450.526 165.85C452.586 165.85 454.146 166.47 455.206 167.71V165.55C455.206 164.71 454.896 164.05 454.276 163.57C453.656 163.09 452.836 162.85 451.816 162.85C450.196 162.85 448.766 163.46 447.526 164.68L446.236 162.49C447.876 160.93 449.906 160.15 452.326 160.15C454.106 160.15 455.556 160.57 456.676 161.41C457.796 162.25 458.356 163.58 458.356 165.4V175ZM451.756 173.2C453.336 173.2 454.486 172.7 455.206 171.7V169.51C454.486 168.51 453.336 168.01 451.756 168.01C450.856 168.01 450.116 168.25 449.536 168.73C448.956 169.21 448.666 169.84 448.666 170.62C448.666 171.4 448.956 172.03 449.536 172.51C450.116 172.97 450.856 173.2 451.756 173.2ZM467.66 175.36C464.82 175.36 462.6 174.58 461 173.02L462.47 171.01C463.79 172.19 465.52 172.78 467.66 172.78C468.76 172.78 469.62 172.61 470.24 172.27C470.88 171.91 471.2 171.43 471.2 170.83C471.2 169.57 469.93 168.94 467.39 168.94H464.3V166.42H467.39C468.49 166.42 469.35 166.26 469.97 165.94C470.61 165.62 470.93 165.15 470.93 164.53C470.93 164.01 470.6 163.58 469.94 163.24C469.28 162.9 468.45 162.73 467.45 162.73C465.51 162.73 463.96 163.31 462.8 164.47L461.24 162.55C462.78 160.97 464.8 160.18 467.3 160.18C469.44 160.16 471.12 160.51 472.34 161.23C473.58 161.93 474.2 162.89 474.2 164.11C474.2 165.03 473.81 165.81 473.03 166.45C472.27 167.07 471.38 167.45 470.36 167.59C471.38 167.67 472.32 168.01 473.18 168.61C474.06 169.21 474.5 170.03 474.5 171.07C474.5 172.33 473.88 173.36 472.64 174.16C471.42 174.96 469.76 175.36 467.66 175.36ZM480.825 175H477.675V160.51H480.825V166.21H487.485V160.51H490.635V175H487.485V168.97H480.825V175ZM494.726 160.51H497.876V165.76H503.006C504.546 165.76 505.726 166.2 506.546 167.08C507.386 167.96 507.806 169.06 507.806 170.38C507.806 171.68 507.376 172.78 506.516 173.68C505.676 174.56 504.506 175 503.006 175H494.726V160.51ZM502.616 168.52H497.876V172.24H502.616C503.236 172.24 503.716 172.07 504.056 171.73C504.416 171.39 504.596 170.94 504.596 170.38C504.596 169.82 504.416 169.37 504.056 169.03C503.716 168.69 503.236 168.52 502.616 168.52ZM513.146 175H509.996V160.51H513.146V175ZM529.916 175H526.376L522.626 169.66L518.846 175H515.336L520.646 167.56L515.636 160.51H519.176L522.626 165.43L526.046 160.51H529.586L524.576 167.56L529.916 175ZM542.963 175H539.813V160.51H542.963V166.21H549.623V160.51H552.773V175H549.623V168.97H542.963V175ZM568.864 175H565.714V173.44C564.594 174.72 563.034 175.36 561.034 175.36C559.714 175.36 558.544 174.94 557.524 174.1C556.504 173.24 555.994 172.06 555.994 170.56C555.994 169.02 556.494 167.85 557.494 167.05C558.514 166.25 559.694 165.85 561.034 165.85C563.094 165.85 564.654 166.47 565.714 167.71V165.55C565.714 164.71 565.404 164.05 564.784 163.57C564.164 163.09 563.344 162.85 562.324 162.85C560.704 162.85 559.274 163.46 558.034 164.68L556.744 162.49C558.384 160.93 560.414 160.15 562.834 160.15C564.614 160.15 566.064 160.57 567.184 161.41C568.304 162.25 568.864 163.58 568.864 165.4V175ZM562.264 173.2C563.844 173.2 564.994 172.7 565.714 171.7V169.51C564.994 168.51 563.844 168.01 562.264 168.01C561.364 168.01 560.624 168.25 560.044 168.73C559.464 169.21 559.174 169.84 559.174 170.62C559.174 171.4 559.464 172.03 560.044 172.51C560.624 172.97 561.364 173.2 562.264 173.2ZM580.748 175.36C578.828 175.36 577.278 174.57 576.098 172.99V180.52H572.948V160.51H576.098V162.49C577.258 160.93 578.808 160.15 580.748 160.15C582.648 160.15 584.188 160.83 585.368 162.19C586.568 163.55 587.168 165.4 587.168 167.74C587.168 170.08 586.568 171.94 585.368 173.32C584.188 174.68 582.648 175.36 580.748 175.36ZM579.818 172.57C581.058 172.57 582.048 172.12 582.788 171.22C583.528 170.32 583.898 169.16 583.898 167.74C583.898 166.32 583.528 165.17 582.788 164.29C582.048 163.39 581.058 162.94 579.818 162.94C579.098 162.94 578.388 163.13 577.688 163.51C576.988 163.89 576.458 164.35 576.098 164.89V170.62C576.458 171.16 576.988 171.62 577.688 172C578.388 172.38 579.098 172.57 579.818 172.57ZM596.832 175.36C594.592 175.36 592.792 174.63 591.432 173.17C590.072 171.69 589.392 169.88 589.392 167.74C589.392 165.6 590.072 163.8 591.432 162.34C592.792 160.88 594.592 160.15 596.832 160.15C599.092 160.15 600.902 160.88 602.262 162.34C603.622 163.8 604.302 165.6 604.302 167.74C604.302 169.9 603.622 171.71 602.262 173.17C600.902 174.63 599.092 175.36 596.832 175.36ZM596.832 172.57C598.132 172.57 599.152 172.11 599.892 171.19C600.652 170.25 601.032 169.1 601.032 167.74C601.032 166.4 600.652 165.27 599.892 164.35C599.152 163.41 598.132 162.94 596.832 162.94C595.552 162.94 594.532 163.41 593.772 164.35C593.032 165.27 592.662 166.4 592.662 167.74C592.662 169.1 593.032 170.25 593.772 171.19C594.532 172.11 595.552 172.57 596.832 172.57ZM605.989 178.69V172.39C606.669 172.23 607.179 171.84 607.519 171.22C607.879 170.58 608.169 169.36 608.389 167.56L609.259 160.51H620.449V172.24H622.039V178.69H618.889V175H609.139V178.69H605.989ZM612.049 163.27L611.539 167.92C611.339 169.84 610.699 171.28 609.619 172.24H617.299V163.27H612.049ZM631.168 175.36C628.928 175.36 627.128 174.63 625.768 173.17C624.408 171.69 623.728 169.88 623.728 167.74C623.728 165.6 624.408 163.8 625.768 162.34C627.128 160.88 628.928 160.15 631.168 160.15C633.428 160.15 635.238 160.88 636.598 162.34C637.958 163.8 638.638 165.6 638.638 167.74C638.638 169.9 637.958 171.71 636.598 173.17C635.238 174.63 633.428 175.36 631.168 175.36ZM631.168 172.57C632.468 172.57 633.488 172.11 634.228 171.19C634.988 170.25 635.368 169.1 635.368 167.74C635.368 166.4 634.988 165.27 634.228 164.35C633.488 163.41 632.468 162.94 631.168 162.94C629.888 162.94 628.868 163.41 628.108 164.35C627.368 165.27 626.998 166.4 626.998 167.74C626.998 169.1 627.368 170.25 628.108 171.19C628.868 172.11 629.888 172.57 631.168 172.57ZM650.705 175H641.825V160.51H650.495C651.835 160.51 652.885 160.86 653.645 161.56C654.405 162.26 654.785 163.15 654.785 164.23C654.785 165.07 654.555 165.78 654.095 166.36C653.635 166.94 653.055 167.33 652.355 167.53C653.135 167.71 653.785 168.14 654.305 168.82C654.825 169.48 655.085 170.23 655.085 171.07C655.085 172.23 654.695 173.18 653.915 173.92C653.155 174.64 652.085 175 650.705 175ZM650.045 172.24C650.605 172.24 651.045 172.1 651.365 171.82C651.685 171.52 651.845 171.12 651.845 170.62C651.845 170.16 651.685 169.77 651.365 169.45C651.045 169.13 650.605 168.97 650.045 168.97H644.975V172.24H650.045ZM649.955 166.21C650.455 166.21 650.845 166.08 651.125 165.82C651.425 165.54 651.575 165.19 651.575 164.77C651.575 164.31 651.425 163.95 651.125 163.69C650.845 163.41 650.455 163.27 649.955 163.27H644.975V166.21H649.955ZM108.27 213H105.12V202.92L100.8 213H99.54L95.19 202.92V213H92.04V198.51H96.15L100.17 207.87L104.13 198.51H108.27V213ZM124.343 213H121.193V211.44C120.073 212.72 118.513 213.36 116.513 213.36C115.193 213.36 114.023 212.94 113.003 212.1C111.983 211.24 111.473 210.06 111.473 208.56C111.473 207.02 111.973 205.85 112.973 205.05C113.993 204.25 115.173 203.85 116.513 203.85C118.573 203.85 120.133 204.47 121.193 205.71V203.55C121.193 202.71 120.883 202.05 120.263 201.57C119.643 201.09 118.823 200.85 117.803 200.85C116.183 200.85 114.753 201.46 113.513 202.68L112.223 200.49C113.863 198.93 115.893 198.15 118.313 198.15C120.093 198.15 121.543 198.57 122.663 199.41C123.783 200.25 124.343 201.58 124.343 203.4V213ZM117.743 211.2C119.323 211.2 120.473 210.7 121.193 209.7V207.51C120.473 206.51 119.323 206.01 117.743 206.01C116.843 206.01 116.103 206.25 115.523 206.73C114.943 207.21 114.653 207.84 114.653 208.62C114.653 209.4 114.943 210.03 115.523 210.51C116.103 210.97 116.843 211.2 117.743 211.2ZM141.987 213H138.027L133.587 207.03L131.577 209.1V213H128.427V198.51H131.577V205.5L137.967 198.51H141.867L135.837 205.08L141.987 213ZM150.671 213.36C148.471 213.36 146.671 212.65 145.271 211.23C143.871 209.79 143.171 207.96 143.171 205.74C143.171 203.54 143.871 201.73 145.271 200.31C146.671 198.87 148.471 198.15 150.671 198.15C153.091 198.15 154.941 199.01 156.221 200.73L154.151 202.65C153.351 201.51 152.241 200.94 150.821 200.94C149.501 200.94 148.441 201.39 147.641 202.29C146.841 203.17 146.441 204.32 146.441 205.74C146.441 207.16 146.841 208.32 147.641 209.22C148.441 210.12 149.501 210.57 150.821 210.57C152.201 210.57 153.311 210 154.151 208.86L156.221 210.78C154.941 212.5 153.091 213.36 150.671 213.36ZM162.013 213H158.983V198.51H162.133V208.26L168.793 198.51H171.943V213H168.793V202.98L162.013 213ZM192.264 213H189.114V202.92L184.794 213H183.534L179.184 202.92V213H176.034V198.51H180.144L184.164 207.87L188.124 198.51H192.264V213ZM208.337 213H205.187V211.44C204.067 212.72 202.507 213.36 200.507 213.36C199.187 213.36 198.017 212.94 196.997 212.1C195.977 211.24 195.467 210.06 195.467 208.56C195.467 207.02 195.967 205.85 196.967 205.05C197.987 204.25 199.167 203.85 200.507 203.85C202.567 203.85 204.127 204.47 205.187 205.71V203.55C205.187 202.71 204.877 202.05 204.257 201.57C203.637 201.09 202.817 200.85 201.797 200.85C200.177 200.85 198.747 201.46 197.507 202.68L196.217 200.49C197.857 198.93 199.887 198.15 202.307 198.15C204.087 198.15 205.537 198.57 206.657 199.41C207.777 200.25 208.337 201.58 208.337 203.4V213ZM201.737 211.2C203.317 211.2 204.467 210.7 205.187 209.7V207.51C204.467 206.51 203.317 206.01 201.737 206.01C200.837 206.01 200.097 206.25 199.517 206.73C198.937 207.21 198.647 207.84 198.647 208.62C198.647 209.4 198.937 210.03 199.517 210.51C200.097 210.97 200.837 211.2 201.737 211.2ZM210.921 213.36V210.78C211.541 210.78 212.031 210.38 212.391 209.58C212.771 208.78 213.081 207.44 213.321 205.56L214.191 198.51H225.381V213H222.231V201.27H216.981L216.471 205.92C216.191 208.52 215.601 210.41 214.701 211.59C213.801 212.77 212.541 213.36 210.921 213.36ZM229.472 198.51H232.622V203.76H237.752C239.292 203.76 240.472 204.2 241.292 205.08C242.132 205.96 242.552 207.06 242.552 208.38C242.552 209.68 242.122 210.78 241.262 211.68C240.422 212.56 239.252 213 237.752 213H229.472V198.51ZM237.362 206.52H232.622V210.24H237.362C237.982 210.24 238.462 210.07 238.802 209.73C239.162 209.39 239.342 208.94 239.342 208.38C239.342 207.82 239.162 207.37 238.802 207.03C238.462 206.69 237.982 206.52 237.362 206.52ZM248.823 213H245.673V198.51H248.823V204.21H255.483V198.51H258.633V213H255.483V206.97H248.823V213ZM269.264 213.36C267.024 213.36 265.224 212.63 263.864 211.17C262.504 209.69 261.824 207.88 261.824 205.74C261.824 203.6 262.504 201.8 263.864 200.34C265.224 198.88 267.024 198.15 269.264 198.15C271.524 198.15 273.334 198.88 274.694 200.34C276.054 201.8 276.734 203.6 276.734 205.74C276.734 207.9 276.054 209.71 274.694 211.17C273.334 212.63 271.524 213.36 269.264 213.36ZM269.264 210.57C270.564 210.57 271.584 210.11 272.324 209.19C273.084 208.25 273.464 207.1 273.464 205.74C273.464 204.4 273.084 203.27 272.324 202.35C271.584 201.41 270.564 200.94 269.264 200.94C267.984 200.94 266.964 201.41 266.204 202.35C265.464 203.27 265.094 204.4 265.094 205.74C265.094 207.1 265.464 208.25 266.204 209.19C266.964 210.11 267.984 210.57 269.264 210.57ZM286.996 218.67L287.476 215.85C287.836 216.01 288.236 216.09 288.676 216.09C289.696 216.09 290.386 215.67 290.746 214.83L291.466 213.18L285.526 198.51H288.886L293.116 209.37L297.346 198.51H300.736L293.746 215.61C292.886 217.75 291.226 218.84 288.766 218.88C288.106 218.88 287.516 218.81 286.996 218.67ZM301.214 216.69V210.39C301.894 210.23 302.404 209.84 302.744 209.22C303.104 208.58 303.394 207.36 303.614 205.56L304.484 198.51H315.674V210.24H317.264V216.69H314.114V213H304.364V216.69H301.214ZM307.274 201.27L306.764 205.92C306.564 207.84 305.924 209.28 304.844 210.24H312.524V201.27H307.274ZM326.393 213.36C324.153 213.36 322.353 212.63 320.993 211.17C319.633 209.69 318.953 207.88 318.953 205.74C318.953 203.6 319.633 201.8 320.993 200.34C322.353 198.88 324.153 198.15 326.393 198.15C328.653 198.15 330.463 198.88 331.823 200.34C333.183 201.8 333.863 203.6 333.863 205.74C333.863 207.9 333.183 209.71 331.823 211.17C330.463 212.63 328.653 213.36 326.393 213.36ZM326.393 210.57C327.693 210.57 328.713 210.11 329.453 209.19C330.213 208.25 330.593 207.1 330.593 205.74C330.593 204.4 330.213 203.27 329.453 202.35C328.713 201.41 327.693 200.94 326.393 200.94C325.113 200.94 324.093 201.41 323.333 202.35C322.593 203.27 322.222 204.4 322.222 205.74C322.222 207.1 322.593 208.25 323.333 209.19C324.093 210.11 325.113 210.57 326.393 210.57ZM343.59 210.57C344.89 210.57 345.91 210.1 346.65 209.16C347.41 208.22 347.79 207.06 347.79 205.68C347.79 204.36 347.41 203.24 346.65 202.32C345.91 201.4 344.89 200.94 343.59 200.94C342.31 200.94 341.29 201.4 340.53 202.32C339.79 203.24 339.42 204.36 339.42 205.68C339.42 207.06 339.79 208.22 340.53 209.16C341.29 210.1 342.31 210.57 343.59 210.57ZM349.02 211.14C347.68 212.62 345.87 213.36 343.59 213.36C341.31 213.36 339.5 212.59 338.16 211.05C336.84 209.49 336.18 207.5 336.18 205.08C336.18 201.62 336.77 199.04 337.95 197.34C339.15 195.64 340.99 194.64 343.47 194.34C344.97 194.12 346 193.91 346.56 193.71C347.14 193.51 347.43 193.27 347.43 192.99H350.52C350.52 195.09 348.46 196.37 344.34 196.83C342.72 197.01 341.47 197.46 340.59 198.18C339.73 198.88 339.19 199.72 338.97 200.7C339.55 199.9 340.3 199.28 341.22 198.84C342.16 198.38 343.15 198.15 344.19 198.15C346.19 198.15 347.83 198.89 349.11 200.37C350.39 201.85 351.03 203.63 351.03 205.71C351.03 207.85 350.36 209.66 349.02 211.14ZM357.514 213H354.364V198.51H357.514V204.21H364.174V198.51H367.324V213H364.174V206.97H357.514V213ZM371.415 198.51H374.565V203.76H379.695C381.235 203.76 382.415 204.2 383.235 205.08C384.075 205.96 384.495 207.06 384.495 208.38C384.495 209.68 384.065 210.78 383.205 211.68C382.365 212.56 381.195 213 379.695 213H371.415V198.51ZM379.305 206.52H374.565V210.24H379.305C379.925 210.24 380.405 210.07 380.745 209.73C381.105 209.39 381.285 208.94 381.285 208.38C381.285 207.82 381.105 207.37 380.745 207.03C380.405 206.69 379.925 206.52 379.305 206.52ZM389.835 213H386.685V198.51H389.835V213ZM410.145 213H406.995V202.92L402.675 213H401.415L397.065 202.92V213H393.915V198.51H398.025L402.045 207.87L406.005 198.51H410.145V213ZM424.953 213H421.923V198.51H425.073V208.26L431.733 198.51H434.883V213H431.733V202.98L424.953 213ZM449.709 213H446.679V198.51H449.829V208.26L456.489 198.51H459.639V213H456.489V202.98L449.709 213ZM466.879 213H463.729V198.51H466.879V204.21H473.539V198.51H476.689V213H473.539V206.97H466.879V213ZM481.86 200.22C482.86 198.84 484.16 198.15 485.76 198.15C487.36 198.15 488.66 198.94 489.66 200.52V192.99H492.81V200.49C493.79 198.93 495.09 198.15 496.71 198.15C498.31 198.15 499.61 198.83 500.61 200.19C501.61 201.55 502.11 203.4 502.11 205.74C502.11 208.08 501.61 209.94 500.61 211.32C499.61 212.68 498.31 213.36 496.71 213.36C495.11 213.36 493.81 212.57 492.81 210.99V218.52H489.66V211.02C488.68 212.58 487.38 213.36 485.76 213.36C484.16 213.36 482.86 212.68 481.86 211.32C480.86 209.96 480.36 208.11 480.36 205.77C480.36 203.43 480.86 201.58 481.86 200.22ZM486.75 200.94C485.79 200.94 485.01 201.39 484.41 202.29C483.83 203.19 483.54 204.35 483.54 205.77C483.54 207.19 483.83 208.35 484.41 209.25C485.01 210.13 485.79 210.57 486.75 210.57C487.31 210.57 487.86 210.38 488.4 210C488.96 209.62 489.38 209.16 489.66 208.62V202.89C489.38 202.35 488.96 201.89 488.4 201.51C487.86 201.13 487.31 200.94 486.75 200.94ZM495.72 210.57C496.68 210.57 497.45 210.12 498.03 209.22C498.63 208.32 498.93 207.16 498.93 205.74C498.93 204.32 498.63 203.17 498.03 202.29C497.45 201.39 496.68 200.94 495.72 200.94C495.16 200.94 494.6 201.13 494.04 201.51C493.5 201.89 493.09 202.35 492.81 202.89V208.62C493.09 209.16 493.5 209.62 494.04 210C494.6 210.38 495.16 210.57 495.72 210.57ZM512.31 213.36C510.07 213.36 508.27 212.63 506.91 211.17C505.55 209.69 504.87 207.88 504.87 205.74C504.87 203.6 505.55 201.8 506.91 200.34C508.27 198.88 510.07 198.15 512.31 198.15C514.57 198.15 516.38 198.88 517.74 200.34C519.1 201.8 519.78 203.6 519.78 205.74C519.78 207.9 519.1 209.71 517.74 211.17C516.38 212.63 514.57 213.36 512.31 213.36ZM512.31 210.57C513.61 210.57 514.63 210.11 515.37 209.19C516.13 208.25 516.51 207.1 516.51 205.74C516.51 204.4 516.13 203.27 515.37 202.35C514.63 201.41 513.61 200.94 512.31 200.94C511.03 200.94 510.01 201.41 509.25 202.35C508.51 203.27 508.14 204.4 508.14 205.74C508.14 207.1 508.51 208.25 509.25 209.19C510.01 210.11 511.03 210.57 512.31 210.57ZM530.768 213.36C528.848 213.36 527.298 212.57 526.118 210.99V218.52H522.968V198.51H526.118V200.49C527.278 198.93 528.828 198.15 530.768 198.15C532.668 198.15 534.208 198.83 535.388 200.19C536.588 201.55 537.188 203.4 537.188 205.74C537.188 208.08 536.588 209.94 535.388 211.32C534.208 212.68 532.668 213.36 530.768 213.36ZM529.838 210.57C531.078 210.57 532.068 210.12 532.808 209.22C533.548 208.32 533.918 207.16 533.918 205.74C533.918 204.32 533.548 203.17 532.808 202.29C532.068 201.39 531.078 200.94 529.838 200.94C529.118 200.94 528.408 201.13 527.708 201.51C527.008 201.89 526.478 202.35 526.118 202.89V208.62C526.478 209.16 527.008 209.62 527.708 210C528.408 210.38 529.118 210.57 529.838 210.57ZM556.541 213H553.391V202.92L549.071 213H547.811L543.461 202.92V213H540.311V198.51H544.421L548.441 207.87L552.401 198.51H556.541V213ZM572.614 213H569.464V211.44C568.344 212.72 566.784 213.36 564.784 213.36C563.464 213.36 562.294 212.94 561.274 212.1C560.254 211.24 559.744 210.06 559.744 208.56C559.744 207.02 560.244 205.85 561.244 205.05C562.264 204.25 563.444 203.85 564.784 203.85C566.844 203.85 568.404 204.47 569.464 205.71V203.55C569.464 202.71 569.154 202.05 568.534 201.57C567.914 201.09 567.094 200.85 566.074 200.85C564.454 200.85 563.024 201.46 561.784 202.68L560.494 200.49C562.134 198.93 564.164 198.15 566.584 198.15C568.364 198.15 569.814 198.57 570.934 199.41C572.054 200.25 572.614 201.58 572.614 203.4V213ZM566.014 211.2C567.594 211.2 568.744 210.7 569.464 209.7V207.51C568.744 206.51 567.594 206.01 566.014 206.01C565.114 206.01 564.374 206.25 563.794 206.73C563.214 207.21 562.924 207.84 562.924 208.62C562.924 209.4 563.214 210.03 563.794 210.51C564.374 210.97 565.114 211.2 566.014 211.2ZM582.488 213H579.338V201.27H575.198V198.51H586.658V201.27H582.488V213ZM592.267 213H589.237V198.51H592.387V208.26L599.047 198.51H602.197V213H599.047V202.98L592.267 213ZM615.168 213H606.288V198.51H614.958C616.298 198.51 617.348 198.86 618.108 199.56C618.868 200.26 619.248 201.15 619.248 202.23C619.248 203.07 619.018 203.78 618.558 204.36C618.098 204.94 617.518 205.33 616.818 205.53C617.598 205.71 618.248 206.14 618.768 206.82C619.288 207.48 619.548 208.23 619.548 209.07C619.548 210.23 619.158 211.18 618.378 211.92C617.618 212.64 616.548 213 615.168 213ZM614.508 210.24C615.068 210.24 615.508 210.1 615.828 209.82C616.148 209.52 616.308 209.12 616.308 208.62C616.308 208.16 616.148 207.77 615.828 207.45C615.508 207.13 615.068 206.97 614.508 206.97H609.438V210.24H614.508ZM614.418 204.21C614.918 204.21 615.308 204.08 615.588 203.82C615.888 203.54 616.038 203.19 616.038 202.77C616.038 202.31 615.888 201.95 615.588 201.69C615.308 201.41 614.918 201.27 614.418 201.27H609.438V204.21H614.418ZM626.606 213H623.456V198.51H626.606V204.21H633.266V198.51H636.416V213H633.266V206.97H626.606V213ZM640.507 198.51H643.657V203.76H648.787C650.327 203.76 651.507 204.2 652.327 205.08C653.167 205.96 653.587 207.06 653.587 208.38C653.587 209.68 653.157 210.78 652.297 211.68C651.457 212.56 650.287 213 648.787 213H640.507V198.51ZM648.397 206.52H643.657V210.24H648.397C649.017 210.24 649.497 210.07 649.837 209.73C650.197 209.39 650.377 208.94 650.377 208.38C650.377 207.82 650.197 207.37 649.837 207.03C649.497 206.69 649.017 206.52 648.397 206.52ZM658.927 213H655.777V198.51H658.927V213ZM679.237 213H676.087V202.92L671.767 213H670.507L666.157 202.92V213H663.007V198.51H667.117L671.137 207.87L675.097 198.51H679.237V213ZM98.64 251.36C96.44 251.36 94.64 250.65 93.24 249.23C91.84 247.79 91.14 245.96 91.14 243.74C91.14 241.54 91.84 239.73 93.24 238.31C94.64 236.87 96.44 236.15 98.64 236.15C101.06 236.15 102.91 237.01 104.19 238.73L102.12 240.65C101.32 239.51 100.21 238.94 98.79 238.94C97.47 238.94 96.41 239.39 95.61 240.29C94.81 241.17 94.41 242.32 94.41 243.74C94.41 245.16 94.81 246.32 95.61 247.22C96.41 248.12 97.47 248.57 98.79 248.57C100.17 248.57 101.28 248 102.12 246.86L104.19 248.78C102.91 250.5 101.06 251.36 98.64 251.36ZM119.912 251H116.762V239.27H110.102V251H106.952V236.51H119.912V251ZM130.543 251.36C128.303 251.36 126.503 250.63 125.143 249.17C123.783 247.69 123.103 245.88 123.103 243.74C123.103 241.6 123.783 239.8 125.143 238.34C126.503 236.88 128.303 236.15 130.543 236.15C132.803 236.15 134.613 236.88 135.973 238.34C137.333 239.8 138.013 241.6 138.013 243.74C138.013 245.9 137.333 247.71 135.973 249.17C134.613 250.63 132.803 251.36 130.543 251.36ZM130.543 248.57C131.843 248.57 132.863 248.11 133.603 247.19C134.363 246.25 134.743 245.1 134.743 243.74C134.743 242.4 134.363 241.27 133.603 240.35C132.863 239.41 131.843 238.94 130.543 238.94C129.263 238.94 128.243 239.41 127.483 240.35C126.743 241.27 126.373 242.4 126.373 243.74C126.373 245.1 126.743 246.25 127.483 247.19C128.243 248.11 129.263 248.57 130.543 248.57ZM147.8 251.36C145.6 251.36 143.8 250.65 142.4 249.23C141 247.79 140.3 245.96 140.3 243.74C140.3 241.54 141 239.73 142.4 238.31C143.8 236.87 145.6 236.15 147.8 236.15C150.22 236.15 152.07 237.01 153.35 238.73L151.28 240.65C150.48 239.51 149.37 238.94 147.95 238.94C146.63 238.94 145.57 239.39 144.77 240.29C143.97 241.17 143.57 242.32 143.57 243.74C143.57 245.16 143.97 246.32 144.77 247.22C145.57 248.12 146.63 248.57 147.95 248.57C149.33 248.57 150.44 248 151.28 246.86L153.35 248.78C152.07 250.5 150.22 251.36 147.8 251.36ZM162.652 251.36C160.412 251.36 158.612 250.63 157.252 249.17C155.892 247.69 155.212 245.88 155.212 243.74C155.212 241.6 155.892 239.8 157.252 238.34C158.612 236.88 160.412 236.15 162.652 236.15C164.912 236.15 166.722 236.88 168.082 238.34C169.442 239.8 170.122 241.6 170.122 243.74C170.122 245.9 169.442 247.71 168.082 249.17C166.722 250.63 164.912 251.36 162.652 251.36ZM162.652 248.57C163.952 248.57 164.972 248.11 165.712 247.19C166.472 246.25 166.852 245.1 166.852 243.74C166.852 242.4 166.472 241.27 165.712 240.35C164.972 239.41 163.952 238.94 162.652 238.94C161.372 238.94 160.352 239.41 159.592 240.35C158.852 241.27 158.482 242.4 158.482 243.74C158.482 245.1 158.852 246.25 159.592 247.19C160.352 248.11 161.372 248.57 162.652 248.57ZM179.85 248.57C181.15 248.57 182.17 248.1 182.91 247.16C183.67 246.22 184.05 245.06 184.05 243.68C184.05 242.36 183.67 241.24 182.91 240.32C182.17 239.4 181.15 238.94 179.85 238.94C178.57 238.94 177.55 239.4 176.79 240.32C176.05 241.24 175.68 242.36 175.68 243.68C175.68 245.06 176.05 246.22 176.79 247.16C177.55 248.1 178.57 248.57 179.85 248.57ZM185.28 249.14C183.94 250.62 182.13 251.36 179.85 251.36C177.57 251.36 175.76 250.59 174.42 249.05C173.1 247.49 172.44 245.5 172.44 243.08C172.44 239.62 173.03 237.04 174.21 235.34C175.41 233.64 177.25 232.64 179.73 232.34C181.23 232.12 182.26 231.91 182.82 231.71C183.4 231.51 183.69 231.27 183.69 230.99H186.78C186.78 233.09 184.72 234.37 180.6 234.83C178.98 235.01 177.73 235.46 176.85 236.18C175.99 236.88 175.45 237.72 175.23 238.7C175.81 237.9 176.56 237.28 177.48 236.84C178.42 236.38 179.41 236.15 180.45 236.15C182.45 236.15 184.09 236.89 185.37 238.37C186.65 239.85 187.29 241.63 187.29 243.71C187.29 245.85 186.62 247.66 185.28 249.14ZM197.164 251.36C194.924 251.36 193.124 250.63 191.764 249.17C190.404 247.69 189.724 245.88 189.724 243.74C189.724 241.6 190.404 239.8 191.764 238.34C193.124 236.88 194.924 236.15 197.164 236.15C199.424 236.15 201.234 236.88 202.594 238.34C203.954 239.8 204.634 241.6 204.634 243.74C204.634 245.9 203.954 247.71 202.594 249.17C201.234 250.63 199.424 251.36 197.164 251.36ZM197.164 248.57C198.464 248.57 199.484 248.11 200.224 247.19C200.984 246.25 201.364 245.1 201.364 243.74C201.364 242.4 200.984 241.27 200.224 240.35C199.484 239.41 198.464 238.94 197.164 238.94C195.884 238.94 194.864 239.41 194.104 240.35C193.364 241.27 192.994 242.4 192.994 243.74C192.994 245.1 193.364 246.25 194.104 247.19C194.864 248.11 195.884 248.57 197.164 248.57ZM224.051 251H220.901V240.92L216.581 251H215.321L210.971 240.92V251H207.821V236.51H211.931L215.951 245.87L219.911 236.51H224.051V251ZM231.214 250.73C230.794 251.13 230.304 251.33 229.744 251.33C229.184 251.33 228.694 251.13 228.274 250.73C227.854 250.31 227.644 249.81 227.644 249.23C227.644 248.65 227.854 248.16 228.274 247.76C228.694 247.34 229.184 247.13 229.744 247.13C230.304 247.13 230.794 247.34 231.214 247.76C231.634 248.16 231.844 248.65 231.844 249.23C231.844 249.81 231.634 250.31 231.214 250.73Z" fill="black"/>
</svg>
