<svg width="898" height="376" viewBox="0 0 898 376" fill="none" xmlns="http://www.w3.org/2000/svg">
<rect width="861.843" height="298" rx="53.081" fill="#ECE1CF"/>
<path d="M855.16 352.545C858.678 353.685 861.719 350.577 859.579 348.029L856.135 343.926C836.03 319.979 823.688 292.539 820.304 264.268V264.268C820.036 262.032 816.788 260.831 814.662 262.181L762.302 295.419C760.205 296.75 760.084 299.311 762.042 300.926L767.121 305.115C791.973 325.611 821.781 341.719 854.487 352.326L855.16 352.545Z" fill="#ECE1CF"/>
<path d="M69.6879 71H57.5559V46.988H69.3639C71.4999 46.988 73.1679 47.576 74.3679 48.752C75.5919 49.904 76.2039 51.356 76.2039 53.108C76.2039 54.548 75.7959 55.772 74.9799 56.78C74.1879 57.764 73.2039 58.376 72.0279 58.616C73.3239 58.808 74.4159 59.48 75.3039 60.632C76.2159 61.76 76.6719 63.056 76.6719 64.52C76.6719 66.44 76.0479 68 74.7999 69.2C73.5759 70.4 71.8719 71 69.6879 71ZM68.4999 56.924C69.5559 56.924 70.3839 56.636 70.9839 56.06C71.5839 55.484 71.8839 54.74 71.8839 53.828C71.8839 52.892 71.5839 52.136 70.9839 51.56C70.3839 50.984 69.5559 50.696 68.4999 50.696H61.7679V56.924H68.4999ZM68.6799 67.292C69.8319 67.292 70.7319 67.004 71.3799 66.428C72.0279 65.828 72.3519 65 72.3519 63.944C72.3519 63.008 72.0279 62.228 71.3799 61.604C70.7319 60.956 69.8319 60.632 68.6799 60.632H61.7679V67.292H68.6799Z" fill="black"/>
<path d="M97.9578 71.432C95.3178 71.432 93.1578 70.58 91.4778 68.876C89.7978 67.148 88.9578 64.952 88.9578 62.288C88.9578 59.648 89.7978 57.476 91.4778 55.772C93.1578 54.044 95.3178 53.18 97.9578 53.18C100.862 53.18 103.082 54.212 104.618 56.276L102.134 58.58C101.174 57.212 99.8418 56.528 98.1378 56.528C96.5538 56.528 95.2818 57.068 94.3218 58.148C93.3618 59.204 92.8818 60.584 92.8818 62.288C92.8818 63.992 93.3618 65.384 94.3218 66.464C95.2818 67.544 96.5538 68.084 98.1378 68.084C99.7938 68.084 101.126 67.4 102.134 66.032L104.618 68.336C103.082 70.4 100.862 71.432 97.9578 71.432Z" fill="black"/>
<path d="M124.204 71H119.452L114.124 63.836L111.712 66.32V71H107.932V53.612H111.712V62L119.38 53.612H124.06L116.824 61.496L124.204 71Z" fill="black"/>
<path d="M141.282 71H137.502V69.128C136.158 70.664 134.286 71.432 131.886 71.432C130.302 71.432 128.898 70.928 127.674 69.92C126.45 68.888 125.838 67.472 125.838 65.672C125.838 63.824 126.438 62.42 127.638 61.46C128.862 60.5 130.278 60.02 131.886 60.02C134.358 60.02 136.23 60.764 137.502 62.252V59.66C137.502 58.652 137.13 57.86 136.386 57.284C135.642 56.708 134.658 56.42 133.434 56.42C131.49 56.42 129.774 57.152 128.286 58.616L126.738 55.988C128.706 54.116 131.142 53.18 134.046 53.18C136.182 53.18 137.922 53.684 139.266 54.692C140.61 55.7 141.282 57.296 141.282 59.48V71ZM133.362 68.84C135.258 68.84 136.638 68.24 137.502 67.04V64.412C136.638 63.212 135.258 62.612 133.362 62.612C132.282 62.612 131.394 62.9 130.698 63.476C130.002 64.052 129.654 64.808 129.654 65.744C129.654 66.68 130.002 67.436 130.698 68.012C131.394 68.564 132.282 68.84 133.362 68.84Z" fill="black"/>
<path d="M152.446 71.432C149.038 71.432 146.374 70.496 144.454 68.624L146.218 66.212C147.802 67.628 149.878 68.336 152.446 68.336C153.766 68.336 154.798 68.132 155.542 67.724C156.31 67.292 156.694 66.716 156.694 65.996C156.694 64.484 155.17 63.728 152.122 63.728H148.414V60.704H152.122C153.442 60.704 154.474 60.512 155.218 60.128C155.986 59.744 156.37 59.18 156.37 58.436C156.37 57.812 155.974 57.296 155.182 56.888C154.39 56.48 153.394 56.276 152.194 56.276C149.866 56.276 148.006 56.972 146.614 58.364L144.742 56.06C146.59 54.164 149.014 53.216 152.014 53.216C154.582 53.192 156.598 53.612 158.062 54.476C159.55 55.316 160.294 56.468 160.294 57.932C160.294 59.036 159.826 59.972 158.89 60.74C157.978 61.484 156.91 61.94 155.686 62.108C156.91 62.204 158.038 62.612 159.07 63.332C160.126 64.052 160.654 65.036 160.654 66.284C160.654 67.796 159.91 69.032 158.422 69.992C156.958 70.952 154.966 71.432 152.446 71.432Z" fill="black"/>
<path d="M180.736 71H175.984L170.656 63.836L168.244 66.32V71H164.464V53.612H168.244V62L175.912 53.612H180.592L173.356 61.496L180.736 71Z" fill="black"/>
<path d="M187.049 71H183.413V53.612H187.193V65.312L195.185 53.612H198.965V71H195.185V58.976L187.049 71Z" fill="black"/>
<path d="M219.384 71.432C215.976 71.432 213.312 70.496 211.392 68.624L213.156 66.212C214.74 67.628 216.816 68.336 219.384 68.336C220.704 68.336 221.736 68.132 222.48 67.724C223.248 67.292 223.632 66.716 223.632 65.996C223.632 64.484 222.108 63.728 219.06 63.728H215.352V60.704H219.06C220.38 60.704 221.412 60.512 222.156 60.128C222.924 59.744 223.308 59.18 223.308 58.436C223.308 57.812 222.912 57.296 222.12 56.888C221.328 56.48 220.332 56.276 219.132 56.276C216.804 56.276 214.944 56.972 213.552 58.364L211.68 56.06C213.528 54.164 215.952 53.216 218.952 53.216C221.52 53.192 223.536 53.612 225 54.476C226.488 55.316 227.232 56.468 227.232 57.932C227.232 59.036 226.764 59.972 225.828 60.74C224.916 61.484 223.848 61.94 222.624 62.108C223.848 62.204 224.976 62.612 226.008 63.332C227.064 64.052 227.592 65.036 227.592 66.284C227.592 67.796 226.848 69.032 225.36 69.992C223.896 70.952 221.904 71.432 219.384 71.432Z" fill="black"/>
<path d="M245.801 71H242.021V69.128C240.677 70.664 238.805 71.432 236.405 71.432C234.821 71.432 233.417 70.928 232.193 69.92C230.969 68.888 230.357 67.472 230.357 65.672C230.357 63.824 230.957 62.42 232.157 61.46C233.381 60.5 234.797 60.02 236.405 60.02C238.877 60.02 240.749 60.764 242.021 62.252V59.66C242.021 58.652 241.649 57.86 240.905 57.284C240.161 56.708 239.177 56.42 237.953 56.42C236.009 56.42 234.293 57.152 232.805 58.616L231.257 55.988C233.225 54.116 235.661 53.18 238.565 53.18C240.701 53.18 242.441 53.684 243.785 54.692C245.129 55.7 245.801 57.296 245.801 59.48V71ZM237.881 68.84C239.777 68.84 241.157 68.24 242.021 67.04V64.412C241.157 63.212 239.777 62.612 237.881 62.612C236.801 62.612 235.913 62.9 235.217 63.476C234.521 64.052 234.173 64.808 234.173 65.744C234.173 66.68 234.521 67.436 235.217 68.012C235.913 68.564 236.801 68.84 237.881 68.84Z" fill="black"/>
<path d="M248.902 71.432V68.336C249.646 68.336 250.234 67.856 250.666 66.896C251.122 65.936 251.494 64.328 251.782 62.072L252.826 53.612H266.254V71H262.474V56.924H256.174L255.562 62.504C255.226 65.624 254.518 67.892 253.438 69.308C252.358 70.724 250.846 71.432 248.902 71.432Z" fill="black"/>
<path d="M279.011 71.432C276.323 71.432 274.163 70.556 272.531 68.804C270.899 67.028 270.083 64.856 270.083 62.288C270.083 59.72 270.899 57.56 272.531 55.808C274.163 54.056 276.323 53.18 279.011 53.18C281.723 53.18 283.895 54.056 285.527 55.808C287.159 57.56 287.975 59.72 287.975 62.288C287.975 64.88 287.159 67.052 285.527 68.804C283.895 70.556 281.723 71.432 279.011 71.432ZM279.011 68.084C280.571 68.084 281.795 67.532 282.683 66.428C283.595 65.3 284.051 63.92 284.051 62.288C284.051 60.68 283.595 59.324 282.683 58.22C281.795 57.092 280.571 56.528 279.011 56.528C277.475 56.528 276.251 57.092 275.339 58.22C274.451 59.324 274.007 60.68 274.007 62.288C274.007 63.92 274.451 65.3 275.339 66.428C276.251 67.532 277.475 68.084 279.011 68.084Z" fill="black"/>
<path d="M293.054 71H288.302L295.682 61.496L288.446 53.612H293.126L299.354 60.416V53.612H303.134V60.416L309.362 53.612H314.042L306.806 61.496L314.186 71H309.434L304.106 63.836L303.134 64.844V71H299.354V64.844L298.382 63.836L293.054 71Z" fill="black"/>
<path d="M324.718 71.432C322.078 71.432 319.894 70.592 318.166 68.912C316.462 67.208 315.61 65 315.61 62.288C315.61 59.744 316.438 57.596 318.094 55.844C319.774 54.068 321.886 53.18 324.43 53.18C326.998 53.18 329.062 54.068 330.622 55.844C332.206 57.62 332.998 59.888 332.998 62.648V63.548H319.57C319.714 64.916 320.278 66.056 321.262 66.968C322.246 67.88 323.53 68.336 325.114 68.336C326.002 68.336 326.89 68.168 327.778 67.832C328.69 67.496 329.446 67.028 330.046 66.428L331.774 68.912C330.022 70.592 327.67 71.432 324.718 71.432ZM329.326 60.884C329.278 59.684 328.834 58.616 327.994 57.68C327.178 56.744 325.99 56.276 324.43 56.276C322.942 56.276 321.778 56.744 320.938 57.68C320.098 58.592 319.63 59.66 319.534 60.884H329.326Z" fill="black"/>
<path d="M340.509 71H336.729V53.612H340.509V60.452H348.501V53.612H352.281V71H348.501V63.764H340.509V71Z" fill="black"/>
<path d="M357.19 53.612H360.97V59.912H367.126C368.974 59.912 370.39 60.44 371.374 61.496C372.382 62.552 372.886 63.872 372.886 65.456C372.886 67.016 372.37 68.336 371.338 69.416C370.33 70.472 368.926 71 367.126 71H357.19V53.612ZM366.658 63.224H360.97V67.688H366.658C367.402 67.688 367.978 67.484 368.386 67.076C368.818 66.668 369.034 66.128 369.034 65.456C369.034 64.784 368.818 64.244 368.386 63.836C367.978 63.428 367.402 63.224 366.658 63.224ZM379.294 71H375.514V53.612H379.294V71Z" fill="black"/>
<path d="M401.356 71.432C398.716 71.432 396.556 70.58 394.876 68.876C393.196 67.148 392.356 64.952 392.356 62.288C392.356 59.648 393.196 57.476 394.876 55.772C396.556 54.044 398.716 53.18 401.356 53.18C404.26 53.18 406.48 54.212 408.016 56.276L405.532 58.58C404.572 57.212 403.24 56.528 401.536 56.528C399.952 56.528 398.68 57.068 397.72 58.148C396.76 59.204 396.28 60.584 396.28 62.288C396.28 63.992 396.76 65.384 397.72 66.464C398.68 67.544 399.952 68.084 401.536 68.084C403.192 68.084 404.524 67.4 405.532 66.032L408.016 68.336C406.48 70.4 404.26 71.432 401.356 71.432Z" fill="black"/>
<path d="M425.731 71H421.951V69.128C420.607 70.664 418.735 71.432 416.335 71.432C414.751 71.432 413.347 70.928 412.123 69.92C410.899 68.888 410.287 67.472 410.287 65.672C410.287 63.824 410.887 62.42 412.087 61.46C413.311 60.5 414.727 60.02 416.335 60.02C418.807 60.02 420.679 60.764 421.951 62.252V59.66C421.951 58.652 421.579 57.86 420.835 57.284C420.091 56.708 419.107 56.42 417.883 56.42C415.939 56.42 414.223 57.152 412.735 58.616L411.187 55.988C413.155 54.116 415.591 53.18 418.495 53.18C420.631 53.18 422.371 53.684 423.715 54.692C425.059 55.7 425.731 57.296 425.731 59.48V71ZM417.811 68.84C419.707 68.84 421.087 68.24 421.951 67.04V64.412C421.087 63.212 419.707 62.612 417.811 62.612C416.731 62.612 415.843 62.9 415.147 63.476C414.451 64.052 414.103 64.808 414.103 65.744C414.103 66.68 414.451 67.436 415.147 68.012C415.843 68.564 416.731 68.84 417.811 68.84Z" fill="black"/>
<path d="M450.108 71H446.328V58.904L441.143 71H439.632L434.411 58.904V71H430.632V53.612H435.564L440.388 64.844L445.139 53.612H450.108V71Z" fill="black"/>
<path d="M454.995 53.612H458.775V59.912H464.931C466.779 59.912 468.195 60.44 469.179 61.496C470.187 62.552 470.691 63.872 470.691 65.456C470.691 67.016 470.175 68.336 469.143 69.416C468.135 70.472 466.731 71 464.931 71H454.995V53.612ZM464.463 63.224H458.775V67.688H464.463C465.207 67.688 465.783 67.484 466.191 67.076C466.623 66.668 466.839 66.128 466.839 65.456C466.839 64.784 466.623 64.244 466.191 63.836C465.783 63.428 465.207 63.224 464.463 63.224ZM477.099 71H473.319V53.612H477.099V71Z" fill="black"/>
<path d="M490.023 71.432C487.383 71.432 485.199 70.592 483.471 68.912C481.767 67.208 480.915 65 480.915 62.288C480.915 59.744 481.743 57.596 483.399 55.844C485.079 54.068 487.191 53.18 489.735 53.18C492.303 53.18 494.367 54.068 495.927 55.844C497.511 57.62 498.303 59.888 498.303 62.648V63.548H484.875C485.019 64.916 485.583 66.056 486.567 66.968C487.551 67.88 488.835 68.336 490.419 68.336C491.307 68.336 492.195 68.168 493.083 67.832C493.995 67.496 494.751 67.028 495.351 66.428L497.079 68.912C495.327 70.592 492.975 71.432 490.023 71.432ZM494.631 60.884C494.583 59.684 494.139 58.616 493.299 57.68C492.483 56.744 491.295 56.276 489.735 56.276C488.247 56.276 487.083 56.744 486.243 57.68C485.403 58.592 484.935 59.66 484.839 60.884H494.631Z" fill="black"/>
<path d="M519.128 68.084C520.688 68.084 521.912 67.52 522.8 66.392C523.712 65.264 524.168 63.872 524.168 62.216C524.168 60.632 523.712 59.288 522.8 58.184C521.912 57.08 520.688 56.528 519.128 56.528C517.592 56.528 516.368 57.08 515.456 58.184C514.568 59.288 514.124 60.632 514.124 62.216C514.124 63.872 514.568 65.264 515.456 66.392C516.368 67.52 517.592 68.084 519.128 68.084ZM525.644 68.768C524.036 70.544 521.864 71.432 519.128 71.432C516.392 71.432 514.22 70.508 512.612 68.66C511.028 66.788 510.236 64.4 510.236 61.496C510.236 57.344 510.944 54.248 512.36 52.208C513.8 50.168 516.008 48.968 518.984 48.608C520.784 48.344 522.02 48.092 522.692 47.852C523.388 47.612 523.736 47.324 523.736 46.988H527.444C527.444 49.508 524.972 51.044 520.028 51.596C518.084 51.812 516.584 52.352 515.528 53.216C514.496 54.056 513.848 55.064 513.584 56.24C514.28 55.28 515.18 54.536 516.284 54.008C517.412 53.456 518.6 53.18 519.848 53.18C522.248 53.18 524.216 54.068 525.752 55.844C527.288 57.62 528.056 59.756 528.056 62.252C528.056 64.82 527.252 66.992 525.644 68.768Z" fill="black"/>
<path d="M546.457 71H542.677V69.128C541.333 70.664 539.461 71.432 537.061 71.432C535.477 71.432 534.073 70.928 532.849 69.92C531.625 68.888 531.013 67.472 531.013 65.672C531.013 63.824 531.613 62.42 532.813 61.46C534.037 60.5 535.453 60.02 537.061 60.02C539.533 60.02 541.405 60.764 542.677 62.252V59.66C542.677 58.652 542.305 57.86 541.561 57.284C540.817 56.708 539.833 56.42 538.609 56.42C536.665 56.42 534.949 57.152 533.461 58.616L531.913 55.988C533.881 54.116 536.317 53.18 539.221 53.18C541.357 53.18 543.097 53.684 544.441 54.692C545.785 55.7 546.457 57.296 546.457 59.48V71ZM538.537 68.84C540.433 68.84 541.813 68.24 542.677 67.04V64.412C541.813 63.212 540.433 62.612 538.537 62.612C537.457 62.612 536.569 62.9 535.873 63.476C535.177 64.052 534.829 64.808 534.829 65.744C534.829 66.68 535.177 67.436 535.873 68.012C536.569 68.564 537.457 68.84 538.537 68.84Z" fill="black"/>
<path d="M557.622 71.432C554.214 71.432 551.55 70.496 549.63 68.624L551.394 66.212C552.978 67.628 555.054 68.336 557.622 68.336C558.942 68.336 559.974 68.132 560.718 67.724C561.486 67.292 561.87 66.716 561.87 65.996C561.87 64.484 560.346 63.728 557.298 63.728H553.59V60.704H557.298C558.618 60.704 559.65 60.512 560.394 60.128C561.162 59.744 561.546 59.18 561.546 58.436C561.546 57.812 561.15 57.296 560.358 56.888C559.566 56.48 558.57 56.276 557.37 56.276C555.042 56.276 553.182 56.972 551.79 58.364L549.918 56.06C551.766 54.164 554.19 53.216 557.19 53.216C559.758 53.192 561.774 53.612 563.238 54.476C564.726 55.316 565.47 56.468 565.47 57.932C565.47 59.036 565.002 59.972 564.066 60.74C563.154 61.484 562.086 61.94 560.862 62.108C562.086 62.204 563.214 62.612 564.246 63.332C565.302 64.052 565.83 65.036 565.83 66.284C565.83 67.796 565.086 69.032 563.598 69.992C562.134 70.952 560.142 71.432 557.622 71.432Z" fill="black"/>
<path d="M577.487 71.432C574.799 71.432 572.639 70.556 571.007 68.804C569.375 67.028 568.559 64.856 568.559 62.288C568.559 59.72 569.375 57.56 571.007 55.808C572.639 54.056 574.799 53.18 577.487 53.18C580.199 53.18 582.371 54.056 584.003 55.808C585.635 57.56 586.451 59.72 586.451 62.288C586.451 64.88 585.635 67.052 584.003 68.804C582.371 70.556 580.199 71.432 577.487 71.432ZM577.487 68.084C579.047 68.084 580.271 67.532 581.159 66.428C582.071 65.3 582.527 63.92 582.527 62.288C582.527 60.68 582.071 59.324 581.159 58.22C580.271 57.092 579.047 56.528 577.487 56.528C575.951 56.528 574.727 57.092 573.815 58.22C572.927 59.324 572.483 60.68 572.483 62.288C572.483 63.92 572.927 65.3 573.815 66.428C574.727 67.532 575.951 68.084 577.487 68.084Z" fill="black"/>
<path d="M600.932 71H590.276V53.612H600.68C602.288 53.612 603.548 54.032 604.46 54.872C605.372 55.712 605.828 56.78 605.828 58.076C605.828 59.084 605.552 59.936 605 60.632C604.448 61.328 603.752 61.796 602.912 62.036C603.848 62.252 604.628 62.768 605.252 63.584C605.876 64.376 606.188 65.276 606.188 66.284C606.188 67.676 605.72 68.816 604.784 69.704C603.872 70.568 602.588 71 600.932 71ZM600.14 67.688C600.812 67.688 601.34 67.52 601.724 67.184C602.108 66.824 602.3 66.344 602.3 65.744C602.3 65.192 602.108 64.724 601.724 64.34C601.34 63.956 600.812 63.764 600.14 63.764H594.056V67.688H600.14ZM600.032 60.452C600.632 60.452 601.1 60.296 601.436 59.984C601.796 59.648 601.976 59.228 601.976 58.724C601.976 58.172 601.796 57.74 601.436 57.428C601.1 57.092 600.632 56.924 600.032 56.924H594.056V60.452H600.032Z" fill="black"/>
<path d="M610.878 53.612H614.658V59.912H620.814C622.662 59.912 624.078 60.44 625.062 61.496C626.07 62.552 626.574 63.872 626.574 65.456C626.574 67.016 626.058 68.336 625.026 69.416C624.018 70.472 622.614 71 620.814 71H610.878V53.612ZM620.346 63.224H614.658V67.688H620.346C621.09 67.688 621.666 67.484 622.074 67.076C622.506 66.668 622.722 66.128 622.722 65.456C622.722 64.784 622.506 64.244 622.074 63.836C621.666 63.428 621.09 63.224 620.346 63.224ZM632.982 71H629.202V53.612H632.982V71Z" fill="black"/>
<path d="M645.906 71.432C643.266 71.432 641.082 70.592 639.354 68.912C637.65 67.208 636.798 65 636.798 62.288C636.798 59.744 637.626 57.596 639.282 55.844C640.962 54.068 643.074 53.18 645.618 53.18C648.186 53.18 650.25 54.068 651.81 55.844C653.394 57.62 654.186 59.888 654.186 62.648V63.548H640.758C640.902 64.916 641.466 66.056 642.45 66.968C643.434 67.88 644.718 68.336 646.302 68.336C647.19 68.336 648.078 68.168 648.966 67.832C649.878 67.496 650.634 67.028 651.234 66.428L652.962 68.912C651.21 70.592 648.858 71.432 645.906 71.432ZM650.514 60.884C650.466 59.684 650.022 58.616 649.182 57.68C648.366 56.744 647.178 56.276 645.618 56.276C644.13 56.276 642.966 56.744 642.126 57.68C641.286 58.592 640.818 59.66 640.722 60.884H650.514Z" fill="black"/>
<path d="M61.0839 116H57.4479V98.612H61.2279V110.312L69.2199 98.612H72.9999V116H69.2199V103.976L61.0839 116Z" fill="black"/>
<path d="M97.811 116H87.155V98.612H97.559C99.167 98.612 100.427 99.032 101.339 99.872C102.251 100.712 102.707 101.78 102.707 103.076C102.707 104.084 102.431 104.936 101.879 105.632C101.327 106.328 100.631 106.796 99.791 107.036C100.727 107.252 101.507 107.768 102.131 108.584C102.755 109.376 103.067 110.276 103.067 111.284C103.067 112.676 102.599 113.816 101.663 114.704C100.751 115.568 99.467 116 97.811 116ZM97.019 112.688C97.691 112.688 98.219 112.52 98.603 112.184C98.987 111.824 99.179 111.344 99.179 110.744C99.179 110.192 98.987 109.724 98.603 109.34C98.219 108.956 97.691 108.764 97.019 108.764H90.935V112.688H97.019ZM96.911 105.452C97.511 105.452 97.979 105.296 98.315 104.984C98.675 104.648 98.8549 104.228 98.8549 103.724C98.8549 103.172 98.675 102.74 98.315 102.428C97.979 102.092 97.511 101.924 96.911 101.924H90.935V105.452H96.911Z" fill="black"/>
<path d="M122.157 116H118.377V114.128C117.033 115.664 115.161 116.432 112.761 116.432C111.177 116.432 109.773 115.928 108.549 114.92C107.325 113.888 106.713 112.472 106.713 110.672C106.713 108.824 107.313 107.42 108.513 106.46C109.737 105.5 111.153 105.02 112.761 105.02C115.233 105.02 117.105 105.764 118.377 107.252V104.66C118.377 103.652 118.005 102.86 117.261 102.284C116.517 101.708 115.533 101.42 114.309 101.42C112.365 101.42 110.649 102.152 109.161 103.616L107.613 100.988C109.581 99.116 112.017 98.18 114.921 98.18C117.057 98.18 118.797 98.684 120.141 99.692C121.485 100.7 122.157 102.296 122.157 104.48V116ZM114.237 113.84C116.133 113.84 117.513 113.24 118.377 112.04V109.412C117.513 108.212 116.133 107.612 114.237 107.612C113.157 107.612 112.269 107.9 111.573 108.476C110.877 109.052 110.529 109.808 110.529 110.744C110.529 111.68 110.877 112.436 111.573 113.012C112.269 113.564 113.157 113.84 114.237 113.84Z" fill="black"/>
<path d="M129.577 116H124.825L132.205 106.496L124.969 98.612H129.649L135.877 105.416V98.612H139.657V105.416L145.885 98.612H150.565L143.329 106.496L150.709 116H145.957L140.629 108.836L139.657 109.844V116H135.877V109.844L134.905 108.836L129.577 116Z" fill="black"/>
<path d="M157.169 116H153.389V98.612H157.169V105.452H165.161V98.612H168.941V116H165.161V108.764H157.169V116Z" fill="black"/>
<path d="M173.85 98.612H177.63V104.912H183.786C185.634 104.912 187.05 105.44 188.034 106.496C189.042 107.552 189.546 108.872 189.546 110.456C189.546 112.016 189.03 113.336 187.998 114.416C186.99 115.472 185.586 116 183.786 116H173.85V98.612ZM183.318 108.224H177.63V112.688H183.318C184.062 112.688 184.638 112.484 185.046 112.076C185.478 111.668 185.694 111.128 185.694 110.456C185.694 109.784 185.478 109.244 185.046 108.836C184.638 108.428 184.062 108.224 183.318 108.224ZM195.954 116H192.174V98.612H195.954V116Z" fill="black"/>
<path d="M208.878 116.432C206.238 116.432 204.054 115.592 202.326 113.912C200.622 112.208 199.77 110 199.77 107.288C199.77 104.744 200.598 102.596 202.254 100.844C203.934 99.068 206.046 98.18 208.59 98.18C211.158 98.18 213.222 99.068 214.782 100.844C216.366 102.62 217.158 104.888 217.158 107.648V108.548H203.73C203.874 109.916 204.438 111.056 205.422 111.968C206.406 112.88 207.69 113.336 209.274 113.336C210.162 113.336 211.05 113.168 211.938 112.832C212.85 112.496 213.606 112.028 214.206 111.428L215.934 113.912C214.182 115.592 211.83 116.432 208.878 116.432ZM213.486 105.884C213.438 104.684 212.994 103.616 212.154 102.68C211.338 101.744 210.15 101.276 208.59 101.276C207.102 101.276 205.938 101.744 205.098 102.68C204.258 103.592 203.79 104.66 203.694 105.884H213.486Z" fill="black"/>
<path d="M235.211 116.432C232.307 116.432 230.087 115.4 228.551 113.336L230.891 111.14C231.971 112.604 233.351 113.336 235.031 113.336C236.375 113.336 237.491 112.952 238.379 112.184C239.291 111.392 239.879 110.288 240.143 108.872H232.295V105.596H240.107C239.843 104.252 239.255 103.196 238.343 102.428C237.455 101.66 236.351 101.276 235.031 101.276C233.303 101.276 231.923 102.008 230.891 103.472L228.551 101.276C230.087 99.212 232.307 98.18 235.211 98.18C237.851 98.18 240.011 99.044 241.691 100.772C243.371 102.476 244.211 104.648 244.211 107.288C244.211 109.952 243.371 112.148 241.691 113.876C240.011 115.58 237.851 116.432 235.211 116.432Z" fill="black"/>
<path d="M246.23 116.432V113.336C246.974 113.336 247.562 112.856 247.994 111.896C248.45 110.936 248.822 109.328 249.11 107.072L250.154 98.612H263.582V116H259.802V101.924H253.502L252.89 107.504C252.554 110.624 251.846 112.892 250.766 114.308C249.686 115.724 248.174 116.432 246.23 116.432Z" fill="black"/>
<path d="M276.519 116.432C273.879 116.432 271.695 115.592 269.967 113.912C268.263 112.208 267.411 110 267.411 107.288C267.411 104.744 268.239 102.596 269.895 100.844C271.575 99.068 273.687 98.18 276.231 98.18C278.799 98.18 280.863 99.068 282.423 100.844C284.007 102.62 284.799 104.888 284.799 107.648V108.548H271.371C271.515 109.916 272.079 111.056 273.063 111.968C274.047 112.88 275.331 113.336 276.915 113.336C277.803 113.336 278.691 113.168 279.579 112.832C280.491 112.496 281.247 112.028 281.847 111.428L283.575 113.912C281.823 115.592 279.471 116.432 276.519 116.432ZM281.127 105.884C281.079 104.684 280.635 103.616 279.795 102.68C278.979 101.744 277.791 101.276 276.231 101.276C274.743 101.276 273.579 101.744 272.739 102.68C271.899 103.592 271.431 104.66 271.335 105.884H281.127Z" fill="black"/>
<path d="M308.006 116H304.226V103.904L299.042 116H297.53L292.31 103.904V116H288.53V98.612H293.462L298.286 109.844L303.038 98.612H308.006V116Z" fill="black"/>
<path d="M320.921 116.432C318.281 116.432 316.097 115.592 314.369 113.912C312.665 112.208 311.813 110 311.813 107.288C311.813 104.744 312.641 102.596 314.297 100.844C315.977 99.068 318.089 98.18 320.633 98.18C323.201 98.18 325.265 99.068 326.825 100.844C328.409 102.62 329.201 104.888 329.201 107.648V108.548H315.773C315.917 109.916 316.481 111.056 317.465 111.968C318.449 112.88 319.733 113.336 321.317 113.336C322.205 113.336 323.093 113.168 323.981 112.832C324.893 112.496 325.649 112.028 326.249 111.428L327.977 113.912C326.225 115.592 323.873 116.432 320.921 116.432ZM325.529 105.884C325.481 104.684 325.037 103.616 324.197 102.68C323.381 101.744 322.193 101.276 320.633 101.276C319.145 101.276 317.981 101.744 317.141 102.68C316.301 103.592 315.833 104.66 315.737 105.884H325.529Z" fill="black"/>
<path d="M336.712 116H332.932V98.612H336.712V105.452H344.704V98.612H348.484V116H344.704V108.764H336.712V116Z" fill="black"/>
<path d="M360.341 116H356.561V101.924H351.593V98.612H365.345V101.924H360.341V116Z" fill="black"/>
<path d="M368.44 98.612H372.22V104.912H378.376C380.224 104.912 381.64 105.44 382.624 106.496C383.632 107.552 384.136 108.872 384.136 110.456C384.136 112.016 383.62 113.336 382.588 114.416C381.58 115.472 380.176 116 378.376 116H368.44V98.612ZM377.908 108.224H372.22V112.688H377.908C378.652 112.688 379.228 112.484 379.636 112.076C380.068 111.668 380.284 111.128 380.284 110.456C380.284 109.784 380.068 109.244 379.636 108.836C379.228 108.428 378.652 108.224 377.908 108.224ZM390.544 116H386.764V98.612H390.544V116Z" fill="black"/>
<path d="M420.958 116H416.206L410.878 108.836L408.466 111.32V116H404.686V98.612H408.466V107L416.134 98.612H420.814L413.578 106.496L420.958 116Z" fill="black"/>
<path d="M422.879 122.804L423.455 119.42C423.887 119.612 424.367 119.708 424.895 119.708C426.119 119.708 426.947 119.204 427.379 118.196L428.243 116.216L421.115 98.612H425.147L430.223 111.644L435.299 98.612H439.367L430.979 119.132C429.947 121.7 427.955 123.008 425.003 123.056C424.211 123.056 423.503 122.972 422.879 122.804Z" fill="black"/>
<path d="M439.941 116.432V113.336C440.685 113.336 441.273 112.856 441.705 111.896C442.161 110.936 442.533 109.328 442.821 107.072L443.865 98.612H457.293V116H453.513V101.924H447.213L446.601 107.504C446.265 110.624 445.557 112.892 444.477 114.308C443.397 115.724 441.885 116.432 439.941 116.432Z" fill="black"/>
<path d="M462.202 98.612H465.982V104.912H472.138C473.986 104.912 475.402 105.44 476.386 106.496C477.394 107.552 477.898 108.872 477.898 110.456C477.898 112.016 477.382 113.336 476.35 114.416C475.342 115.472 473.938 116 472.138 116H462.202V98.612ZM471.67 108.224H465.982V112.688H471.67C472.414 112.688 472.99 112.484 473.398 112.076C473.83 111.668 474.046 111.128 474.046 110.456C474.046 109.784 473.83 109.244 473.398 108.836C472.99 108.428 472.414 108.224 471.67 108.224Z" fill="black"/>
<path d="M486.974 116H483.194V101.924H478.226V98.612H491.978V101.924H486.974V116Z" fill="black"/>
<path d="M494.317 122.804L494.893 119.42C495.325 119.612 495.805 119.708 496.333 119.708C497.557 119.708 498.385 119.204 498.817 118.196L499.681 116.216L492.553 98.612H496.585L501.661 111.644L506.737 98.612H510.805L502.417 119.132C501.385 121.7 499.393 123.008 496.441 123.056C495.649 123.056 494.941 122.972 494.317 122.804Z" fill="black"/>
<path d="M522.538 116.432C520.234 116.432 518.374 115.484 516.958 113.588V122.624H513.178V98.612H516.958V100.988C518.35 99.116 520.21 98.18 522.538 98.18C524.818 98.18 526.666 98.996 528.082 100.628C529.522 102.26 530.242 104.48 530.242 107.288C530.242 110.096 529.522 112.328 528.082 113.984C526.666 115.616 524.818 116.432 522.538 116.432ZM521.422 113.084C522.91 113.084 524.098 112.544 524.986 111.464C525.874 110.384 526.318 108.992 526.318 107.288C526.318 105.584 525.874 104.204 524.986 103.148C524.098 102.068 522.91 101.528 521.422 101.528C520.558 101.528 519.706 101.756 518.866 102.212C518.026 102.668 517.39 103.22 516.958 103.868V110.744C517.39 111.392 518.026 111.944 518.866 112.4C519.706 112.856 520.558 113.084 521.422 113.084Z" fill="black"/>
<path d="M533.991 98.612H537.771V104.912H543.927C545.775 104.912 547.191 105.44 548.175 106.496C549.183 107.552 549.687 108.872 549.687 110.456C549.687 112.016 549.171 113.336 548.139 114.416C547.131 115.472 545.727 116 543.927 116H533.991V98.612ZM543.459 108.224H537.771V112.688H543.459C544.203 112.688 544.779 112.484 545.187 112.076C545.619 111.668 545.835 111.128 545.835 110.456C545.835 109.784 545.619 109.244 545.187 108.836C544.779 108.428 544.203 108.224 543.459 108.224ZM556.095 116H552.315V98.612H556.095V116Z" fill="black"/>
<path d="M574.017 116H570.237V98.612H574.017V105.452H582.009V98.612H585.789V116H582.009V108.764H574.017V116Z" fill="black"/>
<path d="M605.098 116H601.318V114.128C599.974 115.664 598.102 116.432 595.702 116.432C594.118 116.432 592.714 115.928 591.49 114.92C590.266 113.888 589.654 112.472 589.654 110.672C589.654 108.824 590.254 107.42 591.454 106.46C592.678 105.5 594.094 105.02 595.702 105.02C598.174 105.02 600.046 105.764 601.318 107.252V104.66C601.318 103.652 600.946 102.86 600.202 102.284C599.458 101.708 598.474 101.42 597.25 101.42C595.306 101.42 593.59 102.152 592.102 103.616L590.554 100.988C592.522 99.116 594.958 98.18 597.862 98.18C599.998 98.18 601.738 98.684 603.082 99.692C604.426 100.7 605.098 102.296 605.098 104.48V116ZM597.178 113.84C599.074 113.84 600.454 113.24 601.318 112.04V109.412C600.454 108.212 599.074 107.612 597.178 107.612C596.098 107.612 595.21 107.9 594.514 108.476C593.818 109.052 593.47 109.808 593.47 110.744C593.47 111.68 593.818 112.436 594.514 113.012C595.21 113.564 596.098 113.84 597.178 113.84Z" fill="black"/>
<path d="M619.359 116.432C617.055 116.432 615.195 115.484 613.779 113.588V122.624H609.999V98.612H613.779V100.988C615.171 99.116 617.031 98.18 619.359 98.18C621.639 98.18 623.487 98.996 624.903 100.628C626.343 102.26 627.063 104.48 627.063 107.288C627.063 110.096 626.343 112.328 624.903 113.984C623.487 115.616 621.639 116.432 619.359 116.432ZM618.243 113.084C619.731 113.084 620.919 112.544 621.807 111.464C622.695 110.384 623.139 108.992 623.139 107.288C623.139 105.584 622.695 104.204 621.807 103.148C620.919 102.068 619.731 101.528 618.243 101.528C617.379 101.528 616.527 101.756 615.687 102.212C614.847 102.668 614.211 103.22 613.779 103.868V110.744C614.211 111.392 614.847 111.944 615.687 112.4C616.527 112.856 617.379 113.084 618.243 113.084Z" fill="black"/>
<path d="M638.659 116.432C635.971 116.432 633.811 115.556 632.179 113.804C630.547 112.028 629.731 109.856 629.731 107.288C629.731 104.72 630.547 102.56 632.179 100.808C633.811 99.056 635.971 98.18 638.659 98.18C641.371 98.18 643.543 99.056 645.175 100.808C646.807 102.56 647.623 104.72 647.623 107.288C647.623 109.88 646.807 112.052 645.175 113.804C643.543 115.556 641.371 116.432 638.659 116.432ZM638.659 113.084C640.219 113.084 641.443 112.532 642.331 111.428C643.243 110.3 643.699 108.92 643.699 107.288C643.699 105.68 643.243 104.324 642.331 103.22C641.443 102.092 640.219 101.528 638.659 101.528C637.123 101.528 635.899 102.092 634.987 103.22C634.099 104.324 633.655 105.68 633.655 107.288C633.655 108.92 634.099 110.3 634.987 111.428C635.899 112.532 637.123 113.084 638.659 113.084Z" fill="black"/>
<path d="M649.648 120.428V112.868C650.464 112.676 651.076 112.208 651.484 111.464C651.916 110.696 652.264 109.232 652.528 107.072L653.572 98.612H667V112.688H668.908V120.428H665.128V116H653.428V120.428H649.648ZM656.92 101.924L656.308 107.504C656.068 109.808 655.3 111.536 654.004 112.688H663.22V101.924H656.92Z" fill="black"/>
<path d="M686.414 116H682.634V114.128C681.29 115.664 679.418 116.432 677.018 116.432C675.434 116.432 674.03 115.928 672.806 114.92C671.582 113.888 670.97 112.472 670.97 110.672C670.97 108.824 671.57 107.42 672.77 106.46C673.994 105.5 675.41 105.02 677.018 105.02C679.49 105.02 681.362 105.764 682.634 107.252V104.66C682.634 103.652 682.262 102.86 681.518 102.284C680.774 101.708 679.79 101.42 678.566 101.42C676.622 101.42 674.906 102.152 673.418 103.616L671.87 100.988C673.838 99.116 676.274 98.18 679.178 98.18C681.314 98.18 683.054 98.684 684.398 99.692C685.742 100.7 686.414 102.296 686.414 104.48V116ZM678.494 113.84C680.39 113.84 681.77 113.24 682.634 112.04V109.412C681.77 108.212 680.39 107.612 678.494 107.612C677.414 107.612 676.526 107.9 675.83 108.476C675.134 109.052 674.786 109.808 674.786 110.744C674.786 111.68 675.134 112.436 675.83 113.012C676.526 113.564 677.414 113.84 678.494 113.84Z" fill="black"/>
<path d="M695.995 114.632C695.995 115.832 695.683 116.972 695.059 118.052C694.459 119.156 693.643 120.068 692.611 120.788L690.919 119.384C691.519 119.024 692.071 118.52 692.575 117.872C693.079 117.224 693.391 116.6 693.511 116C693.295 116.072 693.091 116.108 692.899 116.108C692.275 116.108 691.759 115.904 691.351 115.496C690.943 115.064 690.739 114.512 690.739 113.84C690.739 113.168 690.979 112.592 691.459 112.112C691.939 111.608 692.515 111.356 693.187 111.356C693.955 111.356 694.615 111.656 695.167 112.256C695.719 112.832 695.995 113.624 695.995 114.632Z" fill="black"/>
<path d="M717.413 116.432C714.773 116.432 712.589 115.592 710.861 113.912C709.157 112.208 708.305 110 708.305 107.288C708.305 104.744 709.133 102.596 710.789 100.844C712.469 99.068 714.581 98.18 717.125 98.18C719.693 98.18 721.757 99.068 723.317 100.844C724.901 102.62 725.693 104.888 725.693 107.648V108.548H712.265C712.409 109.916 712.973 111.056 713.957 111.968C714.941 112.88 716.225 113.336 717.809 113.336C718.697 113.336 719.585 113.168 720.473 112.832C721.385 112.496 722.141 112.028 722.741 111.428L724.469 113.912C722.717 115.592 720.365 116.432 717.413 116.432ZM722.021 105.884C721.973 104.684 721.529 103.616 720.689 102.68C719.873 101.744 718.685 101.276 717.125 101.276C715.637 101.276 714.473 101.744 713.633 102.68C712.793 103.592 712.325 104.66 712.229 105.884H722.021Z" fill="black"/>
<path d="M742.601 98.612V101.924H733.205V116H729.424V98.612H742.601Z" fill="black"/>
<path d="M753.55 116.432C750.862 116.432 748.702 115.556 747.07 113.804C745.438 112.028 744.622 109.856 744.622 107.288C744.622 104.72 745.438 102.56 747.07 100.808C748.702 99.056 750.862 98.18 753.55 98.18C756.262 98.18 758.434 99.056 760.066 100.808C761.698 102.56 762.514 104.72 762.514 107.288C762.514 109.88 761.698 112.052 760.066 113.804C758.434 115.556 756.262 116.432 753.55 116.432ZM753.55 113.084C755.11 113.084 756.334 112.532 757.222 111.428C758.134 110.3 758.59 108.92 758.59 107.288C758.59 105.68 758.134 104.324 757.222 103.22C756.334 102.092 755.11 101.528 753.55 101.528C752.014 101.528 750.79 102.092 749.878 103.22C748.99 104.324 748.546 105.68 748.546 107.288C748.546 108.92 748.99 110.3 749.878 111.428C750.79 112.532 752.014 113.084 753.55 113.084Z" fill="black"/>
<path d="M71.1279 165.428V161H57.4479V143.612H61.2279V157.688H69.2199V143.612H72.9999V157.688H74.9079V165.428H71.1279Z" fill="black"/>
<path d="M86.0423 161.432C83.4023 161.432 81.2183 160.592 79.4903 158.912C77.7863 157.208 76.9343 155 76.9343 152.288C76.9343 149.744 77.7623 147.596 79.4183 145.844C81.0983 144.068 83.2103 143.18 85.7543 143.18C88.3223 143.18 90.3863 144.068 91.9463 145.844C93.5303 147.62 94.3223 149.888 94.3223 152.648V153.548H80.8943C81.0383 154.916 81.6023 156.056 82.5863 156.968C83.5703 157.88 84.8543 158.336 86.4383 158.336C87.3263 158.336 88.2143 158.168 89.1023 157.832C90.0143 157.496 90.7703 157.028 91.3703 156.428L93.0983 158.912C91.3463 160.592 88.9943 161.432 86.0423 161.432ZM90.6503 150.884C90.6023 149.684 90.1583 148.616 89.3183 147.68C88.5023 146.744 87.3143 146.276 85.7543 146.276C84.2663 146.276 83.1023 146.744 82.2623 147.68C81.4223 148.592 80.9543 149.66 80.8583 150.884H90.6503Z" fill="black"/>
<path d="M101.833 161H98.0534V143.612H101.833V150.452H109.825V143.612H113.605V161H109.825V153.764H101.833V161Z" fill="black"/>
<path d="M122.294 161H118.514V143.612H122.294V150.452H130.286V143.612H134.066V161H130.286V153.764H122.294V161Z" fill="black"/>
<path d="M146.823 161.432C144.135 161.432 141.975 160.556 140.343 158.804C138.711 157.028 137.895 154.856 137.895 152.288C137.895 149.72 138.711 147.56 140.343 145.808C141.975 144.056 144.135 143.18 146.823 143.18C149.535 143.18 151.707 144.056 153.339 145.808C154.971 147.56 155.787 149.72 155.787 152.288C155.787 154.88 154.971 157.052 153.339 158.804C151.707 160.556 149.535 161.432 146.823 161.432ZM146.823 158.084C148.383 158.084 149.607 157.532 150.495 156.428C151.407 155.3 151.863 153.92 151.863 152.288C151.863 150.68 151.407 149.324 150.495 148.22C149.607 147.092 148.383 146.528 146.823 146.528C145.287 146.528 144.063 147.092 143.151 148.22C142.263 149.324 141.819 150.68 141.819 152.288C141.819 153.92 142.263 155.3 143.151 156.428C144.063 157.532 145.287 158.084 146.823 158.084Z" fill="black"/>
<path d="M167.532 161.432C164.892 161.432 162.732 160.58 161.052 158.876C159.372 157.148 158.532 154.952 158.532 152.288C158.532 149.648 159.372 147.476 161.052 145.772C162.732 144.044 164.892 143.18 167.532 143.18C170.436 143.18 172.656 144.212 174.192 146.276L171.708 148.58C170.748 147.212 169.416 146.528 167.712 146.528C166.128 146.528 164.856 147.068 163.896 148.148C162.936 149.204 162.456 150.584 162.456 152.288C162.456 153.992 162.936 155.384 163.896 156.464C164.856 157.544 166.128 158.084 167.712 158.084C169.368 158.084 170.7 157.4 171.708 156.032L174.192 158.336C172.656 160.4 170.436 161.432 167.532 161.432Z" fill="black"/>
<path d="M184.455 161H180.675V146.924H175.707V143.612H189.459V146.924H184.455V161Z" fill="black"/>
<path d="M196.189 161H192.553V143.612H196.333V155.312L204.325 143.612H208.105V161H204.325V148.976L196.189 161Z" fill="black"/>
<path d="M225.896 161H222.26V143.612H226.04V155.312L234.032 143.612H237.812V161H234.032V148.976L225.896 161Z" fill="black"/>
<path d="M258.915 161H255.135V146.924H250.167V143.612H263.919V146.924H258.915V161Z" fill="black"/>
<path d="M276.374 161.432C274.07 161.432 272.21 160.484 270.794 158.588V167.624H267.014V143.612H270.794V145.988C272.186 144.116 274.046 143.18 276.374 143.18C278.654 143.18 280.502 143.996 281.918 145.628C283.358 147.26 284.078 149.48 284.078 152.288C284.078 155.096 283.358 157.328 281.918 158.984C280.502 160.616 278.654 161.432 276.374 161.432ZM275.258 158.084C276.746 158.084 277.934 157.544 278.822 156.464C279.71 155.384 280.154 153.992 280.154 152.288C280.154 150.584 279.71 149.204 278.822 148.148C277.934 147.068 276.746 146.528 275.258 146.528C274.394 146.528 273.542 146.756 272.702 147.212C271.862 147.668 271.226 148.22 270.794 148.868V155.744C271.226 156.392 271.862 156.944 272.702 157.4C273.542 157.856 274.394 158.084 275.258 158.084Z" fill="black"/>
<path d="M302.227 161H298.447V159.128C297.103 160.664 295.231 161.432 292.831 161.432C291.247 161.432 289.843 160.928 288.619 159.92C287.395 158.888 286.783 157.472 286.783 155.672C286.783 153.824 287.383 152.42 288.583 151.46C289.807 150.5 291.223 150.02 292.831 150.02C295.303 150.02 297.175 150.764 298.447 152.252V149.66C298.447 148.652 298.075 147.86 297.331 147.284C296.587 146.708 295.603 146.42 294.379 146.42C292.435 146.42 290.719 147.152 289.231 148.616L287.683 145.988C289.651 144.116 292.087 143.18 294.991 143.18C297.127 143.18 298.867 143.684 300.211 144.692C301.555 145.7 302.227 147.296 302.227 149.48V161ZM294.307 158.84C296.203 158.84 297.583 158.24 298.447 157.04V154.412C297.583 153.212 296.203 152.612 294.307 152.612C293.227 152.612 292.339 152.9 291.643 153.476C290.947 154.052 290.599 154.808 290.599 155.744C290.599 156.68 290.947 157.436 291.643 158.012C292.339 158.564 293.227 158.84 294.307 158.84Z" fill="black"/>
<path d="M305.328 165.428V157.868C306.144 157.676 306.756 157.208 307.164 156.464C307.596 155.696 307.944 154.232 308.208 152.072L309.252 143.612H322.68V157.688H324.588V165.428H320.808V161H309.108V165.428H305.328ZM312.6 146.924L311.988 152.504C311.748 154.808 310.98 156.536 309.684 157.688H318.9V146.924H312.6Z" fill="black"/>
<path d="M331.33 161H327.694V143.612H331.474V155.312L339.466 143.612H343.246V161H339.466V148.976L331.33 161Z" fill="black"/>
<path d="M361.835 165.428V161H348.155V143.612H351.935V157.688H359.927V143.612H363.707V157.688H365.615V165.428H361.835Z" fill="black"/>
<path d="M372.357 161H368.721V143.612H372.501V155.312L380.493 143.612H384.273V161H380.493V148.976L372.357 161Z" fill="black"/>
<path d="M392.818 161H389.182V143.612H392.962V155.312L400.954 143.612H404.734V161H400.954V148.976L392.818 161Z" fill="black"/>
<path d="M445.349 153.908H417.521V150.668H445.349V153.908Z" fill="black"/>
<path d="M477.6 161H473.82V148.904L468.636 161H467.124L461.904 148.904V161H458.124V143.612H463.056L467.88 154.844L472.632 143.612H477.6V161Z" fill="black"/>
<path d="M482.487 143.612H486.267V149.912H492.423C494.271 149.912 495.687 150.44 496.671 151.496C497.679 152.552 498.183 153.872 498.183 155.456C498.183 157.016 497.667 158.336 496.635 159.416C495.627 160.472 494.223 161 492.423 161H482.487V143.612ZM491.955 153.224H486.267V157.688H491.955C492.699 157.688 493.275 157.484 493.683 157.076C494.115 156.668 494.331 156.128 494.331 155.456C494.331 154.784 494.115 154.244 493.683 153.836C493.275 153.428 492.699 153.224 491.955 153.224ZM504.591 161H500.811V143.612H504.591V161Z" fill="black"/>
<path d="M534.285 161H530.505V146.924H522.513V161H518.733V143.612H534.285V161Z" fill="black"/>
<path d="M547.042 161.432C544.354 161.432 542.194 160.556 540.562 158.804C538.93 157.028 538.114 154.856 538.114 152.288C538.114 149.72 538.93 147.56 540.562 145.808C542.194 144.056 544.354 143.18 547.042 143.18C549.754 143.18 551.926 144.056 553.558 145.808C555.19 147.56 556.006 149.72 556.006 152.288C556.006 154.88 555.19 157.052 553.558 158.804C551.926 160.556 549.754 161.432 547.042 161.432ZM547.042 158.084C548.602 158.084 549.826 157.532 550.714 156.428C551.626 155.3 552.082 153.92 552.082 152.288C552.082 150.68 551.626 149.324 550.714 148.22C549.826 147.092 548.602 146.528 547.042 146.528C545.506 146.528 544.282 147.092 543.37 148.22C542.482 149.324 542.038 150.68 542.038 152.288C542.038 153.92 542.482 155.3 543.37 156.428C544.282 157.532 545.506 158.084 547.042 158.084Z" fill="black"/>
<path d="M567.751 161.432C565.111 161.432 562.951 160.58 561.271 158.876C559.591 157.148 558.751 154.952 558.751 152.288C558.751 149.648 559.591 147.476 561.271 145.772C562.951 144.044 565.111 143.18 567.751 143.18C570.655 143.18 572.875 144.212 574.411 146.276L571.927 148.58C570.967 147.212 569.635 146.528 567.931 146.528C566.347 146.528 565.075 147.068 564.115 148.148C563.155 149.204 562.675 150.584 562.675 152.288C562.675 153.992 563.155 155.384 564.115 156.464C565.075 157.544 566.347 158.084 567.931 158.084C569.587 158.084 570.919 157.4 571.927 156.032L574.411 158.336C572.875 160.4 570.655 161.432 567.751 161.432Z" fill="black"/>
<path d="M584.673 161H580.893V146.924H575.925V143.612H589.677V146.924H584.673V161Z" fill="black"/>
<path d="M607.172 161H603.392V159.128C602.048 160.664 600.176 161.432 597.776 161.432C596.192 161.432 594.788 160.928 593.564 159.92C592.34 158.888 591.728 157.472 591.728 155.672C591.728 153.824 592.328 152.42 593.528 151.46C594.752 150.5 596.168 150.02 597.776 150.02C600.248 150.02 602.12 150.764 603.392 152.252V149.66C603.392 148.652 603.02 147.86 602.276 147.284C601.532 146.708 600.548 146.42 599.324 146.42C597.38 146.42 595.664 147.152 594.176 148.616L592.628 145.988C594.596 144.116 597.032 143.18 599.936 143.18C602.072 143.18 603.812 143.684 605.156 144.692C606.5 145.7 607.172 147.296 607.172 149.48V161ZM599.252 158.84C601.148 158.84 602.528 158.24 603.392 157.04V154.412C602.528 153.212 601.148 152.612 599.252 152.612C598.172 152.612 597.284 152.9 596.588 153.476C595.892 154.052 595.544 154.808 595.544 155.744C595.544 156.68 595.892 157.436 596.588 158.012C597.284 158.564 598.172 158.84 599.252 158.84Z" fill="black"/>
<path d="M621.433 161.432C619.129 161.432 617.269 160.484 615.853 158.588V167.624H612.073V143.612H615.853V145.988C617.245 144.116 619.105 143.18 621.433 143.18C623.713 143.18 625.561 143.996 626.977 145.628C628.417 147.26 629.137 149.48 629.137 152.288C629.137 155.096 628.417 157.328 626.977 158.984C625.561 160.616 623.713 161.432 621.433 161.432ZM620.317 158.084C621.805 158.084 622.993 157.544 623.881 156.464C624.769 155.384 625.213 153.992 625.213 152.288C625.213 150.584 624.769 149.204 623.881 148.148C622.993 147.068 621.805 146.528 620.317 146.528C619.453 146.528 618.601 146.756 617.761 147.212C616.921 147.668 616.285 148.22 615.853 148.868V155.744C616.285 156.392 616.921 156.944 617.761 157.4C618.601 157.856 619.453 158.084 620.317 158.084Z" fill="black"/>
<path d="M647.285 161H643.505V159.128C642.161 160.664 640.289 161.432 637.889 161.432C636.305 161.432 634.901 160.928 633.677 159.92C632.453 158.888 631.841 157.472 631.841 155.672C631.841 153.824 632.441 152.42 633.641 151.46C634.865 150.5 636.281 150.02 637.889 150.02C640.361 150.02 642.233 150.764 643.505 152.252V149.66C643.505 148.652 643.133 147.86 642.389 147.284C641.645 146.708 640.661 146.42 639.437 146.42C637.493 146.42 635.777 147.152 634.289 148.616L632.741 145.988C634.709 144.116 637.145 143.18 640.049 143.18C642.185 143.18 643.925 143.684 645.269 144.692C646.613 145.7 647.285 147.296 647.285 149.48V161ZM639.365 158.84C641.261 158.84 642.641 158.24 643.505 157.04V154.412C642.641 153.212 641.261 152.612 639.365 152.612C638.285 152.612 637.397 152.9 636.701 153.476C636.005 154.052 635.657 154.808 635.657 155.744C635.657 156.68 636.005 157.436 636.701 158.012C637.397 158.564 638.285 158.84 639.365 158.84Z" fill="black"/>
<path d="M650.386 161.432V158.336C651.13 158.336 651.718 157.856 652.15 156.896C652.606 155.936 652.978 154.328 653.266 152.072L654.31 143.612H667.738V161H663.958V146.924H657.658L657.046 152.504C656.71 155.624 656.002 157.892 654.922 159.308C653.842 160.724 652.33 161.432 650.386 161.432Z" fill="black"/>
<path d="M676.283 161H672.647V143.612H676.427V155.312L684.419 143.612H688.199V161H684.419V148.976L676.283 161Z" fill="black"/>
<path d="M701.028 161.432C698.388 161.432 696.228 160.58 694.548 158.876C692.868 157.148 692.028 154.952 692.028 152.288C692.028 149.648 692.868 147.476 694.548 145.772C696.228 144.044 698.388 143.18 701.028 143.18C703.932 143.18 706.152 144.212 707.688 146.276L705.204 148.58C704.244 147.212 702.912 146.528 701.208 146.528C699.624 146.528 698.352 147.068 697.392 148.148C696.432 149.204 695.952 150.584 695.952 152.288C695.952 153.992 696.432 155.384 697.392 156.464C698.352 157.544 699.624 158.084 701.208 158.084C702.864 158.084 704.196 157.4 705.204 156.032L707.688 158.336C706.152 160.4 703.932 161.432 701.028 161.432Z" fill="black"/>
<path d="M711.003 143.612H714.783V149.912H720.939C722.787 149.912 724.203 150.44 725.187 151.496C726.195 152.552 726.699 153.872 726.699 155.456C726.699 157.016 726.183 158.336 725.151 159.416C724.143 160.472 722.739 161 720.939 161H711.003V143.612ZM720.471 153.224H714.783V157.688H720.471C721.215 157.688 721.791 157.484 722.199 157.076C722.631 156.668 722.847 156.128 722.847 155.456C722.847 154.784 722.631 154.244 722.199 153.836C721.791 153.428 721.215 153.224 720.471 153.224Z" fill="black"/>
<path d="M65.3679 206.432C62.7279 206.432 60.5679 205.58 58.8879 203.876C57.2079 202.148 56.3679 199.952 56.3679 197.288C56.3679 194.648 57.2079 192.476 58.8879 190.772C60.5679 189.044 62.7279 188.18 65.3679 188.18C68.2719 188.18 70.4919 189.212 72.0279 191.276L69.5439 193.58C68.5839 192.212 67.2519 191.528 65.5479 191.528C63.9639 191.528 62.6919 192.068 61.7319 193.148C60.7719 194.204 60.2919 195.584 60.2919 197.288C60.2919 198.992 60.7719 200.384 61.7319 201.464C62.6919 202.544 63.9639 203.084 65.5479 203.084C67.2039 203.084 68.5359 202.4 69.5439 201.032L72.0279 203.336C70.4919 205.4 68.2719 206.432 65.3679 206.432Z" fill="black"/>
<path d="M73.5425 210.428V202.868C74.3585 202.676 74.9705 202.208 75.3785 201.464C75.8105 200.696 76.1585 199.232 76.4225 197.072L77.4665 188.612H90.8945V202.688H92.8025V210.428H89.0225V206H77.3225V210.428H73.5425ZM80.8145 191.924L80.2025 197.504C79.9625 199.808 79.1945 201.536 77.8985 202.688H87.1145V191.924H80.8145Z" fill="black"/>
<path d="M103.937 206.432C101.297 206.432 99.1129 205.592 97.3849 203.912C95.6809 202.208 94.8289 200 94.8289 197.288C94.8289 194.744 95.6569 192.596 97.3129 190.844C98.9929 189.068 101.105 188.18 103.649 188.18C106.217 188.18 108.281 189.068 109.841 190.844C111.425 192.62 112.217 194.888 112.217 197.648V198.548H98.7889C98.9329 199.916 99.4969 201.056 100.481 201.968C101.465 202.88 102.749 203.336 104.333 203.336C105.221 203.336 106.109 203.168 106.997 202.832C107.909 202.496 108.665 202.028 109.265 201.428L110.993 203.912C109.241 205.592 106.889 206.432 103.937 206.432ZM108.545 195.884C108.497 194.684 108.053 193.616 107.213 192.68C106.397 191.744 105.209 191.276 103.649 191.276C102.161 191.276 100.997 191.744 100.157 192.68C99.3169 193.592 98.8489 194.66 98.7529 195.884H108.545Z" fill="black"/>
<path d="M114.148 206.432V203.336C114.892 203.336 115.48 202.856 115.912 201.896C116.368 200.936 116.74 199.328 117.028 197.072L118.072 188.612H131.5V206H127.72V191.924H121.42L120.808 197.504C120.472 200.624 119.764 202.892 118.684 204.308C117.604 205.724 116.092 206.432 114.148 206.432Z" fill="black"/>
<path d="M150.809 206H147.029V204.128C145.685 205.664 143.813 206.432 141.413 206.432C139.829 206.432 138.425 205.928 137.201 204.92C135.977 203.888 135.365 202.472 135.365 200.672C135.365 198.824 135.965 197.42 137.165 196.46C138.389 195.5 139.805 195.02 141.413 195.02C143.885 195.02 145.757 195.764 147.029 197.252V194.66C147.029 193.652 146.657 192.86 145.913 192.284C145.169 191.708 144.185 191.42 142.961 191.42C141.017 191.42 139.301 192.152 137.813 193.616L136.265 190.988C138.233 189.116 140.669 188.18 143.573 188.18C145.709 188.18 147.449 188.684 148.793 189.692C150.137 190.7 150.809 192.296 150.809 194.48V206ZM142.889 203.84C144.785 203.84 146.165 203.24 147.029 202.04V199.412C146.165 198.212 144.785 197.612 142.889 197.612C141.809 197.612 140.921 197.9 140.225 198.476C139.529 199.052 139.181 199.808 139.181 200.744C139.181 201.68 139.529 202.436 140.225 203.012C140.921 203.564 141.809 203.84 142.889 203.84Z" fill="black"/>
<path d="M162.658 206H158.878V191.924H153.91V188.612H167.662V191.924H162.658V206Z" fill="black"/>
<path d="M170.757 188.612H174.537V194.912H180.693C182.541 194.912 183.957 195.44 184.941 196.496C185.949 197.552 186.453 198.872 186.453 200.456C186.453 202.016 185.937 203.336 184.905 204.416C183.897 205.472 182.493 206 180.693 206H170.757V188.612ZM180.225 198.224H174.537V202.688H180.225C180.969 202.688 181.545 202.484 181.953 202.076C182.385 201.668 182.601 201.128 182.601 200.456C182.601 199.784 182.385 199.244 181.953 198.836C181.545 198.428 180.969 198.224 180.225 198.224Z" fill="black"/>
<path d="M206.392 206H202.612V191.924H197.644V188.612H211.396V191.924H206.392V206Z" fill="black"/>
<path d="M228.891 206H225.111V204.128C223.767 205.664 221.895 206.432 219.495 206.432C217.911 206.432 216.507 205.928 215.283 204.92C214.059 203.888 213.447 202.472 213.447 200.672C213.447 198.824 214.047 197.42 215.247 196.46C216.471 195.5 217.887 195.02 219.495 195.02C221.967 195.02 223.839 195.764 225.111 197.252V194.66C225.111 193.652 224.739 192.86 223.995 192.284C223.251 191.708 222.267 191.42 221.043 191.42C219.099 191.42 217.383 192.152 215.895 193.616L214.347 190.988C216.315 189.116 218.751 188.18 221.655 188.18C223.791 188.18 225.531 188.684 226.875 189.692C228.219 190.7 228.891 192.296 228.891 194.48V206ZM220.971 203.84C222.867 203.84 224.247 203.24 225.111 202.04V199.412C224.247 198.212 222.867 197.612 220.971 197.612C219.891 197.612 219.003 197.9 218.307 198.476C217.611 199.052 217.263 199.808 217.263 200.744C217.263 201.68 217.611 202.436 218.307 203.012C219.003 203.564 219.891 203.84 220.971 203.84Z" fill="black"/>
<path d="M250.064 206H245.312L239.984 198.836L237.572 201.32V206H233.792V188.612H237.572V197L245.24 188.612H249.92L242.684 196.496L250.064 206Z" fill="black"/>
<path d="M257.421 204.632C257.421 205.832 257.109 206.972 256.485 208.052C255.885 209.156 255.069 210.068 254.037 210.788L252.345 209.384C252.945 209.024 253.497 208.52 254.001 207.872C254.505 207.224 254.817 206.6 254.937 206C254.721 206.072 254.517 206.108 254.325 206.108C253.701 206.108 253.185 205.904 252.777 205.496C252.369 205.064 252.165 204.512 252.165 203.84C252.165 203.168 252.405 202.592 252.885 202.112C253.365 201.608 253.941 201.356 254.613 201.356C255.381 201.356 256.041 201.656 256.593 202.256C257.145 202.832 257.421 203.624 257.421 204.632Z" fill="black"/>
<path d="M270.199 188.612H273.979V193.292C273.979 194.588 274.303 195.5 274.951 196.028C275.623 196.556 276.679 196.82 278.119 196.82C279.679 196.82 280.951 196.604 281.935 196.172V188.612H285.715V206H281.935V199.232C280.687 199.856 279.019 200.168 276.931 200.168C274.555 200.168 272.839 199.712 271.783 198.8C270.727 197.888 270.199 196.508 270.199 194.66V188.612Z" fill="black"/>
<path d="M297.552 206H293.772V191.924H288.804V188.612H302.556V191.924H297.552V206Z" fill="black"/>
<path d="M313.499 206.432C310.811 206.432 308.651 205.556 307.019 203.804C305.387 202.028 304.571 199.856 304.571 197.288C304.571 194.72 305.387 192.56 307.019 190.808C308.651 189.056 310.811 188.18 313.499 188.18C316.211 188.18 318.383 189.056 320.015 190.808C321.647 192.56 322.463 194.72 322.463 197.288C322.463 199.88 321.647 202.052 320.015 203.804C318.383 205.556 316.211 206.432 313.499 206.432ZM313.499 203.084C315.059 203.084 316.283 202.532 317.171 201.428C318.083 200.3 318.539 198.92 318.539 197.288C318.539 195.68 318.083 194.324 317.171 193.22C316.283 192.092 315.059 191.528 313.499 191.528C311.963 191.528 310.739 192.092 309.827 193.22C308.939 194.324 308.495 195.68 308.495 197.288C308.495 198.92 308.939 200.3 309.827 201.428C310.739 202.532 311.963 203.084 313.499 203.084Z" fill="black"/>
<path d="M334.136 203.084C335.696 203.084 336.92 202.52 337.808 201.392C338.72 200.264 339.176 198.872 339.176 197.216C339.176 195.632 338.72 194.288 337.808 193.184C336.92 192.08 335.696 191.528 334.136 191.528C332.6 191.528 331.376 192.08 330.464 193.184C329.576 194.288 329.132 195.632 329.132 197.216C329.132 198.872 329.576 200.264 330.464 201.392C331.376 202.52 332.6 203.084 334.136 203.084ZM340.652 203.768C339.044 205.544 336.872 206.432 334.136 206.432C331.4 206.432 329.228 205.508 327.62 203.66C326.036 201.788 325.244 199.4 325.244 196.496C325.244 192.344 325.952 189.248 327.368 187.208C328.808 185.168 331.016 183.968 333.992 183.608C335.792 183.344 337.028 183.092 337.7 182.852C338.396 182.612 338.744 182.324 338.744 181.988H342.452C342.452 184.508 339.98 186.044 335.036 186.596C333.092 186.812 331.592 187.352 330.536 188.216C329.504 189.056 328.856 190.064 328.592 191.24C329.288 190.28 330.188 189.536 331.292 189.008C332.42 188.456 333.608 188.18 334.856 188.18C337.256 188.18 339.224 189.068 340.76 190.844C342.296 192.62 343.064 194.756 343.064 197.252C343.064 199.82 342.26 201.992 340.652 203.768Z" fill="black"/>
<path d="M347.065 188.612H350.845V194.912H357.001C358.849 194.912 360.265 195.44 361.249 196.496C362.257 197.552 362.761 198.872 362.761 200.456C362.761 202.016 362.245 203.336 361.213 204.416C360.205 205.472 358.801 206 357.001 206H347.065V188.612ZM356.533 198.224H350.845V202.688H356.533C357.277 202.688 357.853 202.484 358.261 202.076C358.693 201.668 358.909 201.128 358.909 200.456C358.909 199.784 358.693 199.244 358.261 198.836C357.853 198.428 357.277 198.224 356.533 198.224ZM369.169 206H365.389V188.612H369.169V206Z" fill="black"/>
<path d="M389.575 206.432C386.167 206.432 383.503 205.496 381.583 203.624L383.347 201.212C384.931 202.628 387.007 203.336 389.575 203.336C390.895 203.336 391.927 203.132 392.671 202.724C393.439 202.292 393.823 201.716 393.823 200.996C393.823 199.484 392.299 198.728 389.251 198.728H385.543V195.704H389.251C390.571 195.704 391.603 195.512 392.347 195.128C393.115 194.744 393.499 194.18 393.499 193.436C393.499 192.812 393.103 192.296 392.311 191.888C391.519 191.48 390.523 191.276 389.323 191.276C386.995 191.276 385.135 191.972 383.743 193.364L381.871 191.06C383.719 189.164 386.143 188.216 389.143 188.216C391.711 188.192 393.727 188.612 395.191 189.476C396.679 190.316 397.423 191.468 397.423 192.932C397.423 194.036 396.955 194.972 396.019 195.74C395.107 196.484 394.039 196.94 392.815 197.108C394.039 197.204 395.167 197.612 396.199 198.332C397.255 199.052 397.783 200.036 397.783 201.284C397.783 202.796 397.039 204.032 395.551 204.992C394.087 205.952 392.095 206.432 389.575 206.432Z" fill="black"/>
<path d="M405.372 206H401.592V188.612H405.372V195.452H413.364V188.612H417.144V206H413.364V198.764H405.372V206Z" fill="black"/>
<path d="M436.453 206H432.673V204.128C431.329 205.664 429.457 206.432 427.057 206.432C425.473 206.432 424.069 205.928 422.845 204.92C421.621 203.888 421.009 202.472 421.009 200.672C421.009 198.824 421.609 197.42 422.809 196.46C424.033 195.5 425.449 195.02 427.057 195.02C429.529 195.02 431.401 195.764 432.673 197.252V194.66C432.673 193.652 432.301 192.86 431.557 192.284C430.813 191.708 429.829 191.42 428.605 191.42C426.661 191.42 424.945 192.152 423.457 193.616L421.909 190.988C423.877 189.116 426.313 188.18 429.217 188.18C431.353 188.18 433.093 188.684 434.437 189.692C435.781 190.7 436.453 192.296 436.453 194.48V206ZM428.533 203.84C430.429 203.84 431.809 203.24 432.673 202.04V199.412C431.809 198.212 430.429 197.612 428.533 197.612C427.453 197.612 426.565 197.9 425.869 198.476C425.173 199.052 424.825 199.808 424.825 200.744C424.825 201.68 425.173 202.436 425.869 203.012C426.565 203.564 427.453 203.84 428.533 203.84Z" fill="black"/>
<path d="M457.626 206H452.874L447.546 198.836L445.134 201.32V206H441.354V188.612H445.134V197L452.802 188.612H457.482L450.246 196.496L457.626 206Z" fill="black"/>
<path d="M467.976 206.432C465.288 206.432 463.128 205.556 461.496 203.804C459.864 202.028 459.048 199.856 459.048 197.288C459.048 194.72 459.864 192.56 461.496 190.808C463.128 189.056 465.288 188.18 467.976 188.18C470.688 188.18 472.86 189.056 474.492 190.808C476.124 192.56 476.94 194.72 476.94 197.288C476.94 199.88 476.124 202.052 474.492 203.804C472.86 205.556 470.688 206.432 467.976 206.432ZM467.976 203.084C469.536 203.084 470.76 202.532 471.648 201.428C472.56 200.3 473.016 198.92 473.016 197.288C473.016 195.68 472.56 194.324 471.648 193.22C470.76 192.092 469.536 191.528 467.976 191.528C466.44 191.528 465.216 192.092 464.304 193.22C463.416 194.324 462.972 195.68 462.972 197.288C462.972 198.92 463.416 200.3 464.304 201.428C465.216 202.532 466.44 203.084 467.976 203.084Z" fill="black"/>
<path d="M500.24 206H496.46V193.904L491.276 206H489.764L484.544 193.904V206H480.764V188.612H485.696L490.52 199.844L495.272 188.612H500.24V206Z" fill="black"/>
<path d="M513.048 206.432C510.408 206.432 508.248 205.58 506.568 203.876C504.888 202.148 504.048 199.952 504.048 197.288C504.048 194.648 504.888 192.476 506.568 190.772C508.248 189.044 510.408 188.18 513.048 188.18C515.952 188.18 518.172 189.212 519.708 191.276L517.224 193.58C516.264 192.212 514.932 191.528 513.228 191.528C511.644 191.528 510.372 192.068 509.412 193.148C508.452 194.204 507.972 195.584 507.972 197.288C507.972 198.992 508.452 200.384 509.412 201.464C510.372 202.544 511.644 203.084 513.228 203.084C514.884 203.084 516.216 202.4 517.224 201.032L519.708 203.336C518.172 205.4 515.952 206.432 513.048 206.432Z" fill="black"/>
<path d="M529.97 206H526.19V191.924H521.222V188.612H534.974V191.924H529.97V206Z" fill="black"/>
<path d="M548.725 206H538.069V188.612H548.473C550.081 188.612 551.341 189.032 552.253 189.872C553.165 190.712 553.621 191.78 553.621 193.076C553.621 194.084 553.345 194.936 552.793 195.632C552.241 196.328 551.545 196.796 550.705 197.036C551.641 197.252 552.421 197.768 553.045 198.584C553.669 199.376 553.981 200.276 553.981 201.284C553.981 202.676 553.513 203.816 552.577 204.704C551.665 205.568 550.381 206 548.725 206ZM547.933 202.688C548.605 202.688 549.133 202.52 549.517 202.184C549.901 201.824 550.093 201.344 550.093 200.744C550.093 200.192 549.901 199.724 549.517 199.34C549.133 198.956 548.605 198.764 547.933 198.764H541.849V202.688H547.933ZM547.825 195.452C548.425 195.452 548.893 195.296 549.229 194.984C549.589 194.648 549.769 194.228 549.769 193.724C549.769 193.172 549.589 192.74 549.229 192.428C548.893 192.092 548.425 191.924 547.825 191.924H541.849V195.452H547.825Z" fill="black"/>
<path d="M566.519 206.432C563.831 206.432 561.671 205.556 560.039 203.804C558.407 202.028 557.591 199.856 557.591 197.288C557.591 194.72 558.407 192.56 560.039 190.808C561.671 189.056 563.831 188.18 566.519 188.18C569.231 188.18 571.403 189.056 573.035 190.808C574.667 192.56 575.483 194.72 575.483 197.288C575.483 199.88 574.667 202.052 573.035 203.804C571.403 205.556 569.231 206.432 566.519 206.432ZM566.519 203.084C568.079 203.084 569.303 202.532 570.191 201.428C571.103 200.3 571.559 198.92 571.559 197.288C571.559 195.68 571.103 194.324 570.191 193.22C569.303 192.092 568.079 191.528 566.519 191.528C564.983 191.528 563.759 192.092 562.847 193.22C561.959 194.324 561.515 195.68 561.515 197.288C561.515 198.92 561.959 200.3 562.847 201.428C563.759 202.532 564.983 203.084 566.519 203.084Z" fill="black"/>
<path d="M596.473 206.432C593.833 206.432 591.673 205.58 589.993 203.876C588.313 202.148 587.473 199.952 587.473 197.288C587.473 194.648 588.313 192.476 589.993 190.772C591.673 189.044 593.833 188.18 596.473 188.18C599.377 188.18 601.597 189.212 603.133 191.276L600.649 193.58C599.689 192.212 598.357 191.528 596.653 191.528C595.069 191.528 593.797 192.068 592.837 193.148C591.877 194.204 591.397 195.584 591.397 197.288C591.397 198.992 591.877 200.384 592.837 201.464C593.797 202.544 595.069 203.084 596.653 203.084C598.309 203.084 599.641 202.4 600.649 201.032L603.133 203.336C601.597 205.4 599.377 206.432 596.473 206.432Z" fill="black"/>
<path d="M619.474 206H615.694V188.612H619.474V195.452H627.466V188.612H631.246V206H627.466V198.764H619.474V206Z" fill="black"/>
<path d="M639.791 206H636.155V188.612H639.935V200.312L647.927 188.612H651.707V206H647.927V193.976L639.791 206Z" fill="black"/>
<path d="M676.092 206H672.312V193.904L667.128 206H665.616L660.396 193.904V206H656.616V188.612H661.548L666.372 199.844L671.124 188.612H676.092V206Z" fill="black"/>
<path d="M684.615 206H680.979V188.612H684.759V200.312L692.751 188.612H696.531V206H692.751V193.976L684.615 206Z" fill="black"/>
<path d="M718.534 203.084C720.094 203.084 721.318 202.52 722.206 201.392C723.118 200.264 723.574 198.872 723.574 197.216C723.574 195.632 723.118 194.288 722.206 193.184C721.318 192.08 720.094 191.528 718.534 191.528C716.998 191.528 715.774 192.08 714.862 193.184C713.974 194.288 713.53 195.632 713.53 197.216C713.53 198.872 713.974 200.264 714.862 201.392C715.774 202.52 716.998 203.084 718.534 203.084ZM725.05 203.768C723.442 205.544 721.27 206.432 718.534 206.432C715.798 206.432 713.626 205.508 712.018 203.66C710.434 201.788 709.642 199.4 709.642 196.496C709.642 192.344 710.35 189.248 711.766 187.208C713.206 185.168 715.414 183.968 718.39 183.608C720.19 183.344 721.426 183.092 722.098 182.852C722.794 182.612 723.142 182.324 723.142 181.988H726.85C726.85 184.508 724.378 186.044 719.434 186.596C717.49 186.812 715.99 187.352 714.934 188.216C713.902 189.056 713.254 190.064 712.99 191.24C713.686 190.28 714.586 189.536 715.69 189.008C716.818 188.456 718.006 188.18 719.254 188.18C721.654 188.18 723.622 189.068 725.158 190.844C726.694 192.62 727.462 194.756 727.462 197.252C727.462 199.82 726.658 201.992 725.05 203.768Z" fill="black"/>
<path d="M731.464 188.612H735.244V194.912H741.4C743.248 194.912 744.664 195.44 745.648 196.496C746.656 197.552 747.16 198.872 747.16 200.456C747.16 202.016 746.644 203.336 745.612 204.416C744.604 205.472 743.2 206 741.4 206H731.464V188.612ZM740.932 198.224H735.244V202.688H740.932C741.676 202.688 742.252 202.484 742.66 202.076C743.092 201.668 743.308 201.128 743.308 200.456C743.308 199.784 743.092 199.244 742.66 198.836C742.252 198.428 741.676 198.224 740.932 198.224ZM753.568 206H749.788V188.612H753.568V206Z" fill="black"/>
<path d="M756.664 206.432V203.336C757.408 203.336 757.996 202.856 758.428 201.896C758.884 200.936 759.256 199.328 759.544 197.072L760.588 188.612H774.016V206H770.236V191.924H763.936L763.324 197.504C762.988 200.624 762.28 202.892 761.2 204.308C760.12 205.724 758.608 206.432 756.664 206.432Z" fill="black"/>
<path d="M786.773 206.432C784.085 206.432 781.924 205.556 780.292 203.804C778.66 202.028 777.844 199.856 777.844 197.288C777.844 194.72 778.66 192.56 780.292 190.808C781.924 189.056 784.085 188.18 786.773 188.18C789.485 188.18 791.657 189.056 793.289 190.808C794.921 192.56 795.737 194.72 795.737 197.288C795.737 199.88 794.921 202.052 793.289 203.804C791.657 205.556 789.485 206.432 786.773 206.432ZM786.773 203.084C788.333 203.084 789.557 202.532 790.445 201.428C791.357 200.3 791.812 198.92 791.812 197.288C791.812 195.68 791.357 194.324 790.445 193.22C789.557 192.092 788.333 191.528 786.773 191.528C785.237 191.528 784.013 192.092 783.101 193.22C782.213 194.324 781.768 195.68 781.768 197.288C781.768 198.92 782.213 200.3 783.101 201.428C784.013 202.532 785.237 203.084 786.773 203.084Z" fill="black"/>
<path d="M76.9239 251H73.1439V238.904L67.9599 251H66.4479L61.2279 238.904V251H57.4479V233.612H62.3799L67.2039 244.844L71.9559 233.612H76.9239V251Z" fill="black"/>
<path d="M96.2112 251H92.4312V249.128C91.0872 250.664 89.2152 251.432 86.8152 251.432C85.2312 251.432 83.8272 250.928 82.6032 249.92C81.3792 248.888 80.7672 247.472 80.7672 245.672C80.7672 243.824 81.3672 242.42 82.5672 241.46C83.7912 240.5 85.2072 240.02 86.8152 240.02C89.2872 240.02 91.1592 240.764 92.4312 242.252V239.66C92.4312 238.652 92.0592 237.86 91.3152 237.284C90.5712 236.708 89.5872 236.42 88.3632 236.42C86.4192 236.42 84.7032 237.152 83.2152 238.616L81.6672 235.988C83.6352 234.116 86.0712 233.18 88.9752 233.18C91.1112 233.18 92.8512 233.684 94.1952 234.692C95.5392 235.7 96.2112 237.296 96.2112 239.48V251ZM88.2912 248.84C90.1872 248.84 91.5672 248.24 92.4312 247.04V244.412C91.5672 243.212 90.1872 242.612 88.2912 242.612C87.2112 242.612 86.3232 242.9 85.6272 243.476C84.9312 244.052 84.5832 244.808 84.5832 245.744C84.5832 246.68 84.9312 247.436 85.6272 248.012C86.3232 248.564 87.2112 248.84 88.2912 248.84Z" fill="black"/>
<path d="M117.384 251H112.632L107.304 243.836L104.892 246.32V251H101.112V233.612H104.892V242L112.56 233.612H117.24L110.004 241.496L117.384 251Z" fill="black"/>
<path d="M127.805 251.432C125.165 251.432 123.005 250.58 121.325 248.876C119.645 247.148 118.805 244.952 118.805 242.288C118.805 239.648 119.645 237.476 121.325 235.772C123.005 234.044 125.165 233.18 127.805 233.18C130.709 233.18 132.929 234.212 134.465 236.276L131.981 238.58C131.021 237.212 129.689 236.528 127.985 236.528C126.401 236.528 125.129 237.068 124.169 238.148C123.209 239.204 122.729 240.584 122.729 242.288C122.729 243.992 123.209 245.384 124.169 246.464C125.129 247.544 126.401 248.084 127.985 248.084C129.641 248.084 130.973 247.4 131.981 246.032L134.465 248.336C132.929 250.4 130.709 251.432 127.805 251.432Z" fill="black"/>
<path d="M141.416 251H137.78V233.612H141.56V245.312L149.552 233.612H153.332V251H149.552V238.976L141.416 251Z" fill="black"/>
<path d="M177.717 251H173.937V238.904L168.753 251H167.241L162.021 238.904V251H158.241V233.612H163.173L167.997 244.844L172.749 233.612H177.717V251Z" fill="black"/>
<path d="M197.004 251H193.224V249.128C191.88 250.664 190.008 251.432 187.608 251.432C186.024 251.432 184.62 250.928 183.396 249.92C182.172 248.888 181.56 247.472 181.56 245.672C181.56 243.824 182.16 242.42 183.36 241.46C184.584 240.5 186 240.02 187.608 240.02C190.08 240.02 191.952 240.764 193.224 242.252V239.66C193.224 238.652 192.852 237.86 192.108 237.284C191.364 236.708 190.38 236.42 189.156 236.42C187.212 236.42 185.496 237.152 184.008 238.616L182.46 235.988C184.428 234.116 186.864 233.18 189.768 233.18C191.904 233.18 193.644 233.684 194.988 234.692C196.332 235.7 197.004 237.296 197.004 239.48V251ZM189.084 248.84C190.98 248.84 192.36 248.24 193.224 247.04V244.412C192.36 243.212 190.98 242.612 189.084 242.612C188.004 242.612 187.116 242.9 186.42 243.476C185.724 244.052 185.376 244.808 185.376 245.744C185.376 246.68 185.724 247.436 186.42 248.012C187.116 248.564 188.004 248.84 189.084 248.84Z" fill="black"/>
<path d="M200.105 251.432V248.336C200.849 248.336 201.437 247.856 201.869 246.896C202.325 245.936 202.697 244.328 202.985 242.072L204.029 233.612H217.457V251H213.677V236.924H207.377L206.765 242.504C206.429 245.624 205.721 247.892 204.641 249.308C203.561 250.724 202.049 251.432 200.105 251.432Z" fill="black"/>
<path d="M222.366 233.612H226.146V239.912H232.302C234.15 239.912 235.566 240.44 236.55 241.496C237.558 242.552 238.062 243.872 238.062 245.456C238.062 247.016 237.546 248.336 236.514 249.416C235.506 250.472 234.102 251 232.302 251H222.366V233.612ZM231.834 243.224H226.146V247.688H231.834C232.578 247.688 233.154 247.484 233.562 247.076C233.994 246.668 234.21 246.128 234.21 245.456C234.21 244.784 233.994 244.244 233.562 243.836C233.154 243.428 232.578 243.224 231.834 243.224Z" fill="black"/>
<path d="M245.587 251H241.807V233.612H245.587V240.452H253.579V233.612H257.359V251H253.579V243.764H245.587V251Z" fill="black"/>
<path d="M270.116 251.432C267.428 251.432 265.268 250.556 263.636 248.804C262.004 247.028 261.188 244.856 261.188 242.288C261.188 239.72 262.004 237.56 263.636 235.808C265.268 234.056 267.428 233.18 270.116 233.18C272.828 233.18 275 234.056 276.632 235.808C278.264 237.56 279.08 239.72 279.08 242.288C279.08 244.88 278.264 247.052 276.632 248.804C275 250.556 272.828 251.432 270.116 251.432ZM270.116 248.084C271.676 248.084 272.9 247.532 273.788 246.428C274.7 245.3 275.156 243.92 275.156 242.288C275.156 240.68 274.7 239.324 273.788 238.22C272.9 237.092 271.676 236.528 270.116 236.528C268.58 236.528 267.356 237.092 266.444 238.22C265.556 239.324 265.112 240.68 265.112 242.288C265.112 243.92 265.556 245.3 266.444 246.428C267.356 247.532 268.58 248.084 270.116 248.084Z" fill="black"/>
<path d="M291.395 257.804L291.971 254.42C292.403 254.612 292.883 254.708 293.411 254.708C294.635 254.708 295.463 254.204 295.895 253.196L296.759 251.216L289.631 233.612H293.663L298.739 246.644L303.815 233.612H307.883L299.495 254.132C298.463 256.7 296.471 258.008 293.519 258.056C292.727 258.056 292.019 257.972 291.395 257.804Z" fill="black"/>
<path d="M308.457 255.428V247.868C309.273 247.676 309.885 247.208 310.293 246.464C310.725 245.696 311.073 244.232 311.337 242.072L312.38 233.612H325.809V247.688H327.716V255.428H323.936V251H312.237V255.428H308.457ZM315.729 236.924L315.117 242.504C314.877 244.808 314.108 246.536 312.812 247.688H322.029V236.924H315.729Z" fill="black"/>
<path d="M338.671 251.432C335.983 251.432 333.823 250.556 332.191 248.804C330.559 247.028 329.743 244.856 329.743 242.288C329.743 239.72 330.559 237.56 332.191 235.808C333.823 234.056 335.983 233.18 338.671 233.18C341.383 233.18 343.555 234.056 345.187 235.808C346.819 237.56 347.635 239.72 347.635 242.288C347.635 244.88 346.819 247.052 345.187 248.804C343.555 250.556 341.383 251.432 338.671 251.432ZM338.671 248.084C340.231 248.084 341.455 247.532 342.343 246.428C343.255 245.3 343.711 243.92 343.711 242.288C343.711 240.68 343.255 239.324 342.343 238.22C341.455 237.092 340.231 236.528 338.671 236.528C337.135 236.528 335.911 237.092 334.999 238.22C334.111 239.324 333.667 240.68 333.667 242.288C333.667 243.92 334.111 245.3 334.999 246.428C335.911 247.532 337.135 248.084 338.671 248.084Z" fill="black"/>
<path d="M359.308 248.084C360.868 248.084 362.092 247.52 362.98 246.392C363.892 245.264 364.348 243.872 364.348 242.216C364.348 240.632 363.892 239.288 362.98 238.184C362.092 237.08 360.868 236.528 359.308 236.528C357.772 236.528 356.548 237.08 355.636 238.184C354.748 239.288 354.304 240.632 354.304 242.216C354.304 243.872 354.748 245.264 355.636 246.392C356.548 247.52 357.772 248.084 359.308 248.084ZM365.824 248.768C364.216 250.544 362.044 251.432 359.308 251.432C356.572 251.432 354.4 250.508 352.792 248.66C351.208 246.788 350.416 244.4 350.416 241.496C350.416 237.344 351.124 234.248 352.54 232.208C353.98 230.168 356.188 228.968 359.164 228.608C360.964 228.344 362.2 228.092 362.872 227.852C363.568 227.612 363.916 227.324 363.916 226.988H367.624C367.624 229.508 365.152 231.044 360.208 231.596C358.264 231.812 356.764 232.352 355.708 233.216C354.676 234.056 354.028 235.064 353.764 236.24C354.46 235.28 355.36 234.536 356.464 234.008C357.592 233.456 358.78 233.18 360.028 233.18C362.428 233.18 364.396 234.068 365.932 235.844C367.468 237.62 368.236 239.756 368.236 242.252C368.236 244.82 367.432 246.992 365.824 248.768Z" fill="black"/>
<path d="M376.017 251H372.237V233.612H376.017V240.452H384.009V233.612H387.789V251H384.009V243.764H376.017V251Z" fill="black"/>
<path d="M392.698 233.612H396.478V239.912H402.634C404.482 239.912 405.898 240.44 406.882 241.496C407.89 242.552 408.394 243.872 408.394 245.456C408.394 247.016 407.878 248.336 406.846 249.416C405.838 250.472 404.434 251 402.634 251H392.698V233.612ZM402.166 243.224H396.478V247.688H402.166C402.91 247.688 403.486 247.484 403.894 247.076C404.326 246.668 404.542 246.128 404.542 245.456C404.542 244.784 404.326 244.244 403.894 243.836C403.486 243.428 402.91 243.224 402.166 243.224ZM414.802 251H411.022V233.612H414.802V251Z" fill="black"/>
<path d="M439.174 251H435.394V238.904L430.21 251H428.698L423.478 238.904V251H419.698V233.612H424.63L429.454 244.844L434.206 233.612H439.174V251Z" fill="black"/>
<path d="M456.943 251H453.307V233.612H457.087V245.312L465.079 233.612H468.859V251H465.079V238.976L456.943 251Z" fill="black"/>
<path d="M486.65 251H483.014V233.612H486.794V245.312L494.786 233.612H498.566V251H494.786V238.976L486.65 251Z" fill="black"/>
<path d="M507.255 251H503.475V233.612H507.255V240.452H515.247V233.612H519.027V251H515.247V243.764H507.255V251Z" fill="black"/>
<path d="M525.232 235.664C526.432 234.008 527.992 233.18 529.912 233.18C531.832 233.18 533.392 234.128 534.592 236.024V226.988H538.372V235.988C539.548 234.116 541.108 233.18 543.052 233.18C544.972 233.18 546.532 233.996 547.732 235.628C548.932 237.26 549.532 239.48 549.532 242.288C549.532 245.096 548.932 247.328 547.732 248.984C546.532 250.616 544.972 251.432 543.052 251.432C541.132 251.432 539.572 250.484 538.372 248.588V257.624H534.592V248.624C533.416 250.496 531.856 251.432 529.912 251.432C527.992 251.432 526.432 250.616 525.232 248.984C524.032 247.352 523.432 245.132 523.432 242.324C523.432 239.516 524.032 237.296 525.232 235.664ZM531.1 236.528C529.948 236.528 529.012 237.068 528.292 238.148C527.596 239.228 527.248 240.62 527.248 242.324C527.248 244.028 527.596 245.42 528.292 246.5C529.012 247.556 529.948 248.084 531.1 248.084C531.772 248.084 532.432 247.856 533.08 247.4C533.752 246.944 534.256 246.392 534.592 245.744V238.868C534.256 238.22 533.752 237.668 533.08 237.212C532.432 236.756 531.772 236.528 531.1 236.528ZM541.864 248.084C543.016 248.084 543.94 247.544 544.636 246.464C545.356 245.384 545.716 243.992 545.716 242.288C545.716 240.584 545.356 239.204 544.636 238.148C543.94 237.068 543.016 236.528 541.864 236.528C541.192 236.528 540.52 236.756 539.848 237.212C539.2 237.668 538.708 238.22 538.372 238.868V245.744C538.708 246.392 539.2 246.944 539.848 247.4C540.52 247.856 541.192 248.084 541.864 248.084Z" fill="black"/>
<path d="M561.772 251.432C559.084 251.432 556.924 250.556 555.292 248.804C553.66 247.028 552.844 244.856 552.844 242.288C552.844 239.72 553.66 237.56 555.292 235.808C556.924 234.056 559.084 233.18 561.772 233.18C564.484 233.18 566.656 234.056 568.288 235.808C569.92 237.56 570.737 239.72 570.737 242.288C570.737 244.88 569.92 247.052 568.288 248.804C566.656 250.556 564.484 251.432 561.772 251.432ZM561.772 248.084C563.332 248.084 564.556 247.532 565.444 246.428C566.356 245.3 566.812 243.92 566.812 242.288C566.812 240.68 566.356 239.324 565.444 238.22C564.556 237.092 563.332 236.528 561.772 236.528C560.236 236.528 559.012 237.092 558.1 238.22C557.212 239.324 556.768 240.68 556.768 242.288C556.768 243.92 557.212 245.3 558.1 246.428C559.012 247.532 560.236 248.084 561.772 248.084Z" fill="black"/>
<path d="M583.921 251.432C581.617 251.432 579.757 250.484 578.341 248.588V257.624H574.561V233.612H578.341V235.988C579.733 234.116 581.593 233.18 583.921 233.18C586.201 233.18 588.049 233.996 589.465 235.628C590.905 237.26 591.625 239.48 591.625 242.288C591.625 245.096 590.905 247.328 589.465 248.984C588.049 250.616 586.201 251.432 583.921 251.432ZM582.805 248.084C584.293 248.084 585.481 247.544 586.369 246.464C587.257 245.384 587.701 243.992 587.701 242.288C587.701 240.584 587.257 239.204 586.369 238.148C585.481 237.068 584.293 236.528 582.805 236.528C581.941 236.528 581.089 236.756 580.249 237.212C579.409 237.668 578.773 238.22 578.341 238.868V245.744C578.773 246.392 579.409 246.944 580.249 247.4C581.089 247.856 581.941 248.084 582.805 248.084Z" fill="black"/>
<path d="M614.85 251H611.07V238.904L605.886 251H604.374L599.154 238.904V251H595.374V233.612H600.306L605.13 244.844L609.882 233.612H614.85V251Z" fill="black"/>
<path d="M634.137 251H630.357V249.128C629.013 250.664 627.141 251.432 624.741 251.432C623.157 251.432 621.753 250.928 620.529 249.92C619.305 248.888 618.693 247.472 618.693 245.672C618.693 243.824 619.293 242.42 620.493 241.46C621.717 240.5 623.133 240.02 624.741 240.02C627.213 240.02 629.085 240.764 630.357 242.252V239.66C630.357 238.652 629.985 237.86 629.241 237.284C628.497 236.708 627.513 236.42 626.289 236.42C624.345 236.42 622.629 237.152 621.141 238.616L619.593 235.988C621.561 234.116 623.997 233.18 626.901 233.18C629.037 233.18 630.777 233.684 632.121 234.692C633.465 235.7 634.137 237.296 634.137 239.48V251ZM626.217 248.84C628.113 248.84 629.493 248.24 630.357 247.04V244.412C629.493 243.212 628.113 242.612 626.217 242.612C625.137 242.612 624.249 242.9 623.553 243.476C622.857 244.052 622.509 244.808 622.509 245.744C622.509 246.68 622.857 247.436 623.553 248.012C624.249 248.564 625.137 248.84 626.217 248.84Z" fill="black"/>
<path d="M645.986 251H642.206V236.924H637.238V233.612H650.99V236.924H645.986V251Z" fill="black"/>
<path d="M657.721 251H654.085V233.612H657.865V245.312L665.857 233.612H669.637V251H665.857V238.976L657.721 251Z" fill="black"/>
<path d="M685.202 251H674.546V233.612H684.95C686.558 233.612 687.818 234.032 688.73 234.872C689.642 235.712 690.098 236.78 690.098 238.076C690.098 239.084 689.822 239.936 689.27 240.632C688.718 241.328 688.022 241.796 687.182 242.036C688.118 242.252 688.898 242.768 689.522 243.584C690.146 244.376 690.458 245.276 690.458 246.284C690.458 247.676 689.99 248.816 689.054 249.704C688.142 250.568 686.858 251 685.202 251ZM684.41 247.688C685.082 247.688 685.61 247.52 685.994 247.184C686.378 246.824 686.57 246.344 686.57 245.744C686.57 245.192 686.378 244.724 685.994 244.34C685.61 243.956 685.082 243.764 684.41 243.764H678.326V247.688H684.41ZM684.302 240.452C684.902 240.452 685.37 240.296 685.706 239.984C686.066 239.648 686.246 239.228 686.246 238.724C686.246 238.172 686.066 237.74 685.706 237.428C685.37 237.092 684.902 236.924 684.302 236.924H678.326V240.452H684.302Z" fill="black"/>
<path d="M698.927 251H695.147V233.612H698.927V240.452H706.919V233.612H710.699V251H706.919V243.764H698.927V251Z" fill="black"/>
<path d="M715.608 233.612H719.388V239.912H725.544C727.392 239.912 728.808 240.44 729.792 241.496C730.8 242.552 731.304 243.872 731.304 245.456C731.304 247.016 730.788 248.336 729.756 249.416C728.748 250.472 727.344 251 725.544 251H715.608V233.612ZM725.076 243.224H719.388V247.688H725.076C725.82 247.688 726.396 247.484 726.804 247.076C727.236 246.668 727.452 246.128 727.452 245.456C727.452 244.784 727.236 244.244 726.804 243.836C726.396 243.428 725.82 243.224 725.076 243.224ZM737.712 251H733.932V233.612H737.712V251Z" fill="black"/>
<path d="M762.084 251H758.304V238.904L753.12 251H751.608L746.388 238.904V251H742.608V233.612H747.54L752.364 244.844L757.116 233.612H762.084V251Z" fill="black"/>
<path d="M770.679 250.676C770.175 251.156 769.587 251.396 768.915 251.396C768.243 251.396 767.655 251.156 767.151 250.676C766.647 250.172 766.395 249.572 766.395 248.876C766.395 248.18 766.647 247.592 767.151 247.112C767.655 246.608 768.243 246.356 768.915 246.356C769.587 246.356 770.175 246.608 770.679 247.112C771.183 247.592 771.435 248.18 771.435 248.876C771.435 249.572 771.183 250.172 770.679 250.676Z" fill="black"/>
</svg>
