<svg width="876" height="355" viewBox="0 0 876 355" fill="none" xmlns="http://www.w3.org/2000/svg">
<rect y="33" width="813" height="322" rx="53.081" fill="black"/>
<path d="M851.154 44.8192C852.417 41.0794 849.099 37.7965 846.336 40.052L841.893 43.6786C815.991 64.825 786.41 77.6809 756.012 81.003C753.606 81.2659 752.287 84.7147 753.719 86.9966L788.886 143.027C790.299 145.279 793.055 145.437 794.811 143.367L799.396 137.96C821.63 111.744 839.206 80.2101 850.915 45.5285L851.154 44.8192Z" fill="black"/>
<path d="M85.472 115H81.26V104.524H68.768V115H64.556V90.988H68.768V100.816H81.26V90.988H85.472V115ZM98.4916 115.432C95.8516 115.432 93.6676 114.592 91.9396 112.912C90.2356 111.208 89.3836 109 89.3836 106.288C89.3836 103.744 90.2116 101.596 91.8676 99.844C93.5476 98.068 95.6596 97.18 98.2036 97.18C100.772 97.18 102.836 98.068 104.396 99.844C105.98 101.62 106.772 103.888 106.772 106.648V107.548H93.3436C93.4876 108.916 94.0516 110.056 95.0356 110.968C96.0196 111.88 97.3036 112.336 98.8876 112.336C99.7756 112.336 100.664 112.168 101.552 111.832C102.464 111.496 103.22 111.028 103.82 110.428L105.548 112.912C103.796 114.592 101.444 115.432 98.4916 115.432ZM103.1 104.884C103.052 103.684 102.608 102.616 101.768 101.68C100.952 100.744 99.7636 100.276 98.2036 100.276C96.7156 100.276 95.5516 100.744 94.7116 101.68C93.8716 102.592 93.4036 103.66 93.3076 104.884H103.1ZM126.775 115H122.023L116.695 107.836L114.283 110.32V115H110.503V97.612H114.283V106L121.951 97.612H126.631L119.395 105.496L126.775 115ZM137.124 115.432C134.436 115.432 132.276 114.556 130.644 112.804C129.012 111.028 128.196 108.856 128.196 106.288C128.196 103.72 129.012 101.56 130.644 99.808C132.276 98.056 134.436 97.18 137.124 97.18C139.836 97.18 142.008 98.056 143.64 99.808C145.272 101.56 146.088 103.72 146.088 106.288C146.088 108.88 145.272 111.052 143.64 112.804C142.008 114.556 139.836 115.432 137.124 115.432ZM137.124 112.084C138.684 112.084 139.908 111.532 140.796 110.428C141.708 109.3 142.164 107.92 142.164 106.288C142.164 104.68 141.708 103.324 140.796 102.22C139.908 101.092 138.684 100.528 137.124 100.528C135.588 100.528 134.364 101.092 133.452 102.22C132.564 103.324 132.12 104.68 132.12 106.288C132.12 107.92 132.564 109.3 133.452 110.428C134.364 111.532 135.588 112.084 137.124 112.084ZM156.861 115H153.081V100.924H148.113V97.612H161.865V100.924H156.861V115ZM172.808 115.432C170.12 115.432 167.96 114.556 166.328 112.804C164.696 111.028 163.88 108.856 163.88 106.288C163.88 103.72 164.696 101.56 166.328 99.808C167.96 98.056 170.12 97.18 172.808 97.18C175.52 97.18 177.692 98.056 179.324 99.808C180.956 101.56 181.772 103.72 181.772 106.288C181.772 108.88 180.956 111.052 179.324 112.804C177.692 114.556 175.52 115.432 172.808 115.432ZM172.808 112.084C174.368 112.084 175.592 111.532 176.48 110.428C177.392 109.3 177.848 107.92 177.848 106.288C177.848 104.68 177.392 103.324 176.48 102.22C175.592 101.092 174.368 100.528 172.808 100.528C171.272 100.528 170.048 101.092 169.136 102.22C168.248 103.324 167.804 104.68 167.804 106.288C167.804 107.92 168.248 109.3 169.136 110.428C170.048 111.532 171.272 112.084 172.808 112.084ZM194.956 115.432C192.652 115.432 190.792 114.484 189.376 112.588V121.624H185.596V97.612H189.376V99.988C190.768 98.116 192.628 97.18 194.956 97.18C197.236 97.18 199.084 97.996 200.5 99.628C201.94 101.26 202.66 103.48 202.66 106.288C202.66 109.096 201.94 111.328 200.5 112.984C199.084 114.616 197.236 115.432 194.956 115.432ZM193.84 112.084C195.328 112.084 196.516 111.544 197.404 110.464C198.292 109.384 198.736 107.992 198.736 106.288C198.736 104.584 198.292 103.204 197.404 102.148C196.516 101.068 195.328 100.528 193.84 100.528C192.976 100.528 192.124 100.756 191.284 101.212C190.444 101.668 189.808 102.22 189.376 102.868V109.744C189.808 110.392 190.444 110.944 191.284 111.4C192.124 111.856 192.976 112.084 193.84 112.084ZM206.409 97.612H210.189V103.912H216.345C218.193 103.912 219.609 104.44 220.593 105.496C221.601 106.552 222.105 107.872 222.105 109.456C222.105 111.016 221.589 112.336 220.557 113.416C219.549 114.472 218.145 115 216.345 115H206.409V97.612ZM215.877 107.224H210.189V111.688H215.877C216.621 111.688 217.197 111.484 217.605 111.076C218.037 110.668 218.253 110.128 218.253 109.456C218.253 108.784 218.037 108.244 217.605 107.836C217.197 107.428 216.621 107.224 215.877 107.224ZM228.513 115H224.733V97.612H228.513V115ZM241.437 115.432C238.797 115.432 236.613 114.592 234.885 112.912C233.181 111.208 232.329 109 232.329 106.288C232.329 103.744 233.157 101.596 234.813 99.844C236.493 98.068 238.605 97.18 241.149 97.18C243.717 97.18 245.781 98.068 247.341 99.844C248.925 101.62 249.717 103.888 249.717 106.648V107.548H236.289C236.433 108.916 236.997 110.056 237.981 110.968C238.965 111.88 240.249 112.336 241.833 112.336C242.721 112.336 243.609 112.168 244.497 111.832C245.409 111.496 246.165 111.028 246.765 110.428L248.493 112.912C246.741 114.592 244.389 115.432 241.437 115.432ZM246.045 104.884C245.997 103.684 245.553 102.616 244.713 101.68C243.897 100.744 242.709 100.276 241.149 100.276C239.661 100.276 238.497 100.744 237.657 101.68C236.817 102.592 236.349 103.66 236.253 104.884H246.045ZM278.966 115H274.214L268.886 107.836L266.474 110.32V115H262.694V97.612H266.474V106L274.142 97.612H278.822L271.586 105.496L278.966 115ZM289.316 115.432C286.628 115.432 284.468 114.556 282.836 112.804C281.204 111.028 280.388 108.856 280.388 106.288C280.388 103.72 281.204 101.56 282.836 99.808C284.468 98.056 286.628 97.18 289.316 97.18C292.028 97.18 294.2 98.056 295.832 99.808C297.464 101.56 298.28 103.72 298.28 106.288C298.28 108.88 297.464 111.052 295.832 112.804C294.2 114.556 292.028 115.432 289.316 115.432ZM289.316 112.084C290.876 112.084 292.1 111.532 292.988 110.428C293.9 109.3 294.356 107.92 294.356 106.288C294.356 104.68 293.9 103.324 292.988 102.22C292.1 101.092 290.876 100.528 289.316 100.528C287.78 100.528 286.556 101.092 285.644 102.22C284.756 103.324 284.312 104.68 284.312 106.288C284.312 107.92 284.756 109.3 285.644 110.428C286.556 111.532 287.78 112.084 289.316 112.084ZM305.884 115H302.104V97.612H305.884V104.452H313.876V97.612H317.656V115H313.876V107.764H305.884V115ZM338.837 115H334.085L328.757 107.836L326.345 110.32V115H322.565V97.612H326.345V106L334.013 97.612H338.693L331.457 105.496L338.837 115ZM340.758 121.804L341.334 118.42C341.766 118.612 342.246 118.708 342.774 118.708C343.998 118.708 344.826 118.204 345.258 117.196L346.122 115.216L338.994 97.612H343.026L348.102 110.644L353.178 97.612H357.246L348.858 118.132C347.826 120.7 345.834 122.008 342.882 122.056C342.09 122.056 341.382 121.972 340.758 121.804ZM368.98 115.432C366.676 115.432 364.816 114.484 363.4 112.588V121.624H359.62V97.612H363.4V99.988C364.792 98.116 366.652 97.18 368.98 97.18C371.26 97.18 373.108 97.996 374.524 99.628C375.964 101.26 376.684 103.48 376.684 106.288C376.684 109.096 375.964 111.328 374.524 112.984C373.108 114.616 371.26 115.432 368.98 115.432ZM367.864 112.084C369.352 112.084 370.54 111.544 371.428 110.464C372.316 109.384 372.76 107.992 372.76 106.288C372.76 104.584 372.316 103.204 371.428 102.148C370.54 101.068 369.352 100.528 367.864 100.528C367 100.528 366.148 100.756 365.308 101.212C364.468 101.668 363.832 102.22 363.4 102.868V109.744C363.832 110.392 364.468 110.944 365.308 111.4C366.148 111.856 367 112.084 367.864 112.084ZM388.46 115.432C385.82 115.432 383.636 114.592 381.908 112.912C380.204 111.208 379.352 109 379.352 106.288C379.352 103.744 380.18 101.596 381.836 99.844C383.516 98.068 385.628 97.18 388.172 97.18C390.74 97.18 392.804 98.068 394.364 99.844C395.948 101.62 396.74 103.888 396.74 106.648V107.548H383.312C383.456 108.916 384.02 110.056 385.004 110.968C385.988 111.88 387.272 112.336 388.856 112.336C389.744 112.336 390.632 112.168 391.52 111.832C392.432 111.496 393.188 111.028 393.788 110.428L395.516 112.912C393.764 114.592 391.412 115.432 388.46 115.432ZM393.068 104.884C393.02 103.684 392.576 102.616 391.736 101.68C390.92 100.744 389.732 100.276 388.172 100.276C386.684 100.276 385.52 100.744 384.68 101.68C383.84 102.592 383.372 103.66 383.276 104.884H393.068ZM404.251 115H400.471V97.612H404.251V104.452H412.243V97.612H416.023V115H412.243V107.764H404.251V115ZM427.88 115H424.1V100.924H419.132V97.612H432.884V100.924H427.88V115ZM435.979 97.612H439.759V103.912H445.915C447.763 103.912 449.179 104.44 450.163 105.496C451.171 106.552 451.675 107.872 451.675 109.456C451.675 111.016 451.159 112.336 450.127 113.416C449.119 114.472 447.715 115 445.915 115H435.979V97.612ZM445.447 107.224H439.759V111.688H445.447C446.191 111.688 446.767 111.484 447.175 111.076C447.607 110.668 447.823 110.128 447.823 109.456C447.823 108.784 447.607 108.244 447.175 107.836C446.767 107.428 446.191 107.224 445.447 107.224ZM458.083 115H454.303V97.612H458.083V115ZM480.145 115.432C477.505 115.432 475.345 114.58 473.665 112.876C471.985 111.148 471.145 108.952 471.145 106.288C471.145 103.648 471.985 101.476 473.665 99.772C475.345 98.044 477.505 97.18 480.145 97.18C483.049 97.18 485.269 98.212 486.805 100.276L484.321 102.58C483.361 101.212 482.029 100.528 480.325 100.528C478.741 100.528 477.469 101.068 476.509 102.148C475.549 103.204 475.069 104.584 475.069 106.288C475.069 107.992 475.549 109.384 476.509 110.464C477.469 111.544 478.741 112.084 480.325 112.084C481.981 112.084 483.313 111.4 484.321 110.032L486.805 112.336C485.269 114.4 483.049 115.432 480.145 115.432ZM488.32 115.432V112.336C489.064 112.336 489.652 111.856 490.084 110.896C490.54 109.936 490.912 108.328 491.2 106.072L492.244 97.612H505.672V115H501.892V100.924H495.592L494.98 106.504C494.644 109.624 493.936 111.892 492.856 113.308C491.776 114.724 490.264 115.432 488.32 115.432ZM514.217 115H510.581V97.612H514.361V109.312L522.353 97.612H526.133V115H522.353V102.976L514.217 115ZM550.842 97.612H554.622V115H531.042V97.612H534.822V111.688H540.942V97.612H544.722V111.688H550.842V97.612ZM575.79 115H571.038L565.71 107.836L563.298 110.32V115H559.518V97.612H563.298V106L570.966 97.612H575.646L568.41 105.496L575.79 115ZM586.14 115.432C583.452 115.432 581.292 114.556 579.66 112.804C578.028 111.028 577.212 108.856 577.212 106.288C577.212 103.72 578.028 101.56 579.66 99.808C581.292 98.056 583.452 97.18 586.14 97.18C588.852 97.18 591.024 98.056 592.656 99.808C594.288 101.56 595.104 103.72 595.104 106.288C595.104 108.88 594.288 111.052 592.656 112.804C591.024 114.556 588.852 115.432 586.14 115.432ZM586.14 112.084C587.7 112.084 588.924 111.532 589.812 110.428C590.724 109.3 591.18 107.92 591.18 106.288C591.18 104.68 590.724 103.324 589.812 102.22C588.924 101.092 587.7 100.528 586.14 100.528C584.604 100.528 583.38 101.092 582.468 102.22C581.58 103.324 581.136 104.68 581.136 106.288C581.136 107.92 581.58 109.3 582.468 110.428C583.38 111.532 584.604 112.084 586.14 112.084ZM618.404 115H614.624V102.904L609.44 115H607.928L602.708 102.904V115H598.928V97.612H603.86L608.684 108.844L613.436 97.612H618.404V115ZM78.848 160H75.068V158.128C73.724 159.664 71.852 160.432 69.452 160.432C67.868 160.432 66.464 159.928 65.24 158.92C64.016 157.888 63.404 156.472 63.404 154.672C63.404 152.824 64.004 151.42 65.204 150.46C66.428 149.5 67.844 149.02 69.452 149.02C71.924 149.02 73.796 149.764 75.068 151.252V148.66C75.068 147.652 74.696 146.86 73.952 146.284C73.208 145.708 72.224 145.42 71 145.42C69.056 145.42 67.34 146.152 65.852 147.616L64.304 144.988C66.272 143.116 68.708 142.18 71.612 142.18C73.748 142.18 75.488 142.684 76.832 143.692C78.176 144.7 78.848 146.296 78.848 148.48V160ZM70.928 157.84C72.824 157.84 74.204 157.24 75.068 156.04V153.412C74.204 152.212 72.824 151.612 70.928 151.612C69.848 151.612 68.96 151.9 68.264 152.476C67.568 153.052 67.22 153.808 67.22 154.744C67.22 155.68 67.568 156.436 68.264 157.012C68.96 157.564 69.848 157.84 70.928 157.84ZM100.021 160H95.2688L89.9408 152.836L87.5288 155.32V160H83.7488V142.612H87.5288V151L95.1968 142.612H99.8768L92.6408 150.496L100.021 160ZM117.098 160H113.318V158.128C111.974 159.664 110.102 160.432 107.702 160.432C106.118 160.432 104.714 159.928 103.49 158.92C102.266 157.888 101.654 156.472 101.654 154.672C101.654 152.824 102.254 151.42 103.454 150.46C104.678 149.5 106.094 149.02 107.702 149.02C110.174 149.02 112.046 149.764 113.318 151.252V148.66C113.318 147.652 112.946 146.86 112.202 146.284C111.458 145.708 110.474 145.42 109.25 145.42C107.306 145.42 105.59 146.152 104.102 147.616L102.554 144.988C104.522 143.116 106.958 142.18 109.862 142.18C111.998 142.18 113.738 142.684 115.082 143.692C116.426 144.7 117.098 146.296 117.098 148.48V160ZM109.178 157.84C111.074 157.84 112.454 157.24 113.318 156.04V153.412C112.454 152.212 111.074 151.612 109.178 151.612C108.098 151.612 107.21 151.9 106.514 152.476C105.818 153.052 105.47 153.808 105.47 154.744C105.47 155.68 105.818 156.436 106.514 157.012C107.21 157.564 108.098 157.84 109.178 157.84ZM120.199 164.428V156.868C121.015 156.676 121.627 156.208 122.035 155.464C122.467 154.696 122.815 153.232 123.079 151.072L124.123 142.612H137.551V156.688H139.459V164.428H135.679V160H123.979V164.428H120.199ZM127.471 145.924L126.859 151.504C126.619 153.808 125.851 155.536 124.555 156.688H133.771V145.924H127.471ZM150.593 160.432C147.953 160.432 145.769 159.592 144.041 157.912C142.337 156.208 141.485 154 141.485 151.288C141.485 148.744 142.313 146.596 143.969 144.844C145.649 143.068 147.761 142.18 150.305 142.18C152.873 142.18 154.937 143.068 156.497 144.844C158.081 146.62 158.873 148.888 158.873 151.648V152.548H145.445C145.589 153.916 146.153 155.056 147.137 155.968C148.121 156.88 149.405 157.336 150.989 157.336C151.877 157.336 152.765 157.168 153.653 156.832C154.565 156.496 155.321 156.028 155.921 155.428L157.649 157.912C155.897 159.592 153.545 160.432 150.593 160.432ZM155.201 149.884C155.153 148.684 154.709 147.616 153.869 146.68C153.053 145.744 151.865 145.276 150.305 145.276C148.817 145.276 147.653 145.744 146.813 146.68C145.973 147.592 145.505 148.66 145.409 149.884H155.201ZM182.08 160H178.3V147.904L173.116 160H171.604L166.384 147.904V160H162.604V142.612H167.536L172.36 153.844L177.112 142.612H182.08V160ZM190.604 160H186.968V142.612H190.748V154.312L198.74 142.612H202.52V160H198.74V147.976L190.604 160ZM206.816 142.612H210.596V147.292C210.596 148.588 210.92 149.5 211.568 150.028C212.24 150.556 213.296 150.82 214.736 150.82C216.296 150.82 217.568 150.604 218.552 150.172V142.612H222.332V160H218.552V153.232C217.304 153.856 215.636 154.168 213.548 154.168C211.172 154.168 209.456 153.712 208.4 152.8C207.344 151.888 206.816 150.508 206.816 148.66V142.612ZM235.249 160.432C232.609 160.432 230.425 159.592 228.697 157.912C226.993 156.208 226.141 154 226.141 151.288C226.141 148.744 226.969 146.596 228.625 144.844C230.305 143.068 232.417 142.18 234.961 142.18C237.529 142.18 239.593 143.068 241.153 144.844C242.737 146.62 243.529 148.888 243.529 151.648V152.548H230.101C230.245 153.916 230.809 155.056 231.793 155.968C232.777 156.88 234.061 157.336 235.645 157.336C236.533 157.336 237.421 157.168 238.309 156.832C239.221 156.496 239.977 156.028 240.577 155.428L242.305 157.912C240.553 159.592 238.201 160.432 235.249 160.432ZM239.857 149.884C239.809 148.684 239.365 147.616 238.525 146.68C237.709 145.744 236.521 145.276 234.961 145.276C233.473 145.276 232.309 145.744 231.469 146.68C230.629 147.592 230.161 148.66 230.065 149.884H239.857ZM255.181 160.432C252.541 160.432 250.381 159.58 248.701 157.876C247.021 156.148 246.181 153.952 246.181 151.288C246.181 148.648 247.021 146.476 248.701 144.772C250.381 143.044 252.541 142.18 255.181 142.18C258.085 142.18 260.305 143.212 261.841 145.276L259.357 147.58C258.397 146.212 257.065 145.528 255.361 145.528C253.777 145.528 252.505 146.068 251.545 147.148C250.585 148.204 250.104 149.584 250.104 151.288C250.104 152.992 250.585 154.384 251.545 155.464C252.505 156.544 253.777 157.084 255.361 157.084C257.017 157.084 258.349 156.4 259.357 155.032L261.841 157.336C260.305 159.4 258.085 160.432 255.181 160.432ZM281.427 160H276.675L271.347 152.836L268.935 155.32V160H265.155V142.612H268.935V151L276.603 142.612H281.283L274.047 150.496L281.427 160ZM287.74 160H284.104V142.612H287.884V154.312L295.876 142.612H299.656V160H295.876V147.976L287.74 160ZM329.363 160H325.583V145.924H317.591V160H313.811V142.612H329.363V160ZM342.12 160.432C339.432 160.432 337.272 159.556 335.64 157.804C334.008 156.028 333.192 153.856 333.192 151.288C333.192 148.72 334.008 146.56 335.64 144.808C337.272 143.056 339.432 142.18 342.12 142.18C344.832 142.18 347.004 143.056 348.636 144.808C350.268 146.56 351.084 148.72 351.084 151.288C351.084 153.88 350.268 156.052 348.636 157.804C347.004 159.556 344.832 160.432 342.12 160.432ZM342.12 157.084C343.68 157.084 344.904 156.532 345.792 155.428C346.704 154.3 347.16 152.92 347.16 151.288C347.16 149.68 346.704 148.324 345.792 147.22C344.904 146.092 343.68 145.528 342.12 145.528C340.584 145.528 339.36 146.092 338.448 147.22C337.56 148.324 337.116 149.68 337.116 151.288C337.116 152.92 337.56 154.3 338.448 155.428C339.36 156.532 340.584 157.084 342.12 157.084ZM353.109 164.428V156.868C353.925 156.676 354.537 156.208 354.945 155.464C355.377 154.696 355.725 153.232 355.989 151.072L357.033 142.612H370.461V156.688H372.369V164.428H368.589V160H356.889V164.428H353.109ZM360.381 145.924L359.769 151.504C359.529 153.808 358.761 155.536 357.465 156.688H366.681V145.924H360.381ZM390.703 160H386.455L381.955 153.592L377.419 160H373.207L379.579 151.072L373.567 142.612H377.815L381.955 148.516L386.059 142.612H390.307L384.295 151.072L390.703 160ZM399.917 160.432C397.229 160.432 395.069 159.556 393.437 157.804C391.805 156.028 390.989 153.856 390.989 151.288C390.989 148.72 391.805 146.56 393.437 144.808C395.069 143.056 397.229 142.18 399.917 142.18C402.629 142.18 404.801 143.056 406.433 144.808C408.065 146.56 408.881 148.72 408.881 151.288C408.881 153.88 408.065 156.052 406.433 157.804C404.801 159.556 402.629 160.432 399.917 160.432ZM399.917 157.084C401.477 157.084 402.701 156.532 403.589 155.428C404.501 154.3 404.957 152.92 404.957 151.288C404.957 149.68 404.501 148.324 403.589 147.22C402.701 146.092 401.477 145.528 399.917 145.528C398.381 145.528 397.157 146.092 396.245 147.22C395.357 148.324 394.913 149.68 394.913 151.288C394.913 152.92 395.357 154.3 396.245 155.428C397.157 156.532 398.381 157.084 399.917 157.084ZM410.906 164.428V156.868C411.722 156.676 412.334 156.208 412.742 155.464C413.174 154.696 413.522 153.232 413.786 151.072L414.83 142.612H428.258V156.688H430.166V164.428H426.386V160H414.686V164.428H410.906ZM418.178 145.924L417.566 151.504C417.326 153.808 416.558 155.536 415.262 156.688H424.478V145.924H418.178ZM436.98 160H432.66L436.944 153.52C435.744 153.256 434.76 152.656 433.992 151.72C433.248 150.784 432.876 149.596 432.876 148.156C432.876 146.596 433.38 145.288 434.388 144.232C435.42 143.152 436.836 142.612 438.636 142.612H448.572V160H444.792V153.7H440.796L436.98 160ZM439.104 150.388H444.792V145.924H439.104C438.384 145.924 437.808 146.14 437.376 146.572C436.944 146.98 436.728 147.508 436.728 148.156C436.728 148.828 436.932 149.368 437.34 149.776C437.772 150.184 438.36 150.388 439.104 150.388ZM460.4 160H456.62V145.924H451.652V142.612H465.404V145.924H460.4V160ZM494.017 160H489.265L483.937 152.836L481.525 155.32V160H477.745V142.612H481.525V151L489.193 142.612H493.873L486.637 150.496L494.017 160ZM521.492 160H517.712V145.924H509.72V160H505.94V142.612H521.492V160ZM534.249 160.432C531.561 160.432 529.401 159.556 527.769 157.804C526.137 156.028 525.321 153.856 525.321 151.288C525.321 148.72 526.137 146.56 527.769 144.808C529.401 143.056 531.561 142.18 534.249 142.18C536.961 142.18 539.133 143.056 540.765 144.808C542.397 146.56 543.213 148.72 543.213 151.288C543.213 153.88 542.397 156.052 540.765 157.804C539.133 159.556 536.961 160.432 534.249 160.432ZM534.249 157.084C535.809 157.084 537.033 156.532 537.921 155.428C538.833 154.3 539.289 152.92 539.289 151.288C539.289 149.68 538.833 148.324 537.921 147.22C537.033 146.092 535.809 145.528 534.249 145.528C532.713 145.528 531.489 146.092 530.577 147.22C529.689 148.324 529.245 149.68 529.245 151.288C529.245 152.92 529.689 154.3 530.577 155.428C531.489 156.532 532.713 157.084 534.249 157.084ZM545.238 164.428V156.868C546.054 156.676 546.666 156.208 547.074 155.464C547.506 154.696 547.854 153.232 548.118 151.072L549.162 142.612H562.59V156.688H564.498V164.428H560.718V160H549.018V164.428H545.238ZM552.51 145.924L551.898 151.504C551.658 153.808 550.89 155.536 549.594 156.688H558.81V145.924H552.51ZM582.004 160H578.224V158.128C576.88 159.664 575.008 160.432 572.608 160.432C571.024 160.432 569.62 159.928 568.396 158.92C567.172 157.888 566.56 156.472 566.56 154.672C566.56 152.824 567.16 151.42 568.36 150.46C569.584 149.5 571 149.02 572.608 149.02C575.08 149.02 576.952 149.764 578.224 151.252V148.66C578.224 147.652 577.852 146.86 577.108 146.284C576.364 145.708 575.38 145.42 574.156 145.42C572.212 145.42 570.496 146.152 569.008 147.616L567.46 144.988C569.428 143.116 571.864 142.18 574.768 142.18C576.904 142.18 578.644 142.684 579.988 143.692C581.332 144.7 582.004 146.296 582.004 148.48V160ZM574.084 157.84C575.98 157.84 577.36 157.24 578.224 156.04V153.412C577.36 152.212 575.98 151.612 574.084 151.612C573.004 151.612 572.116 151.9 571.42 152.476C570.724 153.052 570.376 153.808 570.376 154.744C570.376 155.68 570.724 156.436 571.42 157.012C572.116 157.564 573.004 157.84 574.084 157.84ZM586.293 142.612H590.073V147.292C590.073 148.588 590.397 149.5 591.045 150.028C591.717 150.556 592.773 150.82 594.213 150.82C595.773 150.82 597.045 150.604 598.029 150.172V142.612H601.809V160H598.029V153.232C596.781 153.856 595.113 154.168 593.025 154.168C590.649 154.168 588.933 153.712 587.877 152.8C586.821 151.888 586.293 150.508 586.293 148.66V142.612ZM614.726 160.432C612.086 160.432 609.902 159.592 608.174 157.912C606.47 156.208 605.618 154 605.618 151.288C605.618 148.744 606.446 146.596 608.102 144.844C609.782 143.068 611.894 142.18 614.438 142.18C617.006 142.18 619.07 143.068 620.63 144.844C622.214 146.62 623.006 148.888 623.006 151.648V152.548H609.578C609.722 153.916 610.286 155.056 611.27 155.968C612.254 156.88 613.538 157.336 615.122 157.336C616.01 157.336 616.898 157.168 617.786 156.832C618.698 156.496 619.454 156.028 620.054 155.428L621.782 157.912C620.03 159.592 617.678 160.432 614.726 160.432ZM619.334 149.884C619.286 148.684 618.842 147.616 618.002 146.68C617.186 145.744 615.998 145.276 614.438 145.276C612.95 145.276 611.786 145.744 610.946 146.68C610.106 147.592 609.638 148.66 609.542 149.884H619.334ZM68.084 205H64.448V187.612H68.228V199.312L76.22 187.612H80V205H76.22V192.976L68.084 205ZM88.6889 205H84.9089V187.612H88.6889V194.452H96.6809V187.612H100.461V205H96.6809V197.764H88.6889V205ZM106.666 189.664C107.866 188.008 109.426 187.18 111.346 187.18C113.266 187.18 114.826 188.128 116.026 190.024V180.988H119.806V189.988C120.982 188.116 122.542 187.18 124.486 187.18C126.406 187.18 127.966 187.996 129.166 189.628C130.366 191.26 130.966 193.48 130.966 196.288C130.966 199.096 130.366 201.328 129.166 202.984C127.966 204.616 126.406 205.432 124.486 205.432C122.566 205.432 121.006 204.484 119.806 202.588V211.624H116.026V202.624C114.85 204.496 113.29 205.432 111.346 205.432C109.426 205.432 107.866 204.616 106.666 202.984C105.466 201.352 104.866 199.132 104.866 196.324C104.866 193.516 105.466 191.296 106.666 189.664ZM112.534 190.528C111.382 190.528 110.446 191.068 109.726 192.148C109.03 193.228 108.682 194.62 108.682 196.324C108.682 198.028 109.03 199.42 109.726 200.5C110.446 201.556 111.382 202.084 112.534 202.084C113.206 202.084 113.866 201.856 114.514 201.4C115.186 200.944 115.69 200.392 116.026 199.744V192.868C115.69 192.22 115.186 191.668 114.514 191.212C113.866 190.756 113.206 190.528 112.534 190.528ZM123.298 202.084C124.45 202.084 125.374 201.544 126.07 200.464C126.79 199.384 127.15 197.992 127.15 196.288C127.15 194.584 126.79 193.204 126.07 192.148C125.374 191.068 124.45 190.528 123.298 190.528C122.626 190.528 121.954 190.756 121.282 191.212C120.634 191.668 120.142 192.22 119.806 192.868V199.744C120.142 200.392 120.634 200.944 121.282 201.4C121.954 201.856 122.626 202.084 123.298 202.084ZM143.206 205.432C140.518 205.432 138.358 204.556 136.726 202.804C135.094 201.028 134.278 198.856 134.278 196.288C134.278 193.72 135.094 191.56 136.726 189.808C138.358 188.056 140.518 187.18 143.206 187.18C145.918 187.18 148.09 188.056 149.722 189.808C151.354 191.56 152.17 193.72 152.17 196.288C152.17 198.88 151.354 201.052 149.722 202.804C148.09 204.556 145.918 205.432 143.206 205.432ZM143.206 202.084C144.766 202.084 145.99 201.532 146.878 200.428C147.79 199.3 148.246 197.92 148.246 196.288C148.246 194.68 147.79 193.324 146.878 192.22C145.99 191.092 144.766 190.528 143.206 190.528C141.67 190.528 140.446 191.092 139.534 192.22C138.646 193.324 138.202 194.68 138.202 196.288C138.202 197.92 138.646 199.3 139.534 200.428C140.446 201.532 141.67 202.084 143.206 202.084ZM165.355 205.432C163.051 205.432 161.191 204.484 159.775 202.588V211.624H155.995V187.612H159.775V189.988C161.167 188.116 163.027 187.18 165.355 187.18C167.635 187.18 169.483 187.996 170.899 189.628C172.339 191.26 173.059 193.48 173.059 196.288C173.059 199.096 172.339 201.328 170.899 202.984C169.483 204.616 167.635 205.432 165.355 205.432ZM164.239 202.084C165.727 202.084 166.915 201.544 167.803 200.464C168.691 199.384 169.135 197.992 169.135 196.288C169.135 194.584 168.691 193.204 167.803 192.148C166.915 191.068 165.727 190.528 164.239 190.528C163.375 190.528 162.523 190.756 161.683 191.212C160.843 191.668 160.207 192.22 159.775 192.868V199.744C160.207 200.392 160.843 200.944 161.683 201.4C162.523 201.856 163.375 202.084 164.239 202.084ZM196.283 205H192.503V192.904L187.319 205H185.807L180.587 192.904V205H176.807V187.612H181.739L186.563 198.844L191.315 187.612H196.283V205ZM215.571 205H211.791V203.128C210.447 204.664 208.575 205.432 206.175 205.432C204.591 205.432 203.187 204.928 201.963 203.92C200.739 202.888 200.127 201.472 200.127 199.672C200.127 197.824 200.727 196.42 201.927 195.46C203.151 194.5 204.567 194.02 206.175 194.02C208.647 194.02 210.519 194.764 211.791 196.252V193.66C211.791 192.652 211.419 191.86 210.675 191.284C209.931 190.708 208.947 190.42 207.723 190.42C205.779 190.42 204.063 191.152 202.575 192.616L201.027 189.988C202.995 188.116 205.431 187.18 208.335 187.18C210.471 187.18 212.211 187.684 213.555 188.692C214.899 189.7 215.571 191.296 215.571 193.48V205ZM207.651 202.84C209.547 202.84 210.927 202.24 211.791 201.04V198.412C210.927 197.212 209.547 196.612 207.651 196.612C206.571 196.612 205.683 196.9 204.987 197.476C204.291 198.052 203.943 198.808 203.943 199.744C203.943 200.68 204.291 201.436 204.987 202.012C205.683 202.564 206.571 202.84 207.651 202.84ZM234.151 209.428V205H220.471V187.612H224.251V201.688H232.243V187.612H236.023V201.688H237.931V209.428H234.151ZM244.674 205H241.038V187.612H244.818V199.312L252.81 187.612H256.59V205H252.81V192.976L244.674 205ZM265.135 205H261.499V187.612H265.279V199.312L273.271 187.612H277.051V205H273.271V192.976L265.135 205ZM285.668 204.676C285.164 205.156 284.576 205.396 283.904 205.396C283.232 205.396 282.644 205.156 282.14 204.676C281.636 204.172 281.384 203.572 281.384 202.876C281.384 202.18 281.636 201.592 282.14 201.112C282.644 200.608 283.232 200.356 283.904 200.356C284.576 200.356 285.164 200.608 285.668 201.112C286.172 201.592 286.424 202.18 286.424 202.876C286.424 203.572 286.172 204.172 285.668 204.676ZM321.054 205H316.842V194.524H304.35V205H300.138V180.988H304.35V190.816H316.842V180.988H321.054V205ZM334.074 205.432C331.434 205.432 329.25 204.592 327.522 202.912C325.818 201.208 324.966 199 324.966 196.288C324.966 193.744 325.794 191.596 327.45 189.844C329.13 188.068 331.242 187.18 333.786 187.18C336.354 187.18 338.418 188.068 339.978 189.844C341.562 191.62 342.354 193.888 342.354 196.648V197.548H328.926C329.07 198.916 329.634 200.056 330.618 200.968C331.602 201.88 332.886 202.336 334.47 202.336C335.358 202.336 336.246 202.168 337.134 201.832C338.046 201.496 338.802 201.028 339.402 200.428L341.13 202.912C339.378 204.592 337.026 205.432 334.074 205.432ZM338.682 194.884C338.634 193.684 338.19 192.616 337.35 191.68C336.534 190.744 335.346 190.276 333.786 190.276C332.298 190.276 331.134 190.744 330.294 191.68C329.454 192.592 328.986 193.66 328.89 194.884H338.682ZM362.357 205H357.605L352.277 197.836L349.865 200.32V205H346.085V187.612H349.865V196L357.533 187.612H362.213L354.977 195.496L362.357 205ZM372.706 205.432C370.018 205.432 367.858 204.556 366.226 202.804C364.594 201.028 363.778 198.856 363.778 196.288C363.778 193.72 364.594 191.56 366.226 189.808C367.858 188.056 370.018 187.18 372.706 187.18C375.418 187.18 377.59 188.056 379.222 189.808C380.854 191.56 381.67 193.72 381.67 196.288C381.67 198.88 380.854 201.052 379.222 202.804C377.59 204.556 375.418 205.432 372.706 205.432ZM372.706 202.084C374.266 202.084 375.49 201.532 376.378 200.428C377.29 199.3 377.746 197.92 377.746 196.288C377.746 194.68 377.29 193.324 376.378 192.22C375.49 191.092 374.266 190.528 372.706 190.528C371.17 190.528 369.946 191.092 369.034 192.22C368.146 193.324 367.702 194.68 367.702 196.288C367.702 197.92 368.146 199.3 369.034 200.428C369.946 201.532 371.17 202.084 372.706 202.084ZM392.443 205H388.663V190.924H383.695V187.612H397.447V190.924H392.443V205ZM408.39 205.432C405.702 205.432 403.542 204.556 401.91 202.804C400.278 201.028 399.462 198.856 399.462 196.288C399.462 193.72 400.278 191.56 401.91 189.808C403.542 188.056 405.702 187.18 408.39 187.18C411.102 187.18 413.274 188.056 414.906 189.808C416.538 191.56 417.354 193.72 417.354 196.288C417.354 198.88 416.538 201.052 414.906 202.804C413.274 204.556 411.102 205.432 408.39 205.432ZM408.39 202.084C409.95 202.084 411.174 201.532 412.062 200.428C412.974 199.3 413.43 197.92 413.43 196.288C413.43 194.68 412.974 193.324 412.062 192.22C411.174 191.092 409.95 190.528 408.39 190.528C406.854 190.528 405.63 191.092 404.718 192.22C403.83 193.324 403.386 194.68 403.386 196.288C403.386 197.92 403.83 199.3 404.718 200.428C405.63 201.532 406.854 202.084 408.39 202.084ZM430.538 205.432C428.234 205.432 426.374 204.484 424.958 202.588V211.624H421.178V187.612H424.958V189.988C426.35 188.116 428.21 187.18 430.538 187.18C432.818 187.18 434.666 187.996 436.082 189.628C437.522 191.26 438.242 193.48 438.242 196.288C438.242 199.096 437.522 201.328 436.082 202.984C434.666 204.616 432.818 205.432 430.538 205.432ZM429.422 202.084C430.91 202.084 432.098 201.544 432.986 200.464C433.874 199.384 434.318 197.992 434.318 196.288C434.318 194.584 433.874 193.204 432.986 192.148C432.098 191.068 430.91 190.528 429.422 190.528C428.558 190.528 427.706 190.756 426.866 191.212C426.026 191.668 425.39 192.22 424.958 192.868V199.744C425.39 200.392 426.026 200.944 426.866 201.4C427.706 201.856 428.558 202.084 429.422 202.084ZM441.991 187.612H445.771V193.912H451.927C453.775 193.912 455.191 194.44 456.175 195.496C457.183 196.552 457.687 197.872 457.687 199.456C457.687 201.016 457.171 202.336 456.139 203.416C455.131 204.472 453.727 205 451.927 205H441.991V187.612ZM451.459 197.224H445.771V201.688H451.459C452.203 201.688 452.779 201.484 453.187 201.076C453.619 200.668 453.835 200.128 453.835 199.456C453.835 198.784 453.619 198.244 453.187 197.836C452.779 197.428 452.203 197.224 451.459 197.224ZM464.095 205H460.315V187.612H464.095V205ZM477.019 205.432C474.379 205.432 472.195 204.592 470.467 202.912C468.763 201.208 467.911 199 467.911 196.288C467.911 193.744 468.739 191.596 470.395 189.844C472.075 188.068 474.187 187.18 476.731 187.18C479.299 187.18 481.363 188.068 482.923 189.844C484.507 191.62 485.299 193.888 485.299 196.648V197.548H471.871C472.015 198.916 472.579 200.056 473.563 200.968C474.547 201.88 475.831 202.336 477.415 202.336C478.303 202.336 479.191 202.168 480.079 201.832C480.991 201.496 481.747 201.028 482.347 200.428L484.075 202.912C482.323 204.592 479.971 205.432 477.019 205.432ZM481.627 194.884C481.579 193.684 481.135 192.616 480.295 191.68C479.479 190.744 478.291 190.276 476.731 190.276C475.243 190.276 474.079 190.744 473.239 191.68C472.399 192.592 471.931 193.66 471.835 194.884H481.627ZM501.984 205H497.664L501.948 198.52C500.748 198.256 499.764 197.656 498.996 196.72C498.252 195.784 497.88 194.596 497.88 193.156C497.88 191.596 498.384 190.288 499.392 189.232C500.424 188.152 501.84 187.612 503.64 187.612H513.576V205H509.796V198.7H505.8L501.984 205ZM504.108 195.388H509.796V190.924H504.108C503.388 190.924 502.812 191.14 502.38 191.572C501.948 191.98 501.732 192.508 501.732 193.156C501.732 193.828 501.936 194.368 502.344 194.776C502.776 195.184 503.364 195.388 504.108 195.388ZM529.112 205H518.456V187.612H528.86C530.468 187.612 531.728 188.032 532.64 188.872C533.552 189.712 534.008 190.78 534.008 192.076C534.008 193.084 533.732 193.936 533.18 194.632C532.628 195.328 531.932 195.796 531.092 196.036C532.028 196.252 532.808 196.768 533.432 197.584C534.056 198.376 534.368 199.276 534.368 200.284C534.368 201.676 533.9 202.816 532.964 203.704C532.052 204.568 530.768 205 529.112 205ZM528.32 201.688C528.992 201.688 529.52 201.52 529.904 201.184C530.288 200.824 530.48 200.344 530.48 199.744C530.48 199.192 530.288 198.724 529.904 198.34C529.52 197.956 528.992 197.764 528.32 197.764H522.236V201.688H528.32ZM528.212 194.452C528.812 194.452 529.28 194.296 529.616 193.984C529.976 193.648 530.156 193.228 530.156 192.724C530.156 192.172 529.976 191.74 529.616 191.428C529.28 191.092 528.812 190.924 528.212 190.924H522.236V194.452H528.212ZM537.257 205.432V202.336C538.001 202.336 538.589 201.856 539.021 200.896C539.477 199.936 539.849 198.328 540.137 196.072L541.181 187.612H554.609V205H550.829V190.924H544.529L543.917 196.504C543.581 199.624 542.873 201.892 541.793 203.308C540.713 204.724 539.201 205.432 537.257 205.432ZM563.226 205H558.906L563.19 198.52C561.99 198.256 561.006 197.656 560.238 196.72C559.494 195.784 559.122 194.596 559.122 193.156C559.122 191.596 559.626 190.288 560.634 189.232C561.666 188.152 563.082 187.612 564.882 187.612H574.818V205H571.038V198.7H567.042L563.226 205ZM565.35 195.388H571.038V190.924H565.35C564.63 190.924 564.054 191.14 563.622 191.572C563.19 191.98 562.974 192.508 562.974 193.156C562.974 193.828 563.178 194.368 563.586 194.776C564.018 195.184 564.606 195.388 565.35 195.388ZM595.322 205.432C592.898 205.432 590.894 204.712 589.31 203.272C587.75 201.832 586.814 199.996 586.502 197.764H583.478V205H579.698V187.612H583.478V194.452H586.538C586.922 192.316 587.894 190.576 589.454 189.232C591.038 187.864 592.994 187.18 595.322 187.18C598.034 187.18 600.206 188.056 601.838 189.808C603.47 191.56 604.286 193.72 604.286 196.288C604.286 198.88 603.47 201.052 601.838 202.804C600.206 204.556 598.034 205.432 595.322 205.432ZM595.322 202.084C596.882 202.084 598.106 201.532 598.994 200.428C599.906 199.3 600.362 197.92 600.362 196.288C600.362 194.68 599.906 193.324 598.994 192.22C598.106 191.092 596.882 190.528 595.322 190.528C593.786 190.528 592.562 191.092 591.65 192.22C590.762 193.324 590.318 194.68 590.318 196.288C590.318 197.92 590.762 199.3 591.65 200.428C592.562 201.532 593.786 202.084 595.322 202.084ZM615.052 205H611.272V190.924H606.304V187.612H620.056V190.924H615.052V205ZM631.071 205.432C628.431 205.432 626.271 204.58 624.591 202.876C622.911 201.148 622.071 198.952 622.071 196.288C622.071 193.648 622.911 191.476 624.591 189.772C626.271 188.044 628.431 187.18 631.071 187.18C633.975 187.18 636.195 188.212 637.731 190.276L635.247 192.58C634.287 191.212 632.955 190.528 631.251 190.528C629.667 190.528 628.395 191.068 627.435 192.148C626.475 193.204 625.995 194.584 625.995 196.288C625.995 197.992 626.475 199.384 627.435 200.464C628.395 201.544 629.667 202.084 631.251 202.084C632.907 202.084 634.239 201.4 635.247 200.032L637.731 202.336C636.195 204.4 633.975 205.432 631.071 205.432ZM644.754 205H640.434L644.718 198.52C643.518 198.256 642.534 197.656 641.766 196.72C641.022 195.784 640.65 194.596 640.65 193.156C640.65 191.596 641.154 190.288 642.162 189.232C643.194 188.152 644.61 187.612 646.41 187.612H656.346V205H652.566V198.7H648.57L644.754 205ZM646.878 195.388H652.566V190.924H646.878C646.158 190.924 645.582 191.14 645.15 191.572C644.718 191.98 644.502 192.508 644.502 193.156C644.502 193.828 644.706 194.368 645.114 194.776C645.546 195.184 646.134 195.388 646.878 195.388ZM68.228 250H64.448V232.612H68.228V239.452H76.22V232.612H80V250H76.22V242.764H68.228V250ZM92.9369 250.432C90.2969 250.432 88.1129 249.592 86.3849 247.912C84.6809 246.208 83.8289 244 83.8289 241.288C83.8289 238.744 84.6569 236.596 86.3129 234.844C87.9929 233.068 90.1049 232.18 92.6489 232.18C95.2169 232.18 97.2809 233.068 98.8409 234.844C100.425 236.62 101.217 238.888 101.217 241.648V242.548H87.7889C87.9329 243.916 88.4969 245.056 89.4809 245.968C90.4649 246.88 91.7489 247.336 93.3329 247.336C94.2209 247.336 95.1089 247.168 95.9969 246.832C96.9089 246.496 97.6649 246.028 98.2649 245.428L99.9929 247.912C98.2409 249.592 95.8889 250.432 92.9369 250.432ZM97.5449 239.884C97.4969 238.684 97.0529 237.616 96.2129 236.68C95.3969 235.744 94.2089 235.276 92.6489 235.276C91.1609 235.276 89.9969 235.744 89.1569 236.68C88.3169 237.592 87.8489 238.66 87.7529 239.884H97.5449ZM121.22 250H116.468L111.14 242.836L108.728 245.32V250H104.948V232.612H108.728V241L116.396 232.612H121.076L113.84 240.496L121.22 250ZM123.141 256.804L123.717 253.42C124.149 253.612 124.629 253.708 125.157 253.708C126.381 253.708 127.209 253.204 127.641 252.196L128.505 250.216L121.377 232.612H125.409L130.485 245.644L135.561 232.612H139.629L131.241 253.132C130.209 255.7 128.217 257.008 125.265 257.056C124.473 257.056 123.765 256.972 123.141 256.804ZM151.363 250.432C149.059 250.432 147.199 249.484 145.783 247.588V256.624H142.003V232.612H145.783V234.988C147.175 233.116 149.035 232.18 151.363 232.18C153.643 232.18 155.491 232.996 156.907 234.628C158.347 236.26 159.067 238.48 159.067 241.288C159.067 244.096 158.347 246.328 156.907 247.984C155.491 249.616 153.643 250.432 151.363 250.432ZM150.247 247.084C151.735 247.084 152.923 246.544 153.811 245.464C154.699 244.384 155.143 242.992 155.143 241.288C155.143 239.584 154.699 238.204 153.811 237.148C152.923 236.068 151.735 235.528 150.247 235.528C149.383 235.528 148.531 235.756 147.691 236.212C146.851 236.668 146.215 237.22 145.783 237.868V244.744C146.215 245.392 146.851 245.944 147.691 246.4C148.531 246.856 149.383 247.084 150.247 247.084ZM166.451 250H162.815V232.612H166.595V244.312L174.587 232.612H178.367V250H174.587V237.976L166.451 250ZM192.636 250.432C190.332 250.432 188.472 249.484 187.056 247.588V256.624H183.276V232.612H187.056V234.988C188.448 233.116 190.308 232.18 192.636 232.18C194.916 232.18 196.764 232.996 198.18 234.628C199.62 236.26 200.34 238.48 200.34 241.288C200.34 244.096 199.62 246.328 198.18 247.984C196.764 249.616 194.916 250.432 192.636 250.432ZM191.52 247.084C193.008 247.084 194.196 246.544 195.084 245.464C195.972 244.384 196.416 242.992 196.416 241.288C196.416 239.584 195.972 238.204 195.084 237.148C194.196 236.068 193.008 235.528 191.52 235.528C190.656 235.528 189.804 235.756 188.964 236.212C188.124 236.668 187.488 237.22 187.056 237.868V244.744C187.488 245.392 188.124 245.944 188.964 246.4C189.804 246.856 190.656 247.084 191.52 247.084ZM203.333 256.804L203.909 253.42C204.341 253.612 204.821 253.708 205.349 253.708C206.573 253.708 207.401 253.204 207.833 252.196L208.697 250.216L201.569 232.612H205.601L210.677 245.644L215.753 232.612H219.821L211.433 253.132C210.401 255.7 208.409 257.008 205.457 257.056C204.665 257.056 203.957 256.972 203.333 256.804ZM230.222 250.432C227.582 250.432 225.398 249.592 223.67 247.912C221.966 246.208 221.114 244 221.114 241.288C221.114 238.744 221.942 236.596 223.598 234.844C225.278 233.068 227.39 232.18 229.934 232.18C232.502 232.18 234.566 233.068 236.126 234.844C237.71 236.62 238.502 238.888 238.502 241.648V242.548H225.074C225.218 243.916 225.782 245.056 226.766 245.968C227.75 246.88 229.034 247.336 230.618 247.336C231.506 247.336 232.394 247.168 233.282 246.832C234.194 246.496 234.95 246.028 235.55 245.428L237.278 247.912C235.526 249.592 233.174 250.432 230.222 250.432ZM234.83 239.884C234.782 238.684 234.338 237.616 233.498 236.68C232.682 235.744 231.494 235.276 229.934 235.276C228.446 235.276 227.282 235.744 226.442 236.68C225.602 237.592 225.134 238.66 225.038 239.884H234.83ZM261.709 250H257.929V237.904L252.745 250H251.233L246.013 237.904V250H242.233V232.612H247.165L251.989 243.844L256.741 232.612H261.709V250ZM266.596 232.612H270.376V238.912H276.532C278.38 238.912 279.796 239.44 280.78 240.496C281.788 241.552 282.292 242.872 282.292 244.456C282.292 246.016 281.776 247.336 280.744 248.416C279.736 249.472 278.332 250 276.532 250H266.596V232.612ZM276.064 242.224H270.376V246.688H276.064C276.808 246.688 277.384 246.484 277.792 246.076C278.224 245.668 278.44 245.128 278.44 244.456C278.44 243.784 278.224 243.244 277.792 242.836C277.384 242.428 276.808 242.224 276.064 242.224ZM288.7 250H284.92V232.612H288.7V250ZM313.072 250H309.292V237.904L304.108 250H302.596L297.376 237.904V250H293.596V232.612H298.528L303.352 243.844L308.104 232.612H313.072V250ZM321.596 250H317.96V232.612H321.74V244.312L329.732 232.612H333.512V250H329.732V237.976L321.596 250ZM357.027 250.432C354.723 250.432 352.863 249.484 351.447 247.588V256.624H347.667V232.612H351.447V234.988C352.839 233.116 354.699 232.18 357.027 232.18C359.307 232.18 361.155 232.996 362.571 234.628C364.011 236.26 364.731 238.48 364.731 241.288C364.731 244.096 364.011 246.328 362.571 247.984C361.155 249.616 359.307 250.432 357.027 250.432ZM355.911 247.084C357.399 247.084 358.587 246.544 359.475 245.464C360.363 244.384 360.807 242.992 360.807 241.288C360.807 239.584 360.363 238.204 359.475 237.148C358.587 236.068 357.399 235.528 355.911 235.528C355.047 235.528 354.195 235.756 353.355 236.212C352.515 236.668 351.879 237.22 351.447 237.868V244.744C351.879 245.392 352.515 245.944 353.355 246.4C354.195 246.856 355.047 247.084 355.911 247.084ZM376.507 250.432C373.867 250.432 371.683 249.592 369.955 247.912C368.251 246.208 367.399 244 367.399 241.288C367.399 238.744 368.227 236.596 369.883 234.844C371.563 233.068 373.675 232.18 376.219 232.18C378.787 232.18 380.851 233.068 382.411 234.844C383.995 236.62 384.787 238.888 384.787 241.648V242.548H371.359C371.503 243.916 372.067 245.056 373.051 245.968C374.035 246.88 375.319 247.336 376.903 247.336C377.791 247.336 378.679 247.168 379.567 246.832C380.479 246.496 381.235 246.028 381.835 245.428L383.563 247.912C381.811 249.592 379.459 250.432 376.507 250.432ZM381.115 239.884C381.067 238.684 380.623 237.616 379.783 236.68C378.967 235.744 377.779 235.276 376.219 235.276C374.731 235.276 373.567 235.744 372.727 236.68C371.887 237.592 371.419 238.66 371.323 239.884H381.115ZM396.438 250.432C393.798 250.432 391.638 249.58 389.958 247.876C388.278 246.148 387.438 243.952 387.438 241.288C387.438 238.648 388.278 236.476 389.958 234.772C391.638 233.044 393.798 232.18 396.438 232.18C399.342 232.18 401.562 233.212 403.098 235.276L400.614 237.58C399.654 236.212 398.322 235.528 396.618 235.528C395.034 235.528 393.762 236.068 392.802 237.148C391.842 238.204 391.362 239.584 391.362 241.288C391.362 242.992 391.842 244.384 392.802 245.464C393.762 246.544 395.034 247.084 396.618 247.084C398.274 247.084 399.606 246.4 400.614 245.032L403.098 247.336C401.562 249.4 399.342 250.432 396.438 250.432ZM405.657 256.804L406.233 253.42C406.665 253.612 407.145 253.708 407.673 253.708C408.897 253.708 409.725 253.204 410.157 252.196L411.021 250.216L403.893 232.612H407.925L413.001 245.644L418.077 232.612H422.145L413.757 253.132C412.725 255.7 410.733 257.008 407.781 257.056C406.989 257.056 406.281 256.972 405.657 256.804ZM433.878 250.432C431.574 250.432 429.714 249.484 428.298 247.588V256.624H424.518V232.612H428.298V234.988C429.69 233.116 431.55 232.18 433.878 232.18C436.158 232.18 438.006 232.996 439.422 234.628C440.862 236.26 441.582 238.48 441.582 241.288C441.582 244.096 440.862 246.328 439.422 247.984C438.006 249.616 436.158 250.432 433.878 250.432ZM432.762 247.084C434.25 247.084 435.438 246.544 436.326 245.464C437.214 244.384 437.658 242.992 437.658 241.288C437.658 239.584 437.214 238.204 436.326 237.148C435.438 236.068 434.25 235.528 432.762 235.528C431.898 235.528 431.046 235.756 430.206 236.212C429.366 236.668 428.73 237.22 428.298 237.868V244.744C428.73 245.392 429.366 245.944 430.206 246.4C431.046 246.856 431.898 247.084 432.762 247.084ZM453.251 250.432C450.611 250.432 448.451 249.58 446.771 247.876C445.091 246.148 444.251 243.952 444.251 241.288C444.251 238.648 445.091 236.476 446.771 234.772C448.451 233.044 450.611 232.18 453.251 232.18C456.155 232.18 458.375 233.212 459.911 235.276L457.427 237.58C456.467 236.212 455.135 235.528 453.431 235.528C451.847 235.528 450.575 236.068 449.615 237.148C448.655 238.204 448.175 239.584 448.175 241.288C448.175 242.992 448.655 244.384 449.615 245.464C450.575 246.544 451.847 247.084 453.431 247.084C455.087 247.084 456.419 246.4 457.427 245.032L459.911 247.336C458.375 249.4 456.155 250.432 453.251 250.432ZM477.625 250H473.845V248.128C472.501 249.664 470.629 250.432 468.229 250.432C466.645 250.432 465.241 249.928 464.017 248.92C462.793 247.888 462.181 246.472 462.181 244.672C462.181 242.824 462.781 241.42 463.981 240.46C465.205 239.5 466.621 239.02 468.229 239.02C470.701 239.02 472.573 239.764 473.845 241.252V238.66C473.845 237.652 473.473 236.86 472.729 236.284C471.985 235.708 471.001 235.42 469.777 235.42C467.833 235.42 466.117 236.152 464.629 237.616L463.081 234.988C465.049 233.116 467.485 232.18 470.389 232.18C472.525 232.18 474.265 232.684 475.609 233.692C476.953 234.7 477.625 236.296 477.625 238.48V250ZM469.705 247.84C471.601 247.84 472.981 247.24 473.845 246.04V243.412C472.981 242.212 471.601 241.612 469.705 241.612C468.625 241.612 467.737 241.9 467.041 242.476C466.345 243.052 465.997 243.808 465.997 244.744C465.997 245.68 466.345 246.436 467.041 247.012C467.737 247.564 468.625 247.84 469.705 247.84ZM502.002 250H498.222V237.904L493.038 250H491.526L486.306 237.904V250H482.526V232.612H487.458L492.282 243.844L497.034 232.612H502.002V250ZM510.525 250H506.889V232.612H510.669V244.312L518.661 232.612H522.441V250H518.661V237.976L510.525 250ZM532.03 248.632C532.03 249.832 531.718 250.972 531.094 252.052C530.494 253.156 529.678 254.068 528.646 254.788L526.954 253.384C527.554 253.024 528.106 252.52 528.61 251.872C529.114 251.224 529.426 250.6 529.546 250C529.33 250.072 529.126 250.108 528.934 250.108C528.31 250.108 527.794 249.904 527.386 249.496C526.978 249.064 526.774 248.512 526.774 247.84C526.774 247.168 527.014 246.592 527.494 246.112C527.974 245.608 528.55 245.356 529.222 245.356C529.99 245.356 530.65 245.656 531.202 246.256C531.754 246.832 532.03 247.624 532.03 248.632ZM549.201 250H545.421V232.612H549.201V239.452H557.193V232.612H560.973V250H557.193V242.764H549.201V250ZM573.91 250.432C571.27 250.432 569.086 249.592 567.358 247.912C565.654 246.208 564.802 244 564.802 241.288C564.802 238.744 565.63 236.596 567.286 234.844C568.966 233.068 571.078 232.18 573.622 232.18C576.19 232.18 578.254 233.068 579.814 234.844C581.398 236.62 582.19 238.888 582.19 241.648V242.548H568.762C568.906 243.916 569.47 245.056 570.454 245.968C571.438 246.88 572.722 247.336 574.306 247.336C575.194 247.336 576.082 247.168 576.97 246.832C577.882 246.496 578.638 246.028 579.238 245.428L580.966 247.912C579.214 249.592 576.862 250.432 573.91 250.432ZM578.518 239.884C578.47 238.684 578.026 237.616 577.186 236.68C576.37 235.744 575.182 235.276 573.622 235.276C572.134 235.276 570.97 235.744 570.13 236.68C569.29 237.592 568.822 238.66 568.726 239.884H578.518ZM602.193 250H597.441L592.113 242.836L589.701 245.32V250H585.921V232.612H589.701V241L597.369 232.612H602.049L594.813 240.496L602.193 250ZM612.542 250.432C609.854 250.432 607.694 249.556 606.062 247.804C604.43 246.028 603.614 243.856 603.614 241.288C603.614 238.72 604.43 236.56 606.062 234.808C607.694 233.056 609.854 232.18 612.542 232.18C615.254 232.18 617.426 233.056 619.058 234.808C620.69 236.56 621.506 238.72 621.506 241.288C621.506 243.88 620.69 246.052 619.058 247.804C617.426 249.556 615.254 250.432 612.542 250.432ZM612.542 247.084C614.102 247.084 615.326 246.532 616.214 245.428C617.126 244.3 617.582 242.92 617.582 241.288C617.582 239.68 617.126 238.324 616.214 237.22C615.326 236.092 614.102 235.528 612.542 235.528C611.006 235.528 609.782 236.092 608.87 237.22C607.982 238.324 607.538 239.68 607.538 241.288C607.538 242.92 607.982 244.3 608.87 245.428C609.782 246.532 611.006 247.084 612.542 247.084ZM632.279 250H628.499V235.924H623.531V232.612H637.283V235.924H632.279V250ZM648.226 250.432C645.538 250.432 643.378 249.556 641.746 247.804C640.114 246.028 639.298 243.856 639.298 241.288C639.298 238.72 640.114 236.56 641.746 234.808C643.378 233.056 645.538 232.18 648.226 232.18C650.938 232.18 653.11 233.056 654.742 234.808C656.374 236.56 657.19 238.72 657.19 241.288C657.19 243.88 656.374 246.052 654.742 247.804C653.11 249.556 650.938 250.432 648.226 250.432ZM648.226 247.084C649.786 247.084 651.01 246.532 651.898 245.428C652.81 244.3 653.266 242.92 653.266 241.288C653.266 239.68 652.81 238.324 651.898 237.22C651.01 236.092 649.786 235.528 648.226 235.528C646.69 235.528 645.466 236.092 644.554 237.22C643.666 238.324 643.222 239.68 643.222 241.288C643.222 242.92 643.666 244.3 644.554 245.428C645.466 246.532 646.69 247.084 648.226 247.084ZM670.374 250.432C668.07 250.432 666.21 249.484 664.794 247.588V256.624H661.014V232.612H664.794V234.988C666.186 233.116 668.046 232.18 670.374 232.18C672.654 232.18 674.502 232.996 675.918 234.628C677.358 236.26 678.078 238.48 678.078 241.288C678.078 244.096 677.358 246.328 675.918 247.984C674.502 249.616 672.654 250.432 670.374 250.432ZM669.258 247.084C670.746 247.084 671.934 246.544 672.822 245.464C673.71 244.384 674.154 242.992 674.154 241.288C674.154 239.584 673.71 238.204 672.822 237.148C671.934 236.068 670.746 235.528 669.258 235.528C668.394 235.528 667.542 235.756 666.702 236.212C665.862 236.668 665.226 237.22 664.794 237.868V244.744C665.226 245.392 665.862 245.944 666.702 246.4C667.542 246.856 668.394 247.084 669.258 247.084ZM681.827 232.612H685.607V238.912H691.763C693.611 238.912 695.027 239.44 696.011 240.496C697.019 241.552 697.523 242.872 697.523 244.456C697.523 246.016 697.007 247.336 695.975 248.416C694.967 249.472 693.563 250 691.763 250H681.827V232.612ZM691.295 242.224H685.607V246.688H691.295C692.039 246.688 692.615 246.484 693.023 246.076C693.455 245.668 693.671 245.128 693.671 244.456C693.671 243.784 693.455 243.244 693.023 242.836C692.615 242.428 692.039 242.224 691.295 242.224ZM703.931 250H700.151V232.612H703.931V250ZM716.855 250.432C714.215 250.432 712.031 249.592 710.303 247.912C708.599 246.208 707.747 244 707.747 241.288C707.747 238.744 708.575 236.596 710.231 234.844C711.911 233.068 714.023 232.18 716.567 232.18C719.135 232.18 721.199 233.068 722.759 234.844C724.343 236.62 725.135 238.888 725.135 241.648V242.548H711.707C711.851 243.916 712.415 245.056 713.399 245.968C714.383 246.88 715.667 247.336 717.251 247.336C718.139 247.336 719.027 247.168 719.915 246.832C720.827 246.496 721.583 246.028 722.183 245.428L723.911 247.912C722.159 249.592 719.807 250.432 716.855 250.432ZM721.463 239.884C721.415 238.684 720.971 237.616 720.131 236.68C719.315 235.744 718.127 235.276 716.567 235.276C715.079 235.276 713.915 235.744 713.075 236.68C712.235 237.592 711.767 238.66 711.671 239.884H721.463ZM764.572 242.908H736.744V239.668H764.572V242.908ZM80 295H76.22V280.924H68.228V295H64.448V277.612H80V295ZM94.2689 295.432C91.9649 295.432 90.1049 294.484 88.6889 292.588V301.624H84.9089V277.612H88.6889V279.988C90.0809 278.116 91.9409 277.18 94.2689 277.18C96.5489 277.18 98.3969 277.996 99.8129 279.628C101.253 281.26 101.973 283.48 101.973 286.288C101.973 289.096 101.253 291.328 99.8129 292.984C98.3969 294.616 96.5489 295.432 94.2689 295.432ZM93.1529 292.084C94.6409 292.084 95.8289 291.544 96.7169 290.464C97.6049 289.384 98.0489 287.992 98.0489 286.288C98.0489 284.584 97.6049 283.204 96.7169 282.148C95.8289 281.068 94.6409 280.528 93.1529 280.528C92.2889 280.528 91.4369 280.756 90.5969 281.212C89.7569 281.668 89.1209 282.22 88.6889 282.868V289.744C89.1209 290.392 89.7569 290.944 90.5969 291.4C91.4369 291.856 92.2889 292.084 93.1529 292.084ZM113.569 295.432C110.881 295.432 108.721 294.556 107.089 292.804C105.457 291.028 104.641 288.856 104.641 286.288C104.641 283.72 105.457 281.56 107.089 279.808C108.721 278.056 110.881 277.18 113.569 277.18C116.281 277.18 118.453 278.056 120.085 279.808C121.717 281.56 122.533 283.72 122.533 286.288C122.533 288.88 121.717 291.052 120.085 292.804C118.453 294.556 116.281 295.432 113.569 295.432ZM113.569 292.084C115.129 292.084 116.353 291.532 117.241 290.428C118.153 289.3 118.609 287.92 118.609 286.288C118.609 284.68 118.153 283.324 117.241 282.22C116.353 281.092 115.129 280.528 113.569 280.528C112.033 280.528 110.809 281.092 109.897 282.22C109.009 283.324 108.565 284.68 108.565 286.288C108.565 287.92 109.009 289.3 109.897 290.428C110.809 291.532 112.033 292.084 113.569 292.084ZM134.278 295.432C131.638 295.432 129.478 294.58 127.798 292.876C126.118 291.148 125.278 288.952 125.278 286.288C125.278 283.648 126.118 281.476 127.798 279.772C129.478 278.044 131.638 277.18 134.278 277.18C137.182 277.18 139.402 278.212 140.938 280.276L138.454 282.58C137.494 281.212 136.162 280.528 134.458 280.528C132.874 280.528 131.602 281.068 130.642 282.148C129.682 283.204 129.202 284.584 129.202 286.288C129.202 287.992 129.682 289.384 130.642 290.464C131.602 291.544 132.874 292.084 134.458 292.084C136.114 292.084 137.446 291.4 138.454 290.032L140.938 292.336C139.402 294.4 137.182 295.432 134.278 295.432ZM151.201 295H147.421V280.924H142.453V277.612H156.205V280.924H151.201V295ZM167.148 295.432C164.46 295.432 162.3 294.556 160.668 292.804C159.036 291.028 158.22 288.856 158.22 286.288C158.22 283.72 159.036 281.56 160.668 279.808C162.3 278.056 164.46 277.18 167.148 277.18C169.86 277.18 172.032 278.056 173.664 279.808C175.296 281.56 176.112 283.72 176.112 286.288C176.112 288.88 175.296 291.052 173.664 292.804C172.032 294.556 169.86 295.432 167.148 295.432ZM167.148 292.084C168.708 292.084 169.932 291.532 170.82 290.428C171.732 289.3 172.188 287.92 172.188 286.288C172.188 284.68 171.732 283.324 170.82 282.22C169.932 281.092 168.708 280.528 167.148 280.528C165.612 280.528 164.388 281.092 163.476 282.22C162.588 283.324 162.144 284.68 162.144 286.288C162.144 287.92 162.588 289.3 163.476 290.428C164.388 291.532 165.612 292.084 167.148 292.084ZM204.734 295H200.954V280.924H192.962V295H189.182V277.612H204.734V295ZM224.043 295H220.263V293.128C218.919 294.664 217.047 295.432 214.647 295.432C213.063 295.432 211.659 294.928 210.435 293.92C209.211 292.888 208.599 291.472 208.599 289.672C208.599 287.824 209.199 286.42 210.399 285.46C211.623 284.5 213.039 284.02 214.647 284.02C217.119 284.02 218.991 284.764 220.263 286.252V283.66C220.263 282.652 219.891 281.86 219.147 281.284C218.403 280.708 217.419 280.42 216.195 280.42C214.251 280.42 212.535 281.152 211.047 282.616L209.499 279.988C211.467 278.116 213.903 277.18 216.807 277.18C218.943 277.18 220.683 277.684 222.027 278.692C223.371 279.7 224.043 281.296 224.043 283.48V295ZM216.123 292.84C218.019 292.84 219.399 292.24 220.263 291.04V288.412C219.399 287.212 218.019 286.612 216.123 286.612C215.043 286.612 214.155 286.9 213.459 287.476C212.763 288.052 212.415 288.808 212.415 289.744C212.415 290.68 212.763 291.436 213.459 292.012C214.155 292.564 215.043 292.84 216.123 292.84ZM236.792 292.084C238.352 292.084 239.576 291.52 240.464 290.392C241.376 289.264 241.832 287.872 241.832 286.216C241.832 284.632 241.376 283.288 240.464 282.184C239.576 281.08 238.352 280.528 236.792 280.528C235.256 280.528 234.032 281.08 233.12 282.184C232.232 283.288 231.788 284.632 231.788 286.216C231.788 287.872 232.232 289.264 233.12 290.392C234.032 291.52 235.256 292.084 236.792 292.084ZM243.308 292.768C241.7 294.544 239.528 295.432 236.792 295.432C234.056 295.432 231.884 294.508 230.276 292.66C228.692 290.788 227.9 288.4 227.9 285.496C227.9 281.344 228.608 278.248 230.024 276.208C231.464 274.168 233.672 272.968 236.648 272.608C238.448 272.344 239.684 272.092 240.356 271.852C241.052 271.612 241.4 271.324 241.4 270.988H245.108C245.108 273.508 242.636 275.044 237.692 275.596C235.748 275.812 234.248 276.352 233.192 277.216C232.16 278.056 231.512 279.064 231.248 280.24C231.944 279.28 232.844 278.536 233.948 278.008C235.076 277.456 236.264 277.18 237.512 277.18C239.912 277.18 241.88 278.068 243.416 279.844C244.952 281.62 245.72 283.756 245.72 286.252C245.72 288.82 244.916 290.992 243.308 292.768ZM247.921 295.432V292.336C248.665 292.336 249.253 291.856 249.685 290.896C250.141 289.936 250.513 288.328 250.801 286.072L251.845 277.612H265.273V295H261.493V280.924H255.193L254.581 286.504C254.245 289.624 253.537 291.892 252.457 293.308C251.377 294.724 249.865 295.432 247.921 295.432ZM273.818 295H270.182V277.612H273.962V289.312L281.954 277.612H285.734V295H281.954V282.976L273.818 295ZM306.915 295H302.163L296.835 287.836L294.423 290.32V295H290.643V277.612H294.423V286L302.091 277.612H306.771L299.535 285.496L306.915 295ZM313.229 295H309.593V277.612H313.373V289.312L321.365 277.612H325.145V295H321.365V282.976L313.229 295ZM349.956 295H339.3V277.612H349.704C351.312 277.612 352.572 278.032 353.484 278.872C354.396 279.712 354.852 280.78 354.852 282.076C354.852 283.084 354.576 283.936 354.024 284.632C353.472 285.328 352.776 285.796 351.936 286.036C352.872 286.252 353.652 286.768 354.276 287.584C354.9 288.376 355.212 289.276 355.212 290.284C355.212 291.676 354.744 292.816 353.808 293.704C352.896 294.568 351.612 295 349.956 295ZM349.164 291.688C349.836 291.688 350.364 291.52 350.748 291.184C351.132 290.824 351.324 290.344 351.324 289.744C351.324 289.192 351.132 288.724 350.748 288.34C350.364 287.956 349.836 287.764 349.164 287.764H343.08V291.688H349.164ZM349.056 284.452C349.656 284.452 350.124 284.296 350.46 283.984C350.82 283.648 351 283.228 351 282.724C351 282.172 350.82 281.74 350.46 281.428C350.124 281.092 349.656 280.924 349.056 280.924H343.08V284.452H349.056ZM377.067 295.432C374.427 295.432 372.267 294.58 370.587 292.876C368.907 291.148 368.067 288.952 368.067 286.288C368.067 283.648 368.907 281.476 370.587 279.772C372.267 278.044 374.427 277.18 377.067 277.18C379.971 277.18 382.191 278.212 383.727 280.276L381.243 282.58C380.283 281.212 378.951 280.528 377.247 280.528C375.663 280.528 374.391 281.068 373.431 282.148C372.471 283.204 371.991 284.584 371.991 286.288C371.991 287.992 372.471 289.384 373.431 290.464C374.391 291.544 375.663 292.084 377.247 292.084C378.903 292.084 380.235 291.4 381.243 290.032L383.727 292.336C382.191 294.4 379.971 295.432 377.067 295.432ZM394.89 295.432C392.202 295.432 390.042 294.556 388.41 292.804C386.778 291.028 385.962 288.856 385.962 286.288C385.962 283.72 386.778 281.56 388.41 279.808C390.042 278.056 392.202 277.18 394.89 277.18C397.602 277.18 399.774 278.056 401.406 279.808C403.038 281.56 403.854 283.72 403.854 286.288C403.854 288.88 403.038 291.052 401.406 292.804C399.774 294.556 397.602 295.432 394.89 295.432ZM394.89 292.084C396.45 292.084 397.674 291.532 398.562 290.428C399.474 289.3 399.93 287.92 399.93 286.288C399.93 284.68 399.474 283.324 398.562 282.22C397.674 281.092 396.45 280.528 394.89 280.528C393.354 280.528 392.13 281.092 391.218 282.22C390.33 283.324 389.886 284.68 389.886 286.288C389.886 287.92 390.33 289.3 391.218 290.428C392.13 291.532 393.354 292.084 394.89 292.084ZM421.358 299.428V295H407.678V277.612H411.458V291.688H419.45V277.612H423.23V291.688H425.138V299.428H421.358ZM431.953 294.676C431.449 295.156 430.861 295.396 430.189 295.396C429.517 295.396 428.929 295.156 428.425 294.676C427.921 294.172 427.669 293.572 427.669 292.876C427.669 292.18 427.921 291.592 428.425 291.112C428.929 290.608 429.517 290.356 430.189 290.356C430.861 290.356 431.449 290.608 431.953 291.112C432.457 291.592 432.709 292.18 432.709 292.876C432.709 293.572 432.457 294.172 431.953 294.676ZM454.235 295.432C451.595 295.432 449.435 294.58 447.755 292.876C446.075 291.148 445.235 288.952 445.235 286.288C445.235 283.648 446.075 281.476 447.755 279.772C449.435 278.044 451.595 277.18 454.235 277.18C457.139 277.18 459.359 278.212 460.895 280.276L458.411 282.58C457.451 281.212 456.119 280.528 454.415 280.528C452.831 280.528 451.559 281.068 450.599 282.148C449.639 283.204 449.159 284.584 449.159 286.288C449.159 287.992 449.639 289.384 450.599 290.464C451.559 291.544 452.831 292.084 454.415 292.084C456.071 292.084 457.403 291.4 458.411 290.032L460.895 292.336C459.359 294.4 457.139 295.432 454.235 295.432ZM472.238 295.432C469.598 295.432 467.414 294.592 465.686 292.912C463.982 291.208 463.13 289 463.13 286.288C463.13 283.744 463.958 281.596 465.614 279.844C467.294 278.068 469.406 277.18 471.95 277.18C474.518 277.18 476.582 278.068 478.142 279.844C479.726 281.62 480.518 283.888 480.518 286.648V287.548H467.09C467.234 288.916 467.798 290.056 468.782 290.968C469.766 291.88 471.05 292.336 472.634 292.336C473.522 292.336 474.41 292.168 475.298 291.832C476.21 291.496 476.966 291.028 477.566 290.428L479.294 292.912C477.542 294.592 475.19 295.432 472.238 295.432ZM476.846 284.884C476.798 283.684 476.354 282.616 475.514 281.68C474.698 280.744 473.51 280.276 471.95 280.276C470.462 280.276 469.298 280.744 468.458 281.68C467.618 282.592 467.15 283.66 467.054 284.884H476.846ZM491.197 295H487.417V280.924H482.449V277.612H496.201V280.924H491.197V295ZM503.004 295H498.684L502.968 288.52C501.768 288.256 500.784 287.656 500.016 286.72C499.272 285.784 498.9 284.596 498.9 283.156C498.9 281.596 499.404 280.288 500.412 279.232C501.444 278.152 502.86 277.612 504.66 277.612H514.596V295H510.816V288.7H506.82L503.004 295ZM505.128 285.388H510.816V280.924H505.128C504.408 280.924 503.832 281.14 503.4 281.572C502.968 281.98 502.752 282.508 502.752 283.156C502.752 283.828 502.956 284.368 503.364 284.776C503.796 285.184 504.384 285.388 505.128 285.388ZM534.703 295H530.455L525.955 288.592L521.419 295H517.207L523.579 286.072L517.567 277.612H521.815L525.955 283.516L530.059 277.612H534.307L528.295 286.072L534.703 295ZM541.043 294.676C540.539 295.156 539.951 295.396 539.279 295.396C538.607 295.396 538.019 295.156 537.515 294.676C537.011 294.172 536.759 293.572 536.759 292.876C536.759 292.18 537.011 291.592 537.515 291.112C538.019 290.608 538.607 290.356 539.279 290.356C539.951 290.356 540.539 290.608 541.043 291.112C541.547 291.592 541.799 292.18 541.799 292.876C541.799 293.572 541.547 294.172 541.043 294.676Z" fill="#ECE1CF"/>
</svg>
