<svg width="513" height="105" viewBox="0 0 513 105" fill="none" xmlns="http://www.w3.org/2000/svg">
<rect x="501" y="70.8198" width="501" height="70" rx="35" transform="rotate(-180 501 70.8198)" fill="#ECE1CF"/>
<path d="M64.312 44.8198H59.736V27.4758H49.656V44.8198H45.112V23.4758H64.312V44.8198ZM81.5423 42.8678C80.0489 44.4252 78.0649 45.2038 75.5903 45.2038C73.1156 45.2038 71.1316 44.4252 69.6383 42.8678C68.1663 41.2892 67.4303 39.3585 67.4303 37.0758C67.4303 34.7932 68.1663 32.8732 69.6383 31.3158C71.1316 29.7585 73.1156 28.9798 75.5903 28.9798C78.0649 28.9798 80.0489 29.7585 81.5423 31.3158C83.0356 32.8732 83.7823 34.7932 83.7823 37.0758C83.7823 39.3585 83.0356 41.2892 81.5423 42.8678ZM72.7103 40.3078C73.4143 41.1612 74.3743 41.5878 75.5903 41.5878C76.8063 41.5878 77.7663 41.1612 78.4703 40.3078C79.1956 39.4332 79.5583 38.3558 79.5583 37.0758C79.5583 35.8172 79.1956 34.7612 78.4703 33.9078C77.7663 33.0332 76.8063 32.5958 75.5903 32.5958C74.3743 32.5958 73.4143 33.0332 72.7103 33.9078C72.0063 34.7612 71.6543 35.8172 71.6543 37.0758C71.6543 38.3558 72.0063 39.4332 72.7103 40.3078ZM85.3573 48.7558V41.4278C85.8266 41.3425 86.1893 41.1932 86.4453 40.9798C86.7226 40.7452 86.9786 40.3078 87.2133 39.6678C87.4693 39.0065 87.6719 38.0678 87.8213 36.8518L88.8133 29.3638H101.325V41.2678H103.021V48.7558H98.9573V44.8198H89.4533V48.7558H85.3573ZM92.3653 32.9158L91.8853 37.1078C91.6719 38.9638 91.0746 40.3505 90.0933 41.2678H97.2613V32.9158H92.3653ZM120.107 44.8198H116.043V32.9158H109.643V44.8198H105.579V29.3638H120.107V44.8198ZM128.045 44.8198H124.141V29.3638H128.205V38.7078L134.573 29.3638H138.669V44.8198H134.605V35.1238L128.045 44.8198ZM160.912 29.3638H165.008V44.8198H142.704V29.3638H146.768V41.2678H151.824V29.3638H155.888V41.2678H160.912V29.3638ZM172.951 44.8198H169.047V29.3638H173.111V38.7078L179.479 29.3638H183.575V44.8198H179.511V35.1238L172.951 44.8198ZM194.554 44.8198H190.458V32.9158H186.138V29.3638H198.874V32.9158H194.554V44.8198ZM208.686 45.2038C206.297 45.2038 204.324 44.4572 202.766 42.9638C201.209 41.4705 200.43 39.5078 200.43 37.0758C200.43 34.7932 201.177 32.8732 202.67 31.3158C204.185 29.7585 206.105 28.9798 208.43 28.9798C210.734 28.9798 212.601 29.7692 214.03 31.3478C215.46 32.9052 216.174 34.9532 216.174 37.4918V38.3878H204.686C204.814 39.4118 205.273 40.2652 206.062 40.9478C206.852 41.6305 207.876 41.9718 209.134 41.9718C209.817 41.9718 210.553 41.8332 211.342 41.5558C212.153 41.2785 212.793 40.9052 213.262 40.4358L215.054 43.0598C213.497 44.4892 211.374 45.2038 208.686 45.2038ZM212.238 35.6358C212.174 34.7612 211.822 33.9718 211.182 33.2678C210.564 32.5638 209.646 32.2118 208.43 32.2118C207.278 32.2118 206.382 32.5638 205.742 33.2678C205.102 33.9505 204.729 34.7398 204.622 35.6358H212.238ZM226.31 45.2038C223.92 45.2038 221.958 44.4465 220.422 42.9318C218.886 41.4172 218.118 39.4652 218.118 37.0758C218.118 34.7078 218.886 32.7665 220.422 31.2518C221.958 29.7372 223.92 28.9798 226.31 28.9798C229.04 28.9798 231.078 29.9078 232.422 31.7638L229.766 34.2598C229.019 33.1505 227.931 32.5958 226.502 32.5958C225.264 32.5958 224.251 33.0118 223.462 33.8438C222.694 34.6545 222.31 35.7318 222.31 37.0758C222.31 38.4198 222.694 39.5078 223.462 40.3398C224.251 41.1718 225.264 41.5878 226.502 41.5878C227.888 41.5878 228.976 41.0332 229.766 39.9238L232.422 42.3878C231.078 44.2652 229.04 45.2038 226.31 45.2038ZM235.079 29.3638H239.143V34.6758H244.423C246.129 34.6758 247.452 35.1558 248.391 36.1158C249.329 37.0758 249.799 38.2812 249.799 39.7318C249.799 41.1612 249.319 42.3665 248.359 43.3478C247.399 44.3292 246.087 44.8198 244.423 44.8198H235.079V29.3638ZM243.815 38.0678H239.143V41.3958H243.815C244.369 41.3958 244.807 41.2465 245.127 40.9478C245.468 40.6278 245.639 40.2225 245.639 39.7318C245.639 39.2412 245.468 38.8465 245.127 38.5478C244.807 38.2278 244.369 38.0678 243.815 38.0678ZM265.018 44.8198H260.954V29.3638H265.018V35.0918H271.418V29.3638H275.482V44.8198H271.418V38.6438H265.018V44.8198ZM292.86 44.8198H288.796V43.2198C287.687 44.5425 286.055 45.2038 283.9 45.2038C282.513 45.2038 281.265 44.7558 280.156 43.8598C279.068 42.9425 278.524 41.6838 278.524 40.0838C278.524 38.4198 279.057 37.1718 280.124 36.3398C281.212 35.5078 282.471 35.0918 283.9 35.0918C286.097 35.0918 287.729 35.7212 288.796 36.9798V34.8998C288.796 34.1105 288.487 33.4812 287.868 33.0118C287.249 32.5425 286.428 32.3078 285.404 32.3078C283.719 32.3078 282.215 32.9158 280.892 34.1318L279.356 31.4118C281.191 29.7905 283.441 28.9798 286.108 28.9798C288.092 28.9798 289.713 29.4385 290.972 30.3558C292.231 31.2732 292.86 32.7665 292.86 34.8358V44.8198ZM285.532 42.4518C287.047 42.4518 288.135 42.0038 288.796 41.1078V39.1878C288.135 38.2918 287.047 37.8438 285.532 37.8438C284.7 37.8438 284.007 38.0572 283.452 38.4838C282.897 38.8892 282.62 39.4545 282.62 40.1798C282.62 40.8838 282.897 41.4385 283.452 41.8438C284.007 42.2492 284.7 42.4518 285.532 42.4518ZM313.911 45.2038C311.969 45.2038 310.38 44.4145 309.143 42.8358V50.7078H305.079V29.3638H309.143V31.3158C310.359 29.7585 311.948 28.9798 313.911 28.9798C315.937 28.9798 317.58 29.7052 318.839 31.1558C320.119 32.5852 320.759 34.5585 320.759 37.0758C320.759 39.5932 320.119 41.5772 318.839 43.0278C317.58 44.4785 315.937 45.2038 313.911 45.2038ZM312.631 41.5878C313.804 41.5878 314.743 41.1718 315.447 40.3398C316.172 39.5078 316.535 38.4198 316.535 37.0758C316.535 35.7532 316.172 34.6758 315.447 33.8438C314.743 33.0118 313.804 32.5958 312.631 32.5958C311.969 32.5958 311.308 32.7665 310.647 33.1078C309.985 33.4492 309.484 33.8652 309.143 34.3558V39.8278C309.484 40.3185 309.985 40.7345 310.647 41.0758C311.329 41.4172 311.991 41.5878 312.631 41.5878ZM337.079 44.8198H333.015V43.2198C331.905 44.5425 330.273 45.2038 328.119 45.2038C326.732 45.2038 325.484 44.7558 324.375 43.8598C323.287 42.9425 322.743 41.6838 322.743 40.0838C322.743 38.4198 323.276 37.1718 324.343 36.3398C325.431 35.5078 326.689 35.0918 328.119 35.0918C330.316 35.0918 331.948 35.7212 333.015 36.9798V34.8998C333.015 34.1105 332.705 33.4812 332.087 33.0118C331.468 32.5425 330.647 32.3078 329.623 32.3078C327.937 32.3078 326.433 32.9158 325.111 34.1318L323.575 31.4118C325.409 29.7905 327.66 28.9798 330.327 28.9798C332.311 28.9798 333.932 29.4385 335.191 30.3558C336.449 31.2732 337.079 32.7665 337.079 34.8358V44.8198ZM329.751 42.4518C331.265 42.4518 332.353 42.0038 333.015 41.1078V39.1878C332.353 38.2918 331.265 37.8438 329.751 37.8438C328.919 37.8438 328.225 38.0572 327.671 38.4838C327.116 38.8892 326.839 39.4545 326.839 40.1798C326.839 40.8838 327.116 41.4385 327.671 41.8438C328.225 42.2492 328.919 42.4518 329.751 42.4518ZM348.31 45.2038C345.92 45.2038 343.958 44.4465 342.422 42.9318C340.886 41.4172 340.118 39.4652 340.118 37.0758C340.118 34.7078 340.886 32.7665 342.422 31.2518C343.958 29.7372 345.92 28.9798 348.31 28.9798C351.04 28.9798 353.078 29.9078 354.422 31.7638L351.766 34.2598C351.019 33.1505 349.931 32.5958 348.502 32.5958C347.264 32.5958 346.251 33.0118 345.462 33.8438C344.694 34.6545 344.31 35.7318 344.31 37.0758C344.31 38.4198 344.694 39.5078 345.462 40.3398C346.251 41.1718 347.264 41.5878 348.502 41.5878C349.888 41.5878 350.976 41.0332 351.766 39.9238L354.422 42.3878C353.078 44.2652 351.04 45.2038 348.31 45.2038ZM364.279 45.2038C361.889 45.2038 359.927 44.4465 358.391 42.9318C356.855 41.4172 356.087 39.4652 356.087 37.0758C356.087 34.7078 356.855 32.7665 358.391 31.2518C359.927 29.7372 361.889 28.9798 364.279 28.9798C367.009 28.9798 369.047 29.9078 370.391 31.7638L367.735 34.2598C366.988 33.1505 365.9 32.5958 364.47 32.5958C363.233 32.5958 362.22 33.0118 361.431 33.8438C360.663 34.6545 360.279 35.7318 360.279 37.0758C360.279 38.4198 360.663 39.5078 361.431 40.3398C362.22 41.1718 363.233 41.5878 364.47 41.5878C365.857 41.5878 366.945 41.0332 367.735 39.9238L370.391 42.3878C369.047 44.2652 367.009 45.2038 364.279 45.2038ZM373.047 29.3638H377.111V34.6758H382.391C384.098 34.6758 385.421 35.1558 386.359 36.1158C387.298 37.0758 387.767 38.2812 387.767 39.7318C387.767 41.1612 387.287 42.3665 386.327 43.3478C385.367 44.3292 384.055 44.8198 382.391 44.8198H373.047V29.3638ZM381.783 38.0678H377.111V41.3958H381.783C382.338 41.3958 382.775 41.2465 383.095 40.9478C383.437 40.6278 383.607 40.2225 383.607 39.7318C383.607 39.2412 383.437 38.8465 383.095 38.5478C382.775 38.2278 382.338 38.0678 381.783 38.0678ZM393.879 44.8198H389.783V29.3638H393.879V44.8198ZM396.451 45.2038V41.8758C397.091 41.8758 397.603 41.5025 397.987 40.7558C398.371 39.9878 398.68 38.6865 398.915 36.8518L399.907 29.3638H412.419V44.8198H408.355V32.9158H403.459L402.947 37.3318C402.627 40.0412 401.944 42.0358 400.899 43.3158C399.875 44.5745 398.392 45.2038 396.451 45.2038ZM431.558 44.8198H426.47L422.374 38.8678L420.518 40.8518V44.8198H416.454V29.3638H420.518V36.2438L426.374 29.3638H431.366L425.254 36.3718L431.558 44.8198ZM433.035 50.8678L433.643 47.2198C434.027 47.3905 434.453 47.4758 434.923 47.4758C436.011 47.4758 436.725 47.1025 437.067 46.3558L437.643 45.0438L431.37 29.3638H435.723L439.755 40.1158L443.787 29.3638H448.171L440.907 47.3478C440.373 48.7132 439.627 49.6625 438.667 50.1958C437.707 50.7505 436.501 51.0492 435.051 51.0918C434.304 51.0918 433.632 51.0172 433.035 50.8678ZM453.857 37.8758H450.273L449.601 23.4758H454.497L453.857 37.8758ZM453.889 44.3718C453.377 44.8838 452.769 45.1398 452.065 45.1398C451.361 45.1398 450.753 44.8838 450.241 44.3718C449.75 43.8598 449.505 43.2625 449.505 42.5798C449.505 41.8758 449.75 41.2678 450.241 40.7558C450.753 40.2438 451.361 39.9878 452.065 39.9878C452.769 39.9878 453.377 40.2438 453.889 40.7558C454.401 41.2678 454.657 41.8758 454.657 42.5798C454.657 43.2625 454.401 43.8598 453.889 44.3718Z" fill="black"/>
<path d="M497.526 94.7071C498.821 95.2333 500.055 93.7813 499.276 92.6198L498.07 90.82C491.132 80.4705 486.879 68.5574 485.694 56.1544C485.598 55.1491 484.425 54.6508 483.635 55.2792L465.491 69.704C464.692 70.339 464.615 71.5244 465.325 72.2575L467.442 74.4445C475.904 83.1855 486.254 90.1285 497.526 94.7071Z" fill="#ECE1CF"/>
</svg>
