<svg width="433" height="105" viewBox="0 0 433 105" fill="none" xmlns="http://www.w3.org/2000/svg">
<rect width="424" height="70" rx="35" fill="#ECE1CF"/>
<path d="M65.496 46H61.112V24.656H65.656V38.448L75.544 24.656H80.216V46H75.672V31.696L65.496 46ZM82.8885 46.384V43.056C83.5285 43.056 84.0405 42.6827 84.4245 41.936C84.8085 41.168 85.1178 39.8667 85.3525 38.032L86.3445 30.544H98.8565V46H94.7925V34.096H89.8965L89.3845 38.512C89.0645 41.2213 88.3818 43.216 87.3365 44.496C86.3125 45.7547 84.8298 46.384 82.8885 46.384ZM106.795 46H102.891V30.544H106.955V39.888L113.323 30.544H117.419V46H113.355V36.304L106.795 46ZM129.161 30.544H133.225V34.736C133.225 35.7813 133.492 36.528 134.025 36.976C134.558 37.4027 135.38 37.616 136.489 37.616C137.748 37.616 138.782 37.4133 139.593 37.008V30.544H143.689V46H139.593V40.272C138.42 40.912 136.916 41.232 135.081 41.232C132.99 41.232 131.476 40.8053 130.537 39.952C129.62 39.0773 129.161 37.808 129.161 36.144V30.544ZM151.608 46H147.704V30.544H151.768V39.888L158.136 30.544H162.232V46H158.168V36.304L151.608 46ZM173.21 46H169.114V34.096H164.794V30.544H177.53V34.096H173.21V46ZM193.423 46H189.359V44.4C188.249 45.7227 186.617 46.384 184.463 46.384C183.076 46.384 181.828 45.936 180.719 45.04C179.631 44.1227 179.087 42.864 179.087 41.264C179.087 39.6 179.62 38.352 180.687 37.52C181.775 36.688 183.033 36.272 184.463 36.272C186.66 36.272 188.292 36.9013 189.359 38.16V36.08C189.359 35.2907 189.049 34.6613 188.431 34.192C187.812 33.7227 186.991 33.488 185.967 33.488C184.281 33.488 182.777 34.096 181.455 35.312L179.919 32.592C181.753 30.9707 184.004 30.16 186.671 30.16C188.655 30.16 190.276 30.6187 191.535 31.536C192.793 32.4533 193.423 33.9467 193.423 36.016V46ZM186.095 43.632C187.609 43.632 188.697 43.184 189.359 42.288V40.368C188.697 39.472 187.609 39.024 186.095 39.024C185.263 39.024 184.569 39.2373 184.015 39.664C183.46 40.0693 183.183 40.6347 183.183 41.36C183.183 42.064 183.46 42.6187 184.015 43.024C184.569 43.4293 185.263 43.632 186.095 43.632ZM201.358 46H197.454V30.544H201.518V39.888L207.886 30.544H211.982V46H207.918V36.304L201.358 46ZM210.318 26.192C208.931 28.0693 207.064 29.008 204.718 29.008C202.392 29.008 200.515 28.0693 199.086 26.192L200.878 24.688C201.816 26.0107 203.096 26.672 204.718 26.672C206.296 26.672 207.566 26.0107 208.526 24.688L210.318 26.192ZM222.764 49.936V42.608C223.233 42.5227 223.596 42.3733 223.852 42.16C224.129 41.9253 224.385 41.488 224.62 40.848C224.876 40.1867 225.078 39.248 225.228 38.032L226.22 30.544H238.732V42.448H240.428V49.936H236.364V46H226.86V49.936H222.764ZM229.772 34.096L229.292 38.288C229.078 40.144 228.481 41.5307 227.5 42.448H234.668V34.096H229.772ZM241.545 46.384V43.056C242.185 43.056 242.697 42.6827 243.081 41.936C243.465 41.168 243.774 39.8667 244.009 38.032L245.001 30.544H257.513V46H253.449V34.096H248.553L248.041 38.512C247.721 41.2213 247.038 43.216 245.993 44.496C244.969 45.7547 243.486 46.384 241.545 46.384ZM265.643 46H261.035L264.619 40.4C263.659 40.1653 262.849 39.632 262.187 38.8C261.526 37.968 261.195 36.9013 261.195 35.6C261.195 34.1707 261.675 32.976 262.635 32.016C263.595 31.0347 264.897 30.544 266.539 30.544H275.915V46H271.851V40.688H268.683L265.643 46ZM267.179 37.296H271.851V33.968H267.179C266.625 33.968 266.177 34.1173 265.835 34.416C265.494 34.7147 265.323 35.1093 265.323 35.6C265.323 36.112 265.483 36.528 265.803 36.848C266.145 37.1467 266.603 37.296 267.179 37.296ZM295.279 46.384C292.889 46.384 290.927 45.6267 289.391 44.112C287.855 42.5973 287.087 40.6453 287.087 38.256C287.087 35.888 287.855 33.9467 289.391 32.432C290.927 30.9173 292.889 30.16 295.279 30.16C298.009 30.16 300.047 31.088 301.391 32.944L298.735 35.44C297.988 34.3307 296.9 33.776 295.47 33.776C294.233 33.776 293.22 34.192 292.431 35.024C291.663 35.8347 291.279 36.912 291.279 38.256C291.279 39.6 291.663 40.688 292.431 41.52C293.22 42.352 294.233 42.768 295.47 42.768C296.857 42.768 297.945 42.2133 298.735 41.104L301.391 43.568C300.047 45.4453 298.009 46.384 295.279 46.384ZM311.311 46.384C308.922 46.384 306.949 45.6373 305.391 44.144C303.834 42.6507 303.055 40.688 303.055 38.256C303.055 35.9733 303.802 34.0533 305.295 32.496C306.81 30.9387 308.73 30.16 311.055 30.16C313.359 30.16 315.226 30.9493 316.655 32.528C318.085 34.0853 318.799 36.1333 318.799 38.672V39.568H307.311C307.439 40.592 307.898 41.4453 308.687 42.128C309.477 42.8107 310.501 43.152 311.759 43.152C312.442 43.152 313.178 43.0133 313.967 42.736C314.778 42.4587 315.418 42.0853 315.887 41.616L317.679 44.24C316.122 45.6693 313.999 46.384 311.311 46.384ZM314.863 36.816C314.799 35.9413 314.447 35.152 313.807 34.448C313.189 33.744 312.271 33.392 311.055 33.392C309.903 33.392 309.007 33.744 308.367 34.448C307.727 35.1307 307.354 35.92 307.247 36.816H314.863ZM326.023 41.456C326.727 42.3307 327.687 42.768 328.903 42.768C330.119 42.768 331.079 42.3307 331.783 41.456C332.508 40.5813 332.871 39.4933 332.871 38.192C332.871 36.976 332.508 35.9413 331.783 35.088C331.079 34.2133 330.119 33.776 328.903 33.776C327.687 33.776 326.727 34.2027 326.023 35.056C325.319 35.9093 324.967 36.9547 324.967 38.192C324.967 39.4933 325.319 40.5813 326.023 41.456ZM328.903 46.384C326.385 46.384 324.391 45.5627 322.919 43.92C321.468 42.256 320.743 40.1333 320.743 37.552C320.743 33.8613 321.404 31.0987 322.727 29.264C324.049 27.4293 326.065 26.3307 328.775 25.968C331.1 25.6267 332.263 25.1893 332.263 24.656H336.487C336.487 26.896 334.343 28.2827 330.055 28.816C326.833 29.2427 324.977 30.5333 324.487 32.688C325.767 31.0027 327.527 30.16 329.767 30.16C331.921 30.16 333.671 30.9493 335.015 32.528C336.38 34.1067 337.063 36.0053 337.063 38.224C337.063 40.5067 336.316 42.4373 334.823 44.016C333.351 45.5947 331.377 46.384 328.903 46.384ZM344.3 46H339.692L343.276 40.4C342.316 40.1653 341.505 39.632 340.844 38.8C340.182 37.968 339.852 36.9013 339.852 35.6C339.852 34.1707 340.332 32.976 341.292 32.016C342.252 31.0347 343.553 30.544 345.196 30.544H354.572V46H350.508V40.688H347.34L344.3 46ZM345.836 37.296H350.508V33.968H345.836C345.281 33.968 344.833 34.1173 344.492 34.416C344.15 34.7147 343.98 35.1093 343.98 35.6C343.98 36.112 344.14 36.528 344.46 36.848C344.801 37.1467 345.26 37.296 345.836 37.296ZM362.419 39.056H358.835L358.163 24.656H363.059L362.419 39.056ZM362.451 45.552C361.939 46.064 361.331 46.32 360.627 46.32C359.923 46.32 359.315 46.064 358.803 45.552C358.313 45.04 358.067 44.4427 358.067 43.76C358.067 43.056 358.313 42.448 358.803 41.936C359.315 41.424 359.923 41.168 360.627 41.168C361.331 41.168 361.939 41.424 362.451 41.936C362.963 42.448 363.219 43.056 363.219 43.76C363.219 44.4427 362.963 45.04 362.451 45.552Z" fill="black"/>
<path d="M417.526 93.8873C418.821 94.4135 420.055 92.9614 419.276 91.8L418.07 90.0002C411.132 79.6507 406.879 67.7376 405.694 55.3345C405.598 54.3293 404.425 53.831 403.635 54.4594L385.491 68.8842C384.692 69.5192 384.615 70.7045 385.325 71.4376L387.442 73.6247C395.904 82.3656 406.254 89.3087 417.526 93.8873Z" fill="#ECE1CF"/>
</svg>
