<svg width="1215" height="304" viewBox="0 0 1215 304" fill="none" xmlns="http://www.w3.org/2000/svg">
<rect x="70.8955" width="1143.94" height="215.257" rx="107.628" fill="#ECE1CF"/>
<path d="M48.3099 265.726L92.7333 124.261L176.117 190.553L48.3099 265.726Z" fill="#ECE1CF"/>
<path d="M234.319 74.5668V92.9682C234.319 100.906 238.32 104.875 246.324 104.875C251.047 104.875 255.213 104.153 258.821 102.71V74.5668H272.794V140.202H258.821V115.01C254.032 116.454 249.309 117.175 244.651 117.175C236.516 117.175 230.415 115.043 226.348 110.779C222.281 106.449 220.247 100.512 220.247 92.9682V74.5668H234.319ZM297.534 140.202H285.529V92.6729H298.026V121.407L317.608 92.6729H330.204V140.202H317.707V110.386L297.534 140.202ZM363.964 140.202H351.368V103.596H338.084V92.6729H377.248V103.596H363.964V140.202ZM426.119 140.202H413.622V135.282C410.211 139.349 405.192 141.382 398.567 141.382C394.302 141.382 390.465 140.005 387.053 137.25C383.708 134.429 382.035 130.558 382.035 125.638C382.035 120.521 383.675 116.683 386.955 114.125C390.301 111.566 394.171 110.287 398.567 110.287C405.324 110.287 410.342 112.222 413.622 116.093V109.697C413.622 107.269 412.671 105.334 410.769 103.891C408.866 102.448 406.34 101.726 403.192 101.726C398.009 101.726 393.384 103.596 389.317 107.335L384.593 98.9707C390.235 93.985 397.156 91.4921 405.356 91.4921C411.457 91.4921 416.443 92.9025 420.314 95.7234C424.184 98.5443 426.119 103.136 426.119 109.5V140.202ZM403.585 132.92C408.243 132.92 411.589 131.542 413.622 128.787V122.883C411.589 120.127 408.243 118.75 403.585 118.75C401.027 118.75 398.895 119.406 397.189 120.718C395.483 121.964 394.63 123.703 394.63 125.933C394.63 128.098 395.483 129.804 397.189 131.05C398.895 132.297 401.027 132.92 403.585 132.92ZM450.52 140.202H438.515V92.6729H451.012V121.407L470.595 92.6729H483.19V140.202H470.693V110.386L450.52 140.202ZM478.073 79.2901C473.809 85.0631 468.069 87.9496 460.853 87.9496C453.702 87.9496 447.929 85.0631 443.534 79.2901L449.044 74.6652C451.931 78.7325 455.867 80.7662 460.853 80.7662C465.707 80.7662 469.611 78.7325 472.563 74.6652L478.073 79.2901ZM542.915 141.382C535.567 141.382 529.532 139.054 524.809 134.396C520.085 129.738 517.724 123.736 517.724 116.388C517.724 109.106 520.085 103.136 524.809 98.4787C529.532 93.821 535.567 91.4921 542.915 91.4921C551.312 91.4921 557.577 94.3458 561.71 100.053L553.542 107.729C551.246 104.317 547.901 102.612 543.505 102.612C539.7 102.612 536.584 103.891 534.157 106.449C531.795 108.942 530.614 112.255 530.614 116.388C530.614 120.521 531.795 123.867 534.157 126.425C536.584 128.984 539.7 130.263 543.505 130.263C547.769 130.263 551.115 128.557 553.542 125.146L561.71 132.723C557.577 138.496 551.312 141.382 542.915 141.382ZM590.629 152.305V129.771C592.072 129.509 593.187 129.049 593.974 128.393C594.827 127.672 595.615 126.327 596.336 124.359C597.123 122.325 597.747 119.439 598.206 115.699L601.256 92.6729H639.732V129.279H644.947V152.305H632.45V140.202H603.224V152.305H590.629ZM612.179 103.596L610.703 116.487C610.047 122.194 608.21 126.458 605.192 129.279H627.235V103.596H612.179ZM679.97 141.382C674.001 141.382 669.113 138.955 665.308 134.101V158.308H652.811V92.6729H665.308V98.6755C669.048 93.8866 673.935 91.4921 679.97 91.4921C686.203 91.4921 691.254 93.7226 695.124 98.1835C699.061 102.579 701.029 108.647 701.029 116.388C701.029 124.129 699.061 130.23 695.124 134.691C691.254 139.152 686.203 141.382 679.97 141.382ZM676.034 130.263C679.642 130.263 682.529 128.984 684.694 126.425C686.924 123.867 688.039 120.521 688.039 116.388C688.039 112.321 686.924 109.008 684.694 106.449C682.529 103.891 679.642 102.612 676.034 102.612C674.001 102.612 671.967 103.136 669.933 104.186C667.9 105.236 666.358 106.515 665.308 108.024V124.851C666.358 126.36 667.9 127.639 669.933 128.688C672.033 129.738 674.066 130.263 676.034 130.263ZM708.508 158.8L710.378 147.582C711.559 148.107 712.871 148.369 714.314 148.369C717.66 148.369 719.857 147.221 720.907 144.925L722.678 140.89L703.391 92.6729H716.774L729.173 125.736L741.572 92.6729H755.053L732.715 147.976C731.075 152.174 728.779 155.093 725.827 156.733C722.875 158.439 719.168 159.357 714.707 159.489C712.411 159.489 710.345 159.259 708.508 158.8ZM777.951 141.382C768.373 141.382 760.993 138.857 755.81 133.805L761.517 126.032C765.781 129.64 771.259 131.444 777.951 131.444C781.1 131.444 783.527 130.985 785.232 130.066C786.938 129.148 787.791 127.901 787.791 126.327C787.791 122.784 784.248 121.013 777.163 121.013H767.422V111.37H777.163C783.658 111.37 786.905 109.664 786.905 106.253C786.905 104.809 786.02 103.661 784.248 102.808C782.477 101.89 780.181 101.431 777.36 101.431C771.194 101.431 766.273 103.235 762.6 106.843L756.499 99.4628C761.747 94.2146 768.471 91.5905 776.671 91.5905C784.019 91.5249 789.726 92.6729 793.794 95.0346C797.861 97.3307 799.895 100.512 799.895 104.58C799.895 107.466 798.681 109.926 796.254 111.96C793.826 113.994 790.907 115.273 787.496 115.798C790.841 115.994 793.892 117.11 796.647 119.143C799.468 121.177 800.879 123.834 800.879 127.114C800.879 131.378 798.812 134.822 794.679 137.446C790.546 140.07 784.97 141.382 777.951 141.382ZM810.218 92.6729H822.715V109.008H838.951C844.2 109.008 848.267 110.484 851.153 113.436C854.04 116.388 855.483 120.095 855.483 124.556C855.483 128.951 854.007 132.657 851.055 135.675C848.103 138.693 844.068 140.202 838.951 140.202H810.218V92.6729ZM837.082 119.439H822.715V129.673H837.082C838.787 129.673 840.132 129.213 841.116 128.295C842.166 127.311 842.691 126.064 842.691 124.556C842.691 123.047 842.166 121.833 841.116 120.915C840.132 119.931 838.787 119.439 837.082 119.439ZM877.204 140.202H863.034L874.055 122.981C871.103 122.259 868.61 120.619 866.577 118.061C864.543 115.502 863.526 112.222 863.526 108.221C863.526 103.825 865.002 100.152 867.954 97.1995C870.906 94.1818 874.908 92.6729 879.959 92.6729H908.791V140.202H896.294V123.867H886.552L877.204 140.202ZM881.927 113.436H896.294V103.202H881.927C880.222 103.202 878.844 103.661 877.794 104.58C876.745 105.498 876.22 106.712 876.22 108.221C876.22 109.795 876.712 111.074 877.696 112.058C878.746 112.977 880.156 113.436 881.927 113.436ZM977.206 140.202H964.708V109.303L952.014 140.202H946.307L933.515 109.303V140.202H921.017V92.6729H937.451L949.161 121.013L960.674 92.6729H977.206V140.202ZM1001.64 140.202H989.63V92.6729H1002.13V121.407L1021.71 92.6729H1034.31V140.202H1021.81V110.386L1001.64 140.202ZM1058.62 118.848H1047.6L1045.53 74.5668H1060.59L1058.62 118.848ZM1058.72 138.824C1057.14 140.398 1055.27 141.186 1053.11 141.186C1050.94 141.186 1049.07 140.398 1047.5 138.824C1045.99 137.25 1045.24 135.413 1045.24 133.313C1045.24 131.149 1045.99 129.279 1047.5 127.704C1049.07 126.13 1050.94 125.343 1053.11 125.343C1055.27 125.343 1057.14 126.13 1058.72 127.704C1060.29 129.279 1061.08 131.149 1061.08 133.313C1061.08 135.413 1060.29 137.25 1058.72 138.824Z" fill="black"/>
</svg>
