<svg width="441" height="106" viewBox="0 0 441 106" fill="none" xmlns="http://www.w3.org/2000/svg">
<path d="M424.994 12.4463L410.548 58.4496L383.432 36.892L424.994 12.4463Z" fill="#ECE1CF"/>
<rect y="36" width="424" height="70" rx="35" fill="#ECE1CF"/>
<path d="M65.496 82H61.112V60.656H65.656V74.448L75.544 60.656H80.216V82H75.672V67.696L65.496 82ZM82.8885 82.384V79.056C83.5285 79.056 84.0405 78.6827 84.4245 77.936C84.8085 77.168 85.1178 75.8667 85.3525 74.032L86.3445 66.544H98.8565V82H94.7925V70.096H89.8965L89.3845 74.512C89.0645 77.2213 88.3818 79.216 87.3365 80.496C86.3125 81.7547 84.8298 82.384 82.8885 82.384ZM106.795 82H102.891V66.544H106.955V75.888L113.323 66.544H117.419V82H113.355V72.304L106.795 82ZM129.161 66.544H133.225V70.736C133.225 71.7813 133.492 72.528 134.025 72.976C134.558 73.4027 135.38 73.616 136.489 73.616C137.748 73.616 138.782 73.4133 139.593 73.008V66.544H143.689V82H139.593V76.272C138.42 76.912 136.916 77.232 135.081 77.232C132.99 77.232 131.476 76.8053 130.537 75.952C129.62 75.0773 129.161 73.808 129.161 72.144V66.544ZM151.608 82H147.704V66.544H151.768V75.888L158.136 66.544H162.232V82H158.168V72.304L151.608 82ZM173.21 82H169.114V70.096H164.794V66.544H177.53V70.096H173.21V82ZM193.423 82H189.359V80.4C188.249 81.7227 186.617 82.384 184.463 82.384C183.076 82.384 181.828 81.936 180.719 81.04C179.631 80.1227 179.087 78.864 179.087 77.264C179.087 75.6 179.62 74.352 180.687 73.52C181.775 72.688 183.033 72.272 184.463 72.272C186.66 72.272 188.292 72.9013 189.359 74.16V72.08C189.359 71.2907 189.049 70.6613 188.431 70.192C187.812 69.7227 186.991 69.488 185.967 69.488C184.281 69.488 182.777 70.096 181.455 71.312L179.919 68.592C181.753 66.9707 184.004 66.16 186.671 66.16C188.655 66.16 190.276 66.6187 191.535 67.536C192.793 68.4533 193.423 69.9467 193.423 72.016V82ZM186.095 79.632C187.609 79.632 188.697 79.184 189.359 78.288V76.368C188.697 75.472 187.609 75.024 186.095 75.024C185.263 75.024 184.569 75.2373 184.015 75.664C183.46 76.0693 183.183 76.6347 183.183 77.36C183.183 78.064 183.46 78.6187 184.015 79.024C184.569 79.4293 185.263 79.632 186.095 79.632ZM201.358 82H197.454V66.544H201.518V75.888L207.886 66.544H211.982V82H207.918V72.304L201.358 82ZM210.318 62.192C208.931 64.0693 207.064 65.008 204.718 65.008C202.392 65.008 200.515 64.0693 199.086 62.192L200.878 60.688C201.816 62.0107 203.096 62.672 204.718 62.672C206.296 62.672 207.566 62.0107 208.526 60.688L210.318 62.192ZM222.764 85.936V78.608C223.233 78.5227 223.596 78.3733 223.852 78.16C224.129 77.9253 224.385 77.488 224.62 76.848C224.876 76.1867 225.078 75.248 225.228 74.032L226.22 66.544H238.732V78.448H240.428V85.936H236.364V82H226.86V85.936H222.764ZM229.772 70.096L229.292 74.288C229.078 76.144 228.481 77.5307 227.5 78.448H234.668V70.096H229.772ZM241.545 82.384V79.056C242.185 79.056 242.697 78.6827 243.081 77.936C243.465 77.168 243.774 75.8667 244.009 74.032L245.001 66.544H257.513V82H253.449V70.096H248.553L248.041 74.512C247.721 77.2213 247.038 79.216 245.993 80.496C244.969 81.7547 243.486 82.384 241.545 82.384ZM265.643 82H261.035L264.619 76.4C263.659 76.1653 262.849 75.632 262.187 74.8C261.526 73.968 261.195 72.9013 261.195 71.6C261.195 70.1707 261.675 68.976 262.635 68.016C263.595 67.0347 264.897 66.544 266.539 66.544H275.915V82H271.851V76.688H268.683L265.643 82ZM267.179 73.296H271.851V69.968H267.179C266.625 69.968 266.177 70.1173 265.835 70.416C265.494 70.7147 265.323 71.1093 265.323 71.6C265.323 72.112 265.483 72.528 265.803 72.848C266.145 73.1467 266.603 73.296 267.179 73.296ZM295.279 82.384C292.889 82.384 290.927 81.6267 289.391 80.112C287.855 78.5973 287.087 76.6453 287.087 74.256C287.087 71.888 287.855 69.9467 289.391 68.432C290.927 66.9173 292.889 66.16 295.279 66.16C298.009 66.16 300.047 67.088 301.391 68.944L298.735 71.44C297.988 70.3307 296.9 69.776 295.47 69.776C294.233 69.776 293.22 70.192 292.431 71.024C291.663 71.8347 291.279 72.912 291.279 74.256C291.279 75.6 291.663 76.688 292.431 77.52C293.22 78.352 294.233 78.768 295.47 78.768C296.857 78.768 297.945 78.2133 298.735 77.104L301.391 79.568C300.047 81.4453 298.009 82.384 295.279 82.384ZM311.311 82.384C308.922 82.384 306.949 81.6373 305.391 80.144C303.834 78.6507 303.055 76.688 303.055 74.256C303.055 71.9733 303.802 70.0533 305.295 68.496C306.81 66.9387 308.73 66.16 311.055 66.16C313.359 66.16 315.226 66.9493 316.655 68.528C318.085 70.0853 318.799 72.1333 318.799 74.672V75.568H307.311C307.439 76.592 307.898 77.4453 308.687 78.128C309.477 78.8107 310.501 79.152 311.759 79.152C312.442 79.152 313.178 79.0133 313.967 78.736C314.778 78.4587 315.418 78.0853 315.887 77.616L317.679 80.24C316.122 81.6693 313.999 82.384 311.311 82.384ZM314.863 72.816C314.799 71.9413 314.447 71.152 313.807 70.448C313.189 69.744 312.271 69.392 311.055 69.392C309.903 69.392 309.007 69.744 308.367 70.448C307.727 71.1307 307.354 71.92 307.247 72.816H314.863ZM326.023 77.456C326.727 78.3307 327.687 78.768 328.903 78.768C330.119 78.768 331.079 78.3307 331.783 77.456C332.508 76.5813 332.871 75.4933 332.871 74.192C332.871 72.976 332.508 71.9413 331.783 71.088C331.079 70.2133 330.119 69.776 328.903 69.776C327.687 69.776 326.727 70.2027 326.023 71.056C325.319 71.9093 324.967 72.9547 324.967 74.192C324.967 75.4933 325.319 76.5813 326.023 77.456ZM328.903 82.384C326.385 82.384 324.391 81.5627 322.919 79.92C321.468 78.256 320.743 76.1333 320.743 73.552C320.743 69.8613 321.404 67.0987 322.727 65.264C324.049 63.4293 326.065 62.3307 328.775 61.968C331.1 61.6267 332.263 61.1893 332.263 60.656H336.487C336.487 62.896 334.343 64.2827 330.055 64.816C326.833 65.2427 324.977 66.5333 324.487 68.688C325.767 67.0027 327.527 66.16 329.767 66.16C331.921 66.16 333.671 66.9493 335.015 68.528C336.38 70.1067 337.063 72.0053 337.063 74.224C337.063 76.5067 336.316 78.4373 334.823 80.016C333.351 81.5947 331.377 82.384 328.903 82.384ZM344.3 82H339.692L343.276 76.4C342.316 76.1653 341.505 75.632 340.844 74.8C340.182 73.968 339.852 72.9013 339.852 71.6C339.852 70.1707 340.332 68.976 341.292 68.016C342.252 67.0347 343.553 66.544 345.196 66.544H354.572V82H350.508V76.688H347.34L344.3 82ZM345.836 73.296H350.508V69.968H345.836C345.281 69.968 344.833 70.1173 344.492 70.416C344.15 70.7147 343.98 71.1093 343.98 71.6C343.98 72.112 344.14 72.528 344.46 72.848C344.801 73.1467 345.26 73.296 345.836 73.296ZM362.419 75.056H358.835L358.163 60.656H363.059L362.419 75.056ZM362.451 81.552C361.939 82.064 361.331 82.32 360.627 82.32C359.923 82.32 359.315 82.064 358.803 81.552C358.313 81.04 358.067 80.4427 358.067 79.76C358.067 79.056 358.313 78.448 358.803 77.936C359.315 77.424 359.923 77.168 360.627 77.168C361.331 77.168 361.939 77.424 362.451 77.936C362.963 78.448 363.219 79.056 363.219 79.76C363.219 80.4427 362.963 81.04 362.451 81.552Z" fill="black"/>
</svg>
