<svg width="591" height="105" viewBox="0 0 591 105" fill="none" xmlns="http://www.w3.org/2000/svg">
<rect x="7.58284" width="583.417" height="70" rx="35" fill="#ECE1CF"/>
<path d="M15.0637 93.8874C13.7682 94.4136 12.5345 92.9615 13.313 91.8001L14.5195 90.0003C21.457 79.6508 25.7102 67.7377 26.8956 55.3347C26.9916 54.3294 28.164 53.8311 28.9545 54.4595L47.0985 68.8843C47.8972 69.5193 47.9743 70.7046 47.2645 71.4378L45.1472 73.6248C36.6847 82.3658 26.3355 89.3088 15.0637 93.8874Z" fill="#ECE1CF"/>
<path d="M91.1191 45H85.9351L84.6231 41.384H75.4711L74.1271 45H68.9431L77.1991 23.656H82.8951L91.1191 45ZM83.3751 37.384L80.0471 28.2L76.7191 37.384H83.3751ZM99.7416 45.384V42.056C100.382 42.056 100.894 41.6827 101.278 40.936C101.662 40.168 101.971 38.8667 102.206 37.032L103.198 29.544H115.71V45H111.646V33.096H106.75L106.238 37.512C105.918 40.2213 105.235 42.216 104.19 43.496C103.166 44.7547 101.683 45.384 99.7416 45.384ZM133.088 45H129.024V43.4C127.915 44.7227 126.283 45.384 124.128 45.384C122.741 45.384 121.493 44.936 120.384 44.04C119.296 43.1227 118.752 41.864 118.752 40.264C118.752 38.6 119.285 37.352 120.352 36.52C121.44 35.688 122.699 35.272 124.128 35.272C126.325 35.272 127.957 35.9013 129.024 37.16V35.08C129.024 34.2907 128.715 33.6613 128.096 33.192C127.477 32.7227 126.656 32.488 125.632 32.488C123.947 32.488 122.443 33.096 121.12 34.312L119.584 31.592C121.419 29.9707 123.669 29.16 126.336 29.16C128.32 29.16 129.941 29.6187 131.2 30.536C132.459 31.4533 133.088 32.9467 133.088 35.016V45ZM125.76 42.632C127.275 42.632 128.363 42.184 129.024 41.288V39.368C128.363 38.472 127.275 38.024 125.76 38.024C124.928 38.024 124.235 38.2373 123.68 38.664C123.125 39.0693 122.848 39.6347 122.848 40.36C122.848 41.064 123.125 41.6187 123.68 42.024C124.235 42.4293 124.928 42.632 125.76 42.632ZM145.951 45.384C144.01 45.384 142.42 44.5947 141.183 43.016V50.888H137.119V29.544H141.183V31.496C142.399 29.9387 143.988 29.16 145.951 29.16C147.978 29.16 149.62 29.8853 150.879 31.336C152.159 32.7653 152.799 34.7387 152.799 37.256C152.799 39.7733 152.159 41.7573 150.879 43.208C149.62 44.6587 147.978 45.384 145.951 45.384ZM144.671 41.768C145.844 41.768 146.783 41.352 147.487 40.52C148.212 39.688 148.575 38.6 148.575 37.256C148.575 35.9333 148.212 34.856 147.487 34.024C146.783 33.192 145.844 32.776 144.671 32.776C144.01 32.776 143.348 32.9467 142.687 33.288C142.026 33.6293 141.524 34.0453 141.183 34.536V40.008C141.524 40.4987 142.026 40.9147 142.687 41.256C143.37 41.5973 144.031 41.768 144.671 41.768ZM155.295 29.544H159.359V33.736C159.359 34.7813 159.626 35.528 160.159 35.976C160.693 36.4027 161.514 36.616 162.623 36.616C163.882 36.616 164.917 36.4133 165.727 36.008V29.544H169.823V45H165.727V39.272C164.554 39.912 163.05 40.232 161.215 40.232C159.125 40.232 157.61 39.8053 156.671 38.952C155.754 38.0773 155.295 36.808 155.295 35.144V29.544ZM177.742 45H173.838V29.544H177.902V38.888L184.27 29.544H188.366V45H184.302V35.304L177.742 45ZM207.504 45H202.416L198.32 39.048L196.464 41.032V45H192.4V29.544H196.464V36.424L202.32 29.544H207.312L201.2 36.552L207.504 45ZM232.241 45H228.177V33.096H221.777V45H217.713V29.544H232.241V45ZM245.107 45.384C243.166 45.384 241.577 44.5947 240.339 43.016V50.888H236.275V29.544H240.339V31.496C241.555 29.9387 243.145 29.16 245.107 29.16C247.134 29.16 248.777 29.8853 250.035 31.336C251.315 32.7653 251.955 34.7387 251.955 37.256C251.955 39.7733 251.315 41.7573 250.035 43.208C248.777 44.6587 247.134 45.384 245.107 45.384ZM243.827 41.768C245.001 41.768 245.939 41.352 246.643 40.52C247.369 39.688 247.731 38.6 247.731 37.256C247.731 35.9333 247.369 34.856 246.643 34.024C245.939 33.192 245.001 32.776 243.827 32.776C243.166 32.776 242.505 32.9467 241.843 33.288C241.182 33.6293 240.681 34.0453 240.339 34.536V40.008C240.681 40.4987 241.182 40.9147 241.843 41.256C242.526 41.5973 243.187 41.768 243.827 41.768ZM268.052 43.048C266.558 44.6053 264.574 45.384 262.1 45.384C259.625 45.384 257.641 44.6053 256.148 43.048C254.676 41.4693 253.94 39.5387 253.94 37.256C253.94 34.9733 254.676 33.0533 256.148 31.496C257.641 29.9387 259.625 29.16 262.1 29.16C264.574 29.16 266.558 29.9387 268.052 31.496C269.545 33.0533 270.292 34.9733 270.292 37.256C270.292 39.5387 269.545 41.4693 268.052 43.048ZM259.22 40.488C259.924 41.3413 260.884 41.768 262.1 41.768C263.316 41.768 264.276 41.3413 264.98 40.488C265.705 39.6133 266.068 38.536 266.068 37.256C266.068 35.9973 265.705 34.9413 264.98 34.088C264.276 33.2133 263.316 32.776 262.1 32.776C260.884 32.776 259.924 33.2133 259.22 34.088C258.516 34.9413 258.164 35.9973 258.164 37.256C258.164 38.536 258.516 39.6133 259.22 40.488ZM280.507 45.384C278.117 45.384 276.155 44.6267 274.619 43.112C273.083 41.5973 272.315 39.6453 272.315 37.256C272.315 34.888 273.083 32.9467 274.619 31.432C276.155 29.9173 278.117 29.16 280.507 29.16C283.237 29.16 285.275 30.088 286.619 31.944L283.963 34.44C283.216 33.3307 282.128 32.776 280.699 32.776C279.461 32.776 278.448 33.192 277.659 34.024C276.891 34.8347 276.507 35.912 276.507 37.256C276.507 38.6 276.891 39.688 277.659 40.52C278.448 41.352 279.461 41.768 280.699 41.768C282.085 41.768 283.173 41.2133 283.963 40.104L286.619 42.568C285.275 44.4453 283.237 45.384 280.507 45.384ZM296.219 45H292.123V33.096H287.803V29.544H300.539V33.096H296.219V45ZM316.208 43.048C314.715 44.6053 312.731 45.384 310.256 45.384C307.781 45.384 305.797 44.6053 304.304 43.048C302.832 41.4693 302.096 39.5387 302.096 37.256C302.096 34.9733 302.832 33.0533 304.304 31.496C305.797 29.9387 307.781 29.16 310.256 29.16C312.731 29.16 314.715 29.9387 316.208 31.496C317.701 33.0533 318.448 34.9733 318.448 37.256C318.448 39.5387 317.701 41.4693 316.208 43.048ZM307.376 40.488C308.08 41.3413 309.04 41.768 310.256 41.768C311.472 41.768 312.432 41.3413 313.136 40.488C313.861 39.6133 314.224 38.536 314.224 37.256C314.224 35.9973 313.861 34.9413 313.136 34.088C312.432 33.2133 311.472 32.776 310.256 32.776C309.04 32.776 308.08 33.2133 307.376 34.088C306.672 34.9413 306.32 35.9973 306.32 37.256C306.32 38.536 306.672 39.6133 307.376 40.488ZM342.77 43.048C341.277 44.6053 339.293 45.384 336.818 45.384C334.344 45.384 332.36 44.6053 330.866 43.048C329.394 41.4693 328.658 39.5387 328.658 37.256C328.658 34.9733 329.394 33.0533 330.866 31.496C332.36 29.9387 334.344 29.16 336.818 29.16C339.293 29.16 341.277 29.9387 342.77 31.496C344.264 33.0533 345.01 34.9733 345.01 37.256C345.01 39.5387 344.264 41.4693 342.77 43.048ZM333.938 40.488C334.642 41.3413 335.602 41.768 336.818 41.768C338.034 41.768 338.994 41.3413 339.698 40.488C340.424 39.6133 340.786 38.536 340.786 37.256C340.786 35.9973 340.424 34.9413 339.698 34.088C338.994 33.2133 338.034 32.776 336.818 32.776C335.602 32.776 334.642 33.2133 333.938 34.088C333.234 34.9413 332.882 35.9973 332.882 37.256C332.882 38.536 333.234 39.6133 333.938 40.488ZM354.969 45H350.873V33.096H346.553V29.544H359.289V33.096H354.969V45ZM376.942 45H371.854L367.758 39.048L365.902 41.032V45H361.838V29.544H365.902V36.424L371.758 29.544H376.75L370.638 36.552L376.942 45ZM387.795 45.384C385.854 45.384 384.264 44.5947 383.027 43.016V50.888H378.963V29.544H383.027V31.496C384.243 29.9387 385.832 29.16 387.795 29.16C389.822 29.16 391.464 29.8853 392.723 31.336C394.003 32.7653 394.643 34.7387 394.643 37.256C394.643 39.7733 394.003 41.7573 392.723 43.208C391.464 44.6587 389.822 45.384 387.795 45.384ZM386.515 41.768C387.688 41.768 388.627 41.352 389.331 40.52C390.056 39.688 390.419 38.6 390.419 37.256C390.419 35.9333 390.056 34.856 389.331 34.024C388.627 33.192 387.688 32.776 386.515 32.776C385.854 32.776 385.192 32.9467 384.531 33.288C383.87 33.6293 383.368 34.0453 383.027 34.536V40.008C383.368 40.4987 383.87 40.9147 384.531 41.256C385.214 41.5973 385.875 41.768 386.515 41.768ZM397.619 29.544H401.683V34.856H406.963C408.67 34.856 409.992 35.336 410.931 36.296C411.87 37.256 412.339 38.4613 412.339 39.912C412.339 41.3413 411.859 42.5467 410.899 43.528C409.939 44.5093 408.627 45 406.963 45H397.619V29.544ZM406.355 38.248H401.683V41.576H406.355C406.91 41.576 407.347 41.4267 407.667 41.128C408.008 40.808 408.179 40.4027 408.179 39.912C408.179 39.4213 408.008 39.0267 407.667 38.728C407.347 38.408 406.91 38.248 406.355 38.248ZM418.451 45H414.355V29.544H418.451V45ZM432.543 45H422.463V29.544H432.255C433.748 29.544 434.911 29.928 435.743 30.696C436.575 31.464 436.991 32.4027 436.991 33.512C436.991 34.408 436.746 35.1653 436.255 35.784C435.764 36.4027 435.135 36.8187 434.367 37.032C435.22 37.224 435.924 37.672 436.479 38.376C437.034 39.08 437.311 39.8907 437.311 40.808C437.311 42.024 436.884 43.0267 436.031 43.816C435.199 44.6053 434.036 45 432.543 45ZM431.551 41.672C432.042 41.672 432.426 41.544 432.703 41.288C433.002 41.032 433.151 40.68 433.151 40.232C433.151 39.8267 433.002 39.4853 432.703 39.208C432.426 38.9307 432.042 38.792 431.551 38.792H426.527V41.672H431.551ZM431.423 35.464C431.85 35.464 432.191 35.3467 432.447 35.112C432.724 34.856 432.863 34.5467 432.863 34.184C432.863 33.8 432.735 33.4907 432.479 33.256C432.223 33 431.871 32.872 431.423 32.872H426.527V35.464H431.423ZM454.557 45H450.493V43.4C449.384 44.7227 447.752 45.384 445.597 45.384C444.21 45.384 442.962 44.936 441.853 44.04C440.765 43.1227 440.221 41.864 440.221 40.264C440.221 38.6 440.754 37.352 441.821 36.52C442.909 35.688 444.168 35.272 445.597 35.272C447.794 35.272 449.426 35.9013 450.493 37.16V35.08C450.493 34.2907 450.184 33.6613 449.565 33.192C448.946 32.7227 448.125 32.488 447.101 32.488C445.416 32.488 443.912 33.096 442.589 34.312L441.053 31.592C442.888 29.9707 445.138 29.16 447.805 29.16C449.789 29.16 451.41 29.6187 452.669 30.536C453.928 31.4533 454.557 32.9467 454.557 35.016V45ZM447.229 42.632C448.744 42.632 449.832 42.184 450.493 41.288V39.368C449.832 38.472 448.744 38.024 447.229 38.024C446.397 38.024 445.704 38.2373 445.149 38.664C444.594 39.0693 444.317 39.6347 444.317 40.36C444.317 41.064 444.594 41.6187 445.149 42.024C445.704 42.4293 446.397 42.632 447.229 42.632ZM457.148 45.384V42.056C457.788 42.056 458.3 41.6827 458.684 40.936C459.068 40.168 459.377 38.8667 459.612 37.032L460.604 29.544H473.116V45H469.052V33.096H464.156L463.644 37.512C463.324 40.2213 462.641 42.216 461.596 43.496C460.572 44.7547 459.089 45.384 457.148 45.384ZM484.35 45.384C481.961 45.384 479.998 44.6267 478.462 43.112C476.926 41.5973 476.158 39.6453 476.158 37.256C476.158 34.888 476.926 32.9467 478.462 31.432C479.998 29.9173 481.961 29.16 484.35 29.16C487.081 29.16 489.118 30.088 490.462 31.944L487.806 34.44C487.06 33.3307 485.972 32.776 484.542 32.776C483.305 32.776 482.292 33.192 481.502 34.024C480.734 34.8347 480.35 35.912 480.35 37.256C480.35 38.6 480.734 39.688 481.502 40.52C482.292 41.352 483.305 41.768 484.542 41.768C485.929 41.768 487.017 41.2133 487.806 40.104L490.462 42.568C489.118 44.4453 487.081 45.384 484.35 45.384ZM497.215 45H492.607L496.191 39.4C495.231 39.1653 494.42 38.632 493.759 37.8C493.098 36.968 492.767 35.9013 492.767 34.6C492.767 33.1707 493.247 31.976 494.207 31.016C495.167 30.0347 496.468 29.544 498.111 29.544H507.487V45H503.423V39.688H500.255L497.215 45ZM498.751 36.296H503.423V32.968H498.751C498.196 32.968 497.748 33.1173 497.407 33.416C497.066 33.7147 496.895 34.1093 496.895 34.6C496.895 35.112 497.055 35.528 497.375 35.848C497.716 36.1467 498.175 36.296 498.751 36.296ZM515.335 38.056H511.751L511.079 23.656H515.975L515.335 38.056ZM515.367 44.552C514.855 45.064 514.247 45.32 513.543 45.32C512.839 45.32 512.231 45.064 511.719 44.552C511.228 44.04 510.983 43.4427 510.983 42.76C510.983 42.056 511.228 41.448 511.719 40.936C512.231 40.424 512.839 40.168 513.543 40.168C514.247 40.168 514.855 40.424 515.367 40.936C515.879 41.448 516.135 42.056 516.135 42.76C516.135 43.4427 515.879 44.04 515.367 44.552Z" fill="black"/>
</svg>
