<svg width="956" height="426" viewBox="0 0 956 426" fill="none" xmlns="http://www.w3.org/2000/svg">
<rect width="914" height="347" rx="55.4682" transform="matrix(-1 0 0 1 956 0)" fill="#ECE1CF"/>
<path d="M43.2684 401.733C39.6326 402.928 36.4765 399.666 38.6866 396.997L42.2384 392.707C62.939 367.706 75.6467 339.05 79.1342 309.508V309.508C79.4103 307.168 82.7633 305.917 84.9624 307.333L138.892 342.044C141.064 343.442 141.194 346.126 139.172 347.817L133.877 352.245C108.308 373.627 77.6314 390.432 43.9553 401.507L43.2684 401.733Z" fill="#ECE1CF"/>
<path d="M139.504 76H135.292V58.18L127.912 76H126.112L118.768 58.18V76H114.556V51.988H120.496L127.012 67.792L133.564 51.988H139.504V76ZM144.507 58.612H148.287V64.912H154.443C156.291 64.912 157.707 65.44 158.691 66.496C159.699 67.552 160.203 68.872 160.203 70.456C160.203 72.016 159.687 73.336 158.655 74.416C157.647 75.472 156.243 76 154.443 76H144.507V58.612ZM153.975 68.224H148.287V72.688H153.975C154.719 72.688 155.295 72.484 155.703 72.076C156.135 71.668 156.351 71.128 156.351 70.456C156.351 69.784 156.135 69.244 155.703 68.836C155.295 68.428 154.719 68.224 153.975 68.224ZM166.611 76H162.831V58.612H166.611V76ZM191.409 76H180.753V58.612H191.157C192.765 58.612 194.025 59.032 194.937 59.872C195.849 60.712 196.305 61.78 196.305 63.076C196.305 64.084 196.029 64.936 195.477 65.632C194.925 66.328 194.229 66.796 193.389 67.036C194.325 67.252 195.105 67.768 195.729 68.584C196.353 69.376 196.665 70.276 196.665 71.284C196.665 72.676 196.197 73.816 195.261 74.704C194.349 75.568 193.065 76 191.409 76ZM190.617 72.688C191.289 72.688 191.817 72.52 192.201 72.184C192.585 71.824 192.777 71.344 192.777 70.744C192.777 70.192 192.585 69.724 192.201 69.34C191.817 68.956 191.289 68.764 190.617 68.764H184.533V72.688H190.617ZM190.509 65.452C191.109 65.452 191.577 65.296 191.913 64.984C192.273 64.648 192.453 64.228 192.453 63.724C192.453 63.172 192.273 62.74 191.913 62.428C191.577 62.092 191.109 61.924 190.509 61.924H184.533V65.452H190.509ZM209.382 76.432C206.742 76.432 204.558 75.592 202.83 73.912C201.126 72.208 200.274 70 200.274 67.288C200.274 64.744 201.102 62.596 202.758 60.844C204.438 59.068 206.55 58.18 209.094 58.18C211.662 58.18 213.726 59.068 215.286 60.844C216.87 62.62 217.662 64.888 217.662 67.648V68.548H204.234C204.378 69.916 204.942 71.056 205.926 71.968C206.91 72.88 208.194 73.336 209.778 73.336C210.666 73.336 211.554 73.168 212.442 72.832C213.354 72.496 214.11 72.028 214.71 71.428L216.438 73.912C214.686 75.592 212.334 76.432 209.382 76.432ZM213.99 65.884C213.942 64.684 213.498 63.616 212.658 62.68C211.842 61.744 210.654 61.276 209.094 61.276C207.606 61.276 206.442 61.744 205.602 62.68C204.762 63.592 204.294 64.66 204.198 65.884H213.99ZM230.753 76.432C228.449 76.432 226.589 75.484 225.173 73.588V82.624H221.393V58.612H225.173V60.988C226.565 59.116 228.425 58.18 230.753 58.18C233.033 58.18 234.881 58.996 236.297 60.628C237.737 62.26 238.457 64.48 238.457 67.288C238.457 70.096 237.737 72.328 236.297 73.984C234.881 75.616 233.033 76.432 230.753 76.432ZM229.637 73.084C231.125 73.084 232.313 72.544 233.201 71.464C234.089 70.384 234.533 68.992 234.533 67.288C234.533 65.584 234.089 64.204 233.201 63.148C232.313 62.068 231.125 61.528 229.637 61.528C228.773 61.528 227.921 61.756 227.081 62.212C226.241 62.668 225.605 63.22 225.173 63.868V70.744C225.605 71.392 226.241 71.944 227.081 72.4C227.921 72.856 228.773 73.084 229.637 73.084ZM245.842 76H242.206V58.612H245.986V70.312L253.978 58.612H257.758V76H253.978V63.976L245.842 76ZM282.143 76H278.363V63.904L273.179 76H271.667L266.447 63.904V76H262.667V58.612H267.599L272.423 69.844L277.175 58.612H282.143V76ZM291.71 74.632C291.71 75.832 291.398 76.972 290.774 78.052C290.174 79.156 289.358 80.068 288.326 80.788L286.634 79.384C287.234 79.024 287.786 78.52 288.29 77.872C288.794 77.224 289.106 76.6 289.226 76C289.01 76.072 288.806 76.108 288.614 76.108C287.99 76.108 287.474 75.904 287.066 75.496C286.658 75.064 286.454 74.512 286.454 73.84C286.454 73.168 286.694 72.592 287.174 72.112C287.654 71.608 288.23 71.356 288.902 71.356C289.67 71.356 290.33 71.656 290.882 72.256C291.434 72.832 291.71 73.624 291.71 74.632ZM304.488 58.612H308.268V63.292C308.268 64.588 308.592 65.5 309.24 66.028C309.912 66.556 310.968 66.82 312.408 66.82C313.968 66.82 315.24 66.604 316.224 66.172V58.612H320.004V76H316.224V69.232C314.976 69.856 313.308 70.168 311.22 70.168C308.844 70.168 307.128 69.712 306.072 68.8C305.016 67.888 304.488 66.508 304.488 64.66V58.612ZM331.841 76H328.061V61.924H323.093V58.612H336.845V61.924H331.841V76ZM347.788 76.432C345.1 76.432 342.94 75.556 341.308 73.804C339.676 72.028 338.86 69.856 338.86 67.288C338.86 64.72 339.676 62.56 341.308 60.808C342.94 59.056 345.1 58.18 347.788 58.18C350.5 58.18 352.672 59.056 354.304 60.808C355.936 62.56 356.752 64.72 356.752 67.288C356.752 69.88 355.936 72.052 354.304 73.804C352.672 75.556 350.5 76.432 347.788 76.432ZM347.788 73.084C349.348 73.084 350.572 72.532 351.46 71.428C352.372 70.3 352.828 68.92 352.828 67.288C352.828 65.68 352.372 64.324 351.46 63.22C350.572 62.092 349.348 61.528 347.788 61.528C346.252 61.528 345.028 62.092 344.116 63.22C343.228 64.324 342.784 65.68 342.784 67.288C342.784 68.92 343.228 70.3 344.116 71.428C345.028 72.532 346.252 73.084 347.788 73.084ZM369.211 58.612H372.991V63.292C372.991 64.588 373.315 65.5 373.963 66.028C374.635 66.556 375.691 66.82 377.131 66.82C378.691 66.82 379.963 66.604 380.947 66.172V58.612H384.727V76H380.947V69.232C379.699 69.856 378.031 70.168 375.943 70.168C373.567 70.168 371.851 69.712 370.795 68.8C369.739 67.888 369.211 66.508 369.211 64.66V58.612ZM396.564 76H392.784V61.924H387.816V58.612H401.568V61.924H396.564V76ZM412.691 76.432C410.051 76.432 407.867 75.592 406.139 73.912C404.435 72.208 403.583 70 403.583 67.288C403.583 64.744 404.411 62.596 406.067 60.844C407.747 59.068 409.859 58.18 412.403 58.18C414.971 58.18 417.035 59.068 418.595 60.844C420.179 62.62 420.971 64.888 420.971 67.648V68.548H407.543C407.687 69.916 408.251 71.056 409.235 71.968C410.219 72.88 411.503 73.336 413.087 73.336C413.975 73.336 414.863 73.168 415.751 72.832C416.663 72.496 417.419 72.028 418.019 71.428L419.747 73.912C417.995 75.592 415.643 76.432 412.691 76.432ZM417.299 65.884C417.251 64.684 416.807 63.616 415.967 62.68C415.151 61.744 413.963 61.276 412.403 61.276C410.915 61.276 409.751 61.744 408.911 62.68C408.071 63.592 407.603 64.66 407.507 65.884H417.299ZM428.482 76H424.702V58.612H428.482V65.452H436.474V58.612H440.254V76H436.474V68.764H428.482V76ZM448.799 76H445.163V58.612H448.943V70.312L456.935 58.612H460.715V76H456.935V63.976L448.799 76ZM473.652 76.432C471.012 76.432 468.828 75.592 467.1 73.912C465.396 72.208 464.544 70 464.544 67.288C464.544 64.744 465.372 62.596 467.028 60.844C468.708 59.068 470.82 58.18 473.364 58.18C475.932 58.18 477.996 59.068 479.556 60.844C481.14 62.62 481.932 64.888 481.932 67.648V68.548H468.504C468.648 69.916 469.212 71.056 470.196 71.968C471.18 72.88 472.464 73.336 474.048 73.336C474.936 73.336 475.824 73.168 476.712 72.832C477.624 72.496 478.38 72.028 478.98 71.428L480.708 73.912C478.956 75.592 476.604 76.432 473.652 76.432ZM478.26 65.884C478.212 64.684 477.768 63.616 476.928 62.68C476.112 61.744 474.924 61.276 473.364 61.276C471.876 61.276 470.712 61.744 469.872 62.68C469.032 63.592 468.564 64.66 468.468 65.884H478.26ZM502.829 76.432C500.189 76.432 498.029 75.58 496.349 73.876C494.669 72.148 493.829 69.952 493.829 67.288C493.829 64.648 494.669 62.476 496.349 60.772C498.029 59.044 500.189 58.18 502.829 58.18C505.733 58.18 507.953 59.212 509.489 61.276L507.005 63.58C506.045 62.212 504.713 61.528 503.009 61.528C501.425 61.528 500.153 62.068 499.193 63.148C498.233 64.204 497.753 65.584 497.753 67.288C497.753 68.992 498.233 70.384 499.193 71.464C500.153 72.544 501.425 73.084 503.009 73.084C504.665 73.084 505.997 72.4 507.005 71.032L509.489 73.336C507.953 75.4 505.733 76.432 502.829 76.432ZM529.075 76H524.323L518.995 68.836L516.583 71.32V76H512.803V58.612H516.583V67L524.251 58.612H528.931L521.695 66.496L529.075 76ZM546.153 76H542.373V74.128C541.029 75.664 539.157 76.432 536.757 76.432C535.173 76.432 533.769 75.928 532.545 74.92C531.321 73.888 530.709 72.472 530.709 70.672C530.709 68.824 531.309 67.42 532.509 66.46C533.733 65.5 535.149 65.02 536.757 65.02C539.229 65.02 541.101 65.764 542.373 67.252V64.66C542.373 63.652 542.001 62.86 541.257 62.284C540.513 61.708 539.529 61.42 538.305 61.42C536.361 61.42 534.645 62.152 533.157 63.616L531.609 60.988C533.577 59.116 536.013 58.18 538.917 58.18C541.053 58.18 542.793 58.684 544.137 59.692C545.481 60.7 546.153 62.296 546.153 64.48V76ZM538.233 73.84C540.129 73.84 541.509 73.24 542.373 72.04V69.412C541.509 68.212 540.129 67.612 538.233 67.612C537.153 67.612 536.265 67.9 535.569 68.476C534.873 69.052 534.525 69.808 534.525 70.744C534.525 71.68 534.873 72.436 535.569 73.012C536.265 73.564 537.153 73.84 538.233 73.84ZM557.317 76.432C553.909 76.432 551.245 75.496 549.325 73.624L551.089 71.212C552.673 72.628 554.749 73.336 557.317 73.336C558.637 73.336 559.669 73.132 560.413 72.724C561.181 72.292 561.565 71.716 561.565 70.996C561.565 69.484 560.041 68.728 556.993 68.728H553.285V65.704H556.993C558.313 65.704 559.345 65.512 560.089 65.128C560.857 64.744 561.241 64.18 561.241 63.436C561.241 62.812 560.845 62.296 560.053 61.888C559.261 61.48 558.265 61.276 557.065 61.276C554.737 61.276 552.877 61.972 551.485 63.364L549.613 61.06C551.461 59.164 553.885 58.216 556.885 58.216C559.453 58.192 561.469 58.612 562.933 59.476C564.421 60.316 565.165 61.468 565.165 62.932C565.165 64.036 564.697 64.972 563.761 65.74C562.849 66.484 561.781 66.94 560.557 67.108C561.781 67.204 562.909 67.612 563.941 68.332C564.997 69.052 565.525 70.036 565.525 71.284C565.525 72.796 564.781 74.032 563.293 74.992C561.829 75.952 559.837 76.432 557.317 76.432ZM577.183 76.432C574.495 76.432 572.335 75.556 570.703 73.804C569.071 72.028 568.255 69.856 568.255 67.288C568.255 64.72 569.071 62.56 570.703 60.808C572.335 59.056 574.495 58.18 577.183 58.18C579.895 58.18 582.067 59.056 583.699 60.808C585.331 62.56 586.147 64.72 586.147 67.288C586.147 69.88 585.331 72.052 583.699 73.804C582.067 75.556 579.895 76.432 577.183 76.432ZM577.183 73.084C578.743 73.084 579.967 72.532 580.855 71.428C581.767 70.3 582.223 68.92 582.223 67.288C582.223 65.68 581.767 64.324 580.855 63.22C579.967 62.092 578.743 61.528 577.183 61.528C575.647 61.528 574.423 62.092 573.511 63.22C572.623 64.324 572.179 65.68 572.179 67.288C572.179 68.92 572.623 70.3 573.511 71.428C574.423 72.532 575.647 73.084 577.183 73.084ZM606.243 76H601.491L596.163 68.836L593.751 71.32V76H589.971V58.612H593.751V67L601.419 58.612H606.099L598.863 66.496L606.243 76ZM637.643 76H633.863V63.904L628.679 76H627.167L621.947 63.904V76H618.167V58.612H623.099L627.923 69.844L632.675 58.612H637.643V76ZM650.378 76.432C647.69 76.432 645.53 75.556 643.898 73.804C642.266 72.028 641.45 69.856 641.45 67.288C641.45 64.72 642.266 62.56 643.898 60.808C645.53 59.056 647.69 58.18 650.378 58.18C653.09 58.18 655.262 59.056 656.894 60.808C658.526 62.56 659.342 64.72 659.342 67.288C659.342 69.88 658.526 72.052 656.894 73.804C655.262 75.556 653.09 76.432 650.378 76.432ZM650.378 73.084C651.938 73.084 653.162 72.532 654.05 71.428C654.962 70.3 655.418 68.92 655.418 67.288C655.418 65.68 654.962 64.324 654.05 63.22C653.162 62.092 651.938 61.528 650.378 61.528C648.842 61.528 647.618 62.092 646.706 63.22C645.818 64.324 645.374 65.68 645.374 67.288C645.374 68.92 645.818 70.3 646.706 71.428C647.618 72.532 648.842 73.084 650.378 73.084ZM664.421 76H659.669L667.049 66.496L659.813 58.612H664.493L670.721 65.416V58.612H674.501V65.416L680.729 58.612H685.409L678.173 66.496L685.553 76H680.801L675.473 68.836L674.501 69.844V76H670.721V69.844L669.749 68.836L664.421 76ZM696.085 76.432C693.445 76.432 691.261 75.592 689.533 73.912C687.829 72.208 686.977 70 686.977 67.288C686.977 64.744 687.805 62.596 689.461 60.844C691.141 59.068 693.253 58.18 695.797 58.18C698.365 58.18 700.429 59.068 701.989 60.844C703.573 62.62 704.365 64.888 704.365 67.648V68.548H690.937C691.081 69.916 691.645 71.056 692.629 71.968C693.613 72.88 694.897 73.336 696.481 73.336C697.369 73.336 698.257 73.168 699.145 72.832C700.057 72.496 700.813 72.028 701.413 71.428L703.141 73.912C701.389 75.592 699.037 76.432 696.085 76.432ZM700.693 65.884C700.645 64.684 700.201 63.616 699.361 62.68C698.545 61.744 697.357 61.276 695.797 61.276C694.309 61.276 693.145 61.744 692.305 62.68C691.465 63.592 690.997 64.66 690.901 65.884H700.693ZM715.044 76H711.264V61.924H706.296V58.612H720.048V61.924H715.044V76ZM747.941 76H744.161V61.924H736.169V76H732.389V58.612H747.941V76ZM760.698 76.432C758.01 76.432 755.85 75.556 754.218 73.804C752.586 72.028 751.77 69.856 751.77 67.288C751.77 64.72 752.586 62.56 754.218 60.808C755.85 59.056 758.01 58.18 760.698 58.18C763.41 58.18 765.582 59.056 767.214 60.808C768.846 62.56 769.662 64.72 769.662 67.288C769.662 69.88 768.846 72.052 767.214 73.804C765.582 75.556 763.41 76.432 760.698 76.432ZM760.698 73.084C762.258 73.084 763.482 72.532 764.37 71.428C765.282 70.3 765.738 68.92 765.738 67.288C765.738 65.68 765.282 64.324 764.37 63.22C763.482 62.092 762.258 61.528 760.698 61.528C759.162 61.528 757.938 62.092 757.026 63.22C756.138 64.324 755.694 65.68 755.694 67.288C755.694 68.92 756.138 70.3 757.026 71.428C757.938 72.532 759.162 73.084 760.698 73.084ZM792.963 76H789.183V63.904L783.999 76H782.487L777.267 63.904V76H773.487V58.612H778.419L783.243 69.844L787.995 58.612H792.963V76ZM805.698 76.432C803.01 76.432 800.85 75.556 799.218 73.804C797.586 72.028 796.77 69.856 796.77 67.288C796.77 64.72 797.586 62.56 799.218 60.808C800.85 59.056 803.01 58.18 805.698 58.18C808.41 58.18 810.582 59.056 812.214 60.808C813.846 62.56 814.662 64.72 814.662 67.288C814.662 69.88 813.846 72.052 812.214 73.804C810.582 75.556 808.41 76.432 805.698 76.432ZM805.698 73.084C807.258 73.084 808.482 72.532 809.37 71.428C810.282 70.3 810.738 68.92 810.738 67.288C810.738 65.68 810.282 64.324 809.37 63.22C808.482 62.092 807.258 61.528 805.698 61.528C804.162 61.528 802.938 62.092 802.026 63.22C801.138 64.324 800.694 65.68 800.694 67.288C800.694 68.92 801.138 70.3 802.026 71.428C802.938 72.532 804.162 73.084 805.698 73.084ZM817.875 58.612H821.655V63.292C821.655 64.588 821.979 65.5 822.627 66.028C823.299 66.556 824.355 66.82 825.795 66.82C827.355 66.82 828.627 66.604 829.611 66.172V58.612H833.391V76H829.611V69.232C828.363 69.856 826.695 70.168 824.607 70.168C822.231 70.168 820.515 69.712 819.459 68.8C818.403 67.888 817.875 66.508 817.875 64.66V58.612ZM838.28 58.612H842.06V64.912H848.216C850.064 64.912 851.48 65.44 852.464 66.496C853.472 67.552 853.976 68.872 853.976 70.456C853.976 72.016 853.46 73.336 852.428 74.416C851.42 75.472 850.016 76 848.216 76H838.28V58.612ZM847.748 68.224H842.06V72.688H847.748C848.492 72.688 849.068 72.484 849.476 72.076C849.908 71.668 850.124 71.128 850.124 70.456C850.124 69.784 849.908 69.244 849.476 68.836C849.068 68.428 848.492 68.224 847.748 68.224ZM125.104 121H114.448V103.612H124.852C126.46 103.612 127.72 104.032 128.632 104.872C129.544 105.712 130 106.78 130 108.076C130 109.084 129.724 109.936 129.172 110.632C128.62 111.328 127.924 111.796 127.084 112.036C128.02 112.252 128.8 112.768 129.424 113.584C130.048 114.376 130.36 115.276 130.36 116.284C130.36 117.676 129.892 118.816 128.956 119.704C128.044 120.568 126.76 121 125.104 121ZM124.312 117.688C124.984 117.688 125.512 117.52 125.896 117.184C126.28 116.824 126.472 116.344 126.472 115.744C126.472 115.192 126.28 114.724 125.896 114.34C125.512 113.956 124.984 113.764 124.312 113.764H118.228V117.688H124.312ZM124.204 110.452C124.804 110.452 125.272 110.296 125.608 109.984C125.968 109.648 126.148 109.228 126.148 108.724C126.148 108.172 125.968 107.74 125.608 107.428C125.272 107.092 124.804 106.924 124.204 106.924H118.228V110.452H124.204ZM152.216 121.432C149.576 121.432 147.416 120.58 145.736 118.876C144.056 117.148 143.216 114.952 143.216 112.288C143.216 109.648 144.056 107.476 145.736 105.772C147.416 104.044 149.576 103.18 152.216 103.18C155.12 103.18 157.34 104.212 158.876 106.276L156.392 108.58C155.432 107.212 154.1 106.528 152.396 106.528C150.812 106.528 149.54 107.068 148.58 108.148C147.62 109.204 147.14 110.584 147.14 112.288C147.14 113.992 147.62 115.384 148.58 116.464C149.54 117.544 150.812 118.084 152.396 118.084C154.052 118.084 155.384 117.4 156.392 116.032L158.876 118.336C157.34 120.4 155.12 121.432 152.216 121.432ZM176.59 121H172.81V119.128C171.466 120.664 169.594 121.432 167.194 121.432C165.61 121.432 164.206 120.928 162.982 119.92C161.758 118.888 161.146 117.472 161.146 115.672C161.146 113.824 161.746 112.42 162.946 111.46C164.17 110.5 165.586 110.02 167.194 110.02C169.666 110.02 171.538 110.764 172.81 112.252V109.66C172.81 108.652 172.438 107.86 171.694 107.284C170.95 106.708 169.966 106.42 168.742 106.42C166.798 106.42 165.082 107.152 163.594 108.616L162.046 105.988C164.014 104.116 166.45 103.18 169.354 103.18C171.49 103.18 173.23 103.684 174.574 104.692C175.918 105.7 176.59 107.296 176.59 109.48V121ZM168.67 118.84C170.566 118.84 171.946 118.24 172.81 117.04V114.412C171.946 113.212 170.566 112.612 168.67 112.612C167.59 112.612 166.702 112.9 166.006 113.476C165.31 114.052 164.962 114.808 164.962 115.744C164.962 116.68 165.31 117.436 166.006 118.012C166.702 118.564 167.59 118.84 168.67 118.84ZM200.967 121H197.187V108.904L192.003 121H190.491L185.271 108.904V121H181.491V103.612H186.423L191.247 114.844L195.999 103.612H200.967V121ZM213.702 121.432C211.014 121.432 208.854 120.556 207.222 118.804C205.59 117.028 204.774 114.856 204.774 112.288C204.774 109.72 205.59 107.56 207.222 105.808C208.854 104.056 211.014 103.18 213.702 103.18C216.414 103.18 218.586 104.056 220.218 105.808C221.85 107.56 222.666 109.72 222.666 112.288C222.666 114.88 221.85 117.052 220.218 118.804C218.586 120.556 216.414 121.432 213.702 121.432ZM213.702 118.084C215.262 118.084 216.486 117.532 217.374 116.428C218.286 115.3 218.742 113.92 218.742 112.288C218.742 110.68 218.286 109.324 217.374 108.22C216.486 107.092 215.262 106.528 213.702 106.528C212.166 106.528 210.942 107.092 210.03 108.22C209.142 109.324 208.698 110.68 208.698 112.288C208.698 113.92 209.142 115.3 210.03 116.428C210.942 117.532 212.166 118.084 213.702 118.084ZM234.411 121.432C231.771 121.432 229.611 120.58 227.931 118.876C226.251 117.148 225.411 114.952 225.411 112.288C225.411 109.648 226.251 107.476 227.931 105.772C229.611 104.044 231.771 103.18 234.411 103.18C237.315 103.18 239.535 104.212 241.071 106.276L238.587 108.58C237.627 107.212 236.295 106.528 234.591 106.528C233.007 106.528 231.735 107.068 230.775 108.148C229.815 109.204 229.335 110.584 229.335 112.288C229.335 113.992 229.815 115.384 230.775 116.464C231.735 117.544 233.007 118.084 234.591 118.084C236.247 118.084 237.579 117.4 238.587 116.032L241.071 118.336C239.535 120.4 237.315 121.432 234.411 121.432ZM251.334 121H247.554V106.924H242.586V103.612H256.338V106.924H251.334V121ZM267.28 121.432C264.592 121.432 262.432 120.556 260.8 118.804C259.168 117.028 258.352 114.856 258.352 112.288C258.352 109.72 259.168 107.56 260.8 105.808C262.432 104.056 264.592 103.18 267.28 103.18C269.992 103.18 272.164 104.056 273.796 105.808C275.428 107.56 276.244 109.72 276.244 112.288C276.244 114.88 275.428 117.052 273.796 118.804C272.164 120.556 269.992 121.432 267.28 121.432ZM267.28 118.084C268.84 118.084 270.064 117.532 270.952 116.428C271.864 115.3 272.32 113.92 272.32 112.288C272.32 110.68 271.864 109.324 270.952 108.22C270.064 107.092 268.84 106.528 267.28 106.528C265.744 106.528 264.52 107.092 263.608 108.22C262.72 109.324 262.276 110.68 262.276 112.288C262.276 113.92 262.72 115.3 263.608 116.428C264.52 117.532 265.744 118.084 267.28 118.084ZM283.777 121H279.457L283.741 114.52C282.541 114.256 281.557 113.656 280.789 112.72C280.045 111.784 279.673 110.596 279.673 109.156C279.673 107.596 280.177 106.288 281.185 105.232C282.217 104.152 283.633 103.612 285.433 103.612H295.369V121H291.589V114.7H287.593L283.777 121ZM285.901 111.388H291.589V106.924H285.901C285.181 106.924 284.605 107.14 284.173 107.572C283.741 107.98 283.525 108.508 283.525 109.156C283.525 109.828 283.729 110.368 284.137 110.776C284.569 111.184 285.157 111.388 285.901 111.388ZM307.197 121H303.417V106.924H298.449V103.612H312.201V106.924H307.197V121ZM323.324 121.432C320.684 121.432 318.5 120.592 316.772 118.912C315.068 117.208 314.216 115 314.216 112.288C314.216 109.744 315.044 107.596 316.7 105.844C318.38 104.068 320.492 103.18 323.036 103.18C325.604 103.18 327.668 104.068 329.228 105.844C330.812 107.62 331.604 109.888 331.604 112.648V113.548H318.176C318.32 114.916 318.884 116.056 319.868 116.968C320.852 117.88 322.136 118.336 323.72 118.336C324.608 118.336 325.496 118.168 326.384 117.832C327.296 117.496 328.052 117.028 328.652 116.428L330.38 118.912C328.628 120.592 326.276 121.432 323.324 121.432ZM327.932 110.884C327.884 109.684 327.44 108.616 326.6 107.68C325.784 106.744 324.596 106.276 323.036 106.276C321.548 106.276 320.384 106.744 319.544 107.68C318.704 108.592 318.236 109.66 318.14 110.884H327.932ZM333.535 121.432V118.336C334.279 118.336 334.867 117.856 335.299 116.896C335.755 115.936 336.127 114.328 336.415 112.072L337.459 103.612H350.887V121H347.107V106.924H340.807L340.195 112.504C339.859 115.624 339.151 117.892 338.071 119.308C336.991 120.724 335.479 121.432 333.535 121.432ZM355.796 103.612H359.576V109.912H365.732C367.58 109.912 368.996 110.44 369.98 111.496C370.988 112.552 371.492 113.872 371.492 115.456C371.492 117.016 370.976 118.336 369.944 119.416C368.936 120.472 367.532 121 365.732 121H355.796V103.612ZM365.264 113.224H359.576V117.688H365.264C366.008 117.688 366.584 117.484 366.992 117.076C367.424 116.668 367.64 116.128 367.64 115.456C367.64 114.784 367.424 114.244 366.992 113.836C366.584 113.428 366.008 113.224 365.264 113.224ZM379.017 121H375.237V103.612H379.017V110.452H387.009V103.612H390.789V121H387.009V113.764H379.017V121ZM403.546 121.432C400.858 121.432 398.698 120.556 397.066 118.804C395.434 117.028 394.618 114.856 394.618 112.288C394.618 109.72 395.434 107.56 397.066 105.808C398.698 104.056 400.858 103.18 403.546 103.18C406.258 103.18 408.43 104.056 410.062 105.808C411.694 107.56 412.51 109.72 412.51 112.288C412.51 114.88 411.694 117.052 410.062 118.804C408.43 120.556 406.258 121.432 403.546 121.432ZM403.546 118.084C405.106 118.084 406.33 117.532 407.218 116.428C408.13 115.3 408.586 113.92 408.586 112.288C408.586 110.68 408.13 109.324 407.218 108.22C406.33 107.092 405.106 106.528 403.546 106.528C402.01 106.528 400.786 107.092 399.874 108.22C398.986 109.324 398.542 110.68 398.542 112.288C398.542 113.92 398.986 115.3 399.874 116.428C400.786 117.532 402.01 118.084 403.546 118.084ZM435.811 121H432.031V108.904L426.847 121H425.335L420.115 108.904V121H416.335V103.612H421.267L426.091 114.844L430.843 103.612H435.811V121ZM453.58 121H449.944V103.612H453.724V115.312L461.716 103.612H465.496V121H461.716V108.976L453.58 121ZM478.325 121.432C475.685 121.432 473.525 120.58 471.845 118.876C470.165 117.148 469.325 114.952 469.325 112.288C469.325 109.648 470.165 107.476 471.845 105.772C473.525 104.044 475.685 103.18 478.325 103.18C481.229 103.18 483.449 104.212 484.985 106.276L482.501 108.58C481.541 107.212 480.209 106.528 478.505 106.528C476.921 106.528 475.649 107.068 474.689 108.148C473.729 109.204 473.249 110.584 473.249 112.288C473.249 113.992 473.729 115.384 474.689 116.464C475.649 117.544 476.921 118.084 478.505 118.084C480.161 118.084 481.493 117.4 482.501 116.032L484.985 118.336C483.449 120.4 481.229 121.432 478.325 121.432ZM496.22 121.432C493.58 121.432 491.42 120.58 489.74 118.876C488.06 117.148 487.22 114.952 487.22 112.288C487.22 109.648 488.06 107.476 489.74 105.772C491.42 104.044 493.58 103.18 496.22 103.18C499.124 103.18 501.344 104.212 502.88 106.276L500.396 108.58C499.436 107.212 498.104 106.528 496.4 106.528C494.816 106.528 493.544 107.068 492.584 108.148C491.624 109.204 491.144 110.584 491.144 112.288C491.144 113.992 491.624 115.384 492.584 116.464C493.544 117.544 494.816 118.084 496.4 118.084C498.056 118.084 499.388 117.4 500.396 116.032L502.88 118.336C501.344 120.4 499.124 121.432 496.22 121.432ZM504.394 121.432V118.336C505.138 118.336 505.726 117.856 506.158 116.896C506.614 115.936 506.986 114.328 507.274 112.072L508.318 103.612H521.746V121H517.966V106.924H511.666L511.054 112.504C510.718 115.624 510.01 117.892 508.93 119.308C507.85 120.724 506.338 121.432 504.394 121.432ZM534.683 121.432C532.043 121.432 529.859 120.592 528.131 118.912C526.427 117.208 525.575 115 525.575 112.288C525.575 109.744 526.403 107.596 528.059 105.844C529.739 104.068 531.851 103.18 534.395 103.18C536.963 103.18 539.027 104.068 540.587 105.844C542.171 107.62 542.963 109.888 542.963 112.648V113.548H529.535C529.679 114.916 530.243 116.056 531.227 116.968C532.211 117.88 533.495 118.336 535.079 118.336C535.967 118.336 536.855 118.168 537.743 117.832C538.655 117.496 539.411 117.028 540.011 116.428L541.739 118.912C539.987 120.592 537.635 121.432 534.683 121.432ZM539.291 110.884C539.243 109.684 538.799 108.616 537.959 107.68C537.143 106.744 535.955 106.276 534.395 106.276C532.907 106.276 531.743 106.744 530.903 107.68C530.063 108.592 529.595 109.66 529.499 110.884H539.291ZM544.894 125.428V117.868C545.71 117.676 546.322 117.208 546.73 116.464C547.162 115.696 547.51 114.232 547.774 112.072L548.818 103.612H562.246V117.688H564.154V125.428H560.374V121H548.674V125.428H544.894ZM552.166 106.924L551.554 112.504C551.314 114.808 550.546 116.536 549.25 117.688H558.466V106.924H552.166ZM575.109 121.432C572.421 121.432 570.261 120.556 568.629 118.804C566.997 117.028 566.181 114.856 566.181 112.288C566.181 109.72 566.997 107.56 568.629 105.808C570.261 104.056 572.421 103.18 575.109 103.18C577.821 103.18 579.993 104.056 581.625 105.808C583.257 107.56 584.073 109.72 584.073 112.288C584.073 114.88 583.257 117.052 581.625 118.804C579.993 120.556 577.821 121.432 575.109 121.432ZM575.109 118.084C576.669 118.084 577.893 117.532 578.781 116.428C579.693 115.3 580.149 113.92 580.149 112.288C580.149 110.68 579.693 109.324 578.781 108.22C577.893 107.092 576.669 106.528 575.109 106.528C573.573 106.528 572.349 107.092 571.437 108.22C570.549 109.324 570.104 110.68 570.104 112.288C570.104 113.92 570.549 115.3 571.437 116.428C572.349 117.532 573.573 118.084 575.109 118.084ZM598.553 121H587.897V103.612H598.301C599.909 103.612 601.169 104.032 602.081 104.872C602.993 105.712 603.449 106.78 603.449 108.076C603.449 109.084 603.173 109.936 602.621 110.632C602.069 111.328 601.373 111.796 600.533 112.036C601.469 112.252 602.249 112.768 602.873 113.584C603.497 114.376 603.809 115.276 603.809 116.284C603.809 117.676 603.341 118.816 602.405 119.704C601.493 120.568 600.209 121 598.553 121ZM597.761 117.688C598.433 117.688 598.961 117.52 599.345 117.184C599.729 116.824 599.921 116.344 599.921 115.744C599.921 115.192 599.729 114.724 599.345 114.34C598.961 113.956 598.433 113.764 597.761 113.764H591.677V117.688H597.761ZM597.653 110.452C598.253 110.452 598.721 110.296 599.057 109.984C599.417 109.648 599.597 109.228 599.597 108.724C599.597 108.172 599.417 107.74 599.057 107.428C598.721 107.092 598.253 106.924 597.653 106.924H591.677V110.452H597.653ZM622.899 121H619.119V119.128C617.775 120.664 615.903 121.432 613.503 121.432C611.919 121.432 610.515 120.928 609.291 119.92C608.067 118.888 607.455 117.472 607.455 115.672C607.455 113.824 608.055 112.42 609.255 111.46C610.479 110.5 611.895 110.02 613.503 110.02C615.975 110.02 617.847 110.764 619.119 112.252V109.66C619.119 108.652 618.747 107.86 618.003 107.284C617.259 106.708 616.275 106.42 615.051 106.42C613.107 106.42 611.391 107.152 609.903 108.616L608.355 105.988C610.323 104.116 612.759 103.18 615.663 103.18C617.799 103.18 619.539 103.684 620.883 104.692C622.227 105.7 622.899 107.296 622.899 109.48V121ZM614.979 118.84C616.875 118.84 618.255 118.24 619.119 117.04V114.412C618.255 113.212 616.875 112.612 614.979 112.612C613.899 112.612 613.011 112.9 612.315 113.476C611.619 114.052 611.271 114.808 611.271 115.744C611.271 116.68 611.619 117.436 612.315 118.012C613.011 118.564 613.899 118.84 614.979 118.84ZM631.58 121H627.8V103.612H631.58V110.452H639.572V103.612H643.352V121H639.572V113.764H631.58V121ZM651.897 121H648.261V103.612H652.041V115.312L660.033 103.612H663.812V121H660.033V108.976L651.897 121ZM672.357 121H668.721V103.612H672.501V115.312L680.493 103.612H684.273V121H680.493V108.976L672.357 121ZM706.348 121.432C703.708 121.432 701.548 120.58 699.868 118.876C698.188 117.148 697.348 114.952 697.348 112.288C697.348 109.648 698.188 107.476 699.868 105.772C701.548 104.044 703.708 103.18 706.348 103.18C709.252 103.18 711.472 104.212 713.008 106.276L710.524 108.58C709.564 107.212 708.232 106.528 706.528 106.528C704.944 106.528 703.672 107.068 702.712 108.148C701.752 109.204 701.272 110.584 701.272 112.288C701.272 113.992 701.752 115.384 702.712 116.464C703.672 117.544 704.944 118.084 706.528 118.084C708.184 118.084 709.516 117.4 710.524 116.032L713.008 118.336C711.472 120.4 709.252 121.432 706.348 121.432ZM726.979 121H716.323V103.612H726.727C728.335 103.612 729.595 104.032 730.507 104.872C731.419 105.712 731.875 106.78 731.875 108.076C731.875 109.084 731.599 109.936 731.047 110.632C730.495 111.328 729.799 111.796 728.959 112.036C729.895 112.252 730.675 112.768 731.299 113.584C731.923 114.376 732.235 115.276 732.235 116.284C732.235 117.676 731.767 118.816 730.831 119.704C729.919 120.568 728.635 121 726.979 121ZM726.187 117.688C726.859 117.688 727.387 117.52 727.771 117.184C728.155 116.824 728.347 116.344 728.347 115.744C728.347 115.192 728.155 114.724 727.771 114.34C727.387 113.956 726.859 113.764 726.187 113.764H720.103V117.688H726.187ZM726.079 110.452C726.679 110.452 727.147 110.296 727.483 109.984C727.843 109.648 728.023 109.228 728.023 108.724C728.023 108.172 727.843 107.74 727.483 107.428C727.147 107.092 726.679 106.924 726.079 106.924H720.103V110.452H726.079ZM744.773 121.432C742.085 121.432 739.925 120.556 738.293 118.804C736.661 117.028 735.845 114.856 735.845 112.288C735.845 109.72 736.661 107.56 738.293 105.808C739.925 104.056 742.085 103.18 744.773 103.18C747.485 103.18 749.657 104.056 751.289 105.808C752.921 107.56 753.737 109.72 753.737 112.288C753.737 114.88 752.921 117.052 751.289 118.804C749.657 120.556 747.485 121.432 744.773 121.432ZM744.773 118.084C746.333 118.084 747.557 117.532 748.445 116.428C749.357 115.3 749.813 113.92 749.813 112.288C749.813 110.68 749.357 109.324 748.445 108.22C747.557 107.092 746.333 106.528 744.773 106.528C743.237 106.528 742.013 107.092 741.101 108.22C740.213 109.324 739.769 110.68 739.769 112.288C739.769 113.92 740.213 115.3 741.101 116.428C742.013 117.532 743.237 118.084 744.773 118.084ZM765.589 121.432C762.949 121.432 760.765 120.592 759.037 118.912C757.333 117.208 756.481 115 756.481 112.288C756.481 109.744 757.309 107.596 758.965 105.844C760.645 104.068 762.757 103.18 765.301 103.18C767.869 103.18 769.933 104.068 771.493 105.844C773.077 107.62 773.869 109.888 773.869 112.648V113.548H760.441C760.585 114.916 761.149 116.056 762.133 116.968C763.117 117.88 764.401 118.336 765.985 118.336C766.873 118.336 767.761 118.168 768.649 117.832C769.561 117.496 770.317 117.028 770.917 116.428L772.645 118.912C770.893 120.592 768.541 121.432 765.589 121.432ZM770.197 110.884C770.149 109.684 769.705 108.616 768.865 107.68C768.049 106.744 766.861 106.276 765.301 106.276C763.813 106.276 762.649 106.744 761.809 107.68C760.969 108.592 760.501 109.66 760.405 110.884H770.197ZM781.236 121H777.6V103.612H781.38V115.312L789.372 103.612H793.152V121H789.372V108.976L781.236 121ZM791.676 98.608C790.116 100.72 788.016 101.776 785.376 101.776C782.76 101.776 780.648 100.72 779.04 98.608L780.768 97.168C781.92 98.752 783.456 99.544 785.376 99.544C787.296 99.544 788.82 98.752 789.948 97.168L791.676 98.608ZM118.084 166H114.448V148.612H118.228V160.312L126.22 148.612H130V166H126.22V153.976L118.084 166ZM133.109 170.428V162.868C133.925 162.676 134.537 162.208 134.945 161.464C135.377 160.696 135.725 159.232 135.989 157.072L137.033 148.612H150.461V162.688H152.369V170.428H148.589V166H136.889V170.428H133.109ZM140.381 151.924L139.769 157.504C139.529 159.808 138.761 161.536 137.465 162.688H146.681V151.924H140.381ZM163.503 166.432C160.863 166.432 158.679 165.592 156.951 163.912C155.247 162.208 154.395 160 154.395 157.288C154.395 154.744 155.223 152.596 156.879 150.844C158.559 149.068 160.671 148.18 163.215 148.18C165.783 148.18 167.847 149.068 169.407 150.844C170.991 152.62 171.783 154.888 171.783 157.648V158.548H158.355C158.499 159.916 159.063 161.056 160.047 161.968C161.031 162.88 162.315 163.336 163.899 163.336C164.787 163.336 165.675 163.168 166.563 162.832C167.475 162.496 168.231 162.028 168.831 161.428L170.559 163.912C168.807 165.592 166.455 166.432 163.503 166.432ZM168.111 155.884C168.063 154.684 167.619 153.616 166.779 152.68C165.963 151.744 164.775 151.276 163.215 151.276C161.727 151.276 160.563 151.744 159.723 152.68C158.883 153.592 158.415 154.66 158.319 155.884H168.111ZM179.294 166H175.514V148.612H179.294V155.452H187.286V148.612H191.066V166H187.286V158.764H179.294V166ZM202.923 166H199.143V151.924H194.175V148.612H207.927V151.924H202.923V166ZM214.658 166H211.022V148.612H214.802V160.312L222.794 148.612H226.574V166H222.794V153.976L214.658 166ZM230.871 148.612H234.651V153.292C234.651 154.588 234.975 155.5 235.623 156.028C236.295 156.556 237.351 156.82 238.791 156.82C240.351 156.82 241.623 156.604 242.607 156.172V148.612H246.387V166H242.607V159.232C241.359 159.856 239.691 160.168 237.603 160.168C235.227 160.168 233.511 159.712 232.455 158.8C231.399 157.888 230.871 156.508 230.871 154.66V148.612ZM255.056 166H251.276V148.612H255.056V155.452H263.048V148.612H266.828V166H263.048V158.764H255.056V166ZM279.585 166.432C276.897 166.432 274.737 165.556 273.105 163.804C271.473 162.028 270.657 159.856 270.657 157.288C270.657 154.72 271.473 152.56 273.105 150.808C274.737 149.056 276.897 148.18 279.585 148.18C282.297 148.18 284.469 149.056 286.101 150.808C287.733 152.56 288.549 154.72 288.549 157.288C288.549 159.88 287.733 162.052 286.101 163.804C284.469 165.556 282.297 166.432 279.585 166.432ZM279.585 163.084C281.145 163.084 282.369 162.532 283.257 161.428C284.169 160.3 284.625 158.92 284.625 157.288C284.625 155.68 284.169 154.324 283.257 153.22C282.369 152.092 281.145 151.528 279.585 151.528C278.049 151.528 276.825 152.092 275.913 153.22C275.025 154.324 274.581 155.68 274.581 157.288C274.581 158.92 275.025 160.3 275.913 161.428C276.825 162.532 278.049 163.084 279.585 163.084ZM300.294 166.432C297.654 166.432 295.494 165.58 293.814 163.876C292.134 162.148 291.294 159.952 291.294 157.288C291.294 154.648 292.134 152.476 293.814 150.772C295.494 149.044 297.654 148.18 300.294 148.18C303.198 148.18 305.418 149.212 306.954 151.276L304.47 153.58C303.51 152.212 302.178 151.528 300.474 151.528C298.89 151.528 297.618 152.068 296.658 153.148C295.698 154.204 295.218 155.584 295.218 157.288C295.218 158.992 295.698 160.384 296.658 161.464C297.618 162.544 298.89 163.084 300.474 163.084C302.13 163.084 303.462 162.4 304.47 161.032L306.954 163.336C305.418 165.4 303.198 166.432 300.294 166.432ZM317.216 166H313.436V151.924H308.468V148.612H322.22V151.924H317.216V166ZM328.951 166H325.315V148.612H329.095V160.312L337.087 148.612H340.867V166H337.087V153.976L328.951 166ZM350.456 164.632C350.456 165.832 350.144 166.972 349.52 168.052C348.92 169.156 348.104 170.068 347.072 170.788L345.38 169.384C345.98 169.024 346.532 168.52 347.036 167.872C347.54 167.224 347.852 166.6 347.972 166C347.756 166.072 347.552 166.108 347.36 166.108C346.736 166.108 346.22 165.904 345.812 165.496C345.404 165.064 345.2 164.512 345.2 163.84C345.2 163.168 345.44 162.592 345.92 162.112C346.4 161.608 346.976 161.356 347.648 161.356C348.416 161.356 349.076 161.656 349.628 162.256C350.18 162.832 350.456 163.624 350.456 164.632ZM379.398 166H375.618V151.924H367.626V166H363.846V148.612H379.398V166ZM392.155 166.432C389.467 166.432 387.307 165.556 385.675 163.804C384.043 162.028 383.227 159.856 383.227 157.288C383.227 154.72 384.043 152.56 385.675 150.808C387.307 149.056 389.467 148.18 392.155 148.18C394.867 148.18 397.039 149.056 398.671 150.808C400.303 152.56 401.119 154.72 401.119 157.288C401.119 159.88 400.303 162.052 398.671 163.804C397.039 165.556 394.867 166.432 392.155 166.432ZM392.155 163.084C393.715 163.084 394.939 162.532 395.827 161.428C396.739 160.3 397.195 158.92 397.195 157.288C397.195 155.68 396.739 154.324 395.827 153.22C394.939 152.092 393.715 151.528 392.155 151.528C390.619 151.528 389.395 152.092 388.483 153.22C387.595 154.324 387.151 155.68 387.151 157.288C387.151 158.92 387.595 160.3 388.483 161.428C389.395 162.532 390.619 163.084 392.155 163.084ZM411.208 166.432C407.8 166.432 405.136 165.496 403.216 163.624L404.98 161.212C406.564 162.628 408.64 163.336 411.208 163.336C412.528 163.336 413.56 163.132 414.304 162.724C415.072 162.292 415.456 161.716 415.456 160.996C415.456 159.484 413.932 158.728 410.884 158.728H407.176V155.704H410.884C412.204 155.704 413.236 155.512 413.98 155.128C414.748 154.744 415.132 154.18 415.132 153.436C415.132 152.812 414.736 152.296 413.944 151.888C413.152 151.48 412.156 151.276 410.956 151.276C408.628 151.276 406.768 151.972 405.376 153.364L403.504 151.06C405.352 149.164 407.776 148.216 410.776 148.216C413.344 148.192 415.36 148.612 416.824 149.476C418.312 150.316 419.056 151.468 419.056 152.932C419.056 154.036 418.588 154.972 417.652 155.74C416.74 156.484 415.672 156.94 414.448 157.108C415.672 157.204 416.8 157.612 417.832 158.332C418.888 159.052 419.416 160.036 419.416 161.284C419.416 162.796 418.672 164.032 417.184 164.992C415.72 165.952 413.728 166.432 411.208 166.432ZM427.005 166H423.225V148.612H427.005V155.452H434.997V148.612H438.777V166H434.997V158.764H427.005V166ZM458.086 166H454.306V164.128C452.962 165.664 451.09 166.432 448.69 166.432C447.106 166.432 445.702 165.928 444.478 164.92C443.254 163.888 442.642 162.472 442.642 160.672C442.642 158.824 443.242 157.42 444.442 156.46C445.666 155.5 447.082 155.02 448.69 155.02C451.162 155.02 453.034 155.764 454.306 157.252V154.66C454.306 153.652 453.934 152.86 453.19 152.284C452.446 151.708 451.462 151.42 450.238 151.42C448.294 151.42 446.578 152.152 445.09 153.616L443.542 150.988C445.51 149.116 447.946 148.18 450.85 148.18C452.986 148.18 454.726 148.684 456.07 149.692C457.414 150.7 458.086 152.296 458.086 154.48V166ZM450.166 163.84C452.062 163.84 453.442 163.24 454.306 162.04V159.412C453.442 158.212 452.062 157.612 450.166 157.612C449.086 157.612 448.198 157.9 447.502 158.476C446.806 159.052 446.458 159.808 446.458 160.744C446.458 161.68 446.806 162.436 447.502 163.012C448.198 163.564 449.086 163.84 450.166 163.84ZM479.259 166H474.507L469.179 158.836L466.767 161.32V166H462.987V148.612H466.767V157L474.435 148.612H479.115L471.879 156.496L479.259 166ZM489.609 166.432C486.921 166.432 484.761 165.556 483.129 163.804C481.497 162.028 480.681 159.856 480.681 157.288C480.681 154.72 481.497 152.56 483.129 150.808C484.761 149.056 486.921 148.18 489.609 148.18C492.321 148.18 494.493 149.056 496.125 150.808C497.757 152.56 498.573 154.72 498.573 157.288C498.573 159.88 497.757 162.052 496.125 163.804C494.493 165.556 492.321 166.432 489.609 166.432ZM489.609 163.084C491.169 163.084 492.393 162.532 493.281 161.428C494.193 160.3 494.649 158.92 494.649 157.288C494.649 155.68 494.193 154.324 493.281 153.22C492.393 152.092 491.169 151.528 489.609 151.528C488.073 151.528 486.849 152.092 485.937 153.22C485.049 154.324 484.604 155.68 484.604 157.288C484.604 158.92 485.049 160.3 485.937 161.428C486.849 162.532 488.073 163.084 489.609 163.084ZM521.873 166H518.093V153.904L512.909 166H511.397L506.177 153.904V166H502.397V148.612H507.329L512.153 159.844L516.905 148.612H521.873V166ZM530.397 166H526.761V148.612H530.541V160.312L538.533 148.612H542.312V166H538.533V153.976L530.397 166ZM557.877 166H547.221V148.612H557.625C559.233 148.612 560.493 149.032 561.405 149.872C562.317 150.712 562.773 151.78 562.773 153.076C562.773 154.084 562.497 154.936 561.945 155.632C561.393 156.328 560.697 156.796 559.857 157.036C560.793 157.252 561.573 157.768 562.197 158.584C562.821 159.376 563.133 160.276 563.133 161.284C563.133 162.676 562.665 163.816 561.729 164.704C560.817 165.568 559.533 166 557.877 166ZM557.085 162.688C557.757 162.688 558.285 162.52 558.669 162.184C559.053 161.824 559.245 161.344 559.245 160.744C559.245 160.192 559.053 159.724 558.669 159.34C558.285 158.956 557.757 158.764 557.085 158.764H551.001V162.688H557.085ZM556.977 155.452C557.577 155.452 558.045 155.296 558.381 154.984C558.741 154.648 558.921 154.228 558.921 153.724C558.921 153.172 558.741 152.74 558.381 152.428C558.045 152.092 557.577 151.924 556.977 151.924H551.001V155.452H556.977ZM576.457 148.612H580.237V153.292C580.237 154.588 580.561 155.5 581.209 156.028C581.881 156.556 582.937 156.82 584.377 156.82C585.937 156.82 587.209 156.604 588.193 156.172V148.612H591.973V166H588.193V159.232C586.945 159.856 585.277 160.168 583.189 160.168C580.813 160.168 579.097 159.712 578.041 158.8C576.985 157.888 576.457 156.508 576.457 154.66V148.612ZM600.498 166H596.862V148.612H600.642V160.312L608.634 148.612H612.414V166H608.634V153.976L600.498 166ZM624.271 166H620.491V151.924H615.523V148.612H629.275V151.924H624.271V166ZM646.77 166H642.99V164.128C641.646 165.664 639.774 166.432 637.374 166.432C635.79 166.432 634.386 165.928 633.162 164.92C631.938 163.888 631.326 162.472 631.326 160.672C631.326 158.824 631.926 157.42 633.126 156.46C634.35 155.5 635.766 155.02 637.374 155.02C639.846 155.02 641.718 155.764 642.99 157.252V154.66C642.99 153.652 642.618 152.86 641.874 152.284C641.13 151.708 640.146 151.42 638.922 151.42C636.978 151.42 635.262 152.152 633.774 153.616L632.226 150.988C634.194 149.116 636.63 148.18 639.534 148.18C641.67 148.18 643.41 148.684 644.754 149.692C646.098 150.7 646.77 152.296 646.77 154.48V166ZM638.85 163.84C640.746 163.84 642.126 163.24 642.99 162.04V159.412C642.126 158.212 640.746 157.612 638.85 157.612C637.77 157.612 636.882 157.9 636.186 158.476C635.49 159.052 635.142 159.808 635.142 160.744C635.142 161.68 635.49 162.436 636.186 163.012C636.882 163.564 637.77 163.84 638.85 163.84ZM658.619 166H654.839V151.924H649.871V148.612H663.623V151.924H658.619V166ZM674.746 166.432C672.106 166.432 669.922 165.592 668.194 163.912C666.49 162.208 665.638 160 665.638 157.288C665.638 154.744 666.466 152.596 668.122 150.844C669.802 149.068 671.914 148.18 674.458 148.18C677.026 148.18 679.09 149.068 680.65 150.844C682.234 152.62 683.026 154.888 683.026 157.648V158.548H669.598C669.742 159.916 670.306 161.056 671.29 161.968C672.274 162.88 673.558 163.336 675.142 163.336C676.03 163.336 676.918 163.168 677.806 162.832C678.718 162.496 679.474 162.028 680.074 161.428L681.802 163.912C680.05 165.592 677.698 166.432 674.746 166.432ZM679.354 155.884C679.306 154.684 678.862 153.616 678.022 152.68C677.206 151.744 676.018 151.276 674.458 151.276C672.97 151.276 671.806 151.744 670.966 152.68C670.126 153.592 669.658 154.66 669.562 155.884H679.354ZM684.957 166.432V163.336C685.701 163.336 686.289 162.856 686.721 161.896C687.177 160.936 687.549 159.328 687.837 157.072L688.881 148.612H702.309V166H698.529V151.924H692.229L691.617 157.504C691.281 160.624 690.573 162.892 689.493 164.308C688.413 165.724 686.901 166.432 684.957 166.432ZM710.926 166H706.606L710.89 159.52C709.69 159.256 708.706 158.656 707.938 157.72C707.194 156.784 706.822 155.596 706.822 154.156C706.822 152.596 707.326 151.288 708.334 150.232C709.366 149.152 710.782 148.612 712.582 148.612H722.518V166H718.738V159.7H714.742L710.926 166ZM713.05 156.388H718.738V151.924H713.05C712.33 151.924 711.754 152.14 711.322 152.572C710.89 152.98 710.674 153.508 710.674 154.156C710.674 154.828 710.878 155.368 711.286 155.776C711.718 156.184 712.306 156.388 713.05 156.388ZM122.368 211.432C119.728 211.432 117.568 210.58 115.888 208.876C114.208 207.148 113.368 204.952 113.368 202.288C113.368 199.648 114.208 197.476 115.888 195.772C117.568 194.044 119.728 193.18 122.368 193.18C125.272 193.18 127.492 194.212 129.028 196.276L126.544 198.58C125.584 197.212 124.252 196.528 122.548 196.528C120.964 196.528 119.692 197.068 118.732 198.148C117.772 199.204 117.292 200.584 117.292 202.288C117.292 203.992 117.772 205.384 118.732 206.464C119.692 207.544 120.964 208.084 122.548 208.084C124.204 208.084 125.536 207.4 126.544 206.032L129.028 208.336C127.492 210.4 125.272 211.432 122.368 211.432ZM146.665 211.432C143.761 211.432 141.541 210.4 140.005 208.336L142.345 206.14C143.425 207.604 144.805 208.336 146.485 208.336C147.829 208.336 148.945 207.952 149.833 207.184C150.745 206.392 151.333 205.288 151.597 203.872H143.749V200.596H151.561C151.297 199.252 150.709 198.196 149.797 197.428C148.909 196.66 147.805 196.276 146.485 196.276C144.757 196.276 143.377 197.008 142.345 198.472L140.005 196.276C141.541 194.212 143.761 193.18 146.665 193.18C149.305 193.18 151.465 194.044 153.145 195.772C154.825 197.476 155.665 199.648 155.665 202.288C155.665 204.952 154.825 207.148 153.145 208.876C151.465 210.58 149.305 211.432 146.665 211.432ZM157.683 211.432V208.336C158.427 208.336 159.015 207.856 159.447 206.896C159.903 205.936 160.275 204.328 160.563 202.072L161.607 193.612H175.035V211H171.255V196.924H164.955L164.343 202.504C164.007 205.624 163.299 207.892 162.219 209.308C161.139 210.724 159.627 211.432 157.683 211.432ZM187.972 211.432C185.332 211.432 183.148 210.592 181.42 208.912C179.716 207.208 178.864 205 178.864 202.288C178.864 199.744 179.692 197.596 181.348 195.844C183.028 194.068 185.14 193.18 187.684 193.18C190.252 193.18 192.316 194.068 193.876 195.844C195.46 197.62 196.252 199.888 196.252 202.648V203.548H182.824C182.968 204.916 183.532 206.056 184.516 206.968C185.5 207.88 186.784 208.336 188.368 208.336C189.256 208.336 190.144 208.168 191.032 207.832C191.944 207.496 192.7 207.028 193.3 206.428L195.028 208.912C193.276 210.592 190.924 211.432 187.972 211.432ZM192.58 200.884C192.532 199.684 192.088 198.616 191.248 197.68C190.432 196.744 189.244 196.276 187.684 196.276C186.196 196.276 185.032 196.744 184.192 197.68C183.352 198.592 182.884 199.66 182.788 200.884H192.58ZM219.459 211H215.679V198.904L210.495 211H208.983L203.763 198.904V211H199.983V193.612H204.915L209.739 204.844L214.491 193.612H219.459V211ZM232.374 211.432C229.734 211.432 227.55 210.592 225.822 208.912C224.118 207.208 223.266 205 223.266 202.288C223.266 199.744 224.094 197.596 225.75 195.844C227.43 194.068 229.542 193.18 232.086 193.18C234.654 193.18 236.718 194.068 238.278 195.844C239.862 197.62 240.654 199.888 240.654 202.648V203.548H227.226C227.37 204.916 227.934 206.056 228.918 206.968C229.902 207.88 231.186 208.336 232.77 208.336C233.658 208.336 234.546 208.168 235.434 207.832C236.346 207.496 237.102 207.028 237.702 206.428L239.43 208.912C237.678 210.592 235.326 211.432 232.374 211.432ZM236.982 200.884C236.934 199.684 236.49 198.616 235.65 197.68C234.834 196.744 233.646 196.276 232.086 196.276C230.598 196.276 229.434 196.744 228.594 197.68C227.754 198.592 227.286 199.66 227.19 200.884H236.982ZM248.166 211H244.386V193.612H248.166V200.452H256.158V193.612H259.938V211H256.158V203.764H248.166V211ZM271.794 211H268.014V196.924H263.046V193.612H276.798V196.924H271.794V211ZM294.293 211H290.513V209.128C289.169 210.664 287.297 211.432 284.897 211.432C283.313 211.432 281.909 210.928 280.685 209.92C279.461 208.888 278.849 207.472 278.849 205.672C278.849 203.824 279.449 202.42 280.649 201.46C281.873 200.5 283.289 200.02 284.897 200.02C287.369 200.02 289.241 200.764 290.513 202.252V199.66C290.513 198.652 290.141 197.86 289.397 197.284C288.653 196.708 287.669 196.42 286.445 196.42C284.501 196.42 282.785 197.152 281.297 198.616L279.749 195.988C281.717 194.116 284.153 193.18 287.057 193.18C289.193 193.18 290.933 193.684 292.277 194.692C293.621 195.7 294.293 197.296 294.293 199.48V211ZM286.373 208.84C288.269 208.84 289.649 208.24 290.513 207.04V204.412C289.649 203.212 288.269 202.612 286.373 202.612C285.293 202.612 284.405 202.9 283.709 203.476C283.013 204.052 282.665 204.808 282.665 205.744C282.665 206.68 283.013 207.436 283.709 208.012C284.405 208.564 285.293 208.84 286.373 208.84ZM318.67 211H314.89V198.904L309.706 211H308.194L302.974 198.904V211H299.194V193.612H304.126L308.95 204.844L313.702 193.612H318.67V211ZM327.193 211H323.557V193.612H327.337V205.312L335.329 193.612H339.109V211H335.329V198.976L327.193 211ZM369.536 211H364.784L359.456 203.836L357.044 206.32V211H353.264V193.612H357.044V202L364.712 193.612H369.392L362.156 201.496L369.536 211ZM371.458 217.804L372.034 214.42C372.466 214.612 372.946 214.708 373.474 214.708C374.698 214.708 375.526 214.204 375.958 213.196L376.822 211.216L369.694 193.612H373.726L378.802 206.644L383.878 193.612H387.946L379.558 214.132C378.526 216.7 376.534 218.008 373.582 218.056C372.79 218.056 372.082 217.972 371.458 217.804ZM388.519 211.432V208.336C389.263 208.336 389.851 207.856 390.283 206.896C390.739 205.936 391.111 204.328 391.399 202.072L392.443 193.612H405.871V211H402.091V196.924H395.791L395.179 202.504C394.843 205.624 394.135 207.892 393.055 209.308C391.975 210.724 390.463 211.432 388.519 211.432ZM410.78 193.612H414.56V199.912H420.716C422.564 199.912 423.98 200.44 424.964 201.496C425.972 202.552 426.476 203.872 426.476 205.456C426.476 207.016 425.96 208.336 424.928 209.416C423.92 210.472 422.516 211 420.716 211H410.78V193.612ZM420.248 203.224H414.56V207.688H420.248C420.992 207.688 421.568 207.484 421.976 207.076C422.408 206.668 422.624 206.128 422.624 205.456C422.624 204.784 422.408 204.244 421.976 203.836C421.568 203.428 420.992 203.224 420.248 203.224ZM435.552 211H431.772V196.924H426.804V193.612H440.556V196.924H435.552V211ZM442.895 217.804L443.471 214.42C443.903 214.612 444.383 214.708 444.911 214.708C446.135 214.708 446.963 214.204 447.395 213.196L448.259 211.216L441.131 193.612H445.163L450.239 206.644L455.315 193.612H459.383L450.995 214.132C449.963 216.7 447.971 218.008 445.019 218.056C444.227 218.056 443.519 217.972 442.895 217.804ZM471.117 211.432C468.813 211.432 466.953 210.484 465.537 208.588V217.624H461.757V193.612H465.537V195.988C466.929 194.116 468.789 193.18 471.117 193.18C473.397 193.18 475.245 193.996 476.661 195.628C478.101 197.26 478.821 199.48 478.821 202.288C478.821 205.096 478.101 207.328 476.661 208.984C475.245 210.616 473.397 211.432 471.117 211.432ZM470.001 208.084C471.489 208.084 472.677 207.544 473.565 206.464C474.453 205.384 474.897 203.992 474.897 202.288C474.897 200.584 474.453 199.204 473.565 198.148C472.677 197.068 471.489 196.528 470.001 196.528C469.137 196.528 468.285 196.756 467.445 197.212C466.605 197.668 465.969 198.22 465.537 198.868V205.744C465.969 206.392 466.605 206.944 467.445 207.4C468.285 207.856 469.137 208.084 470.001 208.084ZM482.569 193.612H486.349V199.912H492.505C494.353 199.912 495.769 200.44 496.753 201.496C497.761 202.552 498.265 203.872 498.265 205.456C498.265 207.016 497.749 208.336 496.717 209.416C495.709 210.472 494.305 211 492.505 211H482.569V193.612ZM492.037 203.224H486.349V207.688H492.037C492.781 207.688 493.357 207.484 493.765 207.076C494.197 206.668 494.413 206.128 494.413 205.456C494.413 204.784 494.197 204.244 493.765 203.836C493.357 203.428 492.781 203.224 492.037 203.224ZM504.673 211H500.893V193.612H504.673V211ZM528.175 211.432C525.871 211.432 524.011 210.484 522.595 208.588V217.624H518.815V193.612H522.595V195.988C523.987 194.116 525.847 193.18 528.175 193.18C530.455 193.18 532.303 193.996 533.719 195.628C535.159 197.26 535.879 199.48 535.879 202.288C535.879 205.096 535.159 207.328 533.719 208.984C532.303 210.616 530.455 211.432 528.175 211.432ZM527.059 208.084C528.547 208.084 529.735 207.544 530.623 206.464C531.511 205.384 531.955 203.992 531.955 202.288C531.955 200.584 531.511 199.204 530.623 198.148C529.735 197.068 528.547 196.528 527.059 196.528C526.195 196.528 525.343 196.756 524.503 197.212C523.663 197.668 523.027 198.22 522.595 198.868V205.744C523.027 206.392 523.663 206.944 524.503 207.4C525.343 207.856 526.195 208.084 527.059 208.084ZM554.028 211H550.248V209.128C548.904 210.664 547.032 211.432 544.632 211.432C543.048 211.432 541.644 210.928 540.42 209.92C539.196 208.888 538.584 207.472 538.584 205.672C538.584 203.824 539.184 202.42 540.384 201.46C541.608 200.5 543.024 200.02 544.632 200.02C547.104 200.02 548.976 200.764 550.248 202.252V199.66C550.248 198.652 549.876 197.86 549.132 197.284C548.388 196.708 547.404 196.42 546.18 196.42C544.236 196.42 542.52 197.152 541.032 198.616L539.484 195.988C541.452 194.116 543.888 193.18 546.792 193.18C548.928 193.18 550.668 193.684 552.012 194.692C553.356 195.7 554.028 197.296 554.028 199.48V211ZM546.108 208.84C548.004 208.84 549.384 208.24 550.248 207.04V204.412C549.384 203.212 548.004 202.612 546.108 202.612C545.028 202.612 544.14 202.9 543.444 203.476C542.748 204.052 542.4 204.808 542.4 205.744C542.4 206.68 542.748 207.436 543.444 208.012C544.14 208.564 545.028 208.84 546.108 208.84ZM565.192 211.432C561.784 211.432 559.12 210.496 557.2 208.624L558.964 206.212C560.548 207.628 562.624 208.336 565.192 208.336C566.512 208.336 567.544 208.132 568.288 207.724C569.056 207.292 569.44 206.716 569.44 205.996C569.44 204.484 567.916 203.728 564.868 203.728H561.16V200.704H564.868C566.188 200.704 567.22 200.512 567.964 200.128C568.732 199.744 569.116 199.18 569.116 198.436C569.116 197.812 568.72 197.296 567.928 196.888C567.136 196.48 566.14 196.276 564.94 196.276C562.612 196.276 560.752 196.972 559.36 198.364L557.488 196.06C559.336 194.164 561.76 193.216 564.76 193.216C567.328 193.192 569.344 193.612 570.808 194.476C572.296 195.316 573.04 196.468 573.04 197.932C573.04 199.036 572.572 199.972 571.636 200.74C570.724 201.484 569.656 201.94 568.432 202.108C569.656 202.204 570.784 202.612 571.816 203.332C572.872 204.052 573.4 205.036 573.4 206.284C573.4 207.796 572.656 209.032 571.168 209.992C569.704 210.952 567.712 211.432 565.192 211.432ZM580.99 211H577.21V193.612H580.99V200.452H588.982V193.612H592.762V211H588.982V203.764H580.99V211ZM597.671 193.612H601.451V199.912H607.607C609.455 199.912 610.871 200.44 611.855 201.496C612.863 202.552 613.367 203.872 613.367 205.456C613.367 207.016 612.851 208.336 611.819 209.416C610.811 210.472 609.407 211 607.607 211H597.671V193.612ZM607.139 203.224H601.451V207.688H607.139C607.883 207.688 608.459 207.484 608.867 207.076C609.299 206.668 609.515 206.128 609.515 205.456C609.515 204.784 609.299 204.244 608.867 203.836C608.459 203.428 607.883 203.224 607.139 203.224ZM619.775 211H615.995V193.612H619.775V211ZM639.899 211H635.651L631.151 204.592L626.615 211H622.403L628.775 202.072L622.763 193.612H627.011L631.151 199.516L635.255 193.612H639.503L633.491 202.072L639.899 211ZM655.556 211H651.776V193.612H655.556V200.452H663.548V193.612H667.328V211H663.548V203.764H655.556V211ZM686.637 211H682.857V209.128C681.513 210.664 679.641 211.432 677.241 211.432C675.657 211.432 674.253 210.928 673.029 209.92C671.805 208.888 671.193 207.472 671.193 205.672C671.193 203.824 671.793 202.42 672.993 201.46C674.217 200.5 675.633 200.02 677.241 200.02C679.713 200.02 681.585 200.764 682.857 202.252V199.66C682.857 198.652 682.485 197.86 681.741 197.284C680.997 196.708 680.013 196.42 678.789 196.42C676.845 196.42 675.129 197.152 673.641 198.616L672.093 195.988C674.061 194.116 676.497 193.18 679.401 193.18C681.537 193.18 683.277 193.684 684.621 194.692C685.965 195.7 686.637 197.296 686.637 199.48V211ZM678.717 208.84C680.613 208.84 681.993 208.24 682.857 207.04V204.412C681.993 203.212 680.613 202.612 678.717 202.612C677.637 202.612 676.749 202.9 676.053 203.476C675.357 204.052 675.009 204.808 675.009 205.744C675.009 206.68 675.357 207.436 676.053 208.012C676.749 208.564 677.637 208.84 678.717 208.84ZM700.898 211.432C698.594 211.432 696.734 210.484 695.318 208.588V217.624H691.538V193.612H695.318V195.988C696.71 194.116 698.57 193.18 700.898 193.18C703.178 193.18 705.026 193.996 706.442 195.628C707.882 197.26 708.602 199.48 708.602 202.288C708.602 205.096 707.882 207.328 706.442 208.984C705.026 210.616 703.178 211.432 700.898 211.432ZM699.782 208.084C701.27 208.084 702.458 207.544 703.346 206.464C704.234 205.384 704.678 203.992 704.678 202.288C704.678 200.584 704.234 199.204 703.346 198.148C702.458 197.068 701.27 196.528 699.782 196.528C698.918 196.528 698.066 196.756 697.226 197.212C696.386 197.668 695.75 198.22 695.318 198.868V205.744C695.75 206.392 696.386 206.944 697.226 207.4C698.066 207.856 698.918 208.084 699.782 208.084ZM720.198 211.432C717.51 211.432 715.35 210.556 713.718 208.804C712.086 207.028 711.27 204.856 711.27 202.288C711.27 199.72 712.086 197.56 713.718 195.808C715.35 194.056 717.51 193.18 720.198 193.18C722.91 193.18 725.082 194.056 726.714 195.808C728.346 197.56 729.162 199.72 729.162 202.288C729.162 204.88 728.346 207.052 726.714 208.804C725.082 210.556 722.91 211.432 720.198 211.432ZM720.198 208.084C721.758 208.084 722.982 207.532 723.87 206.428C724.782 205.3 725.238 203.92 725.238 202.288C725.238 200.68 724.782 199.324 723.87 198.22C722.982 197.092 721.758 196.528 720.198 196.528C718.662 196.528 717.438 197.092 716.526 198.22C715.638 199.324 715.194 200.68 715.194 202.288C715.194 203.92 715.638 205.3 716.526 206.428C717.438 207.532 718.662 208.084 720.198 208.084ZM731.187 215.428V207.868C732.003 207.676 732.615 207.208 733.023 206.464C733.455 205.696 733.803 204.232 734.067 202.072L735.111 193.612H748.539V207.688H750.447V215.428H746.667V211H734.967V215.428H731.187ZM738.459 196.924L737.847 202.504C737.607 204.808 736.839 206.536 735.543 207.688H744.759V196.924H738.459ZM761.401 211.432C758.713 211.432 756.553 210.556 754.921 208.804C753.289 207.028 752.473 204.856 752.473 202.288C752.473 199.72 753.289 197.56 754.921 195.808C756.553 194.056 758.713 193.18 761.401 193.18C764.113 193.18 766.285 194.056 767.917 195.808C769.549 197.56 770.365 199.72 770.365 202.288C770.365 204.88 769.549 207.052 767.917 208.804C766.285 210.556 764.113 211.432 761.401 211.432ZM761.401 208.084C762.961 208.084 764.185 207.532 765.073 206.428C765.985 205.3 766.441 203.92 766.441 202.288C766.441 200.68 765.985 199.324 765.073 198.22C764.185 197.092 762.961 196.528 761.401 196.528C759.865 196.528 758.641 197.092 757.729 198.22C756.841 199.324 756.397 200.68 756.397 202.288C756.397 203.92 756.841 205.3 757.729 206.428C758.641 207.532 759.865 208.084 761.401 208.084ZM784.846 211H774.19V193.612H784.594C786.202 193.612 787.462 194.032 788.374 194.872C789.286 195.712 789.742 196.78 789.742 198.076C789.742 199.084 789.466 199.936 788.914 200.632C788.362 201.328 787.666 201.796 786.826 202.036C787.762 202.252 788.542 202.768 789.166 203.584C789.79 204.376 790.102 205.276 790.102 206.284C790.102 207.676 789.634 208.816 788.698 209.704C787.786 210.568 786.502 211 784.846 211ZM784.054 207.688C784.726 207.688 785.254 207.52 785.638 207.184C786.022 206.824 786.214 206.344 786.214 205.744C786.214 205.192 786.022 204.724 785.638 204.34C785.254 203.956 784.726 203.764 784.054 203.764H777.97V207.688H784.054ZM783.946 200.452C784.546 200.452 785.014 200.296 785.35 199.984C785.71 199.648 785.89 199.228 785.89 198.724C785.89 198.172 785.71 197.74 785.35 197.428C785.014 197.092 784.546 196.924 783.946 196.924H777.97V200.452H783.946ZM133.924 256H130.144V243.904L124.96 256H123.448L118.228 243.904V256H114.448V238.612H119.38L124.204 249.844L128.956 238.612H133.924V256ZM153.211 256H149.431V254.128C148.087 255.664 146.215 256.432 143.815 256.432C142.231 256.432 140.827 255.928 139.603 254.92C138.379 253.888 137.767 252.472 137.767 250.672C137.767 248.824 138.367 247.42 139.567 246.46C140.791 245.5 142.207 245.02 143.815 245.02C146.287 245.02 148.159 245.764 149.431 247.252V244.66C149.431 243.652 149.059 242.86 148.315 242.284C147.571 241.708 146.587 241.42 145.363 241.42C143.419 241.42 141.703 242.152 140.215 243.616L138.667 240.988C140.635 239.116 143.071 238.18 145.975 238.18C148.111 238.18 149.851 238.684 151.195 239.692C152.539 240.7 153.211 242.296 153.211 244.48V256ZM145.291 253.84C147.187 253.84 148.567 253.24 149.431 252.04V249.412C148.567 248.212 147.187 247.612 145.291 247.612C144.211 247.612 143.323 247.9 142.627 248.476C141.931 249.052 141.583 249.808 141.583 250.744C141.583 251.68 141.931 252.436 142.627 253.012C143.323 253.564 144.211 253.84 145.291 253.84ZM174.384 256H169.632L164.304 248.836L161.892 251.32V256H158.112V238.612H161.892V247L169.56 238.612H174.24L167.004 246.496L174.384 256ZM184.806 256.432C182.166 256.432 180.006 255.58 178.326 253.876C176.646 252.148 175.806 249.952 175.806 247.288C175.806 244.648 176.646 242.476 178.326 240.772C180.006 239.044 182.166 238.18 184.806 238.18C187.71 238.18 189.93 239.212 191.466 241.276L188.982 243.58C188.022 242.212 186.69 241.528 184.986 241.528C183.402 241.528 182.13 242.068 181.17 243.148C180.21 244.204 179.729 245.584 179.729 247.288C179.729 248.992 180.21 250.384 181.17 251.464C182.13 252.544 183.402 253.084 184.986 253.084C186.642 253.084 187.974 252.4 188.982 251.032L191.466 253.336C189.93 255.4 187.71 256.432 184.806 256.432ZM198.416 256H194.78V238.612H198.56V250.312L206.552 238.612H210.332V256H206.552V243.976L198.416 256ZM234.717 256H230.937V243.904L225.753 256H224.241L219.021 243.904V256H215.241V238.612H220.173L224.997 249.844L229.749 238.612H234.717V256ZM254.004 256H250.224V254.128C248.88 255.664 247.008 256.432 244.608 256.432C243.024 256.432 241.62 255.928 240.396 254.92C239.172 253.888 238.56 252.472 238.56 250.672C238.56 248.824 239.16 247.42 240.36 246.46C241.584 245.5 243 245.02 244.608 245.02C247.08 245.02 248.952 245.764 250.224 247.252V244.66C250.224 243.652 249.852 242.86 249.108 242.284C248.364 241.708 247.38 241.42 246.156 241.42C244.212 241.42 242.496 242.152 241.008 243.616L239.46 240.988C241.428 239.116 243.864 238.18 246.768 238.18C248.904 238.18 250.644 238.684 251.988 239.692C253.332 240.7 254.004 242.296 254.004 244.48V256ZM246.084 253.84C247.98 253.84 249.36 253.24 250.224 252.04V249.412C249.36 248.212 247.98 247.612 246.084 247.612C245.004 247.612 244.116 247.9 243.42 248.476C242.724 249.052 242.376 249.808 242.376 250.744C242.376 251.68 242.724 252.436 243.42 253.012C244.116 253.564 245.004 253.84 246.084 253.84ZM257.105 256.432V253.336C257.849 253.336 258.437 252.856 258.869 251.896C259.325 250.936 259.697 249.328 259.985 247.072L261.029 238.612H274.457V256H270.677V241.924H264.377L263.765 247.504C263.429 250.624 262.721 252.892 261.641 254.308C260.561 255.724 259.049 256.432 257.105 256.432ZM279.366 238.612H283.146V244.912H289.302C291.15 244.912 292.566 245.44 293.55 246.496C294.558 247.552 295.062 248.872 295.062 250.456C295.062 252.016 294.546 253.336 293.514 254.416C292.506 255.472 291.102 256 289.302 256H279.366V238.612ZM288.834 248.224H283.146V252.688H288.834C289.578 252.688 290.154 252.484 290.562 252.076C290.994 251.668 291.21 251.128 291.21 250.456C291.21 249.784 290.994 249.244 290.562 248.836C290.154 248.428 289.578 248.224 288.834 248.224ZM302.587 256H298.807V238.612H302.587V245.452H310.579V238.612H314.359V256H310.579V248.764H302.587V256ZM327.116 256.432C324.428 256.432 322.268 255.556 320.636 253.804C319.004 252.028 318.188 249.856 318.188 247.288C318.188 244.72 319.004 242.56 320.636 240.808C322.268 239.056 324.428 238.18 327.116 238.18C329.828 238.18 332 239.056 333.632 240.808C335.264 242.56 336.08 244.72 336.08 247.288C336.08 249.88 335.264 252.052 333.632 253.804C332 255.556 329.828 256.432 327.116 256.432ZM327.116 253.084C328.676 253.084 329.9 252.532 330.788 251.428C331.7 250.3 332.156 248.92 332.156 247.288C332.156 245.68 331.7 244.324 330.788 243.22C329.9 242.092 328.676 241.528 327.116 241.528C325.58 241.528 324.356 242.092 323.444 243.22C322.556 244.324 322.112 245.68 322.112 247.288C322.112 248.92 322.556 250.3 323.444 251.428C324.356 252.532 325.58 253.084 327.116 253.084ZM348.395 262.804L348.971 259.42C349.403 259.612 349.883 259.708 350.411 259.708C351.635 259.708 352.463 259.204 352.895 258.196L353.759 256.216L346.631 238.612H350.663L355.739 251.644L360.815 238.612H364.883L356.495 259.132C355.463 261.7 353.471 263.008 350.519 263.056C349.727 263.056 349.019 262.972 348.395 262.804ZM365.457 260.428V252.868C366.273 252.676 366.885 252.208 367.293 251.464C367.725 250.696 368.073 249.232 368.337 247.072L369.381 238.612H382.809V252.688H384.717V260.428H380.937V256H369.237V260.428H365.457ZM372.729 241.924L372.117 247.504C371.877 249.808 371.109 251.536 369.813 252.688H379.029V241.924H372.729ZM395.671 256.432C392.983 256.432 390.823 255.556 389.191 253.804C387.559 252.028 386.743 249.856 386.743 247.288C386.743 244.72 387.559 242.56 389.191 240.808C390.823 239.056 392.983 238.18 395.671 238.18C398.383 238.18 400.555 239.056 402.187 240.808C403.819 242.56 404.635 244.72 404.635 247.288C404.635 249.88 403.819 252.052 402.187 253.804C400.555 255.556 398.383 256.432 395.671 256.432ZM395.671 253.084C397.231 253.084 398.455 252.532 399.343 251.428C400.255 250.3 400.711 248.92 400.711 247.288C400.711 245.68 400.255 244.324 399.343 243.22C398.455 242.092 397.231 241.528 395.671 241.528C394.135 241.528 392.911 242.092 391.999 243.22C391.111 244.324 390.667 245.68 390.667 247.288C390.667 248.92 391.111 250.3 391.999 251.428C392.911 252.532 394.135 253.084 395.671 253.084ZM416.308 253.084C417.868 253.084 419.092 252.52 419.98 251.392C420.892 250.264 421.348 248.872 421.348 247.216C421.348 245.632 420.892 244.288 419.98 243.184C419.092 242.08 417.868 241.528 416.308 241.528C414.772 241.528 413.548 242.08 412.636 243.184C411.748 244.288 411.304 245.632 411.304 247.216C411.304 248.872 411.748 250.264 412.636 251.392C413.548 252.52 414.772 253.084 416.308 253.084ZM422.824 253.768C421.216 255.544 419.044 256.432 416.308 256.432C413.572 256.432 411.4 255.508 409.792 253.66C408.208 251.788 407.416 249.4 407.416 246.496C407.416 242.344 408.124 239.248 409.54 237.208C410.98 235.168 413.188 233.968 416.164 233.608C417.964 233.344 419.2 233.092 419.872 232.852C420.568 232.612 420.916 232.324 420.916 231.988H424.624C424.624 234.508 422.152 236.044 417.208 236.596C415.264 236.812 413.764 237.352 412.708 238.216C411.676 239.056 411.028 240.064 410.764 241.24C411.46 240.28 412.36 239.536 413.464 239.008C414.592 238.456 415.78 238.18 417.028 238.18C419.428 238.18 421.396 239.068 422.932 240.844C424.468 242.62 425.236 244.756 425.236 247.252C425.236 249.82 424.432 251.992 422.824 253.768ZM433.017 256H429.237V238.612H433.017V245.452H441.009V238.612H444.789V256H441.009V248.764H433.017V256ZM449.698 238.612H453.478V244.912H459.634C461.482 244.912 462.898 245.44 463.882 246.496C464.89 247.552 465.394 248.872 465.394 250.456C465.394 252.016 464.878 253.336 463.846 254.416C462.838 255.472 461.434 256 459.634 256H449.698V238.612ZM459.166 248.224H453.478V252.688H459.166C459.91 252.688 460.486 252.484 460.894 252.076C461.326 251.668 461.542 251.128 461.542 250.456C461.542 249.784 461.326 249.244 460.894 248.836C460.486 248.428 459.91 248.224 459.166 248.224ZM471.802 256H468.022V238.612H471.802V256ZM496.174 256H492.394V243.904L487.21 256H485.698L480.478 243.904V256H476.698V238.612H481.63L486.454 249.844L491.206 238.612H496.174V256ZM513.943 256H510.307V238.612H514.087V250.312L522.079 238.612H525.859V256H522.079V243.976L513.943 256ZM543.65 256H540.014V238.612H543.794V250.312L551.786 238.612H555.566V256H551.786V243.976L543.65 256ZM564.255 256H560.475V238.612H564.255V245.452H572.247V238.612H576.027V256H572.247V248.764H564.255V256ZM582.232 240.664C583.432 239.008 584.992 238.18 586.912 238.18C588.832 238.18 590.392 239.128 591.592 241.024V231.988H595.372V240.988C596.548 239.116 598.108 238.18 600.052 238.18C601.972 238.18 603.532 238.996 604.732 240.628C605.932 242.26 606.532 244.48 606.532 247.288C606.532 250.096 605.932 252.328 604.732 253.984C603.532 255.616 601.972 256.432 600.052 256.432C598.132 256.432 596.572 255.484 595.372 253.588V262.624H591.592V253.624C590.416 255.496 588.856 256.432 586.912 256.432C584.992 256.432 583.432 255.616 582.232 253.984C581.032 252.352 580.432 250.132 580.432 247.324C580.432 244.516 581.032 242.296 582.232 240.664ZM588.1 241.528C586.948 241.528 586.012 242.068 585.292 243.148C584.596 244.228 584.248 245.62 584.248 247.324C584.248 249.028 584.596 250.42 585.292 251.5C586.012 252.556 586.948 253.084 588.1 253.084C588.772 253.084 589.432 252.856 590.08 252.4C590.752 251.944 591.256 251.392 591.592 250.744V243.868C591.256 243.22 590.752 242.668 590.08 242.212C589.432 241.756 588.772 241.528 588.1 241.528ZM598.864 253.084C600.016 253.084 600.94 252.544 601.636 251.464C602.356 250.384 602.716 248.992 602.716 247.288C602.716 245.584 602.356 244.204 601.636 243.148C600.94 242.068 600.016 241.528 598.864 241.528C598.192 241.528 597.52 241.756 596.848 242.212C596.2 242.668 595.708 243.22 595.372 243.868V250.744C595.708 251.392 596.2 251.944 596.848 252.4C597.52 252.856 598.192 253.084 598.864 253.084ZM618.773 256.432C616.085 256.432 613.925 255.556 612.293 253.804C610.661 252.028 609.845 249.856 609.845 247.288C609.845 244.72 610.661 242.56 612.293 240.808C613.925 239.056 616.085 238.18 618.773 238.18C621.485 238.18 623.657 239.056 625.289 240.808C626.921 242.56 627.737 244.72 627.737 247.288C627.737 249.88 626.921 252.052 625.289 253.804C623.657 255.556 621.485 256.432 618.773 256.432ZM618.773 253.084C620.333 253.084 621.557 252.532 622.445 251.428C623.357 250.3 623.813 248.92 623.813 247.288C623.813 245.68 623.357 244.324 622.445 243.22C621.557 242.092 620.333 241.528 618.773 241.528C617.237 241.528 616.013 242.092 615.101 243.22C614.213 244.324 613.769 245.68 613.769 247.288C613.769 248.92 614.213 250.3 615.101 251.428C616.013 252.532 617.237 253.084 618.773 253.084ZM640.921 256.432C638.617 256.432 636.757 255.484 635.341 253.588V262.624H631.561V238.612H635.341V240.988C636.733 239.116 638.593 238.18 640.921 238.18C643.201 238.18 645.049 238.996 646.465 240.628C647.905 242.26 648.625 244.48 648.625 247.288C648.625 250.096 647.905 252.328 646.465 253.984C645.049 255.616 643.201 256.432 640.921 256.432ZM639.805 253.084C641.293 253.084 642.481 252.544 643.369 251.464C644.257 250.384 644.701 248.992 644.701 247.288C644.701 245.584 644.257 244.204 643.369 243.148C642.481 242.068 641.293 241.528 639.805 241.528C638.941 241.528 638.089 241.756 637.249 242.212C636.409 242.668 635.773 243.22 635.341 243.868V250.744C635.773 251.392 636.409 251.944 637.249 252.4C638.089 252.856 638.941 253.084 639.805 253.084ZM671.85 256H668.07V243.904L662.886 256H661.374L656.154 243.904V256H652.374V238.612H657.306L662.13 249.844L666.882 238.612H671.85V256ZM691.137 256H687.357V254.128C686.013 255.664 684.141 256.432 681.741 256.432C680.157 256.432 678.753 255.928 677.529 254.92C676.305 253.888 675.693 252.472 675.693 250.672C675.693 248.824 676.293 247.42 677.493 246.46C678.717 245.5 680.133 245.02 681.741 245.02C684.213 245.02 686.085 245.764 687.357 247.252V244.66C687.357 243.652 686.985 242.86 686.241 242.284C685.497 241.708 684.513 241.42 683.289 241.42C681.345 241.42 679.629 242.152 678.141 243.616L676.593 240.988C678.561 239.116 680.997 238.18 683.901 238.18C686.037 238.18 687.777 238.684 689.121 239.692C690.465 240.7 691.137 242.296 691.137 244.48V256ZM683.217 253.84C685.113 253.84 686.493 253.24 687.357 252.04V249.412C686.493 248.212 685.113 247.612 683.217 247.612C682.137 247.612 681.249 247.9 680.553 248.476C679.857 249.052 679.509 249.808 679.509 250.744C679.509 251.68 679.857 252.436 680.553 253.012C681.249 253.564 682.137 253.84 683.217 253.84ZM702.986 256H699.206V241.924H694.238V238.612H707.99V241.924H702.986V256ZM714.721 256H711.085V238.612H714.865V250.312L722.857 238.612H726.637V256H722.857V243.976L714.721 256ZM742.202 256H731.546V238.612H741.95C743.558 238.612 744.818 239.032 745.73 239.872C746.642 240.712 747.098 241.78 747.098 243.076C747.098 244.084 746.822 244.936 746.27 245.632C745.718 246.328 745.022 246.796 744.182 247.036C745.118 247.252 745.898 247.768 746.522 248.584C747.146 249.376 747.458 250.276 747.458 251.284C747.458 252.676 746.99 253.816 746.054 254.704C745.142 255.568 743.858 256 742.202 256ZM741.41 252.688C742.082 252.688 742.61 252.52 742.994 252.184C743.378 251.824 743.57 251.344 743.57 250.744C743.57 250.192 743.378 249.724 742.994 249.34C742.61 248.956 742.082 248.764 741.41 248.764H735.326V252.688H741.41ZM741.302 245.452C741.902 245.452 742.37 245.296 742.706 244.984C743.066 244.648 743.246 244.228 743.246 243.724C743.246 243.172 743.066 242.74 742.706 242.428C742.37 242.092 741.902 241.924 741.302 241.924H735.326V245.452H741.302ZM755.927 256H752.147V238.612H755.927V245.452H763.919V238.612H767.699V256H763.919V248.764H755.927V256ZM772.608 238.612H776.388V244.912H782.544C784.392 244.912 785.808 245.44 786.792 246.496C787.8 247.552 788.304 248.872 788.304 250.456C788.304 252.016 787.788 253.336 786.756 254.416C785.748 255.472 784.344 256 782.544 256H772.608V238.612ZM782.076 248.224H776.388V252.688H782.076C782.82 252.688 783.396 252.484 783.804 252.076C784.236 251.668 784.452 251.128 784.452 250.456C784.452 249.784 784.236 249.244 783.804 248.836C783.396 248.428 782.82 248.224 782.076 248.224ZM794.712 256H790.932V238.612H794.712V256ZM819.084 256H815.304V243.904L810.12 256H808.608L803.388 243.904V256H799.608V238.612H804.54L809.364 249.844L814.116 238.612H819.084V256ZM122.368 301.432C119.728 301.432 117.568 300.58 115.888 298.876C114.208 297.148 113.368 294.952 113.368 292.288C113.368 289.648 114.208 287.476 115.888 285.772C117.568 284.044 119.728 283.18 122.368 283.18C125.272 283.18 127.492 284.212 129.028 286.276L126.544 288.58C125.584 287.212 124.252 286.528 122.548 286.528C120.964 286.528 119.692 287.068 118.732 288.148C117.772 289.204 117.292 290.584 117.292 292.288C117.292 293.992 117.772 295.384 118.732 296.464C119.692 297.544 120.964 298.084 122.548 298.084C124.204 298.084 125.536 297.4 126.544 296.032L129.028 298.336C127.492 300.4 125.272 301.432 122.368 301.432ZM147.895 301H144.115V286.924H136.123V301H132.343V283.612H147.895V301ZM160.651 301.432C157.963 301.432 155.803 300.556 154.171 298.804C152.539 297.028 151.723 294.856 151.723 292.288C151.723 289.72 152.539 287.56 154.171 285.808C155.803 284.056 157.963 283.18 160.651 283.18C163.363 283.18 165.535 284.056 167.167 285.808C168.799 287.56 169.615 289.72 169.615 292.288C169.615 294.88 168.799 297.052 167.167 298.804C165.535 300.556 163.363 301.432 160.651 301.432ZM160.651 298.084C162.211 298.084 163.435 297.532 164.323 296.428C165.235 295.3 165.691 293.92 165.691 292.288C165.691 290.68 165.235 289.324 164.323 288.22C163.435 287.092 162.211 286.528 160.651 286.528C159.115 286.528 157.891 287.092 156.979 288.22C156.091 289.324 155.647 290.68 155.647 292.288C155.647 293.92 156.091 295.3 156.979 296.428C157.891 297.532 159.115 298.084 160.651 298.084ZM181.36 301.432C178.72 301.432 176.56 300.58 174.88 298.876C173.2 297.148 172.36 294.952 172.36 292.288C172.36 289.648 173.2 287.476 174.88 285.772C176.56 284.044 178.72 283.18 181.36 283.18C184.264 283.18 186.484 284.212 188.02 286.276L185.536 288.58C184.576 287.212 183.244 286.528 181.54 286.528C179.956 286.528 178.684 287.068 177.724 288.148C176.764 289.204 176.284 290.584 176.284 292.288C176.284 293.992 176.764 295.384 177.724 296.464C178.684 297.544 179.956 298.084 181.54 298.084C183.196 298.084 184.528 297.4 185.536 296.032L188.02 298.336C186.484 300.4 184.264 301.432 181.36 301.432ZM199.183 301.432C196.495 301.432 194.335 300.556 192.703 298.804C191.071 297.028 190.255 294.856 190.255 292.288C190.255 289.72 191.071 287.56 192.703 285.808C194.335 284.056 196.495 283.18 199.183 283.18C201.895 283.18 204.067 284.056 205.699 285.808C207.331 287.56 208.147 289.72 208.147 292.288C208.147 294.88 207.331 297.052 205.699 298.804C204.067 300.556 201.895 301.432 199.183 301.432ZM199.183 298.084C200.743 298.084 201.967 297.532 202.855 296.428C203.767 295.3 204.223 293.92 204.223 292.288C204.223 290.68 203.767 289.324 202.855 288.22C201.967 287.092 200.743 286.528 199.183 286.528C197.647 286.528 196.423 287.092 195.511 288.22C194.623 289.324 194.179 290.68 194.179 292.288C194.179 293.92 194.623 295.3 195.511 296.428C196.423 297.532 197.647 298.084 199.183 298.084ZM219.819 298.084C221.379 298.084 222.603 297.52 223.491 296.392C224.403 295.264 224.859 293.872 224.859 292.216C224.859 290.632 224.403 289.288 223.491 288.184C222.603 287.08 221.379 286.528 219.819 286.528C218.283 286.528 217.059 287.08 216.147 288.184C215.259 289.288 214.815 290.632 214.815 292.216C214.815 293.872 215.259 295.264 216.147 296.392C217.059 297.52 218.283 298.084 219.819 298.084ZM226.335 298.768C224.727 300.544 222.555 301.432 219.819 301.432C217.083 301.432 214.911 300.508 213.303 298.66C211.719 296.788 210.927 294.4 210.927 291.496C210.927 287.344 211.635 284.248 213.051 282.208C214.491 280.168 216.699 278.968 219.675 278.608C221.475 278.344 222.711 278.092 223.383 277.852C224.079 277.612 224.427 277.324 224.427 276.988H228.135C228.135 279.508 225.663 281.044 220.719 281.596C218.775 281.812 217.275 282.352 216.219 283.216C215.187 284.056 214.539 285.064 214.275 286.24C214.971 285.28 215.871 284.536 216.975 284.008C218.103 283.456 219.291 283.18 220.539 283.18C222.939 283.18 224.907 284.068 226.443 285.844C227.979 287.62 228.747 289.756 228.747 292.252C228.747 294.82 227.943 296.992 226.335 298.768ZM240.597 301.432C237.909 301.432 235.749 300.556 234.117 298.804C232.485 297.028 231.669 294.856 231.669 292.288C231.669 289.72 232.485 287.56 234.117 285.808C235.749 284.056 237.909 283.18 240.597 283.18C243.309 283.18 245.481 284.056 247.113 285.808C248.745 287.56 249.561 289.72 249.561 292.288C249.561 294.88 248.745 297.052 247.113 298.804C245.481 300.556 243.309 301.432 240.597 301.432ZM240.597 298.084C242.157 298.084 243.381 297.532 244.269 296.428C245.181 295.3 245.637 293.92 245.637 292.288C245.637 290.68 245.181 289.324 244.269 288.22C243.381 287.092 242.157 286.528 240.597 286.528C239.061 286.528 237.837 287.092 236.925 288.22C236.037 289.324 235.593 290.68 235.593 292.288C235.593 293.92 236.037 295.3 236.925 296.428C237.837 297.532 239.061 298.084 240.597 298.084ZM272.862 301H269.082V288.904L263.898 301H262.386L257.166 288.904V301H253.386V283.612H258.318L263.142 294.844L267.894 283.612H272.862V301ZM281.457 300.676C280.953 301.156 280.365 301.396 279.693 301.396C279.021 301.396 278.433 301.156 277.929 300.676C277.425 300.172 277.173 299.572 277.173 298.876C277.173 298.18 277.425 297.592 277.929 297.112C278.433 296.608 279.021 296.356 279.693 296.356C280.365 296.356 280.953 296.608 281.457 297.112C281.961 297.592 282.213 298.18 282.213 298.876C282.213 299.572 281.961 300.172 281.457 300.676Z" fill="black"/>
</svg>
