<svg width="513" height="105" viewBox="0 0 513 105" fill="none" xmlns="http://www.w3.org/2000/svg">
<rect x="501" y="70" width="501" height="70" rx="35" transform="rotate(-180 501 70)" fill="#ECE1CF"/>
<path d="M36.992 44.384C36.032 44.384 35.104 44.2453 34.208 43.968C33.3333 43.6693 32.6507 43.296 32.16 42.848L33.888 39.2C34.8267 39.968 35.744 40.352 36.64 40.352C37.408 40.352 38.0053 40.192 38.432 39.872C38.88 39.5307 39.3173 38.9547 39.744 38.144L31.872 22.656H37.024L42.304 33.984L47.616 22.656H52.768L43.968 39.904C43.2427 41.3547 42.336 42.464 41.248 43.232C40.1813 44 38.7627 44.384 36.992 44.384ZM61.6918 44.384C59.7504 44.384 58.1611 43.5947 56.9238 42.016V49.888H52.8598V28.544H56.9238V30.496C58.1398 28.9387 59.7291 28.16 61.6918 28.16C63.7184 28.16 65.3611 28.8853 66.6198 30.336C67.8998 31.7653 68.5398 33.7387 68.5398 36.256C68.5398 38.7733 67.8998 40.7573 66.6198 42.208C65.3611 43.6587 63.7184 44.384 61.6918 44.384ZM60.4118 40.768C61.5851 40.768 62.5238 40.352 63.2278 39.52C63.9531 38.688 64.3158 37.6 64.3158 36.256C64.3158 34.9333 63.9531 33.856 63.2278 33.024C62.5238 32.192 61.5851 31.776 60.4118 31.776C59.7504 31.776 59.0891 31.9467 58.4278 32.288C57.7664 32.6293 57.2651 33.0453 56.9238 33.536V39.008C57.2651 39.4987 57.7664 39.9147 58.4278 40.256C59.1104 40.5973 59.7718 40.768 60.4118 40.768ZM84.86 44H80.796V42.4C79.6867 43.7227 78.0547 44.384 75.9 44.384C74.5133 44.384 73.2653 43.936 72.156 43.04C71.068 42.1227 70.524 40.864 70.524 39.264C70.524 37.6 71.0573 36.352 72.124 35.52C73.212 34.688 74.4707 34.272 75.9 34.272C78.0973 34.272 79.7293 34.9013 80.796 36.16V34.08C80.796 33.2907 80.4867 32.6613 79.868 32.192C79.2493 31.7227 78.428 31.488 77.404 31.488C75.7187 31.488 74.2147 32.096 72.892 33.312L71.356 30.592C73.1907 28.9707 75.4413 28.16 78.108 28.16C80.092 28.16 81.7133 28.6187 82.972 29.536C84.2307 30.4533 84.86 31.9467 84.86 34.016V44ZM77.532 41.632C79.0467 41.632 80.1347 41.184 80.796 40.288V38.368C80.1347 37.472 79.0467 37.024 77.532 37.024C76.7 37.024 76.0067 37.2373 75.452 37.664C74.8973 38.0693 74.62 38.6347 74.62 39.36C74.62 40.064 74.8973 40.6187 75.452 41.024C76.0067 41.4293 76.7 41.632 77.532 41.632ZM93.755 42.432C93.755 43.6053 93.4563 44.704 92.859 45.728C92.2617 46.7733 91.4617 47.6587 90.459 48.384L88.699 46.944C89.2323 46.6667 89.7443 46.2293 90.235 45.632C90.7257 45.056 91.035 44.4907 91.163 43.936C90.971 44 90.7683 44.032 90.555 44.032C89.9363 44.032 89.4137 43.8187 88.987 43.392C88.5817 42.9653 88.379 42.4107 88.379 41.728C88.379 41.024 88.6243 40.4267 89.115 39.936C89.6057 39.424 90.1923 39.168 90.875 39.168C91.6643 39.168 92.3363 39.4667 92.891 40.064C93.467 40.64 93.755 41.4293 93.755 42.432ZM115.346 44H105.266V28.544H115.058C116.551 28.544 117.714 28.928 118.546 29.696C119.378 30.464 119.794 31.4027 119.794 32.512C119.794 33.408 119.549 34.1653 119.058 34.784C118.567 35.4027 117.938 35.8187 117.17 36.032C118.023 36.224 118.727 36.672 119.282 37.376C119.837 38.08 120.114 38.8907 120.114 39.808C120.114 41.024 119.687 42.0267 118.834 42.816C118.002 43.6053 116.839 44 115.346 44ZM114.354 40.672C114.845 40.672 115.229 40.544 115.506 40.288C115.805 40.032 115.954 39.68 115.954 39.232C115.954 38.8267 115.805 38.4853 115.506 38.208C115.229 37.9307 114.845 37.792 114.354 37.792H109.33V40.672H114.354ZM114.226 34.464C114.653 34.464 114.994 34.3467 115.25 34.112C115.527 33.856 115.666 33.5467 115.666 33.184C115.666 32.8 115.538 32.4907 115.282 32.256C115.026 32 114.674 31.872 114.226 31.872H109.33V34.464H114.226ZM124.016 28.544H128.08V33.856H133.36C135.067 33.856 136.389 34.336 137.328 35.296C138.267 36.256 138.736 37.4613 138.736 38.912C138.736 40.3413 138.256 41.5467 137.296 42.528C136.336 43.5093 135.024 44 133.36 44H124.016V28.544ZM132.752 37.248H128.08V40.576H132.752C133.307 40.576 133.744 40.4267 134.064 40.128C134.405 39.808 134.576 39.4027 134.576 38.912C134.576 38.4213 134.405 38.0267 134.064 37.728C133.744 37.408 133.307 37.248 132.752 37.248ZM144.848 44H140.752V28.544H144.848V44ZM171.575 44H167.511V32.096H161.111V44H157.047V28.544H171.575V44ZM188.73 42.048C187.236 43.6053 185.252 44.384 182.778 44.384C180.303 44.384 178.319 43.6053 176.826 42.048C175.354 40.4693 174.618 38.5387 174.618 36.256C174.618 33.9733 175.354 32.0533 176.826 30.496C178.319 28.9387 180.303 28.16 182.778 28.16C185.252 28.16 187.236 28.9387 188.73 30.496C190.223 32.0533 190.97 33.9733 190.97 36.256C190.97 38.5387 190.223 40.4693 188.73 42.048ZM179.898 39.488C180.602 40.3413 181.562 40.768 182.778 40.768C183.994 40.768 184.954 40.3413 185.658 39.488C186.383 38.6133 186.746 37.536 186.746 36.256C186.746 34.9973 186.383 33.9413 185.658 33.088C184.954 32.2133 183.994 31.776 182.778 31.776C181.562 31.776 180.602 32.2133 179.898 33.088C179.194 33.9413 178.842 34.9973 178.842 36.256C178.842 37.536 179.194 38.6133 179.898 39.488ZM192.545 47.936V40.608C193.014 40.5227 193.377 40.3733 193.633 40.16C193.91 39.9253 194.166 39.488 194.401 38.848C194.657 38.1867 194.859 37.248 195.009 36.032L196.001 28.544H208.513V40.448H210.209V47.936H206.145V44H196.641V47.936H192.545ZM199.553 32.096L199.073 36.288C198.859 38.144 198.262 39.5307 197.281 40.448H204.449V32.096H199.553ZM227.294 44H223.23V32.096H216.83V44H212.766V28.544H227.294V44ZM235.233 44H231.329V28.544H235.393V37.888L241.761 28.544H245.857V44H241.793V34.304L235.233 44ZM257.091 44.384C254.702 44.384 252.739 43.6267 251.203 42.112C249.667 40.5973 248.899 38.6453 248.899 36.256C248.899 33.888 249.667 31.9467 251.203 30.432C252.739 28.9173 254.702 28.16 257.091 28.16C259.822 28.16 261.859 29.088 263.203 30.944L260.547 33.44C259.8 32.3307 258.712 31.776 257.283 31.776C256.046 31.776 255.032 32.192 254.243 33.024C253.475 33.8347 253.091 34.912 253.091 36.256C253.091 37.6 253.475 38.688 254.243 39.52C255.032 40.352 256.046 40.768 257.283 40.768C258.67 40.768 259.758 40.2133 260.547 39.104L263.203 41.568C261.859 43.4453 259.822 44.384 257.091 44.384ZM279.204 44H275.14V42.4C274.03 43.7227 272.398 44.384 270.244 44.384C268.857 44.384 267.609 43.936 266.5 43.04C265.412 42.1227 264.868 40.864 264.868 39.264C264.868 37.6 265.401 36.352 266.468 35.52C267.556 34.688 268.814 34.272 270.244 34.272C272.441 34.272 274.073 34.9013 275.14 36.16V34.08C275.14 33.2907 274.83 32.6613 274.212 32.192C273.593 31.7227 272.772 31.488 271.748 31.488C270.062 31.488 268.558 32.096 267.236 33.312L265.7 30.592C267.534 28.9707 269.785 28.16 272.452 28.16C274.436 28.16 276.057 28.6187 277.316 29.536C278.574 30.4533 279.204 31.9467 279.204 34.016V44ZM271.876 41.632C273.39 41.632 274.478 41.184 275.14 40.288V38.368C274.478 37.472 273.39 37.024 271.876 37.024C271.044 37.024 270.35 37.2373 269.796 37.664C269.241 38.0693 268.964 38.6347 268.964 39.36C268.964 40.064 269.241 40.6187 269.796 41.024C270.35 41.4293 271.044 41.632 271.876 41.632ZM287.299 44H283.235V28.544H287.299V34.272H293.699V28.544H297.763V44H293.699V37.824H287.299V44ZM301.797 28.544H305.861V33.856H311.141C312.848 33.856 314.171 34.336 315.109 35.296C316.048 36.256 316.517 37.4613 316.517 38.912C316.517 40.3413 316.037 41.5467 315.077 42.528C314.117 43.5093 312.805 44 311.141 44H301.797V28.544ZM310.533 37.248H305.861V40.576H310.533C311.088 40.576 311.525 40.4267 311.845 40.128C312.187 39.808 312.357 39.4027 312.357 38.912C312.357 38.4213 312.187 38.0267 311.845 37.728C311.525 37.408 311.088 37.248 310.533 37.248ZM322.629 44H318.533V28.544H322.629V44ZM330.513 37.056H326.929L326.257 22.656H331.153L330.513 37.056ZM330.545 43.552C330.033 44.064 329.425 44.32 328.721 44.32C328.017 44.32 327.409 44.064 326.897 43.552C326.406 43.04 326.161 42.4427 326.161 41.76C326.161 41.056 326.406 40.448 326.897 39.936C327.409 39.424 328.017 39.168 328.721 39.168C329.425 39.168 330.033 39.424 330.545 39.936C331.057 40.448 331.313 41.056 331.313 41.76C331.313 42.4427 331.057 43.04 330.545 43.552ZM361.384 44H355.784L349.32 35.456L347.656 37.44V44H343.112V22.656H347.656V32.192L355.208 22.656H360.808L352.328 32.672L361.384 44ZM372.192 44.384C370.25 44.384 368.661 43.5947 367.424 42.016V49.888H363.36V28.544H367.424V30.496C368.64 28.9387 370.229 28.16 372.192 28.16C374.218 28.16 375.861 28.8853 377.12 30.336C378.4 31.7653 379.04 33.7387 379.04 36.256C379.04 38.7733 378.4 40.7573 377.12 42.208C375.861 43.6587 374.218 44.384 372.192 44.384ZM370.912 40.768C372.085 40.768 373.024 40.352 373.728 39.52C374.453 38.688 374.816 37.6 374.816 36.256C374.816 34.9333 374.453 33.856 373.728 33.024C373.024 32.192 372.085 31.776 370.912 31.776C370.25 31.776 369.589 31.9467 368.928 32.288C368.266 32.6293 367.765 33.0453 367.424 33.536V39.008C367.765 39.4987 368.266 39.9147 368.928 40.256C369.61 40.5973 370.272 40.768 370.912 40.768ZM386.112 44H381.504L385.088 38.4C384.128 38.1653 383.317 37.632 382.656 36.8C381.995 35.968 381.664 34.9013 381.664 33.6C381.664 32.1707 382.144 30.976 383.104 30.016C384.064 29.0347 385.365 28.544 387.008 28.544H396.384V44H392.32V38.688H389.152L386.112 44ZM387.648 35.296H392.32V31.968H387.648C387.093 31.968 386.645 32.1173 386.304 32.416C385.963 32.7147 385.792 33.1093 385.792 33.6C385.792 34.112 385.952 34.528 386.272 34.848C386.613 35.1467 387.072 35.296 387.648 35.296ZM423.651 44H418.563L414.467 38.048L412.611 40.032V44H408.547V28.544H412.611V35.424L418.467 28.544H423.459L417.347 35.552L423.651 44ZM434.504 44.384C432.563 44.384 430.974 43.5947 429.736 42.016V49.888H425.672V28.544H429.736V30.496C430.952 28.9387 432.542 28.16 434.504 28.16C436.531 28.16 438.174 28.8853 439.432 30.336C440.712 31.7653 441.352 33.7387 441.352 36.256C441.352 38.7733 440.712 40.7573 439.432 42.208C438.174 43.6587 436.531 44.384 434.504 44.384ZM433.224 40.768C434.398 40.768 435.336 40.352 436.04 39.52C436.766 38.688 437.128 37.6 437.128 36.256C437.128 34.9333 436.766 33.856 436.04 33.024C435.336 32.192 434.398 31.776 433.224 31.776C432.563 31.776 431.902 31.9467 431.24 32.288C430.579 32.6293 430.078 33.0453 429.736 33.536V39.008C430.078 39.4987 430.579 39.9147 431.24 40.256C431.923 40.5973 432.584 40.768 433.224 40.768ZM448.425 44H443.817L447.401 38.4C446.441 38.1653 445.63 37.632 444.969 36.8C444.307 35.968 443.977 34.9013 443.977 33.6C443.977 32.1707 444.457 30.976 445.417 30.016C446.377 29.0347 447.678 28.544 449.321 28.544H458.697V44H454.633V38.688H451.465L448.425 44ZM449.961 35.296H454.633V31.968H449.961C449.406 31.968 448.958 32.1173 448.617 32.416C448.275 32.7147 448.105 33.1093 448.105 33.6C448.105 34.112 448.265 34.528 448.585 34.848C448.926 35.1467 449.385 35.296 449.961 35.296ZM466.544 37.056H462.96L462.288 22.656H467.184L466.544 37.056ZM466.576 43.552C466.064 44.064 465.456 44.32 464.752 44.32C464.048 44.32 463.44 44.064 462.928 43.552C462.438 43.04 462.192 42.4427 462.192 41.76C462.192 41.056 462.438 40.448 462.928 39.936C463.44 39.424 464.048 39.168 464.752 39.168C465.456 39.168 466.064 39.424 466.576 39.936C467.088 40.448 467.344 41.056 467.344 41.76C467.344 42.4427 467.088 43.04 466.576 43.552Z" fill="black"/>
<path d="M497.526 93.8873C498.821 94.4135 500.055 92.9614 499.276 91.8L498.07 90.0002C491.132 79.6507 486.879 67.7376 485.694 55.3345C485.598 54.3293 484.425 53.831 483.635 54.4594L465.491 68.8842C464.692 69.5192 464.615 70.7045 465.325 71.4376L467.442 73.6247C475.904 82.3656 486.254 89.3087 497.526 93.8873Z" fill="#ECE1CF"/>
</svg>
