<svg width="386" height="104" viewBox="0 0 386 104" fill="none" xmlns="http://www.w3.org/2000/svg">
<rect x="13.2578" y="34" width="372" height="70" rx="35" fill="#ECE1CF"/>
<path d="M15.0638 10.2929C13.7684 9.76669 12.5346 11.2187 13.3132 12.3802L14.5197 14.18C21.4572 24.5295 25.7103 36.4426 26.8957 48.8456C26.9918 49.8509 28.1642 50.3492 28.9546 49.7208L47.0986 35.296C47.8974 34.661 47.9745 33.4756 47.2647 32.7425L45.1474 30.5555C36.6849 21.8145 26.3357 14.8715 15.0638 10.2929Z" fill="#ECE1CF"/>
<path d="M66.4008 57.656V63.64C66.4008 66.2213 67.7022 67.512 70.3048 67.512C71.8408 67.512 73.1955 67.2773 74.3688 66.808V57.656H78.9128V79H74.3688V70.808C72.8115 71.2773 71.2755 71.512 69.7608 71.512C67.1155 71.512 65.1315 70.8187 63.8088 69.432C62.4862 68.024 61.8248 66.0933 61.8248 63.64V57.656H66.4008ZM86.9581 79H83.0541V63.544H87.1181V72.888L93.4861 63.544H97.5821V79H93.5181V69.304L86.9581 79ZM108.561 79H104.465V67.096H100.145V63.544H112.881V67.096H108.561V79ZM128.773 79H124.709V77.4C123.6 78.7227 121.968 79.384 119.813 79.384C118.426 79.384 117.178 78.936 116.069 78.04C114.981 77.1227 114.437 75.864 114.437 74.264C114.437 72.6 114.97 71.352 116.037 70.52C117.125 69.688 118.384 69.272 119.813 69.272C122.01 69.272 123.642 69.9013 124.709 71.16V69.08C124.709 68.2907 124.4 67.6613 123.781 67.192C123.162 66.7227 122.341 66.488 121.317 66.488C119.632 66.488 118.128 67.096 116.805 68.312L115.269 65.592C117.104 63.9707 119.354 63.16 122.021 63.16C124.005 63.16 125.626 63.6187 126.885 64.536C128.144 65.4533 128.773 66.9467 128.773 69.016V79ZM121.445 76.632C122.96 76.632 124.048 76.184 124.709 75.288V73.368C124.048 72.472 122.96 72.024 121.445 72.024C120.613 72.024 119.92 72.2373 119.365 72.664C118.81 73.0693 118.533 73.6347 118.533 74.36C118.533 75.064 118.81 75.6187 119.365 76.024C119.92 76.4293 120.613 76.632 121.445 76.632ZM136.708 79H132.804V63.544H136.868V72.888L143.236 63.544H147.332V79H143.268V69.304L136.708 79ZM145.668 59.192C144.281 61.0693 142.415 62.008 140.068 62.008C137.743 62.008 135.865 61.0693 134.436 59.192L136.228 57.688C137.167 59.0107 138.447 59.672 140.068 59.672C141.647 59.672 142.916 59.0107 143.876 57.688L145.668 59.192ZM166.754 79.384C164.365 79.384 162.402 78.6267 160.866 77.112C159.33 75.5973 158.562 73.6453 158.562 71.256C158.562 68.888 159.33 66.9467 160.866 65.432C162.402 63.9173 164.365 63.16 166.754 63.16C169.485 63.16 171.522 64.088 172.866 65.944L170.21 68.44C169.463 67.3307 168.375 66.776 166.946 66.776C165.709 66.776 164.695 67.192 163.906 68.024C163.138 68.8347 162.754 69.912 162.754 71.256C162.754 72.6 163.138 73.688 163.906 74.52C164.695 75.352 165.709 75.768 166.946 75.768C168.333 75.768 169.421 75.2133 170.21 74.104L172.866 76.568C171.522 78.4453 169.485 79.384 166.754 79.384ZM182.27 82.936V75.608C182.74 75.5227 183.102 75.3733 183.358 75.16C183.636 74.9253 183.892 74.488 184.126 73.848C184.382 73.1867 184.585 72.248 184.734 71.032L185.726 63.544H198.238V75.448H199.934V82.936H195.87V79H186.366V82.936H182.27ZM189.278 67.096L188.798 71.288C188.585 73.144 187.988 74.5307 187.006 75.448H194.174V67.096H189.278ZM211.324 79.384C209.382 79.384 207.793 78.5947 206.556 77.016V84.888H202.492V63.544H206.556V65.496C207.772 63.9387 209.361 63.16 211.324 63.16C213.35 63.16 214.993 63.8853 216.252 65.336C217.532 66.7653 218.172 68.7387 218.172 71.256C218.172 73.7733 217.532 75.7573 216.252 77.208C214.993 78.6587 213.35 79.384 211.324 79.384ZM210.044 75.768C211.217 75.768 212.156 75.352 212.86 74.52C213.585 73.688 213.948 72.6 213.948 71.256C213.948 69.9333 213.585 68.856 212.86 68.024C212.156 67.192 211.217 66.776 210.044 66.776C209.382 66.776 208.721 66.9467 208.06 67.288C207.398 67.6293 206.897 68.0453 206.556 68.536V74.008C206.897 74.4987 207.398 74.9147 208.06 75.256C208.742 75.5973 209.404 75.768 210.044 75.768ZM220.604 85.048L221.212 81.4C221.596 81.5707 222.023 81.656 222.492 81.656C223.58 81.656 224.295 81.2827 224.636 80.536L225.212 79.224L218.94 63.544H223.292L227.324 74.296L231.356 63.544H235.74L228.476 81.528C227.943 82.8933 227.196 83.8427 226.236 84.376C225.276 84.9307 224.071 85.2293 222.62 85.272C221.873 85.272 221.201 85.1973 220.604 85.048ZM243.186 79.384C240.071 79.384 237.671 78.5627 235.986 76.92L237.842 74.392C239.229 75.5653 241.01 76.152 243.186 76.152C244.21 76.152 244.999 76.0027 245.554 75.704C246.109 75.4053 246.386 75 246.386 74.488C246.386 73.336 245.234 72.76 242.93 72.76H239.762V69.624H242.93C245.042 69.624 246.098 69.0693 246.098 67.96C246.098 67.4907 245.81 67.1173 245.234 66.84C244.658 66.5413 243.911 66.392 242.994 66.392C240.989 66.392 239.389 66.9787 238.194 68.152L236.21 65.752C237.917 64.0453 240.103 63.192 242.77 63.192C245.159 63.1707 247.015 63.544 248.338 64.312C249.661 65.0587 250.322 66.0933 250.322 67.416C250.322 68.3547 249.927 69.1547 249.138 69.816C248.349 70.4773 247.399 70.8933 246.29 71.064C247.378 71.128 248.37 71.4907 249.266 72.152C250.183 72.8133 250.642 73.6773 250.642 74.744C250.642 76.1307 249.97 77.2507 248.626 78.104C247.282 78.9573 245.469 79.384 243.186 79.384ZM253.679 63.544H257.743V68.856H263.023C264.73 68.856 266.052 69.336 266.991 70.296C267.93 71.256 268.399 72.4613 268.399 73.912C268.399 75.3413 267.919 76.5467 266.959 77.528C265.999 78.5093 264.687 79 263.023 79H253.679V63.544ZM262.415 72.248H257.743V75.576H262.415C262.97 75.576 263.407 75.4267 263.727 75.128C264.068 74.808 264.239 74.4027 264.239 73.912C264.239 73.4213 264.068 73.0267 263.727 72.728C263.407 72.408 262.97 72.248 262.415 72.248ZM275.463 79H270.855L274.439 73.4C273.479 73.1653 272.668 72.632 272.007 71.8C271.345 70.968 271.015 69.9013 271.015 68.6C271.015 67.1707 271.495 65.976 272.455 65.016C273.415 64.0347 274.716 63.544 276.359 63.544H285.735V79H281.671V73.688H278.503L275.463 79ZM276.999 70.296H281.671V66.968H276.999C276.444 66.968 275.996 67.1173 275.655 67.416C275.313 67.7147 275.143 68.1093 275.143 68.6C275.143 69.112 275.303 69.528 275.623 69.848C275.964 70.1467 276.423 70.296 276.999 70.296ZM307.982 79H303.918V68.952L299.79 79H297.934L293.774 68.952V79H289.71V63.544H295.054L298.862 72.76L302.606 63.544H307.982V79ZM315.927 79H312.023V63.544H316.087V72.888L322.455 63.544H326.551V79H322.487V69.304L315.927 79ZM334.457 72.056H330.873L330.201 57.656H335.097L334.457 72.056ZM334.489 78.552C333.977 79.064 333.369 79.32 332.665 79.32C331.961 79.32 331.353 79.064 330.841 78.552C330.351 78.04 330.105 77.4427 330.105 76.76C330.105 76.056 330.351 75.448 330.841 74.936C331.353 74.424 331.961 74.168 332.665 74.168C333.369 74.168 333.977 74.424 334.489 74.936C335.001 75.448 335.257 76.056 335.257 76.76C335.257 77.4427 335.001 78.04 334.489 78.552Z" fill="black"/>
</svg>
