<svg width="1440" height="1025" viewBox="0 0 1440 1025" fill="none" xmlns="http://www.w3.org/2000/svg">
<g clip-path="url(#clip0_254_798)">
<rect width="1440" height="1025" fill="#101010"/>
<path d="M264.186 590.268C190.708 466.554 86.2258 416.416 53.8595 401.351C51.6955 436.063 46.2673 553.174 119.096 675.51C137.445 707.29 203.284 807.652 329.422 864.427C332.236 831.093 337.664 713.982 264.186 590.268Z" fill="#517D56"/>
<path d="M310.302 393.751C317.269 341.514 298.623 303.386 292.74 291.708C284.238 301.193 256.092 333.619 249.252 385.312C247.311 398.612 243.45 442.403 266.814 487.355C275.189 478.414 303.336 445.988 310.302 393.751Z" fill="#517D56"/>
<path d="M783.033 181.356C802.646 198.415 847.373 243.152 867.851 317.362C883.657 372.645 879.022 419.179 873.126 445.446C886.444 443.415 931.433 436.148 976.358 462.442C1045.93 504.619 1050.48 590.669 1049.81 597.317C1068.5 590.786 1135.75 573.988 1209.56 606.516C1302.19 647.633 1332.55 737.932 1337.72 751.874C1210.07 766.014 1142.59 818.035 1111.51 850.186C1078.82 882.175 1058.78 918.782 1016.91 993.495C935.285 1138.1 947.578 1162.82 902.525 1203.65C837.463 1264.3 730.589 1283.87 643.458 1253.37C515.113 1208.7 468.458 1068.1 451.029 1012.65C426.973 941.444 440.322 922.633 422.562 870.512C396.717 800.802 331.282 717.078 147.445 653.449C165.996 631.8 219.364 573.337 308.546 550.332C374.174 533.372 427.247 543.693 455.971 551.59C455.01 544.78 454.144 487.629 496.746 454.948C537.725 422.106 604.448 427.074 649.34 470.148C651.194 435.087 658.776 375.42 689.914 309.708C721.051 243.996 759.446 204.182 783.033 181.356Z" fill="#D84E00"/>
<path d="M1291.38 993.218C1479.64 765.182 1504.06 528.274 1510.72 455.209C1442.08 475.13 1211.79 545.961 1025.75 771.783C977.021 829.345 828.624 1026.39 806.409 1309.79C872.837 1292.08 1103.12 1221.25 1291.38 993.218Z" fill="#2D517F"/>
<path d="M565.743 982.625C452.023 861.68 321.799 831.36 281.575 822.494C287.826 862.131 311.023 995.389 423.666 1114.94C452.287 1146.15 551.558 1242.7 707.834 1275.08C702.66 1236.83 679.463 1103.57 565.743 982.625Z" fill="#2D517F"/>
<path d="M-127.348 658.354C-133.422 679.338 -144.613 731.31 -125.251 793.04C-111.215 839.277 -86.7346 870.02 -70.6008 885.88C-80.9293 890.516 -116.007 905.889 -135.743 944.929C-165.645 1006.42 -129.635 1069.24 -126.138 1073.64C-142.307 1077.54 -197.447 1096.33 -234.739 1152.94C-281.404 1224.19 -261.681 1301.78 -258.976 1313.98C-162.406 1265.79 -91.0505 1271.76 -54.4578 1280.3C-16.7927 1287.99 14.0414 1304.7 77.6559 1338.37C201.189 1403.27 203.776 1426.33 254.195 1434.62C327.776 1447.79 412.153 1412.9 459.774 1351.66C530.034 1261.62 498.898 1141.09 485.936 1094C470.467 1032.75 452.468 1025.55 441.254 980.66C427.731 919.661 435.775 830.724 536.578 702.013C513.613 695.182 449.287 678.226 375.833 702.627C321.766 720.562 288.997 752.039 272.315 770.705C269.89 765.459 244.454 724.712 199.48 721.053C155.578 716.54 110.731 750.457 98.6656 801.33C81.3777 777.419 48.8305 738.747 -3.10317 706.54C-55.0369 674.334 -100.291 663.721 -127.348 658.354Z" fill="#E594A9"/>
<path d="M384.814 1094.93C423.538 941.616 517.934 856.122 547.322 830.129C560.456 866.023 602.797 987.705 564.326 1139.36C554.932 1178.58 516.954 1304.9 401.819 1404.16C388.43 1369.93 346.089 1248.24 384.814 1094.93Z" fill="#517D56"/>
<path d="M1588.97 646.157C1596.96 666.694 1612.86 717.904 1598.94 781.658C1588.98 829.368 1567.14 862.448 1552.35 879.827C1563.14 883.559 1599.76 895.859 1623.09 933.312C1658.64 992.406 1628.1 1058.75 1624.98 1063.48C1641.57 1065.95 1698.65 1079.89 1741.19 1133.42C1794.46 1200.81 1781.6 1280.53 1779.97 1293.03C1678.63 1253.27 1607.48 1265.67 1571.48 1277.53C1534.33 1288.63 1504.85 1308.18 1443.96 1347.71C1325.67 1423.98 1325.14 1447.38 1275.23 1460.23C1202.48 1480.06 1114.59 1452.57 1061.26 1395.3C982.599 1311.15 1003.08 1187.26 1011.88 1138.79C1021.93 1075.88 1039.37 1067.03 1046.61 1020.92C1054.73 958.427 1038.68 869.797 925.871 749.522C948.331 740.601 1011.44 717.801 1087.42 735.733C1143.34 748.906 1179.09 777.591 1197.52 794.849C1199.49 789.362 1221.39 746.145 1266.24 738.439C1309.95 729.97 1358.04 760.025 1374.72 810.054C1389.95 784.483 1419.18 742.713 1468.47 705.702C1517.76 668.692 1562.27 653.974 1588.97 646.157Z" fill="#EFB852"/>
<path d="M1042.12 1091.87C970.258 970.881 868.078 921.848 836.425 907.115C834.308 941.062 829 1055.59 900.224 1175.23C918.169 1206.31 982.557 1304.46 1105.92 1359.99C1108.67 1327.39 1113.98 1212.86 1042.12 1091.87Z" fill="#517D56"/>
</g>
<defs>
<clipPath id="clip0_254_798">
<rect width="1440" height="1025" fill="white"/>
</clipPath>
</defs>
</svg>
