<svg width="17" height="24" viewBox="0 0 17 24" fill="none" xmlns="http://www.w3.org/2000/svg">
<path d="M15.6356 0.000976562H1.09086C0.488414 0.000976562 0 0.48939 0 1.09184V22.909C0 23.3283 0.240352 23.7106 0.618299 23.8922C0.996245 24.0739 1.44481 24.0228 1.77228 23.7608L8.36325 18.4881L14.9542 23.7608C15.1514 23.9186 15.3925 23.9999 15.6358 23.9999C15.7964 23.9999 15.958 23.9644 16.1082 23.8922C16.4861 23.7106 16.7265 23.3284 16.7265 22.909V1.09184C16.7265 0.48939 16.2381 0.000976562 15.6356 0.000976562ZM14.5448 20.6393L9.04467 16.2393C8.84548 16.0799 8.60433 16.0002 8.36325 16.0002C8.12217 16.0002 7.88102 16.0799 7.68183 16.2393L2.18172 20.6393V2.18269H14.5448V20.6393Z" fill="#ECE1CF"/>
<path d="M1.5 1.5V20V21.5L8.5 16.5L15 21.5V20V1.5H1.5Z" fill="#ECE1CF"/>
</svg>
