<svg width="341" height="439" viewBox="0 0 341 439" fill="none" xmlns="http://www.w3.org/2000/svg">
<path d="M282.373 332.948L263.93 314.297L263.714 360.198L282.154 379.313L282.373 332.948Z" fill="#EFB852"/>
<path d="M287.006 332.969L305.624 314.528L305.407 360.43L286.787 379.334L287.006 332.969Z" fill="#517D56"/>
<path d="M232.434 382.923L213.801 364.462L259.658 364.245L278.755 382.704L232.434 382.923Z" fill="#EFB852"/>
<path d="M232.45 387.554L214.027 406.189L259.884 405.973L278.77 387.335L232.45 387.554Z" fill="#517D56"/>
<path d="M253.93 330.913L230.315 330.779L230.449 354.393L254.064 354.527L253.93 330.913Z" fill="#517D56"/>
<rect width="11.4041" height="11.4041" transform="matrix(-0.999984 -0.00567482 0.00567482 0.999984 247.836 336.987)" fill="#101010"/>
<path d="M305.997 406L305.997 364L266.997 406L305.997 406Z" fill="#003E33"/>
<path d="M284.904 105.518L266.462 124.17L266.245 78.2682L284.685 59.1533L284.904 105.518Z" fill="#EFB852"/>
<path d="M289.537 105.497L308.155 123.938L307.938 78.0364L289.318 59.1318L289.537 105.497Z" fill="#517D56"/>
<path d="M234.965 55.5426L216.332 74.0032L262.189 74.2199L281.286 55.7615L234.965 55.5426Z" fill="#EFB852"/>
<path d="M234.981 50.9118L216.558 32.2761L262.415 32.4928L281.301 51.1306L234.981 50.9118Z" fill="#517D56"/>
<path d="M256.461 107.554L232.847 107.688L232.981 84.0735L256.595 83.9395L256.461 107.554Z" fill="#517D56"/>
<rect width="11.4041" height="11.4041" transform="matrix(-0.999984 0.00567482 0.00567482 -0.999984 250.367 101.479)" fill="#101010"/>
<path d="M308.529 32.4668L308.529 74.4668L269.529 32.4668L308.529 32.4668Z" fill="#003E33"/>
<path d="M58.0901 332.948L76.5327 314.297L76.7495 360.198L58.3091 379.313L58.0901 332.948Z" fill="#EFB852"/>
<path d="M53.4573 332.969L34.8394 314.528L35.0563 360.43L53.6763 379.334L53.4573 332.969Z" fill="#517D56"/>
<path d="M108.029 382.923L126.662 364.462L80.805 364.245L61.7084 382.704L108.029 382.923Z" fill="#EFB852"/>
<path d="M108.013 387.554L126.436 406.189L80.5788 405.973L61.6927 387.335L108.013 387.554Z" fill="#517D56"/>
<path d="M86.5334 330.913L110.148 330.779L110.014 354.393L86.3994 354.527L86.5334 330.913Z" fill="#517D56"/>
<rect width="11.4041" height="11.4041" transform="matrix(0.999984 -0.00567482 -0.00567482 0.999984 92.6272 336.987)" fill="#101010"/>
<path d="M34.4661 406L34.4661 364L73.4661 406L34.4661 406Z" fill="#003E33"/>
<path d="M55.5588 105.518L74.0014 124.17L74.2183 78.2682L55.7779 59.1533L55.5588 105.518Z" fill="#EFB852"/>
<path d="M50.926 105.497L32.3081 123.938L32.525 78.0364L51.1451 59.1318L50.926 105.497Z" fill="#517D56"/>
<path d="M105.498 55.5426L124.131 74.0032L78.274 74.2199L59.1774 55.7615L105.498 55.5426Z" fill="#EFB852"/>
<path d="M105.482 50.9118L123.905 32.2761L78.0478 32.4928L59.1617 51.1306L105.482 50.9118Z" fill="#517D56"/>
<path d="M84.0022 107.554L107.616 107.688L107.482 84.0735L83.8682 83.9395L84.0022 107.554Z" fill="#517D56"/>
<rect width="11.4041" height="11.4041" transform="matrix(0.999984 0.00567482 -0.00567482 -0.999984 90.0959 101.479)" fill="#101010"/>
<path d="M31.9346 32.4668L31.9346 74.4668L70.9346 32.4668L31.9346 32.4668Z" fill="#003E33"/>
</svg>
