<svg width="22" height="22" viewBox="0 0 22 22" fill="none" xmlns="http://www.w3.org/2000/svg">
<path d="M20.7523 19.7107L14.7222 13.6121C15.911 12.1712 16.626 10.3298 16.626 8.31872C16.626 3.73058 12.9002 0 8.31729 0C3.73438 0 0 3.73494 0 8.32307C0 12.9112 3.72577 16.6418 8.30868 16.6418C10.2556 16.6418 12.0474 15.9671 13.4688 14.8396L19.5204 20.9557C19.8736 21.3126 20.3991 21.3126 20.7523 20.9557C21.1055 20.5987 21.1055 20.0677 20.7523 19.7107ZM1.76597 8.32307C1.76597 4.71873 4.70351 1.78911 8.30868 1.78911C11.9138 1.78911 14.8514 4.71873 14.8514 8.32307C14.8514 11.9274 11.9138 14.857 8.30868 14.857C4.70351 14.857 1.76597 11.9231 1.76597 8.32307Z" fill="#ECE1CF"/>
</svg>
