<svg width="20" height="24" viewBox="0 0 20 24" fill="none" xmlns="http://www.w3.org/2000/svg">
<path d="M16.0377 16.4587C15.2939 16.4587 14.601 16.675 14.0168 17.0468L8.12032 12.9302C8.21498 12.5997 8.26674 12.2512 8.26674 11.8904C8.26674 11.5295 8.21498 11.181 8.12032 10.8506L13.8576 6.84499C14.4732 7.28225 15.2251 7.54023 16.0377 7.54023C18.1198 7.54023 19.8078 5.85228 19.8078 3.77014C19.8078 1.688 18.1199 0 16.0377 0C13.9556 0 12.2676 1.68795 12.2676 3.77009C12.2676 4.04507 12.2979 4.31289 12.3538 4.57113L6.47083 8.67841C5.89658 8.32473 5.22061 8.12028 4.49665 8.12028C2.41451 8.12028 0.726562 9.80823 0.726562 11.8904C0.726562 13.9725 2.41446 15.6605 4.49665 15.6605C5.22056 15.6605 5.89658 15.456 6.47083 15.1023L12.3992 19.2413C12.314 19.5562 12.2676 19.8871 12.2676 20.2289C12.2676 22.311 13.9556 23.9989 16.0377 23.9989C18.1199 23.9989 19.8078 22.311 19.8078 20.2289C19.8078 18.1467 18.1199 16.4587 16.0377 16.4587Z" fill="#ECE1CF"/>
</svg>
