<svg width="83" height="82" viewBox="0 0 83 82" fill="none" xmlns="http://www.w3.org/2000/svg">
<g filter="url(#filter0_d_689_10139)">
<circle r="25.5" transform="matrix(-1 0 0 1 37.2188 37)" fill="#101010" stroke="#ECE1CF"/>
<path d="M19.3672 37.2588C21.3191 36.6219 24.175 35.4096 26.5789 32.8413C28.613 30.684 28.5308 29.4923 30.9142 26.7802C33.0099 24.3968 35.1467 21.9724 38.4547 21.582C41.0229 21.2738 44.5774 22.1573 46.2211 24.9927C47.4539 27.1295 47.7005 30.5402 45.8308 32.2044C44.8856 33.0263 43.3036 33.5399 41.8653 33.0468C41.4955 32.9235 40.2627 32.4304 39.8313 31.3004C39.5231 30.458 39.7491 29.6156 40.16 28.2595C40.3449 27.6226 40.5504 27.0884 40.7147 26.7597C40.2627 26.5542 39.2765 26.2255 38.0643 26.4515C35.7836 26.8829 34.7769 28.9581 34.6536 29.2458C33.8317 31.0538 34.366 32.7386 34.5098 33.129C33.9345 33.129 33.1948 33.2112 32.4141 33.4988C30.1334 34.3823 29.1677 36.4164 28.9212 36.9917C29.065 37.4232 29.8047 39.5189 31.962 40.4845C32.8661 40.8955 33.7496 40.9571 34.2838 40.9571C34.1399 41.4297 33.7907 42.8885 34.5303 44.45C34.6125 44.6554 35.722 46.9566 38.1054 47.2443C39.2354 47.3881 40.16 46.9977 40.5915 46.7717C40.3244 46.4635 39.5436 45.3951 39.5847 43.9158C39.6052 42.4159 40.4887 40.7517 41.8448 40.2585C43.8994 39.5189 46.5499 41.6351 47.269 43.8336C48.2963 46.9155 45.6869 50.7166 42.6872 51.8261C38.0026 53.552 32.7839 48.5798 32.1264 47.9634C29.0856 45.0458 29.3732 42.8679 26.1885 40.2996C23.8052 38.3683 21.1958 37.6081 19.3672 37.2588Z" fill="#ECE1CF"/>
</g>
<defs>
<filter id="filter0_d_689_10139" x="0.21875" y="0" width="82" height="82" filterUnits="userSpaceOnUse" color-interpolation-filters="sRGB">
<feFlood flood-opacity="0" result="BackgroundImageFix"/>
<feColorMatrix in="SourceAlpha" type="matrix" values="0 0 0 0 0 0 0 0 0 0 0 0 0 0 0 0 0 0 127 0" result="hardAlpha"/>
<feOffset dx="4" dy="4"/>
<feGaussianBlur stdDeviation="7.5"/>
<feColorMatrix type="matrix" values="0 0 0 0 0 0 0 0 0 0 0 0 0 0 0 0 0 0 0.3 0"/>
<feBlend mode="normal" in2="BackgroundImageFix" result="effect1_dropShadow_689_10139"/>
<feBlend mode="normal" in="SourceGraphic" in2="effect1_dropShadow_689_10139" result="shape"/>
</filter>
</defs>
</svg>
