<svg width="83" height="82" viewBox="0 0 83 82" fill="none" xmlns="http://www.w3.org/2000/svg">
<g filter="url(#filter0_d_689_10139)">
<circle cx="37.2188" cy="37" r="25.5" fill="#101010" stroke="#ECE1CF"/>
<path d="M55.0703 37.2588C53.1184 36.6219 50.2625 35.4096 47.8586 32.8413C45.8245 30.684 45.9067 29.4923 43.5233 26.7802C41.4276 24.3968 39.2908 21.9724 35.9828 21.582C33.4146 21.2738 29.8601 22.1573 28.2164 24.9927C26.9836 27.1295 26.737 30.5402 28.6067 32.2044C29.5519 33.0263 31.1339 33.5399 32.5722 33.0468C32.942 32.9235 34.1748 32.4304 34.6062 31.3004C34.9144 30.458 34.6884 29.6156 34.2775 28.2595C34.0926 27.6226 33.8871 27.0884 33.7228 26.7597C34.1748 26.5542 35.161 26.2255 36.3732 26.4515C38.6539 26.8829 39.6606 28.9581 39.7839 29.2458C40.6058 31.0538 40.0715 32.7386 39.9277 33.129C40.503 33.129 41.2427 33.2112 42.0234 33.4988C44.3041 34.3823 45.2698 36.4164 45.5163 36.9917C45.3725 37.4232 44.6328 39.5189 42.4755 40.4845C41.5714 40.8955 40.6879 40.9571 40.1537 40.9571C40.2976 41.4297 40.6468 42.8885 39.9072 44.45C39.825 44.6554 38.7155 46.9566 36.3321 47.2443C35.2021 47.3881 34.2775 46.9977 33.846 46.7717C34.1131 46.4635 34.8939 45.3951 34.8528 43.9158C34.8323 42.4159 33.9488 40.7517 32.5927 40.2585C30.5381 39.5189 27.8876 41.6351 27.1685 43.8336C26.1412 46.9155 28.7506 50.7166 31.7503 51.8261C36.4349 53.552 41.6536 48.5798 42.3111 47.9634C45.3519 45.0458 45.0643 42.8679 48.249 40.2996C50.6323 38.3683 53.2417 37.6081 55.0703 37.2588Z" fill="#ECE1CF"/>
</g>
<defs>
<filter id="filter0_d_689_10139" x="0.21875" y="0" width="82" height="82" filterUnits="userSpaceOnUse" color-interpolation-filters="sRGB">
<feFlood flood-opacity="0" result="BackgroundImageFix"/>
<feColorMatrix in="SourceAlpha" type="matrix" values="0 0 0 0 0 0 0 0 0 0 0 0 0 0 0 0 0 0 127 0" result="hardAlpha"/>
<feOffset dx="4" dy="4"/>
<feGaussianBlur stdDeviation="7.5"/>
<feColorMatrix type="matrix" values="0 0 0 0 0 0 0 0 0 0 0 0 0 0 0 0 0 0 0.3 0"/>
<feBlend mode="normal" in2="BackgroundImageFix" result="effect1_dropShadow_689_10139"/>
<feBlend mode="normal" in="SourceGraphic" in2="effect1_dropShadow_689_10139" result="shape"/>
</filter>
</defs>
</svg>
