<svg width="1290" height="400" viewBox="0 0 1290 400" fill="none" xmlns="http://www.w3.org/2000/svg">
<mask id="mask0_665_10134" style="mask-type:alpha" maskUnits="userSpaceOnUse" x="0" y="0" width="1290" height="400">
<rect width="1290" height="400" rx="2" fill="#C4C4C4"/>
</mask>
<g mask="url(#mask0_665_10134)">
<rect width="1290" height="400" rx="2" fill="#2D517F"/>
<circle cx="888" cy="200" r="531.26" fill="#75A9C9" stroke="#2D517F" stroke-width="10.52"/>
<circle cx="890.098" cy="200.001" r="428.69" fill="#ECE1CF" stroke="#2D517F" stroke-width="10.52"/>
<path d="M429.815 55.687C428.884 54.2957 427.024 50.5856 427.179 45.6386C427.334 41.9285 428.419 39.1458 429.35 37.5999C428.419 37.4453 425.473 36.9816 423.302 34.5081C419.735 30.4888 421.131 25.0781 421.286 24.7689C420.045 24.7689 415.393 24.6143 411.516 21.0587C406.554 16.7302 406.398 10.5465 406.398 9.46439C414.617 11.0103 419.89 9.15522 422.371 7.76391C425.008 6.37259 427.024 4.51749 431.056 0.65272C438.964 -6.76764 438.654 -8.46813 442.221 -10.1686C447.494 -12.6421 454.472 -11.8691 459.279 -8.15895C466.413 -2.90286 466.568 6.83637 466.568 10.5465C466.723 15.4934 465.483 16.421 465.638 19.9766C465.948 24.7689 468.274 31.2617 478.509 38.8366C476.958 39.7642 472.461 42.3922 466.413 42.0831C461.916 41.9285 458.814 40.228 457.263 39.1458C457.263 39.6096 456.178 43.1652 452.766 44.4019C449.51 45.6386 445.478 44.0927 443.617 40.5371C442.841 42.7014 441.136 46.257 438.034 49.658C434.932 52.9044 431.676 54.6049 429.815 55.687Z" fill="#D75014"/>
<path d="M435.709 362.549C434.158 361.931 430.437 360.23 427.49 356.056C425.319 352.964 424.544 350.027 424.389 348.327C423.613 348.79 420.977 350.182 417.72 349.563C412.448 348.481 410.277 343.38 410.277 342.916C409.346 343.689 405.469 346.317 400.197 345.853C393.528 345.389 389.652 340.597 389.031 339.824C396.63 336.114 399.576 331.476 400.817 328.848C402.058 326.22 402.523 323.438 403.453 318.027C405.314 307.36 403.919 306.123 405.779 302.568C408.416 297.466 414.619 293.911 420.667 293.756C429.506 293.602 435.554 301.177 437.88 304.268C440.982 308.133 440.517 309.524 442.843 312.307C445.944 316.017 451.837 319.727 464.553 319.573C463.933 321.273 461.917 326.066 456.955 329.467C453.233 331.94 449.821 332.558 447.805 332.713C447.96 333.177 449.356 336.578 447.495 339.515C445.634 342.452 441.447 343.689 437.725 341.988C438.346 344.153 439.276 348.017 438.811 352.655C438.19 357.447 436.64 360.694 435.709 362.549Z" fill="#D75014"/>
<path d="M411.667 136.691C413.063 137.774 416.164 140.402 417.715 145.194C418.956 148.749 418.801 151.841 418.49 153.542C419.421 153.387 422.212 152.769 425.314 154.315C429.966 156.788 430.586 162.353 430.586 162.817C431.827 162.353 436.169 160.962 440.977 162.817C447.18 165.136 449.506 170.856 449.816 171.783C441.597 173.175 437.255 176.73 435.394 179.049C433.378 181.213 432.137 183.687 429.811 188.788C425.004 198.528 425.934 200.074 423.143 202.856C419.111 207.03 412.287 208.731 406.395 207.03C397.865 204.557 394.299 195.59 392.903 192.035C391.042 187.552 391.817 186.16 390.577 182.914C388.561 178.431 384.064 173.329 371.812 169.774C372.898 168.228 376.155 164.363 381.892 162.508C386.08 161.117 389.646 161.58 391.507 162.044C391.352 161.58 391.197 157.87 393.833 155.551C396.315 153.233 400.812 153.387 403.913 156.015C403.913 153.696 404.223 149.832 405.929 145.503C407.945 141.02 410.271 138.237 411.667 136.691Z" fill="#D75014"/>
<path d="M414.298 261.601C420.465 261.601 425.464 256.617 425.464 250.47C425.464 244.323 420.465 239.34 414.298 239.34C408.132 239.34 403.133 244.323 403.133 250.47C403.133 256.617 408.132 261.601 414.298 261.601Z" fill="#2D517F"/>
<path d="M1280.49 213.841C1286.65 213.841 1291.65 208.858 1291.65 202.711C1291.65 196.563 1286.65 191.58 1280.49 191.58C1274.32 191.58 1269.32 196.563 1269.32 202.711C1269.32 208.858 1274.32 213.841 1280.49 213.841Z" fill="#2D517F"/>
<path d="M499.376 213.841C505.543 213.841 510.542 208.858 510.542 202.711C510.542 196.563 505.543 191.58 499.376 191.58C493.21 191.58 488.211 196.563 488.211 202.711C488.211 208.858 493.21 213.841 499.376 213.841Z" fill="#2D517F"/>
<path d="M451.986 402.898C458.152 402.898 463.151 397.914 463.151 391.767C463.151 385.62 458.152 380.637 451.986 380.637C445.819 380.637 440.82 385.62 440.82 391.767C440.82 397.914 445.819 402.898 451.986 402.898Z" fill="#2D517F"/>
<path d="M423.29 107.32C429.457 107.32 434.456 102.336 434.456 96.1891C434.456 90.0419 429.457 85.0586 423.29 85.0586C417.124 85.0586 412.125 90.0419 412.125 96.1891C412.125 102.336 417.124 107.32 423.29 107.32Z" fill="#2D517F"/>
<mask id="path-13-inside-1_665_10134" fill="white">
<path fill-rule="evenodd" clip-rule="evenodd" d="M712.304 362.978C713.805 365.907 716.309 370.242 720.034 375.062C715.87 379.215 710.857 385.646 707.74 394.354L707.708 394.452C706.082 399.407 699.219 420.313 712.044 438.082C722.967 453.539 740.89 455.561 744.488 455.967L744.521 455.971C763.694 458.356 777.388 448.021 780.127 445.635C779.345 450.406 778.562 457.959 780.127 466.704C780.91 471.077 783.258 483.4 791.866 492.146C796.891 497.252 801.271 498.423 809.047 500.502C813.38 501.661 818.767 503.102 825.907 505.662C834.516 508.842 847.037 513.613 856.819 520.768C864.253 526.333 876.383 538.259 883.426 564.496C896.338 525.936 911.598 514.805 923.337 512.022C926.709 511.337 929.941 511.219 933.259 511.098C939.565 510.867 946.178 510.625 954.639 506.457C965.298 501.229 971.469 493.195 975.745 487.627C976.022 487.268 976.29 486.918 976.551 486.581C987.898 471.475 991.42 455.971 992.985 446.033C994.941 448.418 1011.37 464.319 1032.9 461.139C1056.76 457.561 1072.41 432.119 1071.24 408.665C1070.21 393.452 1062.02 382.219 1055.78 375.766C1059.81 370.666 1062.49 366.049 1064.06 362.978C1066.78 366.986 1074.54 376.205 1087.35 381.015L1087.44 381.048C1092.28 382.714 1112.69 389.745 1130.03 376.606C1145.12 365.417 1147.1 347.057 1147.49 343.371L1147.5 343.337C1149.83 323.697 1139.74 309.668 1137.41 306.862C1142.06 307.664 1149.44 308.465 1157.97 306.862C1162.24 306.06 1174.27 303.656 1182.81 294.837C1187.79 289.689 1188.94 285.203 1190.97 277.238C1192.1 272.799 1193.5 267.28 1196 259.965C1199.11 251.147 1203.77 238.321 1210.75 228.3C1216.18 220.684 1227.83 208.259 1253.44 201.044C1215.8 187.817 1204.93 172.184 1202.21 160.16C1201.54 156.705 1201.43 153.394 1201.31 149.995C1201.09 143.535 1200.85 136.761 1196.78 128.094C1191.68 117.175 1183.83 110.853 1178.4 106.472C1178.05 106.189 1177.71 105.915 1177.38 105.647C1162.63 94.0233 1147.5 90.4159 1137.8 88.8126C1140.12 86.8085 1155.65 69.9737 1152.54 47.9282C1149.05 23.4778 1124.21 7.44482 1101.32 8.64729C1078.81 10.2506 1065.23 28.6887 1063.29 31.4945C1061.13 27.9598 1058.79 24.6239 1056.28 21.5004C1062.44 14.9621 1070.16 3.95589 1071.16 -10.7902C1072.34 -34.2444 1056.69 -59.6862 1032.82 -63.2639C1011.3 -66.4441 994.863 -50.5431 992.907 -48.1579C991.341 -58.0961 987.82 -73.5996 976.473 -88.7057C976.212 -89.0423 975.945 -89.3905 975.67 -89.749L975.667 -89.7521C971.391 -95.3203 965.22 -103.354 954.561 -108.582C946.1 -112.75 939.487 -112.992 933.181 -113.223C929.863 -113.344 926.631 -113.462 923.258 -114.147C911.52 -116.93 896.26 -128.061 883.348 -166.621C876.305 -140.384 864.175 -128.458 856.741 -122.893C846.959 -115.738 834.438 -110.967 825.829 -107.787C818.689 -105.227 813.301 -103.786 808.968 -102.627C801.193 -100.548 796.813 -99.3765 791.788 -94.271C783.18 -85.5254 780.832 -73.2021 780.049 -68.8293C778.484 -60.0837 779.267 -52.5307 780.049 -47.7604C777.31 -50.1455 763.615 -60.4813 744.443 -58.0961L744.41 -58.0925C740.812 -57.6864 722.889 -55.6638 711.966 -40.2074C699.141 -22.4384 706.004 -1.53168 707.63 3.42265L707.662 3.52066C710.653 11.8779 715.392 18.1378 719.448 22.3003C717.183 25.1916 715.053 28.2598 713.08 31.4945C711.139 28.6887 697.557 10.2506 675.05 8.64729C652.154 7.44482 627.318 23.4778 623.826 47.9282C620.721 69.9737 636.244 86.8085 638.572 88.8126C628.87 90.4159 613.736 94.0233 598.99 105.647C598.665 105.911 598.328 106.182 597.982 106.461L597.968 106.472C592.533 110.854 584.69 117.175 579.587 128.094C575.518 136.761 575.282 143.535 575.057 149.995C574.938 153.394 574.823 156.705 574.154 160.16C571.437 172.184 560.572 187.817 522.93 201.044C548.542 208.259 560.184 220.684 565.616 228.3C572.602 238.321 577.258 251.147 580.363 259.965C582.862 267.28 584.269 272.799 585.4 277.238C587.43 285.203 588.573 289.689 593.557 294.837C602.094 303.656 614.124 306.06 618.393 306.862C626.93 308.465 634.303 307.664 638.96 306.862C636.632 309.668 626.542 323.697 628.87 343.337L628.874 343.371C629.27 347.057 631.245 365.417 646.333 376.606C663.679 389.745 684.087 382.714 688.924 381.048L689.02 381.015C701.826 376.205 709.587 366.986 712.304 362.978Z"/>
</mask>
<path fill-rule="evenodd" clip-rule="evenodd" d="M712.304 362.978C713.805 365.907 716.309 370.242 720.034 375.062C715.87 379.215 710.857 385.646 707.74 394.354L707.708 394.452C706.082 399.407 699.219 420.313 712.044 438.082C722.967 453.539 740.89 455.561 744.488 455.967L744.521 455.971C763.694 458.356 777.388 448.021 780.127 445.635C779.345 450.406 778.562 457.959 780.127 466.704C780.91 471.077 783.258 483.4 791.866 492.146C796.891 497.252 801.271 498.423 809.047 500.502C813.38 501.661 818.767 503.102 825.907 505.662C834.516 508.842 847.037 513.613 856.819 520.768C864.253 526.333 876.383 538.259 883.426 564.496C896.338 525.936 911.598 514.805 923.337 512.022C926.709 511.337 929.941 511.219 933.259 511.098C939.565 510.867 946.178 510.625 954.639 506.457C965.298 501.229 971.469 493.195 975.745 487.627C976.022 487.268 976.29 486.918 976.551 486.581C987.898 471.475 991.42 455.971 992.985 446.033C994.941 448.418 1011.37 464.319 1032.9 461.139C1056.76 457.561 1072.41 432.119 1071.24 408.665C1070.21 393.452 1062.02 382.219 1055.78 375.766C1059.81 370.666 1062.49 366.049 1064.06 362.978C1066.78 366.986 1074.54 376.205 1087.35 381.015L1087.44 381.048C1092.28 382.714 1112.69 389.745 1130.03 376.606C1145.12 365.417 1147.1 347.057 1147.49 343.371L1147.5 343.337C1149.83 323.697 1139.74 309.668 1137.41 306.862C1142.06 307.664 1149.44 308.465 1157.97 306.862C1162.24 306.06 1174.27 303.656 1182.81 294.837C1187.79 289.689 1188.94 285.203 1190.97 277.238C1192.1 272.799 1193.5 267.28 1196 259.965C1199.11 251.147 1203.77 238.321 1210.75 228.3C1216.18 220.684 1227.83 208.259 1253.44 201.044C1215.8 187.817 1204.93 172.184 1202.21 160.16C1201.54 156.705 1201.43 153.394 1201.31 149.995C1201.09 143.535 1200.85 136.761 1196.78 128.094C1191.68 117.175 1183.83 110.853 1178.4 106.472C1178.05 106.189 1177.71 105.915 1177.38 105.647C1162.63 94.0233 1147.5 90.4159 1137.8 88.8126C1140.12 86.8085 1155.65 69.9737 1152.54 47.9282C1149.05 23.4778 1124.21 7.44482 1101.32 8.64729C1078.81 10.2506 1065.23 28.6887 1063.29 31.4945C1061.13 27.9598 1058.79 24.6239 1056.28 21.5004C1062.44 14.9621 1070.16 3.95589 1071.16 -10.7902C1072.34 -34.2444 1056.69 -59.6862 1032.82 -63.2639C1011.3 -66.4441 994.863 -50.5431 992.907 -48.1579C991.341 -58.0961 987.82 -73.5996 976.473 -88.7057C976.212 -89.0423 975.945 -89.3905 975.67 -89.749L975.667 -89.7521C971.391 -95.3203 965.22 -103.354 954.561 -108.582C946.1 -112.75 939.487 -112.992 933.181 -113.223C929.863 -113.344 926.631 -113.462 923.258 -114.147C911.52 -116.93 896.26 -128.061 883.348 -166.621C876.305 -140.384 864.175 -128.458 856.741 -122.893C846.959 -115.738 834.438 -110.967 825.829 -107.787C818.689 -105.227 813.301 -103.786 808.968 -102.627C801.193 -100.548 796.813 -99.3765 791.788 -94.271C783.18 -85.5254 780.832 -73.2021 780.049 -68.8293C778.484 -60.0837 779.267 -52.5307 780.049 -47.7604C777.31 -50.1455 763.615 -60.4813 744.443 -58.0961L744.41 -58.0925C740.812 -57.6864 722.889 -55.6638 711.966 -40.2074C699.141 -22.4384 706.004 -1.53168 707.63 3.42265L707.662 3.52066C710.653 11.8779 715.392 18.1378 719.448 22.3003C717.183 25.1916 715.053 28.2598 713.08 31.4945C711.139 28.6887 697.557 10.2506 675.05 8.64729C652.154 7.44482 627.318 23.4778 623.826 47.9282C620.721 69.9737 636.244 86.8085 638.572 88.8126C628.87 90.4159 613.736 94.0233 598.99 105.647C598.665 105.911 598.328 106.182 597.982 106.461L597.968 106.472C592.533 110.854 584.69 117.175 579.587 128.094C575.518 136.761 575.282 143.535 575.057 149.995C574.938 153.394 574.823 156.705 574.154 160.16C571.437 172.184 560.572 187.817 522.93 201.044C548.542 208.259 560.184 220.684 565.616 228.3C572.602 238.321 577.258 251.147 580.363 259.965C582.862 267.28 584.269 272.799 585.4 277.238C587.43 285.203 588.573 289.689 593.557 294.837C602.094 303.656 614.124 306.06 618.393 306.862C626.93 308.465 634.303 307.664 638.96 306.862C636.632 309.668 626.542 323.697 628.87 343.337L628.874 343.371C629.27 347.057 631.245 365.417 646.333 376.606C663.679 389.745 684.087 382.714 688.924 381.048L689.02 381.015C701.826 376.205 709.587 366.986 712.304 362.978Z" fill="#D84E00"/>
<path d="M720.034 375.062L727.464 382.509L734.025 375.963L728.358 368.629L720.034 375.062ZM712.304 362.978L721.665 358.179L713.562 342.369L703.595 357.076L712.304 362.978ZM707.74 394.354L697.836 390.809L697.789 390.94L697.746 391.071L707.74 394.354ZM707.708 394.452L697.714 391.169L697.713 391.171L707.708 394.452ZM712.044 438.082L720.636 432.011L720.605 431.968L720.574 431.925L712.044 438.082ZM744.488 455.967L743.309 466.421L743.309 466.421L744.488 455.967ZM744.521 455.971L745.819 445.532L745.76 445.524L745.7 445.517L744.521 455.971ZM780.127 445.635L790.509 447.338L795.235 418.529L773.219 437.702L780.127 445.635ZM780.127 466.704L769.772 468.557L769.772 468.558L780.127 466.704ZM791.866 492.146L784.368 499.526L784.368 499.526L791.866 492.146ZM809.047 500.502L811.765 490.339L811.764 490.339L809.047 500.502ZM825.907 505.662L829.553 495.794L829.506 495.776L829.458 495.759L825.907 505.662ZM856.819 520.768L863.123 512.346L863.077 512.312L863.03 512.277L856.819 520.768ZM883.426 564.496L873.266 567.224L882.316 600.94L893.401 567.837L883.426 564.496ZM923.337 512.022L921.242 501.713L921.075 501.747L920.91 501.786L923.337 512.022ZM933.259 511.098L933.644 521.61L933.644 521.61L933.259 511.098ZM954.639 506.457L950.007 497.012L949.999 497.016L949.99 497.02L954.639 506.457ZM975.745 487.627L984.088 494.035L984.089 494.035L975.745 487.627ZM976.551 486.581L984.873 493.016L984.918 492.958L984.962 492.899L976.551 486.581ZM992.985 446.033L1001.12 439.361L986.242 421.224L982.593 444.396L992.985 446.033ZM1032.9 461.139L1034.43 471.546L1034.44 471.544L1034.45 471.543L1032.9 461.139ZM1071.24 408.665L1081.75 408.139L1081.74 408.046L1081.74 407.953L1071.24 408.665ZM1055.78 375.766L1047.53 369.245L1041.83 376.464L1048.22 383.078L1055.78 375.766ZM1064.06 362.978L1072.77 357.076L1062.81 342.369L1054.7 358.179L1064.06 362.978ZM1087.35 381.015L1083.65 390.863L1083.79 390.915L1083.93 390.963L1087.35 381.015ZM1087.44 381.048L1090.87 371.102L1090.86 371.1L1087.44 381.048ZM1130.03 376.606L1123.77 368.156L1123.72 368.188L1123.68 368.22L1130.03 376.606ZM1147.49 343.371L1137.03 342.239L1137.03 342.246L1147.49 343.371ZM1147.5 343.337L1137.05 342.099L1137.04 342.152L1137.04 342.206L1147.5 343.337ZM1137.41 306.862L1139.19 296.495L1111.12 291.663L1129.31 313.58L1137.41 306.862ZM1157.97 306.862L1159.92 317.201L1159.92 317.201L1157.97 306.862ZM1182.81 294.837L1190.37 302.155L1190.37 302.155L1182.81 294.837ZM1190.97 277.238L1180.77 274.64L1180.77 274.64L1190.97 277.238ZM1196 259.965L1186.08 256.472L1186.07 256.518L1186.05 256.564L1196 259.965ZM1210.75 228.3L1202.19 222.191L1202.15 222.237L1202.12 222.284L1210.75 228.3ZM1253.44 201.044L1256.29 211.17L1288.31 202.149L1256.93 191.119L1253.44 201.044ZM1202.21 160.16L1191.89 162.159L1191.92 162.319L1191.95 162.478L1202.21 160.16ZM1201.31 149.995L1190.8 150.362L1190.8 150.362L1201.31 149.995ZM1196.78 128.094L1187.25 132.548L1187.25 132.556L1187.26 132.564L1196.78 128.094ZM1178.4 106.472L1185 98.2816L1185 98.2815L1178.4 106.472ZM1177.38 105.647L1184.01 97.479L1183.95 97.4318L1183.89 97.3854L1177.38 105.647ZM1137.8 88.8126L1130.93 80.8394L1113.87 95.522L1136.08 99.1918L1137.8 88.8126ZM1152.54 47.9282L1162.96 46.4613L1162.96 46.4509L1162.96 46.4406L1152.54 47.9282ZM1101.32 8.64729L1100.77 -1.85823L1100.67 -1.85309L1100.57 -1.84612L1101.32 8.64729ZM1063.29 31.4945L1054.31 36.9733L1062.74 50.7887L1071.94 37.478L1063.29 31.4945ZM1056.28 21.5004L1048.62 14.2903L1042.36 20.9459L1048.08 28.0786L1056.28 21.5004ZM1071.16 -10.7902L1081.66 -10.0778L1081.67 -10.171L1081.67 -10.2644L1071.16 -10.7902ZM1032.82 -63.2639L1034.38 -73.6677L1034.37 -73.6693L1034.36 -73.6709L1032.82 -63.2639ZM992.907 -48.1579L982.515 -46.5213L986.164 -23.3494L1001.04 -41.4863L992.907 -48.1579ZM976.473 -88.7057L984.884 -95.024L984.84 -95.0831L984.794 -95.1416L976.473 -88.7057ZM975.67 -89.749L967.284 -83.3964L967.306 -83.3683L967.327 -83.3402L975.67 -89.749ZM975.667 -89.7521L984.053 -96.1046L984.032 -96.1324L984.01 -96.1601L975.667 -89.7521ZM954.561 -108.582L949.912 -99.1449L949.92 -99.1409L949.929 -99.1369L954.561 -108.582ZM933.181 -113.223L932.796 -102.71L932.796 -102.71L933.181 -113.223ZM923.258 -114.147L920.832 -103.911L920.997 -103.872L921.164 -103.838L923.258 -114.147ZM883.348 -166.621L893.323 -169.962L882.238 -203.065L873.187 -169.349L883.348 -166.621ZM856.741 -122.893L862.952 -114.402L862.998 -114.437L863.045 -114.471L856.741 -122.893ZM825.829 -107.787L829.38 -97.8844L829.428 -97.9015L829.475 -97.919L825.829 -107.787ZM808.968 -102.627L811.686 -92.4643L811.686 -92.4643L808.968 -102.627ZM791.788 -94.271L784.29 -101.651L784.29 -101.651L791.788 -94.271ZM780.049 -68.8293L769.694 -70.6826L769.694 -70.6825L780.049 -68.8293ZM780.049 -47.7604L773.141 -39.8269L795.157 -20.6547L790.431 -49.4634L780.049 -47.7604ZM744.443 -58.0961L745.621 -47.6423L745.681 -47.6491L745.741 -47.6566L744.443 -58.0961ZM744.41 -58.0925L743.232 -68.5463L743.23 -68.5461L744.41 -58.0925ZM711.966 -40.2074L720.496 -34.0503L720.527 -34.0931L720.558 -34.1362L711.966 -40.2074ZM707.63 3.42265L697.635 6.70381L697.635 6.70452L707.63 3.42265ZM707.662 3.52066L697.667 6.80253L697.711 6.93475L697.758 7.06577L707.662 3.52066ZM719.448 22.3003L727.729 28.7886L733.404 21.5465L726.982 14.9578L719.448 22.3003ZM713.08 31.4945L704.427 37.478L713.632 50.7887L722.06 36.9733L713.08 31.4945ZM675.05 8.64729L675.797 -1.84612L675.699 -1.85309L675.602 -1.85823L675.05 8.64729ZM623.826 47.9282L613.411 46.4406L613.41 46.4509L613.408 46.4613L623.826 47.9282ZM638.572 88.8126L640.287 99.1918L662.493 95.522L645.435 80.8394L638.572 88.8126ZM598.99 105.647L592.477 97.3854L592.418 97.4317L592.36 97.4789L598.99 105.647ZM597.982 106.461L591.381 98.2702L591.378 98.2727L597.982 106.461ZM597.968 106.472L604.57 114.663L604.573 114.661L597.968 106.472ZM579.587 128.094L589.11 132.564L589.113 132.556L589.117 132.548L579.587 128.094ZM575.057 149.995L564.543 149.628L564.543 149.628L575.057 149.995ZM574.154 160.16L584.415 162.478L584.451 162.319L584.482 162.159L574.154 160.16ZM522.93 201.044L519.442 191.119L488.053 202.149L520.077 211.17L522.93 201.044ZM565.616 228.3L574.247 222.284L574.214 222.237L574.181 222.191L565.616 228.3ZM580.363 259.965L590.318 256.564L590.302 256.518L590.286 256.472L580.363 259.965ZM585.4 277.238L575.206 279.835L575.206 279.835L585.4 277.238ZM593.557 294.837L601.115 287.52L601.115 287.52L593.557 294.837ZM618.393 306.862L616.451 317.201L616.451 317.201L618.393 306.862ZM638.96 306.862L647.056 313.58L665.244 291.663L637.175 296.495L638.96 306.862ZM628.87 343.337L639.33 342.213L639.324 342.156L639.317 342.099L628.87 343.337ZM628.874 343.371L618.414 344.495L618.414 344.495L628.874 343.371ZM646.333 376.606L652.685 368.22L652.642 368.188L652.599 368.156L646.333 376.606ZM688.924 381.048L685.502 371.1L685.498 371.102L688.924 381.048ZM689.02 381.015L692.442 390.963L692.581 390.915L692.719 390.863L689.02 381.015ZM728.358 368.629C725.098 364.41 722.928 360.642 721.665 358.179L702.942 367.776C704.682 371.171 707.521 376.074 711.709 381.494L728.358 368.629ZM717.645 397.899C720.113 391.004 724.112 385.853 727.464 382.509L712.603 367.615C707.629 372.578 701.601 380.288 697.836 390.809L717.645 397.899ZM717.703 397.736L717.735 397.638L697.746 391.071L697.714 391.169L717.703 397.736ZM720.574 431.925C711.152 418.871 716.006 402.905 717.703 397.733L697.713 391.171C696.158 395.908 687.286 421.756 703.514 444.239L720.574 431.925ZM745.668 445.514C742.233 445.126 728.679 443.393 720.636 432.011L703.453 444.154C717.255 463.685 739.547 465.997 743.309 466.421L745.668 445.514ZM745.7 445.517L745.668 445.514L743.309 466.421L743.341 466.425L745.7 445.517ZM773.219 437.702C771.439 439.251 760.665 447.378 745.819 445.532L743.222 466.411C766.722 469.334 783.338 456.79 787.036 453.569L773.219 437.702ZM790.483 464.851C789.206 457.716 789.832 451.465 790.509 447.338L769.746 443.932C768.858 449.347 767.919 458.201 769.772 468.557L790.483 464.851ZM799.363 484.766C793.239 478.544 791.263 469.207 790.483 464.851L769.772 468.558C770.558 472.947 773.277 488.257 784.368 499.526L799.363 484.766ZM811.764 490.339C803.925 488.243 802.172 487.619 799.363 484.766L784.368 499.526C791.611 506.884 798.618 508.603 806.329 510.665L811.764 490.339ZM829.458 495.759C821.886 493.044 816.149 491.512 811.765 490.339L806.329 510.665C810.61 511.81 815.647 513.159 822.357 515.565L829.458 495.759ZM863.03 512.277C851.9 504.136 838.041 498.93 829.553 495.794L822.262 515.53C830.99 518.755 842.173 523.089 850.608 529.259L863.03 512.277ZM893.586 561.769C885.883 533.075 872.289 519.208 863.123 512.346L850.514 529.19C856.217 533.459 866.882 543.444 873.266 567.224L893.586 561.769ZM920.91 501.786C904.013 505.792 886.866 521.093 873.45 561.156L893.401 567.837C905.811 530.779 919.184 523.818 925.763 522.259L920.91 501.786ZM932.874 500.585C929.669 500.702 925.59 500.83 921.242 501.713L925.431 522.332C927.827 521.845 930.214 521.736 933.644 521.61L932.874 500.585ZM949.99 497.02C943.65 500.143 938.951 500.362 932.874 500.585L933.644 521.61C940.179 521.371 948.707 521.106 959.288 515.894L949.99 497.02ZM967.402 481.219C963.149 486.757 958.258 492.965 950.007 497.012L959.272 515.902C972.338 509.494 979.788 499.634 984.088 494.035L967.402 481.219ZM968.229 480.145C967.955 480.499 967.676 480.862 967.402 481.219L984.089 494.035C984.367 493.673 984.624 493.338 984.873 493.016L968.229 480.145ZM982.593 444.396C981.149 453.563 978.008 467.125 968.14 480.262L984.962 492.899C997.788 475.824 1001.69 458.379 1003.38 447.669L982.593 444.396ZM1031.36 450.732C1023.58 451.881 1016.44 449.629 1010.68 446.456C1007.82 444.886 1005.45 443.166 1003.72 441.734C1001.88 440.215 1001.03 439.255 1001.12 439.361L984.851 452.705C986.709 454.97 992.358 460.391 1000.53 464.89C1008.85 469.468 1020.69 473.577 1034.43 471.546L1031.36 450.732ZM1060.73 409.191C1061.72 428.821 1048.43 448.173 1031.34 450.735L1034.45 471.543C1065.1 466.949 1083.11 435.418 1081.75 408.139L1060.73 409.191ZM1048.22 383.078C1053.57 388.617 1059.95 397.628 1060.75 409.378L1081.74 407.953C1080.47 389.275 1070.47 375.821 1063.35 368.455L1048.22 383.078ZM1054.7 358.179C1053.38 360.763 1051.06 364.779 1047.53 369.245L1064.04 382.288C1068.57 376.553 1071.6 371.334 1073.43 367.776L1054.7 358.179ZM1091.05 371.167C1080.95 367.375 1074.74 359.985 1072.77 357.076L1055.36 368.88C1058.82 373.987 1068.13 385.035 1083.65 390.863L1091.05 371.167ZM1090.86 371.1L1090.77 371.067L1083.93 390.963L1084.02 390.996L1090.86 371.1ZM1123.68 368.22C1111.17 377.697 1095.92 372.843 1090.87 371.102L1084.02 390.994C1088.64 392.585 1114.21 401.792 1136.39 384.992L1123.68 368.22ZM1137.03 342.246C1136.64 345.875 1134.9 359.902 1123.77 368.156L1136.3 385.056C1155.35 370.932 1157.55 348.238 1157.95 344.496L1137.03 342.246ZM1137.04 342.206L1137.03 342.239L1157.95 344.502L1157.96 344.469L1137.04 342.206ZM1129.31 313.58C1130.8 315.374 1138.89 326.573 1137.05 342.099L1157.94 344.576C1160.76 320.821 1148.67 303.962 1145.5 300.144L1129.31 313.58ZM1156.03 296.523C1149.18 297.809 1143.18 297.18 1139.19 296.495L1135.62 317.23C1140.95 318.147 1149.69 319.122 1159.92 317.201L1156.03 296.523ZM1175.25 287.52C1169.23 293.744 1160.23 295.734 1156.03 296.523L1159.92 317.201C1164.26 316.386 1179.32 313.567 1190.37 302.155L1175.25 287.52ZM1180.77 274.64C1178.72 282.709 1178.08 284.601 1175.25 287.52L1190.37 302.155C1197.51 294.778 1199.16 287.697 1201.16 279.835L1180.77 274.64ZM1186.05 256.564C1183.41 264.296 1181.92 270.152 1180.77 274.64L1201.16 279.835C1202.28 275.447 1203.6 270.265 1205.96 263.367L1186.05 256.564ZM1202.12 222.284C1194.2 233.641 1189.14 247.782 1186.08 256.472L1205.93 263.459C1209.08 254.512 1213.33 243 1219.38 234.316L1202.12 222.284ZM1250.59 190.918C1222.42 198.853 1208.85 212.848 1202.19 222.191L1219.31 234.41C1223.52 228.521 1233.23 217.665 1256.29 211.17L1250.59 190.918ZM1191.95 162.478C1195.8 179.516 1210.62 197.15 1249.95 210.969L1256.93 191.119C1220.97 178.483 1214.06 164.853 1212.47 157.842L1191.95 162.478ZM1190.8 150.362C1190.91 153.652 1191.04 157.771 1191.89 162.159L1212.54 158.16C1212.05 155.639 1211.95 153.135 1211.82 149.628L1190.8 150.362ZM1187.26 132.564C1190.36 139.174 1190.58 144.109 1190.8 150.362L1211.82 149.628C1211.59 142.961 1211.34 134.347 1206.3 123.623L1187.26 132.564ZM1171.8 114.663C1177.17 118.994 1183.26 124.017 1187.25 132.548L1206.31 123.639C1200.09 110.332 1190.5 102.713 1185 98.2816L1171.8 114.663ZM1170.75 113.815C1171.09 114.096 1171.45 114.382 1171.8 114.663L1185 98.2815C1184.65 97.9967 1184.32 97.7332 1184.01 97.479L1170.75 113.815ZM1136.08 99.1918C1144.95 100.658 1158.1 103.846 1170.86 113.909L1183.89 97.3854C1167.16 84.2 1150.04 80.1736 1139.51 78.4334L1136.08 99.1918ZM1142.12 49.3952C1143.28 57.5791 1141.01 65.0501 1137.89 71.0001C1136.34 73.9496 1134.65 76.3924 1133.25 78.1749C1131.76 80.0671 1130.82 80.9338 1130.93 80.8394L1144.66 96.7858C1146.88 94.8724 1152.16 89.097 1156.52 80.7717C1160.97 72.2919 1164.91 60.3228 1162.96 46.4613L1142.12 49.3952ZM1101.87 19.1528C1120.49 18.1748 1139.56 31.4382 1142.13 49.4158L1162.96 46.4406C1158.54 15.5174 1127.94 -3.28518 1100.77 -1.85823L1101.87 19.1528ZM1071.94 37.478C1073.67 34.9805 1084.76 20.3734 1102.06 19.1407L1100.57 -1.84612C1072.86 0.127859 1056.79 22.3969 1054.63 25.5109L1071.94 37.478ZM1048.08 28.0786C1050.3 30.8505 1052.38 33.8189 1054.31 36.9733L1072.27 26.0156C1069.88 22.1006 1067.28 18.3974 1064.49 14.9222L1048.08 28.0786ZM1060.67 -11.5027C1059.89 -0.118966 1053.89 8.69612 1048.62 14.2903L1063.95 28.7106C1070.99 21.2281 1080.43 8.03074 1081.66 -10.0778L1060.67 -11.5027ZM1031.26 -52.8602C1048.35 -50.2984 1061.64 -30.9455 1060.66 -11.3161L1081.67 -10.2644C1083.03 -37.5432 1065.02 -69.074 1034.38 -73.6677L1031.26 -52.8602ZM1001.04 -41.4863C1000.95 -41.38 1001.8 -42.3401 1003.64 -43.8587C1005.37 -45.2906 1007.74 -47.0108 1010.6 -48.5814C1016.36 -51.7542 1023.5 -54.0059 1031.28 -52.8569L1034.36 -73.6709C1020.61 -75.7021 1008.77 -71.5935 1000.45 -67.0145C992.28 -62.5165 986.631 -57.0947 984.773 -54.8296L1001.04 -41.4863ZM968.062 -82.3874C977.93 -69.2502 981.071 -55.6882 982.515 -46.5213L1003.3 -49.7945C1001.61 -60.504 997.71 -77.949 984.884 -95.024L968.062 -82.3874ZM967.327 -83.3402C967.599 -82.9857 967.878 -82.6227 968.151 -82.2697L984.794 -95.1416C984.547 -95.4619 984.291 -95.7954 984.012 -96.1579L967.327 -83.3402ZM967.282 -83.3995L967.284 -83.3964L984.055 -96.1016L984.053 -96.1046L967.282 -83.3995ZM949.929 -99.1369C958.18 -95.09 963.071 -88.8815 967.324 -83.344L984.01 -96.1601C979.71 -101.759 972.26 -111.618 959.194 -118.027L949.929 -99.1369ZM932.796 -102.71C938.873 -102.487 943.571 -102.268 949.912 -99.1449L959.21 -118.019C948.629 -123.231 940.101 -123.496 933.566 -123.735L932.796 -102.71ZM921.164 -103.838C925.512 -102.954 929.591 -102.827 932.796 -102.71L933.566 -123.735C930.136 -123.861 927.749 -123.97 925.353 -124.457L921.164 -103.838ZM873.372 -163.281C886.788 -123.218 903.935 -107.917 920.832 -103.911L925.685 -124.384C919.105 -125.943 905.732 -132.904 893.323 -169.962L873.372 -163.281ZM863.045 -114.471C872.211 -121.333 885.805 -135.2 893.508 -163.894L873.187 -169.349C866.804 -145.569 856.139 -135.584 850.436 -131.315L863.045 -114.471ZM829.475 -97.919C837.963 -101.055 851.822 -106.261 862.952 -114.402L850.53 -131.384C842.095 -125.214 830.912 -120.88 822.184 -117.655L829.475 -97.919ZM811.686 -92.4643C816.071 -93.6369 821.808 -95.1693 829.38 -97.8844L822.279 -117.69C815.569 -115.284 810.531 -113.935 806.251 -112.79L811.686 -92.4643ZM799.285 -86.8914C802.093 -89.7444 803.846 -90.3677 811.686 -92.4643L806.251 -112.79C798.54 -110.728 791.533 -109.009 784.29 -101.651L799.285 -86.8914ZM790.405 -66.976C791.184 -71.3322 793.161 -80.669 799.285 -86.8914L784.29 -101.651C773.199 -90.3819 770.479 -75.072 769.694 -70.6826L790.405 -66.976ZM790.431 -49.4634C789.754 -53.5899 789.128 -59.8413 790.405 -66.9761L769.694 -70.6825C767.84 -60.3261 768.78 -51.4715 769.668 -46.0574L790.431 -49.4634ZM745.741 -47.6566C760.587 -49.5035 771.361 -41.3764 773.141 -39.8269L786.958 -55.6939C783.26 -58.9146 766.644 -71.4591 743.144 -68.5356L745.741 -47.6566ZM745.588 -47.6386L745.621 -47.6423L743.265 -68.55L743.232 -68.5463L745.588 -47.6386ZM720.558 -34.1362C728.601 -45.518 742.155 -47.2512 745.59 -47.6388L743.23 -68.5461C739.469 -68.1216 717.177 -65.8097 703.375 -46.2786L720.558 -34.1362ZM717.625 0.141492C715.927 -5.03042 711.073 -20.9959 720.496 -34.0503L703.436 -46.3644C687.208 -23.881 696.08 1.96707 697.635 6.70381L717.625 0.141492ZM717.657 0.238794L717.625 0.140787L697.635 6.70452L697.667 6.80253L717.657 0.238794ZM726.982 14.9578C723.712 11.6024 719.935 6.59081 717.567 -0.0244485L697.758 7.06577C701.372 17.1651 707.071 24.6733 711.915 29.6429L726.982 14.9578ZM722.06 36.9733C723.821 34.0867 725.718 31.3557 727.729 28.7886L711.168 15.8121C708.648 19.0275 706.285 22.4329 704.099 26.0156L722.06 36.9733ZM674.302 19.1407C691.607 20.3734 702.7 34.9805 704.427 37.478L721.732 25.5109C719.579 22.3969 703.508 0.127859 675.797 -1.84612L674.302 19.1407ZM634.24 49.4158C636.808 31.4382 655.877 18.1748 674.498 19.1528L675.602 -1.85823C648.432 -3.28518 617.828 15.5174 613.411 46.4406L634.24 49.4158ZM645.435 80.8394C645.544 80.9338 644.606 80.0671 643.117 78.1749C641.715 76.3924 640.025 73.9496 638.478 71.0001C635.358 65.0501 633.09 57.5791 634.243 49.3952L613.408 46.4613C611.456 60.3228 615.398 72.2919 619.845 80.7717C624.211 89.0969 629.486 94.8724 631.709 96.7858L645.435 80.8394ZM605.502 113.909C618.268 103.846 631.414 100.658 640.287 99.1918L636.857 78.4334C626.327 80.1736 609.204 84.2 592.477 97.3854L605.502 113.909ZM604.584 114.652C604.928 114.375 605.278 114.093 605.619 113.816L592.36 97.4789C592.051 97.7297 591.729 97.9896 591.381 98.2702L604.584 114.652ZM604.573 114.661L604.587 114.65L591.378 98.2727L591.364 98.2839L604.573 114.661ZM589.117 132.548C593.104 124.017 599.196 118.994 604.57 114.663L591.366 98.2817C585.869 102.713 576.276 110.332 570.056 123.639L589.117 132.548ZM585.57 150.362C585.788 144.109 586.007 139.174 589.11 132.564L570.064 123.623C565.03 134.347 564.776 142.961 564.543 149.628L585.57 150.362ZM584.482 162.159C585.332 157.771 585.456 153.652 585.57 150.362L564.543 149.628C564.421 153.135 564.314 155.639 563.826 158.16L584.482 162.159ZM526.417 210.969C565.744 197.15 580.566 179.516 584.415 162.478L563.892 157.842C562.309 164.853 555.4 178.483 519.442 191.119L526.417 210.969ZM574.181 222.191C567.516 212.848 553.95 198.853 525.782 190.918L520.077 211.17C543.133 217.665 552.851 228.521 557.052 234.41L574.181 222.191ZM590.286 256.472C587.226 247.782 582.163 233.641 574.247 222.284L556.986 234.316C563.04 243 567.29 254.512 570.44 263.459L590.286 256.472ZM595.594 274.64C594.45 270.152 592.96 264.296 590.318 256.564L570.408 263.367C572.765 270.265 574.087 275.446 575.206 279.835L595.594 274.64ZM601.115 287.52C598.289 284.601 597.65 282.709 595.594 274.64L575.206 279.835C577.209 287.697 578.857 294.778 585.999 302.155L601.115 287.52ZM620.335 296.523C616.136 295.734 607.141 293.744 601.115 287.52L585.999 302.155C597.048 313.567 612.112 316.386 616.451 317.201L620.335 296.523ZM637.175 296.495C633.192 297.18 627.185 297.809 620.335 296.523L616.451 317.201C626.676 319.122 635.415 318.147 640.745 317.23L637.175 296.495ZM639.317 342.099C637.477 326.573 645.567 315.374 647.056 313.58L630.864 300.144C627.696 303.962 615.607 320.821 618.424 344.576L639.317 342.099ZM639.334 342.247L639.33 342.213L618.411 344.461L618.414 344.495L639.334 342.247ZM652.599 368.156C641.469 359.902 639.724 345.875 639.334 342.246L618.414 344.495C618.817 348.238 621.021 370.932 640.067 385.056L652.599 368.156ZM685.498 371.102C680.443 372.843 665.196 377.697 652.685 368.22L639.981 384.992C662.161 401.792 687.732 392.585 692.351 390.994L685.498 371.102ZM685.598 371.067L685.502 371.1L692.346 390.996L692.442 390.963L685.598 371.067ZM703.595 357.076C701.624 359.985 695.417 367.375 685.321 371.167L692.719 390.863C708.235 385.035 717.551 373.987 721.012 368.88L703.595 357.076Z" fill="#2D517F" mask="url(#path-13-inside-1_665_10134)"/>
<path d="M647.617 201.957C658.857 198.289 675.302 191.309 689.144 176.521C700.856 164.098 700.383 157.236 714.107 141.619C726.174 127.895 738.479 113.935 757.526 111.687C772.315 109.913 792.783 115 802.247 131.326C809.346 143.631 810.766 163.27 799.999 172.853C794.557 177.585 785.447 180.543 777.166 177.704C775.036 176.994 767.938 174.154 765.453 167.647C763.679 162.797 764.98 157.946 767.346 150.138C768.411 146.47 769.594 143.394 770.54 141.501C767.938 140.318 762.259 138.425 755.279 139.726C742.146 142.211 736.349 154.16 735.639 155.816C730.907 166.228 733.983 175.929 734.811 178.177C731.498 178.177 727.239 178.65 722.744 180.306C709.611 185.394 704.051 197.106 702.631 200.419C703.459 202.904 707.718 214.971 720.141 220.532C725.346 222.898 730.434 223.253 733.51 223.253C732.682 225.974 730.67 234.374 734.929 243.365C735.403 244.548 741.791 257.799 755.515 259.455C762.022 260.283 767.346 258.036 769.831 256.734C768.293 254.96 763.797 248.807 764.033 240.289C764.152 231.653 769.239 222.07 777.047 219.23C788.878 214.971 804.14 227.157 808.281 239.816C814.197 257.562 799.171 279.45 781.898 285.838C754.924 295.776 724.873 267.145 721.087 263.596C703.577 246.796 705.234 234.255 686.896 219.467C673.172 208.346 658.147 203.968 647.617 201.957Z" fill="#75A9C9"/>
<path d="M1130.77 200C1119.53 196.332 1103.08 189.352 1089.24 174.564C1077.53 162.141 1078 155.279 1064.28 139.662C1052.21 125.938 1039.9 111.978 1020.86 109.73C1006.07 107.955 985.6 113.043 976.136 129.369C969.037 141.674 967.617 161.313 978.383 170.896C983.826 175.628 992.935 178.586 1001.22 175.747C1003.35 175.037 1010.45 172.197 1012.93 165.69C1014.7 160.84 1013.4 155.989 1011.04 148.181C1009.97 144.513 1008.79 141.437 1007.84 139.544C1010.45 138.361 1016.12 136.468 1023.1 137.769C1036.24 140.254 1042.03 152.203 1042.74 153.859C1047.48 164.271 1044.4 173.972 1043.57 176.22C1046.88 176.22 1051.14 176.693 1055.64 178.349C1068.77 183.437 1074.33 195.149 1075.75 198.462C1074.92 200.946 1070.66 213.014 1058.24 218.575C1053.04 220.941 1047.95 221.296 1044.87 221.296C1045.7 224.017 1047.71 232.417 1043.45 241.408C1042.98 242.591 1036.59 255.842 1022.87 257.498C1016.36 258.326 1011.04 256.079 1008.55 254.777C1010.09 253.003 1014.59 246.85 1014.35 238.332C1014.23 229.696 1009.14 220.113 1001.34 217.273C989.504 213.014 974.243 225.2 970.102 237.859C964.186 255.605 979.212 277.492 996.485 283.881C1023.46 293.819 1053.51 265.188 1057.3 261.639C1074.81 244.839 1073.15 232.298 1091.49 217.51C1105.21 206.389 1120.24 202.011 1130.77 200Z" fill="#75A9C9"/>
<path d="M887.023 -45.6445C890.691 -34.4052 897.671 -17.9601 912.46 -4.11797C924.882 7.59463 931.744 7.12137 947.361 20.8452C961.085 32.9128 975.045 45.2169 977.293 64.2647C979.068 79.0534 973.981 99.5208 957.654 108.986C945.35 116.084 925.711 117.504 916.127 106.738C911.395 101.295 908.437 92.1857 911.277 83.904C911.987 81.7745 914.826 74.6759 921.333 72.1914C926.184 70.4168 931.034 71.7182 938.843 74.0844C942.51 75.1492 945.586 76.3323 947.479 77.2788C948.663 74.676 950.555 68.9971 949.254 62.0168C946.77 48.8845 934.82 43.0873 933.164 42.3775C922.753 37.6451 913.051 40.7212 910.804 41.5493C910.804 38.2367 910.33 33.9775 908.674 29.4818C903.587 16.3495 891.874 10.7889 888.561 9.36923C886.077 10.1974 874.009 14.4565 868.449 26.879C866.083 32.0846 865.728 37.1719 865.728 40.248C863.007 39.4198 854.607 37.4085 845.615 41.6677C844.432 42.1409 831.182 48.5296 829.525 62.2535C828.697 68.7605 830.945 74.0844 832.246 76.5689C834.021 75.0308 840.173 70.5351 848.691 70.7717C857.328 70.89 866.911 75.9773 869.75 83.7857C874.009 95.6166 861.824 110.879 849.164 115.019C831.418 120.935 809.531 105.91 803.142 88.6364C793.204 61.6619 821.835 31.6114 825.384 27.8255C842.184 10.3157 854.725 11.972 869.514 -6.36587C880.635 -20.0897 885.012 -35.115 887.023 -45.6445Z" fill="#75A9C9"/>
<path d="M885.969 439.754C889.636 428.515 896.617 412.07 911.405 398.227C923.828 386.515 930.69 386.988 946.306 373.264C960.03 361.197 973.991 348.892 976.239 329.845C978.013 315.056 972.926 294.589 956.599 285.124C944.295 278.025 924.656 276.606 915.073 287.372C910.34 292.814 907.383 301.924 910.222 310.205C910.932 312.335 913.771 319.433 920.278 321.918C925.129 323.693 929.98 322.391 937.788 320.025C941.456 318.96 944.532 317.777 946.425 316.831C947.608 319.433 949.501 325.112 948.199 332.093C945.715 345.225 933.766 351.022 932.109 351.732C921.698 356.464 911.997 353.388 909.749 352.56C909.749 355.873 909.276 360.132 907.619 364.628C902.532 377.76 890.819 383.32 887.507 384.74C885.022 383.912 872.955 379.653 867.394 367.23C865.028 362.025 864.673 356.937 864.673 353.861C861.952 354.69 853.552 356.701 844.561 352.442C843.377 351.968 830.127 345.58 828.47 331.856C827.642 325.349 829.89 320.025 831.192 317.541C832.966 319.079 839.118 323.574 847.637 323.338C856.273 323.219 865.856 318.132 868.696 310.324C872.955 298.493 860.769 283.231 848.11 279.09C830.363 273.175 808.476 288.2 802.088 305.473C792.15 332.447 820.78 362.498 824.33 366.284C841.13 383.794 853.67 382.137 868.459 400.475C879.58 414.199 883.957 429.224 885.969 439.754Z" fill="#75A9C9"/>
<ellipse cx="894.437" cy="191.585" rx="49.7572" ry="34.19" fill="#ECE1CF"/>
<ellipse cx="894.415" cy="191.585" rx="11.2585" ry="34.19" fill="#2D517F"/>
</g>
</svg>
