<svg width="1629" height="1628" viewBox="0 0 1629 1628" fill="none" xmlns="http://www.w3.org/2000/svg">
<circle cx="814.131" cy="814" r="805.98" fill="#75A9C9" stroke="#2D517F" stroke-width="15.96"/>
<circle cx="817.316" cy="814" r="650.37" fill="#ECE1CF" stroke="#2D517F" stroke-width="15.96"/>
<path d="M751.373 88.0057C752.785 85.8949 756.784 80.9698 764.077 78.39C769.489 76.2792 773.959 76.2792 776.782 76.5137C776.547 75.1065 775.37 70.885 777.488 66.1944C781.017 58.9239 789.486 57.7512 790.192 57.7512C789.251 55.875 787.134 49.5427 789.486 42.0377C792.545 32.4219 801.25 28.6694 802.661 27.9658C805.249 40.396 811.131 46.4938 814.66 49.3081C818.189 52.1225 821.953 53.7642 829.717 57.2822C844.774 63.849 847.127 62.4419 851.597 66.4289C858.185 72.2922 861.243 82.6115 859.126 91.5237C856.067 104.657 842.657 110.521 837.246 112.866C830.423 115.915 828.541 114.742 823.6 117.088C817.013 120.371 809.249 127.641 804.779 146.169C802.426 144.528 796.074 139.837 793.015 131.394C790.663 125.062 791.133 119.667 791.604 116.853C790.898 117.088 785.252 117.557 781.723 113.804C778.194 110.052 777.958 103.485 781.723 98.5596C778.194 98.7941 772.312 98.5596 765.489 96.2143C758.196 93.6345 753.726 90.1165 751.373 88.0057Z" fill="#D75014"/>
<path d="M1173.96 177.835C1176.32 176.896 1182.43 175.255 1189.73 176.896C1195.37 178.069 1199.14 180.649 1201.02 182.525C1201.49 181.352 1202.9 177.131 1207.37 174.317C1214.43 170.33 1221.96 174.082 1222.66 174.317C1222.9 172.44 1224.78 165.639 1231.13 160.948C1239.13 154.85 1248.31 156.492 1249.95 156.727C1245.01 168.453 1246.43 176.896 1247.84 181.118C1249.01 185.574 1251.37 188.857 1255.84 196.128C1264.54 209.965 1267.36 210.2 1268.78 216.063C1270.89 224.506 1267.6 234.826 1260.78 240.923C1250.9 249.835 1236.31 247.256 1230.66 246.083C1223.37 244.676 1222.43 242.8 1217.02 241.861C1209.72 240.689 1199.37 242.565 1185.02 255.464C1184.08 252.884 1181.49 245.379 1183.61 236.702C1185.26 230.135 1188.78 226.148 1190.67 224.037C1189.96 223.803 1185.02 221.223 1184.31 215.829C1183.37 210.669 1186.9 205.275 1192.78 203.398C1189.73 201.522 1185.02 198.004 1180.79 192.375C1176.55 186.278 1174.9 181.118 1173.96 177.835Z" fill="#D75014"/>
<path d="M1475.57 496.791C1478.15 497.495 1484.04 499.371 1488.98 505.234C1492.74 509.456 1494.39 513.677 1495.09 516.257C1496.27 515.553 1499.8 512.974 1504.98 513.208C1512.97 513.912 1517.21 521.417 1517.44 521.886C1518.86 520.479 1524.03 516.023 1532.03 515.788C1542.15 515.319 1548.73 522.12 1549.91 523.058C1539.09 529.86 1535.56 537.365 1534.15 541.586C1532.74 545.808 1532.5 550.029 1532.03 558.473C1531.09 574.89 1533.21 576.531 1531.09 582.16C1528.03 590.369 1519.33 596.701 1510.15 597.874C1496.74 599.515 1486.39 589.196 1482.39 584.975C1477.21 579.815 1477.45 577.47 1473.68 573.717C1468.27 568.792 1458.86 564.101 1439.57 566.447C1440.28 563.632 1442.39 556.127 1449.45 550.264C1454.63 545.808 1459.8 544.401 1462.63 543.932C1462.16 543.463 1459.57 538.303 1461.92 533.612C1464.04 528.922 1470.16 526.342 1476.04 528.218C1474.63 524.935 1472.74 519.306 1472.51 512.27C1472.74 505 1474.39 499.84 1475.57 496.791Z" fill="#D75014"/>
<path d="M352.152 251.003C352.152 248.423 352.858 242.091 357.093 235.993C360.387 231.302 364.151 228.723 366.504 227.55C365.563 226.612 362.034 223.797 361.328 218.638C360.151 210.664 366.504 204.8 366.974 204.566C365.327 203.628 359.681 199.406 357.564 191.901C354.74 182.286 359.916 174.311 360.622 172.904C369.797 181.816 378.032 183.693 382.502 183.927C386.972 184.396 390.972 183.693 399.441 182.051C415.675 179.237 416.851 176.657 422.733 177.595C431.438 178.768 439.672 185.569 442.966 194.247C447.671 206.911 439.907 219.341 436.849 224.032C432.849 230.364 430.732 230.599 427.673 235.055C423.909 241.387 421.792 251.707 428.379 269.765C425.556 269.765 417.792 269.296 410.263 263.902C404.852 259.915 402.264 255.225 401.088 252.645C400.617 253.114 396.383 256.866 391.207 255.694C386.031 254.755 382.267 249.361 382.737 243.029C379.914 245.14 374.973 248.189 367.915 250.065C360.857 251.707 355.446 251.238 352.152 251.003Z" fill="#D75014"/>
<path d="M119.011 595.062C117.599 592.951 114.776 587.322 115.011 579.817C115.247 574.188 116.893 569.967 118.305 567.622C116.893 567.387 112.423 566.683 109.13 562.931C103.718 556.833 105.836 548.625 106.071 548.156C104.189 548.156 97.1309 547.921 91.2492 542.527C83.7206 535.96 83.4854 526.579 83.4854 524.937C95.9545 527.282 103.954 524.468 107.718 522.357C111.717 520.246 114.776 517.432 120.893 511.569C132.892 500.311 132.421 497.731 137.832 495.151C145.831 491.399 156.418 492.572 163.712 498.2C174.534 506.174 174.769 520.95 174.769 526.579C175.005 534.084 173.122 535.491 173.358 540.885C173.828 548.155 177.357 558.006 192.885 569.498C190.532 570.905 183.709 574.892 174.534 574.423C167.711 574.188 163.006 571.609 160.653 569.967C160.653 570.671 159.006 576.065 153.83 577.941C148.89 579.817 142.773 577.472 139.95 572.078C138.773 575.361 136.185 580.755 131.48 585.915C126.775 590.84 121.834 593.42 119.011 595.062Z" fill="#D75014"/>
<path d="M127.947 1060.6C125.595 1059.67 119.948 1057.09 115.478 1050.75C112.185 1046.06 111.008 1041.61 110.773 1039.03C109.597 1039.73 105.597 1041.84 100.656 1040.9C92.6573 1039.26 89.3635 1031.52 89.3635 1030.82C87.9519 1031.99 82.0702 1035.98 74.0711 1035.28C63.9546 1034.57 58.0729 1027.3 57.1318 1026.13C68.66 1020.5 73.1301 1013.46 75.0122 1009.48C76.8943 1005.49 77.6001 1001.27 79.0118 993.06C81.835 976.878 79.7176 975.001 82.5408 969.607C86.5403 961.868 95.951 956.473 105.126 956.239C118.537 956.004 127.712 967.496 131.241 972.187C135.947 978.05 135.241 980.161 138.77 984.383C143.475 990.011 152.415 995.64 171.707 995.406C170.766 997.985 167.708 1005.26 160.179 1010.42C154.533 1014.17 149.357 1015.11 146.298 1015.34C146.534 1016.04 148.651 1021.2 145.828 1025.66C143.005 1030.12 136.652 1031.99 131.006 1029.41C131.947 1032.7 133.359 1038.56 132.653 1045.6C131.712 1052.87 129.359 1057.79 127.947 1060.6Z" fill="#D75014"/>
<path d="M1533.43 963.039C1535.08 965.15 1538.37 970.31 1539.08 977.815C1539.55 983.443 1538.14 987.899 1536.96 990.245C1538.37 990.245 1542.84 990.479 1546.61 993.997C1552.49 999.391 1551.31 1007.83 1551.08 1008.54C1552.96 1008.3 1559.78 1008.07 1566.37 1012.53C1574.6 1018.39 1575.78 1027.77 1576.01 1029.18C1563.31 1028 1555.78 1031.76 1552.02 1034.1C1548.25 1036.45 1545.43 1039.73 1540.02 1046.06C1529.2 1058.49 1529.9 1061.07 1524.73 1064.12C1517.2 1068.81 1506.37 1068.58 1498.61 1063.89C1487.08 1057.09 1485.2 1042.55 1484.73 1036.68C1483.79 1029.41 1485.44 1027.77 1484.73 1022.38C1483.55 1015.11 1478.85 1005.72 1462.38 995.873C1464.5 994.232 1470.85 989.541 1480.02 989.072C1486.85 988.837 1491.79 990.714 1494.38 992.121C1494.38 991.417 1495.55 985.789 1500.26 983.678C1504.96 981.332 1511.32 983.209 1514.84 988.134C1515.79 984.85 1517.67 979.222 1521.9 973.358C1526.14 967.964 1530.84 964.915 1533.43 963.039Z" fill="#D75014"/>
<path d="M389.091 1406.3C386.503 1407.01 380.386 1407.95 373.328 1405.37C367.917 1403.49 364.388 1400.44 362.741 1398.33C362.036 1399.5 360.153 1403.49 355.448 1405.6C347.919 1408.65 340.861 1404.19 340.391 1403.72C339.92 1405.6 337.332 1411.93 330.51 1415.92C321.805 1421.08 312.865 1418.27 311.453 1417.8C317.57 1406.77 317.335 1398.33 316.629 1393.87C315.923 1389.42 314.041 1385.67 310.512 1377.93C303.454 1363.15 300.866 1362.68 300.16 1356.58C298.984 1347.91 303.689 1338.06 311.218 1332.9C322.275 1325.16 336.156 1329.38 341.803 1331.25C348.861 1333.37 349.566 1335.48 354.978 1337.12C362.036 1338.99 372.623 1338.52 388.386 1327.5C389.091 1330.32 390.738 1337.82 387.444 1346.5C385.092 1352.83 381.092 1356.35 378.74 1358.23C379.445 1358.46 383.915 1361.74 384.151 1367.14C384.386 1372.3 380.151 1377.46 374.034 1378.63C376.857 1380.74 381.092 1384.73 384.621 1391.06C387.444 1397.63 388.621 1403.02 389.091 1406.3Z" fill="#D75014"/>
<path d="M859.185 1541.86C857.773 1539.75 853.774 1535.06 846.48 1532.25C841.069 1530.14 836.599 1530.14 833.776 1530.61C834.011 1529.2 835.187 1524.98 833.07 1520.29C829.541 1513.02 821.071 1511.84 820.365 1511.84C821.071 1509.97 823.424 1503.64 820.836 1496.13C817.542 1486.75 809.073 1482.76 807.661 1482.29C805.073 1494.72 799.427 1500.82 795.898 1503.64C792.369 1506.45 788.604 1508.09 780.84 1511.61C765.783 1518.41 763.431 1516.77 758.961 1520.99C752.373 1526.85 749.55 1537.17 751.667 1546.09C754.961 1559.22 768.371 1565.08 773.782 1567.19C780.605 1570.24 782.487 1569.07 787.663 1571.41C794.251 1574.7 802.015 1581.73 806.485 1600.5C808.837 1598.85 814.954 1594.16 818.248 1585.49C820.601 1579.15 819.895 1573.76 819.424 1570.95C820.13 1571.18 825.777 1571.65 829.306 1567.9C832.835 1564.14 833.07 1557.58 829.306 1552.65C832.835 1552.89 838.716 1552.65 845.539 1550.07C852.597 1547.49 856.832 1543.97 859.185 1541.86Z" fill="#D75014"/>
<path d="M1299.81 1361.51C1297.22 1360.81 1291.1 1359.4 1283.81 1361.74C1278.4 1363.39 1274.63 1366.2 1272.75 1368.08C1272.28 1366.9 1270.4 1362.68 1265.69 1360.34C1258.4 1356.82 1251.1 1361.04 1250.4 1361.51C1249.93 1359.63 1247.81 1353.07 1240.99 1348.61C1232.52 1343.22 1223.34 1345.33 1221.93 1345.8C1227.58 1357.05 1226.87 1365.5 1225.93 1369.95C1224.99 1374.41 1223.11 1377.93 1219.11 1385.43C1211.34 1399.97 1208.76 1400.21 1207.82 1406.07C1206.17 1414.75 1210.4 1424.6 1217.46 1430.23C1228.05 1438.44 1242.4 1434.92 1247.81 1433.28C1255.1 1431.4 1255.81 1429.29 1261.22 1428.12C1268.51 1426.47 1278.87 1427.41 1294.16 1439.37C1294.86 1436.56 1296.98 1429.05 1294.16 1420.38C1292.04 1414.04 1288.28 1410.06 1286.16 1408.18C1286.87 1407.95 1291.57 1404.9 1292.04 1399.74C1292.51 1394.58 1288.51 1389.18 1282.63 1387.78C1285.45 1385.67 1289.92 1381.91 1293.92 1375.82C1297.92 1369.95 1299.1 1364.56 1299.81 1361.51Z" fill="#D75014"/>
<path d="M649.078 105.126C648.372 107.471 646.019 113.334 639.902 118.26C635.432 121.777 630.962 123.185 628.374 123.654C629.08 124.826 631.433 128.579 630.962 133.739C629.786 141.713 622.257 145.465 621.551 145.7C622.963 147.107 626.962 152.501 626.962 160.475C626.962 170.56 619.904 176.892 618.728 177.83C612.376 166.807 605.083 162.586 600.848 161.179C596.613 159.537 592.613 159.068 584.144 158.13C567.675 156.254 566.028 158.364 560.617 156.019C552.618 152.501 546.501 143.589 546.03 134.442C545.089 121.074 556.147 111.224 560.382 107.471C566.028 102.546 568.145 103.015 572.145 99.2625C577.556 94.1028 582.497 84.9561 581.085 65.7246C583.673 66.6627 591.202 69.008 596.848 76.2785C600.848 81.6727 602.024 86.8324 602.495 89.6468C602.965 89.1777 608.141 87.0669 612.846 89.6468C617.552 91.9921 619.669 98.3244 617.552 104.188C620.845 103.015 626.492 101.373 633.785 101.608C641.079 102.077 646.019 103.953 649.078 105.126Z" fill="#D75014"/>
<path d="M280.616 317.845C281.321 320.19 282.733 326.288 280.616 333.793C278.969 339.187 276.145 342.94 274.263 344.816C275.44 345.285 279.674 347.161 282.027 351.617C285.556 358.888 281.557 366.158 281.086 366.862C282.968 367.331 289.556 369.442 294.026 376.008C299.672 384.217 297.555 393.364 297.084 395.005C285.556 389.377 277.087 390.315 272.852 391.487C268.382 392.426 264.853 394.536 257.324 398.523C242.737 406.263 242.502 409.077 236.621 410.25C227.916 411.892 218.034 407.905 212.153 400.869C203.683 390.315 207.212 376.243 208.624 370.614C210.271 363.344 212.388 362.406 213.8 357.246C215.211 349.975 214.27 339.656 202.036 324.646C204.624 323.708 212.388 321.597 221.093 324.412C227.445 326.522 231.445 330.04 233.327 332.151C233.562 331.448 236.62 326.757 241.796 326.288C246.972 325.584 252.383 329.571 253.795 335.669C255.912 332.855 259.677 328.164 265.558 324.412C272.146 319.956 277.557 318.548 280.616 317.845Z" fill="#D75014"/>
<path d="M91.4805 717.957C93.5979 719.599 98.3032 723.586 100.656 730.856C102.538 736.25 102.303 740.941 101.832 743.521C103.244 743.286 107.479 742.348 112.184 744.694C119.242 748.446 120.183 756.889 120.183 757.593C122.065 756.889 128.653 754.778 135.946 757.593C145.357 761.111 148.886 769.788 149.356 771.196C136.887 773.306 130.3 778.701 127.476 782.219C124.418 785.502 122.536 789.254 119.007 796.994C111.714 811.769 113.125 814.115 108.89 818.336C102.773 824.669 92.4215 827.248 83.4814 824.669C70.5416 820.916 65.1305 807.313 63.013 801.919C60.1898 795.118 61.3662 793.007 59.484 788.082C56.4255 781.28 49.6028 773.541 31.0166 768.147C32.6635 765.801 37.6041 759.938 46.309 757.124C52.6613 755.013 58.0724 755.717 60.8956 756.42C60.6604 755.717 60.4251 750.088 64.4247 746.57C68.1889 743.052 75.0117 743.286 79.7171 747.273C79.7171 743.755 80.1876 737.892 82.7756 731.325C85.834 724.524 89.3631 720.302 91.4805 717.957Z" fill="#D75014"/>
<path d="M1548.49 836.394C1546.38 834.987 1541.2 831.469 1538.14 824.433C1535.79 819.274 1535.55 814.583 1535.55 812.003C1534.38 812.472 1529.91 813.879 1525.2 812.003C1517.67 808.954 1516.03 800.746 1515.79 800.042C1514.15 800.98 1507.79 803.56 1500.03 801.684C1490.38 799.104 1485.91 790.895 1485.21 789.488C1497.44 786.205 1503.32 779.872 1505.91 776.354C1508.5 772.837 1509.91 768.849 1512.97 760.875C1518.62 745.396 1517.2 743.286 1520.97 738.595C1526.38 731.559 1536.5 728.041 1545.67 729.683C1558.85 732.028 1565.67 744.927 1568.26 750.087C1571.79 756.654 1570.61 758.765 1573.2 763.455C1576.73 769.788 1584.49 777.058 1603.55 780.341C1602.14 782.687 1597.67 789.254 1589.43 793.006C1583.31 795.586 1577.9 795.586 1575.08 795.117C1575.31 795.821 1576.26 801.215 1572.49 805.202C1568.96 808.954 1562.37 809.658 1557.2 806.14C1557.67 809.658 1557.67 815.521 1555.79 822.323C1553.67 829.359 1550.38 833.815 1548.49 836.394Z" fill="#D75014"/>
<path d="M172.409 1160.04C174.997 1160.04 181.114 1160.75 187.466 1165.2C192.172 1168.49 194.76 1172.24 195.936 1174.59C196.877 1173.65 199.935 1170.13 204.876 1169.43C212.875 1168.25 218.522 1174.59 218.992 1175.29C219.933 1173.65 224.168 1168.25 231.932 1166.14C241.578 1163.56 249.577 1168.49 250.989 1169.19C242.048 1178.34 240.166 1186.55 239.696 1190.77C239.225 1195.22 239.931 1199.21 241.343 1207.65C244.166 1223.84 246.518 1225.01 245.577 1230.87C244.401 1239.55 237.343 1247.76 228.638 1250.81C215.934 1255.5 203.464 1247.52 198.759 1244.24C192.407 1240.25 192.407 1237.91 187.701 1235.09C181.349 1231.34 170.997 1229 152.882 1235.56C152.882 1232.75 153.352 1225.01 158.764 1217.5C162.763 1212.11 167.468 1209.53 170.292 1208.36C169.821 1207.89 166.057 1203.67 167.468 1198.51C168.645 1193.35 174.056 1189.6 180.173 1190.06C178.055 1187.25 174.997 1182.33 173.35 1175.29C171.703 1168.72 171.939 1163.33 172.409 1160.04Z" fill="#D75014"/>
<path d="M1385.93 1273.32C1384.99 1270.98 1383.11 1264.88 1384.99 1257.61C1386.16 1251.98 1388.75 1248.23 1390.63 1246.12C1389.46 1245.65 1384.99 1244.24 1382.4 1239.79C1378.4 1232.75 1381.93 1225.25 1382.4 1224.54C1380.52 1224.31 1373.69 1222.67 1368.75 1216.33C1362.64 1208.36 1364.05 1199.21 1364.28 1197.57C1376.05 1202.26 1384.52 1200.85 1388.75 1199.45C1393.22 1198.28 1396.52 1195.93 1403.81 1191.47C1417.69 1182.56 1417.69 1179.98 1423.57 1178.57C1432.04 1176.23 1442.39 1179.51 1448.51 1186.31C1457.69 1196.16 1455.1 1210.71 1454.16 1216.33C1452.98 1223.6 1450.86 1224.78 1449.92 1229.94C1448.98 1237.21 1450.63 1247.53 1463.8 1261.6C1461.21 1262.54 1453.69 1265.12 1444.98 1263.01C1438.39 1261.36 1434.39 1258.08 1432.04 1255.97C1431.81 1256.67 1429.22 1261.6 1424.04 1262.54C1418.87 1263.47 1413.22 1259.96 1411.34 1254.09C1409.46 1257.14 1406.16 1261.83 1400.28 1266.29C1394.16 1270.98 1388.99 1272.62 1385.93 1273.32Z" fill="#D75014"/>
<path d="M988.788 1523.57C989.494 1520.99 991.847 1515.36 997.493 1510.43C1001.73 1506.68 1006.2 1505.28 1008.79 1504.81C1008.08 1503.63 1005.49 1499.88 1006.2 1494.72C1007.14 1486.75 1014.67 1482.76 1015.37 1482.53C1013.96 1481.12 1009.73 1475.72 1009.73 1467.75C1009.73 1457.67 1016.55 1451.33 1017.49 1450.16C1024.08 1461.18 1031.37 1464.94 1035.61 1466.58C1039.84 1468.22 1044.08 1468.45 1052.31 1469.16C1068.78 1470.56 1070.43 1468.45 1076.07 1470.8C1084.31 1474.08 1090.42 1482.99 1091.13 1492.14C1092.31 1505.51 1081.48 1515.36 1077.25 1519.35C1071.84 1524.51 1069.48 1524.04 1065.49 1527.79C1060.31 1532.95 1055.37 1542.33 1057.25 1561.33C1054.43 1560.62 1047.13 1558.04 1041.25 1551.01C1037.02 1545.85 1035.84 1540.69 1035.37 1537.64C1034.9 1538.11 1029.72 1540.45 1025.02 1537.87C1020.31 1535.53 1018.2 1529.43 1020.08 1523.57C1016.78 1524.74 1011.14 1526.62 1003.85 1526.38C997.022 1526.62 991.847 1524.74 988.788 1523.57Z" fill="#D75014"/>
<path d="M514.026 1478.54C516.144 1477.13 521.555 1473.85 529.084 1473.61C534.73 1473.38 539.2 1475.02 541.553 1476.19C541.553 1474.79 542.023 1470.33 545.552 1466.58C551.199 1460.95 559.668 1462.36 560.374 1462.59C560.139 1460.71 560.139 1453.68 565.079 1447.35C571.196 1439.37 580.607 1438.67 582.019 1438.43C580.372 1451.1 583.901 1458.84 586.254 1462.36C588.606 1466.34 591.665 1468.92 597.782 1474.79C609.78 1486.04 612.368 1485.34 615.427 1490.73C619.662 1498.47 619.191 1509.03 614.25 1516.77C606.957 1528.03 592.371 1529.2 586.489 1529.67C578.96 1530.37 577.549 1528.49 572.138 1529.2C564.844 1530.14 555.198 1534.36 544.846 1550.54C543.2 1548.19 538.729 1541.86 538.729 1532.72C538.729 1525.91 540.847 1521.22 542.259 1518.64C541.553 1518.64 536.142 1517.24 533.789 1512.55C531.671 1507.86 533.554 1501.52 538.729 1498.24C535.436 1497.3 529.789 1495.19 524.143 1490.5C518.496 1486.04 515.673 1481.35 514.026 1478.54Z" fill="#D75014"/>
<path d="M1075.15 132.566C1073.03 134.208 1067.86 137.726 1060.33 138.43C1054.68 138.899 1050.21 137.726 1047.86 136.553C1047.86 137.96 1047.63 142.417 1044.33 146.169C1038.92 152.267 1030.45 151.094 1029.75 150.86C1029.98 152.736 1030.45 159.537 1025.98 166.104C1020.33 174.313 1010.92 175.72 1009.51 175.954C1010.45 163.29 1006.69 155.785 1004.1 152.267C1001.51 148.514 998.455 145.935 991.867 140.54C979.163 129.986 976.575 130.69 973.516 125.53C968.811 118.025 968.811 107.471 973.516 99.4974C980.339 87.7709 994.69 85.8946 1000.57 85.191C1007.87 84.2529 1009.51 85.8946 1014.92 84.9565C1022.22 83.7839 1031.63 78.8587 1041.04 62.207C1042.92 64.3178 1047.63 70.6501 1048.1 79.7968C1048.57 86.5982 1046.45 91.5234 1045.27 94.1032C1045.98 94.1032 1051.63 95.0413 1053.98 99.732C1056.33 104.423 1054.68 110.755 1049.74 114.273C1053.04 115.211 1058.92 116.853 1064.57 121.074C1070.21 125.53 1073.27 129.986 1075.15 132.566Z" fill="#D75014"/>
<path d="M1417.69 398.993C1415.1 399.227 1408.75 399.227 1402.17 395.24C1397.22 392.426 1394.17 388.908 1392.75 386.563C1392.05 387.735 1389.23 391.253 1384.28 392.66C1376.52 394.537 1370.17 388.908 1369.7 388.204C1368.76 390.081 1365.23 395.709 1357.7 398.758C1348.29 402.276 1339.82 398.055 1338.41 397.586C1346.41 387.735 1347.58 379.292 1347.58 374.836C1347.58 370.38 1346.41 366.393 1344.29 358.184C1340.05 342.236 1337.23 341.533 1337.7 335.435C1337.94 326.757 1344.29 317.845 1352.52 313.858C1364.76 307.995 1377.7 314.796 1382.87 317.376C1389.46 320.659 1389.93 323.005 1394.87 325.35C1401.46 328.399 1412.05 329.806 1429.46 321.363C1429.69 324.177 1429.93 331.917 1425.22 339.891C1421.69 345.754 1417.22 348.569 1414.63 349.976C1415.1 350.445 1419.34 354.432 1418.4 359.592C1417.69 364.751 1412.75 368.973 1406.64 369.207C1408.99 371.787 1412.52 376.478 1414.87 383.279C1417.69 390.315 1417.69 395.944 1417.69 398.993Z" fill="#D75014"/>
<path d="M698.017 114.508C707.373 114.508 714.957 106.948 714.957 97.6216C714.957 88.2956 707.373 80.7354 698.017 80.7354C688.662 80.7354 681.078 88.2956 681.078 97.6216C681.078 106.948 688.662 114.508 698.017 114.508Z" fill="#2D517F"/>
<path d="M911.393 109.112C920.749 109.112 928.333 101.552 928.333 92.2261C928.333 82.9001 920.749 75.3398 911.393 75.3398C902.038 75.3398 894.454 82.9001 894.454 92.2261C894.454 101.552 902.038 109.112 911.393 109.112Z" fill="#2D517F"/>
<path d="M495.679 181.817C505.034 181.817 512.618 174.257 512.618 164.931C512.618 155.605 505.034 148.045 495.679 148.045C486.323 148.045 478.739 155.605 478.739 164.931C478.739 174.257 486.323 181.817 495.679 181.817Z" fill="#2D517F"/>
<path d="M317.818 305.184C327.174 305.184 334.757 297.623 334.757 288.297C334.757 278.971 327.174 271.411 317.818 271.411C308.463 271.411 300.879 278.971 300.879 288.297C300.879 297.623 308.463 305.184 317.818 305.184Z" fill="#2D517F"/>
<path d="M190.512 464.664C199.867 464.664 207.451 457.104 207.451 447.778C207.451 438.452 199.867 430.892 190.512 430.892C181.156 430.892 173.572 438.452 173.572 447.778C173.572 457.104 181.156 464.664 190.512 464.664Z" fill="#2D517F"/>
<path d="M1303.12 294.628C1312.48 294.628 1320.06 287.068 1320.06 277.742C1320.06 268.416 1312.48 260.855 1303.12 260.855C1293.77 260.855 1286.18 268.416 1286.18 277.742C1286.18 287.068 1293.77 294.628 1303.12 294.628Z" fill="#2D517F"/>
<path d="M1443.35 466.771C1452.71 466.771 1460.29 459.21 1460.29 449.884C1460.29 440.558 1452.71 432.998 1443.35 432.998C1434 432.998 1426.42 440.558 1426.42 449.884C1426.42 459.21 1434 466.771 1443.35 466.771Z" fill="#2D517F"/>
<path d="M1525.68 677.616C1535.04 677.616 1542.62 670.056 1542.62 660.73C1542.62 651.404 1535.04 643.844 1525.68 643.844C1516.33 643.844 1508.75 651.404 1508.75 660.73C1508.75 670.056 1516.33 677.616 1525.68 677.616Z" fill="#2D517F"/>
<path d="M95.4744 907.458C104.83 907.458 112.414 899.898 112.414 890.572C112.414 881.246 104.83 873.686 95.4744 873.686C86.1191 873.686 78.5352 881.246 78.5352 890.572C78.5352 899.898 86.1191 907.458 95.4744 907.458Z" fill="#2D517F"/>
<path d="M497.467 1151.8C506.822 1151.8 514.406 1144.24 514.406 1134.92C514.406 1125.59 506.822 1118.03 497.467 1118.03C488.111 1118.03 480.527 1125.59 480.527 1134.92C480.527 1144.24 488.111 1151.8 497.467 1151.8Z" fill="#2D517F"/>
<path d="M1135.05 510.215C1144.41 510.215 1151.99 502.654 1151.99 493.328C1151.99 484.003 1144.41 476.442 1135.05 476.442C1125.7 476.442 1118.11 484.003 1118.11 493.328C1118.11 502.654 1125.7 510.215 1135.05 510.215Z" fill="#2D517F"/>
<path d="M805.041 1418.98C814.396 1418.98 821.98 1411.42 821.98 1402.1C821.98 1392.77 814.396 1385.21 805.041 1385.21C795.686 1385.21 788.102 1392.77 788.102 1402.1C788.102 1411.42 795.686 1418.98 805.041 1418.98Z" fill="#2D517F"/>
<path d="M807.872 238.097C817.227 238.097 824.811 230.536 824.811 221.21C824.811 211.884 817.227 204.324 807.872 204.324C798.517 204.324 790.933 211.884 790.933 221.21C790.933 230.536 798.517 238.097 807.872 238.097Z" fill="#2D517F"/>
<path d="M1409.58 834.999C1418.94 834.999 1426.52 827.439 1426.52 818.113C1426.52 808.787 1418.94 801.227 1409.58 801.227C1400.23 801.227 1392.64 808.787 1392.64 818.113C1392.64 827.439 1400.23 834.999 1409.58 834.999Z" fill="#2D517F"/>
<path d="M224.544 834.999C233.899 834.999 241.483 827.439 241.483 818.113C241.483 808.787 233.899 801.227 224.544 801.227C215.188 801.227 207.604 808.787 207.604 818.113C207.604 827.439 215.188 834.999 224.544 834.999Z" fill="#2D517F"/>
<path d="M1135.05 1151.8C1144.41 1151.8 1151.99 1144.24 1151.99 1134.92C1151.99 1125.59 1144.41 1118.03 1135.05 1118.03C1125.7 1118.03 1118.11 1125.59 1118.11 1134.92C1118.11 1144.24 1125.7 1151.8 1135.05 1151.8Z" fill="#2D517F"/>
<path d="M497.467 510.215C506.822 510.215 514.406 502.654 514.406 493.328C514.406 484.003 506.822 476.442 497.467 476.442C488.111 476.442 480.527 484.003 480.527 493.328C480.527 502.654 488.111 510.215 497.467 510.215Z" fill="#2D517F"/>
<path d="M152.647 1121.82C162.003 1121.82 169.587 1114.26 169.587 1104.93C169.587 1095.61 162.003 1088.05 152.647 1088.05C143.292 1088.05 135.708 1095.61 135.708 1104.93C135.708 1114.26 143.292 1121.82 152.647 1121.82Z" fill="#2D517F"/>
<path d="M446.498 1453.21C455.853 1453.21 463.437 1445.65 463.437 1436.32C463.437 1427 455.853 1419.44 446.498 1419.44C437.143 1419.44 429.559 1427 429.559 1436.32C429.559 1445.65 437.143 1453.21 446.498 1453.21Z" fill="#2D517F"/>
<path d="M682.489 1541.86C691.844 1541.86 699.428 1534.3 699.428 1524.98C699.428 1515.65 691.844 1508.09 682.489 1508.09C673.134 1508.09 665.55 1515.65 665.55 1524.98C665.55 1534.3 673.134 1541.86 682.489 1541.86Z" fill="#2D517F"/>
<path d="M921.734 1546.79C931.09 1546.79 938.673 1539.23 938.673 1529.9C938.673 1520.58 931.09 1513.02 921.734 1513.02C912.379 1513.02 904.795 1520.58 904.795 1529.9C904.795 1539.23 912.379 1546.79 921.734 1546.79Z" fill="#2D517F"/>
<path d="M1151.6 1472.91C1160.95 1472.91 1168.54 1465.35 1168.54 1456.02C1168.54 1446.7 1160.95 1439.14 1151.6 1439.14C1142.24 1439.14 1134.66 1446.7 1134.66 1456.02C1134.66 1465.35 1142.24 1472.91 1151.6 1472.91Z" fill="#2D517F"/>
<path d="M1342.39 1329.85C1351.75 1329.85 1359.33 1322.29 1359.33 1312.96C1359.33 1303.64 1351.75 1296.08 1342.39 1296.08C1333.04 1296.08 1325.45 1303.64 1325.45 1312.96C1325.45 1322.29 1333.04 1329.85 1342.39 1329.85Z" fill="#2D517F"/>
<path d="M270.52 1307.1C279.876 1307.1 287.46 1299.54 287.46 1290.21C287.46 1280.89 279.876 1273.33 270.52 1273.33C261.165 1273.33 253.581 1280.89 253.581 1290.21C253.581 1299.54 261.165 1307.1 270.52 1307.1Z" fill="#2D517F"/>
<path d="M1477.2 1144.1C1486.56 1144.1 1494.14 1136.54 1494.14 1127.21C1494.14 1117.89 1486.56 1110.33 1477.2 1110.33C1467.84 1110.33 1460.26 1117.89 1460.26 1127.21C1460.26 1136.54 1467.84 1144.1 1477.2 1144.1Z" fill="#2D517F"/>
<path d="M1537.44 914.964C1546.8 914.964 1554.38 907.404 1554.38 898.078C1554.38 888.752 1546.8 881.191 1537.44 881.191C1528.09 881.191 1520.5 888.752 1520.5 898.078C1520.5 907.404 1528.09 914.964 1537.44 914.964Z" fill="#2D517F"/>
<path d="M109.113 673.396C118.468 673.396 126.052 665.835 126.052 656.509C126.052 647.183 118.468 639.623 109.113 639.623C99.7578 639.623 92.1738 647.183 92.1738 656.509C92.1738 665.835 99.7578 673.396 109.113 673.396Z" fill="#2D517F"/>
<path d="M1122.67 174.311C1132.02 174.311 1139.61 166.751 1139.61 157.425C1139.61 148.099 1132.02 140.539 1122.67 140.539C1113.31 140.539 1105.73 148.099 1105.73 157.425C1105.73 166.751 1113.31 174.311 1122.67 174.311Z" fill="#2D517F"/>
<mask id="path-51-inside-1_718_11056" fill="white">
<path fill-rule="evenodd" clip-rule="evenodd" d="M547.58 1061.26C549.858 1065.7 553.657 1072.28 559.306 1079.59C552.99 1085.89 545.383 1095.65 540.654 1108.86L540.606 1109.01C538.138 1116.52 527.726 1148.24 547.184 1175.2C563.755 1198.65 590.946 1201.72 596.405 1202.33L596.454 1202.34C625.542 1205.96 646.318 1190.28 650.474 1186.66C649.286 1193.89 648.099 1205.35 650.474 1218.62C651.661 1225.26 655.223 1243.95 668.282 1257.22C675.906 1264.96 682.551 1266.74 694.347 1269.9C700.92 1271.65 709.093 1273.84 719.927 1277.72C732.987 1282.55 751.982 1289.79 766.823 1300.64C778.101 1309.09 796.503 1327.18 807.189 1366.98C826.778 1308.48 849.929 1291.6 867.738 1287.37C872.854 1286.33 877.758 1286.15 882.791 1285.97C892.358 1285.62 902.391 1285.25 915.227 1278.93C931.398 1271 940.759 1258.81 947.248 1250.36L947.279 1250.32C947.687 1249.79 948.083 1249.28 948.47 1248.78C965.685 1225.86 971.027 1202.34 973.402 1187.26C976.37 1190.88 1001.3 1215 1033.95 1210.18C1070.16 1204.75 1093.91 1166.15 1092.13 1130.57C1090.56 1107.49 1078.14 1090.45 1068.68 1080.66C1074.79 1072.92 1078.85 1065.92 1081.24 1061.26C1085.36 1067.34 1097.13 1081.33 1116.56 1088.62L1116.71 1088.67C1124.05 1091.2 1155.01 1101.87 1181.32 1081.93C1204.21 1064.96 1207.21 1037.1 1207.81 1031.51L1207.82 1031.46C1211.35 1001.66 1196.04 980.381 1192.51 976.125C1199.57 977.341 1210.76 978.557 1223.71 976.125C1230.19 974.908 1248.44 971.26 1261.39 957.882C1268.95 950.072 1270.69 943.265 1273.77 931.181C1275.48 924.447 1277.62 916.075 1281.41 904.977C1286.12 891.599 1293.18 872.14 1303.78 856.937C1312.02 845.383 1329.68 826.532 1368.54 815.587C1311.43 795.52 1294.95 771.804 1290.83 753.561C1289.81 748.32 1289.64 743.296 1289.46 738.14C1289.12 728.339 1288.76 718.062 1282.59 704.913C1274.84 688.348 1262.94 678.758 1254.7 672.111C1254.17 671.682 1253.65 671.265 1253.15 670.859C1230.78 653.224 1207.82 647.752 1193.1 645.319C1196.63 642.279 1220.18 616.739 1215.47 583.293C1210.17 546.199 1172.49 521.875 1137.76 523.7C1103.61 526.132 1083.01 554.105 1080.06 558.361C1076.79 552.998 1073.23 547.936 1069.44 543.197C1078.77 533.277 1090.49 516.58 1092.01 494.209C1093.79 458.627 1070.04 420.029 1033.83 414.601C1001.18 409.776 976.251 433.9 973.283 437.519C970.908 422.441 965.566 398.921 948.351 376.003C947.967 375.506 947.572 374.993 947.166 374.464L947.15 374.443L947.129 374.416C940.641 365.968 931.279 353.78 915.108 345.849C902.272 339.526 892.24 339.158 882.673 338.808C877.639 338.624 872.735 338.445 867.619 337.405C849.81 333.184 826.659 316.297 807.07 257.797C796.385 297.601 777.983 315.694 766.704 324.137C751.864 334.993 732.868 342.23 719.808 347.055C708.975 350.939 700.802 353.125 694.228 354.883C682.432 358.037 675.787 359.814 668.163 367.56C655.104 380.828 651.542 399.524 650.355 406.158C647.98 419.426 649.168 430.885 650.355 438.122C646.2 434.503 625.423 418.823 596.336 422.441L596.286 422.447C590.827 423.063 563.636 426.131 547.065 449.58C527.607 476.538 538.02 508.256 540.487 515.772L540.536 515.921C545.074 528.601 552.264 538.099 558.419 544.414C554.983 548.8 551.752 553.454 548.758 558.361C545.814 554.105 525.209 526.132 491.062 523.7C456.327 521.875 418.648 546.199 413.35 583.293C408.64 616.739 432.189 642.279 435.721 645.319C421.003 647.752 398.043 653.224 375.671 670.859C375.171 671.265 374.654 671.682 374.121 672.111C365.875 678.758 353.976 688.348 346.234 704.913C340.062 718.062 339.703 728.339 339.362 738.14C339.182 743.296 339.007 748.32 337.992 753.561C333.871 771.804 317.386 795.52 260.279 815.587C299.136 826.532 316.798 845.383 325.04 856.937C335.637 872.14 342.702 891.599 347.412 904.977C351.204 916.075 353.337 924.447 355.053 931.181C358.133 943.265 359.867 950.072 367.429 957.882C380.381 971.26 398.631 974.908 405.107 976.125C418.06 978.557 429.245 977.341 436.31 976.125C432.778 980.381 417.471 1001.66 421.003 1031.46L421.008 1031.51C421.61 1037.1 424.605 1064.96 447.496 1081.93C473.811 1101.87 504.774 1091.2 512.111 1088.67L512.257 1088.62C531.685 1081.33 543.459 1067.34 547.58 1061.26Z"/>
</mask>
<path fill-rule="evenodd" clip-rule="evenodd" d="M547.58 1061.26C549.858 1065.7 553.657 1072.28 559.306 1079.59C552.99 1085.89 545.383 1095.65 540.654 1108.86L540.606 1109.01C538.138 1116.52 527.726 1148.24 547.184 1175.2C563.755 1198.65 590.946 1201.72 596.405 1202.33L596.454 1202.34C625.542 1205.96 646.318 1190.28 650.474 1186.66C649.286 1193.89 648.099 1205.35 650.474 1218.62C651.661 1225.26 655.223 1243.95 668.282 1257.22C675.906 1264.96 682.551 1266.74 694.347 1269.9C700.92 1271.65 709.093 1273.84 719.927 1277.72C732.987 1282.55 751.982 1289.79 766.823 1300.64C778.101 1309.09 796.503 1327.18 807.189 1366.98C826.778 1308.48 849.929 1291.6 867.738 1287.37C872.854 1286.33 877.758 1286.15 882.791 1285.97C892.358 1285.62 902.391 1285.25 915.227 1278.93C931.398 1271 940.759 1258.81 947.248 1250.36L947.279 1250.32C947.687 1249.79 948.083 1249.28 948.47 1248.78C965.685 1225.86 971.027 1202.34 973.402 1187.26C976.37 1190.88 1001.3 1215 1033.95 1210.18C1070.16 1204.75 1093.91 1166.15 1092.13 1130.57C1090.56 1107.49 1078.14 1090.45 1068.68 1080.66C1074.79 1072.92 1078.85 1065.92 1081.24 1061.26C1085.36 1067.34 1097.13 1081.33 1116.56 1088.62L1116.71 1088.67C1124.05 1091.2 1155.01 1101.87 1181.32 1081.93C1204.21 1064.96 1207.21 1037.1 1207.81 1031.51L1207.82 1031.46C1211.35 1001.66 1196.04 980.381 1192.51 976.125C1199.57 977.341 1210.76 978.557 1223.71 976.125C1230.19 974.908 1248.44 971.26 1261.39 957.882C1268.95 950.072 1270.69 943.265 1273.77 931.181C1275.48 924.447 1277.62 916.075 1281.41 904.977C1286.12 891.599 1293.18 872.14 1303.78 856.937C1312.02 845.383 1329.68 826.532 1368.54 815.587C1311.43 795.52 1294.95 771.804 1290.83 753.561C1289.81 748.32 1289.64 743.296 1289.46 738.14C1289.12 728.339 1288.76 718.062 1282.59 704.913C1274.84 688.348 1262.94 678.758 1254.7 672.111C1254.17 671.682 1253.65 671.265 1253.15 670.859C1230.78 653.224 1207.82 647.752 1193.1 645.319C1196.63 642.279 1220.18 616.739 1215.47 583.293C1210.17 546.199 1172.49 521.875 1137.76 523.7C1103.61 526.132 1083.01 554.105 1080.06 558.361C1076.79 552.998 1073.23 547.936 1069.44 543.197C1078.77 533.277 1090.49 516.58 1092.01 494.209C1093.79 458.627 1070.04 420.029 1033.83 414.601C1001.18 409.776 976.251 433.9 973.283 437.519C970.908 422.441 965.566 398.921 948.351 376.003C947.967 375.506 947.572 374.993 947.166 374.464L947.15 374.443L947.129 374.416C940.641 365.968 931.279 353.78 915.108 345.849C902.272 339.526 892.24 339.158 882.673 338.808C877.639 338.624 872.735 338.445 867.619 337.405C849.81 333.184 826.659 316.297 807.07 257.797C796.385 297.601 777.983 315.694 766.704 324.137C751.864 334.993 732.868 342.23 719.808 347.055C708.975 350.939 700.802 353.125 694.228 354.883C682.432 358.037 675.787 359.814 668.163 367.56C655.104 380.828 651.542 399.524 650.355 406.158C647.98 419.426 649.168 430.885 650.355 438.122C646.2 434.503 625.423 418.823 596.336 422.441L596.286 422.447C590.827 423.063 563.636 426.131 547.065 449.58C527.607 476.538 538.02 508.256 540.487 515.772L540.536 515.921C545.074 528.601 552.264 538.099 558.419 544.414C554.983 548.8 551.752 553.454 548.758 558.361C545.814 554.105 525.209 526.132 491.062 523.7C456.327 521.875 418.648 546.199 413.35 583.293C408.64 616.739 432.189 642.279 435.721 645.319C421.003 647.752 398.043 653.224 375.671 670.859C375.171 671.265 374.654 671.682 374.121 672.111C365.875 678.758 353.976 688.348 346.234 704.913C340.062 718.062 339.703 728.339 339.362 738.14C339.182 743.296 339.007 748.32 337.992 753.561C333.871 771.804 317.386 795.52 260.279 815.587C299.136 826.532 316.798 845.383 325.04 856.937C335.637 872.14 342.702 891.599 347.412 904.977C351.204 916.075 353.337 924.447 355.053 931.181C358.133 943.265 359.867 950.072 367.429 957.882C380.381 971.26 398.631 974.908 405.107 976.125C418.06 978.557 429.245 977.341 436.31 976.125C432.778 980.381 417.471 1001.66 421.003 1031.46L421.008 1031.51C421.61 1037.1 424.605 1064.96 447.496 1081.93C473.811 1101.87 504.774 1091.2 512.111 1088.67L512.257 1088.62C531.685 1081.33 543.459 1067.34 547.58 1061.26Z" fill="#D84E00"/>
<path d="M559.306 1079.59L570.578 1090.89L580.531 1080.96L571.935 1069.83L559.306 1079.59ZM547.58 1061.26L561.783 1053.98L549.49 1029.99L534.369 1052.3L547.58 1061.26ZM540.654 1108.86L525.628 1103.48L525.556 1103.68L525.49 1103.88L540.654 1108.86ZM540.606 1109.01L555.769 1113.98L555.77 1113.98L540.606 1109.01ZM547.184 1175.2L560.218 1165.99L560.172 1165.92L560.125 1165.86L547.184 1175.2ZM596.405 1202.33L594.615 1218.19L594.617 1218.19L596.405 1202.33ZM596.454 1202.34L598.425 1186.5L598.334 1186.49L598.243 1186.48L596.454 1202.34ZM650.474 1186.66L666.223 1189.24L673.393 1145.53L639.992 1174.62L650.474 1186.66ZM650.474 1218.62L634.763 1221.43L634.763 1221.43L650.474 1218.62ZM668.282 1257.22L656.908 1268.41L656.908 1268.41L668.282 1257.22ZM694.347 1269.9L698.47 1254.48L698.47 1254.48L694.347 1269.9ZM719.927 1277.72L725.458 1262.75L725.386 1262.73L725.314 1262.7L719.927 1277.72ZM766.823 1300.64L776.387 1287.87L776.317 1287.81L776.245 1287.76L766.823 1300.64ZM807.189 1366.98L791.774 1371.12L805.505 1422.27L822.323 1372.05L807.189 1366.98ZM867.738 1287.37L864.56 1271.73L864.307 1271.78L864.056 1271.84L867.738 1287.37ZM882.791 1285.97L882.208 1270.02L882.208 1270.02L882.791 1285.97ZM915.227 1278.93L908.199 1264.6L908.187 1264.61L908.175 1264.61L915.227 1278.93ZM947.248 1250.36L959.905 1260.09L959.909 1260.08L947.248 1250.36ZM947.279 1250.32L934.622 1240.6L934.618 1240.61L947.279 1250.32ZM948.47 1248.78L961.095 1258.54L961.163 1258.45L961.231 1258.36L948.47 1248.78ZM973.402 1187.26L985.741 1177.14L963.172 1149.62L957.636 1184.78L973.402 1187.26ZM1033.95 1210.18L1036.28 1225.97L1036.3 1225.96L1036.32 1225.96L1033.95 1210.18ZM1092.13 1130.57L1108.07 1129.77L1108.06 1129.63L1108.05 1129.49L1092.13 1130.57ZM1068.68 1080.66L1056.15 1070.77L1047.5 1081.72L1057.2 1091.75L1068.68 1080.66ZM1081.24 1061.26L1094.45 1052.3L1079.33 1029.99L1067.04 1053.98L1081.24 1061.26ZM1116.56 1088.62L1110.95 1103.56L1111.16 1103.64L1111.37 1103.71L1116.56 1088.62ZM1116.71 1088.67L1121.91 1073.58L1121.9 1073.58L1116.71 1088.67ZM1181.32 1081.93L1171.82 1069.11L1171.75 1069.16L1171.69 1069.21L1181.32 1081.93ZM1207.81 1031.51L1223.68 1033.22L1223.68 1033.22L1207.81 1031.51ZM1207.82 1031.46L1191.97 1029.58L1191.96 1029.67L1191.95 1029.76L1207.82 1031.46ZM1192.51 976.125L1195.22 960.396L1152.63 953.065L1180.23 986.317L1192.51 976.125ZM1223.71 976.125L1226.66 991.81L1226.66 991.81L1223.71 976.125ZM1261.39 957.882L1249.92 946.78L1249.92 946.78L1261.39 957.882ZM1273.77 931.181L1258.3 927.24L1258.3 927.24L1273.77 931.181ZM1281.41 904.977L1266.35 899.677L1266.33 899.747L1266.31 899.816L1281.41 904.977ZM1303.78 856.937L1290.79 847.669L1290.74 847.739L1290.69 847.811L1303.78 856.937ZM1368.54 815.587L1372.87 830.949L1421.45 817.263L1373.83 800.529L1368.54 815.587ZM1290.83 753.561L1275.16 756.595L1275.21 756.837L1275.26 757.077L1290.83 753.561ZM1289.46 738.14L1273.51 738.696L1273.51 738.696L1289.46 738.14ZM1282.59 704.913L1268.13 711.671L1268.13 711.683L1268.14 711.695L1282.59 704.913ZM1254.7 672.111L1264.71 659.685L1264.71 659.685L1254.7 672.111ZM1253.15 670.859L1263.21 658.467L1263.12 658.396L1263.03 658.325L1253.15 670.859ZM1193.1 645.319L1182.69 633.223L1156.81 655.498L1190.5 661.066L1193.1 645.319ZM1215.47 583.293L1231.27 581.068L1231.27 581.052L1231.27 581.036L1215.47 583.293ZM1137.76 523.7L1136.92 507.762L1136.77 507.77L1136.62 507.78L1137.76 523.7ZM1080.06 558.361L1066.44 566.673L1079.22 587.633L1093.19 567.439L1080.06 558.361ZM1069.44 543.197L1057.81 532.259L1048.31 542.356L1056.98 553.177L1069.44 543.197ZM1092.01 494.209L1107.93 495.29L1107.94 495.149L1107.95 495.007L1092.01 494.209ZM1033.83 414.601L1036.2 398.817L1036.18 398.815L1036.17 398.813L1033.83 414.601ZM973.283 437.519L957.517 440.001L963.053 475.155L985.623 447.64L973.283 437.519ZM948.351 376.003L961.112 366.418L961.045 366.328L960.976 366.24L948.351 376.003ZM947.166 374.464L959.824 364.743L959.814 364.73L959.805 364.718L947.166 374.464ZM947.15 374.443L934.486 384.156L934.498 384.172L934.511 384.189L947.15 374.443ZM947.129 374.416L959.793 364.703L959.786 364.694L947.129 374.416ZM915.108 345.849L908.056 360.166L908.068 360.172L908.08 360.178L915.108 345.849ZM882.673 338.808L883.256 322.859L883.256 322.859L882.673 338.808ZM867.619 337.405L863.938 352.935L864.188 352.994L864.441 353.046L867.619 337.405ZM807.07 257.797L822.204 252.729L805.387 202.508L791.656 253.659L807.07 257.797ZM766.704 324.137L776.127 337.019L776.198 336.967L776.269 336.914L766.704 324.137ZM719.808 347.055L725.195 362.078L725.267 362.052L725.339 362.026L719.808 347.055ZM694.228 354.883L690.105 339.465L690.105 339.465L694.228 354.883ZM668.163 367.56L679.538 378.756L679.538 378.756L668.163 367.56ZM650.355 406.158L634.645 403.346L634.645 403.346L650.355 406.158ZM650.355 438.122L639.874 450.158L673.274 479.244L666.104 435.538L650.355 438.122ZM596.336 422.441L598.126 438.301L598.216 438.29L598.306 438.279L596.336 422.441ZM596.286 422.447L598.076 438.306L598.076 438.306L596.286 422.447ZM547.065 449.58L560.006 458.921L560.053 458.856L560.099 458.791L547.065 449.58ZM540.487 515.772L555.651 510.794L555.651 510.794L540.487 515.772ZM540.536 515.921L525.372 520.898L525.438 521.1L525.509 521.299L540.536 515.921ZM558.419 544.414L570.982 554.257L579.591 543.27L569.848 533.274L558.419 544.414ZM548.758 558.361L535.631 567.439L549.596 587.633L562.383 566.673L548.758 558.361ZM491.062 523.7L492.196 507.78L492.048 507.77L491.899 507.762L491.062 523.7ZM413.35 583.293L397.55 581.036L397.548 581.052L397.546 581.068L413.35 583.293ZM435.721 645.319L438.324 661.066L472.012 655.498L446.133 633.223L435.721 645.319ZM375.671 670.859L365.791 658.325L365.702 658.395L365.614 658.467L375.671 670.859ZM374.121 672.111L384.137 684.537L384.137 684.537L374.121 672.111ZM346.234 704.913L360.682 711.695L360.687 711.683L360.693 711.671L346.234 704.913ZM339.362 738.14L323.411 737.584L323.411 737.584L339.362 738.14ZM337.992 753.561L353.56 757.077L353.614 756.837L353.661 756.595L337.992 753.561ZM260.279 815.587L254.988 800.529L207.368 817.263L255.952 830.949L260.279 815.587ZM325.04 856.937L338.133 847.811L338.083 847.739L338.033 847.669L325.04 856.937ZM347.412 904.977L362.514 899.816L362.49 899.747L362.466 899.677L347.412 904.977ZM355.053 931.181L370.519 927.24L370.519 927.24L355.053 931.181ZM367.429 957.882L378.895 946.78L378.895 946.78L367.429 957.882ZM405.107 976.125L402.162 991.81L402.162 991.81L405.107 976.125ZM436.31 976.125L448.592 986.317L476.186 953.065L433.602 960.396L436.31 976.125ZM421.003 1031.46L436.871 1029.75L436.862 1029.67L436.852 1029.58L421.003 1031.46ZM421.008 1031.51L436.877 1029.81L436.877 1029.8L421.008 1031.51ZM447.496 1081.93L457.133 1069.21L457.068 1069.16L457.003 1069.11L447.496 1081.93ZM512.111 1088.67L506.916 1073.58L506.913 1073.58L512.111 1088.67ZM512.257 1088.62L517.452 1103.71L517.661 1103.64L517.868 1103.56L512.257 1088.62ZM571.935 1069.83C566.99 1063.43 563.698 1057.71 561.783 1053.98L533.377 1068.54C536.017 1073.69 540.324 1081.12 546.676 1089.35L571.935 1069.83ZM555.681 1114.24C559.425 1103.78 565.493 1095.96 570.578 1090.89L548.033 1068.29C540.486 1075.82 531.341 1087.52 525.628 1103.48L555.681 1114.24ZM555.77 1113.98L555.819 1113.84L525.49 1103.88L525.441 1104.03L555.77 1113.98ZM560.125 1165.86C545.83 1146.05 553.194 1121.83 555.769 1113.98L525.442 1104.03C523.083 1111.22 509.622 1150.43 534.243 1184.54L560.125 1165.86ZM598.195 1186.47C592.984 1185.88 572.421 1183.26 560.218 1165.99L534.15 1184.41C555.089 1214.04 588.909 1217.55 594.615 1218.19L598.195 1186.47ZM598.243 1186.48L598.193 1186.47L594.617 1218.19L594.666 1218.2L598.243 1186.48ZM639.992 1174.62C637.293 1176.97 620.947 1189.3 598.425 1186.5L594.484 1218.18C630.136 1222.61 655.344 1203.58 660.955 1198.69L639.992 1174.62ZM666.184 1215.81C664.247 1204.99 665.196 1195.5 666.223 1189.24L634.724 1184.07C633.377 1192.29 631.951 1205.72 634.763 1221.43L666.184 1215.81ZM679.657 1246.02C670.365 1236.58 667.367 1222.42 666.184 1215.81L634.763 1221.43C635.955 1228.09 640.08 1251.32 656.908 1268.41L679.657 1246.02ZM698.47 1254.48C686.576 1251.3 683.917 1250.35 679.657 1246.02L656.908 1268.41C667.895 1279.58 678.525 1282.19 690.224 1285.31L698.47 1254.48ZM725.314 1262.7C713.826 1258.58 705.123 1256.26 698.47 1254.48L690.224 1285.31C696.718 1287.05 704.361 1289.1 714.54 1292.75L725.314 1262.7ZM776.245 1287.76C759.36 1275.41 738.335 1267.51 725.458 1262.75L714.396 1292.7C727.638 1297.59 744.604 1304.16 757.4 1313.52L776.245 1287.76ZM822.603 1362.84C810.917 1319.31 790.293 1298.28 776.387 1287.87L757.258 1313.42C765.91 1319.9 782.09 1335.04 791.774 1371.12L822.603 1362.84ZM864.056 1271.84C838.421 1277.92 812.407 1301.13 792.055 1361.91L822.323 1372.05C841.149 1315.83 861.437 1305.27 871.419 1302.9L864.056 1271.84ZM882.208 1270.02C877.344 1270.2 871.157 1270.39 864.56 1271.73L870.916 1303.01C874.551 1302.28 878.172 1302.11 883.375 1301.92L882.208 1270.02ZM908.175 1264.61C898.555 1269.35 891.427 1269.68 882.208 1270.02L883.375 1301.92C893.289 1301.56 906.227 1301.16 922.28 1293.25L908.175 1264.61ZM934.59 1240.64C928.138 1249.04 920.717 1258.46 908.199 1264.6L922.255 1293.26C942.078 1283.54 953.381 1268.58 959.905 1260.09L934.59 1240.64ZM934.618 1240.61L934.587 1240.65L959.909 1260.08L959.94 1260.04L934.618 1240.61ZM935.845 1239.01C935.44 1239.54 935.026 1240.07 934.622 1240.6L959.935 1260.05C960.347 1259.51 960.727 1259.01 961.095 1258.54L935.845 1239.01ZM957.636 1184.78C955.446 1198.68 950.68 1219.26 935.709 1239.19L961.231 1258.36C980.689 1232.46 986.608 1205.99 989.167 1189.74L957.636 1184.78ZM1031.62 1194.39C1019.82 1196.13 1008.99 1192.72 1000.24 1187.9C995.911 1185.52 992.315 1182.91 989.683 1180.74C986.892 1178.43 985.609 1176.98 985.741 1177.14L961.062 1197.38C963.88 1200.82 972.451 1209.04 984.851 1215.87C997.474 1222.81 1015.43 1229.05 1036.28 1225.97L1031.62 1194.39ZM1076.19 1131.37C1077.68 1161.15 1057.51 1190.51 1031.58 1194.39L1036.32 1225.96C1082.81 1218.99 1110.14 1171.16 1108.07 1129.77L1076.19 1131.37ZM1057.2 1091.75C1065.32 1100.16 1074.99 1113.83 1076.2 1131.65L1108.05 1129.49C1106.13 1101.16 1090.95 1080.74 1080.15 1069.57L1057.2 1091.75ZM1067.04 1053.98C1065.03 1057.9 1061.5 1063.99 1056.15 1070.77L1081.2 1090.55C1088.07 1081.85 1092.68 1073.94 1095.44 1068.54L1067.04 1053.98ZM1122.17 1073.68C1106.86 1067.93 1097.44 1056.72 1094.45 1052.3L1068.03 1070.21C1073.28 1077.96 1087.41 1094.72 1110.95 1103.56L1122.17 1073.68ZM1121.9 1073.58L1121.76 1073.53L1111.37 1103.71L1111.51 1103.76L1121.9 1073.58ZM1171.69 1069.21C1152.71 1083.59 1129.57 1076.22 1121.91 1073.58L1111.51 1103.76C1118.52 1106.18 1157.31 1120.14 1190.96 1094.66L1171.69 1069.21ZM1191.94 1029.81C1191.35 1035.31 1188.7 1056.59 1171.82 1069.11L1190.83 1094.75C1219.72 1073.33 1223.07 1038.9 1223.68 1033.22L1191.94 1029.81ZM1191.95 1029.76L1191.94 1029.81L1223.68 1033.22L1223.68 1033.17L1191.95 1029.76ZM1180.23 986.317C1182.49 989.038 1194.76 1006.03 1191.97 1029.58L1223.67 1033.34C1227.94 997.301 1209.6 971.725 1204.79 965.932L1180.23 986.317ZM1220.77 960.439C1210.37 962.39 1201.26 961.436 1195.22 960.396L1189.8 991.853C1197.89 993.245 1211.15 994.723 1226.66 991.81L1220.77 960.439ZM1249.92 946.78C1240.78 956.222 1227.14 959.243 1220.77 960.439L1226.66 991.81C1233.24 990.574 1256.09 986.297 1272.86 968.983L1249.92 946.78ZM1258.3 927.24C1255.18 939.481 1254.21 942.352 1249.92 946.78L1272.86 968.983C1283.69 957.791 1286.19 947.048 1289.23 935.122L1258.3 927.24ZM1266.31 899.816C1262.3 911.546 1260.04 920.431 1258.3 927.24L1289.23 935.122C1290.93 928.464 1292.93 920.603 1296.51 910.138L1266.31 899.816ZM1290.69 847.811C1278.68 865.041 1270.99 886.494 1266.35 899.677L1296.46 910.277C1301.24 896.704 1307.69 879.239 1316.87 866.064L1290.69 847.811ZM1364.21 800.225C1321.48 812.263 1300.9 833.495 1290.79 847.669L1316.77 866.206C1323.15 857.272 1337.89 840.802 1372.87 830.949L1364.21 800.225ZM1275.26 757.077C1281.1 782.927 1303.59 809.679 1363.25 830.644L1373.83 800.529C1319.28 781.36 1308.8 760.681 1306.4 750.044L1275.26 757.077ZM1273.51 738.696C1273.68 743.688 1273.87 749.937 1275.16 756.595L1306.5 750.527C1305.76 746.702 1305.59 742.903 1305.41 737.583L1273.51 738.696ZM1268.14 711.695C1272.85 721.724 1273.18 729.21 1273.51 738.696L1305.41 737.584C1305.06 727.469 1304.67 714.4 1297.03 698.131L1268.14 711.695ZM1244.68 684.537C1252.83 691.108 1262.08 698.728 1268.13 711.671L1297.04 698.155C1287.61 677.967 1273.05 666.408 1264.71 659.685L1244.68 684.537ZM1243.09 683.251C1243.62 683.677 1244.15 684.111 1244.68 684.538L1264.71 659.685C1264.18 659.253 1263.68 658.853 1263.21 658.467L1243.09 683.251ZM1190.5 661.066C1203.96 663.29 1223.9 668.127 1243.27 683.393L1263.03 658.325C1237.65 638.322 1211.68 632.213 1195.7 629.573L1190.5 661.066ZM1199.67 585.519C1201.41 597.935 1197.97 609.269 1193.24 618.296C1190.89 622.77 1188.33 626.477 1186.2 629.181C1183.94 632.051 1182.52 633.366 1182.69 633.223L1203.51 657.415C1206.88 654.513 1214.89 645.751 1221.51 633.12C1228.26 620.256 1234.24 602.097 1231.27 581.068L1199.67 585.519ZM1138.59 539.638C1166.84 538.154 1195.77 558.276 1199.67 585.55L1231.27 581.036C1224.57 534.122 1178.14 505.597 1136.92 507.762L1138.59 539.638ZM1093.19 567.439C1095.81 563.65 1112.64 541.489 1138.89 539.619L1136.62 507.78C1094.58 510.775 1070.2 544.559 1066.93 549.284L1093.19 567.439ZM1056.98 553.177C1060.35 557.383 1063.52 561.887 1066.44 566.673L1093.69 550.049C1090.06 544.109 1086.12 538.49 1081.89 533.217L1056.98 553.177ZM1076.08 493.129C1074.91 510.398 1065.8 523.771 1057.81 532.259L1081.06 554.135C1091.74 542.783 1106.06 522.762 1107.93 495.29L1076.08 493.129ZM1031.47 430.385C1057.39 434.271 1077.56 463.632 1076.07 493.412L1107.95 495.007C1110.02 453.622 1082.69 405.787 1036.2 398.817L1031.47 430.385ZM985.623 447.64C985.491 447.801 986.774 446.345 989.565 444.041C992.196 441.869 995.792 439.259 1000.12 436.876C1008.87 432.063 1019.7 428.646 1031.5 430.39L1036.17 398.813C1015.31 395.731 997.356 401.964 984.732 408.911C972.332 415.735 963.762 423.961 960.943 427.397L985.623 447.64ZM935.59 385.589C950.561 405.519 955.327 426.094 957.517 440.001L989.049 435.036C986.49 418.788 980.57 392.322 961.112 366.418L935.59 385.589ZM934.509 384.186C934.913 384.712 935.323 385.245 935.726 385.766L960.976 366.24C960.611 365.767 960.232 365.274 959.824 364.743L934.509 384.186ZM934.511 384.189L934.528 384.211L959.805 364.718L959.788 364.696L934.511 384.189ZM934.465 384.129L934.486 384.156L959.814 364.73L959.793 364.703L934.465 384.129ZM908.08 360.178C920.598 366.317 928.019 375.736 934.472 384.137L959.786 364.694C953.262 356.2 941.96 341.242 922.136 331.519L908.08 360.178ZM882.089 354.758C891.308 355.095 898.436 355.427 908.056 360.166L922.161 331.531C906.108 323.624 893.171 323.222 883.256 322.859L882.089 354.758ZM864.441 353.046C871.038 354.386 877.226 354.58 882.089 354.758L883.256 322.859C878.053 322.669 874.432 322.503 870.797 321.765L864.441 353.046ZM791.936 262.865C812.289 323.644 838.303 346.858 863.938 352.935L871.3 321.876C861.318 319.509 841.03 308.95 822.204 252.729L791.936 262.865ZM776.269 336.914C790.174 326.504 810.798 305.466 822.484 261.935L791.656 253.659C781.971 289.736 765.791 304.884 757.139 311.361L776.269 336.914ZM725.339 362.026C738.216 357.268 759.242 349.37 776.127 337.019L757.281 311.256C744.486 320.616 727.52 327.191 714.277 332.084L725.339 362.026ZM698.352 370.301C705.004 368.522 713.708 366.197 725.195 362.078L714.421 332.031C704.242 335.681 696.6 337.728 690.105 339.465L698.352 370.301ZM679.538 378.756C683.798 374.427 686.458 373.482 698.352 370.301L690.105 339.465C678.407 342.593 667.777 345.201 656.789 356.364L679.538 378.756ZM666.065 408.969C667.248 402.361 670.246 388.196 679.538 378.756L656.789 356.364C639.962 373.46 635.836 396.687 634.645 403.346L666.065 408.969ZM666.104 435.538C665.077 429.278 664.128 419.794 666.065 408.969L634.645 403.346C631.833 419.058 633.258 432.491 634.605 440.705L666.104 435.538ZM598.306 438.279C620.829 435.477 637.174 447.807 639.874 450.158L660.836 426.086C655.225 421.199 630.017 402.168 594.365 406.603L598.306 438.279ZM598.076 438.306L598.126 438.301L594.546 406.582L594.496 406.587L598.076 438.306ZM560.099 458.791C572.302 441.524 592.865 438.894 598.076 438.306L594.497 406.587C588.79 407.231 554.971 410.739 534.032 440.37L560.099 458.791ZM555.651 510.794C553.075 502.948 545.711 478.726 560.006 458.921L534.125 440.24C509.504 474.349 522.964 513.564 525.323 520.75L555.651 510.794ZM555.7 510.943L555.651 510.794L525.323 520.75L525.372 520.898L555.7 510.943ZM569.848 533.274C564.886 528.184 559.155 520.58 555.562 510.542L525.509 521.299C530.994 536.623 539.641 548.014 546.99 555.554L569.848 533.274ZM562.383 566.673C565.054 562.294 567.931 558.152 570.982 554.257L545.856 534.571C542.034 539.449 538.449 544.614 535.133 550.049L562.383 566.673ZM489.928 539.619C516.181 541.489 533.011 563.65 535.631 567.439L561.885 549.284C558.618 544.559 534.237 510.775 492.196 507.78L489.928 539.619ZM429.149 585.55C433.045 558.276 461.975 538.154 490.225 539.638L491.899 507.762C450.68 505.597 404.251 534.122 397.55 581.036L429.149 585.55ZM446.133 633.223C446.299 633.366 444.875 632.051 442.617 629.181C440.49 626.477 437.926 622.77 435.579 618.296C430.845 609.269 427.405 597.935 429.154 585.519L397.546 581.068C394.584 602.097 400.564 620.256 407.31 633.12C413.934 645.751 421.937 654.513 425.31 657.415L446.133 633.223ZM385.551 683.393C404.918 668.127 424.862 663.29 438.324 661.066L433.119 629.573C417.144 632.213 391.168 638.322 365.791 658.325L385.551 683.393ZM384.137 684.537C384.665 684.111 385.204 683.677 385.728 683.252L365.614 658.467C365.138 658.853 364.642 659.253 364.105 659.685L384.137 684.537ZM360.693 711.671C366.742 698.728 375.984 691.108 384.137 684.537L364.105 659.685C355.765 666.408 341.211 677.967 331.776 698.155L360.693 711.671ZM355.312 738.696C355.643 729.21 355.974 721.724 360.682 711.695L331.787 698.131C324.15 714.401 323.764 727.469 323.411 737.584L355.312 738.696ZM353.661 756.595C354.95 749.937 355.138 743.688 355.312 738.696L323.411 737.584C323.226 742.903 323.064 746.702 322.323 750.527L353.661 756.595ZM265.57 830.644C325.233 809.679 347.72 782.927 353.56 757.077L322.424 750.044C320.021 760.681 309.54 781.36 254.988 800.529L265.57 830.644ZM338.033 847.669C327.921 833.495 307.341 812.263 264.607 800.225L255.952 830.949C290.93 840.802 305.674 857.272 312.047 866.206L338.033 847.669ZM362.466 899.677C357.825 886.494 350.143 865.041 338.133 847.811L311.947 866.064C321.131 879.239 327.579 896.704 332.357 910.277L362.466 899.677ZM370.519 927.24C368.784 920.431 366.522 911.546 362.514 899.816L332.309 910.138C335.885 920.603 337.891 928.464 339.588 935.122L370.519 927.24ZM378.895 946.78C374.608 942.352 373.639 939.481 370.519 927.24L339.588 935.122C342.627 947.048 345.126 957.791 355.962 968.983L378.895 946.78ZM408.053 960.439C401.684 959.243 388.036 956.222 378.895 946.78L355.962 968.983C372.725 986.297 395.579 990.574 402.162 991.81L408.053 960.439ZM433.602 960.396C427.559 961.436 418.446 962.39 408.053 960.439L402.162 991.81C417.673 994.723 430.931 993.245 439.018 991.853L433.602 960.396ZM436.852 1029.58C434.06 1006.03 446.334 989.038 448.592 986.317L424.028 965.932C419.222 971.725 400.882 997.301 405.154 1033.34L436.852 1029.58ZM436.877 1029.8L436.871 1029.75L405.135 1033.17L405.14 1033.22L436.877 1029.8ZM457.003 1069.11C440.116 1056.59 437.469 1035.31 436.877 1029.81L405.14 1033.22C405.751 1038.9 409.094 1073.33 437.989 1094.75L457.003 1069.11ZM506.913 1073.58C499.245 1076.22 476.114 1083.59 457.133 1069.21L437.859 1094.66C471.509 1120.14 510.303 1106.18 517.31 1103.76L506.913 1073.58ZM507.061 1073.53L506.916 1073.58L517.306 1103.76L517.452 1103.71L507.061 1073.53ZM534.369 1052.3C531.378 1056.72 521.961 1067.93 506.645 1073.68L517.868 1103.56C541.408 1094.72 555.541 1077.96 560.792 1070.21L534.369 1052.3Z" fill="#2D517F" mask="url(#path-51-inside-1_718_11056)"/>
<path d="M449.443 816.967C466.495 811.403 491.444 800.813 512.444 778.377C530.213 759.531 529.495 749.12 550.316 725.428C568.623 704.607 587.29 683.428 616.188 680.017C638.624 677.325 669.675 685.043 684.034 709.812C694.803 728.479 696.957 758.274 680.624 772.813C672.368 779.992 658.547 784.479 645.983 780.172C642.752 779.095 631.983 774.787 628.214 764.915C625.521 757.556 627.496 750.197 631.085 738.351C632.701 732.787 634.496 728.12 635.932 725.248C631.983 723.454 623.367 720.582 612.778 722.556C592.854 726.325 584.059 744.454 582.982 746.967C575.803 762.761 580.47 777.479 581.726 780.89C576.7 780.89 570.239 781.608 563.418 784.121C543.495 791.838 535.059 809.608 532.905 814.633C534.162 818.403 540.623 836.71 559.47 845.146C567.367 848.736 575.085 849.275 579.752 849.275C578.495 853.403 575.444 866.147 581.906 879.788C582.624 881.583 592.316 901.685 613.137 904.198C623.008 905.454 631.085 902.044 634.855 900.07C632.521 897.377 625.701 888.044 626.06 875.121C626.239 862.018 633.957 847.48 645.803 843.172C663.752 836.711 686.906 855.198 693.188 874.403C702.163 901.326 679.368 934.531 653.162 944.224C612.239 959.301 566.649 915.865 560.905 910.48C534.341 884.993 536.854 865.967 509.033 843.531C488.213 826.659 465.418 820.018 449.443 816.967Z" fill="#75A9C9"/>
<path d="M1182.43 814.001C1165.38 808.437 1140.43 797.847 1119.43 775.411C1101.66 756.565 1102.38 746.154 1081.56 722.462C1063.25 701.641 1044.58 680.462 1015.69 677.052C993.249 674.359 962.198 682.077 947.839 706.847C937.07 725.513 934.916 755.308 951.249 769.847C959.506 777.026 973.326 781.514 985.89 777.206C989.121 776.129 999.89 771.821 1003.66 761.949C1006.35 754.59 1004.38 747.231 1000.79 735.385C999.172 729.821 997.377 725.154 995.941 722.283C999.89 720.488 1008.51 717.616 1019.1 719.59C1039.02 723.359 1047.81 741.488 1048.89 744.001C1056.07 759.796 1051.4 774.514 1050.15 777.924C1055.17 777.924 1061.63 778.642 1068.45 781.155C1088.38 788.873 1096.81 806.642 1098.97 811.668C1097.71 815.437 1091.25 833.745 1072.4 842.181C1064.51 845.77 1056.79 846.309 1052.12 846.309C1053.38 850.437 1056.43 863.181 1049.97 876.822C1049.25 878.617 1039.56 898.719 1018.74 901.232C1008.86 902.489 1000.79 899.078 997.018 897.104C999.352 894.412 1006.17 885.078 1005.81 872.155C1005.63 859.053 997.916 844.514 986.07 840.206C968.121 833.745 944.967 852.232 938.685 871.437C929.71 898.36 952.505 931.566 978.711 941.258C1019.63 956.335 1065.22 912.899 1070.97 907.514C1097.53 882.027 1095.02 863.001 1122.84 840.565C1143.66 823.693 1166.46 817.052 1182.43 814.001Z" fill="#75A9C9"/>
<path d="M812.647 441.331C818.212 458.382 828.801 483.331 851.237 504.331C870.084 522.101 880.494 521.383 904.186 542.203C925.007 560.511 946.187 579.178 949.597 608.075C952.289 630.512 944.571 661.563 919.802 675.922C901.135 686.691 871.34 688.845 856.801 672.512C849.622 664.255 845.135 650.435 849.443 637.871C850.519 634.64 854.827 623.87 864.699 620.101C872.058 617.409 879.417 619.383 891.263 622.973C896.827 624.588 901.494 626.383 904.366 627.819C906.161 623.871 909.033 615.255 907.058 604.665C903.289 584.742 885.161 575.947 882.648 574.87C866.853 567.691 852.135 572.357 848.725 573.614C848.725 568.588 848.007 562.127 845.494 555.306C837.776 535.383 820.006 526.947 814.981 524.793C811.212 526.049 792.904 532.511 784.468 551.357C780.878 559.255 780.34 566.973 780.34 571.639C776.211 570.383 763.468 567.332 749.827 573.793C748.032 574.511 727.929 584.204 725.416 605.024C724.16 614.896 727.57 622.973 729.544 626.742C732.237 624.409 741.57 617.588 754.493 617.947C767.596 618.127 782.134 625.845 786.442 637.691C792.904 655.64 774.416 678.794 755.211 685.076C728.288 694.05 695.083 671.255 685.39 645.05C670.313 604.127 713.75 558.537 719.134 552.793C744.621 526.229 763.647 528.742 786.083 500.921C802.955 480.1 809.596 457.305 812.647 441.331Z" fill="#75A9C9"/>
<path d="M811.046 1177.73C816.61 1160.68 827.2 1135.73 849.636 1114.73C868.482 1096.96 878.892 1097.68 902.585 1076.86C923.405 1058.55 944.585 1039.89 947.995 1010.99C950.688 988.553 942.97 957.502 918.2 943.143C899.533 932.373 869.738 930.219 855.2 946.553C848.02 954.809 843.533 968.63 847.841 981.194C848.918 984.425 853.226 995.194 863.097 998.963C870.456 1001.66 877.815 999.681 889.662 996.091C895.226 994.476 899.892 992.681 902.764 991.245C904.559 995.194 907.431 1003.81 905.457 1014.4C901.687 1034.32 883.559 1043.12 881.046 1044.19C865.251 1051.37 850.533 1046.71 847.123 1045.45C847.123 1050.48 846.405 1056.94 843.892 1063.76C836.174 1083.68 818.405 1092.12 813.379 1094.27C809.61 1093.02 791.302 1086.55 782.866 1067.71C779.277 1059.81 778.738 1052.09 778.738 1047.43C774.61 1048.68 761.866 1051.73 748.225 1045.27C746.43 1044.55 726.328 1034.86 723.815 1014.04C722.558 1004.17 725.969 996.091 727.943 992.322C730.635 994.656 739.969 1001.48 752.892 1001.12C765.994 1000.94 780.533 993.22 784.841 981.373C791.302 963.425 772.815 940.271 753.61 933.989C726.686 925.014 693.481 947.809 683.789 974.014C668.712 1014.94 712.148 1060.53 717.533 1066.27C743.02 1092.84 762.046 1090.32 784.482 1118.14C801.354 1138.96 807.995 1161.76 811.046 1177.73Z" fill="#75A9C9"/>
<ellipse cx="823.902" cy="801.231" rx="75.4872" ry="51.87" fill="#ECE1CF"/>
<ellipse cx="823.864" cy="801.231" rx="17.0803" ry="51.87" fill="#2D517F"/>
</svg>
