<svg width="801" height="642" viewBox="0 0 801 642" fill="none" xmlns="http://www.w3.org/2000/svg">
<circle cx="411.193" cy="171.374" r="14.3847" transform="rotate(26.965 411.193 171.374)" fill="#D84E00"/>
<circle cx="460.513" cy="203.124" r="4.77548" transform="rotate(26.965 460.513 203.124)" stroke="#ECE1CF"/>
<circle cx="792.177" cy="205.434" r="4.77548" transform="rotate(26.965 792.177 205.434)" stroke="#ECE1CF"/>
<circle cx="285.177" cy="224.928" r="51.4788" transform="rotate(26.965 285.177 224.928)" fill="#D84E00"/>
<circle cx="762.065" cy="235.517" r="14.3847" transform="rotate(26.965 762.065 235.517)" fill="#2D517F"/>
<path d="M293.75 282.289C268.693 278.887 253.413 265.422 248.755 261.219C254.223 258.487 272.799 249.575 297.589 252.966C303.989 253.755 324.744 257.523 342.583 274.037C337.383 276.779 318.807 285.691 293.75 282.289Z" fill="#75A9C9"/>
<path d="M266.934 245.515C260.556 255.952 251.623 260.101 248.856 261.347C248.709 258.395 248.373 248.435 254.693 238.115C256.287 235.434 261.99 226.974 272.771 222.283C272.975 225.12 273.311 235.079 266.934 245.515Z" fill="#75A9C9"/>
<path d="M249.947 574.174C259.968 560.548 279.941 529.774 284.13 485.746C289.292 432.038 275.876 390.915 266.986 375.136C255.058 354.582 223.925 323.377 181.469 307.025C164.035 300.449 148.996 292.927 135.974 277.733C121.389 260.716 120.401 238.178 120.089 233.39C119.291 218.694 122.557 207.264 125.145 200.206C117.626 200.528 105.505 201.626 91.387 206.538C77.5987 211.59 67.0926 215.309 62.9241 225.194C57.3661 238.374 67.4712 253.114 69.0859 255.735C64.814 256.65 56.3222 259.279 48.4205 266.037C44.1657 269.676 35.2394 277.942 35.2209 289.965C35.4283 300.531 42.9637 310.306 54.0421 315.366C51.0379 316.039 41.0876 318.441 34.1408 327.542C24.6757 339.85 28.1993 354.531 28.8762 357.533C32.8859 374.748 47.6976 382.934 50.0071 383.908C46.829 386.837 38.0415 394.774 35.4007 408.408C34.1673 414.097 31.7524 426.274 39.8088 436.657C48.907 448.255 64.2751 447.751 65.8727 447.648C64.4832 450.943 61.0265 461.904 65.0019 473.671C70.1233 488.25 83.0422 494.474 87.6611 496.422C100.389 502.177 112.18 500.94 116.921 499.835C114.768 493.882 111.886 484.129 112.513 471.586C112.722 467.405 114.026 450.491 122.518 440.489C137.922 423.312 173.919 429.178 192.777 437.907C232.194 456.858 253.027 510.662 249.947 574.174Z" fill="#2D517F"/>
<path d="M652.015 260.095C652.785 268.587 653.221 289.322 641.252 311.414C632.466 327.998 620.832 337.849 613.49 342.658C617.096 345.232 629.371 353.831 634.03 370.286C640.915 396.11 622.5 417.33 620.838 418.737C626.731 421.485 646.424 432.947 656.496 457.48C669.069 488.336 655.789 516.463 653.853 520.916C620.493 494.999 592.769 491.744 578.146 492.167C563.177 492.18 550.151 496.175 523.338 504.106C471.306 519.323 470.193 525.405 448.72 527.193C419.612 526.516 389.932 506.628 376.254 479.522C356.049 439.652 376.869 395.997 385.308 379.003C395.752 356.795 417.215 330.254 425.37 311.735C433.162 289.653 437.671 285.835 409.467 232.294C418.753 231.465 430.071 222.926 456.351 237.955C475.697 249.008 485.898 263.583 490.896 272.013C492.211 270.196 504.95 256.596 522.416 258.689C539.536 260.372 554.174 276.818 555.025 297.2C563.403 289.402 578.708 277.147 600.947 268.868C623.185 260.589 641.273 260.046 652.015 260.095Z" fill="#D84E00"/>
<path d="M339.775 547.866C354.194 540.266 376.888 530.696 404.809 531.198C428.345 531.534 434.68 538.59 463.307 540.004C488.471 541.239 514.096 542.467 534.606 525.778C550.56 512.849 565.175 487.714 558.107 462.675C552.748 443.84 534.679 423.581 514.861 425.033C504.954 425.875 493.282 432.049 488.141 442.969C486.799 445.758 482.794 455.507 486.847 464.212C489.943 470.625 495.992 473.994 505.989 479.149C510.64 481.616 514.819 483.399 517.601 484.28C516.273 487.991 512.694 495.427 504.705 501.084C489.64 511.692 472.251 505.957 469.931 505.069C455.087 499.757 448.441 487.4 447.012 484.422C443.831 487.7 439.274 491.46 433.32 494.318C415.679 502.428 398.752 496.685 394.111 494.91C392.448 491.705 384.597 475.906 391.021 458.277C393.677 450.854 398.209 445.48 401.163 442.436C397.675 440.644 387.433 434.57 382.625 421.723C381.909 420.119 374.932 401.077 386.468 385.908C391.895 378.675 399.23 375.565 402.903 374.356C403.183 377.582 404.954 387.936 413.609 395.88C422.268 404.054 436.634 408.22 446.939 403.22C462.511 395.603 465.106 368.804 456.556 352.554C444.676 329.664 408.595 323.518 385.691 334.476C349.963 351.625 349.442 408.844 349.319 415.997C349.132 449.451 363.131 459.851 360.158 492.193C357.987 516.448 347.894 535.517 339.775 547.866Z" fill="#75A9C9"/>
</svg>
