<svg width="566" height="139" viewBox="0 0 566 139" fill="none" xmlns="http://www.w3.org/2000/svg">
<circle cx="69.7653" cy="69.4546" r="51.4788" transform="rotate(26.965 69.7653 69.4546)" fill="#D84E00"/>
<circle cx="546.653" cy="80.0437" r="14.3847" transform="rotate(26.965 546.653 80.0437)" fill="#2D517F"/>
<path d="M78.3377 126.815C53.2806 123.414 38.0011 109.948 33.3433 105.745C38.8111 103.014 57.387 94.1015 82.1765 97.4928C88.5772 98.2817 109.332 102.049 127.171 118.563C121.971 121.305 103.395 130.217 78.3377 126.815Z" fill="#75A9C9"/>
<path d="M51.5216 90.0417C45.1443 100.478 36.2105 104.628 33.4435 105.874C33.2966 102.921 32.9604 92.9616 39.281 82.6417C40.8746 79.9602 46.5776 71.5005 57.3591 66.8097C57.5627 69.6459 57.8989 79.6054 51.5216 90.0417Z" fill="#75A9C9"/>
</svg>
