<svg width="283" height="302" viewBox="0 0 283 302" fill="none" xmlns="http://www.w3.org/2000/svg">
<path d="M10.1361 5.53769C9.89202 4.65985 9.65234 3.77842 9.41711 2.89342C4.11046 18.8921 -3.88217 50.604 4.07105 89.0509C14.2787 138.637 37.6695 171.806 49.9998 183.5M10.1361 5.53769C10.4242 4.62948 10.7072 3.76348 10.9823 2.94106C26.1006 59.4006 59.2401 100.7 99.2034 106.712C118.524 109.33 152.424 104.646 161.492 84.9875C166.344 73.6728 162.841 58.1456 161.873 54.3388C159.204 43.8418 154.529 36.2769 151.015 31.4389C151.401 31.2175 151.847 30.9769 152.35 30.7249M10.1361 5.53769C4.9154 21.9955 -1.99457 52.3242 5.53996 88.7471L5.54026 88.7485C15.6883 138.046 38.9304 170.931 51.0252 182.405M10.1361 5.53769C25.5829 61.0928 58.6585 102.13 98.9802 108.195L98.9911 108.197L99.002 108.199C108.854 109.533 122.363 109.007 134.59 105.65C146.762 102.308 158.041 96.05 162.854 85.6158L162.862 85.5973L162.87 85.5787C165.433 79.6037 165.758 72.6165 165.362 66.7465C164.963 60.8495 163.823 55.9193 163.327 53.9692C160.627 43.3479 155.918 35.6627 152.35 30.7249M152.35 30.7249C152.04 30.296 151.739 29.8879 151.448 29.5004C156.085 27.1296 165.562 23.7187 177.297 25.2031C181.977 25.6738 195.281 27.6863 203.9 39.3442M152.35 30.7249C156.86 28.4636 165.923 25.2763 177.109 26.6913L177.128 26.6937L177.147 26.6956C181.736 27.1571 194.467 29.1152 202.689 40.2293M203.9 39.3442C209.845 47.5894 210.55 56.8468 210.41 61.2933C210.12 61.39 209.906 61.4678 209.776 61.5173L210.308 62.9196L211.801 63.0697C211.82 62.8745 211.839 62.6556 211.856 62.4144C216.007 61.2077 227.167 58.9468 236.717 65.5756M203.9 39.3442L202.684 40.2215C202.686 40.2241 202.687 40.2267 202.689 40.2293M203.9 39.3442L202.694 40.236C202.693 40.2337 202.691 40.2316 202.689 40.2293M236.717 65.5756C246.809 72.6606 248.007 84.2467 248.473 89.689C249.715 101.192 245.37 110.006 242.952 114.29C242.684 114.247 242.463 114.217 242.293 114.2L242.143 115.693L243.44 116.448L243.535 116.284C243.594 116.182 243.657 116.075 243.721 115.964C248.476 116.984 261.133 121.076 268.378 133.506M236.717 65.5756L235.855 66.8033C235.856 66.804 235.857 66.8046 235.857 66.8053M236.717 65.5756L235.861 66.8078C235.86 66.807 235.859 66.8061 235.857 66.8053M268.378 133.506C268.401 133.546 268.425 133.588 268.45 133.633C270.04 136.398 276.949 148.419 271.942 161.854C268.935 170.014 262.95 174.78 259.449 177.061C258.855 176.954 258.257 176.861 257.654 176.783L257.46 178.27L258.205 179.572C258.594 179.35 259.124 179.043 259.756 178.645C270.055 180.674 278.462 187.075 281.354 195.848M268.378 133.506L267.077 134.252L267.079 134.257C263.088 127.411 257.37 123.194 252.331 120.654C247.271 118.102 242.977 117.284 241.993 117.185L239.674 116.952L240.847 114.938L240.923 114.808C243.003 111.238 248.308 102.135 246.982 89.85L246.98 89.8335L246.979 89.8169C246.512 84.3656 245.33 73.457 235.857 66.8053M268.378 133.506L267.082 134.261L267.136 134.356C268.7 137.079 275.294 148.563 270.537 161.33L270.535 161.335C267.013 170.891 259.164 175.568 256.716 176.968L252.844 179.181L257.266 179.757C268.173 181.179 277.039 187.573 279.925 196.303M281.354 195.848C284.659 206.634 278.938 216.513 276.128 220.951C271.513 228.241 265.591 232.762 261.809 235.094C261.659 234.966 261.532 234.857 261.432 234.77L260.443 235.897L261.175 237.207C261.328 237.121 261.486 237.032 261.649 236.937C265.55 240.338 275.588 249.825 274.406 261.582C273.414 271.445 265.257 277.644 254.533 285.796C254.368 285.921 254.202 286.047 254.036 286.173M281.354 195.848L279.92 196.287C279.922 196.293 279.923 196.298 279.925 196.303M281.354 195.848L279.93 196.318C279.928 196.313 279.926 196.308 279.925 196.303M254.036 286.173C243.564 293.868 233.725 298.153 227.044 300.623C227.067 300.102 227.088 299.561 227.103 299M254.036 286.173L253.148 284.964C253.145 284.967 253.142 284.969 253.138 284.972M254.036 286.173L253.128 284.979C253.132 284.977 253.135 284.974 253.138 284.972M227.103 299C226.578 299.197 226.072 299.383 225.585 299.559C225.827 292.484 225.305 282.03 220.881 270.024C220.833 269.898 220.78 269.757 220.722 269.602C218.841 264.624 211.632 245.541 194.387 234.649C178.513 224.622 162.949 222.032 145.5 220.951M227.103 299C233.681 296.53 243.116 292.334 253.138 284.972M227.103 299C227.298 291.813 226.674 281.406 222.289 269.506L222.286 269.498L222.283 269.49C222.234 269.36 222.178 269.214 222.117 269.052C220.228 264.046 212.869 244.549 195.189 233.381C179.003 223.158 163.146 220.541 145.598 219.454M145.5 220.951C102.912 218.017 66.3736 198.636 49.9998 183.5M145.5 220.951L145.603 219.455C145.601 219.455 145.6 219.454 145.598 219.454M145.5 220.951L145.593 219.454C145.594 219.454 145.596 219.454 145.598 219.454M49.9998 183.5L51.032 182.412C51.0297 182.409 51.0275 182.407 51.0252 182.405M49.9998 183.5L51.018 182.399C51.0204 182.401 51.0228 182.403 51.0252 182.405M51.0252 182.405C67.1493 197.306 103.358 216.543 145.598 219.454M202.689 40.2293C209.195 49.2595 209.134 59.609 208.816 62.7695L208.573 65.183L210.841 64.3219C211.45 64.0907 215.052 62.8329 219.854 62.588C224.651 62.3435 230.536 63.1129 235.857 66.8053M279.925 196.303C283.002 206.375 277.671 215.71 274.861 220.149C269.818 228.114 263.153 232.664 259.711 234.588L257.857 235.625L259.454 237.025C259.575 237.131 259.726 237.261 259.904 237.413C261.369 238.667 264.622 241.454 267.543 245.346C270.826 249.721 273.531 255.291 272.913 261.431C272.453 266.011 270.312 269.782 266.86 273.483C263.462 277.124 258.896 280.595 253.561 284.651C253.42 284.757 253.28 284.864 253.138 284.972" stroke="#ECE1CF" stroke-width="3"/>
</svg>
