<svg width="32" height="24" viewBox="0 0 32 24" fill="none" xmlns="http://www.w3.org/2000/svg">
<path d="M17.7029 19.7852H14.298L13.0435 16.5082H5.20959L3.95514 19.7852H0.550194L7.25768 2.70924H10.9954L17.7029 19.7852ZM12.1987 13.8713L9.12656 5.73016L6.05443 13.8713H12.1987ZM29.7316 19.7852H27.0435V18.4539C26.0877 19.5462 24.7565 20.0924 23.0497 20.0924C21.9233 20.0924 20.9249 19.734 20.0544 19.0171C19.184 18.2832 18.7488 17.2763 18.7488 15.9962C18.7488 14.682 19.1754 13.6836 20.0288 13.0009C20.8992 12.3182 21.9062 11.9768 23.0497 11.9768C24.8077 11.9768 26.1389 12.5059 27.0435 13.5641V11.7208C27.0435 11.004 26.779 10.4408 26.2499 10.0311C25.7208 9.62153 25.021 9.41672 24.1506 9.41672C22.7681 9.41672 21.5478 9.93728 20.4896 10.9784L19.3888 9.10951C20.7883 7.77825 22.5207 7.11262 24.5858 7.11262C26.1048 7.11262 27.3422 7.47104 28.298 8.18787C29.2537 8.9047 29.7316 10.0397 29.7316 11.5928V19.7852ZM24.0994 18.2491C25.4477 18.2491 26.4291 17.8224 27.0435 16.969V15.1002C26.4291 14.2468 25.4477 13.8201 24.0994 13.8201C23.3314 13.8201 22.6999 14.0249 22.2049 14.4345C21.7099 14.8441 21.4625 15.3818 21.4625 16.0474C21.4625 16.713 21.7099 17.2506 22.2049 17.6603C22.6999 18.0528 23.3314 18.2491 24.0994 18.2491Z" fill="#ECE1CF"/>
</svg>
