<svg width="289" height="317" viewBox="0 0 289 317" fill="none" xmlns="http://www.w3.org/2000/svg">
<path d="M14.7479 10.9418L13.5151 6.12171L11.8782 10.82C6.61439 25.9281 -2.88199 59.3395 5.60214 100.354C15.8674 150.22 39.4001 183.669 51.9678 195.588L51.9747 195.595L51.9818 195.601C68.6082 210.971 105.47 230.49 148.397 233.447L148.407 233.448C165.756 234.522 181.024 237.088 196.587 246.917C213.395 257.535 220.455 276.203 222.326 281.153C222.381 281.298 222.431 281.43 222.477 281.551C227.156 294.251 227.381 305.179 227.017 312.098L226.898 314.344L229.017 313.59C235.749 311.197 246.462 306.804 257.925 298.382L257.935 298.375L257.944 298.367L258.5 297.945C263.729 293.971 268.478 290.362 272.053 286.529C275.791 282.523 278.351 278.167 278.898 272.732C279.624 265.518 276.434 259.198 272.943 254.546C270.456 251.232 267.738 248.662 265.995 247.122C269.921 244.64 275.786 240.035 280.396 232.753C283.204 228.317 289.31 217.903 285.789 206.409L285.784 206.393L285.779 206.378C282.819 197.399 274.548 190.895 264.488 188.488C268.186 185.865 273.516 181.058 276.348 173.378C281.604 159.274 274.379 146.714 272.763 143.906C272.733 143.854 272.705 143.805 272.679 143.76L272.674 143.751C268.314 136.271 262.086 131.7 256.682 128.975C253.007 127.122 249.674 126.104 247.498 125.6C250.007 121.076 254.212 112.127 252.966 100.545C252.501 95.1036 251.278 82.8587 240.579 75.3478L240.572 75.3433C234.532 71.1506 227.917 70.3259 222.702 70.5918C219.463 70.7569 216.722 71.3442 214.921 71.8374C214.998 67.0122 214.101 57.7666 208.117 49.4669L208.112 49.4596L208.107 49.4523C199.101 37.2728 185.254 35.1958 180.466 34.7125C167.057 33.0216 156.502 37.5145 152.361 39.9296L150.903 40.78L151.919 42.1282C155.429 46.7861 160.584 54.5537 163.419 65.7083C163.891 67.565 164.987 72.3017 165.368 77.9487C165.752 83.6161 165.404 90.0415 163.121 95.3775C158.861 104.591 148.662 110.499 136.795 113.757C124.979 117.001 111.883 117.508 102.416 116.227C62.7462 110.253 29.4782 68.5352 14.7479 10.9418Z" fill="#D75014" stroke="#D75014" stroke-width="3"/>
</svg>
