<svg width="493" height="26" viewBox="0 0 493 26" fill="none" xmlns="http://www.w3.org/2000/svg">
<path d="M492.609 13.2487C492.282 12.7869 491.409 11.7214 489.846 11.1175C488.682 10.6558 487.664 10.6558 487.082 10.7268C487.155 10.4427 487.41 9.48366 486.937 8.45361C486.173 6.85526 484.319 6.57111 484.173 6.57111C484.355 6.1804 484.864 4.75965 484.319 3.09025C483.628 0.994633 481.737 0.142172 481.446 9.77627e-05C480.864 2.73506 479.592 4.08479 478.828 4.68861C478.064 5.32795 477.228 5.68315 475.519 6.42905C472.21 7.88533 471.701 7.56564 470.719 8.45361C469.265 9.7323 468.61 12.0055 469.083 13.9591C469.774 16.8361 472.719 18.1503 473.883 18.6476C475.373 19.3224 475.81 19.0738 476.901 19.5711C478.355 20.2815 480.028 21.8798 481.01 26C481.519 25.6448 482.901 24.6148 483.591 22.7322C484.101 21.347 483.991 20.1749 483.882 19.5355C484.028 19.5711 485.264 19.7131 486.064 18.8607C486.864 18.0438 486.9 16.5875 486.064 15.5219C486.828 15.5574 488.137 15.5219 489.628 14.9891C491.119 14.4563 492.064 13.7104 492.609 13.2487Z" fill="#ECE1CF"/>
<circle r="3.71427" transform="matrix(4.37114e-08 1 1 -4.37114e-08 458.714 13.0004)" fill="#ECE1CF"/>
<line x1="4.37114e-08" y1="12.5" x2="435" y2="12.5" stroke="#ECE1CF"/>
</svg>
