<svg width="18" height="24" viewBox="0 0 18 24" fill="none" xmlns="http://www.w3.org/2000/svg">
<path fill-rule="evenodd" clip-rule="evenodd" d="M8.71509 22.8988C4.56217 22.8988 1.01562 22.2457 1.01562 19.6299C1.01562 17.0143 4.53967 14.5996 8.71509 14.5996C12.8682 14.5996 16.4147 16.9909 16.4147 19.6066C16.4147 22.2212 12.8907 22.8988 8.71509 22.8988Z" fill="#ECE1CF" stroke="#ECE1CF" stroke-width="1.68736" stroke-linecap="round" stroke-linejoin="round"/>
<path fill-rule="evenodd" clip-rule="evenodd" d="M8.70085 10.9745C11.4263 10.9745 13.6351 8.74211 13.6351 5.98779C13.6351 3.23345 11.4263 1 8.70085 1C5.97557 1 3.76565 3.23345 3.76565 5.98779C3.75645 8.73281 5.95001 10.9653 8.66609 10.9745C8.67836 10.9745 8.68961 10.9745 8.70085 10.9745Z" fill="#ECE1CF" stroke="#ECE1CF" stroke-width="1.68736" stroke-linecap="round" stroke-linejoin="round"/>
</svg>
