<svg width="343" height="347" viewBox="0 0 343 347" fill="none" xmlns="http://www.w3.org/2000/svg">
<path d="M317.608 95.2583L317.614 95.246C330.738 71.022 330.857 48.2186 330.072 37.7656C317.529 37.7689 297.279 38.6829 272.576 47.8791C246.951 57.4185 229.314 71.5413 219.661 80.5256L217.276 82.7451L217.14 79.4901C216.176 56.4012 199.611 37.9986 180.563 36.1259L180.547 36.1243L180.531 36.1224C170.813 34.9579 162.367 38.1535 156.113 41.9584C149.832 45.7791 145.899 50.1304 145.262 51.011L143.922 52.8623L142.756 50.8965C137.019 41.218 125.318 24.5004 103.122 11.8194L103.121 11.8191C88.0402 3.1945 77.3887 1.40369 69.2609 1.8055C65.1741 2.00753 61.6708 2.76603 58.4697 3.55226C57.9544 3.67883 57.4429 3.80734 56.9352 3.93489C55.1258 4.38948 53.3653 4.83179 51.6575 5.12986C67.3329 35.032 74.1058 51.4992 75.7686 63.6514C77.2738 74.6506 74.5722 82.1003 70.8624 92.3305C70.3402 93.7705 69.798 95.2656 69.2448 96.8334L69.2259 96.8869L69.203 96.9388C64.448 107.737 55.8808 120.799 47.0594 134.249L46.7839 134.669C37.8228 148.332 28.6094 162.414 22.5893 175.215L22.5825 175.23L22.5754 175.244C17.6765 185.109 9.24332 202.6 4.94134 223.362C0.640711 244.118 0.491767 268.031 12.0389 290.817L12.04 290.819C27.7102 321.874 61.7154 344.635 94.9456 345.442C107.174 344.417 113.584 342.187 124.518 337.975C125.299 337.674 126.103 337.364 126.933 337.043C137.811 332.836 153.189 326.89 181.361 318.651C182.377 318.351 183.375 318.055 184.358 317.764C213.462 309.15 228.419 304.722 245.51 304.703C262.612 304.212 294.577 307.991 332.986 337.285C336.717 328.669 348.487 298.849 335.277 266.425C323.758 238.369 301.222 225.261 294.555 222.153L292.432 221.163L294.22 219.649C294.556 219.364 296.17 217.64 298.308 214.649C300.417 211.7 302.973 207.607 305.223 202.646C309.727 192.719 312.969 179.41 309.087 164.835C303.873 146.436 290.232 136.705 285.908 133.621L285.771 133.523L283.986 132.249L285.82 131.047C294.194 125.562 307.53 114.28 317.608 95.2583Z" stroke="#ECE1CF" stroke-width="3"/>
</svg>
