<svg width="300" height="401" viewBox="0 0 300 401" fill="none" xmlns="http://www.w3.org/2000/svg">
<mask id="mask0_655_9899" style="mask-type:alpha" maskUnits="userSpaceOnUse" x="0" y="0" width="300" height="401">
<rect y="0.186035" width="300" height="400" fill="#C4C4C4"/>
</mask>
<g mask="url(#mask0_655_9899)">
<rect y="0.186035" width="300" height="400" fill="#2D517F"/>
<circle cx="149.606" cy="-16.2075" r="318.763" fill="#75A9C9" stroke="#2D517F" stroke-width="6.31213"/>
<circle cx="150.867" cy="-16.2072" r="257.219" fill="#ECE1CF" stroke="#2D517F" stroke-width="6.31213"/>
<path d="M167.422 271.66C166.863 270.825 165.282 268.97 162.397 267.857C160.257 267.022 158.489 267.022 157.373 267.208C157.466 266.651 157.931 264.982 157.093 263.127C155.698 260.251 152.348 259.787 152.069 259.787C152.348 259.045 153.278 256.541 152.255 253.573C150.952 249.862 147.603 248.286 147.044 248.1C146.021 253.016 143.788 255.428 142.392 256.541C140.996 257.654 139.507 258.303 136.437 259.695C130.482 262.385 129.551 261.735 127.783 263.405C125.178 265.724 124.062 269.805 124.899 273.33C126.202 278.524 131.505 280.843 133.645 281.678C136.344 282.884 137.088 282.42 139.135 283.347C141.741 284.646 144.811 287.429 146.579 294.849C147.51 294.2 149.929 292.345 151.231 288.913C152.162 286.408 151.883 284.275 151.697 283.162C151.976 283.255 154.209 283.44 155.605 281.956C157 280.472 157.093 277.875 155.605 275.927C157 276.02 159.327 275.927 162.025 274.907C164.816 273.886 166.491 272.495 167.422 271.66Z" fill="#D75014"/>
<path d="M218.688 264.426C218.967 263.406 219.897 261.179 222.13 259.231C223.805 257.747 225.573 257.191 226.597 257.005C226.317 256.542 225.294 255.057 225.573 253.017C225.945 249.863 228.923 248.286 229.202 248.193C228.644 247.637 226.969 245.504 226.969 242.35C226.969 238.361 229.667 235.857 230.039 235.393C232.645 239.753 235.529 241.237 237.204 241.886C238.879 242.535 240.554 242.628 243.81 242.906C250.324 243.463 250.975 242.628 253.208 243.556C256.465 244.854 258.884 248.379 259.163 251.996C259.628 257.284 255.348 261.179 253.673 262.756C251.533 264.797 250.603 264.611 249.021 266.095C246.974 268.136 245.02 271.846 245.764 279.36C244.648 279.081 241.763 278.061 239.437 275.278C237.762 273.238 237.297 271.197 237.111 269.991C236.925 270.177 234.878 271.104 233.017 270.084C231.156 269.156 230.318 266.745 231.063 264.426C229.76 264.89 227.527 265.632 224.643 265.539C221.944 265.632 219.897 264.89 218.688 264.426Z" fill="#D75014"/>
<path d="M30.9219 246.616C31.7593 246.059 33.8994 244.761 36.8769 244.668C39.1101 244.575 40.878 245.224 41.8084 245.688C41.8084 245.132 41.9946 243.369 43.3903 241.885C45.6234 239.659 48.9731 240.215 49.2523 240.308C49.1592 239.566 49.1592 236.784 51.1132 234.279C53.5325 231.125 57.2544 230.847 57.8127 230.754C57.1613 235.763 58.557 238.824 59.4875 240.215C60.418 241.792 61.6276 242.813 64.0468 245.132C68.7923 249.584 69.8158 249.306 71.0254 251.439C72.7003 254.5 72.5142 258.674 70.5602 261.735C67.6757 266.187 61.9067 266.651 59.5806 266.836C56.603 267.115 56.0447 266.373 53.9046 266.651C51.0202 267.022 47.2052 268.692 43.1111 275.092C42.4598 274.164 40.6919 271.66 40.6919 268.042C40.6919 265.352 41.5293 263.497 42.0876 262.477C41.8085 262.477 39.6684 261.92 38.7379 260.065C37.9005 258.21 38.6448 255.706 40.6919 254.407C39.3892 254.036 37.1561 253.201 34.9229 251.346C32.6898 249.584 31.5732 247.729 30.9219 246.616Z" fill="#D75014"/>
<path d="M24.3713 117.392C28.0713 117.392 31.0707 114.402 31.0707 110.714C31.0707 107.026 28.0713 104.036 24.3713 104.036C20.6713 104.036 17.6719 107.026 17.6719 110.714C17.6719 114.402 20.6713 117.392 24.3713 117.392Z" fill="#2D517F"/>
<path d="M146.02 223.061C149.72 223.061 152.719 220.071 152.719 216.383C152.719 212.695 149.72 209.705 146.02 209.705C142.32 209.705 139.32 212.695 139.32 216.383C139.32 220.071 142.32 223.061 146.02 223.061Z" fill="#2D517F"/>
<path d="M276.543 117.392C280.243 117.392 283.243 114.402 283.243 110.714C283.243 107.026 280.243 104.036 276.543 104.036C272.843 104.036 269.844 107.026 269.844 110.714C269.844 114.402 272.843 117.392 276.543 117.392Z" fill="#2D517F"/>
<path d="M4.21507 236.598C7.91508 236.598 10.9145 233.608 10.9145 229.919C10.9145 226.231 7.91508 223.241 4.21507 223.241C0.515068 223.241 -2.48438 226.231 -2.48438 229.919C-2.48438 233.608 0.515068 236.598 4.21507 236.598Z" fill="#2D517F"/>
<path d="M97.5432 271.66C101.243 271.66 104.243 268.67 104.243 264.982C104.243 261.293 101.243 258.303 97.5432 258.303C93.8432 258.303 90.8438 261.293 90.8438 264.982C90.8438 268.67 93.8432 271.66 97.5432 271.66Z" fill="#2D517F"/>
<path d="M192.168 273.607C195.868 273.607 198.868 270.617 198.868 266.929C198.868 263.241 195.868 260.25 192.168 260.25C188.468 260.25 185.469 263.241 185.469 266.929C185.469 270.617 188.468 273.607 192.168 273.607Z" fill="#2D517F"/>
<path d="M283.074 244.391C286.774 244.391 289.774 241.401 289.774 237.712C289.774 234.024 286.774 231.034 283.074 231.034C279.374 231.034 276.375 234.024 276.375 237.712C276.375 241.401 279.374 244.391 283.074 244.391Z" fill="#2D517F"/>
<mask id="path-15-inside-1_655_9899" fill="white">
<path fill-rule="evenodd" clip-rule="evenodd" d="M44.1892 81.5818C45.09 83.3392 46.5931 85.941 48.8279 88.8331C46.3301 91.3254 43.3223 95.1839 41.4523 100.408L41.433 100.467C40.4572 103.44 36.3392 115.984 44.0349 126.646C50.5885 135.92 61.3425 137.133 63.5015 137.377L63.521 137.379C75.025 138.81 83.2421 132.609 84.8855 131.178C84.4159 134.04 83.9464 138.572 84.8855 143.819C85.355 146.443 86.7637 153.837 91.9287 159.085C94.944 162.148 97.572 162.851 102.237 164.098C104.837 164.794 108.069 165.658 112.354 167.194C117.519 169.103 125.032 171.965 130.901 176.258C135.362 179.598 142.64 186.753 146.866 202.496C154.613 179.359 163.77 172.68 170.813 171.011C172.836 170.6 174.776 170.529 176.766 170.456C180.55 170.317 184.518 170.172 189.595 167.671C195.99 164.535 199.692 159.714 202.259 156.373C202.36 156.242 202.459 156.112 202.557 155.985C202.619 155.904 202.681 155.824 202.742 155.745C209.55 146.682 211.663 137.379 212.602 131.416C213.776 132.847 223.637 142.388 236.549 140.48C250.871 138.333 260.262 123.068 259.557 108.995C258.937 99.8658 254.024 93.1254 250.281 89.254C252.698 86.1942 254.304 83.4241 255.248 81.5818C256.878 83.9868 261.535 89.5183 269.219 92.4043L269.276 92.4241C272.178 93.4237 284.424 97.6422 294.831 89.7588C303.885 83.0451 305.069 72.0286 305.307 69.8171L305.309 69.7972C306.706 58.0127 300.652 49.5952 299.255 47.9117C302.049 48.3927 306.473 48.8737 311.596 47.9117C314.157 47.4307 321.375 45.9876 326.498 40.6966C329.488 37.6078 330.174 34.9157 331.392 30.1365C332.071 27.4734 332.915 24.1621 334.414 19.773C336.277 14.482 339.071 6.78601 343.262 0.773499C346.522 -3.79602 353.507 -11.2515 368.875 -15.5805C346.289 -23.5171 339.77 -32.8966 338.14 -40.1116C337.739 -42.1844 337.669 -44.1714 337.598 -46.2106C337.463 -50.0866 337.321 -54.1512 334.88 -59.3517C331.818 -65.9031 327.112 -69.6959 323.851 -72.3246C323.64 -72.4943 323.436 -72.6593 323.238 -72.8197C314.39 -79.7943 305.309 -81.9587 299.488 -82.9207C300.885 -84.1232 310.199 -94.2243 308.336 -107.452C306.241 -122.122 291.339 -131.742 277.601 -131.021C264.096 -130.059 255.947 -118.996 254.783 -117.312C253.489 -119.433 252.083 -121.434 250.582 -123.308C254.275 -127.23 258.91 -133.835 259.51 -142.684C260.215 -156.756 250.824 -172.022 236.503 -174.169C223.59 -176.077 213.729 -166.536 212.556 -165.105C211.616 -171.068 209.504 -180.37 202.695 -189.434C202.538 -189.636 202.377 -189.846 202.212 -190.062C199.646 -193.403 195.943 -198.223 189.548 -201.36C184.471 -203.861 180.503 -204.006 176.72 -204.144C174.729 -204.217 172.789 -204.288 170.766 -204.699C163.723 -206.369 154.566 -213.048 146.819 -236.184C142.593 -220.442 135.315 -213.286 130.854 -209.947C124.985 -205.653 117.472 -202.791 112.307 -200.883C108.023 -199.347 104.79 -198.482 102.19 -197.787C97.5251 -196.539 94.8971 -195.837 91.8818 -192.773C86.7168 -187.526 85.3082 -180.132 84.8386 -177.508C83.8995 -172.26 84.3691 -167.728 84.8386 -164.866C83.1952 -166.297 74.9781 -172.499 63.4742 -171.068L63.4547 -171.066C61.2957 -170.822 50.5417 -169.608 43.988 -160.334C36.2923 -149.673 40.4103 -137.128 41.3861 -134.156L41.4054 -134.097C43.2001 -129.083 46.0426 -125.327 48.4767 -122.83C47.1172 -121.095 45.8391 -119.253 44.6549 -117.312C43.4907 -118.996 35.3412 -130.059 21.8364 -131.021C8.09878 -131.742 -6.80311 -122.122 -8.89869 -107.452C-10.7614 -94.2243 -1.44778 -84.1232 -0.0507355 -82.9207C-5.87178 -81.9587 -14.9526 -79.7943 -23.8005 -72.8197C-23.9983 -72.6593 -24.2028 -72.4944 -24.4135 -72.3246C-27.6749 -69.6959 -32.3806 -65.9032 -35.4426 -59.3517C-37.8838 -54.1512 -38.0255 -50.0866 -38.1607 -46.2106C-38.2318 -44.1714 -38.301 -42.1844 -38.7024 -40.1116C-40.3323 -32.8966 -46.8519 -23.5171 -69.4375 -15.5805C-54.07 -11.2515 -47.0847 -3.79602 -43.8249 0.773499C-39.6338 6.78601 -36.8397 14.482 -34.977 19.773C-33.4772 24.1621 -32.6334 27.4734 -31.9547 30.1366C-30.7368 34.9157 -30.0507 37.6078 -27.0603 40.6966C-21.9378 45.9876 -14.7197 47.4307 -12.1585 47.9117C-7.03594 48.8737 -2.61198 48.3927 0.182121 47.9117C-1.21493 49.5952 -7.26883 58.0127 -5.87178 69.7972L-5.86963 69.8172C-5.63179 72.0289 -4.44714 83.0452 4.60609 89.7588C15.0138 97.6422 27.2594 93.4237 30.1613 92.4241L30.2187 92.4043C37.9024 89.5183 42.5593 83.9868 44.1892 81.5818Z"/>
</mask>
<path fill-rule="evenodd" clip-rule="evenodd" d="M44.1892 81.5818C45.09 83.3392 46.5931 85.941 48.8279 88.8331C46.3301 91.3254 43.3223 95.1839 41.4523 100.408L41.433 100.467C40.4572 103.44 36.3392 115.984 44.0349 126.646C50.5885 135.92 61.3425 137.133 63.5015 137.377L63.521 137.379C75.025 138.81 83.2421 132.609 84.8855 131.178C84.4159 134.04 83.9464 138.572 84.8855 143.819C85.355 146.443 86.7637 153.837 91.9287 159.085C94.944 162.148 97.572 162.851 102.237 164.098C104.837 164.794 108.069 165.658 112.354 167.194C117.519 169.103 125.032 171.965 130.901 176.258C135.362 179.598 142.64 186.753 146.866 202.496C154.613 179.359 163.77 172.68 170.813 171.011C172.836 170.6 174.776 170.529 176.766 170.456C180.55 170.317 184.518 170.172 189.595 167.671C195.99 164.535 199.692 159.714 202.259 156.373C202.36 156.242 202.459 156.112 202.557 155.985C202.619 155.904 202.681 155.824 202.742 155.745C209.55 146.682 211.663 137.379 212.602 131.416C213.776 132.847 223.637 142.388 236.549 140.48C250.871 138.333 260.262 123.068 259.557 108.995C258.937 99.8658 254.024 93.1254 250.281 89.254C252.698 86.1942 254.304 83.4241 255.248 81.5818C256.878 83.9868 261.535 89.5183 269.219 92.4043L269.276 92.4241C272.178 93.4237 284.424 97.6422 294.831 89.7588C303.885 83.0451 305.069 72.0286 305.307 69.8171L305.309 69.7972C306.706 58.0127 300.652 49.5952 299.255 47.9117C302.049 48.3927 306.473 48.8737 311.596 47.9117C314.157 47.4307 321.375 45.9876 326.498 40.6966C329.488 37.6078 330.174 34.9157 331.392 30.1365C332.071 27.4734 332.915 24.1621 334.414 19.773C336.277 14.482 339.071 6.78601 343.262 0.773499C346.522 -3.79602 353.507 -11.2515 368.875 -15.5805C346.289 -23.5171 339.77 -32.8966 338.14 -40.1116C337.739 -42.1844 337.669 -44.1714 337.598 -46.2106C337.463 -50.0866 337.321 -54.1512 334.88 -59.3517C331.818 -65.9031 327.112 -69.6959 323.851 -72.3246C323.64 -72.4943 323.436 -72.6593 323.238 -72.8197C314.39 -79.7943 305.309 -81.9587 299.488 -82.9207C300.885 -84.1232 310.199 -94.2243 308.336 -107.452C306.241 -122.122 291.339 -131.742 277.601 -131.021C264.096 -130.059 255.947 -118.996 254.783 -117.312C253.489 -119.433 252.083 -121.434 250.582 -123.308C254.275 -127.23 258.91 -133.835 259.51 -142.684C260.215 -156.756 250.824 -172.022 236.503 -174.169C223.59 -176.077 213.729 -166.536 212.556 -165.105C211.616 -171.068 209.504 -180.37 202.695 -189.434C202.538 -189.636 202.377 -189.846 202.212 -190.062C199.646 -193.403 195.943 -198.223 189.548 -201.36C184.471 -203.861 180.503 -204.006 176.72 -204.144C174.729 -204.217 172.789 -204.288 170.766 -204.699C163.723 -206.369 154.566 -213.048 146.819 -236.184C142.593 -220.442 135.315 -213.286 130.854 -209.947C124.985 -205.653 117.472 -202.791 112.307 -200.883C108.023 -199.347 104.79 -198.482 102.19 -197.787C97.5251 -196.539 94.8971 -195.837 91.8818 -192.773C86.7168 -187.526 85.3082 -180.132 84.8386 -177.508C83.8995 -172.26 84.3691 -167.728 84.8386 -164.866C83.1952 -166.297 74.9781 -172.499 63.4742 -171.068L63.4547 -171.066C61.2957 -170.822 50.5417 -169.608 43.988 -160.334C36.2923 -149.673 40.4103 -137.128 41.3861 -134.156L41.4054 -134.097C43.2001 -129.083 46.0426 -125.327 48.4767 -122.83C47.1172 -121.095 45.8391 -119.253 44.6549 -117.312C43.4907 -118.996 35.3412 -130.059 21.8364 -131.021C8.09878 -131.742 -6.80311 -122.122 -8.89869 -107.452C-10.7614 -94.2243 -1.44778 -84.1232 -0.0507355 -82.9207C-5.87178 -81.9587 -14.9526 -79.7943 -23.8005 -72.8197C-23.9983 -72.6593 -24.2028 -72.4944 -24.4135 -72.3246C-27.6749 -69.6959 -32.3806 -65.9032 -35.4426 -59.3517C-37.8838 -54.1512 -38.0255 -50.0866 -38.1607 -46.2106C-38.2318 -44.1714 -38.301 -42.1844 -38.7024 -40.1116C-40.3323 -32.8966 -46.8519 -23.5171 -69.4375 -15.5805C-54.07 -11.2515 -47.0847 -3.79602 -43.8249 0.773499C-39.6338 6.78601 -36.8397 14.482 -34.977 19.773C-33.4772 24.1621 -32.6334 27.4734 -31.9547 30.1366C-30.7368 34.9157 -30.0507 37.6078 -27.0603 40.6966C-21.9378 45.9876 -14.7197 47.4307 -12.1585 47.9117C-7.03594 48.8737 -2.61198 48.3927 0.182121 47.9117C-1.21493 49.5952 -7.26883 58.0127 -5.87178 69.7972L-5.86963 69.8172C-5.63179 72.0289 -4.44714 83.0452 4.60609 89.7588C15.0138 97.6422 27.2594 93.4237 30.1613 92.4241L30.2187 92.4043C37.9024 89.5183 42.5593 83.9868 44.1892 81.5818Z" fill="#D84E00"/>
<path d="M48.8279 88.8331L53.2863 93.3014L57.2228 89.3737L53.8226 84.9736L48.8279 88.8331ZM44.1892 81.5818L49.8064 78.7026L44.9442 69.2163L38.9639 78.0406L44.1892 81.5818ZM41.4523 100.408L35.5094 98.2814L35.481 98.3607L35.4548 98.4407L41.4523 100.408ZM41.433 100.467L47.4303 102.436L47.4306 102.435L41.433 100.467ZM44.0349 126.646L49.1898 123.003L49.1715 122.977L49.153 122.952L44.0349 126.646ZM63.5015 137.377L62.7937 143.649L62.7948 143.65L63.5015 137.377ZM63.521 137.379L64.3003 131.115L64.2641 131.111L64.2278 131.107L63.521 137.379ZM84.8855 131.178L91.1144 132.2L93.95 114.914L80.7401 126.418L84.8855 131.178ZM84.8855 143.819L91.0989 142.707L91.0989 142.707L84.8855 143.819ZM91.9287 159.085L87.4301 163.513L87.4301 163.513L91.9287 159.085ZM102.237 164.098L100.607 170.196L100.607 170.196L102.237 164.098ZM112.354 167.194L114.542 161.273L114.513 161.263L114.485 161.253L112.354 167.194ZM130.901 176.258L134.684 171.205L134.656 171.184L134.628 171.164L130.901 176.258ZM146.866 202.496L140.769 204.132L146.2 224.362L152.851 204.5L146.866 202.496ZM170.813 171.011L169.556 164.825L169.456 164.845L169.357 164.869L170.813 171.011ZM176.766 170.456L176.536 164.148L176.536 164.148L176.766 170.456ZM189.595 167.671L186.815 162.004L186.805 162.009L189.595 167.671ZM202.259 156.373L197.253 152.528L197.253 152.528L202.259 156.373ZM202.557 155.985L207.558 159.837L207.559 159.835L202.557 155.985ZM202.742 155.745L207.735 159.607L207.762 159.572L207.789 159.536L202.742 155.745ZM212.602 131.416L217.483 127.413L208.557 116.531L206.367 130.434L212.602 131.416ZM236.549 140.48L237.472 146.724L237.485 146.722L236.549 140.48ZM259.557 108.995L265.861 108.68L265.859 108.624L265.855 108.568L259.557 108.995ZM250.281 89.254L245.328 85.3412L241.906 89.6728L245.743 93.6414L250.281 89.254ZM255.248 81.5818L260.474 78.0406L254.493 69.2163L249.631 78.7026L255.248 81.5818ZM269.219 92.4043L266.999 98.3134L267.081 98.3439L267.163 98.3722L269.219 92.4043ZM269.276 92.4241L267.22 98.392L267.22 98.392L269.276 92.4241ZM294.831 89.7588L291.072 84.6886L291.046 84.7078L291.02 84.7272L294.831 89.7588ZM305.307 69.8171L299.031 69.1423L299.031 69.1423L305.307 69.8171ZM305.309 69.7972L299.041 69.0541L299.037 69.0883L299.033 69.1224L305.309 69.7972ZM299.255 47.9117L300.326 41.691L283.485 38.7916L294.398 51.9426L299.255 47.9117ZM311.596 47.9117L310.431 41.708L310.431 41.708L311.596 47.9117ZM326.498 40.6966L321.963 36.3061L321.963 36.3061L326.498 40.6966ZM331.392 30.1365L325.276 28.5778L325.276 28.5778L331.392 30.1365ZM334.414 19.773L328.461 17.6769L328.451 17.7044L328.441 17.732L334.414 19.773ZM343.262 0.773499L338.124 -2.89226L338.104 -2.86428L338.084 -2.83607L343.262 0.773499ZM368.875 -15.5805L370.587 -9.50487L389.801 -14.9176L370.968 -21.5357L368.875 -15.5805ZM338.14 -40.1116L331.943 -38.9117L331.961 -38.8159L331.983 -38.7208L338.14 -40.1116ZM337.598 -46.2106L343.906 -46.4305L343.906 -46.4306L337.598 -46.2106ZM334.88 -59.3517L329.162 -56.679L329.166 -56.6695L334.88 -59.3517ZM323.851 -72.3246L327.812 -77.2391L327.812 -77.2391L323.851 -72.3246ZM323.238 -72.8197L327.216 -77.7209L327.181 -77.7492L327.146 -77.777L323.238 -72.8197ZM299.488 -82.9207L295.37 -87.7047L285.135 -78.895L298.459 -76.6931L299.488 -82.9207ZM308.336 -107.452L314.587 -108.332L314.585 -108.344L308.336 -107.452ZM277.601 -131.021L277.27 -137.324L277.211 -137.321L277.153 -137.317L277.601 -131.021ZM254.783 -117.312L249.394 -114.025L254.451 -105.736L259.974 -113.722L254.783 -117.312ZM250.582 -123.308L245.986 -127.634L242.227 -123.641L245.656 -119.361L250.582 -123.308ZM259.51 -142.684L265.808 -142.256L265.812 -142.312L265.815 -142.368L259.51 -142.684ZM236.503 -174.169L237.438 -180.411L237.425 -180.413L236.503 -174.169ZM212.556 -165.105L206.32 -164.123L208.51 -150.219L217.436 -161.102L212.556 -165.105ZM202.695 -189.434L207.742 -193.225L207.715 -193.26L207.688 -193.296L202.695 -189.434ZM202.212 -190.062L207.218 -193.907L207.218 -193.907L202.212 -190.062ZM189.548 -201.36L186.759 -195.698L186.768 -195.693L189.548 -201.36ZM176.72 -204.144L176.489 -197.836L176.489 -197.836L176.72 -204.144ZM170.766 -204.699L169.31 -198.557L169.409 -198.534L169.509 -198.514L170.766 -204.699ZM146.819 -236.184L152.804 -238.188L146.153 -258.051L140.723 -237.821L146.819 -236.184ZM130.854 -209.947L134.581 -204.852L134.609 -204.873L134.637 -204.894L130.854 -209.947ZM112.307 -200.883L114.438 -194.941L114.466 -194.951L114.495 -194.962L112.307 -200.883ZM102.19 -197.787L103.821 -191.689L103.821 -191.689L102.19 -197.787ZM91.8818 -192.773L96.3804 -188.345L96.3804 -188.345L91.8818 -192.773ZM84.8386 -177.508L91.052 -176.396L91.052 -176.396L84.8386 -177.508ZM84.8386 -164.866L80.6933 -160.106L93.9031 -148.603L91.0675 -165.888L84.8386 -164.866ZM63.4742 -171.068L64.1815 -164.795L64.2175 -164.799L64.2534 -164.804L63.4742 -171.068ZM63.4547 -171.066L62.7474 -177.338L62.7469 -177.338L63.4547 -171.066ZM43.988 -160.334L49.1061 -156.64L49.1246 -156.666L49.1429 -156.692L43.988 -160.334ZM41.3861 -134.156L47.3836 -136.124L47.3834 -136.125L41.3861 -134.156ZM41.4054 -134.097L35.408 -132.129L35.4342 -132.049L35.4625 -131.97L41.4054 -134.097ZM48.4767 -122.83L53.4452 -118.936L56.85 -123.282L52.9971 -127.235L48.4767 -122.83ZM44.6549 -117.312L39.4632 -113.722L44.9863 -105.736L50.0434 -114.025L44.6549 -117.312ZM21.8364 -131.021L22.2849 -137.317L22.2262 -137.321L22.1675 -137.324L21.8364 -131.021ZM-8.89869 -107.452L-15.1474 -108.344L-15.1491 -108.332L-8.89869 -107.452ZM-0.0507355 -82.9207L0.978469 -76.6931L14.3021 -78.895L4.06706 -87.7048L-0.0507355 -82.9207ZM-23.8005 -72.8197L-27.7081 -77.7769L-27.7434 -77.7492L-27.7782 -77.7209L-23.8005 -72.8197ZM-24.4135 -72.3246L-20.4524 -67.4101L-20.4523 -67.4102L-24.4135 -72.3246ZM-35.4426 -59.3517L-29.7287 -56.6695L-29.7242 -56.679L-35.4426 -59.3517ZM-38.1607 -46.2106L-44.4689 -46.4305L-44.4689 -46.4305L-38.1607 -46.2106ZM-38.7024 -40.1116L-32.5454 -38.7208L-32.5239 -38.8159L-32.5054 -38.9117L-38.7024 -40.1116ZM-69.4375 -15.5805L-71.5301 -21.5357L-90.3637 -14.9176L-71.149 -9.50487L-69.4375 -15.5805ZM-43.8249 0.773499L-38.6467 -2.83608L-38.6664 -2.86428L-38.6863 -2.89225L-43.8249 0.773499ZM-34.977 19.773L-29.0039 17.732L-29.0134 17.7044L-29.023 17.6769L-34.977 19.773ZM-31.9547 30.1366L-38.0713 31.6953L-38.0713 31.6953L-31.9547 30.1366ZM-27.0603 40.6966L-22.5253 36.3061L-22.5253 36.3061L-27.0603 40.6966ZM-12.1585 47.9117L-10.9934 41.708L-10.9934 41.708L-12.1585 47.9117ZM0.182121 47.9117L5.03955 51.9426L15.9528 38.7917L-0.88879 41.691L0.182121 47.9117ZM-5.87178 69.7972L0.404122 69.1219L0.400474 69.088L0.39646 69.0541L-5.87178 69.7972ZM-5.86963 69.8172L0.406318 69.1423L0.40627 69.1419L-5.86963 69.8172ZM4.60609 89.7588L8.41734 84.7271L8.39174 84.7078L8.36596 84.6886L4.60609 89.7588ZM30.1613 92.4241L28.1058 86.456L28.1054 86.4561L30.1613 92.4241ZM30.2187 92.4043L32.2741 98.3724L32.3565 98.344L32.4381 98.3134L30.2187 92.4043ZM53.8226 84.9736C51.8662 82.4418 50.5639 80.1806 49.8064 78.7026L38.5719 84.4609C39.616 86.4979 41.3199 89.4402 43.8333 92.6927L53.8226 84.9736ZM47.3953 102.536C48.876 98.3986 51.2752 95.3081 53.2863 93.3014L44.3695 84.3648C41.385 87.3428 37.7687 91.9692 35.5094 98.2814L47.3953 102.536ZM47.4306 102.435L47.4499 102.376L35.4548 98.4407L35.4355 98.4995L47.4306 102.435ZM49.153 122.952C43.4991 115.119 46.4116 105.539 47.4303 102.436L35.4358 98.4985C34.5028 101.341 29.1792 116.85 38.9167 130.34L49.153 122.952ZM64.2094 131.105C62.1483 130.872 54.0158 129.832 49.1898 123.003L38.8799 130.289C47.1613 142.008 60.5367 143.395 62.7937 143.649L64.2094 131.105ZM64.2278 131.107L64.2083 131.105L62.7948 143.65L62.8143 143.652L64.2278 131.107ZM80.7401 126.418C79.6725 127.347 73.2079 132.224 64.3003 131.115L62.7418 143.643C76.842 145.397 86.8116 137.87 89.0308 135.938L80.7401 126.418ZM91.0989 142.707C90.3328 138.426 90.7082 134.676 91.1144 132.2L78.6566 130.156C78.1237 133.404 77.56 138.717 78.6721 144.931L91.0989 142.707ZM96.4272 154.657C92.7524 150.923 91.5667 145.321 91.0989 142.707L78.6721 144.931C79.1434 147.565 80.775 156.751 87.4301 163.513L96.4272 154.657ZM103.868 158.001C99.164 156.743 98.1122 156.369 96.4272 154.657L87.4301 163.513C91.7757 167.927 95.9799 168.959 100.607 170.196L103.868 158.001ZM114.485 161.253C109.941 159.624 106.499 158.704 103.868 158.001L100.607 170.196C103.175 170.883 106.198 171.693 110.224 173.136L114.485 161.253ZM134.628 171.164C127.95 166.279 119.634 163.155 114.542 161.273L110.167 173.115C115.404 175.05 122.114 177.651 127.175 181.353L134.628 171.164ZM152.962 200.859C148.34 183.642 140.184 175.322 134.684 171.205L127.118 181.311C130.54 183.873 136.939 189.864 140.769 204.132L152.962 200.859ZM169.357 164.869C159.218 167.272 148.93 176.453 140.88 200.491L152.851 204.5C160.297 182.265 168.321 178.089 172.269 177.153L169.357 164.869ZM176.536 164.148C174.612 164.218 172.165 164.295 169.556 164.825L172.07 177.196C173.507 176.904 174.939 176.839 176.997 176.764L176.536 164.148ZM186.805 162.009C183.001 163.883 180.182 164.014 176.536 164.148L176.997 176.764C180.918 176.62 186.035 176.461 192.384 173.334L186.805 162.009ZM197.253 152.528C194.701 155.851 191.766 159.576 186.815 162.004L192.374 173.339C200.214 169.493 204.684 163.578 207.265 160.218L197.253 152.528ZM197.556 152.134C197.455 152.264 197.353 152.397 197.253 152.528L207.264 160.218C207.366 160.086 207.463 159.96 207.558 159.837L197.556 152.134ZM197.749 151.884C197.685 151.967 197.62 152.051 197.555 152.135L207.559 159.835C207.619 159.758 207.677 159.682 207.735 159.607L197.749 151.884ZM206.367 130.434C205.501 135.935 203.616 144.072 197.695 151.954L207.789 159.536C215.485 149.291 217.826 138.824 218.838 132.398L206.367 130.434ZM235.627 134.236C230.961 134.925 226.677 133.574 223.217 131.67C221.505 130.728 220.083 129.696 219.042 128.837C217.938 127.926 217.431 127.349 217.483 127.413L207.722 135.419C208.837 136.778 212.226 140.032 217.131 142.73C222.123 145.478 229.225 147.943 237.472 146.724L235.627 134.236ZM253.253 109.311C253.842 121.089 245.868 132.701 235.614 134.238L237.485 146.722C255.873 143.966 266.681 125.047 265.861 108.68L253.253 109.311ZM245.743 93.6414C248.956 96.9646 252.781 102.372 253.26 109.423L265.855 108.568C265.094 97.3596 259.092 89.2863 254.819 84.8666L245.743 93.6414ZM249.631 78.7026C248.837 80.2527 247.444 82.6621 245.328 85.3412L255.234 93.1668C257.952 89.7263 259.772 86.5955 260.866 84.4609L249.631 78.7026ZM271.438 86.4952C265.381 84.22 261.657 79.7861 260.474 78.0406L250.023 85.1229C252.1 88.1875 257.69 94.8166 266.999 98.3134L271.438 86.4952ZM271.332 86.4561L271.275 86.4364L267.163 98.3722L267.22 98.392L271.332 86.4561ZM291.02 84.7272C283.513 90.4134 274.365 87.5009 271.332 86.4561L267.22 98.392C269.991 99.3466 285.334 104.871 298.643 94.7904L291.02 84.7272ZM299.031 69.1423C298.797 71.3198 297.75 79.7359 291.072 84.6886L298.591 94.8289C310.019 86.3543 311.342 72.7374 311.583 70.4919L299.031 69.1423ZM299.033 69.1224L299.031 69.1423L311.583 70.4919L311.585 70.4721L299.033 69.1224ZM294.398 51.9426C295.291 53.0188 300.145 59.7385 299.041 69.0541L311.578 70.5403C313.267 56.2869 306.014 46.1715 304.113 43.8807L294.398 51.9426ZM310.431 41.708C306.321 42.4799 302.716 42.1025 300.326 41.691L298.184 54.1323C301.383 54.6829 306.626 55.2675 312.761 54.1153L310.431 41.708ZM321.963 36.3061C318.347 40.0404 312.95 41.2349 310.431 41.708L312.761 54.1153C315.365 53.6264 324.403 51.9349 331.033 45.0872L321.963 36.3061ZM325.276 28.5778C324.042 33.4193 323.658 34.5549 321.963 36.3061L331.033 45.0872C335.318 40.6608 336.307 36.4121 337.509 31.6953L325.276 28.5778ZM328.441 17.732C326.856 22.3712 325.962 25.8849 325.276 28.5778L337.509 31.6953C338.18 29.0619 338.973 25.9531 340.388 21.814L328.441 17.732ZM338.084 -2.83607C333.334 3.97835 330.296 12.4629 328.461 17.6769L340.368 21.8692C342.258 16.5011 344.808 9.59367 348.441 4.38307L338.084 -2.83607ZM367.163 -21.6562C350.262 -16.8951 342.123 -8.49795 338.124 -2.89226L348.401 4.43926C350.922 0.905906 356.753 -5.60792 370.587 -9.50487L367.163 -21.6562ZM331.983 -38.7208C334.292 -28.4975 343.186 -17.917 366.782 -9.62538L370.968 -21.5357C349.393 -29.1171 345.247 -37.2957 344.297 -41.5025L331.983 -38.7208ZM331.29 -45.9906C331.359 -44.0161 331.433 -41.5447 331.943 -38.9117L344.337 -41.3115C344.044 -42.8241 343.98 -44.3267 343.906 -46.4305L331.29 -45.9906ZM329.166 -56.6695C331.028 -52.703 331.159 -49.7423 331.29 -45.9906L343.906 -46.4306C343.767 -50.4309 343.614 -55.5994 340.594 -62.0339L329.166 -56.6695ZM319.89 -67.41C323.114 -64.8114 326.769 -61.7977 329.162 -56.679L340.598 -62.0244C336.867 -70.0085 331.111 -74.5803 327.812 -77.2391L319.89 -67.41ZM319.26 -67.9186C319.468 -67.7502 319.681 -67.5784 319.89 -67.41L327.812 -77.2391C327.6 -77.4103 327.404 -77.5683 327.216 -77.7209L319.26 -67.9186ZM298.459 -76.6931C303.783 -75.8132 311.671 -73.9002 319.33 -67.8625L327.146 -77.777C317.109 -85.6883 306.835 -88.1043 300.517 -89.1484L298.459 -76.6931ZM302.086 -106.572C302.777 -101.661 301.417 -97.1785 299.545 -93.6084C298.616 -91.8387 297.602 -90.373 296.761 -89.3035C295.868 -88.1681 295.305 -87.6481 295.37 -87.7047L303.606 -78.1368C304.94 -79.2848 308.105 -82.7501 310.725 -87.7454C313.393 -92.8333 315.758 -100.015 314.587 -108.332L302.086 -106.572ZM277.932 -124.717C289.105 -125.304 300.547 -117.346 302.087 -106.559L314.585 -108.344C311.935 -126.899 293.572 -138.181 277.27 -137.324L277.932 -124.717ZM259.974 -113.722C261.011 -115.221 267.667 -123.985 278.05 -124.725L277.153 -137.317C260.526 -136.133 250.883 -122.771 249.591 -120.903L259.974 -113.722ZM245.656 -119.361C246.988 -117.698 248.24 -115.917 249.394 -114.025L260.171 -120.6C258.738 -122.948 257.178 -125.17 255.508 -127.254L245.656 -119.361ZM253.213 -143.111C252.749 -136.28 249.145 -130.99 245.986 -127.634L255.178 -118.981C259.404 -123.471 265.07 -131.39 265.808 -142.256L253.213 -143.111ZM235.567 -167.926C245.821 -166.389 253.796 -154.777 253.206 -142.999L265.815 -142.368C266.634 -158.736 255.826 -177.655 237.438 -180.411L235.567 -167.926ZM217.436 -161.102C217.384 -161.038 217.891 -161.614 218.995 -162.525C220.036 -163.384 221.458 -164.416 223.17 -165.359C226.63 -167.263 230.915 -168.614 235.58 -167.924L237.425 -180.413C229.178 -181.632 222.076 -179.166 217.084 -176.419C212.179 -173.72 208.79 -170.467 207.675 -169.108L217.436 -161.102ZM197.648 -185.643C203.569 -177.76 205.454 -169.623 206.32 -164.123L218.791 -166.087C217.779 -172.513 215.438 -182.98 207.742 -193.225L197.648 -185.643ZM197.206 -186.217C197.37 -186.003 197.538 -185.785 197.702 -185.572L207.688 -193.296C207.539 -193.488 207.385 -193.689 207.218 -193.907L197.206 -186.217ZM186.768 -195.693C191.719 -193.265 194.654 -189.539 197.206 -186.217L207.218 -193.907C204.637 -197.266 200.167 -203.182 192.327 -207.027L186.768 -195.693ZM176.489 -197.836C180.135 -197.703 182.954 -197.572 186.759 -195.698L192.337 -207.022C185.988 -210.15 180.872 -210.309 176.95 -210.452L176.489 -197.836ZM169.509 -198.514C172.118 -197.983 174.565 -197.907 176.489 -197.836L176.95 -210.452C174.893 -210.527 173.46 -210.593 172.023 -210.885L169.509 -198.514ZM140.833 -234.18C148.883 -210.142 159.171 -200.961 169.31 -198.557L172.222 -210.841C168.274 -211.777 160.25 -215.953 152.804 -238.188L140.833 -234.18ZM134.637 -204.894C140.137 -209.011 148.294 -217.331 152.915 -234.548L140.723 -237.821C136.892 -223.552 130.493 -217.561 127.072 -215L134.637 -204.894ZM114.495 -194.962C119.587 -196.843 127.903 -199.967 134.581 -204.852L127.128 -215.041C122.067 -211.34 115.357 -208.739 110.12 -206.804L114.495 -194.962ZM103.821 -191.689C106.452 -192.393 109.894 -193.312 114.438 -194.941L110.177 -206.825C106.151 -205.381 103.128 -204.572 100.56 -203.885L103.821 -191.689ZM96.3804 -188.345C98.0653 -190.057 99.1171 -190.431 103.821 -191.689L100.56 -203.885C95.933 -202.648 91.7288 -201.616 87.3833 -197.201L96.3804 -188.345ZM91.052 -176.396C91.5198 -179.01 92.7055 -184.612 96.3804 -188.345L87.3833 -197.201C80.7281 -190.44 79.0965 -181.253 78.6252 -178.62L91.052 -176.396ZM91.0675 -165.888C90.6613 -168.364 90.2859 -172.115 91.052 -176.396L78.6252 -178.62C77.5131 -172.406 78.0768 -167.093 78.6097 -163.844L91.0675 -165.888ZM64.2534 -164.804C73.1611 -165.912 79.6256 -161.036 80.6933 -160.106L88.9839 -169.626C86.7648 -171.559 76.7951 -179.086 62.6949 -177.332L64.2534 -164.804ZM64.162 -164.793L64.1815 -164.795L62.7669 -177.34L62.7474 -177.338L64.162 -164.793ZM49.1429 -156.692C53.9689 -163.521 62.1015 -164.561 64.1625 -164.793L62.7469 -177.338C60.4899 -177.083 47.1145 -175.696 38.8331 -163.977L49.1429 -156.692ZM47.3834 -136.125C46.3647 -139.228 43.4523 -148.807 49.1061 -156.64L38.8699 -164.029C29.1324 -150.538 34.4559 -135.029 35.3889 -132.187L47.3834 -136.125ZM47.4029 -136.065L47.3836 -136.124L35.3887 -132.187L35.408 -132.129L47.4029 -136.065ZM52.9971 -127.235C51.0351 -129.248 48.7689 -132.255 47.3484 -136.224L35.4625 -131.97C37.6312 -125.911 41.0502 -121.406 43.9562 -118.424L52.9971 -127.235ZM50.0434 -114.025C51.1002 -115.757 52.2382 -117.396 53.4452 -118.936L43.5081 -126.723C41.9962 -124.793 40.578 -122.75 39.2664 -120.6L50.0434 -114.025ZM21.3879 -124.725C31.7707 -123.985 38.4269 -115.221 39.4632 -113.722L49.8465 -120.903C48.5544 -122.771 38.9118 -136.133 22.2849 -137.317L21.3879 -124.725ZM-2.64998 -106.559C-1.10917 -117.346 10.3323 -125.304 21.5054 -124.717L22.1675 -137.324C5.86525 -138.181 -12.4971 -126.899 -15.1474 -108.344L-2.64998 -106.559ZM4.06706 -87.7048C4.13285 -87.6481 3.56968 -88.1681 2.6766 -89.3035C1.83528 -90.373 0.821015 -91.8387 -0.107036 -93.6084C-1.97924 -97.1785 -3.33973 -101.661 -2.64823 -106.572L-15.1491 -108.332C-16.3204 -100.015 -13.9554 -92.8333 -11.2872 -87.7454C-8.66764 -82.7501 -5.50234 -79.2848 -4.16853 -78.1367L4.06706 -87.7048ZM-19.893 -67.8625C-12.2335 -73.9002 -4.34558 -75.8132 0.978469 -76.6931L-1.07994 -89.1484C-7.39797 -88.1043 -17.6716 -85.6883 -27.7081 -77.7769L-19.893 -67.8625ZM-20.4523 -67.4102C-20.2432 -67.5786 -20.0303 -67.7503 -19.8228 -67.9186L-27.7782 -77.7209C-27.9663 -77.5682 -28.1624 -77.4101 -28.3746 -77.2391L-20.4523 -67.4102ZM-29.7242 -56.679C-27.3318 -61.7978 -23.6765 -64.8114 -20.4524 -67.4101L-28.3745 -77.2392C-31.6733 -74.5804 -37.4293 -70.0086 -41.161 -62.0244L-29.7242 -56.679ZM-31.8524 -45.9906C-31.7215 -49.7423 -31.5906 -52.703 -29.7287 -56.6695L-41.1565 -62.0339C-44.177 -55.5993 -44.3295 -50.4309 -44.4689 -46.4305L-31.8524 -45.9906ZM-32.5054 -38.9117C-31.9955 -41.5447 -31.9212 -44.0161 -31.8524 -45.9906L-44.4689 -46.4305C-44.5423 -44.3267 -44.6065 -42.8241 -44.8994 -41.3116L-32.5054 -38.9117ZM-67.3449 -9.62538C-43.7487 -17.917 -34.8549 -28.4975 -32.5454 -38.7208L-44.8594 -41.5025C-45.8097 -37.2957 -49.9551 -29.1171 -71.5301 -21.5357L-67.3449 -9.62538ZM-38.6863 -2.89225C-42.6853 -8.49795 -50.8246 -16.8951 -67.726 -21.6562L-71.149 -9.50487C-57.3153 -5.60792 -51.4841 0.90591 -48.9635 4.43925L-38.6863 -2.89225ZM-29.023 17.6769C-30.8587 12.463 -33.8966 3.97835 -38.6467 -2.83608L-49.0031 4.38308C-45.371 9.59367 -42.8208 16.5011 -40.9309 21.8692L-29.023 17.6769ZM-25.8381 28.5778C-26.5243 25.8849 -27.4187 22.3712 -29.0039 17.732L-40.95 21.814C-39.5357 25.9531 -38.7424 29.0619 -38.0713 31.6953L-25.8381 28.5778ZM-22.5253 36.3061C-24.2207 34.5549 -24.6043 33.4193 -25.8381 28.5778L-38.0713 31.6953C-36.8693 36.4122 -35.8807 40.6608 -31.5953 45.0872L-22.5253 36.3061ZM-10.9934 41.708C-13.5124 41.2349 -18.9099 40.0404 -22.5253 36.3061L-31.5953 45.0872C-24.9656 51.9349 -15.9271 53.6264 -13.3235 54.1153L-10.9934 41.708ZM-0.88879 41.691C-3.27879 42.1025 -6.88325 42.4799 -10.9934 41.708L-13.3235 54.1153C-7.18864 55.2675 -1.94517 54.6829 1.25303 54.1323L-0.88879 41.691ZM0.39646 69.0541C-0.707906 59.7385 4.14643 53.0188 5.03955 51.9426L-4.67531 43.8807C-6.57629 46.1715 -13.8297 56.2869 -12.14 70.5403L0.39646 69.0541ZM0.40627 69.1419L0.404122 69.1219L-12.1477 70.4726L-12.1455 70.4925L0.40627 69.1419ZM8.36596 84.6886C1.68733 79.736 0.640507 71.3201 0.406318 69.1423L-12.1456 70.4921C-11.9041 72.7378 -10.5816 86.3544 0.846233 94.8289L8.36596 84.6886ZM28.1054 86.4561C25.0726 87.5009 15.9244 90.4134 8.41734 84.7271L0.794853 94.7904C14.1032 104.871 29.4461 99.3466 32.2171 98.392L28.1054 86.4561ZM28.1632 86.4362L28.1058 86.456L32.2167 98.3922L32.2741 98.3724L28.1632 86.4362ZM38.9639 78.0406C37.781 79.7861 34.0569 84.22 27.9992 86.4952L32.4381 98.3134C41.748 94.8166 47.3376 88.1875 49.4144 85.1229L38.9639 78.0406Z" fill="#2D517F" mask="url(#path-15-inside-1_655_9899)"/>
<path d="M5.375 -15.0337C12.1188 -17.2343 21.986 -21.4225 30.2914 -30.2959C37.3192 -37.7495 37.0352 -41.8668 45.2697 -51.237C52.5103 -59.4715 59.893 -67.848 71.3219 -69.1967C80.1953 -70.2615 92.476 -67.2091 98.1549 -57.4129C102.414 -50.0302 103.266 -38.2464 96.8062 -32.4965C93.5408 -29.657 88.0748 -27.8824 83.1057 -29.586C81.828 -30.012 77.5688 -31.7156 76.078 -35.6199C75.0132 -38.5304 75.7941 -41.4408 77.2138 -46.126C77.8527 -48.3266 78.5626 -50.1722 79.1305 -51.308C77.5688 -52.0179 74.1614 -53.1537 69.9731 -52.3728C62.0936 -50.8821 58.6152 -43.7124 58.1893 -42.7186C55.3498 -36.4717 57.1955 -30.6508 57.6924 -29.3021C55.7048 -29.3021 53.1492 -29.0181 50.4517 -28.0243C42.5722 -24.9719 39.2358 -17.9441 38.3839 -15.9565C38.8808 -14.4658 41.4364 -7.22514 48.89 -3.88875C52.0134 -2.46901 55.0659 -2.25604 56.9116 -2.25604C56.4146 -0.623341 55.2079 4.41675 57.7634 9.81176C58.0473 10.5216 61.8806 18.4722 70.1151 19.466C74.0194 19.9629 77.2138 18.6141 78.7045 17.8333C77.7817 16.7685 75.0842 13.0772 75.2262 7.9661C75.2972 2.78405 78.3496 -2.96591 83.0347 -4.66959C90.1334 -7.22512 99.2907 0.0865506 101.775 7.68215C105.325 18.3302 96.3093 31.4628 85.9452 35.2961C69.7602 41.259 51.7295 24.0801 49.4579 21.9505C38.9518 11.8704 39.9457 4.34574 28.9427 -4.52763C20.7082 -11.2004 11.6928 -13.8269 5.375 -15.0337Z" fill="#75A9C9"/>
<path d="M295.266 -16.2075C288.522 -18.4081 278.655 -22.5963 270.349 -31.4697C263.321 -38.9233 263.605 -43.0406 255.371 -52.4109C248.13 -60.6454 240.748 -69.0218 229.319 -70.3706C220.445 -71.4354 208.165 -68.3829 202.486 -58.5867C198.226 -51.2041 197.375 -39.4202 203.834 -33.6703C207.1 -30.8308 212.566 -29.0562 217.535 -30.7599C218.813 -31.1858 223.072 -32.8895 224.563 -36.7937C225.627 -39.7042 224.847 -42.6147 223.427 -47.2998C222.788 -49.5004 222.078 -51.3461 221.51 -52.4819C223.072 -53.1917 226.479 -54.3275 230.667 -53.5467C238.547 -52.0559 242.025 -44.8862 242.451 -43.8924C245.291 -37.6456 243.445 -31.8246 242.948 -30.4759C244.936 -30.4759 247.491 -30.1919 250.189 -29.1981C258.068 -26.1457 261.405 -19.118 262.257 -17.1303C261.76 -15.6396 259.204 -8.39897 251.751 -5.06258C248.627 -3.64285 245.575 -3.42987 243.729 -3.42987C244.226 -1.79717 245.433 3.24292 242.877 8.63793C242.593 9.3478 238.76 17.2983 230.526 18.2921C226.621 18.789 223.427 17.4403 221.936 16.6594C222.859 15.5946 225.556 11.9033 225.414 6.79226C225.343 1.61022 222.291 -4.13974 217.606 -5.84343C210.507 -8.39896 201.35 -1.08729 198.865 6.50832C195.316 17.1564 204.331 30.2889 214.695 34.1222C230.88 40.0851 248.911 22.9063 251.183 20.7767C261.689 10.6965 260.695 3.17191 271.698 -5.70146C279.932 -12.3742 288.948 -15.0007 295.266 -16.2075Z" fill="#75A9C9"/>
<path d="M148.391 127.648C150.591 120.904 154.779 111.037 163.653 102.732C171.106 95.7038 175.224 95.9878 184.594 87.7533C192.828 80.5126 201.205 73.13 202.554 61.7011C203.618 52.8277 200.566 40.547 190.77 34.868C183.387 30.6088 171.603 29.757 165.853 36.2168C163.014 39.4822 161.239 44.9481 162.943 49.9172C163.369 51.195 165.073 55.4542 168.977 56.9449C171.887 58.0097 174.798 57.2289 179.483 55.8091C181.684 55.1702 183.529 54.4604 184.665 53.8925C185.375 55.4542 186.511 58.8616 185.73 63.0498C184.239 70.9294 177.069 74.4077 176.076 74.8337C169.829 77.6731 164.008 75.8275 162.659 75.3306C162.659 77.3182 162.375 79.8737 161.381 82.5712C158.329 90.4508 151.301 93.7872 149.313 94.639C147.823 94.1421 140.582 91.5866 137.246 84.1329C135.826 81.0095 135.613 77.9571 135.613 76.1114C133.98 76.6083 128.94 77.8151 123.545 75.2596C122.835 74.9756 114.885 71.1423 113.891 62.9078C113.394 59.0035 114.743 55.8091 115.524 54.3184C116.588 55.2412 120.28 57.9387 125.391 57.7968C130.573 57.7258 136.323 54.6734 138.027 49.9882C140.582 42.8895 133.27 33.7322 125.675 31.2477C115.027 27.6983 101.894 36.7136 98.0609 47.0777C92.098 63.2628 109.277 81.2935 111.406 83.565C121.487 94.0711 129.011 93.0773 137.885 104.08C144.557 112.315 147.184 121.33 148.391 127.648Z" fill="#75A9C9"/>
</g>
</svg>
