<svg width="301" height="401" viewBox="0 0 301 401" fill="none" xmlns="http://www.w3.org/2000/svg">
<mask id="mask0_815_11912" style="mask-type:alpha" maskUnits="userSpaceOnUse" x="0" y="0" width="301" height="401">
<rect x="0.695312" y="0.311523" width="300" height="400" rx="2" fill="#C4C4C4"/>
</mask>
<g mask="url(#mask0_815_11912)">
<rect x="-111.305" y="-50.6885" width="524" height="524" fill="#0A4C81"/>
<path d="M131.906 34.7522C128.366 37.8709 124.826 40.5827 124.826 40.5827C121.423 43.0234 118.291 44.7861 115.704 48.5827C114.615 50.2098 114.343 51.159 114.207 51.5658C113.798 53.1929 113.526 55.7691 115.704 59.7013C121.559 70.2776 137.216 77.7352 135.719 83.8369C135.446 85.1929 134.221 86.142 133.676 86.5488C129.728 89.6674 124.01 85.5996 119.925 88.7183C119.517 88.9895 118.291 89.9386 117.747 91.5658C116.249 95.6336 120.47 99.9725 125.643 107.023C126.596 108.244 132.042 115.701 136.399 123.701C140.756 131.837 143.071 136.176 142.254 142.006C141.982 143.498 141.028 149.193 135.855 152.989C131.498 156.108 125.643 156.922 120.878 155.023C114.887 152.583 112.437 146.752 109.578 139.701C106.855 133.057 105.765 127.634 104.948 122.752C102.906 110.82 103.859 103.905 98.9577 100.65C98.1408 100.108 96.6432 99.159 94.8732 99.2946C90.5164 99.5658 89.291 105.803 83.3003 107.295C81.6665 107.701 80.8496 107.837 80.0327 107.43C76.2205 105.396 80.1689 93.4641 78.2628 76.9217C77.9905 74.481 77.4458 71.2268 74.9951 69.3285C72.9529 67.8369 70.7744 68.2437 65.873 68.3793C61.1077 68.6505 56.3424 68.3793 51.5771 68.3793C44.9057 68.3793 41.6381 68.3793 37.8258 67.9725C30.0652 67.0234 24.2107 65.1251 19.8539 63.4979C15.2247 61.8708 11.4125 60.1081 8.55333 58.7522C12.2294 66.481 14.6801 73.2607 16.314 78.4132C19.8539 89.3962 19.8539 93.7352 19.7177 95.9047C19.4454 100.65 18.7647 104.989 18.7647 104.989C18.0839 109.193 17.1309 112.583 17.9478 117.057C18.3562 118.956 18.7647 119.905 19.037 120.312C19.8539 121.667 21.6238 123.701 25.9807 125.057C37.5535 128.447 53.8917 122.617 57.2955 127.905C58.1124 129.125 57.8401 130.617 57.8401 131.159C57.1593 136.176 50.3518 137.261 49.671 142.413C49.671 142.82 49.3987 144.447 50.0795 145.939C51.8494 149.871 57.9762 150.006 66.6899 151.362C68.3237 151.634 77.3097 152.989 86.1595 155.566C95.0094 158.142 99.7746 159.634 103.178 164.379C103.995 165.6 107.535 170.345 106.446 176.718C105.629 182.006 101.953 186.752 97.3239 188.65C91.4694 191.227 85.4788 188.786 78.3989 185.803C71.8636 183.091 67.0984 179.973 63.15 177.125C53.2109 170.21 48.8541 164.65 43.2719 165.871C42.3188 166.142 40.685 166.413 39.4597 167.769C36.6005 171.159 40.1404 176.312 37.0089 181.6C36.192 183.091 35.6474 183.769 34.8305 184.04C30.746 185.261 24.8915 174.006 11.821 163.701C9.91484 162.21 7.19182 160.176 4.06034 160.718C1.60962 161.125 0.248107 162.888 -3.01952 166.549C-6.151 170.074 -9.69093 173.193 -13.0947 176.583C-17.7239 181.328 -20.0384 183.634 -23.0337 185.939C-29.1606 190.82 -34.7428 193.532 -38.8273 195.43C-43.5926 197.735 -47.8133 199.227 -50.8086 200.312C-47.8133 201.261 -43.5926 202.888 -38.8273 205.193C-34.7428 207.227 -29.1606 209.939 -23.0337 214.684C-20.0384 216.989 -17.7239 219.43 -13.0947 224.04C-9.69093 227.43 -6.151 230.549 -3.01952 234.074C0.248107 237.735 1.47347 239.498 4.06034 239.905C7.19182 240.447 9.91484 238.413 11.821 236.922C24.8915 226.617 30.746 215.362 34.8305 216.583C35.6474 216.854 36.0559 217.532 37.0089 219.023C40.1404 224.312 36.6005 229.464 39.4597 232.854C40.685 234.21 42.3188 234.617 43.2719 234.752C48.9902 235.973 53.2109 230.413 63.15 223.498C67.0984 220.65 71.8636 217.532 78.3989 214.82C85.4788 211.837 91.4694 209.396 97.3239 211.973C101.953 214.006 105.629 218.617 106.446 223.905C107.399 230.278 103.995 235.023 103.178 236.244C99.7746 240.854 94.8732 242.481 86.1595 245.057C77.3097 247.634 68.1876 248.989 66.6899 249.261C57.9762 250.481 51.8494 250.752 50.0795 254.684C49.3987 256.312 49.5348 257.803 49.671 258.21C50.4879 263.362 57.2955 264.447 57.8401 269.464C57.9762 270.142 58.1124 271.498 57.2955 272.718C53.8917 278.006 37.6897 272.176 25.9807 275.566C21.6238 276.786 19.8539 278.82 19.037 280.312C18.7647 280.718 18.3562 281.667 17.9478 283.566C17.1309 288.04 18.0839 291.43 18.7647 295.634C18.7647 295.634 19.4454 300.108 19.7177 304.718C19.8539 306.888 19.8539 311.227 16.314 322.21C14.6801 327.362 12.2294 334.142 8.55333 341.871C11.4125 340.515 15.2247 338.752 19.8539 337.125C24.2107 335.634 30.0652 333.6 37.8258 332.651C41.6381 332.244 44.9057 332.244 51.5771 332.244C56.3424 332.244 61.1077 331.973 65.873 332.244C70.7744 332.515 72.9529 332.786 74.9951 331.295C77.582 329.396 77.9905 326.142 78.2628 323.701C80.1689 307.159 76.2205 295.227 80.0327 293.193C80.8496 292.786 81.6665 292.922 83.3003 293.328C89.291 294.82 90.3802 301.057 94.8732 301.328C96.6432 301.464 98.1408 300.515 98.9577 299.973C103.859 296.854 102.906 289.939 104.948 277.871C105.765 273.125 106.855 267.566 109.578 260.922C112.573 253.871 114.887 247.905 120.878 245.6C125.507 243.701 131.498 244.515 135.855 247.634C141.028 251.43 142.118 257.261 142.254 258.617C143.207 264.312 140.892 268.786 136.399 276.922C132.042 284.922 126.596 292.379 125.643 293.6C120.333 300.65 116.249 304.989 117.747 309.057C118.291 310.684 119.653 311.634 119.925 311.905C124.146 315.023 129.728 310.956 133.676 314.074C134.221 314.481 135.31 315.43 135.719 316.786C137.08 322.888 121.423 330.21 115.704 340.922C113.526 344.854 113.798 347.566 114.207 349.057C114.343 349.6 114.615 350.549 115.704 352.04C118.291 355.837 121.287 357.6 124.826 360.04C124.826 360.04 128.503 362.617 131.906 365.871C133.54 367.362 136.535 370.345 141.982 380.651C144.568 385.532 147.7 392.176 150.695 400.312C153.691 392.176 156.822 385.532 159.409 380.651C164.719 370.345 167.85 367.362 169.484 365.871C173.024 362.752 176.564 360.04 176.564 360.04C179.968 357.6 183.099 355.837 185.686 352.04C186.775 350.413 187.048 349.464 187.184 349.057C187.592 347.43 187.864 344.854 185.686 340.922C179.832 330.345 164.174 322.888 165.672 316.786C165.944 315.43 167.169 314.481 167.714 314.074C171.662 310.956 177.381 315.023 181.465 311.905C181.874 311.634 183.099 310.684 183.644 309.057C185.141 304.989 180.921 300.65 175.747 293.6C174.794 292.379 169.348 284.922 164.991 276.922C160.634 268.786 158.32 264.447 159.137 258.617C159.409 257.125 160.362 251.43 165.536 247.634C169.893 244.515 175.747 243.701 180.512 245.6C186.503 248.04 188.954 253.871 191.813 260.922C194.536 267.566 195.625 272.989 196.442 277.871C198.484 289.803 197.531 296.718 202.433 299.973C203.25 300.515 204.747 301.464 206.517 301.328C210.874 301.057 212.099 294.82 218.09 293.328C219.724 292.922 220.541 292.786 221.358 293.193C225.17 295.227 221.222 307.159 223.128 323.701C223.4 326.142 223.945 329.396 226.395 331.295C228.438 332.786 230.616 332.379 235.517 332.244C240.283 331.973 245.048 332.244 249.813 332.244C256.485 332.244 259.752 332.244 263.565 332.651C271.325 333.6 277.18 335.498 281.537 337.125C286.166 338.752 289.978 340.515 292.837 341.871C289.161 334.142 286.71 327.362 285.076 322.21C281.536 311.227 281.536 306.888 281.673 304.718C281.945 299.973 282.626 295.634 282.626 295.634C283.306 291.43 284.26 288.04 283.443 283.566C283.034 281.667 282.626 280.718 282.353 280.312C281.536 278.956 279.767 276.922 275.41 275.566C263.837 272.176 247.499 278.006 244.095 272.718C243.278 271.498 243.55 270.006 243.55 269.464C244.231 264.447 251.039 263.362 251.719 258.21C251.719 257.803 251.992 256.176 251.311 254.684C249.541 250.752 243.414 250.617 234.7 249.261C233.067 248.989 224.081 247.634 215.231 245.057C206.381 242.481 201.616 240.989 198.212 236.244C197.395 235.023 193.855 230.278 194.944 223.905C195.761 218.617 199.437 213.871 204.066 211.973C209.921 209.396 215.912 211.837 222.991 214.82C229.527 217.532 234.292 220.65 238.24 223.498C248.179 230.413 252.536 235.973 258.119 234.752C259.072 234.481 260.705 234.21 261.931 232.854C264.79 229.464 261.25 224.312 264.381 219.023C265.198 217.532 265.743 216.854 266.56 216.583C270.644 215.362 276.499 226.617 289.569 236.922C291.476 238.413 294.199 240.447 297.33 239.905C299.781 239.498 301.142 237.735 304.41 234.074C307.541 230.549 311.081 227.43 314.485 224.04C319.114 219.295 321.429 216.989 324.424 214.684C330.551 209.803 336.133 207.091 340.218 205.193C344.983 202.888 349.204 201.396 352.199 200.312C349.204 199.362 344.983 197.735 340.218 195.43C336.133 193.396 330.551 190.684 324.424 185.939C321.429 183.634 319.114 181.193 314.485 176.583C311.081 173.193 307.541 170.074 304.41 166.549C301.142 162.888 299.917 161.125 297.33 160.718C294.199 160.176 291.476 162.21 289.569 163.701C276.499 174.006 270.644 185.261 266.56 184.04C265.743 183.769 265.335 183.091 264.381 181.6C261.25 176.312 264.79 171.159 261.931 167.769C260.705 166.413 259.072 166.006 258.119 165.871C252.4 164.65 248.179 170.21 238.24 177.125C234.292 179.973 229.527 183.091 222.991 185.803C215.912 188.786 209.921 191.227 204.066 188.65C199.437 186.617 195.761 182.006 194.944 176.718C193.991 170.345 197.395 165.6 198.212 164.379C201.616 159.769 206.517 158.142 215.231 155.566C224.081 152.989 233.203 151.634 234.7 151.362C243.414 150.142 249.541 149.871 251.311 145.939C251.992 144.447 251.856 142.82 251.719 142.413C250.902 137.261 244.095 136.176 243.55 131.159C243.414 130.481 243.278 129.125 244.095 127.905C247.499 122.617 263.701 128.447 275.41 125.057C279.767 123.837 281.536 121.803 282.353 120.312C282.626 119.905 283.034 118.956 283.443 117.057C284.26 112.583 283.306 109.193 282.626 104.989C282.626 104.989 281.945 100.515 281.673 95.9047C281.536 93.7352 281.536 89.3962 285.076 78.4132C286.71 73.2607 289.161 66.481 292.837 58.7522C289.978 60.1081 286.166 61.8708 281.537 63.4979C277.18 64.9895 271.325 67.0234 263.565 67.9725C259.752 68.3793 256.485 68.3793 249.813 68.3793C245.048 68.3793 240.283 68.6505 235.517 68.3793C230.616 68.1081 228.438 67.8369 226.395 69.3285C223.808 71.2268 223.4 74.481 223.128 76.9217C221.222 93.4641 225.17 105.396 221.358 107.43C220.541 107.837 219.724 107.701 218.09 107.295C212.099 105.803 211.01 99.5658 206.517 99.2946C204.747 99.159 203.25 100.108 202.433 100.65C197.531 103.769 198.484 110.684 196.442 122.752C195.625 127.498 194.536 133.057 191.813 139.701C188.818 146.752 186.503 152.718 180.512 155.023C175.883 156.922 169.893 156.108 165.536 152.989C160.362 149.193 159.273 143.362 159.137 142.006C158.184 136.312 160.498 131.837 164.991 123.701C169.348 115.701 174.794 108.244 175.747 107.023C181.057 99.9725 185.141 95.6336 183.644 91.5658C183.099 89.9386 181.738 88.9895 181.465 88.7183C177.245 85.5996 171.662 89.6674 167.714 86.5488C167.169 86.142 166.08 85.1929 165.672 83.8369C164.31 77.7352 179.968 70.4132 185.686 59.7013C187.864 55.7691 187.592 53.0573 187.184 51.5658C187.048 51.0234 186.775 50.0742 185.686 48.5827C183.099 44.7861 180.104 43.0234 176.564 40.5827C176.564 40.5827 172.888 38.0065 169.484 34.7522C167.85 33.2607 164.855 30.2776 159.409 19.9725C156.822 15.0912 153.691 8.44711 150.695 0.311514C147.7 8.44711 144.568 15.0912 141.982 19.9725C136.672 30.142 133.54 33.2607 131.906 34.7522Z" fill="#EFB852"/>
<path d="M174.757 200.313C174.757 187.855 163.985 177.756 150.697 177.756C137.409 177.756 126.637 187.855 126.637 200.313C126.637 212.77 137.409 222.869 150.697 222.869C163.985 222.869 174.757 212.77 174.757 200.313Z" fill="#D84E00"/>
<path d="M150.692 322.114C152.984 324.955 159.715 334.288 159.715 347.678C159.715 351.33 159.285 362.557 150.692 373.242C148.401 370.402 141.67 361.069 141.67 347.678C141.67 344.026 142.243 332.8 150.692 322.114Z" fill="#D84E00"/>
<path d="M150.692 27.3771C152.984 30.2175 159.715 39.5503 159.715 52.941C159.715 56.593 159.285 67.8194 150.692 78.5049C148.401 75.6644 141.67 66.3316 141.67 52.941C141.67 49.289 142.243 38.0625 150.692 27.3771Z" fill="#D84E00"/>
<path d="M274.001 200.314C276.841 198.405 286.174 192.795 299.565 192.795C303.217 192.795 314.443 193.153 325.129 200.314C322.288 202.224 312.956 207.833 299.565 207.833C295.913 207.833 284.686 207.475 274.001 200.314Z" fill="#D84E00"/>
<path d="M-20.7354 200.314C-17.8949 198.405 -8.56206 192.795 4.82856 192.795C8.48054 192.795 19.707 193.153 30.3925 200.314C27.552 202.224 18.2192 207.833 4.82856 207.833C1.17657 207.833 -10.0499 207.475 -20.7354 200.314Z" fill="#D84E00"/>
<path d="M30.3896 78.5074C33.9041 79.0481 44.9879 81.0756 54.4498 90.5375C57.018 93.1057 64.5875 101.351 66.4799 114.598C62.9655 114.057 51.8816 112.029 42.4197 102.568C39.9867 99.9993 32.282 91.754 30.3896 78.5074Z" fill="#D84E00"/>
<path d="M237.913 286.027C241.427 286.568 252.511 288.595 261.973 298.057C264.541 300.625 272.111 308.871 274.003 322.117C270.489 321.577 259.405 319.549 249.943 310.087C247.375 307.654 239.805 299.409 237.913 286.027Z" fill="#D84E00"/>
<path d="M30.3896 322.117C33.9041 321.577 44.9879 319.549 54.4498 310.087C57.018 307.519 64.5875 299.274 66.4799 286.027C62.9655 286.568 51.8816 288.595 42.4197 298.057C39.9867 300.49 32.282 308.735 30.3896 322.117Z" fill="#D84E00"/>
<path d="M237.913 114.598C241.427 114.057 252.511 112.029 261.973 102.568C264.541 99.9993 272.111 91.754 274.003 78.5074C270.489 79.0481 259.405 81.0756 249.943 90.5375C247.375 93.1057 239.805 101.351 237.913 114.598Z" fill="#D84E00"/>
<ellipse cx="150.696" cy="200.312" rx="68.3998" ry="47" transform="rotate(-180 150.696 200.312)" fill="#ECE1CF"/>
<ellipse cx="150.698" cy="200.312" rx="15.4767" ry="47" transform="rotate(-180 150.698 200.312)" fill="black"/>
</g>
</svg>
